<?xml version="1.0" encoding="utf-8" standalone="no"?>
<!DOCTYPE svg PUBLIC "-//W3C//DTD SVG 1.1//EN"
  "http://www.w3.org/Graphics/SVG/1.1/DTD/svg11.dtd">
<!-- Created with matplotlib (https://matplotlib.org/) -->
<svg height="155.52pt" version="1.1" viewBox="0 0 249.12 155.52" width="249.12pt" xmlns="http://www.w3.org/2000/svg" xmlns:xlink="http://www.w3.org/1999/xlink">
 <metadata>
  <rdf:RDF xmlns:cc="http://creativecommons.org/ns#" xmlns:dc="http://purl.org/dc/elements/1.1/" xmlns:rdf="http://www.w3.org/1999/02/22-rdf-syntax-ns#">
   <cc:Work>
    <dc:type rdf:resource="http://purl.org/dc/dcmitype/StillImage"/>
    <dc:date>2021-11-11T09:57:46.647983</dc:date>
    <dc:format>image/svg+xml</dc:format>
    <dc:creator>
     <cc:Agent>
      <dc:title>Matplotlib v3.3.4, https://matplotlib.org/</dc:title>
     </cc:Agent>
    </dc:creator>
   </cc:Work>
  </rdf:RDF>
 </metadata>
 <defs>
  <style type="text/css">*{stroke-linecap:butt;stroke-linejoin:round;}</style>
 </defs>
 <g id="figure_1">
  <g id="patch_1">
   <path d="M 0 155.52 
L 249.12 155.52 
L 249.12 0 
L 0 0 
z
" style="fill:#ffffff;"/>
  </g>
  <g id="axes_1">
   <g id="patch_2">
    <path d="M 36.97899 126.88726 
L 246.11976 126.88726 
L 246.11976 3.00024 
L 36.97899 3.00024 
z
" style="fill:#ffffff;"/>
   </g>
   <g id="PolyCollection_1">
    <path clip-path="url(#p94f44e7d85)" d="M 36.97899 133.811481 
L 36.97899 210.196758 
L 38.373262 93.861533 
L 39.767534 87.606483 
L 41.161805 85.001103 
L 42.556077 85.871612 
L 43.950349 88.568762 
L 45.344621 91.927459 
L 46.738893 95.007255 
L 48.133164 97.620704 
L 49.527436 99.965833 
L 50.921708 101.536075 
L 52.31598 102.867714 
L 53.710252 104.089065 
L 55.104523 104.90295 
L 56.498795 105.697906 
L 57.893067 106.256182 
L 59.287339 106.426989 
L 60.681611 107.296185 
L 62.075882 107.757685 
L 63.470154 108.070182 
L 64.864426 108.013176 
L 66.258698 108.456285 
L 67.65297 108.648829 
L 69.047241 108.575115 
L 70.441513 108.821908 
L 71.835785 108.774834 
L 73.230057 108.710362 
L 74.624329 108.938638 
L 76.0186 109.49217 
L 77.412872 109.182653 
L 78.807144 108.891166 
L 80.201416 109.18788 
L 81.595688 108.930038 
L 82.989959 109.301543 
L 84.384231 109.4263 
L 85.778503 109.819272 
L 87.172775 109.422563 
L 88.567047 109.277298 
L 89.961318 109.935993 
L 91.35559 109.91567 
L 92.749862 109.712836 
L 94.144134 109.73541 
L 95.538406 109.819516 
L 96.932677 109.756957 
L 98.326949 109.821665 
L 99.721221 109.721442 
L 101.115493 110.039935 
L 102.509765 109.752836 
L 103.904036 109.89901 
L 105.298308 109.926797 
L 106.69258 109.67929 
L 108.086852 109.964561 
L 109.481124 110.329454 
L 110.875395 109.868379 
L 112.269667 109.753149 
L 113.663939 110.206643 
L 115.058211 109.810575 
L 116.452483 110.136964 
L 117.846754 110.161173 
L 119.241026 109.877991 
L 120.635298 109.974339 
L 122.02957 110.132093 
L 123.423842 109.845949 
L 124.818113 110.11283 
L 126.212385 110.245538 
L 127.606657 109.968711 
L 129.000929 109.864265 
L 130.395201 109.996784 
L 131.789472 110.197922 
L 133.183744 110.015881 
L 134.578016 110.140669 
L 135.972288 110.202741 
L 137.36656 109.937834 
L 138.760831 110.096454 
L 140.155103 109.849016 
L 141.549375 109.74303 
L 142.943647 96.053881 
L 144.337919 89.313408 
L 145.73219 77.819619 
L 147.126462 73.150855 
L 148.520734 74.44429 
L 149.915006 78.73836 
L 151.309278 84.085891 
L 152.703549 89.4274 
L 154.097821 93.960553 
L 155.492093 97.020197 
L 156.886365 99.99189 
L 158.280637 101.834558 
L 159.674908 102.959465 
L 161.06918 104.242552 
L 162.463452 105.27021 
L 163.857724 105.821005 
L 165.251996 106.043169 
L 166.646267 106.665394 
L 168.040539 106.382071 
L 169.434811 106.760494 
L 170.829083 107.249856 
L 172.223355 107.497541 
L 173.617626 107.263456 
L 175.011898 107.70966 
L 176.40617 107.602031 
L 177.800442 107.284713 
L 179.194714 107.792384 
L 180.588985 107.232322 
L 181.983257 107.671436 
L 183.377529 107.661586 
L 184.771801 107.621983 
L 186.166073 107.649761 
L 187.560344 107.52765 
L 188.954616 107.610705 
L 190.348888 108.101577 
L 191.74316 108.154314 
L 193.137432 107.744727 
L 194.531703 107.830143 
L 195.925975 108.263602 
L 197.320247 107.973681 
L 198.714519 108.026001 
L 200.108791 108.107467 
L 201.503062 108.132687 
L 202.897334 108.242212 
L 204.291606 108.075852 
L 205.685878 108.012962 
L 207.08015 108.373498 
L 208.474421 108.505525 
L 209.868693 108.325819 
L 211.262965 108.35313 
L 212.657237 108.515538 
L 214.051509 108.148445 
L 215.44578 108.437892 
L 216.840052 108.389417 
L 218.234324 108.058704 
L 219.628596 108.005045 
L 221.022868 108.285123 
L 222.417139 107.642616 
L 223.811411 107.842185 
L 225.205683 108.152478 
L 226.599955 108.004307 
L 227.994227 107.958212 
L 229.388498 108.077447 
L 230.78277 108.317781 
L 232.177042 108.351357 
L 233.571314 108.286062 
L 234.965586 108.515323 
L 236.359857 108.249949 
L 237.754129 108.650426 
L 239.148401 108.538697 
L 240.542673 108.766304 
L 241.936945 108.35486 
L 243.331216 108.261971 
L 244.725488 108.306454 
L 246.11976 108.253139 
L 247.514032 108.370843 
L 248.908304 93.01119 
L 250.302575 96.146983 
L 251.696847 92.816969 
L 253.091119 90.736272 
L 254.485391 91.650295 
L 255.879663 93.408167 
L 257.273934 95.604573 
L 258.668206 97.941695 
L 260.062478 99.579137 
L 261.45675 101.078931 
L 262.851022 102.231248 
L 264.245293 103.303316 
L 265.639565 104.25621 
L 267.033837 105.018022 
L 268.428109 105.677908 
L 269.822381 106.670925 
L 271.216652 106.792049 
L 272.610924 107.117952 
L 274.005196 107.520682 
L 275.399468 107.798618 
L 276.79374 108.171029 
L 278.188011 108.087378 
L 279.582283 108.457111 
L 280.976555 108.641379 
L 282.370827 108.621067 
L 283.765099 108.725565 
L 285.15937 108.413921 
L 286.553642 108.93979 
L 287.947914 108.859795 
L 289.342186 109.22213 
L 290.736458 109.088734 
L 292.130729 109.024747 
L 293.525001 109.129205 
L 294.919273 109.112122 
L 296.313545 109.119437 
L 297.707817 109.590938 
L 299.102088 109.29747 
L 300.49636 109.293496 
L 301.890632 109.134154 
L 303.284904 109.517697 
L 304.679176 109.448482 
L 306.073447 109.554878 
L 307.467719 109.238132 
L 308.861991 109.403239 
L 310.256263 109.317725 
L 311.650535 109.294071 
L 313.044806 109.635926 
L 314.439078 109.675369 
L 315.83335 109.813374 
L 317.227622 109.637723 
L 318.621894 109.479169 
L 320.016165 109.679245 
L 321.410437 109.765062 
L 322.804709 109.78505 
L 324.198981 109.903508 
L 325.593253 109.383904 
L 326.987524 109.866617 
L 328.381796 109.899136 
L 329.776068 109.869217 
L 331.17034 110.175846 
L 332.564612 109.88147 
L 333.958883 110.005933 
L 335.353155 109.696373 
L 336.747427 109.894717 
L 338.141699 109.663876 
L 339.535971 110.073552 
L 340.930242 109.654067 
L 342.324514 109.729134 
L 343.718786 110.186855 
L 345.113058 109.734455 
L 346.50733 109.875746 
L 347.901601 110.019916 
L 349.295873 109.576461 
L 350.690145 109.965765 
L 352.084417 109.985813 
L 353.478689 109.865281 
L 354.87296 96.203825 
L 356.267232 89.577455 
L 357.661504 78.229182 
L 359.055776 73.577178 
L 360.450048 74.213525 
L 361.844319 78.288089 
L 363.238591 83.783205 
L 364.632863 89.180063 
L 366.027135 93.902371 
L 367.421407 96.8281 
L 368.815678 100.061482 
L 370.20995 102.198655 
L 371.604222 103.545556 
L 372.998494 104.376336 
L 374.392766 105.33597 
L 375.787037 105.836679 
L 377.181309 106.554793 
L 378.575581 106.851032 
L 379.969853 106.675492 
L 381.364125 107.092394 
L 382.758396 106.804474 
L 384.152668 107.119351 
L 385.54694 107.59165 
L 386.941212 107.704199 
L 388.335484 107.873813 
L 389.729755 107.790302 
L 391.124027 107.869284 
L 392.518299 108.105803 
L 393.912571 108.198344 
L 395.306843 108.261376 
L 396.701114 107.809282 
L 398.095386 107.726373 
L 399.489658 107.746569 
L 400.88393 108.063665 
L 402.278202 108.073534 
L 403.672473 107.871068 
L 405.066745 108.00758 
L 406.461017 107.876056 
L 407.855289 108.066458 
L 409.249561 108.167903 
L 410.643832 108.421289 
L 412.038104 108.130559 
L 413.432376 108.320032 
L 414.826648 108.395597 
L 416.22092 108.147441 
L 417.615191 108.571249 
L 419.009463 108.693439 
L 420.403735 107.822339 
L 421.798007 107.951007 
L 423.192279 107.79298 
L 424.58655 108.072772 
L 425.980822 108.143486 
L 427.375094 108.544299 
L 428.769366 108.297899 
L 430.163638 108.276293 
L 431.557909 108.103293 
L 432.952181 107.813226 
L 434.346453 107.850098 
L 435.740725 108.199152 
L 437.134997 108.117148 
L 438.529268 107.765689 
L 439.92354 107.884727 
L 441.317812 108.174048 
L 442.712084 108.461675 
L 444.106356 108.16007 
L 445.500627 108.061097 
L 446.894899 107.955163 
L 448.289171 107.912718 
L 449.683443 107.823826 
L 451.077715 107.738685 
L 452.471986 108.087676 
L 453.866258 107.976774 
L 455.26053 108.201257 
L 456.654802 108.009171 
L 458.049074 107.928999 
L 459.443345 108.385583 
L 460.837617 93.143764 
L 462.231889 96.003092 
L 463.626161 93.357294 
L 465.020433 90.84811 
L 466.414704 91.435389 
L 467.808976 93.080785 
L 469.203248 95.572654 
L 470.59752 97.972552 
L 471.991792 99.913857 
L 473.386063 101.045755 
L 474.780335 102.49237 
L 476.174607 103.660673 
L 477.568879 104.389346 
L 478.963151 105.334252 
L 480.357422 106.069989 
L 481.751694 106.6057 
L 483.145966 107.076394 
L 484.540238 107.130691 
L 485.93451 107.63579 
L 487.328781 108.15048 
L 488.723053 107.914553 
L 490.117325 108.163713 
L 491.511597 108.519745 
L 492.905869 108.807628 
L 494.30014 109.069383 
L 495.694412 109.14285 
L 497.088684 109.046576 
L 498.482956 109.075145 
L 499.877228 109.287293 
L 501.271499 109.46127 
L 502.665771 109.332128 
L 504.060043 109.214865 
L 505.454315 109.004228 
L 506.848587 109.263102 
L 508.242858 109.341069 
L 509.63713 109.110986 
L 511.031402 109.412101 
L 512.425674 109.784188 
L 513.819946 109.060501 
L 515.214217 109.498011 
L 516.608489 109.628777 
L 518.002761 109.761724 
L 519.397033 109.500954 
L 520.791305 109.429552 
L 522.185576 109.470537 
L 523.579848 109.973643 
L 524.97412 109.848114 
L 526.368392 109.379927 
L 527.762664 109.680531 
L 529.156935 109.813226 
L 530.551207 109.627105 
L 531.945479 109.88798 
L 533.339751 109.932596 
L 534.734023 109.724936 
L 536.128294 109.792279 
L 537.522566 109.575609 
L 538.916838 109.529937 
L 540.31111 109.786292 
L 541.705382 109.784936 
L 543.099653 109.830815 
L 544.493925 109.673487 
L 545.888197 109.806621 
L 547.282469 109.762454 
L 548.676741 110.075404 
L 550.071012 110.124641 
L 551.465284 110.021829 
L 552.859556 110.085441 
L 554.253828 110.014435 
L 555.6481 110.37072 
L 557.042371 109.806994 
L 558.436643 110.159758 
L 559.830915 109.928468 
L 561.225187 110.208659 
L 562.619459 110.090432 
L 564.01373 109.997276 
L 565.408002 109.849868 
L 565.408002 99.654177 
L 565.408002 99.654177 
L 564.01373 99.805686 
L 562.619459 99.846442 
L 561.225187 99.933406 
L 559.830915 99.662137 
L 558.436643 99.916234 
L 557.042371 99.6372 
L 555.6481 100.172869 
L 554.253828 99.825091 
L 552.859556 99.887931 
L 551.465284 99.901101 
L 550.071012 99.950942 
L 548.676741 99.850578 
L 547.282469 99.538798 
L 545.888197 99.637093 
L 544.493925 99.4976 
L 543.099653 99.673437 
L 541.705382 99.384694 
L 540.31111 99.388555 
L 538.916838 99.285839 
L 537.522566 99.243917 
L 536.128294 99.474533 
L 534.734023 99.489401 
L 533.339751 99.681605 
L 531.945479 99.565276 
L 530.551207 99.435464 
L 529.156935 99.674421 
L 527.762664 99.526379 
L 526.368392 99.248013 
L 524.97412 99.67371 
L 523.579848 99.732062 
L 522.185576 99.282256 
L 520.791305 99.295304 
L 519.397033 99.268388 
L 518.002761 99.666103 
L 516.608489 99.461654 
L 515.214217 99.345043 
L 513.819946 99.033119 
L 512.425674 99.632086 
L 511.031402 99.203942 
L 509.63713 99.018649 
L 508.242858 99.240159 
L 506.848587 99.220983 
L 505.454315 98.956281 
L 504.060043 99.119154 
L 502.665771 99.258924 
L 501.271499 99.393557 
L 499.877228 99.254255 
L 498.482956 99.158127 
L 497.088684 99.260622 
L 495.694412 99.317913 
L 494.30014 99.224248 
L 492.905869 99.024452 
L 491.511597 98.91026 
L 490.117325 98.598705 
L 488.723053 98.34212 
L 487.328781 98.503372 
L 485.93451 98.033582 
L 484.540238 97.596873 
L 483.145966 97.562902 
L 481.751694 97.06156 
L 480.357422 96.495296 
L 478.963151 95.904627 
L 477.568879 94.995201 
L 476.174607 94.135733 
L 474.780335 92.711664 
L 473.386063 90.855519 
L 471.991792 88.835538 
L 470.59752 85.850181 
L 469.203248 82.081087 
L 467.808976 77.741173 
L 466.414704 73.739801 
L 465.020433 71.038192 
L 463.626161 72.102876 
L 462.231889 74.090656 
L 460.837617 79.776399 
L 459.443345 100.225885 
L 458.049074 99.906479 
L 456.654802 99.991797 
L 455.26053 100.178444 
L 453.866258 99.888057 
L 452.471986 99.921461 
L 451.077715 99.686043 
L 449.683443 99.834541 
L 448.289171 99.877269 
L 446.894899 99.920362 
L 445.500627 99.922278 
L 444.106356 100.060956 
L 442.712084 100.260141 
L 441.317812 100.00655 
L 439.92354 99.686107 
L 438.529268 99.764369 
L 437.134997 99.999169 
L 435.740725 99.969214 
L 434.346453 99.703149 
L 432.952181 99.910765 
L 431.557909 100.173066 
L 430.163638 100.298987 
L 428.769366 100.269625 
L 427.375094 100.357012 
L 425.980822 99.970122 
L 424.58655 99.98921 
L 423.192279 99.682702 
L 421.798007 99.802483 
L 420.403735 99.759175 
L 419.009463 100.567744 
L 417.615191 100.306079 
L 416.22092 99.94808 
L 414.826648 100.364275 
L 413.432376 100.363786 
L 412.038104 100.225615 
L 410.643832 100.575518 
L 409.249561 100.160135 
L 407.855289 100.097097 
L 406.461017 99.977359 
L 405.066745 100.050917 
L 403.672473 99.878788 
L 402.278202 100.026112 
L 400.88393 99.954246 
L 399.489658 99.652228 
L 398.095386 99.677052 
L 396.701114 99.814226 
L 395.306843 100.195209 
L 393.912571 100.094979 
L 392.518299 100.016581 
L 391.124027 99.859057 
L 389.729755 99.914526 
L 388.335484 100.090339 
L 386.941212 99.806421 
L 385.54694 99.677907 
L 384.152668 99.206868 
L 382.758396 99.047697 
L 381.364125 99.295817 
L 379.969853 98.993267 
L 378.575581 99.080857 
L 377.181309 98.657076 
L 375.787037 97.984495 
L 374.392766 97.426758 
L 372.998494 96.410244 
L 371.604222 95.434273 
L 370.20995 93.833349 
L 368.815678 91.474708 
L 367.421407 88.459908 
L 366.027135 85.258 
L 364.632863 80.02975 
L 363.238591 74.133364 
L 361.844319 67.351761 
L 360.450048 61.360754 
L 359.055776 59.305874 
L 357.661504 60.307926 
L 356.267232 71.10009 
L 354.87296 80.32029 
L 353.478689 99.551269 
L 352.084417 99.774329 
L 350.690145 99.767244 
L 349.295873 99.386219 
L 347.901601 99.756176 
L 346.50733 99.473926 
L 345.113058 99.445878 
L 343.718786 99.859497 
L 342.324514 99.431897 
L 340.930242 99.348703 
L 339.535971 99.816229 
L 338.141699 99.316805 
L 336.747427 99.647582 
L 335.353155 99.418017 
L 333.958883 99.665665 
L 332.564612 99.593267 
L 331.17034 99.902559 
L 329.776068 99.674724 
L 328.381796 99.613436 
L 326.987524 99.672227 
L 325.593253 99.327134 
L 324.198981 99.800449 
L 322.804709 99.439504 
L 321.410437 99.441832 
L 320.016165 99.391945 
L 318.621894 99.259624 
L 317.227622 99.386343 
L 315.83335 99.53611 
L 314.439078 99.345519 
L 313.044806 99.375034 
L 311.650535 99.136529 
L 310.256263 99.242549 
L 308.861991 99.320231 
L 307.467719 99.108595 
L 306.073447 99.360831 
L 304.679176 99.17738 
L 303.284904 99.306649 
L 301.890632 99.095602 
L 300.49636 99.310966 
L 299.102088 99.249819 
L 297.707817 99.519554 
L 296.313545 99.060605 
L 294.919273 99.058381 
L 293.525001 99.168795 
L 292.130729 99.07773 
L 290.736458 98.988584 
L 289.342186 99.071451 
L 287.947914 98.828363 
L 286.553642 98.939436 
L 285.15937 98.530726 
L 283.765099 98.824428 
L 282.370827 98.736759 
L 280.976555 98.983954 
L 279.582283 98.744065 
L 278.188011 98.3653 
L 276.79374 98.500844 
L 275.399468 98.182154 
L 274.005196 97.99148 
L 272.610924 97.700291 
L 271.216652 97.369744 
L 269.822381 97.084084 
L 268.428109 96.095259 
L 267.033837 95.649353 
L 265.639565 94.771103 
L 264.245293 93.671669 
L 262.851022 92.349102 
L 261.45675 90.703401 
L 260.062478 88.450502 
L 258.668206 85.669668 
L 257.273934 82.044649 
L 255.879663 77.899605 
L 254.485391 73.830413 
L 253.091119 70.797998 
L 251.696847 71.632757 
L 250.302575 74.205794 
L 248.908304 79.568166 
L 247.514032 100.255098 
L 246.11976 100.097138 
L 244.725488 100.205276 
L 243.331216 100.175161 
L 241.936945 100.331153 
L 240.542673 100.639427 
L 239.148401 100.550437 
L 237.754129 100.600957 
L 236.359857 100.259567 
L 234.965586 100.525413 
L 233.571314 100.335628 
L 232.177042 100.412999 
L 230.78277 100.329272 
L 229.388498 100.119923 
L 227.994227 99.991636 
L 226.599955 99.998496 
L 225.205683 100.111296 
L 223.811411 99.655294 
L 222.417139 99.580593 
L 221.022868 100.134319 
L 219.628596 99.858273 
L 218.234324 99.981103 
L 216.840052 100.254933 
L 215.44578 100.134858 
L 214.051509 100.062501 
L 212.657237 100.442092 
L 211.262965 100.267769 
L 209.868693 100.217864 
L 208.474421 100.458145 
L 207.08015 100.322103 
L 205.685878 100.018406 
L 204.291606 100.114314 
L 202.897334 100.289477 
L 201.503062 100.136345 
L 200.108791 99.975858 
L 198.714519 99.96783 
L 197.320247 99.997952 
L 195.925975 100.300144 
L 194.531703 99.885711 
L 193.137432 99.834577 
L 191.74316 100.207258 
L 190.348888 100.032522 
L 188.954616 99.57001 
L 187.560344 99.506865 
L 186.166073 99.705408 
L 184.771801 99.577587 
L 183.377529 99.582617 
L 181.983257 99.491439 
L 180.588985 99.180972 
L 179.194714 99.671833 
L 177.800442 99.183422 
L 176.40617 99.554479 
L 175.011898 99.629308 
L 173.617626 99.439969 
L 172.223355 99.749096 
L 170.829083 99.367507 
L 169.434811 98.936222 
L 168.040539 98.713232 
L 166.646267 99.004638 
L 165.251996 98.266664 
L 163.857724 97.91148 
L 162.463452 97.211888 
L 161.06918 96.233924 
L 159.674908 94.956781 
L 158.280637 93.589958 
L 156.886365 91.478237 
L 155.492093 88.603567 
L 154.097821 85.162143 
L 152.703549 80.36063 
L 151.309278 74.421989 
L 149.915006 67.819913 
L 148.520734 61.461745 
L 147.126462 58.726045 
L 145.73219 59.712475 
L 144.337919 70.895363 
L 142.943647 80.007401 
L 141.549375 99.368625 
L 140.155103 99.462436 
L 138.760831 99.59359 
L 137.36656 99.404684 
L 135.972288 99.836477 
L 134.578016 99.67633 
L 133.183744 99.607126 
L 131.789472 99.905387 
L 130.395201 99.611208 
L 129.000929 99.502068 
L 127.606657 99.637259 
L 126.212385 99.836412 
L 124.818113 99.663295 
L 123.423842 99.419911 
L 122.02957 99.58363 
L 120.635298 99.522786 
L 119.241026 99.601119 
L 117.846754 99.775106 
L 116.452483 99.69427 
L 115.058211 99.43683 
L 113.663939 99.877526 
L 112.269667 99.416256 
L 110.875395 99.553023 
L 109.481124 99.843339 
L 108.086852 99.558645 
L 106.69258 99.310967 
L 105.298308 99.566791 
L 103.904036 99.542266 
L 102.509765 99.4045 
L 101.115493 99.54906 
L 99.721221 99.363594 
L 98.326949 99.543193 
L 96.932677 99.36797 
L 95.538406 99.33893 
L 94.144134 99.348836 
L 92.749862 99.277893 
L 91.35559 99.379915 
L 89.961318 99.433095 
L 88.567047 98.934585 
L 87.172775 99.154024 
L 85.778503 99.496399 
L 84.384231 98.930477 
L 82.989959 98.96533 
L 81.595688 98.560176 
L 80.201416 98.877752 
L 78.807144 98.508035 
L 77.412872 98.769691 
L 76.0186 98.94541 
L 74.624329 98.330489 
L 73.230057 98.295236 
L 71.835785 98.53142 
L 70.441513 98.616607 
L 69.047241 98.280304 
L 67.65297 98.415756 
L 66.258698 98.264467 
L 64.864426 97.950477 
L 63.470154 98.087124 
L 62.075882 97.821454 
L 60.681611 97.397922 
L 59.287339 96.703247 
L 57.893067 96.482285 
L 56.498795 95.957584 
L 55.104523 95.152034 
L 53.710252 94.352362 
L 52.31598 93.13324 
L 50.921708 91.752178 
L 49.527436 89.924031 
L 48.133164 87.107835 
L 46.738893 83.516909 
L 45.344621 78.819588 
L 43.950349 72.939203 
L 42.556077 66.167416 
L 41.161805 60.986395 
L 39.767534 60.483965 
L 38.373262 63.645085 
L 36.97899 133.811481 
z
" style="fill:#ababab;fill-opacity:0.2;stroke:#ababab;stroke-opacity:0.2;"/>
   </g>
   <g id="matplotlib.axis_1">
    <g id="xtick_1">
     <g id="line2d_1">
      <defs>
       <path d="M 0 0 
L 0 3.5 
" id="m71c1c4108a" style="stroke:#000000;stroke-width:0.8;"/>
      </defs>
      <g>
       <use style="stroke:#000000;stroke-width:0.8;" x="36.97899" xlink:href="#m71c1c4108a" y="126.88726"/>
      </g>
     </g>
     <g id="text_1">
      <!-- 0 -->
      <g transform="translate(34.754615 139.61351)scale(0.08 -0.08)">
       <defs>
        <path d="M 4.15625 35.296875 
Q 4.15625 48 6.765625 55.734375 
Q 9.375 63.484375 14.515625 67.671875 
Q 19.671875 71.875 27.484375 71.875 
Q 33.25 71.875 37.59375 69.546875 
Q 41.9375 67.234375 44.765625 62.859375 
Q 47.609375 58.5 49.21875 52.21875 
Q 50.828125 45.953125 50.828125 35.296875 
Q 50.828125 22.703125 48.234375 14.96875 
Q 45.65625 7.234375 40.5 3 
Q 35.359375 -1.21875 27.484375 -1.21875 
Q 17.140625 -1.21875 11.234375 6.203125 
Q 4.15625 15.140625 4.15625 35.296875 
z
M 13.1875 35.296875 
Q 13.1875 17.671875 17.3125 11.828125 
Q 21.4375 6 27.484375 6 
Q 33.546875 6 37.671875 11.859375 
Q 41.796875 17.71875 41.796875 35.296875 
Q 41.796875 52.984375 37.671875 58.78125 
Q 33.546875 64.59375 27.390625 64.59375 
Q 21.34375 64.59375 17.71875 59.46875 
Q 13.1875 52.9375 13.1875 35.296875 
z
" id="ArialMT-48"/>
       </defs>
       <use xlink:href="#ArialMT-48"/>
      </g>
     </g>
    </g>
    <g id="xtick_2">
     <g id="line2d_2">
      <g>
       <use style="stroke:#000000;stroke-width:0.8;" x="64.864426" xlink:href="#m71c1c4108a" y="126.88726"/>
      </g>
     </g>
     <g id="text_2">
      <!-- 20 -->
      <g transform="translate(60.415676 139.61351)scale(0.08 -0.08)">
       <defs>
        <path d="M 50.34375 8.453125 
L 50.34375 0 
L 3.03125 0 
Q 2.9375 3.171875 4.046875 6.109375 
Q 5.859375 10.9375 9.828125 15.625 
Q 13.8125 20.3125 21.34375 26.46875 
Q 33.015625 36.03125 37.109375 41.625 
Q 41.21875 47.21875 41.21875 52.203125 
Q 41.21875 57.421875 37.46875 61 
Q 33.734375 64.59375 27.734375 64.59375 
Q 21.390625 64.59375 17.578125 60.78125 
Q 13.765625 56.984375 13.71875 50.25 
L 4.6875 51.171875 
Q 5.609375 61.28125 11.65625 66.578125 
Q 17.71875 71.875 27.9375 71.875 
Q 38.234375 71.875 44.234375 66.15625 
Q 50.25 60.453125 50.25 52 
Q 50.25 47.703125 48.484375 43.546875 
Q 46.734375 39.40625 42.65625 34.8125 
Q 38.578125 30.21875 29.109375 22.21875 
Q 21.1875 15.578125 18.9375 13.203125 
Q 16.703125 10.84375 15.234375 8.453125 
z
" id="ArialMT-50"/>
       </defs>
       <use xlink:href="#ArialMT-50"/>
       <use x="55.615234" xlink:href="#ArialMT-48"/>
      </g>
     </g>
    </g>
    <g id="xtick_3">
     <g id="line2d_3">
      <g>
       <use style="stroke:#000000;stroke-width:0.8;" x="92.749862" xlink:href="#m71c1c4108a" y="126.88726"/>
      </g>
     </g>
     <g id="text_3">
      <!-- 40 -->
      <g transform="translate(88.301112 139.61351)scale(0.08 -0.08)">
       <defs>
        <path d="M 32.328125 0 
L 32.328125 17.140625 
L 1.265625 17.140625 
L 1.265625 25.203125 
L 33.9375 71.578125 
L 41.109375 71.578125 
L 41.109375 25.203125 
L 50.78125 25.203125 
L 50.78125 17.140625 
L 41.109375 17.140625 
L 41.109375 0 
z
M 32.328125 25.203125 
L 32.328125 57.46875 
L 9.90625 25.203125 
z
" id="ArialMT-52"/>
       </defs>
       <use xlink:href="#ArialMT-52"/>
       <use x="55.615234" xlink:href="#ArialMT-48"/>
      </g>
     </g>
    </g>
    <g id="xtick_4">
     <g id="line2d_4">
      <g>
       <use style="stroke:#000000;stroke-width:0.8;" x="120.635298" xlink:href="#m71c1c4108a" y="126.88726"/>
      </g>
     </g>
     <g id="text_4">
      <!-- 60 -->
      <g transform="translate(116.186548 139.61351)scale(0.08 -0.08)">
       <defs>
        <path d="M 49.75 54.046875 
L 41.015625 53.375 
Q 39.84375 58.546875 37.703125 60.890625 
Q 34.125 64.65625 28.90625 64.65625 
Q 24.703125 64.65625 21.53125 62.3125 
Q 17.390625 59.28125 14.984375 53.46875 
Q 12.59375 47.65625 12.5 36.921875 
Q 15.671875 41.75 20.265625 44.09375 
Q 24.859375 46.4375 29.890625 46.4375 
Q 38.671875 46.4375 44.84375 39.96875 
Q 51.03125 33.5 51.03125 23.25 
Q 51.03125 16.5 48.125 10.71875 
Q 45.21875 4.9375 40.140625 1.859375 
Q 35.0625 -1.21875 28.609375 -1.21875 
Q 17.625 -1.21875 10.6875 6.859375 
Q 3.765625 14.9375 3.765625 33.5 
Q 3.765625 54.25 11.421875 63.671875 
Q 18.109375 71.875 29.4375 71.875 
Q 37.890625 71.875 43.28125 67.140625 
Q 48.6875 62.40625 49.75 54.046875 
z
M 13.875 23.1875 
Q 13.875 18.65625 15.796875 14.5 
Q 17.71875 10.359375 21.1875 8.171875 
Q 24.65625 6 28.46875 6 
Q 34.03125 6 38.03125 10.484375 
Q 42.046875 14.984375 42.046875 22.703125 
Q 42.046875 30.125 38.078125 34.390625 
Q 34.125 38.671875 28.125 38.671875 
Q 22.171875 38.671875 18.015625 34.390625 
Q 13.875 30.125 13.875 23.1875 
z
" id="ArialMT-54"/>
       </defs>
       <use xlink:href="#ArialMT-54"/>
       <use x="55.615234" xlink:href="#ArialMT-48"/>
      </g>
     </g>
    </g>
    <g id="xtick_5">
     <g id="line2d_5">
      <g>
       <use style="stroke:#000000;stroke-width:0.8;" x="148.520734" xlink:href="#m71c1c4108a" y="126.88726"/>
      </g>
     </g>
     <g id="text_5">
      <!-- 80 -->
      <g transform="translate(144.071984 139.61351)scale(0.08 -0.08)">
       <defs>
        <path d="M 17.671875 38.8125 
Q 12.203125 40.828125 9.5625 44.53125 
Q 6.9375 48.25 6.9375 53.421875 
Q 6.9375 61.234375 12.546875 66.546875 
Q 18.171875 71.875 27.484375 71.875 
Q 36.859375 71.875 42.578125 66.421875 
Q 48.296875 60.984375 48.296875 53.171875 
Q 48.296875 48.1875 45.671875 44.5 
Q 43.0625 40.828125 37.75 38.8125 
Q 44.34375 36.671875 47.78125 31.875 
Q 51.21875 27.09375 51.21875 20.453125 
Q 51.21875 11.28125 44.71875 5.03125 
Q 38.234375 -1.21875 27.640625 -1.21875 
Q 17.046875 -1.21875 10.546875 5.046875 
Q 4.046875 11.328125 4.046875 20.703125 
Q 4.046875 27.6875 7.59375 32.390625 
Q 11.140625 37.109375 17.671875 38.8125 
z
M 15.921875 53.71875 
Q 15.921875 48.640625 19.1875 45.40625 
Q 22.46875 42.1875 27.6875 42.1875 
Q 32.765625 42.1875 36.015625 45.375 
Q 39.265625 48.578125 39.265625 53.21875 
Q 39.265625 58.0625 35.90625 61.359375 
Q 32.5625 64.65625 27.59375 64.65625 
Q 22.5625 64.65625 19.234375 61.421875 
Q 15.921875 58.203125 15.921875 53.71875 
z
M 13.09375 20.65625 
Q 13.09375 16.890625 14.875 13.375 
Q 16.65625 9.859375 20.171875 7.921875 
Q 23.6875 6 27.734375 6 
Q 34.03125 6 38.125 10.046875 
Q 42.234375 14.109375 42.234375 20.359375 
Q 42.234375 26.703125 38.015625 30.859375 
Q 33.796875 35.015625 27.4375 35.015625 
Q 21.234375 35.015625 17.15625 30.90625 
Q 13.09375 26.8125 13.09375 20.65625 
z
" id="ArialMT-56"/>
       </defs>
       <use xlink:href="#ArialMT-56"/>
       <use x="55.615234" xlink:href="#ArialMT-48"/>
      </g>
     </g>
    </g>
    <g id="xtick_6">
     <g id="line2d_6">
      <g>
       <use style="stroke:#000000;stroke-width:0.8;" x="176.40617" xlink:href="#m71c1c4108a" y="126.88726"/>
      </g>
     </g>
     <g id="text_6">
      <!-- 100 -->
      <g transform="translate(169.733045 139.61351)scale(0.08 -0.08)">
       <defs>
        <path d="M 37.25 0 
L 28.46875 0 
L 28.46875 56 
Q 25.296875 52.984375 20.140625 49.953125 
Q 14.984375 46.921875 10.890625 45.40625 
L 10.890625 53.90625 
Q 18.265625 57.375 23.78125 62.296875 
Q 29.296875 67.234375 31.59375 71.875 
L 37.25 71.875 
z
" id="ArialMT-49"/>
       </defs>
       <use xlink:href="#ArialMT-49"/>
       <use x="55.615234" xlink:href="#ArialMT-48"/>
       <use x="111.230469" xlink:href="#ArialMT-48"/>
      </g>
     </g>
    </g>
    <g id="xtick_7">
     <g id="line2d_7">
      <g>
       <use style="stroke:#000000;stroke-width:0.8;" x="204.291606" xlink:href="#m71c1c4108a" y="126.88726"/>
      </g>
     </g>
     <g id="text_7">
      <!-- 120 -->
      <g transform="translate(197.618481 139.61351)scale(0.08 -0.08)">
       <use xlink:href="#ArialMT-49"/>
       <use x="55.615234" xlink:href="#ArialMT-50"/>
       <use x="111.230469" xlink:href="#ArialMT-48"/>
      </g>
     </g>
    </g>
    <g id="xtick_8">
     <g id="line2d_8">
      <g>
       <use style="stroke:#000000;stroke-width:0.8;" x="232.177042" xlink:href="#m71c1c4108a" y="126.88726"/>
      </g>
     </g>
     <g id="text_8">
      <!-- 140 -->
      <g transform="translate(225.503917 139.61351)scale(0.08 -0.08)">
       <use xlink:href="#ArialMT-49"/>
       <use x="55.615234" xlink:href="#ArialMT-52"/>
       <use x="111.230469" xlink:href="#ArialMT-48"/>
      </g>
     </g>
    </g>
    <g id="text_9">
     <!-- Time step -->
     <g transform="translate(124.14 150.92976)scale(0.08 -0.08)">
      <defs>
       <path d="M 25.921875 0 
L 25.921875 63.140625 
L 2.34375 63.140625 
L 2.34375 71.578125 
L 59.078125 71.578125 
L 59.078125 63.140625 
L 35.40625 63.140625 
L 35.40625 0 
z
" id="ArialMT-84"/>
       <path d="M 6.640625 61.46875 
L 6.640625 71.578125 
L 15.4375 71.578125 
L 15.4375 61.46875 
z
M 6.640625 0 
L 6.640625 51.859375 
L 15.4375 51.859375 
L 15.4375 0 
z
" id="ArialMT-105"/>
       <path d="M 6.59375 0 
L 6.59375 51.859375 
L 14.453125 51.859375 
L 14.453125 44.578125 
Q 16.890625 48.390625 20.9375 50.703125 
Q 25 53.03125 30.171875 53.03125 
Q 35.9375 53.03125 39.625 50.640625 
Q 43.3125 48.25 44.828125 43.953125 
Q 50.984375 53.03125 60.84375 53.03125 
Q 68.5625 53.03125 72.703125 48.75 
Q 76.859375 44.484375 76.859375 35.59375 
L 76.859375 0 
L 68.109375 0 
L 68.109375 32.671875 
Q 68.109375 37.9375 67.25 40.25 
Q 66.40625 42.578125 64.15625 43.984375 
Q 61.921875 45.40625 58.890625 45.40625 
Q 53.421875 45.40625 49.796875 41.765625 
Q 46.1875 38.140625 46.1875 30.125 
L 46.1875 0 
L 37.40625 0 
L 37.40625 33.6875 
Q 37.40625 39.546875 35.25 42.46875 
Q 33.109375 45.40625 28.21875 45.40625 
Q 24.515625 45.40625 21.359375 43.453125 
Q 18.21875 41.5 16.796875 37.734375 
Q 15.375 33.984375 15.375 26.90625 
L 15.375 0 
z
" id="ArialMT-109"/>
       <path d="M 42.09375 16.703125 
L 51.171875 15.578125 
Q 49.03125 7.625 43.21875 3.21875 
Q 37.40625 -1.171875 28.375 -1.171875 
Q 17 -1.171875 10.328125 5.828125 
Q 3.65625 12.84375 3.65625 25.484375 
Q 3.65625 38.578125 10.390625 45.796875 
Q 17.140625 53.03125 27.875 53.03125 
Q 38.28125 53.03125 44.875 45.953125 
Q 51.46875 38.875 51.46875 26.03125 
Q 51.46875 25.25 51.421875 23.6875 
L 12.75 23.6875 
Q 13.234375 15.140625 17.578125 10.59375 
Q 21.921875 6.0625 28.421875 6.0625 
Q 33.25 6.0625 36.671875 8.59375 
Q 40.09375 11.140625 42.09375 16.703125 
z
M 13.234375 30.90625 
L 42.1875 30.90625 
Q 41.609375 37.453125 38.875 40.71875 
Q 34.671875 45.796875 27.984375 45.796875 
Q 21.921875 45.796875 17.796875 41.75 
Q 13.671875 37.703125 13.234375 30.90625 
z
" id="ArialMT-101"/>
       <path id="ArialMT-32"/>
       <path d="M 3.078125 15.484375 
L 11.765625 16.84375 
Q 12.5 11.625 15.84375 8.84375 
Q 19.1875 6.0625 25.203125 6.0625 
Q 31.25 6.0625 34.171875 8.515625 
Q 37.109375 10.984375 37.109375 14.3125 
Q 37.109375 17.28125 34.515625 19 
Q 32.71875 20.171875 25.53125 21.96875 
Q 15.875 24.421875 12.140625 26.203125 
Q 8.40625 27.984375 6.46875 31.125 
Q 4.546875 34.28125 4.546875 38.09375 
Q 4.546875 41.546875 6.125 44.5 
Q 7.71875 47.46875 10.453125 49.421875 
Q 12.5 50.921875 16.03125 51.96875 
Q 19.578125 53.03125 23.640625 53.03125 
Q 29.734375 53.03125 34.34375 51.265625 
Q 38.96875 49.515625 41.15625 46.5 
Q 43.359375 43.5 44.1875 38.484375 
L 35.59375 37.3125 
Q 35.015625 41.3125 32.203125 43.546875 
Q 29.390625 45.796875 24.265625 45.796875 
Q 18.21875 45.796875 15.625 43.796875 
Q 13.03125 41.796875 13.03125 39.109375 
Q 13.03125 37.40625 14.109375 36.03125 
Q 15.1875 34.625 17.484375 33.6875 
Q 18.796875 33.203125 25.25 31.453125 
Q 34.578125 28.953125 38.25 27.359375 
Q 41.9375 25.78125 44.03125 22.75 
Q 46.140625 19.734375 46.140625 15.234375 
Q 46.140625 10.84375 43.578125 6.953125 
Q 41.015625 3.078125 36.171875 0.953125 
Q 31.34375 -1.171875 25.25 -1.171875 
Q 15.140625 -1.171875 9.84375 3.03125 
Q 4.546875 7.234375 3.078125 15.484375 
z
" id="ArialMT-115"/>
       <path d="M 25.78125 7.859375 
L 27.046875 0.09375 
Q 23.34375 -0.6875 20.40625 -0.6875 
Q 15.625 -0.6875 12.984375 0.828125 
Q 10.359375 2.34375 9.28125 4.8125 
Q 8.203125 7.28125 8.203125 15.1875 
L 8.203125 45.015625 
L 1.765625 45.015625 
L 1.765625 51.859375 
L 8.203125 51.859375 
L 8.203125 64.703125 
L 16.9375 69.96875 
L 16.9375 51.859375 
L 25.78125 51.859375 
L 25.78125 45.015625 
L 16.9375 45.015625 
L 16.9375 14.703125 
Q 16.9375 10.9375 17.40625 9.859375 
Q 17.875 8.796875 18.921875 8.15625 
Q 19.96875 7.515625 21.921875 7.515625 
Q 23.390625 7.515625 25.78125 7.859375 
z
" id="ArialMT-116"/>
       <path d="M 6.59375 -19.875 
L 6.59375 51.859375 
L 14.59375 51.859375 
L 14.59375 45.125 
Q 17.4375 49.078125 21 51.046875 
Q 24.5625 53.03125 29.640625 53.03125 
Q 36.28125 53.03125 41.359375 49.609375 
Q 46.4375 46.1875 49.015625 39.953125 
Q 51.609375 33.734375 51.609375 26.3125 
Q 51.609375 18.359375 48.75 11.984375 
Q 45.90625 5.609375 40.453125 2.21875 
Q 35.015625 -1.171875 29 -1.171875 
Q 24.609375 -1.171875 21.109375 0.6875 
Q 17.625 2.546875 15.375 5.375 
L 15.375 -19.875 
z
M 14.546875 25.640625 
Q 14.546875 15.625 18.59375 10.84375 
Q 22.65625 6.0625 28.421875 6.0625 
Q 34.28125 6.0625 38.453125 11.015625 
Q 42.625 15.96875 42.625 26.375 
Q 42.625 36.28125 38.546875 41.203125 
Q 34.46875 46.140625 28.8125 46.140625 
Q 23.1875 46.140625 18.859375 40.890625 
Q 14.546875 35.640625 14.546875 25.640625 
z
" id="ArialMT-112"/>
      </defs>
      <use xlink:href="#ArialMT-84"/>
      <use x="57.333984" xlink:href="#ArialMT-105"/>
      <use x="79.550781" xlink:href="#ArialMT-109"/>
      <use x="162.851562" xlink:href="#ArialMT-101"/>
      <use x="218.466797" xlink:href="#ArialMT-32"/>
      <use x="246.25" xlink:href="#ArialMT-115"/>
      <use x="296.25" xlink:href="#ArialMT-116"/>
      <use x="324.033203" xlink:href="#ArialMT-101"/>
      <use x="379.648438" xlink:href="#ArialMT-112"/>
     </g>
    </g>
   </g>
   <g id="matplotlib.axis_2">
    <g id="ytick_1">
     <g id="line2d_9">
      <defs>
       <path d="M 0 0 
L -3.5 0 
" id="m473111062e" style="stroke:#000000;stroke-width:0.8;"/>
      </defs>
      <g>
       <use style="stroke:#000000;stroke-width:0.8;" x="36.97899" xlink:href="#m473111062e" y="126.88726"/>
      </g>
     </g>
     <g id="text_10">
      <!-- 0.05 -->
      <g transform="translate(14.41024 129.750385)scale(0.08 -0.08)">
       <defs>
        <path d="M 9.078125 0 
L 9.078125 10.015625 
L 19.09375 10.015625 
L 19.09375 0 
z
" id="ArialMT-46"/>
        <path d="M 4.15625 18.75 
L 13.375 19.53125 
Q 14.40625 12.796875 18.140625 9.390625 
Q 21.875 6 27.15625 6 
Q 33.5 6 37.890625 10.78125 
Q 42.28125 15.578125 42.28125 23.484375 
Q 42.28125 31 38.0625 35.34375 
Q 33.84375 39.703125 27 39.703125 
Q 22.75 39.703125 19.328125 37.765625 
Q 15.921875 35.84375 13.96875 32.765625 
L 5.71875 33.84375 
L 12.640625 70.609375 
L 48.25 70.609375 
L 48.25 62.203125 
L 19.671875 62.203125 
L 15.828125 42.96875 
Q 22.265625 47.46875 29.34375 47.46875 
Q 38.71875 47.46875 45.15625 40.96875 
Q 51.609375 34.46875 51.609375 24.265625 
Q 51.609375 14.546875 45.953125 7.46875 
Q 39.0625 -1.21875 27.15625 -1.21875 
Q 17.390625 -1.21875 11.203125 4.25 
Q 5.03125 9.71875 4.15625 18.75 
z
" id="ArialMT-53"/>
       </defs>
       <use xlink:href="#ArialMT-48"/>
       <use x="55.615234" xlink:href="#ArialMT-46"/>
       <use x="83.398438" xlink:href="#ArialMT-48"/>
       <use x="139.013672" xlink:href="#ArialMT-53"/>
      </g>
     </g>
    </g>
    <g id="ytick_2">
     <g id="line2d_10">
      <g>
       <use style="stroke:#000000;stroke-width:0.8;" x="36.97899" xlink:href="#m473111062e" y="99.356811"/>
      </g>
     </g>
     <g id="text_11">
      <!-- 0.10 -->
      <g transform="translate(14.41024 102.219936)scale(0.08 -0.08)">
       <use xlink:href="#ArialMT-48"/>
       <use x="55.615234" xlink:href="#ArialMT-46"/>
       <use x="83.398438" xlink:href="#ArialMT-49"/>
       <use x="139.013672" xlink:href="#ArialMT-48"/>
      </g>
     </g>
    </g>
    <g id="ytick_3">
     <g id="line2d_11">
      <g>
       <use style="stroke:#000000;stroke-width:0.8;" x="36.97899" xlink:href="#m473111062e" y="71.826362"/>
      </g>
     </g>
     <g id="text_12">
      <!-- 0.15 -->
      <g transform="translate(14.41024 74.689487)scale(0.08 -0.08)">
       <use xlink:href="#ArialMT-48"/>
       <use x="55.615234" xlink:href="#ArialMT-46"/>
       <use x="83.398438" xlink:href="#ArialMT-49"/>
       <use x="139.013672" xlink:href="#ArialMT-53"/>
      </g>
     </g>
    </g>
    <g id="ytick_4">
     <g id="line2d_12">
      <g>
       <use style="stroke:#000000;stroke-width:0.8;" x="36.97899" xlink:href="#m473111062e" y="44.295913"/>
      </g>
     </g>
     <g id="text_13">
      <!-- 0.20 -->
      <g transform="translate(14.41024 47.159038)scale(0.08 -0.08)">
       <use xlink:href="#ArialMT-48"/>
       <use x="55.615234" xlink:href="#ArialMT-46"/>
       <use x="83.398438" xlink:href="#ArialMT-50"/>
       <use x="139.013672" xlink:href="#ArialMT-48"/>
      </g>
     </g>
    </g>
    <g id="ytick_5">
     <g id="line2d_13">
      <g>
       <use style="stroke:#000000;stroke-width:0.8;" x="36.97899" xlink:href="#m473111062e" y="16.765464"/>
      </g>
     </g>
     <g id="text_14">
      <!-- 0.25 -->
      <g transform="translate(14.41024 19.628589)scale(0.08 -0.08)">
       <use xlink:href="#ArialMT-48"/>
       <use x="55.615234" xlink:href="#ArialMT-46"/>
       <use x="83.398438" xlink:href="#ArialMT-50"/>
       <use x="139.013672" xlink:href="#ArialMT-53"/>
      </g>
     </g>
    </g>
    <g id="text_15">
     <!-- Learning rate -->
     <g transform="translate(8.72649 88.51375)rotate(-90)scale(0.08 -0.08)">
      <defs>
       <path d="M 7.328125 0 
L 7.328125 71.578125 
L 16.796875 71.578125 
L 16.796875 8.453125 
L 52.046875 8.453125 
L 52.046875 0 
z
" id="ArialMT-76"/>
       <path d="M 40.4375 6.390625 
Q 35.546875 2.25 31.03125 0.53125 
Q 26.515625 -1.171875 21.34375 -1.171875 
Q 12.796875 -1.171875 8.203125 3 
Q 3.609375 7.171875 3.609375 13.671875 
Q 3.609375 17.484375 5.34375 20.625 
Q 7.078125 23.78125 9.890625 25.6875 
Q 12.703125 27.59375 16.21875 28.5625 
Q 18.796875 29.25 24.03125 29.890625 
Q 34.671875 31.15625 39.703125 32.90625 
Q 39.75 34.71875 39.75 35.203125 
Q 39.75 40.578125 37.25 42.78125 
Q 33.890625 45.75 27.25 45.75 
Q 21.046875 45.75 18.09375 43.578125 
Q 15.140625 41.40625 13.71875 35.890625 
L 5.125 37.0625 
Q 6.296875 42.578125 8.984375 45.96875 
Q 11.671875 49.359375 16.75 51.1875 
Q 21.828125 53.03125 28.515625 53.03125 
Q 35.15625 53.03125 39.296875 51.46875 
Q 43.453125 49.90625 45.40625 47.53125 
Q 47.359375 45.171875 48.140625 41.546875 
Q 48.578125 39.3125 48.578125 33.453125 
L 48.578125 21.734375 
Q 48.578125 9.46875 49.140625 6.21875 
Q 49.703125 2.984375 51.375 0 
L 42.1875 0 
Q 40.828125 2.734375 40.4375 6.390625 
z
M 39.703125 26.03125 
Q 34.90625 24.078125 25.34375 22.703125 
Q 19.921875 21.921875 17.671875 20.9375 
Q 15.4375 19.96875 14.203125 18.09375 
Q 12.984375 16.21875 12.984375 13.921875 
Q 12.984375 10.40625 15.640625 8.0625 
Q 18.3125 5.71875 23.4375 5.71875 
Q 28.515625 5.71875 32.46875 7.9375 
Q 36.421875 10.15625 38.28125 14.015625 
Q 39.703125 17 39.703125 22.796875 
z
" id="ArialMT-97"/>
       <path d="M 6.5 0 
L 6.5 51.859375 
L 14.40625 51.859375 
L 14.40625 44 
Q 17.4375 49.515625 20 51.265625 
Q 22.5625 53.03125 25.640625 53.03125 
Q 30.078125 53.03125 34.671875 50.203125 
L 31.640625 42.046875 
Q 28.421875 43.953125 25.203125 43.953125 
Q 22.3125 43.953125 20.015625 42.21875 
Q 17.71875 40.484375 16.75 37.40625 
Q 15.28125 32.71875 15.28125 27.15625 
L 15.28125 0 
z
" id="ArialMT-114"/>
       <path d="M 6.59375 0 
L 6.59375 51.859375 
L 14.5 51.859375 
L 14.5 44.484375 
Q 20.21875 53.03125 31 53.03125 
Q 35.6875 53.03125 39.625 51.34375 
Q 43.5625 49.65625 45.515625 46.921875 
Q 47.46875 44.1875 48.25 40.4375 
Q 48.734375 37.984375 48.734375 31.890625 
L 48.734375 0 
L 39.9375 0 
L 39.9375 31.546875 
Q 39.9375 36.921875 38.90625 39.578125 
Q 37.890625 42.234375 35.28125 43.8125 
Q 32.671875 45.40625 29.15625 45.40625 
Q 23.53125 45.40625 19.453125 41.84375 
Q 15.375 38.28125 15.375 28.328125 
L 15.375 0 
z
" id="ArialMT-110"/>
       <path d="M 4.984375 -4.296875 
L 13.53125 -5.5625 
Q 14.0625 -9.515625 16.5 -11.328125 
Q 19.78125 -13.765625 25.4375 -13.765625 
Q 31.546875 -13.765625 34.859375 -11.328125 
Q 38.1875 -8.890625 39.359375 -4.5 
Q 40.046875 -1.8125 39.984375 6.78125 
Q 34.234375 0 25.640625 0 
Q 14.9375 0 9.078125 7.71875 
Q 3.21875 15.4375 3.21875 26.21875 
Q 3.21875 33.640625 5.90625 39.90625 
Q 8.59375 46.1875 13.6875 49.609375 
Q 18.796875 53.03125 25.6875 53.03125 
Q 34.859375 53.03125 40.828125 45.609375 
L 40.828125 51.859375 
L 48.921875 51.859375 
L 48.921875 7.03125 
Q 48.921875 -5.078125 46.453125 -10.125 
Q 44 -15.1875 38.640625 -18.109375 
Q 33.296875 -21.046875 25.484375 -21.046875 
Q 16.21875 -21.046875 10.5 -16.875 
Q 4.78125 -12.703125 4.984375 -4.296875 
z
M 12.25 26.859375 
Q 12.25 16.65625 16.296875 11.96875 
Q 20.359375 7.28125 26.46875 7.28125 
Q 32.515625 7.28125 36.609375 11.9375 
Q 40.71875 16.609375 40.71875 26.5625 
Q 40.71875 36.078125 36.5 40.90625 
Q 32.28125 45.75 26.3125 45.75 
Q 20.453125 45.75 16.34375 40.984375 
Q 12.25 36.234375 12.25 26.859375 
z
" id="ArialMT-103"/>
      </defs>
      <use xlink:href="#ArialMT-76"/>
      <use x="55.615234" xlink:href="#ArialMT-101"/>
      <use x="111.230469" xlink:href="#ArialMT-97"/>
      <use x="166.845703" xlink:href="#ArialMT-114"/>
      <use x="200.146484" xlink:href="#ArialMT-110"/>
      <use x="255.761719" xlink:href="#ArialMT-105"/>
      <use x="277.978516" xlink:href="#ArialMT-110"/>
      <use x="333.59375" xlink:href="#ArialMT-103"/>
      <use x="389.208984" xlink:href="#ArialMT-32"/>
      <use x="416.992188" xlink:href="#ArialMT-114"/>
      <use x="450.292969" xlink:href="#ArialMT-97"/>
      <use x="505.908203" xlink:href="#ArialMT-116"/>
      <use x="533.691406" xlink:href="#ArialMT-101"/>
     </g>
    </g>
   </g>
   <g id="line2d_14">
    <path clip-path="url(#p94f44e7d85)" d="M 37.210506 156.52 
L 38.373262 78.753309 
L 39.767534 74.045224 
L 41.161805 72.993749 
L 42.556077 76.019514 
L 45.344621 85.373523 
L 46.738893 89.262082 
L 48.133164 92.36427 
L 49.527436 94.944932 
L 50.921708 96.644127 
L 53.710252 99.220713 
L 56.498795 100.827745 
L 57.893067 101.369234 
L 59.287339 101.565118 
L 60.681611 102.347053 
L 62.075882 102.789569 
L 63.470154 103.078653 
L 64.864426 102.981826 
L 66.258698 103.360376 
L 67.65297 103.532292 
L 69.047241 103.427709 
L 70.441513 103.719258 
L 73.230057 103.502799 
L 74.624329 103.634563 
L 76.0186 104.21879 
L 78.807144 103.699601 
L 80.201416 104.032816 
L 81.595688 103.745107 
L 82.989959 104.133436 
L 84.384231 104.178389 
L 85.778503 104.657835 
L 87.172775 104.288293 
L 88.567047 104.105942 
L 89.961318 104.684544 
L 91.35559 104.647792 
L 92.749862 104.495365 
L 98.326949 104.682429 
L 99.721221 104.542518 
L 101.115493 104.794498 
L 102.509765 104.578668 
L 103.904036 104.720638 
L 105.298308 104.746794 
L 106.69258 104.495128 
L 109.481124 105.086396 
L 110.875395 104.710701 
L 112.269667 104.584703 
L 113.663939 105.042084 
L 115.058211 104.623702 
L 116.452483 104.915617 
L 117.846754 104.968139 
L 119.241026 104.739555 
L 122.02957 104.857862 
L 123.423842 104.63293 
L 126.212385 105.040975 
L 127.606657 104.802985 
L 129.000929 104.683166 
L 130.395201 104.803996 
L 131.789472 105.051655 
L 133.183744 104.811503 
L 135.972288 105.019609 
L 137.36656 104.671259 
L 138.760831 104.845022 
L 141.549375 104.555828 
L 142.943647 88.030641 
L 144.337919 80.104385 
L 145.73219 68.766047 
L 147.126462 65.93845 
L 148.520734 67.953017 
L 149.915006 73.279136 
L 152.703549 84.894015 
L 154.097821 89.561348 
L 155.492093 92.811882 
L 156.886365 95.735064 
L 158.280637 97.712258 
L 161.06918 100.238238 
L 162.463452 101.241049 
L 163.857724 101.866243 
L 165.251996 102.154916 
L 166.646267 102.835016 
L 168.040539 102.547651 
L 169.434811 102.848358 
L 170.829083 103.308682 
L 172.223355 103.623318 
L 173.617626 103.351712 
L 175.011898 103.669484 
L 176.40617 103.578255 
L 177.800442 103.234067 
L 179.194714 103.732108 
L 180.588985 103.206647 
L 181.983257 103.581438 
L 186.166073 103.677585 
L 187.560344 103.517258 
L 188.954616 103.590358 
L 190.348888 104.067049 
L 191.74316 104.180786 
L 193.137432 103.789652 
L 194.531703 103.857927 
L 195.925975 104.281873 
L 197.320247 103.985817 
L 200.108791 104.041662 
L 202.897334 104.265844 
L 205.685878 104.015684 
L 207.08015 104.3478 
L 208.474421 104.481835 
L 209.868693 104.271842 
L 211.262965 104.310449 
L 212.657237 104.478815 
L 214.051509 104.105473 
L 215.44578 104.286375 
L 216.840052 104.322175 
L 218.234324 104.019904 
L 219.628596 103.931659 
L 221.022868 104.209721 
L 222.417139 103.611604 
L 223.811411 103.748739 
L 225.205683 104.131887 
L 227.994227 103.974924 
L 232.177042 104.382178 
L 233.571314 104.310845 
L 234.965586 104.520368 
L 236.359857 104.254758 
L 237.754129 104.625691 
L 239.148401 104.544567 
L 240.542673 104.702865 
L 241.936945 104.343006 
L 243.331216 104.218566 
L 244.725488 104.255865 
L 246.11976 104.175139 
L 247.514032 104.31297 
L 248.908304 86.289678 
L 250.12 85.32217 
L 250.12 85.32217 
" style="fill:none;stroke:#ababab;stroke-linecap:square;"/>
   </g>
   <g id="line2d_15">
    <path clip-path="url(#p94f44e7d85)" d="M 141.549375 126.88726 
L 141.549375 3.00024 
" style="fill:none;stroke:#000000;stroke-linecap:square;"/>
   </g>
   <g id="patch_3">
    <path d="M 36.97899 126.88726 
L 36.97899 3.00024 
" style="fill:none;stroke:#000000;stroke-linecap:square;stroke-linejoin:miter;stroke-width:0.8;"/>
   </g>
   <g id="patch_4">
    <path d="M 36.97899 126.88726 
L 246.11976 126.88726 
" style="fill:none;stroke:#000000;stroke-linecap:square;stroke-linejoin:miter;stroke-width:0.8;"/>
   </g>
   <g id="patch_5">
    <path d="M 114.362947 12.298549 
Q 127.956161 15.220268 140.456305 17.907043 
" style="fill:none;stroke:#000000;stroke-linecap:round;"/>
    <path d="M 137.663982 15.67032 
L 140.456305 17.907043 
L 136.991533 18.798868 
" style="fill:none;stroke:#000000;stroke-linecap:round;"/>
   </g>
   <g id="text_16">
    <!-- Change point -->
    <g transform="translate(64.772047 8.82399)scale(0.08 -0.08)">
     <defs>
      <path d="M 58.796875 25.09375 
L 68.265625 22.703125 
Q 65.28125 11.03125 57.546875 4.90625 
Q 49.8125 -1.21875 38.625 -1.21875 
Q 27.046875 -1.21875 19.796875 3.484375 
Q 12.546875 8.203125 8.765625 17.140625 
Q 4.984375 26.078125 4.984375 36.328125 
Q 4.984375 47.515625 9.25 55.828125 
Q 13.53125 64.15625 21.40625 68.46875 
Q 29.296875 72.796875 38.765625 72.796875 
Q 49.515625 72.796875 56.828125 67.328125 
Q 64.15625 61.859375 67.046875 51.953125 
L 57.71875 49.75 
Q 55.21875 57.5625 50.484375 61.125 
Q 45.75 64.703125 38.578125 64.703125 
Q 30.328125 64.703125 24.78125 60.734375 
Q 19.234375 56.78125 16.984375 50.109375 
Q 14.75 43.453125 14.75 36.375 
Q 14.75 27.25 17.40625 20.4375 
Q 20.0625 13.625 25.671875 10.25 
Q 31.296875 6.890625 37.84375 6.890625 
Q 45.796875 6.890625 51.3125 11.46875 
Q 56.84375 16.0625 58.796875 25.09375 
z
" id="ArialMT-67"/>
      <path d="M 6.59375 0 
L 6.59375 71.578125 
L 15.375 71.578125 
L 15.375 45.90625 
Q 21.53125 53.03125 30.90625 53.03125 
Q 36.671875 53.03125 40.921875 50.75 
Q 45.171875 48.484375 47 44.484375 
Q 48.828125 40.484375 48.828125 32.859375 
L 48.828125 0 
L 40.046875 0 
L 40.046875 32.859375 
Q 40.046875 39.453125 37.1875 42.453125 
Q 34.328125 45.453125 29.109375 45.453125 
Q 25.203125 45.453125 21.75 43.421875 
Q 18.3125 41.40625 16.84375 37.9375 
Q 15.375 34.46875 15.375 28.375 
L 15.375 0 
z
" id="ArialMT-104"/>
      <path d="M 3.328125 25.921875 
Q 3.328125 40.328125 11.328125 47.265625 
Q 18.015625 53.03125 27.640625 53.03125 
Q 38.328125 53.03125 45.109375 46.015625 
Q 51.90625 39.015625 51.90625 26.65625 
Q 51.90625 16.65625 48.90625 10.90625 
Q 45.90625 5.171875 40.15625 2 
Q 34.421875 -1.171875 27.640625 -1.171875 
Q 16.75 -1.171875 10.03125 5.8125 
Q 3.328125 12.796875 3.328125 25.921875 
z
M 12.359375 25.921875 
Q 12.359375 15.96875 16.703125 11.015625 
Q 21.046875 6.0625 27.640625 6.0625 
Q 34.1875 6.0625 38.53125 11.03125 
Q 42.875 16.015625 42.875 26.21875 
Q 42.875 35.84375 38.5 40.796875 
Q 34.125 45.75 27.640625 45.75 
Q 21.046875 45.75 16.703125 40.8125 
Q 12.359375 35.890625 12.359375 25.921875 
z
" id="ArialMT-111"/>
     </defs>
     <use xlink:href="#ArialMT-67"/>
     <use x="72.216797" xlink:href="#ArialMT-104"/>
     <use x="127.832031" xlink:href="#ArialMT-97"/>
     <use x="183.447266" xlink:href="#ArialMT-110"/>
     <use x="239.0625" xlink:href="#ArialMT-103"/>
     <use x="294.677734" xlink:href="#ArialMT-101"/>
     <use x="350.292969" xlink:href="#ArialMT-32"/>
     <use x="378.076172" xlink:href="#ArialMT-112"/>
     <use x="433.691406" xlink:href="#ArialMT-111"/>
     <use x="489.306641" xlink:href="#ArialMT-105"/>
     <use x="511.523438" xlink:href="#ArialMT-110"/>
     <use x="567.138672" xlink:href="#ArialMT-116"/>
    </g>
   </g>
  </g>
 </g>
 <defs>
  <clipPath id="p94f44e7d85">
   <rect height="123.88702" width="209.14077" x="36.97899" y="3.00024"/>
  </clipPath>
 </defs>
</svg>
