<?xml version="1.0" encoding="utf-8" standalone="no"?>
<!DOCTYPE svg PUBLIC "-//W3C//DTD SVG 1.1//EN"
  "http://www.w3.org/Graphics/SVG/1.1/DTD/svg11.dtd">
<!-- Created with matplotlib (https://matplotlib.org/) -->
<svg height="155.52pt" version="1.1" viewBox="0 0 249.12 155.52" width="249.12pt" xmlns="http://www.w3.org/2000/svg" xmlns:xlink="http://www.w3.org/1999/xlink">
 <metadata>
  <rdf:RDF xmlns:cc="http://creativecommons.org/ns#" xmlns:dc="http://purl.org/dc/elements/1.1/" xmlns:rdf="http://www.w3.org/1999/02/22-rdf-syntax-ns#">
   <cc:Work>
    <dc:type rdf:resource="http://purl.org/dc/dcmitype/StillImage"/>
    <dc:date>2021-11-11T09:57:41.646894</dc:date>
    <dc:format>image/svg+xml</dc:format>
    <dc:creator>
     <cc:Agent>
      <dc:title>Matplotlib v3.3.4, https://matplotlib.org/</dc:title>
     </cc:Agent>
    </dc:creator>
   </cc:Work>
  </rdf:RDF>
 </metadata>
 <defs>
  <style type="text/css">*{stroke-linecap:butt;stroke-linejoin:round;}</style>
 </defs>
 <g id="figure_1">
  <g id="patch_1">
   <path d="M 0 155.52 
L 249.12 155.52 
L 249.12 0 
L 0 0 
z
" style="fill:#ffffff;"/>
  </g>
  <g id="axes_1">
   <g id="patch_2">
    <path d="M 36.97899 126.88726 
L 246.11976 126.88726 
L 246.11976 3.00024 
L 36.97899 3.00024 
z
" style="fill:#ffffff;"/>
   </g>
   <g id="PolyCollection_1">
    <path clip-path="url(#p7b5ba009d8)" d="M 36.97899 6.504193 
L 36.97899 45.175311 
L 38.373262 81.149982 
L 39.767534 93.141557 
L 41.161805 100.005956 
L 42.556077 101.754076 
L 43.950349 102.986256 
L 45.344621 103.718901 
L 46.738893 104.35169 
L 48.133164 104.904694 
L 49.527436 105.454184 
L 50.921708 105.803126 
L 52.31598 106.117511 
L 53.710252 106.532829 
L 55.104523 106.859375 
L 56.498795 107.14616 
L 57.893067 107.478747 
L 59.287339 107.613387 
L 60.681611 107.920725 
L 62.075882 108.23305 
L 63.470154 108.491211 
L 64.864426 108.544687 
L 66.258698 108.760059 
L 67.65297 108.93166 
L 69.047241 108.974611 
L 70.441513 109.161621 
L 71.835785 109.240112 
L 73.230057 109.149179 
L 74.624329 109.133095 
L 76.0186 109.465686 
L 77.412872 109.607739 
L 78.807144 109.500784 
L 80.201416 109.63622 
L 81.595688 109.478024 
L 82.989959 109.600513 
L 84.384231 109.614926 
L 85.778503 109.799356 
L 87.172775 109.814893 
L 88.567047 109.737558 
L 89.961318 109.863438 
L 91.35559 109.925985 
L 92.749862 109.972053 
L 94.144134 109.989428 
L 95.538406 109.951101 
L 96.932677 110.017222 
L 98.326949 110.033763 
L 99.721221 109.980321 
L 101.115493 110.086926 
L 102.509765 109.974267 
L 103.904036 110.060036 
L 105.298308 110.106619 
L 106.69258 109.969403 
L 108.086852 109.974248 
L 109.481124 110.216153 
L 110.875395 110.163979 
L 112.269667 110.064563 
L 113.663939 110.295106 
L 115.058211 110.187324 
L 116.452483 110.20842 
L 117.846754 110.256012 
L 119.241026 110.181907 
L 120.635298 110.117416 
L 122.02957 110.107073 
L 123.423842 110.093256 
L 124.818113 110.202211 
L 126.212385 110.313098 
L 127.606657 110.179697 
L 129.000929 110.113308 
L 130.395201 110.140753 
L 131.789472 110.261699 
L 133.183744 110.097649 
L 134.578016 110.08685 
L 135.972288 110.190327 
L 137.36656 110.039339 
L 138.760831 110.149541 
L 140.155103 110.077069 
L 141.549375 110.042918 
L 142.943647 100.84342 
L 144.337919 98.866158 
L 145.73219 97.535077 
L 147.126462 98.135682 
L 148.520734 98.88264 
L 149.915006 100.183138 
L 151.309278 101.158489 
L 152.703549 102.093866 
L 154.097821 102.834353 
L 155.492093 103.445188 
L 156.886365 103.993401 
L 158.280637 104.546761 
L 159.674908 104.811002 
L 161.06918 105.202413 
L 162.463452 105.518281 
L 163.857724 105.784671 
L 165.251996 106.006201 
L 166.646267 106.290978 
L 168.040539 106.408558 
L 169.434811 106.575864 
L 170.829083 106.895142 
L 172.223355 107.09296 
L 173.617626 107.198555 
L 175.011898 107.446182 
L 176.40617 107.544284 
L 177.800442 107.533687 
L 179.194714 107.796068 
L 180.588985 107.699677 
L 181.983257 107.956563 
L 183.377529 108.082518 
L 184.771801 108.175307 
L 186.166073 108.325916 
L 187.560344 108.320934 
L 188.954616 108.3719 
L 190.348888 108.607815 
L 191.74316 108.724146 
L 193.137432 108.596073 
L 194.531703 108.656696 
L 195.925975 108.983432 
L 197.320247 108.854656 
L 198.714519 108.924464 
L 200.108791 108.9228 
L 201.503062 108.86812 
L 202.897334 108.963903 
L 204.291606 109.08559 
L 205.685878 109.140539 
L 207.08015 109.190282 
L 208.474421 109.255837 
L 209.868693 109.217282 
L 211.262965 109.191602 
L 212.657237 109.254372 
L 214.051509 109.241193 
L 215.44578 109.348543 
L 216.840052 109.328551 
L 218.234324 109.240747 
L 219.628596 109.231748 
L 221.022868 109.332718 
L 222.417139 109.139242 
L 223.811411 109.163745 
L 225.205683 109.313322 
L 226.599955 109.360167 
L 227.994227 109.37002 
L 229.388498 109.335827 
L 230.78277 109.346365 
L 232.177042 109.384525 
L 233.571314 109.465414 
L 234.965586 109.554571 
L 236.359857 109.459369 
L 237.754129 109.58752 
L 239.148401 109.491848 
L 240.542673 109.669346 
L 241.936945 109.628732 
L 243.331216 109.552985 
L 244.725488 109.528516 
L 246.11976 109.547309 
L 247.514032 109.527823 
L 248.908304 100.782315 
L 250.302575 95.554808 
L 251.696847 93.664447 
L 253.091119 94.592367 
L 254.485391 96.127536 
L 255.879663 97.648139 
L 257.273934 98.988579 
L 258.668206 100.145035 
L 260.062478 101.114885 
L 261.45675 102.017315 
L 262.851022 102.631471 
L 264.245293 103.237744 
L 265.639565 103.787605 
L 267.033837 104.28472 
L 268.428109 104.575415 
L 269.822381 105.123075 
L 271.216652 105.481537 
L 272.610924 105.79148 
L 274.005196 106.228911 
L 275.399468 106.486396 
L 276.79374 106.837408 
L 278.188011 107.106383 
L 279.582283 107.437737 
L 280.976555 107.736761 
L 282.370827 107.818896 
L 283.765099 108.055557 
L 285.15937 108.100505 
L 286.553642 108.387359 
L 287.947914 108.51604 
L 289.342186 108.787331 
L 290.736458 108.897519 
L 292.130729 109.047695 
L 293.525001 109.1641 
L 294.919273 109.183809 
L 296.313545 109.152456 
L 297.707817 109.381847 
L 299.102088 109.435395 
L 300.49636 109.481392 
L 301.890632 109.391578 
L 303.284904 109.466281 
L 304.679176 109.454686 
L 306.073447 109.586585 
L 307.467719 109.551034 
L 308.861991 109.673003 
L 310.256263 109.743873 
L 311.650535 109.688799 
L 313.044806 109.757454 
L 314.439078 109.808672 
L 315.83335 109.962291 
L 317.227622 109.969283 
L 318.621894 109.948977 
L 320.016165 109.925209 
L 321.410437 109.870341 
L 322.804709 109.920659 
L 324.198981 110.123229 
L 325.593253 110.007357 
L 326.987524 110.110119 
L 328.381796 110.111325 
L 329.776068 110.128815 
L 331.17034 110.234824 
L 332.564612 110.112128 
L 333.958883 110.122494 
L 335.353155 110.049634 
L 336.747427 110.167003 
L 338.141699 110.001178 
L 339.535971 110.097633 
L 340.930242 110.015505 
L 342.324514 110.052136 
L 343.718786 110.230976 
L 345.113058 110.048522 
L 346.50733 109.993638 
L 347.901601 110.208116 
L 349.295873 110.124171 
L 350.690145 110.190959 
L 352.084417 110.233051 
L 353.478689 110.033021 
L 354.87296 100.921272 
L 356.267232 98.930728 
L 357.661504 97.615197 
L 359.055776 98.204914 
L 360.450048 98.81846 
L 361.844319 100.091983 
L 363.238591 101.168247 
L 364.632863 101.972178 
L 366.027135 102.859352 
L 367.421407 103.425526 
L 368.815678 103.920145 
L 370.20995 104.540532 
L 371.604222 104.853169 
L 372.998494 105.180929 
L 374.392766 105.54448 
L 375.787037 105.783287 
L 377.181309 106.088302 
L 378.575581 106.381436 
L 379.969853 106.475544 
L 381.364125 106.752615 
L 382.758396 106.824558 
L 384.152668 106.958467 
L 385.54694 107.239451 
L 386.941212 107.324997 
L 388.335484 107.644886 
L 389.729755 107.755439 
L 391.124027 107.806179 
L 392.518299 107.976235 
L 393.912571 108.070154 
L 395.306843 108.257704 
L 396.701114 108.227175 
L 398.095386 108.28601 
L 399.489658 108.371307 
L 400.88393 108.496801 
L 402.278202 108.611055 
L 403.672473 108.688279 
L 405.066745 108.778059 
L 406.461017 108.821327 
L 407.855289 108.991094 
L 409.249561 109.071584 
L 410.643832 109.215864 
L 412.038104 109.153114 
L 413.432376 109.175536 
L 414.826648 109.076737 
L 416.22092 108.887506 
L 417.615191 109.073561 
L 419.009463 109.198982 
L 420.403735 109.12451 
L 421.798007 109.264498 
L 423.192279 109.231318 
L 424.58655 109.284835 
L 425.980822 109.220387 
L 427.375094 109.386066 
L 428.769366 109.377496 
L 430.163638 109.443958 
L 431.557909 109.48416 
L 432.952181 109.348438 
L 434.346453 109.281823 
L 435.740725 109.30902 
L 437.134997 109.252446 
L 438.529268 109.148005 
L 439.92354 109.159066 
L 441.317812 109.236368 
L 442.712084 109.3588 
L 444.106356 109.352311 
L 445.500627 109.305336 
L 446.894899 109.376017 
L 448.289171 109.468424 
L 449.683443 109.390249 
L 451.077715 109.281299 
L 452.471986 109.373282 
L 453.866258 109.275076 
L 455.26053 109.311522 
L 456.654802 109.340196 
L 458.049074 109.295133 
L 459.443345 109.447611 
L 460.837617 100.773539 
L 462.231889 95.521208 
L 463.626161 93.808005 
L 465.020433 94.704644 
L 466.414704 96.123455 
L 467.808976 97.60701 
L 469.203248 98.93456 
L 470.59752 100.121415 
L 471.991792 101.163323 
L 473.386063 101.968819 
L 474.780335 102.716533 
L 476.174607 103.358892 
L 477.568879 103.795561 
L 478.963151 104.275958 
L 480.357422 104.641529 
L 481.751694 105.115991 
L 483.145966 105.547211 
L 484.540238 105.863543 
L 485.93451 106.213133 
L 487.328781 106.644915 
L 488.723053 106.81385 
L 490.117325 107.118681 
L 491.511597 107.483914 
L 492.905869 107.700533 
L 494.30014 107.991963 
L 495.694412 108.253597 
L 497.088684 108.430876 
L 498.482956 108.510118 
L 499.877228 108.719905 
L 501.271499 108.907139 
L 502.665771 108.98637 
L 504.060043 109.095122 
L 505.454315 109.193741 
L 506.848587 109.34533 
L 508.242858 109.386224 
L 509.63713 109.273296 
L 511.031402 109.307826 
L 512.425674 109.58568 
L 513.819946 109.519159 
L 515.214217 109.607344 
L 516.608489 109.681237 
L 518.002761 109.77872 
L 519.397033 109.803261 
L 520.791305 109.826592 
L 522.185576 109.821119 
L 523.579848 109.962471 
L 524.97412 110.006143 
L 526.368392 109.846003 
L 527.762664 109.950202 
L 529.156935 110.072297 
L 530.551207 109.865075 
L 531.945479 109.927978 
L 533.339751 110.01764 
L 534.734023 109.917437 
L 536.128294 109.937479 
L 537.522566 109.900578 
L 538.916838 109.886521 
L 540.31111 109.922637 
L 541.705382 109.932936 
L 543.099653 110.079065 
L 544.493925 110.04463 
L 545.888197 110.112693 
L 547.282469 110.102714 
L 548.676741 110.20828 
L 550.071012 110.310119 
L 551.465284 110.262502 
L 552.859556 110.268841 
L 554.253828 110.267154 
L 555.6481 110.48547 
L 557.042371 110.318314 
L 558.436643 110.286333 
L 559.830915 110.155541 
L 561.225187 110.224713 
L 562.619459 110.239818 
L 564.01373 110.260417 
L 565.408002 110.254321 
L 565.408002 105.087544 
L 565.408002 105.087544 
L 564.01373 105.074463 
L 562.619459 105.068977 
L 561.225187 104.946339 
L 559.830915 104.944554 
L 558.436643 104.968238 
L 557.042371 105.126353 
L 555.6481 105.201394 
L 554.253828 105.095997 
L 552.859556 105.028046 
L 551.465284 105.064946 
L 550.071012 105.121381 
L 548.676741 104.991678 
L 547.282469 104.99212 
L 545.888197 104.963367 
L 544.493925 104.974892 
L 543.099653 104.820325 
L 541.705382 104.573891 
L 540.31111 104.565988 
L 538.916838 104.591603 
L 537.522566 104.596625 
L 536.128294 104.533381 
L 534.734023 104.608625 
L 533.339751 104.645168 
L 531.945479 104.579837 
L 530.551207 104.626622 
L 529.156935 104.840359 
L 527.762664 104.732471 
L 526.368392 104.630389 
L 524.97412 104.719454 
L 523.579848 104.646797 
L 522.185576 104.552144 
L 520.791305 104.618665 
L 519.397033 104.713517 
L 518.002761 104.634095 
L 516.608489 104.476309 
L 515.214217 104.353746 
L 513.819946 104.449926 
L 512.425674 104.311865 
L 511.031402 104.033678 
L 509.63713 104.066497 
L 508.242858 104.205725 
L 506.848587 104.155584 
L 505.454315 104.095113 
L 504.060043 103.939287 
L 502.665771 103.849406 
L 501.271499 103.737724 
L 499.877228 103.558597 
L 498.482956 103.415921 
L 497.088684 103.416436 
L 495.694412 103.195985 
L 494.30014 102.846556 
L 492.905869 102.629524 
L 491.511597 102.367536 
L 490.117325 101.864373 
L 488.723053 101.539243 
L 487.328781 101.238381 
L 485.93451 100.706789 
L 484.540238 100.296852 
L 483.145966 99.757673 
L 481.751694 99.131605 
L 480.357422 98.497859 
L 478.963151 97.907453 
L 477.568879 97.282675 
L 476.174607 96.610659 
L 474.780335 95.950685 
L 473.386063 95.229077 
L 471.991792 94.583359 
L 470.59752 93.830044 
L 469.203248 93.012663 
L 467.808976 92.088033 
L 466.414704 91.060519 
L 465.020433 89.848213 
L 463.626161 88.396501 
L 462.231889 88.571806 
L 460.837617 93.725199 
L 459.443345 103.387826 
L 458.049074 103.339257 
L 456.654802 103.322992 
L 455.26053 103.23719 
L 453.866258 103.241457 
L 452.471986 103.310536 
L 451.077715 103.310549 
L 449.683443 103.570729 
L 448.289171 103.60087 
L 446.894899 103.523823 
L 445.500627 103.350388 
L 444.106356 103.343122 
L 442.712084 103.236759 
L 441.317812 103.257989 
L 439.92354 103.181261 
L 438.529268 103.283737 
L 437.134997 103.221224 
L 435.740725 103.206484 
L 434.346453 103.261138 
L 432.952181 103.570903 
L 431.557909 103.62526 
L 430.163638 103.73573 
L 428.769366 103.559947 
L 427.375094 103.345374 
L 425.980822 103.343956 
L 424.58655 103.442201 
L 423.192279 103.543351 
L 421.798007 103.433067 
L 420.403735 103.384561 
L 419.009463 103.39142 
L 417.615191 103.024798 
L 416.22092 103.017208 
L 414.826648 103.391476 
L 413.432376 103.531168 
L 412.038104 103.535598 
L 410.643832 103.704419 
L 409.249561 103.587686 
L 407.855289 103.619248 
L 406.461017 103.501279 
L 405.066745 103.322188 
L 403.672473 103.254573 
L 402.278202 103.215372 
L 400.88393 103.05695 
L 399.489658 103.063242 
L 398.095386 103.047233 
L 396.701114 103.128919 
L 395.306843 103.101994 
L 393.912571 102.973563 
L 392.518299 102.928319 
L 391.124027 102.907129 
L 389.729755 103.04615 
L 388.335484 102.960551 
L 386.941212 102.766034 
L 385.54694 102.622255 
L 384.152668 102.441314 
L 382.758396 102.50999 
L 381.364125 102.43004 
L 379.969853 102.25341 
L 378.575581 102.239427 
L 377.181309 102.008737 
L 375.787037 101.699232 
L 374.392766 101.373682 
L 372.998494 100.882805 
L 371.604222 100.36118 
L 370.20995 99.771176 
L 368.815678 98.894642 
L 367.421407 98.019747 
L 366.027135 97.125837 
L 364.632863 95.999357 
L 363.238591 95.071305 
L 361.844319 93.970959 
L 360.450048 92.61641 
L 359.055776 91.665377 
L 357.661504 90.906519 
L 356.267232 92.268217 
L 354.87296 94.163522 
L 353.478689 104.764768 
L 352.084417 105.050636 
L 350.690145 104.973804 
L 349.295873 105.006204 
L 347.901601 104.988906 
L 346.50733 104.648202 
L 345.113058 104.789817 
L 343.718786 104.928803 
L 342.324514 104.831169 
L 340.930242 104.820304 
L 339.535971 104.735248 
L 338.141699 104.715529 
L 336.747427 104.834036 
L 335.353155 104.791925 
L 333.958883 104.772926 
L 332.564612 104.830046 
L 331.17034 105.000863 
L 329.776068 104.894911 
L 328.381796 104.904681 
L 326.987524 104.887639 
L 325.593253 104.990125 
L 324.198981 104.901301 
L 322.804709 104.571251 
L 321.410437 104.562907 
L 320.016165 104.622054 
L 318.621894 104.68235 
L 317.227622 104.705207 
L 315.83335 104.649408 
L 314.439078 104.528177 
L 313.044806 104.475117 
L 311.650535 104.49407 
L 310.256263 104.611075 
L 308.861991 104.375894 
L 307.467719 104.427324 
L 306.073447 104.273522 
L 304.679176 104.224739 
L 303.284904 104.155548 
L 301.890632 104.248257 
L 300.49636 104.258297 
L 299.102088 104.333274 
L 297.707817 104.102029 
L 296.313545 103.936382 
L 294.919273 104.088845 
L 293.525001 104.056321 
L 292.130729 103.902164 
L 290.736458 103.685681 
L 289.342186 103.56269 
L 287.947914 103.382727 
L 286.553642 103.226129 
L 285.15937 103.007307 
L 283.765099 102.880262 
L 282.370827 102.730006 
L 280.976555 102.640417 
L 279.582283 102.230214 
L 278.188011 101.885382 
L 276.79374 101.509826 
L 275.399468 101.120323 
L 274.005196 100.804846 
L 272.610924 100.262281 
L 271.216652 99.762387 
L 269.822381 99.125807 
L 268.428109 98.460697 
L 267.033837 97.896537 
L 265.639565 97.241955 
L 264.245293 96.575286 
L 262.851022 95.901648 
L 261.45675 95.322791 
L 260.062478 94.577642 
L 258.668206 93.908414 
L 257.273934 93.076138 
L 255.879663 92.164327 
L 254.485391 91.071551 
L 253.091119 89.72298 
L 251.696847 88.321878 
L 250.302575 88.64198 
L 248.908304 93.672011 
L 247.514032 103.472883 
L 246.11976 103.455079 
L 244.725488 103.513413 
L 243.331216 103.469324 
L 241.936945 103.705892 
L 240.542673 103.627118 
L 239.148401 103.53036 
L 237.754129 103.440117 
L 236.359857 103.531334 
L 234.965586 103.547522 
L 233.571314 103.551939 
L 232.177042 103.466387 
L 230.78277 103.45735 
L 229.388498 103.357746 
L 227.994227 103.46226 
L 226.599955 103.591986 
L 225.205683 103.318078 
L 223.811411 103.093148 
L 222.417139 103.417271 
L 221.022868 103.38591 
L 219.628596 103.272697 
L 218.234324 103.279022 
L 216.840052 103.436742 
L 215.44578 103.329675 
L 214.051509 103.421775 
L 212.657237 103.36945 
L 211.262965 103.185919 
L 209.868693 103.341804 
L 208.474421 103.478948 
L 207.08015 103.39687 
L 205.685878 103.382159 
L 204.291606 103.406793 
L 202.897334 103.34307 
L 201.503062 103.158865 
L 200.108791 103.124699 
L 198.714519 103.291165 
L 197.320247 103.367616 
L 195.925975 103.435176 
L 194.531703 103.167872 
L 193.137432 103.233867 
L 191.74316 103.313809 
L 190.348888 103.178392 
L 188.954616 103.043189 
L 187.560344 103.041043 
L 186.166073 103.103349 
L 184.771801 102.973828 
L 183.377529 103.004608 
L 181.983257 102.847456 
L 180.588985 102.837758 
L 179.194714 102.841207 
L 177.800442 102.698057 
L 176.40617 102.746584 
L 175.011898 102.689217 
L 173.617626 102.763891 
L 172.223355 102.737597 
L 170.829083 102.616314 
L 169.434811 102.35569 
L 168.040539 102.312844 
L 166.646267 102.195949 
L 165.251996 101.906771 
L 163.857724 101.676796 
L 162.463452 101.346021 
L 161.06918 100.883296 
L 159.674908 100.315039 
L 158.280637 99.755477 
L 156.886365 98.950881 
L 155.492093 98.041741 
L 154.097821 97.137993 
L 152.703549 96.144605 
L 151.309278 95.110525 
L 149.915006 94.114681 
L 148.520734 92.692047 
L 147.126462 91.579116 
L 145.73219 90.893111 
L 144.337919 92.17722 
L 142.943647 94.010025 
L 141.549375 104.74499 
L 140.155103 104.811773 
L 138.760831 104.766391 
L 137.36656 104.755259 
L 135.972288 104.88064 
L 134.578016 104.688559 
L 133.183744 104.87576 
L 131.789472 104.995138 
L 130.395201 104.848825 
L 129.000929 104.880413 
L 127.606657 104.931967 
L 126.212385 104.98721 
L 124.818113 104.88344 
L 123.423842 104.782735 
L 122.02957 104.814767 
L 120.635298 104.912131 
L 119.241026 105.013909 
L 117.846754 105.000955 
L 116.452483 104.871955 
L 115.058211 105.03808 
L 113.663939 105.095149 
L 112.269667 104.804851 
L 110.875395 104.960675 
L 109.481124 104.928448 
L 108.086852 104.692193 
L 106.69258 104.729835 
L 105.298308 104.890493 
L 103.904036 104.745872 
L 102.509765 104.718539 
L 101.115493 104.745263 
L 99.721221 104.830937 
L 98.326949 104.881465 
L 96.932677 104.769528 
L 95.538406 104.684004 
L 94.144134 104.722447 
L 92.749862 104.751527 
L 91.35559 104.6602 
L 89.961318 104.604495 
L 88.567047 104.569635 
L 87.172775 104.733272 
L 85.778503 104.46783 
L 84.384231 104.415015 
L 82.989959 104.413144 
L 81.595688 104.347318 
L 80.201416 104.44394 
L 78.807144 104.317137 
L 77.412872 104.432804 
L 76.0186 104.130621 
L 74.624329 103.848453 
L 73.230057 104.048971 
L 71.835785 104.14669 
L 70.441513 103.936008 
L 69.047241 103.827343 
L 67.65297 103.824844 
L 66.258698 103.575142 
L 64.864426 103.551799 
L 63.470154 103.432012 
L 62.075882 103.207479 
L 60.681611 102.787182 
L 59.287339 102.486389 
L 57.893067 102.164464 
L 56.498795 101.718999 
L 55.104523 101.342267 
L 53.710252 100.890242 
L 52.31598 100.300184 
L 50.921708 99.760697 
L 49.527436 99.200449 
L 48.133164 98.471683 
L 46.738893 97.788773 
L 45.344621 97.02064 
L 43.950349 96.308028 
L 42.556077 94.674001 
L 41.161805 92.092964 
L 39.767534 78.357993 
L 38.373262 55.626545 
L 36.97899 6.504193 
z
" style="fill:#ababab;fill-opacity:0.2;stroke:#ababab;stroke-opacity:0.2;"/>
   </g>
   <g id="matplotlib.axis_1">
    <g id="xtick_1">
     <g id="line2d_1">
      <defs>
       <path d="M 0 0 
L 0 3.5 
" id="mc158f43fde" style="stroke:#000000;stroke-width:0.8;"/>
      </defs>
      <g>
       <use style="stroke:#000000;stroke-width:0.8;" x="36.97899" xlink:href="#mc158f43fde" y="126.88726"/>
      </g>
     </g>
     <g id="text_1">
      <!-- 0 -->
      <g transform="translate(34.754615 139.61351)scale(0.08 -0.08)">
       <defs>
        <path d="M 4.15625 35.296875 
Q 4.15625 48 6.765625 55.734375 
Q 9.375 63.484375 14.515625 67.671875 
Q 19.671875 71.875 27.484375 71.875 
Q 33.25 71.875 37.59375 69.546875 
Q 41.9375 67.234375 44.765625 62.859375 
Q 47.609375 58.5 49.21875 52.21875 
Q 50.828125 45.953125 50.828125 35.296875 
Q 50.828125 22.703125 48.234375 14.96875 
Q 45.65625 7.234375 40.5 3 
Q 35.359375 -1.21875 27.484375 -1.21875 
Q 17.140625 -1.21875 11.234375 6.203125 
Q 4.15625 15.140625 4.15625 35.296875 
z
M 13.1875 35.296875 
Q 13.1875 17.671875 17.3125 11.828125 
Q 21.4375 6 27.484375 6 
Q 33.546875 6 37.671875 11.859375 
Q 41.796875 17.71875 41.796875 35.296875 
Q 41.796875 52.984375 37.671875 58.78125 
Q 33.546875 64.59375 27.390625 64.59375 
Q 21.34375 64.59375 17.71875 59.46875 
Q 13.1875 52.9375 13.1875 35.296875 
z
" id="ArialMT-48"/>
       </defs>
       <use xlink:href="#ArialMT-48"/>
      </g>
     </g>
    </g>
    <g id="xtick_2">
     <g id="line2d_2">
      <g>
       <use style="stroke:#000000;stroke-width:0.8;" x="64.864426" xlink:href="#mc158f43fde" y="126.88726"/>
      </g>
     </g>
     <g id="text_2">
      <!-- 20 -->
      <g transform="translate(60.415676 139.61351)scale(0.08 -0.08)">
       <defs>
        <path d="M 50.34375 8.453125 
L 50.34375 0 
L 3.03125 0 
Q 2.9375 3.171875 4.046875 6.109375 
Q 5.859375 10.9375 9.828125 15.625 
Q 13.8125 20.3125 21.34375 26.46875 
Q 33.015625 36.03125 37.109375 41.625 
Q 41.21875 47.21875 41.21875 52.203125 
Q 41.21875 57.421875 37.46875 61 
Q 33.734375 64.59375 27.734375 64.59375 
Q 21.390625 64.59375 17.578125 60.78125 
Q 13.765625 56.984375 13.71875 50.25 
L 4.6875 51.171875 
Q 5.609375 61.28125 11.65625 66.578125 
Q 17.71875 71.875 27.9375 71.875 
Q 38.234375 71.875 44.234375 66.15625 
Q 50.25 60.453125 50.25 52 
Q 50.25 47.703125 48.484375 43.546875 
Q 46.734375 39.40625 42.65625 34.8125 
Q 38.578125 30.21875 29.109375 22.21875 
Q 21.1875 15.578125 18.9375 13.203125 
Q 16.703125 10.84375 15.234375 8.453125 
z
" id="ArialMT-50"/>
       </defs>
       <use xlink:href="#ArialMT-50"/>
       <use x="55.615234" xlink:href="#ArialMT-48"/>
      </g>
     </g>
    </g>
    <g id="xtick_3">
     <g id="line2d_3">
      <g>
       <use style="stroke:#000000;stroke-width:0.8;" x="92.749862" xlink:href="#mc158f43fde" y="126.88726"/>
      </g>
     </g>
     <g id="text_3">
      <!-- 40 -->
      <g transform="translate(88.301112 139.61351)scale(0.08 -0.08)">
       <defs>
        <path d="M 32.328125 0 
L 32.328125 17.140625 
L 1.265625 17.140625 
L 1.265625 25.203125 
L 33.9375 71.578125 
L 41.109375 71.578125 
L 41.109375 25.203125 
L 50.78125 25.203125 
L 50.78125 17.140625 
L 41.109375 17.140625 
L 41.109375 0 
z
M 32.328125 25.203125 
L 32.328125 57.46875 
L 9.90625 25.203125 
z
" id="ArialMT-52"/>
       </defs>
       <use xlink:href="#ArialMT-52"/>
       <use x="55.615234" xlink:href="#ArialMT-48"/>
      </g>
     </g>
    </g>
    <g id="xtick_4">
     <g id="line2d_4">
      <g>
       <use style="stroke:#000000;stroke-width:0.8;" x="120.635298" xlink:href="#mc158f43fde" y="126.88726"/>
      </g>
     </g>
     <g id="text_4">
      <!-- 60 -->
      <g transform="translate(116.186548 139.61351)scale(0.08 -0.08)">
       <defs>
        <path d="M 49.75 54.046875 
L 41.015625 53.375 
Q 39.84375 58.546875 37.703125 60.890625 
Q 34.125 64.65625 28.90625 64.65625 
Q 24.703125 64.65625 21.53125 62.3125 
Q 17.390625 59.28125 14.984375 53.46875 
Q 12.59375 47.65625 12.5 36.921875 
Q 15.671875 41.75 20.265625 44.09375 
Q 24.859375 46.4375 29.890625 46.4375 
Q 38.671875 46.4375 44.84375 39.96875 
Q 51.03125 33.5 51.03125 23.25 
Q 51.03125 16.5 48.125 10.71875 
Q 45.21875 4.9375 40.140625 1.859375 
Q 35.0625 -1.21875 28.609375 -1.21875 
Q 17.625 -1.21875 10.6875 6.859375 
Q 3.765625 14.9375 3.765625 33.5 
Q 3.765625 54.25 11.421875 63.671875 
Q 18.109375 71.875 29.4375 71.875 
Q 37.890625 71.875 43.28125 67.140625 
Q 48.6875 62.40625 49.75 54.046875 
z
M 13.875 23.1875 
Q 13.875 18.65625 15.796875 14.5 
Q 17.71875 10.359375 21.1875 8.171875 
Q 24.65625 6 28.46875 6 
Q 34.03125 6 38.03125 10.484375 
Q 42.046875 14.984375 42.046875 22.703125 
Q 42.046875 30.125 38.078125 34.390625 
Q 34.125 38.671875 28.125 38.671875 
Q 22.171875 38.671875 18.015625 34.390625 
Q 13.875 30.125 13.875 23.1875 
z
" id="ArialMT-54"/>
       </defs>
       <use xlink:href="#ArialMT-54"/>
       <use x="55.615234" xlink:href="#ArialMT-48"/>
      </g>
     </g>
    </g>
    <g id="xtick_5">
     <g id="line2d_5">
      <g>
       <use style="stroke:#000000;stroke-width:0.8;" x="148.520734" xlink:href="#mc158f43fde" y="126.88726"/>
      </g>
     </g>
     <g id="text_5">
      <!-- 80 -->
      <g transform="translate(144.071984 139.61351)scale(0.08 -0.08)">
       <defs>
        <path d="M 17.671875 38.8125 
Q 12.203125 40.828125 9.5625 44.53125 
Q 6.9375 48.25 6.9375 53.421875 
Q 6.9375 61.234375 12.546875 66.546875 
Q 18.171875 71.875 27.484375 71.875 
Q 36.859375 71.875 42.578125 66.421875 
Q 48.296875 60.984375 48.296875 53.171875 
Q 48.296875 48.1875 45.671875 44.5 
Q 43.0625 40.828125 37.75 38.8125 
Q 44.34375 36.671875 47.78125 31.875 
Q 51.21875 27.09375 51.21875 20.453125 
Q 51.21875 11.28125 44.71875 5.03125 
Q 38.234375 -1.21875 27.640625 -1.21875 
Q 17.046875 -1.21875 10.546875 5.046875 
Q 4.046875 11.328125 4.046875 20.703125 
Q 4.046875 27.6875 7.59375 32.390625 
Q 11.140625 37.109375 17.671875 38.8125 
z
M 15.921875 53.71875 
Q 15.921875 48.640625 19.1875 45.40625 
Q 22.46875 42.1875 27.6875 42.1875 
Q 32.765625 42.1875 36.015625 45.375 
Q 39.265625 48.578125 39.265625 53.21875 
Q 39.265625 58.0625 35.90625 61.359375 
Q 32.5625 64.65625 27.59375 64.65625 
Q 22.5625 64.65625 19.234375 61.421875 
Q 15.921875 58.203125 15.921875 53.71875 
z
M 13.09375 20.65625 
Q 13.09375 16.890625 14.875 13.375 
Q 16.65625 9.859375 20.171875 7.921875 
Q 23.6875 6 27.734375 6 
Q 34.03125 6 38.125 10.046875 
Q 42.234375 14.109375 42.234375 20.359375 
Q 42.234375 26.703125 38.015625 30.859375 
Q 33.796875 35.015625 27.4375 35.015625 
Q 21.234375 35.015625 17.15625 30.90625 
Q 13.09375 26.8125 13.09375 20.65625 
z
" id="ArialMT-56"/>
       </defs>
       <use xlink:href="#ArialMT-56"/>
       <use x="55.615234" xlink:href="#ArialMT-48"/>
      </g>
     </g>
    </g>
    <g id="xtick_6">
     <g id="line2d_6">
      <g>
       <use style="stroke:#000000;stroke-width:0.8;" x="176.40617" xlink:href="#mc158f43fde" y="126.88726"/>
      </g>
     </g>
     <g id="text_6">
      <!-- 100 -->
      <g transform="translate(169.733045 139.61351)scale(0.08 -0.08)">
       <defs>
        <path d="M 37.25 0 
L 28.46875 0 
L 28.46875 56 
Q 25.296875 52.984375 20.140625 49.953125 
Q 14.984375 46.921875 10.890625 45.40625 
L 10.890625 53.90625 
Q 18.265625 57.375 23.78125 62.296875 
Q 29.296875 67.234375 31.59375 71.875 
L 37.25 71.875 
z
" id="ArialMT-49"/>
       </defs>
       <use xlink:href="#ArialMT-49"/>
       <use x="55.615234" xlink:href="#ArialMT-48"/>
       <use x="111.230469" xlink:href="#ArialMT-48"/>
      </g>
     </g>
    </g>
    <g id="xtick_7">
     <g id="line2d_7">
      <g>
       <use style="stroke:#000000;stroke-width:0.8;" x="204.291606" xlink:href="#mc158f43fde" y="126.88726"/>
      </g>
     </g>
     <g id="text_7">
      <!-- 120 -->
      <g transform="translate(197.618481 139.61351)scale(0.08 -0.08)">
       <use xlink:href="#ArialMT-49"/>
       <use x="55.615234" xlink:href="#ArialMT-50"/>
       <use x="111.230469" xlink:href="#ArialMT-48"/>
      </g>
     </g>
    </g>
    <g id="xtick_8">
     <g id="line2d_8">
      <g>
       <use style="stroke:#000000;stroke-width:0.8;" x="232.177042" xlink:href="#mc158f43fde" y="126.88726"/>
      </g>
     </g>
     <g id="text_8">
      <!-- 140 -->
      <g transform="translate(225.503917 139.61351)scale(0.08 -0.08)">
       <use xlink:href="#ArialMT-49"/>
       <use x="55.615234" xlink:href="#ArialMT-52"/>
       <use x="111.230469" xlink:href="#ArialMT-48"/>
      </g>
     </g>
    </g>
    <g id="text_9">
     <!-- Time step -->
     <g transform="translate(124.14 150.92976)scale(0.08 -0.08)">
      <defs>
       <path d="M 25.921875 0 
L 25.921875 63.140625 
L 2.34375 63.140625 
L 2.34375 71.578125 
L 59.078125 71.578125 
L 59.078125 63.140625 
L 35.40625 63.140625 
L 35.40625 0 
z
" id="ArialMT-84"/>
       <path d="M 6.640625 61.46875 
L 6.640625 71.578125 
L 15.4375 71.578125 
L 15.4375 61.46875 
z
M 6.640625 0 
L 6.640625 51.859375 
L 15.4375 51.859375 
L 15.4375 0 
z
" id="ArialMT-105"/>
       <path d="M 6.59375 0 
L 6.59375 51.859375 
L 14.453125 51.859375 
L 14.453125 44.578125 
Q 16.890625 48.390625 20.9375 50.703125 
Q 25 53.03125 30.171875 53.03125 
Q 35.9375 53.03125 39.625 50.640625 
Q 43.3125 48.25 44.828125 43.953125 
Q 50.984375 53.03125 60.84375 53.03125 
Q 68.5625 53.03125 72.703125 48.75 
Q 76.859375 44.484375 76.859375 35.59375 
L 76.859375 0 
L 68.109375 0 
L 68.109375 32.671875 
Q 68.109375 37.9375 67.25 40.25 
Q 66.40625 42.578125 64.15625 43.984375 
Q 61.921875 45.40625 58.890625 45.40625 
Q 53.421875 45.40625 49.796875 41.765625 
Q 46.1875 38.140625 46.1875 30.125 
L 46.1875 0 
L 37.40625 0 
L 37.40625 33.6875 
Q 37.40625 39.546875 35.25 42.46875 
Q 33.109375 45.40625 28.21875 45.40625 
Q 24.515625 45.40625 21.359375 43.453125 
Q 18.21875 41.5 16.796875 37.734375 
Q 15.375 33.984375 15.375 26.90625 
L 15.375 0 
z
" id="ArialMT-109"/>
       <path d="M 42.09375 16.703125 
L 51.171875 15.578125 
Q 49.03125 7.625 43.21875 3.21875 
Q 37.40625 -1.171875 28.375 -1.171875 
Q 17 -1.171875 10.328125 5.828125 
Q 3.65625 12.84375 3.65625 25.484375 
Q 3.65625 38.578125 10.390625 45.796875 
Q 17.140625 53.03125 27.875 53.03125 
Q 38.28125 53.03125 44.875 45.953125 
Q 51.46875 38.875 51.46875 26.03125 
Q 51.46875 25.25 51.421875 23.6875 
L 12.75 23.6875 
Q 13.234375 15.140625 17.578125 10.59375 
Q 21.921875 6.0625 28.421875 6.0625 
Q 33.25 6.0625 36.671875 8.59375 
Q 40.09375 11.140625 42.09375 16.703125 
z
M 13.234375 30.90625 
L 42.1875 30.90625 
Q 41.609375 37.453125 38.875 40.71875 
Q 34.671875 45.796875 27.984375 45.796875 
Q 21.921875 45.796875 17.796875 41.75 
Q 13.671875 37.703125 13.234375 30.90625 
z
" id="ArialMT-101"/>
       <path id="ArialMT-32"/>
       <path d="M 3.078125 15.484375 
L 11.765625 16.84375 
Q 12.5 11.625 15.84375 8.84375 
Q 19.1875 6.0625 25.203125 6.0625 
Q 31.25 6.0625 34.171875 8.515625 
Q 37.109375 10.984375 37.109375 14.3125 
Q 37.109375 17.28125 34.515625 19 
Q 32.71875 20.171875 25.53125 21.96875 
Q 15.875 24.421875 12.140625 26.203125 
Q 8.40625 27.984375 6.46875 31.125 
Q 4.546875 34.28125 4.546875 38.09375 
Q 4.546875 41.546875 6.125 44.5 
Q 7.71875 47.46875 10.453125 49.421875 
Q 12.5 50.921875 16.03125 51.96875 
Q 19.578125 53.03125 23.640625 53.03125 
Q 29.734375 53.03125 34.34375 51.265625 
Q 38.96875 49.515625 41.15625 46.5 
Q 43.359375 43.5 44.1875 38.484375 
L 35.59375 37.3125 
Q 35.015625 41.3125 32.203125 43.546875 
Q 29.390625 45.796875 24.265625 45.796875 
Q 18.21875 45.796875 15.625 43.796875 
Q 13.03125 41.796875 13.03125 39.109375 
Q 13.03125 37.40625 14.109375 36.03125 
Q 15.1875 34.625 17.484375 33.6875 
Q 18.796875 33.203125 25.25 31.453125 
Q 34.578125 28.953125 38.25 27.359375 
Q 41.9375 25.78125 44.03125 22.75 
Q 46.140625 19.734375 46.140625 15.234375 
Q 46.140625 10.84375 43.578125 6.953125 
Q 41.015625 3.078125 36.171875 0.953125 
Q 31.34375 -1.171875 25.25 -1.171875 
Q 15.140625 -1.171875 9.84375 3.03125 
Q 4.546875 7.234375 3.078125 15.484375 
z
" id="ArialMT-115"/>
       <path d="M 25.78125 7.859375 
L 27.046875 0.09375 
Q 23.34375 -0.6875 20.40625 -0.6875 
Q 15.625 -0.6875 12.984375 0.828125 
Q 10.359375 2.34375 9.28125 4.8125 
Q 8.203125 7.28125 8.203125 15.1875 
L 8.203125 45.015625 
L 1.765625 45.015625 
L 1.765625 51.859375 
L 8.203125 51.859375 
L 8.203125 64.703125 
L 16.9375 69.96875 
L 16.9375 51.859375 
L 25.78125 51.859375 
L 25.78125 45.015625 
L 16.9375 45.015625 
L 16.9375 14.703125 
Q 16.9375 10.9375 17.40625 9.859375 
Q 17.875 8.796875 18.921875 8.15625 
Q 19.96875 7.515625 21.921875 7.515625 
Q 23.390625 7.515625 25.78125 7.859375 
z
" id="ArialMT-116"/>
       <path d="M 6.59375 -19.875 
L 6.59375 51.859375 
L 14.59375 51.859375 
L 14.59375 45.125 
Q 17.4375 49.078125 21 51.046875 
Q 24.5625 53.03125 29.640625 53.03125 
Q 36.28125 53.03125 41.359375 49.609375 
Q 46.4375 46.1875 49.015625 39.953125 
Q 51.609375 33.734375 51.609375 26.3125 
Q 51.609375 18.359375 48.75 11.984375 
Q 45.90625 5.609375 40.453125 2.21875 
Q 35.015625 -1.171875 29 -1.171875 
Q 24.609375 -1.171875 21.109375 0.6875 
Q 17.625 2.546875 15.375 5.375 
L 15.375 -19.875 
z
M 14.546875 25.640625 
Q 14.546875 15.625 18.59375 10.84375 
Q 22.65625 6.0625 28.421875 6.0625 
Q 34.28125 6.0625 38.453125 11.015625 
Q 42.625 15.96875 42.625 26.375 
Q 42.625 36.28125 38.546875 41.203125 
Q 34.46875 46.140625 28.8125 46.140625 
Q 23.1875 46.140625 18.859375 40.890625 
Q 14.546875 35.640625 14.546875 25.640625 
z
" id="ArialMT-112"/>
      </defs>
      <use xlink:href="#ArialMT-84"/>
      <use x="57.333984" xlink:href="#ArialMT-105"/>
      <use x="79.550781" xlink:href="#ArialMT-109"/>
      <use x="162.851562" xlink:href="#ArialMT-101"/>
      <use x="218.466797" xlink:href="#ArialMT-32"/>
      <use x="246.25" xlink:href="#ArialMT-115"/>
      <use x="296.25" xlink:href="#ArialMT-116"/>
      <use x="324.033203" xlink:href="#ArialMT-101"/>
      <use x="379.648438" xlink:href="#ArialMT-112"/>
     </g>
    </g>
   </g>
   <g id="matplotlib.axis_2">
    <g id="ytick_1">
     <g id="line2d_9">
      <defs>
       <path d="M 0 0 
L -3.5 0 
" id="mf802c23504" style="stroke:#000000;stroke-width:0.8;"/>
      </defs>
      <g>
       <use style="stroke:#000000;stroke-width:0.8;" x="36.97899" xlink:href="#mf802c23504" y="126.88726"/>
      </g>
     </g>
     <g id="text_10">
      <!-- 0.05 -->
      <g transform="translate(14.41024 129.750385)scale(0.08 -0.08)">
       <defs>
        <path d="M 9.078125 0 
L 9.078125 10.015625 
L 19.09375 10.015625 
L 19.09375 0 
z
" id="ArialMT-46"/>
        <path d="M 4.15625 18.75 
L 13.375 19.53125 
Q 14.40625 12.796875 18.140625 9.390625 
Q 21.875 6 27.15625 6 
Q 33.5 6 37.890625 10.78125 
Q 42.28125 15.578125 42.28125 23.484375 
Q 42.28125 31 38.0625 35.34375 
Q 33.84375 39.703125 27 39.703125 
Q 22.75 39.703125 19.328125 37.765625 
Q 15.921875 35.84375 13.96875 32.765625 
L 5.71875 33.84375 
L 12.640625 70.609375 
L 48.25 70.609375 
L 48.25 62.203125 
L 19.671875 62.203125 
L 15.828125 42.96875 
Q 22.265625 47.46875 29.34375 47.46875 
Q 38.71875 47.46875 45.15625 40.96875 
Q 51.609375 34.46875 51.609375 24.265625 
Q 51.609375 14.546875 45.953125 7.46875 
Q 39.0625 -1.21875 27.15625 -1.21875 
Q 17.390625 -1.21875 11.203125 4.25 
Q 5.03125 9.71875 4.15625 18.75 
z
" id="ArialMT-53"/>
       </defs>
       <use xlink:href="#ArialMT-48"/>
       <use x="55.615234" xlink:href="#ArialMT-46"/>
       <use x="83.398438" xlink:href="#ArialMT-48"/>
       <use x="139.013672" xlink:href="#ArialMT-53"/>
      </g>
     </g>
    </g>
    <g id="ytick_2">
     <g id="line2d_10">
      <g>
       <use style="stroke:#000000;stroke-width:0.8;" x="36.97899" xlink:href="#mf802c23504" y="99.356811"/>
      </g>
     </g>
     <g id="text_11">
      <!-- 0.10 -->
      <g transform="translate(14.41024 102.219936)scale(0.08 -0.08)">
       <use xlink:href="#ArialMT-48"/>
       <use x="55.615234" xlink:href="#ArialMT-46"/>
       <use x="83.398438" xlink:href="#ArialMT-49"/>
       <use x="139.013672" xlink:href="#ArialMT-48"/>
      </g>
     </g>
    </g>
    <g id="ytick_3">
     <g id="line2d_11">
      <g>
       <use style="stroke:#000000;stroke-width:0.8;" x="36.97899" xlink:href="#mf802c23504" y="71.826362"/>
      </g>
     </g>
     <g id="text_12">
      <!-- 0.15 -->
      <g transform="translate(14.41024 74.689487)scale(0.08 -0.08)">
       <use xlink:href="#ArialMT-48"/>
       <use x="55.615234" xlink:href="#ArialMT-46"/>
       <use x="83.398438" xlink:href="#ArialMT-49"/>
       <use x="139.013672" xlink:href="#ArialMT-53"/>
      </g>
     </g>
    </g>
    <g id="ytick_4">
     <g id="line2d_12">
      <g>
       <use style="stroke:#000000;stroke-width:0.8;" x="36.97899" xlink:href="#mf802c23504" y="44.295913"/>
      </g>
     </g>
     <g id="text_13">
      <!-- 0.20 -->
      <g transform="translate(14.41024 47.159038)scale(0.08 -0.08)">
       <use xlink:href="#ArialMT-48"/>
       <use x="55.615234" xlink:href="#ArialMT-46"/>
       <use x="83.398438" xlink:href="#ArialMT-50"/>
       <use x="139.013672" xlink:href="#ArialMT-48"/>
      </g>
     </g>
    </g>
    <g id="ytick_5">
     <g id="line2d_13">
      <g>
       <use style="stroke:#000000;stroke-width:0.8;" x="36.97899" xlink:href="#mf802c23504" y="16.765464"/>
      </g>
     </g>
     <g id="text_14">
      <!-- 0.25 -->
      <g transform="translate(14.41024 19.628589)scale(0.08 -0.08)">
       <use xlink:href="#ArialMT-48"/>
       <use x="55.615234" xlink:href="#ArialMT-46"/>
       <use x="83.398438" xlink:href="#ArialMT-50"/>
       <use x="139.013672" xlink:href="#ArialMT-53"/>
      </g>
     </g>
    </g>
    <g id="text_15">
     <!-- Learning rate -->
     <g transform="translate(8.72649 88.51375)rotate(-90)scale(0.08 -0.08)">
      <defs>
       <path d="M 7.328125 0 
L 7.328125 71.578125 
L 16.796875 71.578125 
L 16.796875 8.453125 
L 52.046875 8.453125 
L 52.046875 0 
z
" id="ArialMT-76"/>
       <path d="M 40.4375 6.390625 
Q 35.546875 2.25 31.03125 0.53125 
Q 26.515625 -1.171875 21.34375 -1.171875 
Q 12.796875 -1.171875 8.203125 3 
Q 3.609375 7.171875 3.609375 13.671875 
Q 3.609375 17.484375 5.34375 20.625 
Q 7.078125 23.78125 9.890625 25.6875 
Q 12.703125 27.59375 16.21875 28.5625 
Q 18.796875 29.25 24.03125 29.890625 
Q 34.671875 31.15625 39.703125 32.90625 
Q 39.75 34.71875 39.75 35.203125 
Q 39.75 40.578125 37.25 42.78125 
Q 33.890625 45.75 27.25 45.75 
Q 21.046875 45.75 18.09375 43.578125 
Q 15.140625 41.40625 13.71875 35.890625 
L 5.125 37.0625 
Q 6.296875 42.578125 8.984375 45.96875 
Q 11.671875 49.359375 16.75 51.1875 
Q 21.828125 53.03125 28.515625 53.03125 
Q 35.15625 53.03125 39.296875 51.46875 
Q 43.453125 49.90625 45.40625 47.53125 
Q 47.359375 45.171875 48.140625 41.546875 
Q 48.578125 39.3125 48.578125 33.453125 
L 48.578125 21.734375 
Q 48.578125 9.46875 49.140625 6.21875 
Q 49.703125 2.984375 51.375 0 
L 42.1875 0 
Q 40.828125 2.734375 40.4375 6.390625 
z
M 39.703125 26.03125 
Q 34.90625 24.078125 25.34375 22.703125 
Q 19.921875 21.921875 17.671875 20.9375 
Q 15.4375 19.96875 14.203125 18.09375 
Q 12.984375 16.21875 12.984375 13.921875 
Q 12.984375 10.40625 15.640625 8.0625 
Q 18.3125 5.71875 23.4375 5.71875 
Q 28.515625 5.71875 32.46875 7.9375 
Q 36.421875 10.15625 38.28125 14.015625 
Q 39.703125 17 39.703125 22.796875 
z
" id="ArialMT-97"/>
       <path d="M 6.5 0 
L 6.5 51.859375 
L 14.40625 51.859375 
L 14.40625 44 
Q 17.4375 49.515625 20 51.265625 
Q 22.5625 53.03125 25.640625 53.03125 
Q 30.078125 53.03125 34.671875 50.203125 
L 31.640625 42.046875 
Q 28.421875 43.953125 25.203125 43.953125 
Q 22.3125 43.953125 20.015625 42.21875 
Q 17.71875 40.484375 16.75 37.40625 
Q 15.28125 32.71875 15.28125 27.15625 
L 15.28125 0 
z
" id="ArialMT-114"/>
       <path d="M 6.59375 0 
L 6.59375 51.859375 
L 14.5 51.859375 
L 14.5 44.484375 
Q 20.21875 53.03125 31 53.03125 
Q 35.6875 53.03125 39.625 51.34375 
Q 43.5625 49.65625 45.515625 46.921875 
Q 47.46875 44.1875 48.25 40.4375 
Q 48.734375 37.984375 48.734375 31.890625 
L 48.734375 0 
L 39.9375 0 
L 39.9375 31.546875 
Q 39.9375 36.921875 38.90625 39.578125 
Q 37.890625 42.234375 35.28125 43.8125 
Q 32.671875 45.40625 29.15625 45.40625 
Q 23.53125 45.40625 19.453125 41.84375 
Q 15.375 38.28125 15.375 28.328125 
L 15.375 0 
z
" id="ArialMT-110"/>
       <path d="M 4.984375 -4.296875 
L 13.53125 -5.5625 
Q 14.0625 -9.515625 16.5 -11.328125 
Q 19.78125 -13.765625 25.4375 -13.765625 
Q 31.546875 -13.765625 34.859375 -11.328125 
Q 38.1875 -8.890625 39.359375 -4.5 
Q 40.046875 -1.8125 39.984375 6.78125 
Q 34.234375 0 25.640625 0 
Q 14.9375 0 9.078125 7.71875 
Q 3.21875 15.4375 3.21875 26.21875 
Q 3.21875 33.640625 5.90625 39.90625 
Q 8.59375 46.1875 13.6875 49.609375 
Q 18.796875 53.03125 25.6875 53.03125 
Q 34.859375 53.03125 40.828125 45.609375 
L 40.828125 51.859375 
L 48.921875 51.859375 
L 48.921875 7.03125 
Q 48.921875 -5.078125 46.453125 -10.125 
Q 44 -15.1875 38.640625 -18.109375 
Q 33.296875 -21.046875 25.484375 -21.046875 
Q 16.21875 -21.046875 10.5 -16.875 
Q 4.78125 -12.703125 4.984375 -4.296875 
z
M 12.25 26.859375 
Q 12.25 16.65625 16.296875 11.96875 
Q 20.359375 7.28125 26.46875 7.28125 
Q 32.515625 7.28125 36.609375 11.9375 
Q 40.71875 16.609375 40.71875 26.5625 
Q 40.71875 36.078125 36.5 40.90625 
Q 32.28125 45.75 26.3125 45.75 
Q 20.453125 45.75 16.34375 40.984375 
Q 12.25 36.234375 12.25 26.859375 
z
" id="ArialMT-103"/>
      </defs>
      <use xlink:href="#ArialMT-76"/>
      <use x="55.615234" xlink:href="#ArialMT-101"/>
      <use x="111.230469" xlink:href="#ArialMT-97"/>
      <use x="166.845703" xlink:href="#ArialMT-114"/>
      <use x="200.146484" xlink:href="#ArialMT-110"/>
      <use x="255.761719" xlink:href="#ArialMT-105"/>
      <use x="277.978516" xlink:href="#ArialMT-110"/>
      <use x="333.59375" xlink:href="#ArialMT-103"/>
      <use x="389.208984" xlink:href="#ArialMT-32"/>
      <use x="416.992188" xlink:href="#ArialMT-114"/>
      <use x="450.292969" xlink:href="#ArialMT-97"/>
      <use x="505.908203" xlink:href="#ArialMT-116"/>
      <use x="533.691406" xlink:href="#ArialMT-101"/>
     </g>
    </g>
   </g>
   <g id="line2d_14">
    <path clip-path="url(#p7b5ba009d8)" d="M 36.97899 25.839752 
L 38.373262 68.388263 
L 39.767534 85.749775 
L 41.161805 96.04946 
L 42.556077 98.214038 
L 43.950349 99.647142 
L 46.738893 101.070232 
L 49.527436 102.327317 
L 55.104523 104.100821 
L 62.075882 105.720264 
L 63.470154 105.961611 
L 66.258698 106.167601 
L 67.65297 106.378252 
L 69.047241 106.400977 
L 71.835785 106.693401 
L 74.624329 106.490774 
L 77.412872 107.020271 
L 78.807144 106.908961 
L 80.201416 107.04008 
L 81.595688 106.912671 
L 87.172775 107.274082 
L 88.567047 107.153596 
L 92.749862 107.36179 
L 96.932677 107.393375 
L 98.326949 107.457614 
L 102.509765 107.346403 
L 105.298308 107.498556 
L 106.69258 107.349619 
L 108.086852 107.333221 
L 109.481124 107.5723 
L 110.875395 107.562327 
L 112.269667 107.434707 
L 113.663939 107.695127 
L 116.452483 107.540188 
L 117.846754 107.628483 
L 124.818113 107.542826 
L 126.212385 107.650154 
L 129.000929 107.496861 
L 130.395201 107.494789 
L 131.789472 107.628419 
L 134.578016 107.387705 
L 135.972288 107.535484 
L 137.36656 107.397299 
L 140.155103 107.444421 
L 141.549375 107.393954 
L 142.943647 97.426722 
L 144.337919 95.521689 
L 145.73219 94.214094 
L 147.126462 94.857399 
L 148.520734 95.787344 
L 149.915006 97.148909 
L 154.097821 99.986173 
L 158.280637 102.151119 
L 163.857724 103.730733 
L 168.040539 104.360701 
L 169.434811 104.465777 
L 170.829083 104.755728 
L 173.617626 104.981223 
L 176.40617 105.145434 
L 177.800442 105.115872 
L 179.194714 105.318637 
L 180.588985 105.268718 
L 186.166073 105.714632 
L 188.954616 105.707544 
L 191.74316 106.018977 
L 194.531703 105.912284 
L 195.925975 106.209304 
L 200.108791 106.023749 
L 201.503062 106.013492 
L 204.291606 106.246192 
L 209.868693 106.279543 
L 211.262965 106.18876 
L 214.051509 106.331484 
L 222.417139 106.278256 
L 223.811411 106.128447 
L 226.599955 106.476076 
L 230.78277 106.401857 
L 243.331216 106.511155 
L 247.514032 106.500353 
L 248.908304 97.227163 
L 250.12 92.76999 
L 250.12 92.76999 
" style="fill:none;stroke:#ababab;stroke-linecap:square;"/>
   </g>
   <g id="line2d_15">
    <path clip-path="url(#p7b5ba009d8)" d="M 141.549375 126.88726 
L 141.549375 3.00024 
" style="fill:none;stroke:#000000;stroke-linecap:square;"/>
   </g>
   <g id="patch_3">
    <path d="M 36.97899 126.88726 
L 36.97899 3.00024 
" style="fill:none;stroke:#000000;stroke-linecap:square;stroke-linejoin:miter;stroke-width:0.8;"/>
   </g>
   <g id="patch_4">
    <path d="M 36.97899 126.88726 
L 246.11976 126.88726 
" style="fill:none;stroke:#000000;stroke-linecap:square;stroke-linejoin:miter;stroke-width:0.8;"/>
   </g>
   <g id="patch_5">
    <path d="M 114.362947 12.298549 
Q 127.956161 15.220268 140.456305 17.907043 
" style="fill:none;stroke:#000000;stroke-linecap:round;"/>
    <path d="M 137.663982 15.67032 
L 140.456305 17.907043 
L 136.991533 18.798868 
" style="fill:none;stroke:#000000;stroke-linecap:round;"/>
   </g>
   <g id="text_16">
    <!-- Change point -->
    <g transform="translate(64.772047 8.82399)scale(0.08 -0.08)">
     <defs>
      <path d="M 58.796875 25.09375 
L 68.265625 22.703125 
Q 65.28125 11.03125 57.546875 4.90625 
Q 49.8125 -1.21875 38.625 -1.21875 
Q 27.046875 -1.21875 19.796875 3.484375 
Q 12.546875 8.203125 8.765625 17.140625 
Q 4.984375 26.078125 4.984375 36.328125 
Q 4.984375 47.515625 9.25 55.828125 
Q 13.53125 64.15625 21.40625 68.46875 
Q 29.296875 72.796875 38.765625 72.796875 
Q 49.515625 72.796875 56.828125 67.328125 
Q 64.15625 61.859375 67.046875 51.953125 
L 57.71875 49.75 
Q 55.21875 57.5625 50.484375 61.125 
Q 45.75 64.703125 38.578125 64.703125 
Q 30.328125 64.703125 24.78125 60.734375 
Q 19.234375 56.78125 16.984375 50.109375 
Q 14.75 43.453125 14.75 36.375 
Q 14.75 27.25 17.40625 20.4375 
Q 20.0625 13.625 25.671875 10.25 
Q 31.296875 6.890625 37.84375 6.890625 
Q 45.796875 6.890625 51.3125 11.46875 
Q 56.84375 16.0625 58.796875 25.09375 
z
" id="ArialMT-67"/>
      <path d="M 6.59375 0 
L 6.59375 71.578125 
L 15.375 71.578125 
L 15.375 45.90625 
Q 21.53125 53.03125 30.90625 53.03125 
Q 36.671875 53.03125 40.921875 50.75 
Q 45.171875 48.484375 47 44.484375 
Q 48.828125 40.484375 48.828125 32.859375 
L 48.828125 0 
L 40.046875 0 
L 40.046875 32.859375 
Q 40.046875 39.453125 37.1875 42.453125 
Q 34.328125 45.453125 29.109375 45.453125 
Q 25.203125 45.453125 21.75 43.421875 
Q 18.3125 41.40625 16.84375 37.9375 
Q 15.375 34.46875 15.375 28.375 
L 15.375 0 
z
" id="ArialMT-104"/>
      <path d="M 3.328125 25.921875 
Q 3.328125 40.328125 11.328125 47.265625 
Q 18.015625 53.03125 27.640625 53.03125 
Q 38.328125 53.03125 45.109375 46.015625 
Q 51.90625 39.015625 51.90625 26.65625 
Q 51.90625 16.65625 48.90625 10.90625 
Q 45.90625 5.171875 40.15625 2 
Q 34.421875 -1.171875 27.640625 -1.171875 
Q 16.75 -1.171875 10.03125 5.8125 
Q 3.328125 12.796875 3.328125 25.921875 
z
M 12.359375 25.921875 
Q 12.359375 15.96875 16.703125 11.015625 
Q 21.046875 6.0625 27.640625 6.0625 
Q 34.1875 6.0625 38.53125 11.03125 
Q 42.875 16.015625 42.875 26.21875 
Q 42.875 35.84375 38.5 40.796875 
Q 34.125 45.75 27.640625 45.75 
Q 21.046875 45.75 16.703125 40.8125 
Q 12.359375 35.890625 12.359375 25.921875 
z
" id="ArialMT-111"/>
     </defs>
     <use xlink:href="#ArialMT-67"/>
     <use x="72.216797" xlink:href="#ArialMT-104"/>
     <use x="127.832031" xlink:href="#ArialMT-97"/>
     <use x="183.447266" xlink:href="#ArialMT-110"/>
     <use x="239.0625" xlink:href="#ArialMT-103"/>
     <use x="294.677734" xlink:href="#ArialMT-101"/>
     <use x="350.292969" xlink:href="#ArialMT-32"/>
     <use x="378.076172" xlink:href="#ArialMT-112"/>
     <use x="433.691406" xlink:href="#ArialMT-111"/>
     <use x="489.306641" xlink:href="#ArialMT-105"/>
     <use x="511.523438" xlink:href="#ArialMT-110"/>
     <use x="567.138672" xlink:href="#ArialMT-116"/>
    </g>
   </g>
  </g>
 </g>
 <defs>
  <clipPath id="p7b5ba009d8">
   <rect height="123.88702" width="209.14077" x="36.97899" y="3.00024"/>
  </clipPath>
 </defs>
</svg>
