<?xml version="1.0" encoding="utf-8" standalone="no"?>
<!DOCTYPE svg PUBLIC "-//W3C//DTD SVG 1.1//EN"
  "http://www.w3.org/Graphics/SVG/1.1/DTD/svg11.dtd">
<!-- Created with matplotlib (https://matplotlib.org/) -->
<svg height="155.52pt" version="1.1" viewBox="0 0 249.12 155.52" width="249.12pt" xmlns="http://www.w3.org/2000/svg" xmlns:xlink="http://www.w3.org/1999/xlink">
 <metadata>
  <rdf:RDF xmlns:cc="http://creativecommons.org/ns#" xmlns:dc="http://purl.org/dc/elements/1.1/" xmlns:rdf="http://www.w3.org/1999/02/22-rdf-syntax-ns#">
   <cc:Work>
    <dc:type rdf:resource="http://purl.org/dc/dcmitype/StillImage"/>
    <dc:date>2021-11-11T09:57:43.996417</dc:date>
    <dc:format>image/svg+xml</dc:format>
    <dc:creator>
     <cc:Agent>
      <dc:title>Matplotlib v3.3.4, https://matplotlib.org/</dc:title>
     </cc:Agent>
    </dc:creator>
   </cc:Work>
  </rdf:RDF>
 </metadata>
 <defs>
  <style type="text/css">*{stroke-linecap:butt;stroke-linejoin:round;}</style>
 </defs>
 <g id="figure_1">
  <g id="patch_1">
   <path d="M 0 155.52 
L 249.12 155.52 
L 249.12 0 
L 0 0 
z
" style="fill:#ffffff;"/>
  </g>
  <g id="axes_1">
   <g id="patch_2">
    <path d="M 36.97899 126.88726 
L 246.11976 126.88726 
L 246.11976 3.00024 
L 36.97899 3.00024 
z
" style="fill:#ffffff;"/>
   </g>
   <g id="PolyCollection_1">
    <path clip-path="url(#p04b31666bf)" d="M 36.97899 -19.488113 
L 36.97899 -0.9701 
L 38.373262 24.790793 
L 39.767534 45.21905 
L 41.161805 60.534139 
L 42.556077 71.941301 
L 43.950349 80.429412 
L 45.344621 86.916817 
L 46.738893 91.810802 
L 48.133164 95.584461 
L 49.527436 98.51217 
L 50.921708 100.719922 
L 52.31598 102.436388 
L 53.710252 103.926957 
L 55.104523 105.108002 
L 56.498795 106.13065 
L 57.893067 107.024986 
L 59.287339 107.622991 
L 60.681611 108.25938 
L 62.075882 108.756698 
L 63.470154 109.248417 
L 64.864426 109.518652 
L 66.258698 109.847354 
L 67.65297 110.113334 
L 69.047241 110.274971 
L 70.441513 110.56041 
L 71.835785 110.754702 
L 73.230057 110.762377 
L 74.624329 110.769452 
L 76.0186 111.021532 
L 77.412872 111.199388 
L 78.807144 111.302458 
L 80.201416 111.519741 
L 81.595688 111.510329 
L 82.989959 111.648875 
L 84.384231 111.648627 
L 85.778503 111.876392 
L 87.172775 111.910387 
L 88.567047 111.958142 
L 89.961318 112.061475 
L 91.35559 112.090431 
L 92.749862 112.131674 
L 94.144134 112.215228 
L 95.538406 112.221476 
L 96.932677 112.326213 
L 98.326949 112.348893 
L 99.721221 112.331199 
L 101.115493 112.419555 
L 102.509765 112.361547 
L 103.904036 112.452466 
L 105.298308 112.497553 
L 106.69258 112.443902 
L 108.086852 112.452028 
L 109.481124 112.567447 
L 110.875395 112.520175 
L 112.269667 112.501498 
L 113.663939 112.64396 
L 115.058211 112.549738 
L 116.452483 112.604178 
L 117.846754 112.642919 
L 119.241026 112.622776 
L 120.635298 112.556684 
L 122.02957 112.4868 
L 123.423842 112.501492 
L 124.818113 112.522546 
L 126.212385 112.656826 
L 127.606657 112.700456 
L 129.000929 112.692857 
L 130.395201 112.670993 
L 131.789472 112.720528 
L 133.183744 112.579107 
L 134.578016 112.563617 
L 135.972288 112.598613 
L 137.36656 112.476457 
L 138.760831 112.570364 
L 140.155103 112.551113 
L 141.549375 112.562037 
L 142.943647 103.897196 
L 144.337919 99.803537 
L 145.73219 97.713959 
L 147.126462 96.980902 
L 148.520734 97.027315 
L 149.915006 97.486533 
L 151.309278 98.134148 
L 152.703549 98.856465 
L 154.097821 99.614691 
L 155.492093 100.313814 
L 156.886365 101.163934 
L 158.280637 101.846895 
L 159.674908 102.596005 
L 161.06918 103.327468 
L 162.463452 104.057219 
L 163.857724 104.732158 
L 165.251996 105.36301 
L 166.646267 106.090219 
L 168.040539 106.537024 
L 169.434811 107.124011 
L 170.829083 107.597563 
L 172.223355 108.063131 
L 173.617626 108.414038 
L 175.011898 108.738757 
L 176.40617 109.018864 
L 177.800442 109.194449 
L 179.194714 109.571892 
L 180.588985 109.68737 
L 181.983257 110.037769 
L 183.377529 110.213741 
L 184.771801 110.399145 
L 186.166073 110.607822 
L 187.560344 110.719254 
L 188.954616 110.851125 
L 190.348888 111.064322 
L 191.74316 111.223062 
L 193.137432 111.22999 
L 194.531703 111.35109 
L 195.925975 111.51667 
L 197.320247 111.512533 
L 198.714519 111.571903 
L 200.108791 111.564984 
L 201.503062 111.673848 
L 202.897334 111.772177 
L 204.291606 111.801222 
L 205.685878 111.890652 
L 207.08015 111.998825 
L 208.474421 112.030574 
L 209.868693 111.937246 
L 211.262965 111.942079 
L 212.657237 111.995104 
L 214.051509 111.963784 
L 215.44578 111.981624 
L 216.840052 111.971331 
L 218.234324 111.927793 
L 219.628596 111.912335 
L 221.022868 112.067146 
L 222.417139 111.948063 
L 223.811411 112.005618 
L 225.205683 112.060337 
L 226.599955 112.11424 
L 227.994227 112.146918 
L 229.388498 112.240348 
L 230.78277 112.254044 
L 232.177042 112.294216 
L 233.571314 112.319734 
L 234.965586 112.32536 
L 236.359857 112.243609 
L 237.754129 112.339511 
L 239.148401 112.332915 
L 240.542673 112.365372 
L 241.936945 112.281563 
L 243.331216 112.301094 
L 244.725488 112.245606 
L 246.11976 112.18746 
L 247.514032 112.25078 
L 248.908304 104.295325 
L 250.302575 100.384606 
L 251.696847 98.109354 
L 253.091119 97.384451 
L 254.485391 97.702556 
L 255.879663 98.586693 
L 257.273934 99.724953 
L 258.668206 100.966949 
L 260.062478 102.16254 
L 261.45675 103.267132 
L 262.851022 104.222686 
L 264.245293 105.104992 
L 265.639565 105.891341 
L 267.033837 106.581471 
L 268.428109 107.083104 
L 269.822381 107.719822 
L 271.216652 108.15963 
L 272.610924 108.567987 
L 274.005196 108.976534 
L 275.399468 109.292021 
L 276.79374 109.621105 
L 278.188011 109.831235 
L 279.582283 110.162984 
L 280.976555 110.437645 
L 282.370827 110.561931 
L 283.765099 110.745849 
L 285.15937 110.771442 
L 286.553642 110.985286 
L 287.947914 111.126695 
L 289.342186 111.320336 
L 290.736458 111.467382 
L 292.130729 111.646442 
L 293.525001 111.823311 
L 294.919273 111.861325 
L 296.313545 111.867134 
L 297.707817 112.0134 
L 299.102088 112.065071 
L 300.49636 112.147312 
L 301.890632 112.069258 
L 303.284904 112.134594 
L 304.679176 112.085492 
L 306.073447 112.237238 
L 307.467719 112.210075 
L 308.861991 112.396905 
L 310.256263 112.395176 
L 311.650535 112.372867 
L 313.044806 112.375038 
L 314.439078 112.386165 
L 315.83335 112.494363 
L 317.227622 112.525868 
L 318.621894 112.52523 
L 320.016165 112.542969 
L 321.410437 112.459918 
L 322.804709 112.469203 
L 324.198981 112.645971 
L 325.593253 112.596017 
L 326.987524 112.70468 
L 328.381796 112.645632 
L 329.776068 112.662625 
L 331.17034 112.703289 
L 332.564612 112.651169 
L 333.958883 112.661747 
L 335.353155 112.603341 
L 336.747427 112.660504 
L 338.141699 112.5644 
L 339.535971 112.676421 
L 340.930242 112.619223 
L 342.324514 112.600764 
L 343.718786 112.770288 
L 345.113058 112.639384 
L 346.50733 112.607906 
L 347.901601 112.67193 
L 349.295873 112.606745 
L 350.690145 112.66788 
L 352.084417 112.709339 
L 353.478689 112.618305 
L 354.87296 103.991108 
L 356.267232 99.921652 
L 357.661504 97.896235 
L 359.055776 97.141552 
L 360.450048 97.122005 
L 361.844319 97.539157 
L 363.238591 98.153419 
L 364.632863 98.914606 
L 366.027135 99.692184 
L 367.421407 100.243338 
L 368.815678 101.171956 
L 370.20995 101.874129 
L 371.604222 102.626267 
L 372.998494 103.326158 
L 374.392766 104.105904 
L 375.787037 104.713021 
L 377.181309 105.455739 
L 378.575581 106.084999 
L 379.969853 106.628288 
L 381.364125 107.245914 
L 382.758396 107.60539 
L 384.152668 108.046718 
L 385.54694 108.433837 
L 386.941212 108.802364 
L 388.335484 109.241729 
L 389.729755 109.47284 
L 391.124027 109.691514 
L 392.518299 109.953923 
L 393.912571 110.169346 
L 395.306843 110.40039 
L 396.701114 110.535946 
L 398.095386 110.682464 
L 399.489658 110.747579 
L 400.88393 110.877284 
L 402.278202 111.037124 
L 403.672473 111.143361 
L 405.066745 111.352097 
L 406.461017 111.480358 
L 407.855289 111.586494 
L 409.249561 111.700069 
L 410.643832 111.82428 
L 412.038104 111.799528 
L 413.432376 111.874627 
L 414.826648 111.810533 
L 416.22092 111.649311 
L 417.615191 111.741355 
L 419.009463 111.796364 
L 420.403735 111.784433 
L 421.798007 111.93308 
L 423.192279 111.901636 
L 424.58655 111.958997 
L 425.980822 111.901456 
L 427.375094 111.989591 
L 428.769366 111.973179 
L 430.163638 112.062175 
L 431.557909 112.088449 
L 432.952181 112.154791 
L 434.346453 112.027496 
L 435.740725 112.087697 
L 437.134997 112.061209 
L 438.529268 112.062702 
L 439.92354 112.053221 
L 441.317812 111.996442 
L 442.712084 112.018252 
L 444.106356 112.014612 
L 445.500627 112.057501 
L 446.894899 112.078817 
L 448.289171 112.167048 
L 449.683443 112.13372 
L 451.077715 112.113867 
L 452.471986 112.126412 
L 453.866258 112.05517 
L 455.26053 112.155798 
L 456.654802 112.128977 
L 458.049074 112.196577 
L 459.443345 112.249993 
L 460.837617 104.29 
L 462.231889 100.34571 
L 463.626161 98.219755 
L 465.020433 97.466071 
L 466.414704 97.768514 
L 467.808976 98.606595 
L 469.203248 99.768349 
L 470.59752 101.019086 
L 471.991792 102.240299 
L 473.386063 103.331405 
L 474.780335 104.312701 
L 476.174607 105.244254 
L 477.568879 105.94614 
L 478.963151 106.604734 
L 480.357422 107.154251 
L 481.751694 107.680402 
L 483.145966 108.180553 
L 484.540238 108.530114 
L 485.93451 108.97034 
L 487.328781 109.404506 
L 488.723053 109.641975 
L 490.117325 109.954443 
L 491.511597 110.256281 
L 492.905869 110.450023 
L 494.30014 110.717906 
L 495.694412 110.931722 
L 497.088684 111.11452 
L 498.482956 111.20494 
L 499.877228 111.343666 
L 501.271499 111.480824 
L 502.665771 111.583866 
L 504.060043 111.696405 
L 505.454315 111.761609 
L 506.848587 111.889812 
L 508.242858 111.977556 
L 509.63713 111.922277 
L 511.031402 111.955498 
L 512.425674 112.187652 
L 513.819946 112.163152 
L 515.214217 112.265495 
L 516.608489 112.327756 
L 518.002761 112.430142 
L 519.397033 112.401613 
L 520.791305 112.397474 
L 522.185576 112.407543 
L 523.579848 112.492181 
L 524.97412 112.557304 
L 526.368392 112.51055 
L 527.762664 112.577534 
L 529.156935 112.655721 
L 530.551207 112.562744 
L 531.945479 112.538735 
L 533.339751 112.592951 
L 534.734023 112.537977 
L 536.128294 112.541121 
L 537.522566 112.473216 
L 538.916838 112.498051 
L 540.31111 112.496726 
L 541.705382 112.535219 
L 543.099653 112.690408 
L 544.493925 112.693245 
L 545.888197 112.722037 
L 547.282469 112.674049 
L 548.676741 112.767929 
L 550.071012 112.796426 
L 551.465284 112.795047 
L 552.859556 112.805075 
L 554.253828 112.772488 
L 555.6481 112.896633 
L 557.042371 112.771359 
L 558.436643 112.795337 
L 559.830915 112.702191 
L 561.225187 112.739828 
L 562.619459 112.718705 
L 564.01373 112.736812 
L 565.408002 112.75117 
L 565.408002 109.47849 
L 565.408002 109.47849 
L 564.01373 109.458049 
L 562.619459 109.427926 
L 561.225187 109.443784 
L 559.830915 109.430399 
L 558.436643 109.519215 
L 557.042371 109.524041 
L 555.6481 109.609106 
L 554.253828 109.487981 
L 552.859556 109.521484 
L 551.465284 109.508776 
L 550.071012 109.502446 
L 548.676741 109.454694 
L 547.282469 109.367624 
L 545.888197 109.40218 
L 544.493925 109.381674 
L 543.099653 109.383211 
L 541.705382 109.23167 
L 540.31111 109.194456 
L 538.916838 109.208496 
L 537.522566 109.178831 
L 536.128294 109.223374 
L 534.734023 109.225565 
L 533.339751 109.279008 
L 531.945479 109.224847 
L 530.551207 109.267394 
L 529.156935 109.364893 
L 527.762664 109.284468 
L 526.368392 109.247296 
L 524.97412 109.277111 
L 523.579848 109.201516 
L 522.185576 109.138018 
L 520.791305 109.13525 
L 519.397033 109.119705 
L 518.002761 109.137262 
L 516.608489 109.049173 
L 515.214217 108.995943 
L 513.819946 108.924555 
L 512.425674 108.913862 
L 511.031402 108.706937 
L 509.63713 108.712831 
L 508.242858 108.758718 
L 506.848587 108.674107 
L 505.454315 108.555389 
L 504.060043 108.479767 
L 502.665771 108.367939 
L 501.271499 108.256071 
L 499.877228 108.122511 
L 498.482956 108.002932 
L 497.088684 107.916961 
L 495.694412 107.71951 
L 494.30014 107.488084 
L 492.905869 107.218244 
L 491.511597 107.00953 
L 490.117325 106.679222 
L 488.723053 106.335421 
L 487.328781 106.035515 
L 485.93451 105.557356 
L 484.540238 105.077406 
L 483.145966 104.647626 
L 481.751694 104.089871 
L 480.357422 103.504601 
L 478.963151 102.918241 
L 477.568879 102.232219 
L 476.174607 101.500727 
L 474.780335 100.561952 
L 473.386063 99.608602 
L 471.991792 98.513125 
L 470.59752 97.322714 
L 469.203248 96.121719 
L 467.808976 95.002359 
L 466.414704 94.18637 
L 465.020433 93.944026 
L 463.626161 94.793238 
L 462.231889 97.010809 
L 460.837617 101.110051 
L 459.443345 109.751993 
L 458.049074 109.723223 
L 456.654802 109.661072 
L 455.26053 109.675962 
L 453.866258 109.598219 
L 452.471986 109.665481 
L 451.077715 109.665139 
L 449.683443 109.70207 
L 448.289171 109.729955 
L 446.894899 109.644908 
L 445.500627 109.598327 
L 444.106356 109.56538 
L 442.712084 109.544821 
L 441.317812 109.533489 
L 439.92354 109.590123 
L 438.529268 109.62494 
L 437.134997 109.620951 
L 435.740725 109.637718 
L 434.346453 109.604231 
L 432.952181 109.759569 
L 431.557909 109.701964 
L 430.163638 109.690709 
L 428.769366 109.586424 
L 427.375094 109.56962 
L 425.980822 109.501195 
L 424.58655 109.582237 
L 423.192279 109.533763 
L 421.798007 109.550456 
L 420.403735 109.421625 
L 419.009463 109.406334 
L 417.615191 109.343027 
L 416.22092 109.286745 
L 414.826648 109.476948 
L 413.432376 109.572243 
L 412.038104 109.509514 
L 410.643832 109.537276 
L 409.249561 109.418061 
L 407.855289 109.317673 
L 406.461017 109.229406 
L 405.066745 109.093502 
L 403.672473 108.905806 
L 402.278202 108.79538 
L 400.88393 108.631096 
L 399.489658 108.521618 
L 398.095386 108.462475 
L 396.701114 108.335885 
L 395.306843 108.202374 
L 393.912571 107.977601 
L 392.518299 107.764596 
L 391.124027 107.527991 
L 389.729755 107.315942 
L 388.335484 107.076635 
L 386.941212 106.632441 
L 385.54694 106.250574 
L 384.152668 105.841085 
L 382.758396 105.408524 
L 381.364125 105.026291 
L 379.969853 104.40416 
L 378.575581 103.846643 
L 377.181309 103.203624 
L 375.787037 102.459694 
L 374.392766 101.827435 
L 372.998494 101.039194 
L 371.604222 100.319621 
L 370.20995 99.537575 
L 368.815678 98.788573 
L 367.421407 97.817496 
L 366.027135 97.180341 
L 364.632863 96.337889 
L 363.238591 95.515018 
L 361.844319 94.854229 
L 360.450048 94.403431 
L 359.055776 94.374675 
L 357.661504 95.116828 
L 356.267232 97.107262 
L 354.87296 100.927982 
L 353.478689 109.340163 
L 352.084417 109.434706 
L 350.690145 109.386309 
L 349.295873 109.337896 
L 347.901601 109.378383 
L 346.50733 109.303367 
L 345.113058 109.36654 
L 343.718786 109.457526 
L 342.324514 109.302142 
L 340.930242 109.327438 
L 339.535971 109.383852 
L 338.141699 109.307913 
L 336.747427 109.399713 
L 335.353155 109.34416 
L 333.958883 109.376291 
L 332.564612 109.381099 
L 331.17034 109.409988 
L 329.776068 109.384252 
L 328.381796 109.351637 
L 326.987524 109.407383 
L 325.593253 109.322699 
L 324.198981 109.350126 
L 322.804709 109.172923 
L 321.410437 109.180992 
L 320.016165 109.270657 
L 318.621894 109.271015 
L 317.227622 109.252455 
L 315.83335 109.205841 
L 314.439078 109.095162 
L 313.044806 109.08403 
L 311.650535 109.095423 
L 310.256263 109.108032 
L 308.861991 109.095532 
L 307.467719 108.923154 
L 306.073447 108.939222 
L 304.679176 108.811104 
L 303.284904 108.869278 
L 301.890632 108.835079 
L 300.49636 108.91817 
L 299.102088 108.838017 
L 297.707817 108.768861 
L 296.313545 108.651466 
L 294.919273 108.650695 
L 293.525001 108.623118 
L 292.130729 108.458434 
L 290.736458 108.273094 
L 289.342186 108.108313 
L 287.947914 107.932917 
L 286.553642 107.784593 
L 285.15937 107.595959 
L 283.765099 107.540853 
L 282.370827 107.347024 
L 280.976555 107.211922 
L 279.582283 106.907282 
L 278.188011 106.555541 
L 276.79374 106.290674 
L 275.399468 105.922124 
L 274.005196 105.559948 
L 272.610924 105.104701 
L 271.216652 104.633204 
L 269.822381 104.112273 
L 268.428109 103.435739 
L 267.033837 102.891077 
L 265.639565 102.162239 
L 264.245293 101.357366 
L 262.851022 100.474256 
L 261.45675 99.51603 
L 260.062478 98.442031 
L 258.668206 97.259539 
L 257.273934 96.069585 
L 255.879663 94.953208 
L 254.485391 94.081646 
L 253.091119 93.843503 
L 251.696847 94.702065 
L 250.302575 97.056492 
L 248.908304 101.107583 
L 247.514032 109.784054 
L 246.11976 109.727906 
L 244.725488 109.77901 
L 243.331216 109.821682 
L 241.936945 109.829301 
L 240.542673 109.883544 
L 239.148401 109.866178 
L 237.754129 109.867706 
L 236.359857 109.801841 
L 234.965586 109.867562 
L 233.571314 109.862708 
L 232.177042 109.838806 
L 230.78277 109.798038 
L 229.388498 109.794704 
L 227.994227 109.72412 
L 226.599955 109.703089 
L 225.205683 109.62558 
L 223.811411 109.551306 
L 222.417139 109.541983 
L 221.022868 109.640054 
L 219.628596 109.502854 
L 218.234324 109.512229 
L 216.840052 109.563555 
L 215.44578 109.561899 
L 214.051509 109.566614 
L 212.657237 109.596759 
L 211.262965 109.539237 
L 209.868693 109.552723 
L 208.474421 109.652226 
L 207.08015 109.631303 
L 205.685878 109.550553 
L 204.291606 109.474498 
L 202.897334 109.426559 
L 201.503062 109.332975 
L 200.108791 109.23712 
L 198.714519 109.273714 
L 197.320247 109.238494 
L 195.925975 109.234949 
L 194.531703 109.087683 
L 193.137432 108.982232 
L 191.74316 108.970412 
L 190.348888 108.813322 
L 188.954616 108.622994 
L 187.560344 108.497388 
L 186.166073 108.398904 
L 184.771801 108.187261 
L 183.377529 108.020113 
L 181.983257 107.837188 
L 180.588985 107.524198 
L 179.194714 107.392904 
L 177.800442 107.039435 
L 176.40617 106.855826 
L 175.011898 106.562469 
L 173.617626 106.26359 
L 172.223355 105.898621 
L 170.829083 105.415477 
L 169.434811 104.93195 
L 168.040539 104.339391 
L 166.646267 103.862575 
L 165.251996 103.12611 
L 163.857724 102.489189 
L 162.463452 101.793968 
L 161.06918 101.05337 
L 159.674908 100.309547 
L 158.280637 99.520542 
L 156.886365 98.783724 
L 155.492093 97.889227 
L 154.097821 97.112398 
L 152.703549 96.280989 
L 151.309278 95.491208 
L 149.915006 94.793477 
L 148.520734 94.303647 
L 147.126462 94.225461 
L 145.73219 94.950387 
L 144.337919 96.99263 
L 142.943647 100.849446 
L 141.549375 109.289725 
L 140.155103 109.277473 
L 138.760831 109.282969 
L 137.36656 109.194722 
L 135.972288 109.312016 
L 134.578016 109.279657 
L 133.183744 109.304986 
L 131.789472 109.448751 
L 130.395201 109.400355 
L 129.000929 109.413596 
L 127.606657 109.436182 
L 126.212385 109.383832 
L 124.818113 109.251549 
L 123.423842 109.238914 
L 122.02957 109.215726 
L 120.635298 109.290108 
L 119.241026 109.369835 
L 117.846754 109.389265 
L 116.452483 109.345977 
L 115.058211 109.307732 
L 113.663939 109.366701 
L 112.269667 109.24268 
L 110.875395 109.272357 
L 109.481124 109.286375 
L 108.086852 109.17831 
L 106.69258 109.186723 
L 105.298308 109.241457 
L 103.904036 109.211958 
L 102.509765 109.150244 
L 101.115493 109.199047 
L 99.721221 109.130929 
L 98.326949 109.149186 
L 96.932677 109.137155 
L 95.538406 109.045376 
L 94.144134 109.058421 
L 92.749862 108.980658 
L 91.35559 108.918825 
L 89.961318 108.895929 
L 88.567047 108.8271 
L 87.172775 108.773209 
L 85.778503 108.727932 
L 84.384231 108.534649 
L 82.989959 108.57018 
L 81.595688 108.459956 
L 80.201416 108.471031 
L 78.807144 108.286961 
L 77.412872 108.178356 
L 76.0186 107.979458 
L 74.624329 107.758678 
L 73.230057 107.788475 
L 71.835785 107.787024 
L 70.441513 107.599432 
L 69.047241 107.358266 
L 67.65297 107.201269 
L 66.258698 106.947349 
L 64.864426 106.655823 
L 63.470154 106.363071 
L 62.075882 105.862546 
L 60.681611 105.363309 
L 59.287339 104.76857 
L 57.893067 104.151809 
L 56.498795 103.255587 
L 55.104523 102.216602 
L 53.710252 100.995822 
L 52.31598 99.473914 
L 50.921708 97.701115 
L 49.527436 95.400194 
L 48.133164 92.334892 
L 46.738893 88.329977 
L 45.344621 83.008817 
L 43.950349 75.842706 
L 42.556077 66.324974 
L 41.161805 53.658426 
L 39.767534 36.86429 
L 38.373262 14.343631 
L 36.97899 -19.488113 
z
" style="fill:#ababab;fill-opacity:0.2;stroke:#ababab;stroke-opacity:0.2;"/>
   </g>
   <g id="matplotlib.axis_1">
    <g id="xtick_1">
     <g id="line2d_1">
      <defs>
       <path d="M 0 0 
L 0 3.5 
" id="m8f296679fd" style="stroke:#000000;stroke-width:0.8;"/>
      </defs>
      <g>
       <use style="stroke:#000000;stroke-width:0.8;" x="36.97899" xlink:href="#m8f296679fd" y="126.88726"/>
      </g>
     </g>
     <g id="text_1">
      <!-- 0 -->
      <g transform="translate(34.754615 139.61351)scale(0.08 -0.08)">
       <defs>
        <path d="M 4.15625 35.296875 
Q 4.15625 48 6.765625 55.734375 
Q 9.375 63.484375 14.515625 67.671875 
Q 19.671875 71.875 27.484375 71.875 
Q 33.25 71.875 37.59375 69.546875 
Q 41.9375 67.234375 44.765625 62.859375 
Q 47.609375 58.5 49.21875 52.21875 
Q 50.828125 45.953125 50.828125 35.296875 
Q 50.828125 22.703125 48.234375 14.96875 
Q 45.65625 7.234375 40.5 3 
Q 35.359375 -1.21875 27.484375 -1.21875 
Q 17.140625 -1.21875 11.234375 6.203125 
Q 4.15625 15.140625 4.15625 35.296875 
z
M 13.1875 35.296875 
Q 13.1875 17.671875 17.3125 11.828125 
Q 21.4375 6 27.484375 6 
Q 33.546875 6 37.671875 11.859375 
Q 41.796875 17.71875 41.796875 35.296875 
Q 41.796875 52.984375 37.671875 58.78125 
Q 33.546875 64.59375 27.390625 64.59375 
Q 21.34375 64.59375 17.71875 59.46875 
Q 13.1875 52.9375 13.1875 35.296875 
z
" id="ArialMT-48"/>
       </defs>
       <use xlink:href="#ArialMT-48"/>
      </g>
     </g>
    </g>
    <g id="xtick_2">
     <g id="line2d_2">
      <g>
       <use style="stroke:#000000;stroke-width:0.8;" x="64.864426" xlink:href="#m8f296679fd" y="126.88726"/>
      </g>
     </g>
     <g id="text_2">
      <!-- 20 -->
      <g transform="translate(60.415676 139.61351)scale(0.08 -0.08)">
       <defs>
        <path d="M 50.34375 8.453125 
L 50.34375 0 
L 3.03125 0 
Q 2.9375 3.171875 4.046875 6.109375 
Q 5.859375 10.9375 9.828125 15.625 
Q 13.8125 20.3125 21.34375 26.46875 
Q 33.015625 36.03125 37.109375 41.625 
Q 41.21875 47.21875 41.21875 52.203125 
Q 41.21875 57.421875 37.46875 61 
Q 33.734375 64.59375 27.734375 64.59375 
Q 21.390625 64.59375 17.578125 60.78125 
Q 13.765625 56.984375 13.71875 50.25 
L 4.6875 51.171875 
Q 5.609375 61.28125 11.65625 66.578125 
Q 17.71875 71.875 27.9375 71.875 
Q 38.234375 71.875 44.234375 66.15625 
Q 50.25 60.453125 50.25 52 
Q 50.25 47.703125 48.484375 43.546875 
Q 46.734375 39.40625 42.65625 34.8125 
Q 38.578125 30.21875 29.109375 22.21875 
Q 21.1875 15.578125 18.9375 13.203125 
Q 16.703125 10.84375 15.234375 8.453125 
z
" id="ArialMT-50"/>
       </defs>
       <use xlink:href="#ArialMT-50"/>
       <use x="55.615234" xlink:href="#ArialMT-48"/>
      </g>
     </g>
    </g>
    <g id="xtick_3">
     <g id="line2d_3">
      <g>
       <use style="stroke:#000000;stroke-width:0.8;" x="92.749862" xlink:href="#m8f296679fd" y="126.88726"/>
      </g>
     </g>
     <g id="text_3">
      <!-- 40 -->
      <g transform="translate(88.301112 139.61351)scale(0.08 -0.08)">
       <defs>
        <path d="M 32.328125 0 
L 32.328125 17.140625 
L 1.265625 17.140625 
L 1.265625 25.203125 
L 33.9375 71.578125 
L 41.109375 71.578125 
L 41.109375 25.203125 
L 50.78125 25.203125 
L 50.78125 17.140625 
L 41.109375 17.140625 
L 41.109375 0 
z
M 32.328125 25.203125 
L 32.328125 57.46875 
L 9.90625 25.203125 
z
" id="ArialMT-52"/>
       </defs>
       <use xlink:href="#ArialMT-52"/>
       <use x="55.615234" xlink:href="#ArialMT-48"/>
      </g>
     </g>
    </g>
    <g id="xtick_4">
     <g id="line2d_4">
      <g>
       <use style="stroke:#000000;stroke-width:0.8;" x="120.635298" xlink:href="#m8f296679fd" y="126.88726"/>
      </g>
     </g>
     <g id="text_4">
      <!-- 60 -->
      <g transform="translate(116.186548 139.61351)scale(0.08 -0.08)">
       <defs>
        <path d="M 49.75 54.046875 
L 41.015625 53.375 
Q 39.84375 58.546875 37.703125 60.890625 
Q 34.125 64.65625 28.90625 64.65625 
Q 24.703125 64.65625 21.53125 62.3125 
Q 17.390625 59.28125 14.984375 53.46875 
Q 12.59375 47.65625 12.5 36.921875 
Q 15.671875 41.75 20.265625 44.09375 
Q 24.859375 46.4375 29.890625 46.4375 
Q 38.671875 46.4375 44.84375 39.96875 
Q 51.03125 33.5 51.03125 23.25 
Q 51.03125 16.5 48.125 10.71875 
Q 45.21875 4.9375 40.140625 1.859375 
Q 35.0625 -1.21875 28.609375 -1.21875 
Q 17.625 -1.21875 10.6875 6.859375 
Q 3.765625 14.9375 3.765625 33.5 
Q 3.765625 54.25 11.421875 63.671875 
Q 18.109375 71.875 29.4375 71.875 
Q 37.890625 71.875 43.28125 67.140625 
Q 48.6875 62.40625 49.75 54.046875 
z
M 13.875 23.1875 
Q 13.875 18.65625 15.796875 14.5 
Q 17.71875 10.359375 21.1875 8.171875 
Q 24.65625 6 28.46875 6 
Q 34.03125 6 38.03125 10.484375 
Q 42.046875 14.984375 42.046875 22.703125 
Q 42.046875 30.125 38.078125 34.390625 
Q 34.125 38.671875 28.125 38.671875 
Q 22.171875 38.671875 18.015625 34.390625 
Q 13.875 30.125 13.875 23.1875 
z
" id="ArialMT-54"/>
       </defs>
       <use xlink:href="#ArialMT-54"/>
       <use x="55.615234" xlink:href="#ArialMT-48"/>
      </g>
     </g>
    </g>
    <g id="xtick_5">
     <g id="line2d_5">
      <g>
       <use style="stroke:#000000;stroke-width:0.8;" x="148.520734" xlink:href="#m8f296679fd" y="126.88726"/>
      </g>
     </g>
     <g id="text_5">
      <!-- 80 -->
      <g transform="translate(144.071984 139.61351)scale(0.08 -0.08)">
       <defs>
        <path d="M 17.671875 38.8125 
Q 12.203125 40.828125 9.5625 44.53125 
Q 6.9375 48.25 6.9375 53.421875 
Q 6.9375 61.234375 12.546875 66.546875 
Q 18.171875 71.875 27.484375 71.875 
Q 36.859375 71.875 42.578125 66.421875 
Q 48.296875 60.984375 48.296875 53.171875 
Q 48.296875 48.1875 45.671875 44.5 
Q 43.0625 40.828125 37.75 38.8125 
Q 44.34375 36.671875 47.78125 31.875 
Q 51.21875 27.09375 51.21875 20.453125 
Q 51.21875 11.28125 44.71875 5.03125 
Q 38.234375 -1.21875 27.640625 -1.21875 
Q 17.046875 -1.21875 10.546875 5.046875 
Q 4.046875 11.328125 4.046875 20.703125 
Q 4.046875 27.6875 7.59375 32.390625 
Q 11.140625 37.109375 17.671875 38.8125 
z
M 15.921875 53.71875 
Q 15.921875 48.640625 19.1875 45.40625 
Q 22.46875 42.1875 27.6875 42.1875 
Q 32.765625 42.1875 36.015625 45.375 
Q 39.265625 48.578125 39.265625 53.21875 
Q 39.265625 58.0625 35.90625 61.359375 
Q 32.5625 64.65625 27.59375 64.65625 
Q 22.5625 64.65625 19.234375 61.421875 
Q 15.921875 58.203125 15.921875 53.71875 
z
M 13.09375 20.65625 
Q 13.09375 16.890625 14.875 13.375 
Q 16.65625 9.859375 20.171875 7.921875 
Q 23.6875 6 27.734375 6 
Q 34.03125 6 38.125 10.046875 
Q 42.234375 14.109375 42.234375 20.359375 
Q 42.234375 26.703125 38.015625 30.859375 
Q 33.796875 35.015625 27.4375 35.015625 
Q 21.234375 35.015625 17.15625 30.90625 
Q 13.09375 26.8125 13.09375 20.65625 
z
" id="ArialMT-56"/>
       </defs>
       <use xlink:href="#ArialMT-56"/>
       <use x="55.615234" xlink:href="#ArialMT-48"/>
      </g>
     </g>
    </g>
    <g id="xtick_6">
     <g id="line2d_6">
      <g>
       <use style="stroke:#000000;stroke-width:0.8;" x="176.40617" xlink:href="#m8f296679fd" y="126.88726"/>
      </g>
     </g>
     <g id="text_6">
      <!-- 100 -->
      <g transform="translate(169.733045 139.61351)scale(0.08 -0.08)">
       <defs>
        <path d="M 37.25 0 
L 28.46875 0 
L 28.46875 56 
Q 25.296875 52.984375 20.140625 49.953125 
Q 14.984375 46.921875 10.890625 45.40625 
L 10.890625 53.90625 
Q 18.265625 57.375 23.78125 62.296875 
Q 29.296875 67.234375 31.59375 71.875 
L 37.25 71.875 
z
" id="ArialMT-49"/>
       </defs>
       <use xlink:href="#ArialMT-49"/>
       <use x="55.615234" xlink:href="#ArialMT-48"/>
       <use x="111.230469" xlink:href="#ArialMT-48"/>
      </g>
     </g>
    </g>
    <g id="xtick_7">
     <g id="line2d_7">
      <g>
       <use style="stroke:#000000;stroke-width:0.8;" x="204.291606" xlink:href="#m8f296679fd" y="126.88726"/>
      </g>
     </g>
     <g id="text_7">
      <!-- 120 -->
      <g transform="translate(197.618481 139.61351)scale(0.08 -0.08)">
       <use xlink:href="#ArialMT-49"/>
       <use x="55.615234" xlink:href="#ArialMT-50"/>
       <use x="111.230469" xlink:href="#ArialMT-48"/>
      </g>
     </g>
    </g>
    <g id="xtick_8">
     <g id="line2d_8">
      <g>
       <use style="stroke:#000000;stroke-width:0.8;" x="232.177042" xlink:href="#m8f296679fd" y="126.88726"/>
      </g>
     </g>
     <g id="text_8">
      <!-- 140 -->
      <g transform="translate(225.503917 139.61351)scale(0.08 -0.08)">
       <use xlink:href="#ArialMT-49"/>
       <use x="55.615234" xlink:href="#ArialMT-52"/>
       <use x="111.230469" xlink:href="#ArialMT-48"/>
      </g>
     </g>
    </g>
    <g id="text_9">
     <!-- Time step -->
     <g transform="translate(124.14 150.92976)scale(0.08 -0.08)">
      <defs>
       <path d="M 25.921875 0 
L 25.921875 63.140625 
L 2.34375 63.140625 
L 2.34375 71.578125 
L 59.078125 71.578125 
L 59.078125 63.140625 
L 35.40625 63.140625 
L 35.40625 0 
z
" id="ArialMT-84"/>
       <path d="M 6.640625 61.46875 
L 6.640625 71.578125 
L 15.4375 71.578125 
L 15.4375 61.46875 
z
M 6.640625 0 
L 6.640625 51.859375 
L 15.4375 51.859375 
L 15.4375 0 
z
" id="ArialMT-105"/>
       <path d="M 6.59375 0 
L 6.59375 51.859375 
L 14.453125 51.859375 
L 14.453125 44.578125 
Q 16.890625 48.390625 20.9375 50.703125 
Q 25 53.03125 30.171875 53.03125 
Q 35.9375 53.03125 39.625 50.640625 
Q 43.3125 48.25 44.828125 43.953125 
Q 50.984375 53.03125 60.84375 53.03125 
Q 68.5625 53.03125 72.703125 48.75 
Q 76.859375 44.484375 76.859375 35.59375 
L 76.859375 0 
L 68.109375 0 
L 68.109375 32.671875 
Q 68.109375 37.9375 67.25 40.25 
Q 66.40625 42.578125 64.15625 43.984375 
Q 61.921875 45.40625 58.890625 45.40625 
Q 53.421875 45.40625 49.796875 41.765625 
Q 46.1875 38.140625 46.1875 30.125 
L 46.1875 0 
L 37.40625 0 
L 37.40625 33.6875 
Q 37.40625 39.546875 35.25 42.46875 
Q 33.109375 45.40625 28.21875 45.40625 
Q 24.515625 45.40625 21.359375 43.453125 
Q 18.21875 41.5 16.796875 37.734375 
Q 15.375 33.984375 15.375 26.90625 
L 15.375 0 
z
" id="ArialMT-109"/>
       <path d="M 42.09375 16.703125 
L 51.171875 15.578125 
Q 49.03125 7.625 43.21875 3.21875 
Q 37.40625 -1.171875 28.375 -1.171875 
Q 17 -1.171875 10.328125 5.828125 
Q 3.65625 12.84375 3.65625 25.484375 
Q 3.65625 38.578125 10.390625 45.796875 
Q 17.140625 53.03125 27.875 53.03125 
Q 38.28125 53.03125 44.875 45.953125 
Q 51.46875 38.875 51.46875 26.03125 
Q 51.46875 25.25 51.421875 23.6875 
L 12.75 23.6875 
Q 13.234375 15.140625 17.578125 10.59375 
Q 21.921875 6.0625 28.421875 6.0625 
Q 33.25 6.0625 36.671875 8.59375 
Q 40.09375 11.140625 42.09375 16.703125 
z
M 13.234375 30.90625 
L 42.1875 30.90625 
Q 41.609375 37.453125 38.875 40.71875 
Q 34.671875 45.796875 27.984375 45.796875 
Q 21.921875 45.796875 17.796875 41.75 
Q 13.671875 37.703125 13.234375 30.90625 
z
" id="ArialMT-101"/>
       <path id="ArialMT-32"/>
       <path d="M 3.078125 15.484375 
L 11.765625 16.84375 
Q 12.5 11.625 15.84375 8.84375 
Q 19.1875 6.0625 25.203125 6.0625 
Q 31.25 6.0625 34.171875 8.515625 
Q 37.109375 10.984375 37.109375 14.3125 
Q 37.109375 17.28125 34.515625 19 
Q 32.71875 20.171875 25.53125 21.96875 
Q 15.875 24.421875 12.140625 26.203125 
Q 8.40625 27.984375 6.46875 31.125 
Q 4.546875 34.28125 4.546875 38.09375 
Q 4.546875 41.546875 6.125 44.5 
Q 7.71875 47.46875 10.453125 49.421875 
Q 12.5 50.921875 16.03125 51.96875 
Q 19.578125 53.03125 23.640625 53.03125 
Q 29.734375 53.03125 34.34375 51.265625 
Q 38.96875 49.515625 41.15625 46.5 
Q 43.359375 43.5 44.1875 38.484375 
L 35.59375 37.3125 
Q 35.015625 41.3125 32.203125 43.546875 
Q 29.390625 45.796875 24.265625 45.796875 
Q 18.21875 45.796875 15.625 43.796875 
Q 13.03125 41.796875 13.03125 39.109375 
Q 13.03125 37.40625 14.109375 36.03125 
Q 15.1875 34.625 17.484375 33.6875 
Q 18.796875 33.203125 25.25 31.453125 
Q 34.578125 28.953125 38.25 27.359375 
Q 41.9375 25.78125 44.03125 22.75 
Q 46.140625 19.734375 46.140625 15.234375 
Q 46.140625 10.84375 43.578125 6.953125 
Q 41.015625 3.078125 36.171875 0.953125 
Q 31.34375 -1.171875 25.25 -1.171875 
Q 15.140625 -1.171875 9.84375 3.03125 
Q 4.546875 7.234375 3.078125 15.484375 
z
" id="ArialMT-115"/>
       <path d="M 25.78125 7.859375 
L 27.046875 0.09375 
Q 23.34375 -0.6875 20.40625 -0.6875 
Q 15.625 -0.6875 12.984375 0.828125 
Q 10.359375 2.34375 9.28125 4.8125 
Q 8.203125 7.28125 8.203125 15.1875 
L 8.203125 45.015625 
L 1.765625 45.015625 
L 1.765625 51.859375 
L 8.203125 51.859375 
L 8.203125 64.703125 
L 16.9375 69.96875 
L 16.9375 51.859375 
L 25.78125 51.859375 
L 25.78125 45.015625 
L 16.9375 45.015625 
L 16.9375 14.703125 
Q 16.9375 10.9375 17.40625 9.859375 
Q 17.875 8.796875 18.921875 8.15625 
Q 19.96875 7.515625 21.921875 7.515625 
Q 23.390625 7.515625 25.78125 7.859375 
z
" id="ArialMT-116"/>
       <path d="M 6.59375 -19.875 
L 6.59375 51.859375 
L 14.59375 51.859375 
L 14.59375 45.125 
Q 17.4375 49.078125 21 51.046875 
Q 24.5625 53.03125 29.640625 53.03125 
Q 36.28125 53.03125 41.359375 49.609375 
Q 46.4375 46.1875 49.015625 39.953125 
Q 51.609375 33.734375 51.609375 26.3125 
Q 51.609375 18.359375 48.75 11.984375 
Q 45.90625 5.609375 40.453125 2.21875 
Q 35.015625 -1.171875 29 -1.171875 
Q 24.609375 -1.171875 21.109375 0.6875 
Q 17.625 2.546875 15.375 5.375 
L 15.375 -19.875 
z
M 14.546875 25.640625 
Q 14.546875 15.625 18.59375 10.84375 
Q 22.65625 6.0625 28.421875 6.0625 
Q 34.28125 6.0625 38.453125 11.015625 
Q 42.625 15.96875 42.625 26.375 
Q 42.625 36.28125 38.546875 41.203125 
Q 34.46875 46.140625 28.8125 46.140625 
Q 23.1875 46.140625 18.859375 40.890625 
Q 14.546875 35.640625 14.546875 25.640625 
z
" id="ArialMT-112"/>
      </defs>
      <use xlink:href="#ArialMT-84"/>
      <use x="57.333984" xlink:href="#ArialMT-105"/>
      <use x="79.550781" xlink:href="#ArialMT-109"/>
      <use x="162.851562" xlink:href="#ArialMT-101"/>
      <use x="218.466797" xlink:href="#ArialMT-32"/>
      <use x="246.25" xlink:href="#ArialMT-115"/>
      <use x="296.25" xlink:href="#ArialMT-116"/>
      <use x="324.033203" xlink:href="#ArialMT-101"/>
      <use x="379.648438" xlink:href="#ArialMT-112"/>
     </g>
    </g>
   </g>
   <g id="matplotlib.axis_2">
    <g id="ytick_1">
     <g id="line2d_9">
      <defs>
       <path d="M 0 0 
L -3.5 0 
" id="mc2a913ee28" style="stroke:#000000;stroke-width:0.8;"/>
      </defs>
      <g>
       <use style="stroke:#000000;stroke-width:0.8;" x="36.97899" xlink:href="#mc2a913ee28" y="126.88726"/>
      </g>
     </g>
     <g id="text_10">
      <!-- 0.05 -->
      <g transform="translate(14.41024 129.750385)scale(0.08 -0.08)">
       <defs>
        <path d="M 9.078125 0 
L 9.078125 10.015625 
L 19.09375 10.015625 
L 19.09375 0 
z
" id="ArialMT-46"/>
        <path d="M 4.15625 18.75 
L 13.375 19.53125 
Q 14.40625 12.796875 18.140625 9.390625 
Q 21.875 6 27.15625 6 
Q 33.5 6 37.890625 10.78125 
Q 42.28125 15.578125 42.28125 23.484375 
Q 42.28125 31 38.0625 35.34375 
Q 33.84375 39.703125 27 39.703125 
Q 22.75 39.703125 19.328125 37.765625 
Q 15.921875 35.84375 13.96875 32.765625 
L 5.71875 33.84375 
L 12.640625 70.609375 
L 48.25 70.609375 
L 48.25 62.203125 
L 19.671875 62.203125 
L 15.828125 42.96875 
Q 22.265625 47.46875 29.34375 47.46875 
Q 38.71875 47.46875 45.15625 40.96875 
Q 51.609375 34.46875 51.609375 24.265625 
Q 51.609375 14.546875 45.953125 7.46875 
Q 39.0625 -1.21875 27.15625 -1.21875 
Q 17.390625 -1.21875 11.203125 4.25 
Q 5.03125 9.71875 4.15625 18.75 
z
" id="ArialMT-53"/>
       </defs>
       <use xlink:href="#ArialMT-48"/>
       <use x="55.615234" xlink:href="#ArialMT-46"/>
       <use x="83.398438" xlink:href="#ArialMT-48"/>
       <use x="139.013672" xlink:href="#ArialMT-53"/>
      </g>
     </g>
    </g>
    <g id="ytick_2">
     <g id="line2d_10">
      <g>
       <use style="stroke:#000000;stroke-width:0.8;" x="36.97899" xlink:href="#mc2a913ee28" y="99.356811"/>
      </g>
     </g>
     <g id="text_11">
      <!-- 0.10 -->
      <g transform="translate(14.41024 102.219936)scale(0.08 -0.08)">
       <use xlink:href="#ArialMT-48"/>
       <use x="55.615234" xlink:href="#ArialMT-46"/>
       <use x="83.398438" xlink:href="#ArialMT-49"/>
       <use x="139.013672" xlink:href="#ArialMT-48"/>
      </g>
     </g>
    </g>
    <g id="ytick_3">
     <g id="line2d_11">
      <g>
       <use style="stroke:#000000;stroke-width:0.8;" x="36.97899" xlink:href="#mc2a913ee28" y="71.826362"/>
      </g>
     </g>
     <g id="text_12">
      <!-- 0.15 -->
      <g transform="translate(14.41024 74.689487)scale(0.08 -0.08)">
       <use xlink:href="#ArialMT-48"/>
       <use x="55.615234" xlink:href="#ArialMT-46"/>
       <use x="83.398438" xlink:href="#ArialMT-49"/>
       <use x="139.013672" xlink:href="#ArialMT-53"/>
      </g>
     </g>
    </g>
    <g id="ytick_4">
     <g id="line2d_12">
      <g>
       <use style="stroke:#000000;stroke-width:0.8;" x="36.97899" xlink:href="#mc2a913ee28" y="44.295913"/>
      </g>
     </g>
     <g id="text_13">
      <!-- 0.20 -->
      <g transform="translate(14.41024 47.159038)scale(0.08 -0.08)">
       <use xlink:href="#ArialMT-48"/>
       <use x="55.615234" xlink:href="#ArialMT-46"/>
       <use x="83.398438" xlink:href="#ArialMT-50"/>
       <use x="139.013672" xlink:href="#ArialMT-48"/>
      </g>
     </g>
    </g>
    <g id="ytick_5">
     <g id="line2d_13">
      <g>
       <use style="stroke:#000000;stroke-width:0.8;" x="36.97899" xlink:href="#mc2a913ee28" y="16.765464"/>
      </g>
     </g>
     <g id="text_14">
      <!-- 0.25 -->
      <g transform="translate(14.41024 19.628589)scale(0.08 -0.08)">
       <use xlink:href="#ArialMT-48"/>
       <use x="55.615234" xlink:href="#ArialMT-46"/>
       <use x="83.398438" xlink:href="#ArialMT-50"/>
       <use x="139.013672" xlink:href="#ArialMT-53"/>
      </g>
     </g>
    </g>
    <g id="text_15">
     <!-- Learning rate -->
     <g transform="translate(8.72649 88.51375)rotate(-90)scale(0.08 -0.08)">
      <defs>
       <path d="M 7.328125 0 
L 7.328125 71.578125 
L 16.796875 71.578125 
L 16.796875 8.453125 
L 52.046875 8.453125 
L 52.046875 0 
z
" id="ArialMT-76"/>
       <path d="M 40.4375 6.390625 
Q 35.546875 2.25 31.03125 0.53125 
Q 26.515625 -1.171875 21.34375 -1.171875 
Q 12.796875 -1.171875 8.203125 3 
Q 3.609375 7.171875 3.609375 13.671875 
Q 3.609375 17.484375 5.34375 20.625 
Q 7.078125 23.78125 9.890625 25.6875 
Q 12.703125 27.59375 16.21875 28.5625 
Q 18.796875 29.25 24.03125 29.890625 
Q 34.671875 31.15625 39.703125 32.90625 
Q 39.75 34.71875 39.75 35.203125 
Q 39.75 40.578125 37.25 42.78125 
Q 33.890625 45.75 27.25 45.75 
Q 21.046875 45.75 18.09375 43.578125 
Q 15.140625 41.40625 13.71875 35.890625 
L 5.125 37.0625 
Q 6.296875 42.578125 8.984375 45.96875 
Q 11.671875 49.359375 16.75 51.1875 
Q 21.828125 53.03125 28.515625 53.03125 
Q 35.15625 53.03125 39.296875 51.46875 
Q 43.453125 49.90625 45.40625 47.53125 
Q 47.359375 45.171875 48.140625 41.546875 
Q 48.578125 39.3125 48.578125 33.453125 
L 48.578125 21.734375 
Q 48.578125 9.46875 49.140625 6.21875 
Q 49.703125 2.984375 51.375 0 
L 42.1875 0 
Q 40.828125 2.734375 40.4375 6.390625 
z
M 39.703125 26.03125 
Q 34.90625 24.078125 25.34375 22.703125 
Q 19.921875 21.921875 17.671875 20.9375 
Q 15.4375 19.96875 14.203125 18.09375 
Q 12.984375 16.21875 12.984375 13.921875 
Q 12.984375 10.40625 15.640625 8.0625 
Q 18.3125 5.71875 23.4375 5.71875 
Q 28.515625 5.71875 32.46875 7.9375 
Q 36.421875 10.15625 38.28125 14.015625 
Q 39.703125 17 39.703125 22.796875 
z
" id="ArialMT-97"/>
       <path d="M 6.5 0 
L 6.5 51.859375 
L 14.40625 51.859375 
L 14.40625 44 
Q 17.4375 49.515625 20 51.265625 
Q 22.5625 53.03125 25.640625 53.03125 
Q 30.078125 53.03125 34.671875 50.203125 
L 31.640625 42.046875 
Q 28.421875 43.953125 25.203125 43.953125 
Q 22.3125 43.953125 20.015625 42.21875 
Q 17.71875 40.484375 16.75 37.40625 
Q 15.28125 32.71875 15.28125 27.15625 
L 15.28125 0 
z
" id="ArialMT-114"/>
       <path d="M 6.59375 0 
L 6.59375 51.859375 
L 14.5 51.859375 
L 14.5 44.484375 
Q 20.21875 53.03125 31 53.03125 
Q 35.6875 53.03125 39.625 51.34375 
Q 43.5625 49.65625 45.515625 46.921875 
Q 47.46875 44.1875 48.25 40.4375 
Q 48.734375 37.984375 48.734375 31.890625 
L 48.734375 0 
L 39.9375 0 
L 39.9375 31.546875 
Q 39.9375 36.921875 38.90625 39.578125 
Q 37.890625 42.234375 35.28125 43.8125 
Q 32.671875 45.40625 29.15625 45.40625 
Q 23.53125 45.40625 19.453125 41.84375 
Q 15.375 38.28125 15.375 28.328125 
L 15.375 0 
z
" id="ArialMT-110"/>
       <path d="M 4.984375 -4.296875 
L 13.53125 -5.5625 
Q 14.0625 -9.515625 16.5 -11.328125 
Q 19.78125 -13.765625 25.4375 -13.765625 
Q 31.546875 -13.765625 34.859375 -11.328125 
Q 38.1875 -8.890625 39.359375 -4.5 
Q 40.046875 -1.8125 39.984375 6.78125 
Q 34.234375 0 25.640625 0 
Q 14.9375 0 9.078125 7.71875 
Q 3.21875 15.4375 3.21875 26.21875 
Q 3.21875 33.640625 5.90625 39.90625 
Q 8.59375 46.1875 13.6875 49.609375 
Q 18.796875 53.03125 25.6875 53.03125 
Q 34.859375 53.03125 40.828125 45.609375 
L 40.828125 51.859375 
L 48.921875 51.859375 
L 48.921875 7.03125 
Q 48.921875 -5.078125 46.453125 -10.125 
Q 44 -15.1875 38.640625 -18.109375 
Q 33.296875 -21.046875 25.484375 -21.046875 
Q 16.21875 -21.046875 10.5 -16.875 
Q 4.78125 -12.703125 4.984375 -4.296875 
z
M 12.25 26.859375 
Q 12.25 16.65625 16.296875 11.96875 
Q 20.359375 7.28125 26.46875 7.28125 
Q 32.515625 7.28125 36.609375 11.9375 
Q 40.71875 16.609375 40.71875 26.5625 
Q 40.71875 36.078125 36.5 40.90625 
Q 32.28125 45.75 26.3125 45.75 
Q 20.453125 45.75 16.34375 40.984375 
Q 12.25 36.234375 12.25 26.859375 
z
" id="ArialMT-103"/>
      </defs>
      <use xlink:href="#ArialMT-76"/>
      <use x="55.615234" xlink:href="#ArialMT-101"/>
      <use x="111.230469" xlink:href="#ArialMT-97"/>
      <use x="166.845703" xlink:href="#ArialMT-114"/>
      <use x="200.146484" xlink:href="#ArialMT-110"/>
      <use x="255.761719" xlink:href="#ArialMT-105"/>
      <use x="277.978516" xlink:href="#ArialMT-110"/>
      <use x="333.59375" xlink:href="#ArialMT-103"/>
      <use x="389.208984" xlink:href="#ArialMT-32"/>
      <use x="416.992188" xlink:href="#ArialMT-114"/>
      <use x="450.292969" xlink:href="#ArialMT-97"/>
      <use x="505.908203" xlink:href="#ArialMT-116"/>
      <use x="533.691406" xlink:href="#ArialMT-101"/>
     </g>
    </g>
   </g>
   <g id="line2d_14">
    <path clip-path="url(#p04b31666bf)" d="M 37.410851 -1 
L 38.373262 19.567212 
L 39.767534 41.04167 
L 41.161805 57.096282 
L 42.556077 69.133138 
L 43.950349 78.136059 
L 45.344621 84.962817 
L 46.738893 90.07039 
L 48.133164 93.959677 
L 49.527436 96.956182 
L 50.921708 99.210518 
L 52.31598 100.955151 
L 53.710252 102.46139 
L 55.104523 103.662302 
L 57.893067 105.588397 
L 62.075882 107.309622 
L 63.470154 107.805744 
L 67.65297 108.657301 
L 70.441513 109.079921 
L 71.835785 109.270863 
L 74.624329 109.264065 
L 77.412872 109.688872 
L 82.989959 110.109527 
L 84.384231 110.091638 
L 85.778503 110.302162 
L 95.538406 110.633426 
L 98.326949 110.74904 
L 102.509765 110.755896 
L 105.298308 110.869505 
L 108.086852 110.815169 
L 109.481124 110.926911 
L 112.269667 110.872089 
L 113.663939 111.00533 
L 115.058211 110.928735 
L 119.241026 110.996306 
L 123.423842 110.870203 
L 124.818113 110.887048 
L 127.606657 111.068319 
L 135.972288 110.955315 
L 137.36656 110.835589 
L 140.155103 110.914293 
L 141.549375 110.925881 
L 142.943647 102.373321 
L 144.337919 98.398084 
L 145.73219 96.332173 
L 147.126462 95.603181 
L 148.520734 95.665481 
L 149.915006 96.140005 
L 152.703549 97.568727 
L 159.674908 101.452776 
L 163.857724 103.610673 
L 169.434811 106.02798 
L 172.223355 106.980876 
L 175.011898 107.650613 
L 179.194714 108.482398 
L 180.588985 108.605784 
L 181.983257 108.937479 
L 191.74316 110.096737 
L 194.531703 110.219387 
L 195.925975 110.375809 
L 200.108791 110.401052 
L 207.08015 110.815064 
L 208.474421 110.8414 
L 211.262965 110.740658 
L 214.051509 110.765199 
L 227.994227 110.935519 
L 230.78277 111.026041 
L 234.965586 111.096461 
L 236.359857 111.022725 
L 239.148401 111.099546 
L 241.936945 111.055432 
L 244.725488 111.012308 
L 246.11976 110.957683 
L 247.514032 111.017417 
L 248.908304 102.701454 
L 250.12 99.241836 
L 250.12 99.241836 
" style="fill:none;stroke:#ababab;stroke-linecap:square;"/>
   </g>
   <g id="line2d_15">
    <path clip-path="url(#p04b31666bf)" d="M 141.549375 126.88726 
L 141.549375 3.00024 
" style="fill:none;stroke:#000000;stroke-linecap:square;"/>
   </g>
   <g id="patch_3">
    <path d="M 36.97899 126.88726 
L 36.97899 3.00024 
" style="fill:none;stroke:#000000;stroke-linecap:square;stroke-linejoin:miter;stroke-width:0.8;"/>
   </g>
   <g id="patch_4">
    <path d="M 36.97899 126.88726 
L 246.11976 126.88726 
" style="fill:none;stroke:#000000;stroke-linecap:square;stroke-linejoin:miter;stroke-width:0.8;"/>
   </g>
   <g id="patch_5">
    <path d="M 114.362947 12.298549 
Q 127.956161 15.220268 140.456305 17.907043 
" style="fill:none;stroke:#000000;stroke-linecap:round;"/>
    <path d="M 137.663982 15.67032 
L 140.456305 17.907043 
L 136.991533 18.798868 
" style="fill:none;stroke:#000000;stroke-linecap:round;"/>
   </g>
   <g id="text_16">
    <!-- Change point -->
    <g transform="translate(64.772047 8.82399)scale(0.08 -0.08)">
     <defs>
      <path d="M 58.796875 25.09375 
L 68.265625 22.703125 
Q 65.28125 11.03125 57.546875 4.90625 
Q 49.8125 -1.21875 38.625 -1.21875 
Q 27.046875 -1.21875 19.796875 3.484375 
Q 12.546875 8.203125 8.765625 17.140625 
Q 4.984375 26.078125 4.984375 36.328125 
Q 4.984375 47.515625 9.25 55.828125 
Q 13.53125 64.15625 21.40625 68.46875 
Q 29.296875 72.796875 38.765625 72.796875 
Q 49.515625 72.796875 56.828125 67.328125 
Q 64.15625 61.859375 67.046875 51.953125 
L 57.71875 49.75 
Q 55.21875 57.5625 50.484375 61.125 
Q 45.75 64.703125 38.578125 64.703125 
Q 30.328125 64.703125 24.78125 60.734375 
Q 19.234375 56.78125 16.984375 50.109375 
Q 14.75 43.453125 14.75 36.375 
Q 14.75 27.25 17.40625 20.4375 
Q 20.0625 13.625 25.671875 10.25 
Q 31.296875 6.890625 37.84375 6.890625 
Q 45.796875 6.890625 51.3125 11.46875 
Q 56.84375 16.0625 58.796875 25.09375 
z
" id="ArialMT-67"/>
      <path d="M 6.59375 0 
L 6.59375 71.578125 
L 15.375 71.578125 
L 15.375 45.90625 
Q 21.53125 53.03125 30.90625 53.03125 
Q 36.671875 53.03125 40.921875 50.75 
Q 45.171875 48.484375 47 44.484375 
Q 48.828125 40.484375 48.828125 32.859375 
L 48.828125 0 
L 40.046875 0 
L 40.046875 32.859375 
Q 40.046875 39.453125 37.1875 42.453125 
Q 34.328125 45.453125 29.109375 45.453125 
Q 25.203125 45.453125 21.75 43.421875 
Q 18.3125 41.40625 16.84375 37.9375 
Q 15.375 34.46875 15.375 28.375 
L 15.375 0 
z
" id="ArialMT-104"/>
      <path d="M 3.328125 25.921875 
Q 3.328125 40.328125 11.328125 47.265625 
Q 18.015625 53.03125 27.640625 53.03125 
Q 38.328125 53.03125 45.109375 46.015625 
Q 51.90625 39.015625 51.90625 26.65625 
Q 51.90625 16.65625 48.90625 10.90625 
Q 45.90625 5.171875 40.15625 2 
Q 34.421875 -1.171875 27.640625 -1.171875 
Q 16.75 -1.171875 10.03125 5.8125 
Q 3.328125 12.796875 3.328125 25.921875 
z
M 12.359375 25.921875 
Q 12.359375 15.96875 16.703125 11.015625 
Q 21.046875 6.0625 27.640625 6.0625 
Q 34.1875 6.0625 38.53125 11.03125 
Q 42.875 16.015625 42.875 26.21875 
Q 42.875 35.84375 38.5 40.796875 
Q 34.125 45.75 27.640625 45.75 
Q 21.046875 45.75 16.703125 40.8125 
Q 12.359375 35.890625 12.359375 25.921875 
z
" id="ArialMT-111"/>
     </defs>
     <use xlink:href="#ArialMT-67"/>
     <use x="72.216797" xlink:href="#ArialMT-104"/>
     <use x="127.832031" xlink:href="#ArialMT-97"/>
     <use x="183.447266" xlink:href="#ArialMT-110"/>
     <use x="239.0625" xlink:href="#ArialMT-103"/>
     <use x="294.677734" xlink:href="#ArialMT-101"/>
     <use x="350.292969" xlink:href="#ArialMT-32"/>
     <use x="378.076172" xlink:href="#ArialMT-112"/>
     <use x="433.691406" xlink:href="#ArialMT-111"/>
     <use x="489.306641" xlink:href="#ArialMT-105"/>
     <use x="511.523438" xlink:href="#ArialMT-110"/>
     <use x="567.138672" xlink:href="#ArialMT-116"/>
    </g>
   </g>
  </g>
 </g>
 <defs>
  <clipPath id="p04b31666bf">
   <rect height="123.88702" width="209.14077" x="36.97899" y="3.00024"/>
  </clipPath>
 </defs>
</svg>
