<?xml version="1.0" encoding="utf-8" standalone="no"?>
<!DOCTYPE svg PUBLIC "-//W3C//DTD SVG 1.1//EN"
  "http://www.w3.org/Graphics/SVG/1.1/DTD/svg11.dtd">
<!-- Created with matplotlib (https://matplotlib.org/) -->
<svg height="155.52pt" version="1.1" viewBox="0 0 249.12 155.52" width="249.12pt" xmlns="http://www.w3.org/2000/svg" xmlns:xlink="http://www.w3.org/1999/xlink">
 <metadata>
  <rdf:RDF xmlns:cc="http://creativecommons.org/ns#" xmlns:dc="http://purl.org/dc/elements/1.1/" xmlns:rdf="http://www.w3.org/1999/02/22-rdf-syntax-ns#">
   <cc:Work>
    <dc:type rdf:resource="http://purl.org/dc/dcmitype/StillImage"/>
    <dc:date>2021-11-11T09:57:39.229949</dc:date>
    <dc:format>image/svg+xml</dc:format>
    <dc:creator>
     <cc:Agent>
      <dc:title>Matplotlib v3.3.4, https://matplotlib.org/</dc:title>
     </cc:Agent>
    </dc:creator>
   </cc:Work>
  </rdf:RDF>
 </metadata>
 <defs>
  <style type="text/css">*{stroke-linecap:butt;stroke-linejoin:round;}</style>
 </defs>
 <g id="figure_1">
  <g id="patch_1">
   <path d="M 0 155.52 
L 249.12 155.52 
L 249.12 0 
L 0 0 
z
" style="fill:#ffffff;"/>
  </g>
  <g id="axes_1">
   <g id="patch_2">
    <path d="M 36.97899 126.88726 
L 246.11976 126.88726 
L 246.11976 3.00024 
L 36.97899 3.00024 
z
" style="fill:#ffffff;"/>
   </g>
   <g id="PolyCollection_1">
    <path clip-path="url(#p7cc5c7e168)" d="M 36.97899 -19.405354 
L 36.97899 -4.398565 
L 38.373262 37.730482 
L 39.767534 60.07518 
L 41.161805 73.105966 
L 42.556077 81.711732 
L 43.950349 88.109525 
L 45.344621 92.609592 
L 46.738893 96.22511 
L 48.133164 98.980807 
L 49.527436 101.113853 
L 50.921708 103.016653 
L 52.31598 104.31523 
L 53.710252 105.588699 
L 55.104523 106.598273 
L 56.498795 107.578848 
L 57.893067 108.467175 
L 59.287339 109.271498 
L 60.681611 109.48822 
L 62.075882 110.214011 
L 63.470154 110.829889 
L 64.864426 111.396587 
L 66.258698 111.276153 
L 67.65297 111.847527 
L 69.047241 112.060392 
L 70.441513 112.270014 
L 71.835785 112.821689 
L 73.230057 112.842826 
L 74.624329 112.565118 
L 76.0186 112.682056 
L 77.412872 113.550011 
L 78.807144 113.914128 
L 80.201416 114.051463 
L 81.595688 114.395797 
L 82.989959 114.24178 
L 84.384231 114.138576 
L 85.778503 114.286539 
L 87.172775 114.923963 
L 88.567047 115.057587 
L 89.961318 114.765868 
L 91.35559 115.04217 
L 92.749862 115.351327 
L 94.144134 115.398687 
L 95.538406 115.48827 
L 96.932677 115.71636 
L 98.326949 115.718244 
L 99.721221 115.8168 
L 101.115493 115.729208 
L 102.509765 115.928254 
L 103.904036 115.682294 
L 105.298308 115.882244 
L 106.69258 116.168761 
L 108.086852 115.929774 
L 109.481124 115.845273 
L 110.875395 116.335369 
L 112.269667 116.092356 
L 113.663939 116.079335 
L 115.058211 116.371258 
L 116.452483 116.297442 
L 117.846754 116.385372 
L 119.241026 116.437575 
L 120.635298 116.220942 
L 122.02957 116.095754 
L 123.423842 116.157775 
L 124.818113 116.102438 
L 126.212385 116.658156 
L 127.606657 117.071216 
L 129.000929 116.917134 
L 130.395201 116.826794 
L 131.789472 116.733033 
L 133.183744 116.600211 
L 134.578016 116.371072 
L 135.972288 116.389823 
L 137.36656 116.493273 
L 138.760831 116.68979 
L 140.155103 116.945264 
L 141.549375 116.75084 
L 142.943647 109.581454 
L 144.337919 91.417285 
L 145.73219 73.454483 
L 147.126462 61.879695 
L 148.520734 58.115109 
L 149.915006 59.523472 
L 151.309278 64.241678 
L 152.703549 69.679721 
L 154.097821 74.962708 
L 155.492093 79.819372 
L 156.886365 84.176267 
L 158.280637 88.141122 
L 159.674908 91.394184 
L 161.06918 93.80343 
L 162.463452 96.301071 
L 163.857724 98.409609 
L 165.251996 100.107727 
L 166.646267 101.965797 
L 168.040539 103.390464 
L 169.434811 104.414114 
L 170.829083 105.572188 
L 172.223355 106.773096 
L 173.617626 107.534598 
L 175.011898 107.779679 
L 176.40617 108.657465 
L 177.800442 109.090616 
L 179.194714 109.606263 
L 180.588985 110.336663 
L 181.983257 110.529634 
L 183.377529 111.148619 
L 184.771801 111.810158 
L 186.166073 112.348986 
L 187.560344 112.562519 
L 188.954616 112.853335 
L 190.348888 113.117259 
L 191.74316 113.755537 
L 193.137432 114.109235 
L 194.531703 114.06671 
L 195.925975 114.192921 
L 197.320247 114.649171 
L 198.714519 114.847208 
L 200.108791 114.879864 
L 201.503062 115.021856 
L 202.897334 115.238816 
L 204.291606 115.49055 
L 205.685878 115.674697 
L 207.08015 115.844987 
L 208.474421 115.95398 
L 209.868693 115.967563 
L 211.262965 115.848642 
L 212.657237 116.162269 
L 214.051509 116.346453 
L 215.44578 116.265703 
L 216.840052 116.606268 
L 218.234324 116.544139 
L 219.628596 116.708008 
L 221.022868 116.915777 
L 222.417139 117.151944 
L 223.811411 116.669733 
L 225.205683 116.900033 
L 226.599955 117.225815 
L 227.994227 117.237975 
L 229.388498 117.385168 
L 230.78277 117.490952 
L 232.177042 117.648664 
L 233.571314 117.688644 
L 234.965586 117.679877 
L 236.359857 117.769232 
L 237.754129 117.515275 
L 239.148401 117.813112 
L 240.542673 118.033837 
L 241.936945 118.069309 
L 243.331216 117.81732 
L 244.725488 117.812257 
L 246.11976 117.725423 
L 247.514032 117.865357 
L 248.908304 109.919067 
L 250.302575 92.962907 
L 251.696847 77.628093 
L 253.091119 66.969896 
L 254.485391 62.419344 
L 255.879663 62.885667 
L 257.273934 65.998199 
L 258.668206 70.496499 
L 260.062478 75.632211 
L 261.45675 80.028144 
L 262.851022 84.181212 
L 264.245293 87.763214 
L 265.639565 90.790626 
L 267.033837 93.446416 
L 268.428109 95.862763 
L 269.822381 98.040175 
L 271.216652 100.044849 
L 272.610924 101.605794 
L 274.005196 102.889421 
L 275.399468 104.048448 
L 276.79374 105.117659 
L 278.188011 106.061094 
L 279.582283 106.886952 
L 280.976555 107.569059 
L 282.370827 108.135365 
L 283.765099 108.78811 
L 285.15937 109.250266 
L 286.553642 109.402949 
L 287.947914 109.977502 
L 289.342186 110.435899 
L 290.736458 111.24223 
L 292.130729 111.635061 
L 293.525001 112.079777 
L 294.919273 112.381291 
L 296.313545 112.365999 
L 297.707817 112.323417 
L 299.102088 113.066645 
L 300.49636 113.072412 
L 301.890632 113.010014 
L 303.284904 112.958787 
L 304.679176 113.356104 
L 306.073447 113.60776 
L 307.467719 114.081713 
L 308.861991 114.110994 
L 310.256263 114.39486 
L 311.650535 114.647348 
L 313.044806 114.489846 
L 314.439078 114.586843 
L 315.83335 114.860803 
L 317.227622 115.364517 
L 318.621894 115.383284 
L 320.016165 115.447773 
L 321.410437 115.251449 
L 322.804709 115.096123 
L 324.198981 115.577066 
L 325.593253 115.936157 
L 326.987524 115.755638 
L 328.381796 115.875201 
L 329.776068 116.128952 
L 331.17034 115.960285 
L 332.564612 116.300939 
L 333.958883 116.157387 
L 335.353155 116.430821 
L 336.747427 116.16033 
L 338.141699 116.273875 
L 339.535971 116.09892 
L 340.930242 116.366338 
L 342.324514 116.194121 
L 343.718786 116.278854 
L 345.113058 116.654722 
L 346.50733 116.2023 
L 347.901601 116.253357 
L 349.295873 116.595169 
L 350.690145 116.349334 
L 352.084417 116.454294 
L 353.478689 116.569328 
L 354.87296 109.46792 
L 356.267232 91.307754 
L 357.661504 74.005478 
L 359.055776 63.11933 
L 360.450048 59.611254 
L 361.844319 60.64545 
L 363.238591 64.723052 
L 364.632863 70.019393 
L 366.027135 75.090965 
L 367.421407 79.909475 
L 368.815678 84.082966 
L 370.20995 87.856064 
L 371.604222 91.015057 
L 372.998494 93.764052 
L 374.392766 96.110243 
L 375.787037 98.182596 
L 377.181309 100.217329 
L 378.575581 101.888037 
L 379.969853 103.39516 
L 381.364125 104.576956 
L 382.758396 105.645833 
L 384.152668 106.009513 
L 385.54694 107.060164 
L 386.941212 108.007079 
L 388.335484 108.881465 
L 389.729755 109.585234 
L 391.124027 110.05351 
L 392.518299 110.338185 
L 393.912571 111.046492 
L 395.306843 111.476172 
L 396.701114 112.017066 
L 398.095386 112.104244 
L 399.489658 112.456609 
L 400.88393 112.651325 
L 402.278202 112.981484 
L 403.672473 113.398978 
L 405.066745 113.915833 
L 406.461017 114.20484 
L 407.855289 114.432155 
L 409.249561 114.822314 
L 410.643832 114.996451 
L 412.038104 115.187549 
L 413.432376 115.236371 
L 414.826648 115.174926 
L 416.22092 115.024836 
L 417.615191 114.899281 
L 419.009463 115.30085 
L 420.403735 115.845212 
L 421.798007 115.991276 
L 423.192279 116.166422 
L 424.58655 116.101284 
L 425.980822 116.113367 
L 427.375094 116.266175 
L 428.769366 116.656735 
L 430.163638 116.873051 
L 431.557909 116.781883 
L 432.952181 117.145311 
L 434.346453 116.845752 
L 435.740725 116.991175 
L 437.134997 116.947877 
L 438.529268 117.087596 
L 439.92354 116.866755 
L 441.317812 116.897556 
L 442.712084 116.909995 
L 444.106356 117.18506 
L 445.500627 117.373068 
L 446.894899 117.476017 
L 448.289171 117.566806 
L 449.683443 117.762931 
L 451.077715 117.7317 
L 452.471986 117.613321 
L 453.866258 117.6868 
L 455.26053 117.618679 
L 456.654802 117.752101 
L 458.049074 117.920235 
L 459.443345 117.909269 
L 460.837617 110.204218 
L 462.231889 93.334806 
L 463.626161 77.735154 
L 465.020433 67.698313 
L 466.414704 62.929482 
L 467.808976 62.947711 
L 469.203248 65.694933 
L 470.59752 70.134445 
L 471.991792 75.314364 
L 473.386063 80.070635 
L 474.780335 83.916019 
L 476.174607 87.638999 
L 477.568879 90.764058 
L 478.963151 93.354483 
L 480.357422 95.73553 
L 481.751694 97.814302 
L 483.145966 99.607791 
L 484.540238 101.265149 
L 485.93451 102.698829 
L 487.328781 104.015512 
L 488.723053 105.181359 
L 490.117325 105.954333 
L 491.511597 106.704428 
L 492.905869 107.560938 
L 494.30014 108.217417 
L 495.694412 108.969372 
L 497.088684 109.73352 
L 498.482956 109.959339 
L 499.877228 110.170658 
L 501.271499 110.622782 
L 502.665771 111.175486 
L 504.060043 111.653883 
L 505.454315 111.960385 
L 506.848587 112.122967 
L 508.242858 112.621509 
L 509.63713 112.681834 
L 511.031402 112.50516 
L 512.425674 112.975589 
L 513.819946 113.602361 
L 515.214217 113.600515 
L 516.608489 114.001164 
L 518.002761 114.099431 
L 519.397033 114.384514 
L 520.791305 114.487011 
L 522.185576 114.407612 
L 523.579848 114.546949 
L 524.97412 115.097486 
L 526.368392 115.261494 
L 527.762664 114.90744 
L 529.156935 115.296617 
L 530.551207 115.419479 
L 531.945479 115.042922 
L 533.339751 115.244653 
L 534.734023 115.370996 
L 536.128294 115.350289 
L 537.522566 115.543771 
L 538.916838 115.436896 
L 540.31111 115.344967 
L 541.705382 115.612151 
L 543.099653 115.966327 
L 544.493925 116.075228 
L 545.888197 116.173395 
L 547.282469 116.090189 
L 548.676741 116.159846 
L 550.071012 116.262707 
L 551.465284 116.527602 
L 552.859556 116.414271 
L 554.253828 116.454705 
L 555.6481 116.478578 
L 557.042371 116.828598 
L 558.436643 116.486377 
L 559.830915 116.545868 
L 561.225187 116.128685 
L 562.619459 116.38441 
L 564.01373 116.446824 
L 565.408002 116.523353 
L 565.408002 112.424361 
L 565.408002 112.424361 
L 564.01373 112.342957 
L 562.619459 112.275247 
L 561.225187 111.974536 
L 559.830915 112.416696 
L 558.436643 112.364166 
L 557.042371 112.767175 
L 555.6481 112.372846 
L 554.253828 112.354912 
L 552.859556 112.281813 
L 551.465284 112.433669 
L 550.071012 112.168519 
L 548.676741 112.000983 
L 547.282469 111.95376 
L 545.888197 112.052199 
L 544.493925 111.993227 
L 543.099653 111.831551 
L 541.705382 111.427721 
L 540.31111 111.131799 
L 538.916838 111.204797 
L 537.522566 111.337313 
L 536.128294 111.123817 
L 534.734023 111.172443 
L 533.339751 111.003251 
L 531.945479 110.803956 
L 530.551207 111.208516 
L 529.156935 111.076605 
L 527.762664 110.717215 
L 526.368392 111.030899 
L 524.97412 110.879323 
L 523.579848 110.255949 
L 522.185576 110.120231 
L 520.791305 110.188804 
L 519.397033 110.146439 
L 518.002761 109.809867 
L 516.608489 109.67129 
L 515.214217 109.273112 
L 513.819946 109.292262 
L 512.425674 108.582664 
L 511.031402 108.049013 
L 509.63713 108.293883 
L 508.242858 108.23689 
L 506.848587 107.694778 
L 505.454315 107.527925 
L 504.060043 107.19731 
L 502.665771 106.685506 
L 501.271499 106.159386 
L 499.877228 105.63539 
L 498.482956 105.418388 
L 497.088684 105.159872 
L 495.694412 104.349773 
L 494.30014 103.579504 
L 492.905869 102.870869 
L 491.511597 101.95557 
L 490.117325 101.160195 
L 488.723053 100.380268 
L 487.328781 99.137417 
L 485.93451 97.708805 
L 484.540238 96.20179 
L 483.145966 94.398168 
L 481.751694 92.479347 
L 480.357422 90.235883 
L 478.963151 87.67161 
L 477.568879 84.89817 
L 476.174607 81.453764 
L 474.780335 77.447254 
L 473.386063 73.246102 
L 471.991792 68.147725 
L 470.59752 62.608201 
L 469.203248 57.643951 
L 467.808976 54.10707 
L 466.414704 52.88645 
L 465.020433 56.701344 
L 463.626161 67.417104 
L 462.231889 86.217051 
L 460.837617 106.548368 
L 459.443345 114.887132 
L 458.049074 114.893251 
L 456.654802 114.692097 
L 455.26053 114.517857 
L 453.866258 114.623858 
L 452.471986 114.536249 
L 451.077715 114.654852 
L 449.683443 114.686662 
L 448.289171 114.47957 
L 446.894899 114.367591 
L 445.500627 114.244151 
L 444.106356 114.037262 
L 442.712084 113.700845 
L 441.317812 113.652119 
L 439.92354 113.621747 
L 438.529268 113.853035 
L 437.134997 113.658367 
L 435.740725 113.698349 
L 434.346453 113.540825 
L 432.952181 113.886292 
L 431.557909 113.474508 
L 430.163638 113.588614 
L 428.769366 113.29955 
L 427.375094 112.84181 
L 425.980822 112.680146 
L 424.58655 112.631357 
L 423.192279 112.704456 
L 421.798007 112.471555 
L 420.403735 112.317295 
L 419.009463 111.65053 
L 417.615191 111.154289 
L 416.22092 111.283767 
L 414.826648 111.438643 
L 413.432376 111.463803 
L 412.038104 111.423923 
L 410.643832 111.149908 
L 409.249561 110.956997 
L 407.855289 110.527902 
L 406.461017 110.252429 
L 405.066745 109.859733 
L 403.672473 109.264175 
L 402.278202 108.755122 
L 400.88393 108.327314 
L 399.489658 108.083228 
L 398.095386 107.665785 
L 396.701114 107.529001 
L 395.306843 106.872284 
L 393.912571 106.345929 
L 392.518299 105.525349 
L 391.124027 105.163078 
L 389.729755 104.616434 
L 388.335484 103.756328 
L 386.941212 102.723527 
L 385.54694 101.614219 
L 384.152668 100.340254 
L 382.758396 99.940973 
L 381.364125 98.689385 
L 379.969853 97.356557 
L 378.575581 95.691803 
L 377.181309 93.870322 
L 375.787037 91.607952 
L 374.392766 89.319687 
L 372.998494 86.778337 
L 371.604222 83.860083 
L 370.20995 80.527978 
L 368.815678 76.531116 
L 367.421407 72.152964 
L 366.027135 67.174549 
L 364.632863 61.946593 
L 363.238591 56.385305 
L 361.844319 51.704323 
L 360.450048 49.476426 
L 359.055776 51.985369 
L 357.661504 63.538959 
L 356.267232 82.861556 
L 354.87296 104.042706 
L 353.478689 112.4589 
L 352.084417 112.386665 
L 350.690145 112.252221 
L 349.295873 112.536225 
L 347.901601 112.145699 
L 346.50733 112.049523 
L 345.113058 112.57694 
L 343.718786 112.161397 
L 342.324514 112.077893 
L 340.930242 112.288034 
L 339.535971 111.931964 
L 338.141699 112.140864 
L 336.747427 112.019298 
L 335.353155 112.331667 
L 333.958883 112.022355 
L 332.564612 112.185259 
L 331.17034 111.833015 
L 329.776068 112.002315 
L 328.381796 111.747972 
L 326.987524 111.606701 
L 325.593253 111.856073 
L 324.198981 111.423609 
L 322.804709 110.860308 
L 321.410437 111.013972 
L 320.016165 111.242661 
L 318.621894 111.198245 
L 317.227622 111.185094 
L 315.83335 110.614008 
L 314.439078 110.301729 
L 313.044806 110.198321 
L 311.650535 110.393677 
L 310.256263 110.159814 
L 308.861991 109.780718 
L 307.467719 109.765972 
L 306.073447 109.226863 
L 304.679176 108.966364 
L 303.284904 108.562383 
L 301.890632 108.643738 
L 300.49636 108.701519 
L 299.102088 108.727528 
L 297.707817 107.89821 
L 296.313545 107.958542 
L 294.919273 108.021949 
L 293.525001 107.698815 
L 292.130729 107.235946 
L 290.736458 106.764017 
L 289.342186 105.934432 
L 287.947914 105.434485 
L 286.553642 104.803747 
L 285.15937 104.585652 
L 283.765099 104.159468 
L 282.370827 103.54227 
L 280.976555 102.903692 
L 279.582283 102.176662 
L 278.188011 101.314992 
L 276.79374 100.337936 
L 275.399468 99.202702 
L 274.005196 97.988724 
L 272.610924 96.601822 
L 271.216652 94.93606 
L 269.822381 92.751526 
L 268.428109 90.41667 
L 267.033837 87.766268 
L 265.639565 84.906415 
L 264.245293 81.605544 
L 262.851022 77.683007 
L 261.45675 73.244264 
L 260.062478 68.534923 
L 258.668206 63.008844 
L 257.273934 58.016399 
L 255.879663 54.04494 
L 254.485391 52.315572 
L 253.091119 55.878754 
L 251.696847 67.403394 
L 250.302575 85.825 
L 248.908304 106.235056 
L 247.514032 114.804411 
L 246.11976 114.657187 
L 244.725488 114.74255 
L 243.331216 114.734238 
L 241.936945 115.036202 
L 240.542673 114.994617 
L 239.148401 114.741311 
L 237.754129 114.343827 
L 236.359857 114.662734 
L 234.965586 114.557034 
L 233.571314 114.551241 
L 232.177042 114.509439 
L 230.78277 114.338936 
L 229.388498 114.186969 
L 227.994227 114.024692 
L 226.599955 114.032324 
L 225.205683 113.620436 
L 223.811411 113.337758 
L 222.417139 113.921615 
L 221.022868 113.607395 
L 219.628596 113.362673 
L 218.234324 113.167926 
L 216.840052 113.23735 
L 215.44578 112.855926 
L 214.051509 112.929741 
L 212.657237 112.682177 
L 211.262965 112.304884 
L 209.868693 112.441058 
L 208.474421 112.407401 
L 207.08015 112.245377 
L 205.685878 112.034698 
L 204.291606 111.848715 
L 202.897334 111.528153 
L 201.503062 111.214857 
L 200.108791 111.078754 
L 198.714519 110.993388 
L 197.320247 110.778712 
L 195.925975 110.210023 
L 194.531703 110.054827 
L 193.137432 110.074633 
L 191.74316 109.64207 
L 190.348888 108.927738 
L 188.954616 108.591849 
L 187.560344 108.226572 
L 186.166073 107.942295 
L 184.771801 107.326374 
L 183.377529 106.542616 
L 181.983257 105.803678 
L 180.588985 105.567515 
L 179.194714 104.674688 
L 177.800442 104.057372 
L 176.40617 103.488208 
L 175.011898 102.471883 
L 173.617626 102.216697 
L 172.223355 101.316017 
L 170.829083 99.948105 
L 169.434811 98.611484 
L 168.040539 97.473403 
L 166.646267 95.817697 
L 165.251996 93.764331 
L 163.857724 91.89071 
L 162.463452 89.583812 
L 161.06918 86.8985 
L 159.674908 84.33654 
L 158.280637 80.891269 
L 156.886365 76.700986 
L 155.492093 72.10881 
L 154.097821 67.0389 
L 152.703549 61.588401 
L 151.309278 55.90761 
L 149.915006 50.538353 
L 148.520734 47.889441 
L 147.126462 50.583119 
L 145.73219 62.941488 
L 144.337919 82.98807 
L 142.943647 104.170416 
L 141.549375 112.674916 
L 140.155103 112.896733 
L 138.760831 112.596936 
L 137.36656 112.424947 
L 135.972288 112.288691 
L 134.578016 112.250503 
L 133.183744 112.545892 
L 131.789472 112.651433 
L 130.395201 112.758291 
L 129.000929 112.907133 
L 127.606657 113.085208 
L 126.212385 112.631268 
L 124.818113 112.010602 
L 123.423842 112.085974 
L 122.02957 112.022984 
L 120.635298 112.19826 
L 119.241026 112.42656 
L 117.846754 112.379211 
L 116.452483 112.249673 
L 115.058211 112.390986 
L 113.663939 112.033499 
L 112.269667 112.056583 
L 110.875395 112.353877 
L 109.481124 111.789333 
L 108.086852 111.874748 
L 106.69258 112.147319 
L 105.298308 111.906297 
L 103.904036 111.630486 
L 102.509765 111.907807 
L 101.115493 111.681075 
L 99.721221 111.813651 
L 98.326949 111.744942 
L 96.932677 111.709997 
L 95.538406 111.462523 
L 94.144134 111.394191 
L 92.749862 111.348006 
L 91.35559 111.028061 
L 89.961318 110.734574 
L 88.567047 111.100192 
L 87.172775 110.977169 
L 85.778503 110.268624 
L 84.384231 110.095186 
L 82.989959 110.212779 
L 81.595688 110.414251 
L 80.201416 110.079384 
L 78.807144 109.960549 
L 77.412872 109.59898 
L 76.0186 108.591139 
L 74.624329 108.476263 
L 73.230057 108.821427 
L 71.835785 108.808782 
L 70.441513 108.19685 
L 69.047241 107.986221 
L 67.65297 107.768405 
L 66.258698 107.11667 
L 64.864426 107.281742 
L 63.470154 106.691963 
L 62.075882 106.039632 
L 60.681611 105.235746 
L 59.287339 105.013091 
L 57.893067 104.169216 
L 56.498795 103.199963 
L 55.104523 102.174369 
L 53.710252 101.105724 
L 52.31598 99.736122 
L 50.921708 98.386695 
L 49.527436 96.388883 
L 48.133164 94.163736 
L 46.738893 91.27518 
L 45.344621 87.482674 
L 43.950349 82.784266 
L 42.556077 76.272 
L 41.161805 67.662999 
L 39.767534 54.590401 
L 38.373262 30.603891 
L 36.97899 -19.405354 
z
" style="fill:#ffa600;fill-opacity:0.2;stroke:#ffa600;stroke-opacity:0.2;"/>
   </g>
   <g id="matplotlib.axis_1">
    <g id="xtick_1">
     <g id="line2d_1">
      <defs>
       <path d="M 0 0 
L 0 3.5 
" id="ma28a4c6b20" style="stroke:#000000;stroke-width:0.8;"/>
      </defs>
      <g>
       <use style="stroke:#000000;stroke-width:0.8;" x="36.97899" xlink:href="#ma28a4c6b20" y="126.88726"/>
      </g>
     </g>
     <g id="text_1">
      <!-- 0 -->
      <g transform="translate(34.754615 139.61351)scale(0.08 -0.08)">
       <defs>
        <path d="M 4.15625 35.296875 
Q 4.15625 48 6.765625 55.734375 
Q 9.375 63.484375 14.515625 67.671875 
Q 19.671875 71.875 27.484375 71.875 
Q 33.25 71.875 37.59375 69.546875 
Q 41.9375 67.234375 44.765625 62.859375 
Q 47.609375 58.5 49.21875 52.21875 
Q 50.828125 45.953125 50.828125 35.296875 
Q 50.828125 22.703125 48.234375 14.96875 
Q 45.65625 7.234375 40.5 3 
Q 35.359375 -1.21875 27.484375 -1.21875 
Q 17.140625 -1.21875 11.234375 6.203125 
Q 4.15625 15.140625 4.15625 35.296875 
z
M 13.1875 35.296875 
Q 13.1875 17.671875 17.3125 11.828125 
Q 21.4375 6 27.484375 6 
Q 33.546875 6 37.671875 11.859375 
Q 41.796875 17.71875 41.796875 35.296875 
Q 41.796875 52.984375 37.671875 58.78125 
Q 33.546875 64.59375 27.390625 64.59375 
Q 21.34375 64.59375 17.71875 59.46875 
Q 13.1875 52.9375 13.1875 35.296875 
z
" id="ArialMT-48"/>
       </defs>
       <use xlink:href="#ArialMT-48"/>
      </g>
     </g>
    </g>
    <g id="xtick_2">
     <g id="line2d_2">
      <g>
       <use style="stroke:#000000;stroke-width:0.8;" x="64.864426" xlink:href="#ma28a4c6b20" y="126.88726"/>
      </g>
     </g>
     <g id="text_2">
      <!-- 20 -->
      <g transform="translate(60.415676 139.61351)scale(0.08 -0.08)">
       <defs>
        <path d="M 50.34375 8.453125 
L 50.34375 0 
L 3.03125 0 
Q 2.9375 3.171875 4.046875 6.109375 
Q 5.859375 10.9375 9.828125 15.625 
Q 13.8125 20.3125 21.34375 26.46875 
Q 33.015625 36.03125 37.109375 41.625 
Q 41.21875 47.21875 41.21875 52.203125 
Q 41.21875 57.421875 37.46875 61 
Q 33.734375 64.59375 27.734375 64.59375 
Q 21.390625 64.59375 17.578125 60.78125 
Q 13.765625 56.984375 13.71875 50.25 
L 4.6875 51.171875 
Q 5.609375 61.28125 11.65625 66.578125 
Q 17.71875 71.875 27.9375 71.875 
Q 38.234375 71.875 44.234375 66.15625 
Q 50.25 60.453125 50.25 52 
Q 50.25 47.703125 48.484375 43.546875 
Q 46.734375 39.40625 42.65625 34.8125 
Q 38.578125 30.21875 29.109375 22.21875 
Q 21.1875 15.578125 18.9375 13.203125 
Q 16.703125 10.84375 15.234375 8.453125 
z
" id="ArialMT-50"/>
       </defs>
       <use xlink:href="#ArialMT-50"/>
       <use x="55.615234" xlink:href="#ArialMT-48"/>
      </g>
     </g>
    </g>
    <g id="xtick_3">
     <g id="line2d_3">
      <g>
       <use style="stroke:#000000;stroke-width:0.8;" x="92.749862" xlink:href="#ma28a4c6b20" y="126.88726"/>
      </g>
     </g>
     <g id="text_3">
      <!-- 40 -->
      <g transform="translate(88.301112 139.61351)scale(0.08 -0.08)">
       <defs>
        <path d="M 32.328125 0 
L 32.328125 17.140625 
L 1.265625 17.140625 
L 1.265625 25.203125 
L 33.9375 71.578125 
L 41.109375 71.578125 
L 41.109375 25.203125 
L 50.78125 25.203125 
L 50.78125 17.140625 
L 41.109375 17.140625 
L 41.109375 0 
z
M 32.328125 25.203125 
L 32.328125 57.46875 
L 9.90625 25.203125 
z
" id="ArialMT-52"/>
       </defs>
       <use xlink:href="#ArialMT-52"/>
       <use x="55.615234" xlink:href="#ArialMT-48"/>
      </g>
     </g>
    </g>
    <g id="xtick_4">
     <g id="line2d_4">
      <g>
       <use style="stroke:#000000;stroke-width:0.8;" x="120.635298" xlink:href="#ma28a4c6b20" y="126.88726"/>
      </g>
     </g>
     <g id="text_4">
      <!-- 60 -->
      <g transform="translate(116.186548 139.61351)scale(0.08 -0.08)">
       <defs>
        <path d="M 49.75 54.046875 
L 41.015625 53.375 
Q 39.84375 58.546875 37.703125 60.890625 
Q 34.125 64.65625 28.90625 64.65625 
Q 24.703125 64.65625 21.53125 62.3125 
Q 17.390625 59.28125 14.984375 53.46875 
Q 12.59375 47.65625 12.5 36.921875 
Q 15.671875 41.75 20.265625 44.09375 
Q 24.859375 46.4375 29.890625 46.4375 
Q 38.671875 46.4375 44.84375 39.96875 
Q 51.03125 33.5 51.03125 23.25 
Q 51.03125 16.5 48.125 10.71875 
Q 45.21875 4.9375 40.140625 1.859375 
Q 35.0625 -1.21875 28.609375 -1.21875 
Q 17.625 -1.21875 10.6875 6.859375 
Q 3.765625 14.9375 3.765625 33.5 
Q 3.765625 54.25 11.421875 63.671875 
Q 18.109375 71.875 29.4375 71.875 
Q 37.890625 71.875 43.28125 67.140625 
Q 48.6875 62.40625 49.75 54.046875 
z
M 13.875 23.1875 
Q 13.875 18.65625 15.796875 14.5 
Q 17.71875 10.359375 21.1875 8.171875 
Q 24.65625 6 28.46875 6 
Q 34.03125 6 38.03125 10.484375 
Q 42.046875 14.984375 42.046875 22.703125 
Q 42.046875 30.125 38.078125 34.390625 
Q 34.125 38.671875 28.125 38.671875 
Q 22.171875 38.671875 18.015625 34.390625 
Q 13.875 30.125 13.875 23.1875 
z
" id="ArialMT-54"/>
       </defs>
       <use xlink:href="#ArialMT-54"/>
       <use x="55.615234" xlink:href="#ArialMT-48"/>
      </g>
     </g>
    </g>
    <g id="xtick_5">
     <g id="line2d_5">
      <g>
       <use style="stroke:#000000;stroke-width:0.8;" x="148.520734" xlink:href="#ma28a4c6b20" y="126.88726"/>
      </g>
     </g>
     <g id="text_5">
      <!-- 80 -->
      <g transform="translate(144.071984 139.61351)scale(0.08 -0.08)">
       <defs>
        <path d="M 17.671875 38.8125 
Q 12.203125 40.828125 9.5625 44.53125 
Q 6.9375 48.25 6.9375 53.421875 
Q 6.9375 61.234375 12.546875 66.546875 
Q 18.171875 71.875 27.484375 71.875 
Q 36.859375 71.875 42.578125 66.421875 
Q 48.296875 60.984375 48.296875 53.171875 
Q 48.296875 48.1875 45.671875 44.5 
Q 43.0625 40.828125 37.75 38.8125 
Q 44.34375 36.671875 47.78125 31.875 
Q 51.21875 27.09375 51.21875 20.453125 
Q 51.21875 11.28125 44.71875 5.03125 
Q 38.234375 -1.21875 27.640625 -1.21875 
Q 17.046875 -1.21875 10.546875 5.046875 
Q 4.046875 11.328125 4.046875 20.703125 
Q 4.046875 27.6875 7.59375 32.390625 
Q 11.140625 37.109375 17.671875 38.8125 
z
M 15.921875 53.71875 
Q 15.921875 48.640625 19.1875 45.40625 
Q 22.46875 42.1875 27.6875 42.1875 
Q 32.765625 42.1875 36.015625 45.375 
Q 39.265625 48.578125 39.265625 53.21875 
Q 39.265625 58.0625 35.90625 61.359375 
Q 32.5625 64.65625 27.59375 64.65625 
Q 22.5625 64.65625 19.234375 61.421875 
Q 15.921875 58.203125 15.921875 53.71875 
z
M 13.09375 20.65625 
Q 13.09375 16.890625 14.875 13.375 
Q 16.65625 9.859375 20.171875 7.921875 
Q 23.6875 6 27.734375 6 
Q 34.03125 6 38.125 10.046875 
Q 42.234375 14.109375 42.234375 20.359375 
Q 42.234375 26.703125 38.015625 30.859375 
Q 33.796875 35.015625 27.4375 35.015625 
Q 21.234375 35.015625 17.15625 30.90625 
Q 13.09375 26.8125 13.09375 20.65625 
z
" id="ArialMT-56"/>
       </defs>
       <use xlink:href="#ArialMT-56"/>
       <use x="55.615234" xlink:href="#ArialMT-48"/>
      </g>
     </g>
    </g>
    <g id="xtick_6">
     <g id="line2d_6">
      <g>
       <use style="stroke:#000000;stroke-width:0.8;" x="176.40617" xlink:href="#ma28a4c6b20" y="126.88726"/>
      </g>
     </g>
     <g id="text_6">
      <!-- 100 -->
      <g transform="translate(169.733045 139.61351)scale(0.08 -0.08)">
       <defs>
        <path d="M 37.25 0 
L 28.46875 0 
L 28.46875 56 
Q 25.296875 52.984375 20.140625 49.953125 
Q 14.984375 46.921875 10.890625 45.40625 
L 10.890625 53.90625 
Q 18.265625 57.375 23.78125 62.296875 
Q 29.296875 67.234375 31.59375 71.875 
L 37.25 71.875 
z
" id="ArialMT-49"/>
       </defs>
       <use xlink:href="#ArialMT-49"/>
       <use x="55.615234" xlink:href="#ArialMT-48"/>
       <use x="111.230469" xlink:href="#ArialMT-48"/>
      </g>
     </g>
    </g>
    <g id="xtick_7">
     <g id="line2d_7">
      <g>
       <use style="stroke:#000000;stroke-width:0.8;" x="204.291606" xlink:href="#ma28a4c6b20" y="126.88726"/>
      </g>
     </g>
     <g id="text_7">
      <!-- 120 -->
      <g transform="translate(197.618481 139.61351)scale(0.08 -0.08)">
       <use xlink:href="#ArialMT-49"/>
       <use x="55.615234" xlink:href="#ArialMT-50"/>
       <use x="111.230469" xlink:href="#ArialMT-48"/>
      </g>
     </g>
    </g>
    <g id="xtick_8">
     <g id="line2d_8">
      <g>
       <use style="stroke:#000000;stroke-width:0.8;" x="232.177042" xlink:href="#ma28a4c6b20" y="126.88726"/>
      </g>
     </g>
     <g id="text_8">
      <!-- 140 -->
      <g transform="translate(225.503917 139.61351)scale(0.08 -0.08)">
       <use xlink:href="#ArialMT-49"/>
       <use x="55.615234" xlink:href="#ArialMT-52"/>
       <use x="111.230469" xlink:href="#ArialMT-48"/>
      </g>
     </g>
    </g>
    <g id="text_9">
     <!-- Time step -->
     <g transform="translate(124.14 150.92976)scale(0.08 -0.08)">
      <defs>
       <path d="M 25.921875 0 
L 25.921875 63.140625 
L 2.34375 63.140625 
L 2.34375 71.578125 
L 59.078125 71.578125 
L 59.078125 63.140625 
L 35.40625 63.140625 
L 35.40625 0 
z
" id="ArialMT-84"/>
       <path d="M 6.640625 61.46875 
L 6.640625 71.578125 
L 15.4375 71.578125 
L 15.4375 61.46875 
z
M 6.640625 0 
L 6.640625 51.859375 
L 15.4375 51.859375 
L 15.4375 0 
z
" id="ArialMT-105"/>
       <path d="M 6.59375 0 
L 6.59375 51.859375 
L 14.453125 51.859375 
L 14.453125 44.578125 
Q 16.890625 48.390625 20.9375 50.703125 
Q 25 53.03125 30.171875 53.03125 
Q 35.9375 53.03125 39.625 50.640625 
Q 43.3125 48.25 44.828125 43.953125 
Q 50.984375 53.03125 60.84375 53.03125 
Q 68.5625 53.03125 72.703125 48.75 
Q 76.859375 44.484375 76.859375 35.59375 
L 76.859375 0 
L 68.109375 0 
L 68.109375 32.671875 
Q 68.109375 37.9375 67.25 40.25 
Q 66.40625 42.578125 64.15625 43.984375 
Q 61.921875 45.40625 58.890625 45.40625 
Q 53.421875 45.40625 49.796875 41.765625 
Q 46.1875 38.140625 46.1875 30.125 
L 46.1875 0 
L 37.40625 0 
L 37.40625 33.6875 
Q 37.40625 39.546875 35.25 42.46875 
Q 33.109375 45.40625 28.21875 45.40625 
Q 24.515625 45.40625 21.359375 43.453125 
Q 18.21875 41.5 16.796875 37.734375 
Q 15.375 33.984375 15.375 26.90625 
L 15.375 0 
z
" id="ArialMT-109"/>
       <path d="M 42.09375 16.703125 
L 51.171875 15.578125 
Q 49.03125 7.625 43.21875 3.21875 
Q 37.40625 -1.171875 28.375 -1.171875 
Q 17 -1.171875 10.328125 5.828125 
Q 3.65625 12.84375 3.65625 25.484375 
Q 3.65625 38.578125 10.390625 45.796875 
Q 17.140625 53.03125 27.875 53.03125 
Q 38.28125 53.03125 44.875 45.953125 
Q 51.46875 38.875 51.46875 26.03125 
Q 51.46875 25.25 51.421875 23.6875 
L 12.75 23.6875 
Q 13.234375 15.140625 17.578125 10.59375 
Q 21.921875 6.0625 28.421875 6.0625 
Q 33.25 6.0625 36.671875 8.59375 
Q 40.09375 11.140625 42.09375 16.703125 
z
M 13.234375 30.90625 
L 42.1875 30.90625 
Q 41.609375 37.453125 38.875 40.71875 
Q 34.671875 45.796875 27.984375 45.796875 
Q 21.921875 45.796875 17.796875 41.75 
Q 13.671875 37.703125 13.234375 30.90625 
z
" id="ArialMT-101"/>
       <path id="ArialMT-32"/>
       <path d="M 3.078125 15.484375 
L 11.765625 16.84375 
Q 12.5 11.625 15.84375 8.84375 
Q 19.1875 6.0625 25.203125 6.0625 
Q 31.25 6.0625 34.171875 8.515625 
Q 37.109375 10.984375 37.109375 14.3125 
Q 37.109375 17.28125 34.515625 19 
Q 32.71875 20.171875 25.53125 21.96875 
Q 15.875 24.421875 12.140625 26.203125 
Q 8.40625 27.984375 6.46875 31.125 
Q 4.546875 34.28125 4.546875 38.09375 
Q 4.546875 41.546875 6.125 44.5 
Q 7.71875 47.46875 10.453125 49.421875 
Q 12.5 50.921875 16.03125 51.96875 
Q 19.578125 53.03125 23.640625 53.03125 
Q 29.734375 53.03125 34.34375 51.265625 
Q 38.96875 49.515625 41.15625 46.5 
Q 43.359375 43.5 44.1875 38.484375 
L 35.59375 37.3125 
Q 35.015625 41.3125 32.203125 43.546875 
Q 29.390625 45.796875 24.265625 45.796875 
Q 18.21875 45.796875 15.625 43.796875 
Q 13.03125 41.796875 13.03125 39.109375 
Q 13.03125 37.40625 14.109375 36.03125 
Q 15.1875 34.625 17.484375 33.6875 
Q 18.796875 33.203125 25.25 31.453125 
Q 34.578125 28.953125 38.25 27.359375 
Q 41.9375 25.78125 44.03125 22.75 
Q 46.140625 19.734375 46.140625 15.234375 
Q 46.140625 10.84375 43.578125 6.953125 
Q 41.015625 3.078125 36.171875 0.953125 
Q 31.34375 -1.171875 25.25 -1.171875 
Q 15.140625 -1.171875 9.84375 3.03125 
Q 4.546875 7.234375 3.078125 15.484375 
z
" id="ArialMT-115"/>
       <path d="M 25.78125 7.859375 
L 27.046875 0.09375 
Q 23.34375 -0.6875 20.40625 -0.6875 
Q 15.625 -0.6875 12.984375 0.828125 
Q 10.359375 2.34375 9.28125 4.8125 
Q 8.203125 7.28125 8.203125 15.1875 
L 8.203125 45.015625 
L 1.765625 45.015625 
L 1.765625 51.859375 
L 8.203125 51.859375 
L 8.203125 64.703125 
L 16.9375 69.96875 
L 16.9375 51.859375 
L 25.78125 51.859375 
L 25.78125 45.015625 
L 16.9375 45.015625 
L 16.9375 14.703125 
Q 16.9375 10.9375 17.40625 9.859375 
Q 17.875 8.796875 18.921875 8.15625 
Q 19.96875 7.515625 21.921875 7.515625 
Q 23.390625 7.515625 25.78125 7.859375 
z
" id="ArialMT-116"/>
       <path d="M 6.59375 -19.875 
L 6.59375 51.859375 
L 14.59375 51.859375 
L 14.59375 45.125 
Q 17.4375 49.078125 21 51.046875 
Q 24.5625 53.03125 29.640625 53.03125 
Q 36.28125 53.03125 41.359375 49.609375 
Q 46.4375 46.1875 49.015625 39.953125 
Q 51.609375 33.734375 51.609375 26.3125 
Q 51.609375 18.359375 48.75 11.984375 
Q 45.90625 5.609375 40.453125 2.21875 
Q 35.015625 -1.171875 29 -1.171875 
Q 24.609375 -1.171875 21.109375 0.6875 
Q 17.625 2.546875 15.375 5.375 
L 15.375 -19.875 
z
M 14.546875 25.640625 
Q 14.546875 15.625 18.59375 10.84375 
Q 22.65625 6.0625 28.421875 6.0625 
Q 34.28125 6.0625 38.453125 11.015625 
Q 42.625 15.96875 42.625 26.375 
Q 42.625 36.28125 38.546875 41.203125 
Q 34.46875 46.140625 28.8125 46.140625 
Q 23.1875 46.140625 18.859375 40.890625 
Q 14.546875 35.640625 14.546875 25.640625 
z
" id="ArialMT-112"/>
      </defs>
      <use xlink:href="#ArialMT-84"/>
      <use x="57.333984" xlink:href="#ArialMT-105"/>
      <use x="79.550781" xlink:href="#ArialMT-109"/>
      <use x="162.851562" xlink:href="#ArialMT-101"/>
      <use x="218.466797" xlink:href="#ArialMT-32"/>
      <use x="246.25" xlink:href="#ArialMT-115"/>
      <use x="296.25" xlink:href="#ArialMT-116"/>
      <use x="324.033203" xlink:href="#ArialMT-101"/>
      <use x="379.648438" xlink:href="#ArialMT-112"/>
     </g>
    </g>
   </g>
   <g id="matplotlib.axis_2">
    <g id="ytick_1">
     <g id="line2d_9">
      <defs>
       <path d="M 0 0 
L -3.5 0 
" id="m7748950c2d" style="stroke:#000000;stroke-width:0.8;"/>
      </defs>
      <g>
       <use style="stroke:#000000;stroke-width:0.8;" x="36.97899" xlink:href="#m7748950c2d" y="126.88726"/>
      </g>
     </g>
     <g id="text_10">
      <!-- 0.05 -->
      <g transform="translate(14.41024 129.750385)scale(0.08 -0.08)">
       <defs>
        <path d="M 9.078125 0 
L 9.078125 10.015625 
L 19.09375 10.015625 
L 19.09375 0 
z
" id="ArialMT-46"/>
        <path d="M 4.15625 18.75 
L 13.375 19.53125 
Q 14.40625 12.796875 18.140625 9.390625 
Q 21.875 6 27.15625 6 
Q 33.5 6 37.890625 10.78125 
Q 42.28125 15.578125 42.28125 23.484375 
Q 42.28125 31 38.0625 35.34375 
Q 33.84375 39.703125 27 39.703125 
Q 22.75 39.703125 19.328125 37.765625 
Q 15.921875 35.84375 13.96875 32.765625 
L 5.71875 33.84375 
L 12.640625 70.609375 
L 48.25 70.609375 
L 48.25 62.203125 
L 19.671875 62.203125 
L 15.828125 42.96875 
Q 22.265625 47.46875 29.34375 47.46875 
Q 38.71875 47.46875 45.15625 40.96875 
Q 51.609375 34.46875 51.609375 24.265625 
Q 51.609375 14.546875 45.953125 7.46875 
Q 39.0625 -1.21875 27.15625 -1.21875 
Q 17.390625 -1.21875 11.203125 4.25 
Q 5.03125 9.71875 4.15625 18.75 
z
" id="ArialMT-53"/>
       </defs>
       <use xlink:href="#ArialMT-48"/>
       <use x="55.615234" xlink:href="#ArialMT-46"/>
       <use x="83.398438" xlink:href="#ArialMT-48"/>
       <use x="139.013672" xlink:href="#ArialMT-53"/>
      </g>
     </g>
    </g>
    <g id="ytick_2">
     <g id="line2d_10">
      <g>
       <use style="stroke:#000000;stroke-width:0.8;" x="36.97899" xlink:href="#m7748950c2d" y="99.356811"/>
      </g>
     </g>
     <g id="text_11">
      <!-- 0.10 -->
      <g transform="translate(14.41024 102.219936)scale(0.08 -0.08)">
       <use xlink:href="#ArialMT-48"/>
       <use x="55.615234" xlink:href="#ArialMT-46"/>
       <use x="83.398438" xlink:href="#ArialMT-49"/>
       <use x="139.013672" xlink:href="#ArialMT-48"/>
      </g>
     </g>
    </g>
    <g id="ytick_3">
     <g id="line2d_11">
      <g>
       <use style="stroke:#000000;stroke-width:0.8;" x="36.97899" xlink:href="#m7748950c2d" y="71.826362"/>
      </g>
     </g>
     <g id="text_12">
      <!-- 0.15 -->
      <g transform="translate(14.41024 74.689487)scale(0.08 -0.08)">
       <use xlink:href="#ArialMT-48"/>
       <use x="55.615234" xlink:href="#ArialMT-46"/>
       <use x="83.398438" xlink:href="#ArialMT-49"/>
       <use x="139.013672" xlink:href="#ArialMT-53"/>
      </g>
     </g>
    </g>
    <g id="ytick_4">
     <g id="line2d_12">
      <g>
       <use style="stroke:#000000;stroke-width:0.8;" x="36.97899" xlink:href="#m7748950c2d" y="44.295913"/>
      </g>
     </g>
     <g id="text_13">
      <!-- 0.20 -->
      <g transform="translate(14.41024 47.159038)scale(0.08 -0.08)">
       <use xlink:href="#ArialMT-48"/>
       <use x="55.615234" xlink:href="#ArialMT-46"/>
       <use x="83.398438" xlink:href="#ArialMT-50"/>
       <use x="139.013672" xlink:href="#ArialMT-48"/>
      </g>
     </g>
    </g>
    <g id="ytick_5">
     <g id="line2d_13">
      <g>
       <use style="stroke:#000000;stroke-width:0.8;" x="36.97899" xlink:href="#m7748950c2d" y="16.765464"/>
      </g>
     </g>
     <g id="text_14">
      <!-- 0.25 -->
      <g transform="translate(14.41024 19.628589)scale(0.08 -0.08)">
       <use xlink:href="#ArialMT-48"/>
       <use x="55.615234" xlink:href="#ArialMT-46"/>
       <use x="83.398438" xlink:href="#ArialMT-50"/>
       <use x="139.013672" xlink:href="#ArialMT-53"/>
      </g>
     </g>
    </g>
    <g id="text_15">
     <!-- Learning rate -->
     <g transform="translate(8.72649 88.51375)rotate(-90)scale(0.08 -0.08)">
      <defs>
       <path d="M 7.328125 0 
L 7.328125 71.578125 
L 16.796875 71.578125 
L 16.796875 8.453125 
L 52.046875 8.453125 
L 52.046875 0 
z
" id="ArialMT-76"/>
       <path d="M 40.4375 6.390625 
Q 35.546875 2.25 31.03125 0.53125 
Q 26.515625 -1.171875 21.34375 -1.171875 
Q 12.796875 -1.171875 8.203125 3 
Q 3.609375 7.171875 3.609375 13.671875 
Q 3.609375 17.484375 5.34375 20.625 
Q 7.078125 23.78125 9.890625 25.6875 
Q 12.703125 27.59375 16.21875 28.5625 
Q 18.796875 29.25 24.03125 29.890625 
Q 34.671875 31.15625 39.703125 32.90625 
Q 39.75 34.71875 39.75 35.203125 
Q 39.75 40.578125 37.25 42.78125 
Q 33.890625 45.75 27.25 45.75 
Q 21.046875 45.75 18.09375 43.578125 
Q 15.140625 41.40625 13.71875 35.890625 
L 5.125 37.0625 
Q 6.296875 42.578125 8.984375 45.96875 
Q 11.671875 49.359375 16.75 51.1875 
Q 21.828125 53.03125 28.515625 53.03125 
Q 35.15625 53.03125 39.296875 51.46875 
Q 43.453125 49.90625 45.40625 47.53125 
Q 47.359375 45.171875 48.140625 41.546875 
Q 48.578125 39.3125 48.578125 33.453125 
L 48.578125 21.734375 
Q 48.578125 9.46875 49.140625 6.21875 
Q 49.703125 2.984375 51.375 0 
L 42.1875 0 
Q 40.828125 2.734375 40.4375 6.390625 
z
M 39.703125 26.03125 
Q 34.90625 24.078125 25.34375 22.703125 
Q 19.921875 21.921875 17.671875 20.9375 
Q 15.4375 19.96875 14.203125 18.09375 
Q 12.984375 16.21875 12.984375 13.921875 
Q 12.984375 10.40625 15.640625 8.0625 
Q 18.3125 5.71875 23.4375 5.71875 
Q 28.515625 5.71875 32.46875 7.9375 
Q 36.421875 10.15625 38.28125 14.015625 
Q 39.703125 17 39.703125 22.796875 
z
" id="ArialMT-97"/>
       <path d="M 6.5 0 
L 6.5 51.859375 
L 14.40625 51.859375 
L 14.40625 44 
Q 17.4375 49.515625 20 51.265625 
Q 22.5625 53.03125 25.640625 53.03125 
Q 30.078125 53.03125 34.671875 50.203125 
L 31.640625 42.046875 
Q 28.421875 43.953125 25.203125 43.953125 
Q 22.3125 43.953125 20.015625 42.21875 
Q 17.71875 40.484375 16.75 37.40625 
Q 15.28125 32.71875 15.28125 27.15625 
L 15.28125 0 
z
" id="ArialMT-114"/>
       <path d="M 6.59375 0 
L 6.59375 51.859375 
L 14.5 51.859375 
L 14.5 44.484375 
Q 20.21875 53.03125 31 53.03125 
Q 35.6875 53.03125 39.625 51.34375 
Q 43.5625 49.65625 45.515625 46.921875 
Q 47.46875 44.1875 48.25 40.4375 
Q 48.734375 37.984375 48.734375 31.890625 
L 48.734375 0 
L 39.9375 0 
L 39.9375 31.546875 
Q 39.9375 36.921875 38.90625 39.578125 
Q 37.890625 42.234375 35.28125 43.8125 
Q 32.671875 45.40625 29.15625 45.40625 
Q 23.53125 45.40625 19.453125 41.84375 
Q 15.375 38.28125 15.375 28.328125 
L 15.375 0 
z
" id="ArialMT-110"/>
       <path d="M 4.984375 -4.296875 
L 13.53125 -5.5625 
Q 14.0625 -9.515625 16.5 -11.328125 
Q 19.78125 -13.765625 25.4375 -13.765625 
Q 31.546875 -13.765625 34.859375 -11.328125 
Q 38.1875 -8.890625 39.359375 -4.5 
Q 40.046875 -1.8125 39.984375 6.78125 
Q 34.234375 0 25.640625 0 
Q 14.9375 0 9.078125 7.71875 
Q 3.21875 15.4375 3.21875 26.21875 
Q 3.21875 33.640625 5.90625 39.90625 
Q 8.59375 46.1875 13.6875 49.609375 
Q 18.796875 53.03125 25.6875 53.03125 
Q 34.859375 53.03125 40.828125 45.609375 
L 40.828125 51.859375 
L 48.921875 51.859375 
L 48.921875 7.03125 
Q 48.921875 -5.078125 46.453125 -10.125 
Q 44 -15.1875 38.640625 -18.109375 
Q 33.296875 -21.046875 25.484375 -21.046875 
Q 16.21875 -21.046875 10.5 -16.875 
Q 4.78125 -12.703125 4.984375 -4.296875 
z
M 12.25 26.859375 
Q 12.25 16.65625 16.296875 11.96875 
Q 20.359375 7.28125 26.46875 7.28125 
Q 32.515625 7.28125 36.609375 11.9375 
Q 40.71875 16.609375 40.71875 26.5625 
Q 40.71875 36.078125 36.5 40.90625 
Q 32.28125 45.75 26.3125 45.75 
Q 20.453125 45.75 16.34375 40.984375 
Q 12.25 36.234375 12.25 26.859375 
z
" id="ArialMT-103"/>
      </defs>
      <use xlink:href="#ArialMT-76"/>
      <use x="55.615234" xlink:href="#ArialMT-101"/>
      <use x="111.230469" xlink:href="#ArialMT-97"/>
      <use x="166.845703" xlink:href="#ArialMT-114"/>
      <use x="200.146484" xlink:href="#ArialMT-110"/>
      <use x="255.761719" xlink:href="#ArialMT-105"/>
      <use x="277.978516" xlink:href="#ArialMT-110"/>
      <use x="333.59375" xlink:href="#ArialMT-103"/>
      <use x="389.208984" xlink:href="#ArialMT-32"/>
      <use x="416.992188" xlink:href="#ArialMT-114"/>
      <use x="450.292969" xlink:href="#ArialMT-97"/>
      <use x="505.908203" xlink:href="#ArialMT-116"/>
      <use x="533.691406" xlink:href="#ArialMT-101"/>
     </g>
    </g>
   </g>
   <g id="line2d_14">
    <path clip-path="url(#p7cc5c7e168)" d="M 37.308935 -1 
L 38.373262 34.167186 
L 39.767534 57.33279 
L 41.161805 70.384483 
L 42.556077 78.991866 
L 43.950349 85.446896 
L 45.344621 90.046133 
L 46.738893 93.750145 
L 48.133164 96.572272 
L 49.527436 98.751368 
L 50.921708 100.701674 
L 53.710252 103.347211 
L 56.498795 105.389406 
L 59.287339 107.142295 
L 60.681611 107.361983 
L 62.075882 108.126822 
L 64.864426 109.339164 
L 66.258698 109.196412 
L 67.65297 109.807966 
L 70.441513 110.233432 
L 71.835785 110.815236 
L 73.230057 110.832127 
L 74.624329 110.52069 
L 76.0186 110.636597 
L 77.412872 111.574495 
L 78.807144 111.937339 
L 80.201416 112.065424 
L 81.595688 112.405024 
L 84.384231 112.116881 
L 85.778503 112.277581 
L 87.172775 112.950566 
L 88.567047 113.078889 
L 89.961318 112.750221 
L 92.749862 113.349667 
L 95.538406 113.475396 
L 96.932677 113.713179 
L 101.115493 113.705141 
L 102.509765 113.91803 
L 103.904036 113.65639 
L 106.69258 114.15804 
L 108.086852 113.902261 
L 109.481124 113.817303 
L 110.875395 114.344623 
L 112.269667 114.07447 
L 113.663939 114.056417 
L 115.058211 114.381122 
L 116.452483 114.273558 
L 119.241026 114.432067 
L 122.02957 114.059369 
L 123.423842 114.121875 
L 124.818113 114.05652 
L 126.212385 114.644712 
L 127.606657 115.078212 
L 130.395201 114.792542 
L 133.183744 114.573052 
L 134.578016 114.310788 
L 137.36656 114.45911 
L 140.155103 114.920999 
L 141.549375 114.712878 
L 142.943647 106.875935 
L 145.73219 68.197985 
L 147.126462 56.231407 
L 148.520734 53.002275 
L 149.915006 55.030913 
L 151.309278 60.074644 
L 154.097821 71.000804 
L 155.492093 75.964091 
L 156.886365 80.438627 
L 158.280637 84.516196 
L 159.674908 87.865362 
L 163.857724 95.15016 
L 168.040539 100.431934 
L 169.434811 101.512799 
L 172.223355 104.044556 
L 173.617626 104.875648 
L 175.011898 105.125781 
L 176.40617 106.072837 
L 179.194714 107.140475 
L 180.588985 107.952089 
L 181.983257 108.166656 
L 186.166073 110.145641 
L 188.954616 110.722592 
L 190.348888 111.022498 
L 191.74316 111.698804 
L 193.137432 112.091934 
L 194.531703 112.060769 
L 195.925975 112.201472 
L 197.320247 112.713941 
L 198.714519 112.920298 
L 201.503062 113.118357 
L 205.685878 113.854697 
L 208.474421 114.180691 
L 209.868693 114.20431 
L 211.262965 114.076763 
L 212.657237 114.422223 
L 214.051509 114.638097 
L 215.44578 114.560815 
L 216.840052 114.921809 
L 218.234324 114.856033 
L 221.022868 115.261586 
L 222.417139 115.536779 
L 223.811411 115.003746 
L 226.599955 115.62907 
L 227.994227 115.631334 
L 232.177042 116.079051 
L 236.359857 116.215983 
L 237.754129 115.929551 
L 240.542673 116.514227 
L 241.936945 116.552756 
L 243.331216 116.275779 
L 247.514032 116.334884 
L 248.908304 108.077061 
L 250.12 91.840446 
L 250.12 91.840446 
" style="fill:none;stroke:#ffa600;stroke-linecap:square;"/>
   </g>
   <g id="line2d_15">
    <path clip-path="url(#p7cc5c7e168)" d="M 141.549375 126.88726 
L 141.549375 3.00024 
" style="fill:none;stroke:#000000;stroke-linecap:square;"/>
   </g>
   <g id="patch_3">
    <path d="M 36.97899 126.88726 
L 36.97899 3.00024 
" style="fill:none;stroke:#000000;stroke-linecap:square;stroke-linejoin:miter;stroke-width:0.8;"/>
   </g>
   <g id="patch_4">
    <path d="M 36.97899 126.88726 
L 246.11976 126.88726 
" style="fill:none;stroke:#000000;stroke-linecap:square;stroke-linejoin:miter;stroke-width:0.8;"/>
   </g>
   <g id="patch_5">
    <path d="M 114.362947 12.298549 
Q 127.956161 15.220268 140.456305 17.907043 
" style="fill:none;stroke:#000000;stroke-linecap:round;"/>
    <path d="M 137.663982 15.67032 
L 140.456305 17.907043 
L 136.991533 18.798868 
" style="fill:none;stroke:#000000;stroke-linecap:round;"/>
   </g>
   <g id="text_16">
    <!-- Change point -->
    <g transform="translate(64.772047 8.82399)scale(0.08 -0.08)">
     <defs>
      <path d="M 58.796875 25.09375 
L 68.265625 22.703125 
Q 65.28125 11.03125 57.546875 4.90625 
Q 49.8125 -1.21875 38.625 -1.21875 
Q 27.046875 -1.21875 19.796875 3.484375 
Q 12.546875 8.203125 8.765625 17.140625 
Q 4.984375 26.078125 4.984375 36.328125 
Q 4.984375 47.515625 9.25 55.828125 
Q 13.53125 64.15625 21.40625 68.46875 
Q 29.296875 72.796875 38.765625 72.796875 
Q 49.515625 72.796875 56.828125 67.328125 
Q 64.15625 61.859375 67.046875 51.953125 
L 57.71875 49.75 
Q 55.21875 57.5625 50.484375 61.125 
Q 45.75 64.703125 38.578125 64.703125 
Q 30.328125 64.703125 24.78125 60.734375 
Q 19.234375 56.78125 16.984375 50.109375 
Q 14.75 43.453125 14.75 36.375 
Q 14.75 27.25 17.40625 20.4375 
Q 20.0625 13.625 25.671875 10.25 
Q 31.296875 6.890625 37.84375 6.890625 
Q 45.796875 6.890625 51.3125 11.46875 
Q 56.84375 16.0625 58.796875 25.09375 
z
" id="ArialMT-67"/>
      <path d="M 6.59375 0 
L 6.59375 71.578125 
L 15.375 71.578125 
L 15.375 45.90625 
Q 21.53125 53.03125 30.90625 53.03125 
Q 36.671875 53.03125 40.921875 50.75 
Q 45.171875 48.484375 47 44.484375 
Q 48.828125 40.484375 48.828125 32.859375 
L 48.828125 0 
L 40.046875 0 
L 40.046875 32.859375 
Q 40.046875 39.453125 37.1875 42.453125 
Q 34.328125 45.453125 29.109375 45.453125 
Q 25.203125 45.453125 21.75 43.421875 
Q 18.3125 41.40625 16.84375 37.9375 
Q 15.375 34.46875 15.375 28.375 
L 15.375 0 
z
" id="ArialMT-104"/>
      <path d="M 3.328125 25.921875 
Q 3.328125 40.328125 11.328125 47.265625 
Q 18.015625 53.03125 27.640625 53.03125 
Q 38.328125 53.03125 45.109375 46.015625 
Q 51.90625 39.015625 51.90625 26.65625 
Q 51.90625 16.65625 48.90625 10.90625 
Q 45.90625 5.171875 40.15625 2 
Q 34.421875 -1.171875 27.640625 -1.171875 
Q 16.75 -1.171875 10.03125 5.8125 
Q 3.328125 12.796875 3.328125 25.921875 
z
M 12.359375 25.921875 
Q 12.359375 15.96875 16.703125 11.015625 
Q 21.046875 6.0625 27.640625 6.0625 
Q 34.1875 6.0625 38.53125 11.03125 
Q 42.875 16.015625 42.875 26.21875 
Q 42.875 35.84375 38.5 40.796875 
Q 34.125 45.75 27.640625 45.75 
Q 21.046875 45.75 16.703125 40.8125 
Q 12.359375 35.890625 12.359375 25.921875 
z
" id="ArialMT-111"/>
     </defs>
     <use xlink:href="#ArialMT-67"/>
     <use x="72.216797" xlink:href="#ArialMT-104"/>
     <use x="127.832031" xlink:href="#ArialMT-97"/>
     <use x="183.447266" xlink:href="#ArialMT-110"/>
     <use x="239.0625" xlink:href="#ArialMT-103"/>
     <use x="294.677734" xlink:href="#ArialMT-101"/>
     <use x="350.292969" xlink:href="#ArialMT-32"/>
     <use x="378.076172" xlink:href="#ArialMT-112"/>
     <use x="433.691406" xlink:href="#ArialMT-111"/>
     <use x="489.306641" xlink:href="#ArialMT-105"/>
     <use x="511.523438" xlink:href="#ArialMT-110"/>
     <use x="567.138672" xlink:href="#ArialMT-116"/>
    </g>
   </g>
  </g>
 </g>
 <defs>
  <clipPath id="p7cc5c7e168">
   <rect height="123.88702" width="209.14077" x="36.97899" y="3.00024"/>
  </clipPath>
 </defs>
</svg>
