<?xml version="1.0" encoding="utf-8" standalone="no"?>
<!DOCTYPE svg PUBLIC "-//W3C//DTD SVG 1.1//EN"
  "http://www.w3.org/Graphics/SVG/1.1/DTD/svg11.dtd">
<!-- Created with matplotlib (https://matplotlib.org/) -->
<svg height="155.52pt" version="1.1" viewBox="0 0 249.12 155.52" width="249.12pt" xmlns="http://www.w3.org/2000/svg" xmlns:xlink="http://www.w3.org/1999/xlink">
 <metadata>
  <rdf:RDF xmlns:cc="http://creativecommons.org/ns#" xmlns:dc="http://purl.org/dc/elements/1.1/" xmlns:rdf="http://www.w3.org/1999/02/22-rdf-syntax-ns#">
   <cc:Work>
    <dc:type rdf:resource="http://purl.org/dc/dcmitype/StillImage"/>
    <dc:date>2021-11-11T09:57:25.373620</dc:date>
    <dc:format>image/svg+xml</dc:format>
    <dc:creator>
     <cc:Agent>
      <dc:title>Matplotlib v3.3.4, https://matplotlib.org/</dc:title>
     </cc:Agent>
    </dc:creator>
   </cc:Work>
  </rdf:RDF>
 </metadata>
 <defs>
  <style type="text/css">*{stroke-linecap:butt;stroke-linejoin:round;}</style>
 </defs>
 <g id="figure_1">
  <g id="patch_1">
   <path d="M 0 155.52 
L 249.12 155.52 
L 249.12 0 
L 0 0 
z
" style="fill:#ffffff;"/>
  </g>
  <g id="axes_1">
   <g id="patch_2">
    <path d="M 36.97899 126.88726 
L 246.11976 126.88726 
L 246.11976 3.00024 
L 36.97899 3.00024 
z
" style="fill:#ffffff;"/>
   </g>
   <g id="PolyCollection_1">
    <path clip-path="url(#pb77762dcdb)" d="M 36.97899 -19.405354 
L 36.97899 -4.398565 
L 38.373262 37.730482 
L 39.767534 60.07518 
L 41.161805 73.105966 
L 42.556077 81.711732 
L 43.950349 88.109525 
L 45.344621 92.609592 
L 46.738893 96.22511 
L 48.133164 98.980807 
L 49.527436 101.113853 
L 50.921708 103.016653 
L 52.31598 104.31523 
L 53.710252 105.588699 
L 55.104523 106.598273 
L 56.498795 107.578848 
L 57.893067 108.467175 
L 59.287339 109.271498 
L 60.681611 109.48822 
L 62.075882 110.214011 
L 63.470154 110.829889 
L 64.864426 111.396587 
L 66.258698 111.276153 
L 67.65297 111.847527 
L 69.047241 112.060392 
L 70.441513 112.270014 
L 71.835785 112.821689 
L 73.230057 112.842826 
L 74.624329 112.565118 
L 76.0186 112.682056 
L 77.412872 113.550011 
L 78.807144 113.914128 
L 80.201416 114.051463 
L 81.595688 114.395797 
L 82.989959 114.24178 
L 84.384231 114.138576 
L 85.778503 114.286539 
L 87.172775 114.923963 
L 88.567047 115.057587 
L 89.961318 114.765868 
L 91.35559 115.04217 
L 92.749862 115.351327 
L 94.144134 115.398687 
L 95.538406 115.48827 
L 96.932677 115.71636 
L 98.326949 115.718244 
L 99.721221 115.8168 
L 101.115493 115.729208 
L 102.509765 115.928254 
L 103.904036 115.682294 
L 105.298308 115.882244 
L 106.69258 116.168761 
L 108.086852 115.929774 
L 109.481124 115.845273 
L 110.875395 116.335369 
L 112.269667 116.092356 
L 113.663939 116.079335 
L 115.058211 116.371258 
L 116.452483 116.297442 
L 117.846754 116.385372 
L 119.241026 116.437575 
L 120.635298 116.220942 
L 122.02957 116.095754 
L 123.423842 116.157775 
L 124.818113 116.102438 
L 126.212385 116.658156 
L 127.606657 117.071216 
L 129.000929 116.917134 
L 130.395201 116.826794 
L 131.789472 116.733033 
L 133.183744 116.600211 
L 134.578016 116.371072 
L 135.972288 116.389823 
L 137.36656 116.493273 
L 138.760831 116.68979 
L 140.155103 116.945264 
L 141.549375 116.75084 
L 142.943647 109.581454 
L 144.337919 91.417285 
L 145.73219 73.454483 
L 147.126462 61.879695 
L 148.520734 58.115109 
L 149.915006 59.523472 
L 151.309278 64.241678 
L 152.703549 69.679721 
L 154.097821 74.962708 
L 155.492093 79.819372 
L 156.886365 84.176267 
L 158.280637 88.141122 
L 159.674908 91.394184 
L 161.06918 93.80343 
L 162.463452 96.301071 
L 163.857724 98.409609 
L 165.251996 100.107727 
L 166.646267 101.965797 
L 168.040539 103.390464 
L 169.434811 104.414114 
L 170.829083 105.572188 
L 172.223355 106.773096 
L 173.617626 107.534598 
L 175.011898 107.779679 
L 176.40617 108.657465 
L 177.800442 109.090616 
L 179.194714 109.606263 
L 180.588985 110.336663 
L 181.983257 110.529634 
L 183.377529 111.148619 
L 184.771801 111.810158 
L 186.166073 112.348986 
L 187.560344 112.562519 
L 188.954616 112.853335 
L 190.348888 113.117259 
L 191.74316 113.755537 
L 193.137432 114.109235 
L 194.531703 114.06671 
L 195.925975 114.192921 
L 197.320247 114.649171 
L 198.714519 114.847208 
L 200.108791 114.879864 
L 201.503062 115.021856 
L 202.897334 115.238816 
L 204.291606 115.49055 
L 205.685878 115.674697 
L 207.08015 115.844987 
L 208.474421 115.95398 
L 209.868693 115.967563 
L 211.262965 115.848642 
L 212.657237 116.162269 
L 214.051509 116.346453 
L 215.44578 116.265703 
L 216.840052 116.606268 
L 218.234324 116.544139 
L 219.628596 116.708008 
L 221.022868 116.915777 
L 222.417139 117.151944 
L 223.811411 116.669733 
L 225.205683 116.900033 
L 226.599955 117.225815 
L 227.994227 117.237975 
L 229.388498 117.385168 
L 230.78277 117.490952 
L 232.177042 117.648664 
L 233.571314 117.688644 
L 234.965586 117.679877 
L 236.359857 117.769232 
L 237.754129 117.515275 
L 239.148401 117.813112 
L 240.542673 118.033837 
L 241.936945 118.069309 
L 243.331216 117.81732 
L 244.725488 117.812257 
L 246.11976 117.725423 
L 247.514032 117.865357 
L 248.908304 109.919067 
L 250.302575 92.962907 
L 251.696847 77.628093 
L 253.091119 66.969896 
L 254.485391 62.419344 
L 255.879663 62.885667 
L 257.273934 65.998199 
L 258.668206 70.496499 
L 260.062478 75.632211 
L 261.45675 80.028144 
L 262.851022 84.181212 
L 264.245293 87.763214 
L 265.639565 90.790626 
L 267.033837 93.446416 
L 268.428109 95.862763 
L 269.822381 98.040175 
L 271.216652 100.044849 
L 272.610924 101.605794 
L 274.005196 102.889421 
L 275.399468 104.048448 
L 276.79374 105.117659 
L 278.188011 106.061094 
L 279.582283 106.886952 
L 280.976555 107.569059 
L 282.370827 108.135365 
L 283.765099 108.78811 
L 285.15937 109.250266 
L 286.553642 109.402949 
L 287.947914 109.977502 
L 289.342186 110.435899 
L 290.736458 111.24223 
L 292.130729 111.635061 
L 293.525001 112.079777 
L 294.919273 112.381291 
L 296.313545 112.365999 
L 297.707817 112.323417 
L 299.102088 113.066645 
L 300.49636 113.072412 
L 301.890632 113.010014 
L 303.284904 112.958787 
L 304.679176 113.356104 
L 306.073447 113.60776 
L 307.467719 114.081713 
L 308.861991 114.110994 
L 310.256263 114.39486 
L 311.650535 114.647348 
L 313.044806 114.489846 
L 314.439078 114.586843 
L 315.83335 114.860803 
L 317.227622 115.364517 
L 318.621894 115.383284 
L 320.016165 115.447773 
L 321.410437 115.251449 
L 322.804709 115.096123 
L 324.198981 115.577066 
L 325.593253 115.936157 
L 326.987524 115.755638 
L 328.381796 115.875201 
L 329.776068 116.128952 
L 331.17034 115.960285 
L 332.564612 116.300939 
L 333.958883 116.157387 
L 335.353155 116.430821 
L 336.747427 116.16033 
L 338.141699 116.273875 
L 339.535971 116.09892 
L 340.930242 116.366338 
L 342.324514 116.194121 
L 343.718786 116.278854 
L 345.113058 116.654722 
L 346.50733 116.2023 
L 347.901601 116.253357 
L 349.295873 116.595169 
L 350.690145 116.349334 
L 352.084417 116.454294 
L 353.478689 116.569328 
L 354.87296 109.46792 
L 356.267232 91.307754 
L 357.661504 74.005478 
L 359.055776 63.11933 
L 360.450048 59.611254 
L 361.844319 60.64545 
L 363.238591 64.723052 
L 364.632863 70.019393 
L 366.027135 75.090965 
L 367.421407 79.909475 
L 368.815678 84.082966 
L 370.20995 87.856064 
L 371.604222 91.015057 
L 372.998494 93.764052 
L 374.392766 96.110243 
L 375.787037 98.182596 
L 377.181309 100.217329 
L 378.575581 101.888037 
L 379.969853 103.39516 
L 381.364125 104.576956 
L 382.758396 105.645833 
L 384.152668 106.009513 
L 385.54694 107.060164 
L 386.941212 108.007079 
L 388.335484 108.881465 
L 389.729755 109.585234 
L 391.124027 110.05351 
L 392.518299 110.338185 
L 393.912571 111.046492 
L 395.306843 111.476172 
L 396.701114 112.017066 
L 398.095386 112.104244 
L 399.489658 112.456609 
L 400.88393 112.651325 
L 402.278202 112.981484 
L 403.672473 113.398978 
L 405.066745 113.915833 
L 406.461017 114.20484 
L 407.855289 114.432155 
L 409.249561 114.822314 
L 410.643832 114.996451 
L 412.038104 115.187549 
L 413.432376 115.236371 
L 414.826648 115.174926 
L 416.22092 115.024836 
L 417.615191 114.899281 
L 419.009463 115.30085 
L 420.403735 115.845212 
L 421.798007 115.991276 
L 423.192279 116.166422 
L 424.58655 116.101284 
L 425.980822 116.113367 
L 427.375094 116.266175 
L 428.769366 116.656735 
L 430.163638 116.873051 
L 431.557909 116.781883 
L 432.952181 117.145311 
L 434.346453 116.845752 
L 435.740725 116.991175 
L 437.134997 116.947877 
L 438.529268 117.087596 
L 439.92354 116.866755 
L 441.317812 116.897556 
L 442.712084 116.909995 
L 444.106356 117.18506 
L 445.500627 117.373068 
L 446.894899 117.476017 
L 448.289171 117.566806 
L 449.683443 117.762931 
L 451.077715 117.7317 
L 452.471986 117.613321 
L 453.866258 117.6868 
L 455.26053 117.618679 
L 456.654802 117.752101 
L 458.049074 117.920235 
L 459.443345 117.909269 
L 460.837617 110.204218 
L 462.231889 93.334806 
L 463.626161 77.735154 
L 465.020433 67.698313 
L 466.414704 62.929482 
L 467.808976 62.947711 
L 469.203248 65.694933 
L 470.59752 70.134445 
L 471.991792 75.314364 
L 473.386063 80.070635 
L 474.780335 83.916019 
L 476.174607 87.638999 
L 477.568879 90.764058 
L 478.963151 93.354483 
L 480.357422 95.73553 
L 481.751694 97.814302 
L 483.145966 99.607791 
L 484.540238 101.265149 
L 485.93451 102.698829 
L 487.328781 104.015512 
L 488.723053 105.181359 
L 490.117325 105.954333 
L 491.511597 106.704428 
L 492.905869 107.560938 
L 494.30014 108.217417 
L 495.694412 108.969372 
L 497.088684 109.73352 
L 498.482956 109.959339 
L 499.877228 110.170658 
L 501.271499 110.622782 
L 502.665771 111.175486 
L 504.060043 111.653883 
L 505.454315 111.960385 
L 506.848587 112.122967 
L 508.242858 112.621509 
L 509.63713 112.681834 
L 511.031402 112.50516 
L 512.425674 112.975589 
L 513.819946 113.602361 
L 515.214217 113.600515 
L 516.608489 114.001164 
L 518.002761 114.099431 
L 519.397033 114.384514 
L 520.791305 114.487011 
L 522.185576 114.407612 
L 523.579848 114.546949 
L 524.97412 115.097486 
L 526.368392 115.261494 
L 527.762664 114.90744 
L 529.156935 115.296617 
L 530.551207 115.419479 
L 531.945479 115.042922 
L 533.339751 115.244653 
L 534.734023 115.370996 
L 536.128294 115.350289 
L 537.522566 115.543771 
L 538.916838 115.436896 
L 540.31111 115.344967 
L 541.705382 115.612151 
L 543.099653 115.966327 
L 544.493925 116.075228 
L 545.888197 116.173395 
L 547.282469 116.090189 
L 548.676741 116.159846 
L 550.071012 116.262707 
L 551.465284 116.527602 
L 552.859556 116.414271 
L 554.253828 116.454705 
L 555.6481 116.478578 
L 557.042371 116.828598 
L 558.436643 116.486377 
L 559.830915 116.545868 
L 561.225187 116.128685 
L 562.619459 116.38441 
L 564.01373 116.446824 
L 565.408002 116.523353 
L 565.408002 112.424361 
L 565.408002 112.424361 
L 564.01373 112.342957 
L 562.619459 112.275247 
L 561.225187 111.974536 
L 559.830915 112.416696 
L 558.436643 112.364166 
L 557.042371 112.767175 
L 555.6481 112.372846 
L 554.253828 112.354912 
L 552.859556 112.281813 
L 551.465284 112.433669 
L 550.071012 112.168519 
L 548.676741 112.000983 
L 547.282469 111.95376 
L 545.888197 112.052199 
L 544.493925 111.993227 
L 543.099653 111.831551 
L 541.705382 111.427721 
L 540.31111 111.131799 
L 538.916838 111.204797 
L 537.522566 111.337313 
L 536.128294 111.123817 
L 534.734023 111.172443 
L 533.339751 111.003251 
L 531.945479 110.803956 
L 530.551207 111.208516 
L 529.156935 111.076605 
L 527.762664 110.717215 
L 526.368392 111.030899 
L 524.97412 110.879323 
L 523.579848 110.255949 
L 522.185576 110.120231 
L 520.791305 110.188804 
L 519.397033 110.146439 
L 518.002761 109.809867 
L 516.608489 109.67129 
L 515.214217 109.273112 
L 513.819946 109.292262 
L 512.425674 108.582664 
L 511.031402 108.049013 
L 509.63713 108.293883 
L 508.242858 108.23689 
L 506.848587 107.694778 
L 505.454315 107.527925 
L 504.060043 107.19731 
L 502.665771 106.685506 
L 501.271499 106.159386 
L 499.877228 105.63539 
L 498.482956 105.418388 
L 497.088684 105.159872 
L 495.694412 104.349773 
L 494.30014 103.579504 
L 492.905869 102.870869 
L 491.511597 101.95557 
L 490.117325 101.160195 
L 488.723053 100.380268 
L 487.328781 99.137417 
L 485.93451 97.708805 
L 484.540238 96.20179 
L 483.145966 94.398168 
L 481.751694 92.479347 
L 480.357422 90.235883 
L 478.963151 87.67161 
L 477.568879 84.89817 
L 476.174607 81.453764 
L 474.780335 77.447254 
L 473.386063 73.246102 
L 471.991792 68.147725 
L 470.59752 62.608201 
L 469.203248 57.643951 
L 467.808976 54.10707 
L 466.414704 52.88645 
L 465.020433 56.701344 
L 463.626161 67.417104 
L 462.231889 86.217051 
L 460.837617 106.548368 
L 459.443345 114.887132 
L 458.049074 114.893251 
L 456.654802 114.692097 
L 455.26053 114.517857 
L 453.866258 114.623858 
L 452.471986 114.536249 
L 451.077715 114.654852 
L 449.683443 114.686662 
L 448.289171 114.47957 
L 446.894899 114.367591 
L 445.500627 114.244151 
L 444.106356 114.037262 
L 442.712084 113.700845 
L 441.317812 113.652119 
L 439.92354 113.621747 
L 438.529268 113.853035 
L 437.134997 113.658367 
L 435.740725 113.698349 
L 434.346453 113.540825 
L 432.952181 113.886292 
L 431.557909 113.474508 
L 430.163638 113.588614 
L 428.769366 113.29955 
L 427.375094 112.84181 
L 425.980822 112.680146 
L 424.58655 112.631357 
L 423.192279 112.704456 
L 421.798007 112.471555 
L 420.403735 112.317295 
L 419.009463 111.65053 
L 417.615191 111.154289 
L 416.22092 111.283767 
L 414.826648 111.438643 
L 413.432376 111.463803 
L 412.038104 111.423923 
L 410.643832 111.149908 
L 409.249561 110.956997 
L 407.855289 110.527902 
L 406.461017 110.252429 
L 405.066745 109.859733 
L 403.672473 109.264175 
L 402.278202 108.755122 
L 400.88393 108.327314 
L 399.489658 108.083228 
L 398.095386 107.665785 
L 396.701114 107.529001 
L 395.306843 106.872284 
L 393.912571 106.345929 
L 392.518299 105.525349 
L 391.124027 105.163078 
L 389.729755 104.616434 
L 388.335484 103.756328 
L 386.941212 102.723527 
L 385.54694 101.614219 
L 384.152668 100.340254 
L 382.758396 99.940973 
L 381.364125 98.689385 
L 379.969853 97.356557 
L 378.575581 95.691803 
L 377.181309 93.870322 
L 375.787037 91.607952 
L 374.392766 89.319687 
L 372.998494 86.778337 
L 371.604222 83.860083 
L 370.20995 80.527978 
L 368.815678 76.531116 
L 367.421407 72.152964 
L 366.027135 67.174549 
L 364.632863 61.946593 
L 363.238591 56.385305 
L 361.844319 51.704323 
L 360.450048 49.476426 
L 359.055776 51.985369 
L 357.661504 63.538959 
L 356.267232 82.861556 
L 354.87296 104.042706 
L 353.478689 112.4589 
L 352.084417 112.386665 
L 350.690145 112.252221 
L 349.295873 112.536225 
L 347.901601 112.145699 
L 346.50733 112.049523 
L 345.113058 112.57694 
L 343.718786 112.161397 
L 342.324514 112.077893 
L 340.930242 112.288034 
L 339.535971 111.931964 
L 338.141699 112.140864 
L 336.747427 112.019298 
L 335.353155 112.331667 
L 333.958883 112.022355 
L 332.564612 112.185259 
L 331.17034 111.833015 
L 329.776068 112.002315 
L 328.381796 111.747972 
L 326.987524 111.606701 
L 325.593253 111.856073 
L 324.198981 111.423609 
L 322.804709 110.860308 
L 321.410437 111.013972 
L 320.016165 111.242661 
L 318.621894 111.198245 
L 317.227622 111.185094 
L 315.83335 110.614008 
L 314.439078 110.301729 
L 313.044806 110.198321 
L 311.650535 110.393677 
L 310.256263 110.159814 
L 308.861991 109.780718 
L 307.467719 109.765972 
L 306.073447 109.226863 
L 304.679176 108.966364 
L 303.284904 108.562383 
L 301.890632 108.643738 
L 300.49636 108.701519 
L 299.102088 108.727528 
L 297.707817 107.89821 
L 296.313545 107.958542 
L 294.919273 108.021949 
L 293.525001 107.698815 
L 292.130729 107.235946 
L 290.736458 106.764017 
L 289.342186 105.934432 
L 287.947914 105.434485 
L 286.553642 104.803747 
L 285.15937 104.585652 
L 283.765099 104.159468 
L 282.370827 103.54227 
L 280.976555 102.903692 
L 279.582283 102.176662 
L 278.188011 101.314992 
L 276.79374 100.337936 
L 275.399468 99.202702 
L 274.005196 97.988724 
L 272.610924 96.601822 
L 271.216652 94.93606 
L 269.822381 92.751526 
L 268.428109 90.41667 
L 267.033837 87.766268 
L 265.639565 84.906415 
L 264.245293 81.605544 
L 262.851022 77.683007 
L 261.45675 73.244264 
L 260.062478 68.534923 
L 258.668206 63.008844 
L 257.273934 58.016399 
L 255.879663 54.04494 
L 254.485391 52.315572 
L 253.091119 55.878754 
L 251.696847 67.403394 
L 250.302575 85.825 
L 248.908304 106.235056 
L 247.514032 114.804411 
L 246.11976 114.657187 
L 244.725488 114.74255 
L 243.331216 114.734238 
L 241.936945 115.036202 
L 240.542673 114.994617 
L 239.148401 114.741311 
L 237.754129 114.343827 
L 236.359857 114.662734 
L 234.965586 114.557034 
L 233.571314 114.551241 
L 232.177042 114.509439 
L 230.78277 114.338936 
L 229.388498 114.186969 
L 227.994227 114.024692 
L 226.599955 114.032324 
L 225.205683 113.620436 
L 223.811411 113.337758 
L 222.417139 113.921615 
L 221.022868 113.607395 
L 219.628596 113.362673 
L 218.234324 113.167926 
L 216.840052 113.23735 
L 215.44578 112.855926 
L 214.051509 112.929741 
L 212.657237 112.682177 
L 211.262965 112.304884 
L 209.868693 112.441058 
L 208.474421 112.407401 
L 207.08015 112.245377 
L 205.685878 112.034698 
L 204.291606 111.848715 
L 202.897334 111.528153 
L 201.503062 111.214857 
L 200.108791 111.078754 
L 198.714519 110.993388 
L 197.320247 110.778712 
L 195.925975 110.210023 
L 194.531703 110.054827 
L 193.137432 110.074633 
L 191.74316 109.64207 
L 190.348888 108.927738 
L 188.954616 108.591849 
L 187.560344 108.226572 
L 186.166073 107.942295 
L 184.771801 107.326374 
L 183.377529 106.542616 
L 181.983257 105.803678 
L 180.588985 105.567515 
L 179.194714 104.674688 
L 177.800442 104.057372 
L 176.40617 103.488208 
L 175.011898 102.471883 
L 173.617626 102.216697 
L 172.223355 101.316017 
L 170.829083 99.948105 
L 169.434811 98.611484 
L 168.040539 97.473403 
L 166.646267 95.817697 
L 165.251996 93.764331 
L 163.857724 91.89071 
L 162.463452 89.583812 
L 161.06918 86.8985 
L 159.674908 84.33654 
L 158.280637 80.891269 
L 156.886365 76.700986 
L 155.492093 72.10881 
L 154.097821 67.0389 
L 152.703549 61.588401 
L 151.309278 55.90761 
L 149.915006 50.538353 
L 148.520734 47.889441 
L 147.126462 50.583119 
L 145.73219 62.941488 
L 144.337919 82.98807 
L 142.943647 104.170416 
L 141.549375 112.674916 
L 140.155103 112.896733 
L 138.760831 112.596936 
L 137.36656 112.424947 
L 135.972288 112.288691 
L 134.578016 112.250503 
L 133.183744 112.545892 
L 131.789472 112.651433 
L 130.395201 112.758291 
L 129.000929 112.907133 
L 127.606657 113.085208 
L 126.212385 112.631268 
L 124.818113 112.010602 
L 123.423842 112.085974 
L 122.02957 112.022984 
L 120.635298 112.19826 
L 119.241026 112.42656 
L 117.846754 112.379211 
L 116.452483 112.249673 
L 115.058211 112.390986 
L 113.663939 112.033499 
L 112.269667 112.056583 
L 110.875395 112.353877 
L 109.481124 111.789333 
L 108.086852 111.874748 
L 106.69258 112.147319 
L 105.298308 111.906297 
L 103.904036 111.630486 
L 102.509765 111.907807 
L 101.115493 111.681075 
L 99.721221 111.813651 
L 98.326949 111.744942 
L 96.932677 111.709997 
L 95.538406 111.462523 
L 94.144134 111.394191 
L 92.749862 111.348006 
L 91.35559 111.028061 
L 89.961318 110.734574 
L 88.567047 111.100192 
L 87.172775 110.977169 
L 85.778503 110.268624 
L 84.384231 110.095186 
L 82.989959 110.212779 
L 81.595688 110.414251 
L 80.201416 110.079384 
L 78.807144 109.960549 
L 77.412872 109.59898 
L 76.0186 108.591139 
L 74.624329 108.476263 
L 73.230057 108.821427 
L 71.835785 108.808782 
L 70.441513 108.19685 
L 69.047241 107.986221 
L 67.65297 107.768405 
L 66.258698 107.11667 
L 64.864426 107.281742 
L 63.470154 106.691963 
L 62.075882 106.039632 
L 60.681611 105.235746 
L 59.287339 105.013091 
L 57.893067 104.169216 
L 56.498795 103.199963 
L 55.104523 102.174369 
L 53.710252 101.105724 
L 52.31598 99.736122 
L 50.921708 98.386695 
L 49.527436 96.388883 
L 48.133164 94.163736 
L 46.738893 91.27518 
L 45.344621 87.482674 
L 43.950349 82.784266 
L 42.556077 76.272 
L 41.161805 67.662999 
L 39.767534 54.590401 
L 38.373262 30.603891 
L 36.97899 -19.405354 
z
" style="fill:#ffa600;fill-opacity:0.2;stroke:#ffa600;stroke-opacity:0.2;"/>
   </g>
   <g id="PolyCollection_2">
    <path clip-path="url(#pb77762dcdb)" d="M 36.97899 -29.118672 
L 36.97899 -29.118672 
L 38.373262 21.179304 
L 39.767534 48.226297 
L 41.161805 64.746595 
L 42.556077 75.886697 
L 43.950349 84.162047 
L 45.344621 90.302025 
L 46.738893 94.938987 
L 48.133164 98.610831 
L 49.527436 101.540301 
L 50.921708 103.854282 
L 52.31598 105.763503 
L 53.710252 107.483368 
L 55.104523 108.842976 
L 56.498795 110.066192 
L 57.893067 111.148648 
L 59.287339 111.948871 
L 60.681611 112.745671 
L 62.075882 113.471533 
L 63.470154 114.108423 
L 64.864426 114.496523 
L 66.258698 114.99844 
L 67.65297 115.403804 
L 69.047241 115.66595 
L 70.441513 116.07537 
L 71.835785 116.378277 
L 73.230057 116.44753 
L 74.624329 116.593702 
L 76.0186 116.968561 
L 77.412872 117.206838 
L 78.807144 117.295971 
L 80.201416 117.545367 
L 81.595688 117.544569 
L 82.989959 117.719491 
L 84.384231 117.753258 
L 85.778503 117.995716 
L 87.172775 118.084756 
L 88.567047 118.112202 
L 89.961318 118.19344 
L 91.35559 118.270625 
L 92.749862 118.346106 
L 94.144134 118.421597 
L 95.538406 118.435186 
L 96.932677 118.544282 
L 98.326949 118.579576 
L 99.721221 118.578367 
L 101.115493 118.650939 
L 102.509765 118.605347 
L 103.904036 118.721736 
L 105.298308 118.736302 
L 106.69258 118.70009 
L 108.086852 118.695418 
L 109.481124 118.829034 
L 110.875395 118.801591 
L 112.269667 118.786888 
L 113.663939 118.930114 
L 115.058211 118.833168 
L 116.452483 118.874679 
L 117.846754 118.911831 
L 119.241026 118.89861 
L 120.635298 118.841809 
L 122.02957 118.809889 
L 123.423842 118.857034 
L 124.818113 118.893547 
L 126.212385 118.983008 
L 127.606657 118.965843 
L 129.000929 118.951828 
L 130.395201 118.927651 
L 131.789472 118.979012 
L 133.183744 118.85689 
L 134.578016 118.867745 
L 135.972288 118.93618 
L 137.36656 118.831004 
L 138.760831 118.92975 
L 140.155103 118.892033 
L 141.549375 118.906887 
L 142.943647 111.536324 
L 144.337919 111.22525 
L 145.73219 111.09487 
L 147.126462 111.131269 
L 148.520734 111.215011 
L 149.915006 111.382569 
L 151.309278 111.542919 
L 152.703549 111.746717 
L 154.097821 111.975724 
L 155.492093 112.231977 
L 156.886365 112.516643 
L 158.280637 112.771012 
L 159.674908 113.065652 
L 161.06918 113.338993 
L 162.463452 113.634951 
L 163.857724 113.921289 
L 165.251996 114.206809 
L 166.646267 114.539842 
L 168.040539 114.752434 
L 169.434811 115.039146 
L 170.829083 115.314124 
L 172.223355 115.571801 
L 173.617626 115.753863 
L 175.011898 115.953019 
L 176.40617 116.170548 
L 177.800442 116.298293 
L 179.194714 116.571642 
L 180.588985 116.647375 
L 181.983257 116.880011 
L 183.377529 117.041 
L 184.771801 117.172378 
L 186.166073 117.3331 
L 187.560344 117.419049 
L 188.954616 117.517053 
L 190.348888 117.69486 
L 191.74316 117.822233 
L 193.137432 117.832936 
L 194.531703 117.952099 
L 195.925975 118.096598 
L 197.320247 118.123835 
L 198.714519 118.17723 
L 200.108791 118.171462 
L 201.503062 118.319235 
L 202.897334 118.377284 
L 204.291606 118.417517 
L 205.685878 118.470244 
L 207.08015 118.539056 
L 208.474421 118.551878 
L 209.868693 118.514172 
L 211.262965 118.5677 
L 212.657237 118.651091 
L 214.051509 118.599549 
L 215.44578 118.647416 
L 216.840052 118.660574 
L 218.234324 118.664589 
L 219.628596 118.672308 
L 221.022868 118.787898 
L 222.417139 118.636266 
L 223.811411 118.690428 
L 225.205683 118.774825 
L 226.599955 118.792097 
L 227.994227 118.779779 
L 229.388498 118.838931 
L 230.78277 118.831459 
L 232.177042 118.859087 
L 233.571314 118.877377 
L 234.965586 118.908134 
L 236.359857 118.826854 
L 237.754129 118.943229 
L 239.148401 118.924161 
L 240.542673 118.969847 
L 241.936945 118.924501 
L 243.331216 118.907058 
L 244.725488 118.909054 
L 246.11976 118.879107 
L 247.514032 118.930065 
L 248.908304 111.663404 
L 250.302575 111.365054 
L 251.696847 111.151296 
L 253.091119 111.114776 
L 254.485391 111.248235 
L 255.879663 111.366405 
L 257.273934 111.541357 
L 258.668206 111.755406 
L 260.062478 111.986679 
L 261.45675 112.234839 
L 262.851022 112.502023 
L 264.245293 112.785921 
L 265.639565 113.071523 
L 267.033837 113.391406 
L 268.428109 113.639433 
L 269.822381 113.977488 
L 271.216652 114.267241 
L 272.610924 114.541733 
L 274.005196 114.837615 
L 275.399468 115.083226 
L 276.79374 115.344802 
L 278.188011 115.573926 
L 279.582283 115.826497 
L 280.976555 116.087463 
L 282.370827 116.238402 
L 283.765099 116.42897 
L 285.15937 116.539169 
L 286.553642 116.756595 
L 287.947914 116.914805 
L 289.342186 117.113126 
L 290.736458 117.248367 
L 292.130729 117.438576 
L 293.525001 117.580446 
L 294.919273 117.627539 
L 296.313545 117.66871 
L 297.707817 117.869949 
L 299.102088 117.917773 
L 300.49636 118.009983 
L 301.890632 117.996767 
L 303.284904 118.084056 
L 304.679176 118.104008 
L 306.073447 118.245986 
L 307.467719 118.251784 
L 308.861991 118.392477 
L 310.256263 118.428065 
L 311.650535 118.412339 
L 313.044806 118.444571 
L 314.439078 118.492112 
L 315.83335 118.609043 
L 317.227622 118.631481 
L 318.621894 118.646678 
L 320.016165 118.632304 
L 321.410437 118.58718 
L 322.804709 118.640861 
L 324.198981 118.81534 
L 325.593253 118.768769 
L 326.987524 118.832047 
L 328.381796 118.798741 
L 329.776068 118.8258 
L 331.17034 118.877362 
L 332.564612 118.827653 
L 333.958883 118.865389 
L 335.353155 118.812085 
L 336.747427 118.90333 
L 338.141699 118.78516 
L 339.535971 118.894733 
L 340.930242 118.849282 
L 342.324514 118.868858 
L 343.718786 118.971887 
L 345.113058 118.832634 
L 346.50733 118.838659 
L 347.901601 118.955386 
L 349.295873 118.893453 
L 350.690145 118.927365 
L 352.084417 118.960914 
L 353.478689 118.861136 
L 354.87296 111.600036 
L 356.267232 111.273175 
L 357.661504 111.171879 
L 359.055776 111.164716 
L 360.450048 111.217983 
L 361.844319 111.377033 
L 363.238591 111.549397 
L 364.632863 111.742689 
L 366.027135 112.017993 
L 367.421407 112.231434 
L 368.815678 112.535847 
L 370.20995 112.792744 
L 371.604222 113.083107 
L 372.998494 113.354089 
L 374.392766 113.676571 
L 375.787037 113.935649 
L 377.181309 114.25128 
L 378.575581 114.537383 
L 379.969853 114.797134 
L 381.364125 115.107589 
L 382.758396 115.298896 
L 384.152668 115.531553 
L 385.54694 115.792553 
L 386.941212 116.017645 
L 388.335484 116.290533 
L 389.729755 116.448854 
L 391.124027 116.589664 
L 392.518299 116.782684 
L 393.912571 116.95366 
L 395.306843 117.145193 
L 396.701114 117.231896 
L 398.095386 117.375379 
L 399.489658 117.447068 
L 400.88393 117.57297 
L 402.278202 117.721631 
L 403.672473 117.828146 
L 405.066745 117.956663 
L 406.461017 118.063233 
L 407.855289 118.153612 
L 409.249561 118.231175 
L 410.643832 118.351367 
L 412.038104 118.345316 
L 413.432376 118.425947 
L 414.826648 118.389933 
L 416.22092 118.30344 
L 417.615191 118.415804 
L 419.009463 118.532052 
L 420.403735 118.519161 
L 421.798007 118.600683 
L 423.192279 118.574836 
L 424.58655 118.621259 
L 425.980822 118.572933 
L 427.375094 118.68005 
L 428.769366 118.690345 
L 430.163638 118.765918 
L 431.557909 118.782557 
L 432.952181 118.786784 
L 434.346453 118.675659 
L 435.740725 118.742168 
L 437.134997 118.74892 
L 438.529268 118.73558 
L 439.92354 118.700348 
L 441.317812 118.692564 
L 442.712084 118.72921 
L 444.106356 118.739369 
L 445.500627 118.761849 
L 446.894899 118.799224 
L 448.289171 118.852852 
L 449.683443 118.827259 
L 451.077715 118.780146 
L 452.471986 118.807364 
L 453.866258 118.738293 
L 455.26053 118.846132 
L 456.654802 118.816811 
L 458.049074 118.835043 
L 459.443345 118.859285 
L 460.837617 111.652094 
L 462.231889 111.291926 
L 463.626161 111.20812 
L 465.020433 111.149167 
L 466.414704 111.252173 
L 467.808976 111.363311 
L 469.203248 111.551117 
L 470.59752 111.764736 
L 471.991792 112.001998 
L 473.386063 112.271492 
L 474.780335 112.524396 
L 476.174607 112.84623 
L 477.568879 113.105062 
L 478.963151 113.399796 
L 480.357422 113.670077 
L 481.751694 113.979474 
L 483.145966 114.284951 
L 484.540238 114.549206 
L 485.93451 114.848619 
L 487.328781 115.153232 
L 488.723053 115.358866 
L 490.117325 115.632112 
L 491.511597 115.895917 
L 492.905869 116.087631 
L 494.30014 116.319741 
L 495.694412 116.542891 
L 497.088684 116.738842 
L 498.482956 116.837829 
L 499.877228 117.021341 
L 501.271499 117.17779 
L 502.665771 117.325683 
L 504.060043 117.453275 
L 505.454315 117.566657 
L 506.848587 117.714801 
L 508.242858 117.790685 
L 509.63713 117.784333 
L 511.031402 117.868431 
L 512.425674 118.091889 
L 513.819946 118.10826 
L 515.214217 118.196621 
L 516.608489 118.250011 
L 518.002761 118.364739 
L 519.397033 118.364753 
L 520.791305 118.405084 
L 522.185576 118.444205 
L 523.579848 118.536032 
L 524.97412 118.593779 
L 526.368392 118.55487 
L 527.762664 118.647915 
L 529.156935 118.716729 
L 530.551207 118.62181 
L 531.945479 118.640709 
L 533.339751 118.70932 
L 534.734023 118.671055 
L 536.128294 118.724589 
L 537.522566 118.676409 
L 538.916838 118.712158 
L 540.31111 118.715214 
L 541.705382 118.748437 
L 543.099653 118.869476 
L 544.493925 118.845001 
L 545.888197 118.870369 
L 547.282469 118.84866 
L 548.676741 118.931267 
L 550.071012 118.964139 
L 551.465284 118.954454 
L 552.859556 118.970661 
L 554.253828 118.971172 
L 555.6481 119.095789 
L 557.042371 118.970671 
L 558.436643 118.987862 
L 559.830915 118.914267 
L 561.225187 118.971134 
L 562.619459 118.981811 
L 564.01373 119.003736 
L 565.408002 119.009835 
L 565.408002 113.03836 
L 565.408002 113.03836 
L 564.01373 113.025 
L 562.619459 112.99023 
L 561.225187 112.976254 
L 559.830915 112.90059 
L 558.436643 112.996369 
L 557.042371 112.99054 
L 555.6481 113.181929 
L 554.253828 113.01102 
L 552.859556 113.023428 
L 551.465284 113.013445 
L 550.071012 113.02702 
L 548.676741 112.989256 
L 547.282469 112.857409 
L 545.888197 112.915 
L 544.493925 112.88106 
L 543.099653 112.90959 
L 541.705382 112.687858 
L 540.31111 112.642059 
L 538.916838 112.664252 
L 537.522566 112.607946 
L 536.128294 112.703524 
L 534.734023 112.651474 
L 533.339751 112.723504 
L 531.945479 112.623574 
L 530.551207 112.64385 
L 529.156935 112.811263 
L 527.762664 112.722599 
L 526.368392 112.617389 
L 524.97412 112.684524 
L 523.579848 112.619618 
L 522.185576 112.529943 
L 520.791305 112.513832 
L 519.397033 112.494941 
L 518.002761 112.559535 
L 516.608489 112.415049 
L 515.214217 112.373693 
L 513.819946 112.30608 
L 512.425674 112.325326 
L 511.031402 112.021869 
L 509.63713 111.989449 
L 508.242858 112.084984 
L 506.848587 112.048308 
L 505.454315 111.915701 
L 504.060043 111.841111 
L 502.665771 111.748879 
L 501.271499 111.632846 
L 499.877228 111.523254 
L 498.482956 111.3931 
L 497.088684 111.409083 
L 495.694412 111.238362 
L 494.30014 111.032119 
L 492.905869 110.805263 
L 491.511597 110.679082 
L 490.117325 110.396629 
L 488.723053 110.098727 
L 487.328781 109.93166 
L 485.93451 109.548889 
L 484.540238 109.178569 
L 483.145966 108.875689 
L 481.751694 108.437273 
L 480.357422 107.979962 
L 478.963151 107.58938 
L 477.568879 107.093952 
L 476.174607 106.62 
L 474.780335 105.936339 
L 473.386063 105.343501 
L 471.991792 104.629294 
L 470.59752 103.928732 
L 469.203248 103.250232 
L 467.808976 102.561956 
L 466.414704 101.932987 
L 465.020433 101.308273 
L 463.626161 100.939495 
L 462.231889 100.726745 
L 460.837617 101.192083 
L 459.443345 112.813826 
L 458.049074 112.792377 
L 456.654802 112.749225 
L 455.26053 112.800445 
L 453.866258 112.623899 
L 452.471986 112.720394 
L 451.077715 112.700057 
L 449.683443 112.775013 
L 448.289171 112.819116 
L 446.894899 112.729681 
L 445.500627 112.669989 
L 444.106356 112.641099 
L 442.712084 112.627903 
L 441.317812 112.593233 
L 439.92354 112.619779 
L 438.529268 112.683616 
L 437.134997 112.683621 
L 435.740725 112.689022 
L 434.346453 112.588485 
L 432.952181 112.807439 
L 431.557909 112.78406 
L 430.163638 112.784996 
L 428.769366 112.666817 
L 427.375094 112.661305 
L 425.980822 112.517195 
L 424.58655 112.636867 
L 423.192279 112.581017 
L 421.798007 112.64216 
L 420.403735 112.521047 
L 419.009463 112.568246 
L 417.615191 112.426215 
L 416.22092 112.291524 
L 414.826648 112.496977 
L 413.432376 112.625966 
L 412.038104 112.53601 
L 410.643832 112.606165 
L 409.249561 112.463917 
L 407.855289 112.396029 
L 406.461017 112.336998 
L 405.066745 112.225126 
L 403.672473 112.057781 
L 402.278202 111.982609 
L 400.88393 111.823395 
L 399.489658 111.71802 
L 398.095386 111.721797 
L 396.701114 111.60665 
L 395.306843 111.581733 
L 393.912571 111.40971 
L 392.518299 111.267782 
L 391.124027 111.117242 
L 389.729755 111.053731 
L 388.335484 110.977777 
L 386.941212 110.6485 
L 385.54694 110.446623 
L 384.152668 110.164988 
L 382.758396 109.963848 
L 381.364125 109.824375 
L 379.969853 109.426032 
L 378.575581 109.139621 
L 377.181309 108.768463 
L 375.787037 108.332383 
L 374.392766 107.992726 
L 372.998494 107.453827 
L 371.604222 107.008849 
L 370.20995 106.459957 
L 368.815678 105.943154 
L 367.421407 105.214454 
L 366.027135 104.725474 
L 364.632863 103.932692 
L 363.238591 103.22412 
L 361.844319 102.555407 
L 360.450048 101.872509 
L 359.055776 101.305974 
L 357.661504 100.880568 
L 356.267232 100.682589 
L 354.87296 101.070986 
L 353.478689 112.818326 
L 352.084417 112.970453 
L 350.690145 112.922534 
L 349.295873 112.867537 
L 347.901601 112.953482 
L 346.50733 112.780058 
L 345.113058 112.795426 
L 343.718786 112.987292 
L 342.324514 112.825444 
L 340.930242 112.807608 
L 339.535971 112.866109 
L 338.141699 112.69407 
L 336.747427 112.875242 
L 335.353155 112.747242 
L 333.958883 112.830774 
L 332.564612 112.808495 
L 331.17034 112.891467 
L 329.776068 112.848113 
L 328.381796 112.807595 
L 326.987524 112.906673 
L 325.593253 112.821976 
L 324.198981 112.889417 
L 322.804709 112.594702 
L 321.410437 112.556321 
L 320.016165 112.647298 
L 318.621894 112.683867 
L 317.227622 112.69015 
L 315.83335 112.663727 
L 314.439078 112.508284 
L 313.044806 112.471151 
L 311.650535 112.479292 
L 310.256263 112.543031 
L 308.861991 112.528534 
L 307.467719 112.325103 
L 306.073447 112.353382 
L 304.679176 112.178362 
L 303.284904 112.226268 
L 301.890632 112.177288 
L 300.49636 112.279801 
L 299.102088 112.179793 
L 297.707817 112.159135 
L 296.313545 111.936327 
L 294.919273 111.965255 
L 293.525001 112.000109 
L 292.130729 111.857225 
L 290.736458 111.648544 
L 289.342186 111.528142 
L 287.947914 111.347311 
L 286.553642 111.227398 
L 285.15937 111.018515 
L 283.765099 111.01142 
L 282.370827 110.874813 
L 280.976555 110.839669 
L 279.582283 110.541303 
L 278.188011 110.273764 
L 276.79374 110.076499 
L 275.399468 109.806984 
L 274.005196 109.562106 
L 272.610924 109.207375 
L 271.216652 108.849758 
L 269.822381 108.451906 
L 268.428109 107.904512 
L 267.033837 107.561305 
L 265.639565 106.996373 
L 264.245293 106.435589 
L 262.851022 105.845704 
L 261.45675 105.214295 
L 260.062478 104.561944 
L 258.668206 103.857584 
L 257.273934 103.205676 
L 255.879663 102.526493 
L 254.485391 101.878026 
L 253.091119 101.239189 
L 251.696847 100.861903 
L 250.302575 100.825003 
L 248.908304 101.190452 
L 247.514032 112.894933 
L 246.11976 112.802367 
L 244.725488 112.871424 
L 243.331216 112.873723 
L 241.936945 112.90797 
L 240.542673 112.979086 
L 239.148401 112.933862 
L 237.754129 112.970579 
L 236.359857 112.808241 
L 234.965586 112.927338 
L 233.571314 112.900476 
L 232.177042 112.886535 
L 230.78277 112.837408 
L 229.388498 112.85957 
L 227.994227 112.773838 
L 226.599955 112.788674 
L 225.205683 112.750796 
L 223.811411 112.61866 
L 222.417139 112.557291 
L 221.022868 112.772193 
L 219.628596 112.605856 
L 218.234324 112.622344 
L 216.840052 112.638141 
L 215.44578 112.622477 
L 214.051509 112.599659 
L 212.657237 112.689401 
L 211.262965 112.589948 
L 209.868693 112.546309 
L 208.474421 112.647468 
L 207.08015 112.662719 
L 205.685878 112.580646 
L 204.291606 112.534127 
L 202.897334 112.505302 
L 201.503062 112.440121 
L 200.108791 112.245587 
L 198.714519 112.31571 
L 197.320247 112.300702 
L 195.925975 112.336648 
L 194.531703 112.170702 
L 193.137432 112.049594 
L 191.74316 112.103158 
L 190.348888 111.97464 
L 188.954616 111.783334 
L 187.560344 111.706818 
L 186.166073 111.681776 
L 184.771801 111.507934 
L 183.377529 111.420492 
L 181.983257 111.285055 
L 180.588985 111.018831 
L 179.194714 111.042468 
L 177.800442 110.736792 
L 176.40617 110.710525 
L 175.011898 110.500888 
L 173.617626 110.372353 
L 172.223355 110.254167 
L 170.829083 109.977385 
L 169.434811 109.687058 
L 168.040539 109.352897 
L 166.646267 109.165043 
L 165.251996 108.659681 
L 163.857724 108.300529 
L 162.463452 107.875121 
L 161.06918 107.424799 
L 159.674908 106.972985 
L 158.280637 106.414766 
L 156.886365 105.898494 
L 155.492093 105.218263 
L 154.097821 104.578768 
L 152.703549 103.882705 
L 151.309278 103.204532 
L 149.915006 102.55248 
L 148.520734 101.874705 
L 147.126462 101.284674 
L 145.73219 100.797452 
L 144.337919 100.638404 
L 142.943647 100.970008 
L 141.549375 112.849967 
L 140.155103 112.827103 
L 138.760831 112.865647 
L 137.36656 112.720514 
L 135.972288 112.907782 
L 134.578016 112.818576 
L 133.183744 112.810302 
L 131.789472 113.011663 
L 130.395201 112.923954 
L 129.000929 112.955831 
L 127.606657 112.990026 
L 126.212385 112.991352 
L 124.818113 112.841704 
L 123.423842 112.821618 
L 122.02957 112.750055 
L 120.635298 112.825079 
L 119.241026 112.934748 
L 117.846754 112.940751 
L 116.452483 112.890783 
L 115.058211 112.844854 
L 113.663939 113.017289 
L 112.269667 112.805346 
L 110.875395 112.843461 
L 109.481124 112.885284 
L 108.086852 112.709985 
L 106.69258 112.732116 
L 105.298308 112.809929 
L 103.904036 112.80536 
L 102.509765 112.661333 
L 101.115493 112.72534 
L 99.721221 112.65777 
L 98.326949 112.700568 
L 96.932677 112.682436 
L 95.538406 112.539931 
L 94.144134 112.56876 
L 92.749862 112.495618 
L 91.35559 112.42777 
L 89.961318 112.388273 
L 88.567047 112.333986 
L 87.172775 112.34288 
L 85.778503 112.277147 
L 84.384231 111.970922 
L 82.989959 112.035143 
L 81.595688 111.857013 
L 80.201416 111.954126 
L 78.807144 111.687247 
L 77.412872 111.656606 
L 76.0186 111.429572 
L 74.624329 111.035946 
L 73.230057 111.025874 
L 71.835785 111.122859 
L 70.441513 110.889169 
L 69.047241 110.51686 
L 67.65297 110.402563 
L 66.258698 110.097479 
L 64.864426 109.723692 
L 63.470154 109.511197 
L 62.075882 108.996463 
L 60.681611 108.397956 
L 59.287339 107.758139 
L 57.893067 107.15793 
L 56.498795 106.241441 
L 55.104523 105.216281 
L 53.710252 104.10951 
L 52.31598 102.630851 
L 50.921708 101.050015 
L 49.527436 99.081375 
L 48.133164 96.521146 
L 46.738893 93.244887 
L 45.344621 89.068819 
L 43.950349 83.413083 
L 42.556077 75.662296 
L 41.161805 64.368875 
L 39.767534 47.310871 
L 38.373262 20.041011 
L 36.97899 -29.118672 
z
" style="fill:#009999;fill-opacity:0.2;stroke:#009999;stroke-opacity:0.2;"/>
   </g>
   <g id="PolyCollection_3">
    <path clip-path="url(#pb77762dcdb)" d="M 36.97899 111.533113 
L 36.97899 113.62787 
L 38.373262 113.627872 
L 39.767534 113.627874 
L 41.161805 113.627871 
L 42.556077 113.627872 
L 43.950349 113.627873 
L 45.344621 113.627873 
L 46.738893 113.627873 
L 48.133164 113.627874 
L 49.527436 113.627873 
L 50.921708 113.627874 
L 52.31598 113.627873 
L 53.710252 113.627874 
L 55.104523 113.627872 
L 56.498795 113.627872 
L 57.893067 113.627875 
L 59.287339 113.627873 
L 60.681611 113.627873 
L 62.075882 113.627872 
L 63.470154 113.627873 
L 64.864426 113.627872 
L 66.258698 113.627873 
L 67.65297 113.627873 
L 69.047241 113.627872 
L 70.441513 113.627873 
L 71.835785 113.627873 
L 73.230057 113.627873 
L 74.624329 113.627872 
L 76.0186 113.627873 
L 77.412872 113.627873 
L 78.807144 113.627873 
L 80.201416 113.627872 
L 81.595688 113.627873 
L 82.989959 113.627873 
L 84.384231 113.627873 
L 85.778503 113.627873 
L 87.172775 113.627873 
L 88.567047 113.627873 
L 89.961318 113.627872 
L 91.35559 113.627873 
L 92.749862 113.627874 
L 94.144134 113.627873 
L 95.538406 113.627873 
L 96.932677 113.627873 
L 98.326949 113.627873 
L 99.721221 113.627873 
L 101.115493 113.627873 
L 102.509765 113.627873 
L 103.904036 113.627873 
L 105.298308 113.627872 
L 106.69258 113.627873 
L 108.086852 113.627873 
L 109.481124 113.627872 
L 110.875395 113.627873 
L 112.269667 113.627872 
L 113.663939 113.627872 
L 115.058211 113.627873 
L 116.452483 113.627873 
L 117.846754 113.627873 
L 119.241026 113.627872 
L 120.635298 113.627872 
L 122.02957 113.627872 
L 123.423842 113.627873 
L 124.818113 113.627872 
L 126.212385 113.627872 
L 127.606657 113.627872 
L 129.000929 113.627872 
L 130.395201 113.627873 
L 131.789472 113.627873 
L 133.183744 113.627873 
L 134.578016 113.627872 
L 135.972288 113.627873 
L 137.36656 113.627872 
L 138.760831 113.627873 
L 140.155103 113.627872 
L 141.549375 113.627873 
L 142.943647 113.627873 
L 144.337919 113.627874 
L 145.73219 113.627874 
L 147.126462 113.627874 
L 148.520734 113.627874 
L 149.915006 113.627874 
L 151.309278 113.627873 
L 152.703549 113.627874 
L 154.097821 113.627874 
L 155.492093 113.627874 
L 156.886365 113.627874 
L 158.280637 113.627874 
L 159.674908 113.627874 
L 161.06918 113.627874 
L 162.463452 113.627874 
L 163.857724 113.627874 
L 165.251996 113.627874 
L 166.646267 113.627874 
L 168.040539 113.627874 
L 169.434811 113.627873 
L 170.829083 113.627874 
L 172.223355 113.627874 
L 173.617626 113.627874 
L 175.011898 113.627874 
L 176.40617 113.627874 
L 177.800442 113.627874 
L 179.194714 113.627874 
L 180.588985 113.627874 
L 181.983257 113.627874 
L 183.377529 113.627874 
L 184.771801 113.627874 
L 186.166073 113.627874 
L 187.560344 113.627874 
L 188.954616 113.627874 
L 190.348888 113.627874 
L 191.74316 113.627874 
L 193.137432 113.627874 
L 194.531703 113.627874 
L 195.925975 113.627874 
L 197.320247 113.627874 
L 198.714519 113.627874 
L 200.108791 113.627874 
L 201.503062 113.627874 
L 202.897334 113.627874 
L 204.291606 113.627874 
L 205.685878 113.627874 
L 207.08015 113.627874 
L 208.474421 113.627874 
L 209.868693 113.627874 
L 211.262965 113.627874 
L 212.657237 113.627874 
L 214.051509 113.627874 
L 215.44578 113.627874 
L 216.840052 113.627874 
L 218.234324 113.627874 
L 219.628596 113.627874 
L 221.022868 113.627874 
L 222.417139 113.627874 
L 223.811411 113.627874 
L 225.205683 113.627874 
L 226.599955 113.627874 
L 227.994227 113.627875 
L 229.388498 113.627874 
L 230.78277 113.627874 
L 232.177042 113.627874 
L 233.571314 113.627874 
L 234.965586 113.627874 
L 236.359857 113.627874 
L 237.754129 113.627874 
L 239.148401 113.627874 
L 240.542673 113.627873 
L 241.936945 113.627874 
L 243.331216 113.627874 
L 244.725488 113.627874 
L 246.11976 113.627874 
L 247.514032 113.627874 
L 248.908304 113.627874 
L 250.302575 113.627874 
L 251.696847 113.627874 
L 253.091119 113.627874 
L 254.485391 113.627874 
L 255.879663 113.627874 
L 257.273934 113.627874 
L 258.668206 113.627873 
L 260.062478 113.627874 
L 261.45675 113.627874 
L 262.851022 113.627874 
L 264.245293 113.627874 
L 265.639565 113.627874 
L 267.033837 113.627873 
L 268.428109 113.627874 
L 269.822381 113.627873 
L 271.216652 113.627873 
L 272.610924 113.627873 
L 274.005196 113.627873 
L 275.399468 113.627873 
L 276.79374 113.627873 
L 278.188011 113.627873 
L 279.582283 113.627874 
L 280.976555 113.627873 
L 282.370827 113.627874 
L 283.765099 113.627873 
L 285.15937 113.627873 
L 286.553642 113.627873 
L 287.947914 113.627872 
L 289.342186 113.627874 
L 290.736458 113.627873 
L 292.130729 113.627874 
L 293.525001 113.627873 
L 294.919273 113.627873 
L 296.313545 113.627874 
L 297.707817 113.627873 
L 299.102088 113.627873 
L 300.49636 113.627873 
L 301.890632 113.627873 
L 303.284904 113.627873 
L 304.679176 113.627873 
L 306.073447 113.627874 
L 307.467719 113.627873 
L 308.861991 113.627873 
L 310.256263 113.627873 
L 311.650535 113.627872 
L 313.044806 113.627872 
L 314.439078 113.627873 
L 315.83335 113.627873 
L 317.227622 113.627872 
L 318.621894 113.627872 
L 320.016165 113.627872 
L 321.410437 113.627873 
L 322.804709 113.627872 
L 324.198981 113.627873 
L 325.593253 113.627873 
L 326.987524 113.627873 
L 328.381796 113.627873 
L 329.776068 113.627874 
L 331.17034 113.627872 
L 332.564612 113.627872 
L 333.958883 113.627872 
L 335.353155 113.627873 
L 336.747427 113.627873 
L 338.141699 113.627873 
L 339.535971 113.627873 
L 340.930242 113.627873 
L 342.324514 113.627872 
L 343.718786 113.627872 
L 345.113058 113.627873 
L 346.50733 113.627873 
L 347.901601 113.627873 
L 349.295873 113.627873 
L 350.690145 113.627873 
L 352.084417 113.627871 
L 353.478689 113.627873 
L 354.87296 113.627873 
L 356.267232 113.627874 
L 357.661504 113.627874 
L 359.055776 113.627874 
L 360.450048 113.627874 
L 361.844319 113.627874 
L 363.238591 113.627874 
L 364.632863 113.627874 
L 366.027135 113.627874 
L 367.421407 113.627874 
L 368.815678 113.627874 
L 370.20995 113.627874 
L 371.604222 113.627874 
L 372.998494 113.627874 
L 374.392766 113.627874 
L 375.787037 113.627874 
L 377.181309 113.627875 
L 378.575581 113.627874 
L 379.969853 113.627875 
L 381.364125 113.627874 
L 382.758396 113.627874 
L 384.152668 113.627874 
L 385.54694 113.627874 
L 386.941212 113.627875 
L 388.335484 113.627874 
L 389.729755 113.627874 
L 391.124027 113.627874 
L 392.518299 113.627874 
L 393.912571 113.627873 
L 395.306843 113.627874 
L 396.701114 113.627874 
L 398.095386 113.627874 
L 399.489658 113.627874 
L 400.88393 113.627874 
L 402.278202 113.627874 
L 403.672473 113.627874 
L 405.066745 113.627874 
L 406.461017 113.627874 
L 407.855289 113.627874 
L 409.249561 113.627874 
L 410.643832 113.627874 
L 412.038104 113.627875 
L 413.432376 113.627874 
L 414.826648 113.627874 
L 416.22092 113.627874 
L 417.615191 113.627874 
L 419.009463 113.627874 
L 420.403735 113.627874 
L 421.798007 113.627874 
L 423.192279 113.627874 
L 424.58655 113.627874 
L 425.980822 113.627874 
L 427.375094 113.627874 
L 428.769366 113.627874 
L 430.163638 113.627874 
L 431.557909 113.627874 
L 432.952181 113.627874 
L 434.346453 113.627874 
L 435.740725 113.627874 
L 437.134997 113.627874 
L 438.529268 113.627874 
L 439.92354 113.627874 
L 441.317812 113.627874 
L 442.712084 113.627874 
L 444.106356 113.627874 
L 445.500627 113.627874 
L 446.894899 113.627874 
L 448.289171 113.627874 
L 449.683443 113.627874 
L 451.077715 113.627874 
L 452.471986 113.627874 
L 453.866258 113.627874 
L 455.26053 113.627874 
L 456.654802 113.627874 
L 458.049074 113.627874 
L 459.443345 113.627874 
L 460.837617 113.627875 
L 462.231889 113.627874 
L 463.626161 113.627874 
L 465.020433 113.627874 
L 466.414704 113.627874 
L 467.808976 113.627874 
L 469.203248 113.627874 
L 470.59752 113.627874 
L 471.991792 113.627874 
L 473.386063 113.627874 
L 474.780335 113.627874 
L 476.174607 113.627874 
L 477.568879 113.627874 
L 478.963151 113.627874 
L 480.357422 113.627874 
L 481.751694 113.627873 
L 483.145966 113.627873 
L 484.540238 113.627873 
L 485.93451 113.627874 
L 487.328781 113.627873 
L 488.723053 113.627873 
L 490.117325 113.627873 
L 491.511597 113.627873 
L 492.905869 113.627874 
L 494.30014 113.627873 
L 495.694412 113.627873 
L 497.088684 113.627873 
L 498.482956 113.627874 
L 499.877228 113.627873 
L 501.271499 113.627873 
L 502.665771 113.627873 
L 504.060043 113.627873 
L 505.454315 113.627874 
L 506.848587 113.627872 
L 508.242858 113.627874 
L 509.63713 113.627873 
L 511.031402 113.627873 
L 512.425674 113.627872 
L 513.819946 113.627873 
L 515.214217 113.627873 
L 516.608489 113.627872 
L 518.002761 113.627873 
L 519.397033 113.627872 
L 520.791305 113.627873 
L 522.185576 113.627873 
L 523.579848 113.627874 
L 524.97412 113.627873 
L 526.368392 113.627872 
L 527.762664 113.627873 
L 529.156935 113.627873 
L 530.551207 113.627873 
L 531.945479 113.627873 
L 533.339751 113.627873 
L 534.734023 113.627874 
L 536.128294 113.627873 
L 537.522566 113.627872 
L 538.916838 113.627873 
L 540.31111 113.627873 
L 541.705382 113.627872 
L 543.099653 113.627873 
L 544.493925 113.627873 
L 545.888197 113.627873 
L 547.282469 113.627871 
L 548.676741 113.627872 
L 550.071012 113.627872 
L 551.465284 113.627873 
L 552.859556 113.627873 
L 554.253828 113.627873 
L 555.6481 113.627873 
L 557.042371 113.627873 
L 558.436643 113.627873 
L 559.830915 113.627872 
L 561.225187 113.627873 
L 562.619459 113.627873 
L 564.01373 113.627873 
L 565.408002 113.627872 
L 565.408002 111.533119 
L 565.408002 111.533119 
L 564.01373 111.533119 
L 562.619459 111.53312 
L 561.225187 111.533119 
L 559.830915 111.533119 
L 558.436643 111.53312 
L 557.042371 111.533119 
L 555.6481 111.53312 
L 554.253828 111.53312 
L 552.859556 111.533119 
L 551.465284 111.533119 
L 550.071012 111.533119 
L 548.676741 111.533119 
L 547.282469 111.533119 
L 545.888197 111.53312 
L 544.493925 111.533121 
L 543.099653 111.533121 
L 541.705382 111.53312 
L 540.31111 111.53312 
L 538.916838 111.53312 
L 537.522566 111.53312 
L 536.128294 111.533119 
L 534.734023 111.53312 
L 533.339751 111.533119 
L 531.945479 111.53312 
L 530.551207 111.53312 
L 529.156935 111.53312 
L 527.762664 111.53312 
L 526.368392 111.53312 
L 524.97412 111.533119 
L 523.579848 111.533121 
L 522.185576 111.533119 
L 520.791305 111.533119 
L 519.397033 111.533119 
L 518.002761 111.53312 
L 516.608489 111.53312 
L 515.214217 111.53312 
L 513.819946 111.53312 
L 512.425674 111.533119 
L 511.031402 111.53312 
L 509.63713 111.53312 
L 508.242858 111.53312 
L 506.848587 111.53312 
L 505.454315 111.53312 
L 504.060043 111.53312 
L 502.665771 111.533119 
L 501.271499 111.53312 
L 499.877228 111.53312 
L 498.482956 111.53312 
L 497.088684 111.53312 
L 495.694412 111.53312 
L 494.30014 111.53312 
L 492.905869 111.53312 
L 491.511597 111.53312 
L 490.117325 111.53312 
L 488.723053 111.53312 
L 487.328781 111.53312 
L 485.93451 111.53312 
L 484.540238 111.53312 
L 483.145966 111.53312 
L 481.751694 111.53312 
L 480.357422 111.533121 
L 478.963151 111.533121 
L 477.568879 111.53312 
L 476.174607 111.53312 
L 474.780335 111.53312 
L 473.386063 111.53312 
L 471.991792 111.533121 
L 470.59752 111.533121 
L 469.203248 111.53312 
L 467.808976 111.533121 
L 466.414704 111.53312 
L 465.020433 111.53312 
L 463.626161 111.533121 
L 462.231889 111.53312 
L 460.837617 111.53312 
L 459.443345 111.53312 
L 458.049074 111.533121 
L 456.654802 111.53312 
L 455.26053 111.53312 
L 453.866258 111.533121 
L 452.471986 111.53312 
L 451.077715 111.533121 
L 449.683443 111.533121 
L 448.289171 111.53312 
L 446.894899 111.533121 
L 445.500627 111.53312 
L 444.106356 111.53312 
L 442.712084 111.53312 
L 441.317812 111.53312 
L 439.92354 111.533121 
L 438.529268 111.53312 
L 437.134997 111.533121 
L 435.740725 111.53312 
L 434.346453 111.533121 
L 432.952181 111.533121 
L 431.557909 111.53312 
L 430.163638 111.533121 
L 428.769366 111.533121 
L 427.375094 111.53312 
L 425.980822 111.533121 
L 424.58655 111.53312 
L 423.192279 111.53312 
L 421.798007 111.53312 
L 420.403735 111.53312 
L 419.009463 111.53312 
L 417.615191 111.53312 
L 416.22092 111.533121 
L 414.826648 111.53312 
L 413.432376 111.53312 
L 412.038104 111.533121 
L 410.643832 111.53312 
L 409.249561 111.53312 
L 407.855289 111.53312 
L 406.461017 111.533121 
L 405.066745 111.53312 
L 403.672473 111.53312 
L 402.278202 111.53312 
L 400.88393 111.53312 
L 399.489658 111.53312 
L 398.095386 111.53312 
L 396.701114 111.53312 
L 395.306843 111.53312 
L 393.912571 111.533121 
L 392.518299 111.53312 
L 391.124027 111.533121 
L 389.729755 111.53312 
L 388.335484 111.53312 
L 386.941212 111.533121 
L 385.54694 111.53312 
L 384.152668 111.533121 
L 382.758396 111.53312 
L 381.364125 111.533121 
L 379.969853 111.533121 
L 378.575581 111.53312 
L 377.181309 111.533121 
L 375.787037 111.533121 
L 374.392766 111.533121 
L 372.998494 111.53312 
L 371.604222 111.53312 
L 370.20995 111.53312 
L 368.815678 111.533121 
L 367.421407 111.533121 
L 366.027135 111.53312 
L 364.632863 111.53312 
L 363.238591 111.53312 
L 361.844319 111.53312 
L 360.450048 111.53312 
L 359.055776 111.53312 
L 357.661504 111.53312 
L 356.267232 111.53312 
L 354.87296 111.53312 
L 353.478689 111.53312 
L 352.084417 111.533119 
L 350.690145 111.53312 
L 349.295873 111.533119 
L 347.901601 111.53312 
L 346.50733 111.533119 
L 345.113058 111.53312 
L 343.718786 111.533119 
L 342.324514 111.533119 
L 340.930242 111.53312 
L 339.535971 111.533121 
L 338.141699 111.53312 
L 336.747427 111.533121 
L 335.353155 111.533119 
L 333.958883 111.533119 
L 332.564612 111.533119 
L 331.17034 111.533119 
L 329.776068 111.53312 
L 328.381796 111.53312 
L 326.987524 111.53312 
L 325.593253 111.533119 
L 324.198981 111.53312 
L 322.804709 111.533119 
L 321.410437 111.533119 
L 320.016165 111.533119 
L 318.621894 111.533119 
L 317.227622 111.53312 
L 315.83335 111.53312 
L 314.439078 111.533119 
L 313.044806 111.53312 
L 311.650535 111.533119 
L 310.256263 111.533119 
L 308.861991 111.53312 
L 307.467719 111.53312 
L 306.073447 111.53312 
L 304.679176 111.533119 
L 303.284904 111.53312 
L 301.890632 111.533119 
L 300.49636 111.53312 
L 299.102088 111.533119 
L 297.707817 111.533119 
L 296.313545 111.53312 
L 294.919273 111.533119 
L 293.525001 111.53312 
L 292.130729 111.53312 
L 290.736458 111.53312 
L 289.342186 111.533121 
L 287.947914 111.533119 
L 286.553642 111.53312 
L 285.15937 111.53312 
L 283.765099 111.53312 
L 282.370827 111.53312 
L 280.976555 111.53312 
L 279.582283 111.53312 
L 278.188011 111.533121 
L 276.79374 111.53312 
L 275.399468 111.53312 
L 274.005196 111.53312 
L 272.610924 111.533121 
L 271.216652 111.53312 
L 269.822381 111.53312 
L 268.428109 111.53312 
L 267.033837 111.533121 
L 265.639565 111.53312 
L 264.245293 111.533121 
L 262.851022 111.53312 
L 261.45675 111.53312 
L 260.062478 111.53312 
L 258.668206 111.53312 
L 257.273934 111.53312 
L 255.879663 111.533121 
L 254.485391 111.53312 
L 253.091119 111.533121 
L 251.696847 111.53312 
L 250.302575 111.533121 
L 248.908304 111.533121 
L 247.514032 111.53312 
L 246.11976 111.53312 
L 244.725488 111.53312 
L 243.331216 111.533121 
L 241.936945 111.53312 
L 240.542673 111.53312 
L 239.148401 111.533121 
L 237.754129 111.533121 
L 236.359857 111.533121 
L 234.965586 111.53312 
L 233.571314 111.53312 
L 232.177042 111.533121 
L 230.78277 111.53312 
L 229.388498 111.533121 
L 227.994227 111.533121 
L 226.599955 111.53312 
L 225.205683 111.533121 
L 223.811411 111.53312 
L 222.417139 111.53312 
L 221.022868 111.53312 
L 219.628596 111.53312 
L 218.234324 111.533121 
L 216.840052 111.53312 
L 215.44578 111.53312 
L 214.051509 111.533121 
L 212.657237 111.53312 
L 211.262965 111.53312 
L 209.868693 111.53312 
L 208.474421 111.53312 
L 207.08015 111.53312 
L 205.685878 111.533121 
L 204.291606 111.53312 
L 202.897334 111.53312 
L 201.503062 111.533121 
L 200.108791 111.533121 
L 198.714519 111.533121 
L 197.320247 111.533121 
L 195.925975 111.53312 
L 194.531703 111.53312 
L 193.137432 111.53312 
L 191.74316 111.533121 
L 190.348888 111.53312 
L 188.954616 111.53312 
L 187.560344 111.53312 
L 186.166073 111.533121 
L 184.771801 111.53312 
L 183.377529 111.533121 
L 181.983257 111.53312 
L 180.588985 111.53312 
L 179.194714 111.533121 
L 177.800442 111.53312 
L 176.40617 111.533121 
L 175.011898 111.53312 
L 173.617626 111.533121 
L 172.223355 111.53312 
L 170.829083 111.53312 
L 169.434811 111.53312 
L 168.040539 111.533121 
L 166.646267 111.533121 
L 165.251996 111.53312 
L 163.857724 111.533121 
L 162.463452 111.533121 
L 161.06918 111.533121 
L 159.674908 111.53312 
L 158.280637 111.53312 
L 156.886365 111.53312 
L 155.492093 111.533121 
L 154.097821 111.53312 
L 152.703549 111.53312 
L 151.309278 111.53312 
L 149.915006 111.53312 
L 148.520734 111.533121 
L 147.126462 111.53312 
L 145.73219 111.53312 
L 144.337919 111.53312 
L 142.943647 111.533119 
L 141.549375 111.533119 
L 140.155103 111.533119 
L 138.760831 111.53312 
L 137.36656 111.53312 
L 135.972288 111.533119 
L 134.578016 111.533119 
L 133.183744 111.533119 
L 131.789472 111.53312 
L 130.395201 111.533121 
L 129.000929 111.533119 
L 127.606657 111.533119 
L 126.212385 111.533119 
L 124.818113 111.533119 
L 123.423842 111.533119 
L 122.02957 111.53312 
L 120.635298 111.533119 
L 119.241026 111.533119 
L 117.846754 111.533119 
L 116.452483 111.533119 
L 115.058211 111.53312 
L 113.663939 111.533119 
L 112.269667 111.533119 
L 110.875395 111.533119 
L 109.481124 111.533119 
L 108.086852 111.533119 
L 106.69258 111.533119 
L 105.298308 111.53312 
L 103.904036 111.53312 
L 102.509765 111.53312 
L 101.115493 111.53312 
L 99.721221 111.53312 
L 98.326949 111.533119 
L 96.932677 111.53312 
L 95.538406 111.53312 
L 94.144134 111.533119 
L 92.749862 111.533121 
L 91.35559 111.53312 
L 89.961318 111.533119 
L 88.567047 111.53312 
L 87.172775 111.53312 
L 85.778503 111.53312 
L 84.384231 111.533121 
L 82.989959 111.533119 
L 81.595688 111.53312 
L 80.201416 111.533119 
L 78.807144 111.533121 
L 77.412872 111.533119 
L 76.0186 111.53312 
L 74.624329 111.53312 
L 73.230057 111.53312 
L 71.835785 111.533119 
L 70.441513 111.53312 
L 69.047241 111.533119 
L 67.65297 111.53312 
L 66.258698 111.533121 
L 64.864426 111.53312 
L 63.470154 111.53312 
L 62.075882 111.533119 
L 60.681611 111.533121 
L 59.287339 111.53312 
L 57.893067 111.533122 
L 56.498795 111.533119 
L 55.104523 111.533118 
L 53.710252 111.533121 
L 52.31598 111.533121 
L 50.921708 111.53312 
L 49.527436 111.53312 
L 48.133164 111.533121 
L 46.738893 111.53312 
L 45.344621 111.533119 
L 43.950349 111.533117 
L 42.556077 111.533115 
L 41.161805 111.533121 
L 39.767534 111.53312 
L 38.373262 111.53311 
L 36.97899 111.533113 
z
" style="fill:#ef5675;fill-opacity:0.2;stroke:#ef5675;stroke-opacity:0.2;"/>
   </g>
   <g id="matplotlib.axis_1">
    <g id="xtick_1">
     <g id="line2d_1">
      <defs>
       <path d="M 0 0 
L 0 3.5 
" id="m07ea041464" style="stroke:#000000;stroke-width:0.8;"/>
      </defs>
      <g>
       <use style="stroke:#000000;stroke-width:0.8;" x="36.97899" xlink:href="#m07ea041464" y="126.88726"/>
      </g>
     </g>
     <g id="text_1">
      <!-- 0 -->
      <g transform="translate(34.754615 139.61351)scale(0.08 -0.08)">
       <defs>
        <path d="M 4.15625 35.296875 
Q 4.15625 48 6.765625 55.734375 
Q 9.375 63.484375 14.515625 67.671875 
Q 19.671875 71.875 27.484375 71.875 
Q 33.25 71.875 37.59375 69.546875 
Q 41.9375 67.234375 44.765625 62.859375 
Q 47.609375 58.5 49.21875 52.21875 
Q 50.828125 45.953125 50.828125 35.296875 
Q 50.828125 22.703125 48.234375 14.96875 
Q 45.65625 7.234375 40.5 3 
Q 35.359375 -1.21875 27.484375 -1.21875 
Q 17.140625 -1.21875 11.234375 6.203125 
Q 4.15625 15.140625 4.15625 35.296875 
z
M 13.1875 35.296875 
Q 13.1875 17.671875 17.3125 11.828125 
Q 21.4375 6 27.484375 6 
Q 33.546875 6 37.671875 11.859375 
Q 41.796875 17.71875 41.796875 35.296875 
Q 41.796875 52.984375 37.671875 58.78125 
Q 33.546875 64.59375 27.390625 64.59375 
Q 21.34375 64.59375 17.71875 59.46875 
Q 13.1875 52.9375 13.1875 35.296875 
z
" id="ArialMT-48"/>
       </defs>
       <use xlink:href="#ArialMT-48"/>
      </g>
     </g>
    </g>
    <g id="xtick_2">
     <g id="line2d_2">
      <g>
       <use style="stroke:#000000;stroke-width:0.8;" x="64.864426" xlink:href="#m07ea041464" y="126.88726"/>
      </g>
     </g>
     <g id="text_2">
      <!-- 20 -->
      <g transform="translate(60.415676 139.61351)scale(0.08 -0.08)">
       <defs>
        <path d="M 50.34375 8.453125 
L 50.34375 0 
L 3.03125 0 
Q 2.9375 3.171875 4.046875 6.109375 
Q 5.859375 10.9375 9.828125 15.625 
Q 13.8125 20.3125 21.34375 26.46875 
Q 33.015625 36.03125 37.109375 41.625 
Q 41.21875 47.21875 41.21875 52.203125 
Q 41.21875 57.421875 37.46875 61 
Q 33.734375 64.59375 27.734375 64.59375 
Q 21.390625 64.59375 17.578125 60.78125 
Q 13.765625 56.984375 13.71875 50.25 
L 4.6875 51.171875 
Q 5.609375 61.28125 11.65625 66.578125 
Q 17.71875 71.875 27.9375 71.875 
Q 38.234375 71.875 44.234375 66.15625 
Q 50.25 60.453125 50.25 52 
Q 50.25 47.703125 48.484375 43.546875 
Q 46.734375 39.40625 42.65625 34.8125 
Q 38.578125 30.21875 29.109375 22.21875 
Q 21.1875 15.578125 18.9375 13.203125 
Q 16.703125 10.84375 15.234375 8.453125 
z
" id="ArialMT-50"/>
       </defs>
       <use xlink:href="#ArialMT-50"/>
       <use x="55.615234" xlink:href="#ArialMT-48"/>
      </g>
     </g>
    </g>
    <g id="xtick_3">
     <g id="line2d_3">
      <g>
       <use style="stroke:#000000;stroke-width:0.8;" x="92.749862" xlink:href="#m07ea041464" y="126.88726"/>
      </g>
     </g>
     <g id="text_3">
      <!-- 40 -->
      <g transform="translate(88.301112 139.61351)scale(0.08 -0.08)">
       <defs>
        <path d="M 32.328125 0 
L 32.328125 17.140625 
L 1.265625 17.140625 
L 1.265625 25.203125 
L 33.9375 71.578125 
L 41.109375 71.578125 
L 41.109375 25.203125 
L 50.78125 25.203125 
L 50.78125 17.140625 
L 41.109375 17.140625 
L 41.109375 0 
z
M 32.328125 25.203125 
L 32.328125 57.46875 
L 9.90625 25.203125 
z
" id="ArialMT-52"/>
       </defs>
       <use xlink:href="#ArialMT-52"/>
       <use x="55.615234" xlink:href="#ArialMT-48"/>
      </g>
     </g>
    </g>
    <g id="xtick_4">
     <g id="line2d_4">
      <g>
       <use style="stroke:#000000;stroke-width:0.8;" x="120.635298" xlink:href="#m07ea041464" y="126.88726"/>
      </g>
     </g>
     <g id="text_4">
      <!-- 60 -->
      <g transform="translate(116.186548 139.61351)scale(0.08 -0.08)">
       <defs>
        <path d="M 49.75 54.046875 
L 41.015625 53.375 
Q 39.84375 58.546875 37.703125 60.890625 
Q 34.125 64.65625 28.90625 64.65625 
Q 24.703125 64.65625 21.53125 62.3125 
Q 17.390625 59.28125 14.984375 53.46875 
Q 12.59375 47.65625 12.5 36.921875 
Q 15.671875 41.75 20.265625 44.09375 
Q 24.859375 46.4375 29.890625 46.4375 
Q 38.671875 46.4375 44.84375 39.96875 
Q 51.03125 33.5 51.03125 23.25 
Q 51.03125 16.5 48.125 10.71875 
Q 45.21875 4.9375 40.140625 1.859375 
Q 35.0625 -1.21875 28.609375 -1.21875 
Q 17.625 -1.21875 10.6875 6.859375 
Q 3.765625 14.9375 3.765625 33.5 
Q 3.765625 54.25 11.421875 63.671875 
Q 18.109375 71.875 29.4375 71.875 
Q 37.890625 71.875 43.28125 67.140625 
Q 48.6875 62.40625 49.75 54.046875 
z
M 13.875 23.1875 
Q 13.875 18.65625 15.796875 14.5 
Q 17.71875 10.359375 21.1875 8.171875 
Q 24.65625 6 28.46875 6 
Q 34.03125 6 38.03125 10.484375 
Q 42.046875 14.984375 42.046875 22.703125 
Q 42.046875 30.125 38.078125 34.390625 
Q 34.125 38.671875 28.125 38.671875 
Q 22.171875 38.671875 18.015625 34.390625 
Q 13.875 30.125 13.875 23.1875 
z
" id="ArialMT-54"/>
       </defs>
       <use xlink:href="#ArialMT-54"/>
       <use x="55.615234" xlink:href="#ArialMT-48"/>
      </g>
     </g>
    </g>
    <g id="xtick_5">
     <g id="line2d_5">
      <g>
       <use style="stroke:#000000;stroke-width:0.8;" x="148.520734" xlink:href="#m07ea041464" y="126.88726"/>
      </g>
     </g>
     <g id="text_5">
      <!-- 80 -->
      <g transform="translate(144.071984 139.61351)scale(0.08 -0.08)">
       <defs>
        <path d="M 17.671875 38.8125 
Q 12.203125 40.828125 9.5625 44.53125 
Q 6.9375 48.25 6.9375 53.421875 
Q 6.9375 61.234375 12.546875 66.546875 
Q 18.171875 71.875 27.484375 71.875 
Q 36.859375 71.875 42.578125 66.421875 
Q 48.296875 60.984375 48.296875 53.171875 
Q 48.296875 48.1875 45.671875 44.5 
Q 43.0625 40.828125 37.75 38.8125 
Q 44.34375 36.671875 47.78125 31.875 
Q 51.21875 27.09375 51.21875 20.453125 
Q 51.21875 11.28125 44.71875 5.03125 
Q 38.234375 -1.21875 27.640625 -1.21875 
Q 17.046875 -1.21875 10.546875 5.046875 
Q 4.046875 11.328125 4.046875 20.703125 
Q 4.046875 27.6875 7.59375 32.390625 
Q 11.140625 37.109375 17.671875 38.8125 
z
M 15.921875 53.71875 
Q 15.921875 48.640625 19.1875 45.40625 
Q 22.46875 42.1875 27.6875 42.1875 
Q 32.765625 42.1875 36.015625 45.375 
Q 39.265625 48.578125 39.265625 53.21875 
Q 39.265625 58.0625 35.90625 61.359375 
Q 32.5625 64.65625 27.59375 64.65625 
Q 22.5625 64.65625 19.234375 61.421875 
Q 15.921875 58.203125 15.921875 53.71875 
z
M 13.09375 20.65625 
Q 13.09375 16.890625 14.875 13.375 
Q 16.65625 9.859375 20.171875 7.921875 
Q 23.6875 6 27.734375 6 
Q 34.03125 6 38.125 10.046875 
Q 42.234375 14.109375 42.234375 20.359375 
Q 42.234375 26.703125 38.015625 30.859375 
Q 33.796875 35.015625 27.4375 35.015625 
Q 21.234375 35.015625 17.15625 30.90625 
Q 13.09375 26.8125 13.09375 20.65625 
z
" id="ArialMT-56"/>
       </defs>
       <use xlink:href="#ArialMT-56"/>
       <use x="55.615234" xlink:href="#ArialMT-48"/>
      </g>
     </g>
    </g>
    <g id="xtick_6">
     <g id="line2d_6">
      <g>
       <use style="stroke:#000000;stroke-width:0.8;" x="176.40617" xlink:href="#m07ea041464" y="126.88726"/>
      </g>
     </g>
     <g id="text_6">
      <!-- 100 -->
      <g transform="translate(169.733045 139.61351)scale(0.08 -0.08)">
       <defs>
        <path d="M 37.25 0 
L 28.46875 0 
L 28.46875 56 
Q 25.296875 52.984375 20.140625 49.953125 
Q 14.984375 46.921875 10.890625 45.40625 
L 10.890625 53.90625 
Q 18.265625 57.375 23.78125 62.296875 
Q 29.296875 67.234375 31.59375 71.875 
L 37.25 71.875 
z
" id="ArialMT-49"/>
       </defs>
       <use xlink:href="#ArialMT-49"/>
       <use x="55.615234" xlink:href="#ArialMT-48"/>
       <use x="111.230469" xlink:href="#ArialMT-48"/>
      </g>
     </g>
    </g>
    <g id="xtick_7">
     <g id="line2d_7">
      <g>
       <use style="stroke:#000000;stroke-width:0.8;" x="204.291606" xlink:href="#m07ea041464" y="126.88726"/>
      </g>
     </g>
     <g id="text_7">
      <!-- 120 -->
      <g transform="translate(197.618481 139.61351)scale(0.08 -0.08)">
       <use xlink:href="#ArialMT-49"/>
       <use x="55.615234" xlink:href="#ArialMT-50"/>
       <use x="111.230469" xlink:href="#ArialMT-48"/>
      </g>
     </g>
    </g>
    <g id="xtick_8">
     <g id="line2d_8">
      <g>
       <use style="stroke:#000000;stroke-width:0.8;" x="232.177042" xlink:href="#m07ea041464" y="126.88726"/>
      </g>
     </g>
     <g id="text_8">
      <!-- 140 -->
      <g transform="translate(225.503917 139.61351)scale(0.08 -0.08)">
       <use xlink:href="#ArialMT-49"/>
       <use x="55.615234" xlink:href="#ArialMT-52"/>
       <use x="111.230469" xlink:href="#ArialMT-48"/>
      </g>
     </g>
    </g>
    <g id="text_9">
     <!-- Time step -->
     <g transform="translate(124.14 150.92976)scale(0.08 -0.08)">
      <defs>
       <path d="M 25.921875 0 
L 25.921875 63.140625 
L 2.34375 63.140625 
L 2.34375 71.578125 
L 59.078125 71.578125 
L 59.078125 63.140625 
L 35.40625 63.140625 
L 35.40625 0 
z
" id="ArialMT-84"/>
       <path d="M 6.640625 61.46875 
L 6.640625 71.578125 
L 15.4375 71.578125 
L 15.4375 61.46875 
z
M 6.640625 0 
L 6.640625 51.859375 
L 15.4375 51.859375 
L 15.4375 0 
z
" id="ArialMT-105"/>
       <path d="M 6.59375 0 
L 6.59375 51.859375 
L 14.453125 51.859375 
L 14.453125 44.578125 
Q 16.890625 48.390625 20.9375 50.703125 
Q 25 53.03125 30.171875 53.03125 
Q 35.9375 53.03125 39.625 50.640625 
Q 43.3125 48.25 44.828125 43.953125 
Q 50.984375 53.03125 60.84375 53.03125 
Q 68.5625 53.03125 72.703125 48.75 
Q 76.859375 44.484375 76.859375 35.59375 
L 76.859375 0 
L 68.109375 0 
L 68.109375 32.671875 
Q 68.109375 37.9375 67.25 40.25 
Q 66.40625 42.578125 64.15625 43.984375 
Q 61.921875 45.40625 58.890625 45.40625 
Q 53.421875 45.40625 49.796875 41.765625 
Q 46.1875 38.140625 46.1875 30.125 
L 46.1875 0 
L 37.40625 0 
L 37.40625 33.6875 
Q 37.40625 39.546875 35.25 42.46875 
Q 33.109375 45.40625 28.21875 45.40625 
Q 24.515625 45.40625 21.359375 43.453125 
Q 18.21875 41.5 16.796875 37.734375 
Q 15.375 33.984375 15.375 26.90625 
L 15.375 0 
z
" id="ArialMT-109"/>
       <path d="M 42.09375 16.703125 
L 51.171875 15.578125 
Q 49.03125 7.625 43.21875 3.21875 
Q 37.40625 -1.171875 28.375 -1.171875 
Q 17 -1.171875 10.328125 5.828125 
Q 3.65625 12.84375 3.65625 25.484375 
Q 3.65625 38.578125 10.390625 45.796875 
Q 17.140625 53.03125 27.875 53.03125 
Q 38.28125 53.03125 44.875 45.953125 
Q 51.46875 38.875 51.46875 26.03125 
Q 51.46875 25.25 51.421875 23.6875 
L 12.75 23.6875 
Q 13.234375 15.140625 17.578125 10.59375 
Q 21.921875 6.0625 28.421875 6.0625 
Q 33.25 6.0625 36.671875 8.59375 
Q 40.09375 11.140625 42.09375 16.703125 
z
M 13.234375 30.90625 
L 42.1875 30.90625 
Q 41.609375 37.453125 38.875 40.71875 
Q 34.671875 45.796875 27.984375 45.796875 
Q 21.921875 45.796875 17.796875 41.75 
Q 13.671875 37.703125 13.234375 30.90625 
z
" id="ArialMT-101"/>
       <path id="ArialMT-32"/>
       <path d="M 3.078125 15.484375 
L 11.765625 16.84375 
Q 12.5 11.625 15.84375 8.84375 
Q 19.1875 6.0625 25.203125 6.0625 
Q 31.25 6.0625 34.171875 8.515625 
Q 37.109375 10.984375 37.109375 14.3125 
Q 37.109375 17.28125 34.515625 19 
Q 32.71875 20.171875 25.53125 21.96875 
Q 15.875 24.421875 12.140625 26.203125 
Q 8.40625 27.984375 6.46875 31.125 
Q 4.546875 34.28125 4.546875 38.09375 
Q 4.546875 41.546875 6.125 44.5 
Q 7.71875 47.46875 10.453125 49.421875 
Q 12.5 50.921875 16.03125 51.96875 
Q 19.578125 53.03125 23.640625 53.03125 
Q 29.734375 53.03125 34.34375 51.265625 
Q 38.96875 49.515625 41.15625 46.5 
Q 43.359375 43.5 44.1875 38.484375 
L 35.59375 37.3125 
Q 35.015625 41.3125 32.203125 43.546875 
Q 29.390625 45.796875 24.265625 45.796875 
Q 18.21875 45.796875 15.625 43.796875 
Q 13.03125 41.796875 13.03125 39.109375 
Q 13.03125 37.40625 14.109375 36.03125 
Q 15.1875 34.625 17.484375 33.6875 
Q 18.796875 33.203125 25.25 31.453125 
Q 34.578125 28.953125 38.25 27.359375 
Q 41.9375 25.78125 44.03125 22.75 
Q 46.140625 19.734375 46.140625 15.234375 
Q 46.140625 10.84375 43.578125 6.953125 
Q 41.015625 3.078125 36.171875 0.953125 
Q 31.34375 -1.171875 25.25 -1.171875 
Q 15.140625 -1.171875 9.84375 3.03125 
Q 4.546875 7.234375 3.078125 15.484375 
z
" id="ArialMT-115"/>
       <path d="M 25.78125 7.859375 
L 27.046875 0.09375 
Q 23.34375 -0.6875 20.40625 -0.6875 
Q 15.625 -0.6875 12.984375 0.828125 
Q 10.359375 2.34375 9.28125 4.8125 
Q 8.203125 7.28125 8.203125 15.1875 
L 8.203125 45.015625 
L 1.765625 45.015625 
L 1.765625 51.859375 
L 8.203125 51.859375 
L 8.203125 64.703125 
L 16.9375 69.96875 
L 16.9375 51.859375 
L 25.78125 51.859375 
L 25.78125 45.015625 
L 16.9375 45.015625 
L 16.9375 14.703125 
Q 16.9375 10.9375 17.40625 9.859375 
Q 17.875 8.796875 18.921875 8.15625 
Q 19.96875 7.515625 21.921875 7.515625 
Q 23.390625 7.515625 25.78125 7.859375 
z
" id="ArialMT-116"/>
       <path d="M 6.59375 -19.875 
L 6.59375 51.859375 
L 14.59375 51.859375 
L 14.59375 45.125 
Q 17.4375 49.078125 21 51.046875 
Q 24.5625 53.03125 29.640625 53.03125 
Q 36.28125 53.03125 41.359375 49.609375 
Q 46.4375 46.1875 49.015625 39.953125 
Q 51.609375 33.734375 51.609375 26.3125 
Q 51.609375 18.359375 48.75 11.984375 
Q 45.90625 5.609375 40.453125 2.21875 
Q 35.015625 -1.171875 29 -1.171875 
Q 24.609375 -1.171875 21.109375 0.6875 
Q 17.625 2.546875 15.375 5.375 
L 15.375 -19.875 
z
M 14.546875 25.640625 
Q 14.546875 15.625 18.59375 10.84375 
Q 22.65625 6.0625 28.421875 6.0625 
Q 34.28125 6.0625 38.453125 11.015625 
Q 42.625 15.96875 42.625 26.375 
Q 42.625 36.28125 38.546875 41.203125 
Q 34.46875 46.140625 28.8125 46.140625 
Q 23.1875 46.140625 18.859375 40.890625 
Q 14.546875 35.640625 14.546875 25.640625 
z
" id="ArialMT-112"/>
      </defs>
      <use xlink:href="#ArialMT-84"/>
      <use x="57.333984" xlink:href="#ArialMT-105"/>
      <use x="79.550781" xlink:href="#ArialMT-109"/>
      <use x="162.851562" xlink:href="#ArialMT-101"/>
      <use x="218.466797" xlink:href="#ArialMT-32"/>
      <use x="246.25" xlink:href="#ArialMT-115"/>
      <use x="296.25" xlink:href="#ArialMT-116"/>
      <use x="324.033203" xlink:href="#ArialMT-101"/>
      <use x="379.648438" xlink:href="#ArialMT-112"/>
     </g>
    </g>
   </g>
   <g id="matplotlib.axis_2">
    <g id="ytick_1">
     <g id="line2d_9">
      <defs>
       <path d="M 0 0 
L -3.5 0 
" id="m0d7871d48d" style="stroke:#000000;stroke-width:0.8;"/>
      </defs>
      <g>
       <use style="stroke:#000000;stroke-width:0.8;" x="36.97899" xlink:href="#m0d7871d48d" y="126.88726"/>
      </g>
     </g>
     <g id="text_10">
      <!-- 0.05 -->
      <g transform="translate(14.41024 129.750385)scale(0.08 -0.08)">
       <defs>
        <path d="M 9.078125 0 
L 9.078125 10.015625 
L 19.09375 10.015625 
L 19.09375 0 
z
" id="ArialMT-46"/>
        <path d="M 4.15625 18.75 
L 13.375 19.53125 
Q 14.40625 12.796875 18.140625 9.390625 
Q 21.875 6 27.15625 6 
Q 33.5 6 37.890625 10.78125 
Q 42.28125 15.578125 42.28125 23.484375 
Q 42.28125 31 38.0625 35.34375 
Q 33.84375 39.703125 27 39.703125 
Q 22.75 39.703125 19.328125 37.765625 
Q 15.921875 35.84375 13.96875 32.765625 
L 5.71875 33.84375 
L 12.640625 70.609375 
L 48.25 70.609375 
L 48.25 62.203125 
L 19.671875 62.203125 
L 15.828125 42.96875 
Q 22.265625 47.46875 29.34375 47.46875 
Q 38.71875 47.46875 45.15625 40.96875 
Q 51.609375 34.46875 51.609375 24.265625 
Q 51.609375 14.546875 45.953125 7.46875 
Q 39.0625 -1.21875 27.15625 -1.21875 
Q 17.390625 -1.21875 11.203125 4.25 
Q 5.03125 9.71875 4.15625 18.75 
z
" id="ArialMT-53"/>
       </defs>
       <use xlink:href="#ArialMT-48"/>
       <use x="55.615234" xlink:href="#ArialMT-46"/>
       <use x="83.398438" xlink:href="#ArialMT-48"/>
       <use x="139.013672" xlink:href="#ArialMT-53"/>
      </g>
     </g>
    </g>
    <g id="ytick_2">
     <g id="line2d_10">
      <g>
       <use style="stroke:#000000;stroke-width:0.8;" x="36.97899" xlink:href="#m0d7871d48d" y="99.356811"/>
      </g>
     </g>
     <g id="text_11">
      <!-- 0.10 -->
      <g transform="translate(14.41024 102.219936)scale(0.08 -0.08)">
       <use xlink:href="#ArialMT-48"/>
       <use x="55.615234" xlink:href="#ArialMT-46"/>
       <use x="83.398438" xlink:href="#ArialMT-49"/>
       <use x="139.013672" xlink:href="#ArialMT-48"/>
      </g>
     </g>
    </g>
    <g id="ytick_3">
     <g id="line2d_11">
      <g>
       <use style="stroke:#000000;stroke-width:0.8;" x="36.97899" xlink:href="#m0d7871d48d" y="71.826362"/>
      </g>
     </g>
     <g id="text_12">
      <!-- 0.15 -->
      <g transform="translate(14.41024 74.689487)scale(0.08 -0.08)">
       <use xlink:href="#ArialMT-48"/>
       <use x="55.615234" xlink:href="#ArialMT-46"/>
       <use x="83.398438" xlink:href="#ArialMT-49"/>
       <use x="139.013672" xlink:href="#ArialMT-53"/>
      </g>
     </g>
    </g>
    <g id="ytick_4">
     <g id="line2d_12">
      <g>
       <use style="stroke:#000000;stroke-width:0.8;" x="36.97899" xlink:href="#m0d7871d48d" y="44.295913"/>
      </g>
     </g>
     <g id="text_13">
      <!-- 0.20 -->
      <g transform="translate(14.41024 47.159038)scale(0.08 -0.08)">
       <use xlink:href="#ArialMT-48"/>
       <use x="55.615234" xlink:href="#ArialMT-46"/>
       <use x="83.398438" xlink:href="#ArialMT-50"/>
       <use x="139.013672" xlink:href="#ArialMT-48"/>
      </g>
     </g>
    </g>
    <g id="ytick_5">
     <g id="line2d_13">
      <g>
       <use style="stroke:#000000;stroke-width:0.8;" x="36.97899" xlink:href="#m0d7871d48d" y="16.765464"/>
      </g>
     </g>
     <g id="text_14">
      <!-- 0.25 -->
      <g transform="translate(14.41024 19.628589)scale(0.08 -0.08)">
       <use xlink:href="#ArialMT-48"/>
       <use x="55.615234" xlink:href="#ArialMT-46"/>
       <use x="83.398438" xlink:href="#ArialMT-50"/>
       <use x="139.013672" xlink:href="#ArialMT-53"/>
      </g>
     </g>
    </g>
    <g id="text_15">
     <!-- Learning rate -->
     <g transform="translate(8.72649 88.51375)rotate(-90)scale(0.08 -0.08)">
      <defs>
       <path d="M 7.328125 0 
L 7.328125 71.578125 
L 16.796875 71.578125 
L 16.796875 8.453125 
L 52.046875 8.453125 
L 52.046875 0 
z
" id="ArialMT-76"/>
       <path d="M 40.4375 6.390625 
Q 35.546875 2.25 31.03125 0.53125 
Q 26.515625 -1.171875 21.34375 -1.171875 
Q 12.796875 -1.171875 8.203125 3 
Q 3.609375 7.171875 3.609375 13.671875 
Q 3.609375 17.484375 5.34375 20.625 
Q 7.078125 23.78125 9.890625 25.6875 
Q 12.703125 27.59375 16.21875 28.5625 
Q 18.796875 29.25 24.03125 29.890625 
Q 34.671875 31.15625 39.703125 32.90625 
Q 39.75 34.71875 39.75 35.203125 
Q 39.75 40.578125 37.25 42.78125 
Q 33.890625 45.75 27.25 45.75 
Q 21.046875 45.75 18.09375 43.578125 
Q 15.140625 41.40625 13.71875 35.890625 
L 5.125 37.0625 
Q 6.296875 42.578125 8.984375 45.96875 
Q 11.671875 49.359375 16.75 51.1875 
Q 21.828125 53.03125 28.515625 53.03125 
Q 35.15625 53.03125 39.296875 51.46875 
Q 43.453125 49.90625 45.40625 47.53125 
Q 47.359375 45.171875 48.140625 41.546875 
Q 48.578125 39.3125 48.578125 33.453125 
L 48.578125 21.734375 
Q 48.578125 9.46875 49.140625 6.21875 
Q 49.703125 2.984375 51.375 0 
L 42.1875 0 
Q 40.828125 2.734375 40.4375 6.390625 
z
M 39.703125 26.03125 
Q 34.90625 24.078125 25.34375 22.703125 
Q 19.921875 21.921875 17.671875 20.9375 
Q 15.4375 19.96875 14.203125 18.09375 
Q 12.984375 16.21875 12.984375 13.921875 
Q 12.984375 10.40625 15.640625 8.0625 
Q 18.3125 5.71875 23.4375 5.71875 
Q 28.515625 5.71875 32.46875 7.9375 
Q 36.421875 10.15625 38.28125 14.015625 
Q 39.703125 17 39.703125 22.796875 
z
" id="ArialMT-97"/>
       <path d="M 6.5 0 
L 6.5 51.859375 
L 14.40625 51.859375 
L 14.40625 44 
Q 17.4375 49.515625 20 51.265625 
Q 22.5625 53.03125 25.640625 53.03125 
Q 30.078125 53.03125 34.671875 50.203125 
L 31.640625 42.046875 
Q 28.421875 43.953125 25.203125 43.953125 
Q 22.3125 43.953125 20.015625 42.21875 
Q 17.71875 40.484375 16.75 37.40625 
Q 15.28125 32.71875 15.28125 27.15625 
L 15.28125 0 
z
" id="ArialMT-114"/>
       <path d="M 6.59375 0 
L 6.59375 51.859375 
L 14.5 51.859375 
L 14.5 44.484375 
Q 20.21875 53.03125 31 53.03125 
Q 35.6875 53.03125 39.625 51.34375 
Q 43.5625 49.65625 45.515625 46.921875 
Q 47.46875 44.1875 48.25 40.4375 
Q 48.734375 37.984375 48.734375 31.890625 
L 48.734375 0 
L 39.9375 0 
L 39.9375 31.546875 
Q 39.9375 36.921875 38.90625 39.578125 
Q 37.890625 42.234375 35.28125 43.8125 
Q 32.671875 45.40625 29.15625 45.40625 
Q 23.53125 45.40625 19.453125 41.84375 
Q 15.375 38.28125 15.375 28.328125 
L 15.375 0 
z
" id="ArialMT-110"/>
       <path d="M 4.984375 -4.296875 
L 13.53125 -5.5625 
Q 14.0625 -9.515625 16.5 -11.328125 
Q 19.78125 -13.765625 25.4375 -13.765625 
Q 31.546875 -13.765625 34.859375 -11.328125 
Q 38.1875 -8.890625 39.359375 -4.5 
Q 40.046875 -1.8125 39.984375 6.78125 
Q 34.234375 0 25.640625 0 
Q 14.9375 0 9.078125 7.71875 
Q 3.21875 15.4375 3.21875 26.21875 
Q 3.21875 33.640625 5.90625 39.90625 
Q 8.59375 46.1875 13.6875 49.609375 
Q 18.796875 53.03125 25.6875 53.03125 
Q 34.859375 53.03125 40.828125 45.609375 
L 40.828125 51.859375 
L 48.921875 51.859375 
L 48.921875 7.03125 
Q 48.921875 -5.078125 46.453125 -10.125 
Q 44 -15.1875 38.640625 -18.109375 
Q 33.296875 -21.046875 25.484375 -21.046875 
Q 16.21875 -21.046875 10.5 -16.875 
Q 4.78125 -12.703125 4.984375 -4.296875 
z
M 12.25 26.859375 
Q 12.25 16.65625 16.296875 11.96875 
Q 20.359375 7.28125 26.46875 7.28125 
Q 32.515625 7.28125 36.609375 11.9375 
Q 40.71875 16.609375 40.71875 26.5625 
Q 40.71875 36.078125 36.5 40.90625 
Q 32.28125 45.75 26.3125 45.75 
Q 20.453125 45.75 16.34375 40.984375 
Q 12.25 36.234375 12.25 26.859375 
z
" id="ArialMT-103"/>
      </defs>
      <use xlink:href="#ArialMT-76"/>
      <use x="55.615234" xlink:href="#ArialMT-101"/>
      <use x="111.230469" xlink:href="#ArialMT-97"/>
      <use x="166.845703" xlink:href="#ArialMT-114"/>
      <use x="200.146484" xlink:href="#ArialMT-110"/>
      <use x="255.761719" xlink:href="#ArialMT-105"/>
      <use x="277.978516" xlink:href="#ArialMT-110"/>
      <use x="333.59375" xlink:href="#ArialMT-103"/>
      <use x="389.208984" xlink:href="#ArialMT-32"/>
      <use x="416.992188" xlink:href="#ArialMT-114"/>
      <use x="450.292969" xlink:href="#ArialMT-97"/>
      <use x="505.908203" xlink:href="#ArialMT-116"/>
      <use x="533.691406" xlink:href="#ArialMT-101"/>
     </g>
    </g>
   </g>
   <g id="line2d_14">
    <path clip-path="url(#pb77762dcdb)" d="M 38.121994 -1 
L 38.373262 8.802528 
L 39.767534 38.406733 
L 41.161805 56.922571 
L 42.556077 69.536013 
L 43.950349 78.601836 
L 45.344621 85.127733 
L 46.738893 90.146692 
L 48.133164 93.947591 
L 49.527436 96.916663 
L 50.921708 99.39785 
L 53.710252 102.960923 
L 56.498795 105.751834 
L 57.893067 106.998627 
L 59.287339 108.012077 
L 60.681611 108.566794 
L 63.470154 110.484764 
L 64.864426 111.252274 
L 66.258698 111.410785 
L 67.65297 112.117313 
L 70.441513 112.831378 
L 71.835785 113.423463 
L 73.230057 113.562861 
L 74.624329 113.393425 
L 76.0186 113.631477 
L 77.412872 114.595141 
L 78.807144 115.081676 
L 80.201416 115.34524 
L 81.595688 115.759402 
L 84.384231 115.619249 
L 85.778503 115.823866 
L 87.172775 116.492313 
L 88.567047 116.738368 
L 89.961318 116.544671 
L 92.749862 117.197446 
L 94.144134 117.303193 
L 96.932677 117.840429 
L 98.326949 117.824902 
L 102.509765 118.224315 
L 103.904036 118.024584 
L 106.69258 118.61518 
L 109.481124 118.488183 
L 110.875395 118.973393 
L 113.663939 118.62779 
L 115.058211 118.971026 
L 116.452483 118.971207 
L 119.241026 119.130362 
L 122.02957 118.890883 
L 124.818113 118.937756 
L 126.212385 119.72364 
L 127.606657 120.198285 
L 135.972288 119.505748 
L 137.36656 119.604475 
L 140.155103 120.192353 
L 141.549375 120.04545 
L 142.943647 112.03516 
L 144.337919 86.363745 
L 145.73219 55.211487 
L 147.126462 35.119055 
L 148.520734 31.487091 
L 149.915006 37.26398 
L 152.703549 56.580057 
L 154.097821 65.459616 
L 155.492093 73.1378 
L 156.886365 79.593999 
L 158.280637 85.215228 
L 159.674908 89.79041 
L 162.463452 96.254354 
L 163.857724 98.840311 
L 166.646267 103.02876 
L 168.040539 104.70536 
L 169.434811 105.852051 
L 172.223355 108.498005 
L 173.617626 109.311203 
L 175.011898 109.726989 
L 176.40617 110.582688 
L 177.800442 110.947272 
L 179.194714 111.441262 
L 180.588985 112.202015 
L 181.983257 112.400384 
L 184.771801 113.685927 
L 186.166073 114.268536 
L 187.560344 114.431014 
L 190.348888 114.914998 
L 191.74316 115.540816 
L 193.137432 115.991969 
L 194.531703 115.844854 
L 195.925975 115.897167 
L 197.320247 116.427737 
L 201.503062 116.810926 
L 202.897334 116.990605 
L 204.291606 117.310971 
L 208.474421 117.785433 
L 211.262965 117.694041 
L 214.051509 118.142055 
L 215.44578 118.060964 
L 216.840052 118.464131 
L 218.234324 118.402829 
L 221.022868 118.733984 
L 222.417139 119.179586 
L 223.811411 118.655576 
L 229.388498 119.316055 
L 234.965586 119.586831 
L 236.359857 119.778723 
L 237.754129 119.396469 
L 239.148401 119.789196 
L 241.936945 120.057648 
L 243.331216 119.795678 
L 246.11976 119.634107 
L 247.514032 119.806586 
L 248.908304 112.141567 
L 250.12 90.017493 
L 250.12 90.017493 
" style="fill:none;stroke:#7a5195;stroke-linecap:square;"/>
   </g>
   <g id="line2d_15">
    <path clip-path="url(#pb77762dcdb)" d="M 37.308935 -1 
L 38.373262 34.167186 
L 39.767534 57.33279 
L 41.161805 70.384483 
L 42.556077 78.991866 
L 43.950349 85.446896 
L 45.344621 90.046133 
L 46.738893 93.750145 
L 48.133164 96.572272 
L 49.527436 98.751368 
L 50.921708 100.701674 
L 53.710252 103.347211 
L 56.498795 105.389406 
L 59.287339 107.142295 
L 60.681611 107.361983 
L 62.075882 108.126822 
L 64.864426 109.339164 
L 66.258698 109.196412 
L 67.65297 109.807966 
L 70.441513 110.233432 
L 71.835785 110.815236 
L 73.230057 110.832127 
L 74.624329 110.52069 
L 76.0186 110.636597 
L 77.412872 111.574495 
L 78.807144 111.937339 
L 80.201416 112.065424 
L 81.595688 112.405024 
L 84.384231 112.116881 
L 85.778503 112.277581 
L 87.172775 112.950566 
L 88.567047 113.078889 
L 89.961318 112.750221 
L 92.749862 113.349667 
L 95.538406 113.475396 
L 96.932677 113.713179 
L 101.115493 113.705141 
L 102.509765 113.91803 
L 103.904036 113.65639 
L 106.69258 114.15804 
L 108.086852 113.902261 
L 109.481124 113.817303 
L 110.875395 114.344623 
L 112.269667 114.07447 
L 113.663939 114.056417 
L 115.058211 114.381122 
L 116.452483 114.273558 
L 119.241026 114.432067 
L 122.02957 114.059369 
L 123.423842 114.121875 
L 124.818113 114.05652 
L 126.212385 114.644712 
L 127.606657 115.078212 
L 130.395201 114.792542 
L 133.183744 114.573052 
L 134.578016 114.310788 
L 137.36656 114.45911 
L 140.155103 114.920999 
L 141.549375 114.712878 
L 142.943647 106.875935 
L 145.73219 68.197985 
L 147.126462 56.231407 
L 148.520734 53.002275 
L 149.915006 55.030913 
L 151.309278 60.074644 
L 154.097821 71.000804 
L 155.492093 75.964091 
L 156.886365 80.438627 
L 158.280637 84.516196 
L 159.674908 87.865362 
L 163.857724 95.15016 
L 168.040539 100.431934 
L 169.434811 101.512799 
L 172.223355 104.044556 
L 173.617626 104.875648 
L 175.011898 105.125781 
L 176.40617 106.072837 
L 179.194714 107.140475 
L 180.588985 107.952089 
L 181.983257 108.166656 
L 186.166073 110.145641 
L 188.954616 110.722592 
L 190.348888 111.022498 
L 191.74316 111.698804 
L 193.137432 112.091934 
L 194.531703 112.060769 
L 195.925975 112.201472 
L 197.320247 112.713941 
L 198.714519 112.920298 
L 201.503062 113.118357 
L 205.685878 113.854697 
L 208.474421 114.180691 
L 209.868693 114.20431 
L 211.262965 114.076763 
L 212.657237 114.422223 
L 214.051509 114.638097 
L 215.44578 114.560815 
L 216.840052 114.921809 
L 218.234324 114.856033 
L 221.022868 115.261586 
L 222.417139 115.536779 
L 223.811411 115.003746 
L 226.599955 115.62907 
L 227.994227 115.631334 
L 232.177042 116.079051 
L 236.359857 116.215983 
L 237.754129 115.929551 
L 240.542673 116.514227 
L 241.936945 116.552756 
L 243.331216 116.275779 
L 247.514032 116.334884 
L 248.908304 108.077061 
L 250.12 91.840446 
L 250.12 91.840446 
" style="fill:none;stroke:#ffa600;stroke-linecap:square;"/>
   </g>
   <g id="line2d_16">
    <path clip-path="url(#pb77762dcdb)" d="M 37.767367 -1 
L 38.373262 20.610158 
L 39.767534 47.768584 
L 41.161805 64.557735 
L 42.556077 75.774496 
L 43.950349 83.787565 
L 45.344621 89.685422 
L 46.738893 94.091937 
L 48.133164 97.565988 
L 49.527436 100.310838 
L 50.921708 102.452148 
L 53.710252 105.796439 
L 56.498795 108.153816 
L 57.893067 109.153289 
L 62.075882 111.233998 
L 63.470154 111.80981 
L 64.864426 112.110107 
L 67.65297 112.903183 
L 69.047241 113.091405 
L 70.441513 113.48227 
L 71.835785 113.750568 
L 74.624329 113.814824 
L 76.0186 114.199067 
L 77.412872 114.431722 
L 78.807144 114.491609 
L 80.201416 114.749746 
L 81.595688 114.700791 
L 82.989959 114.877317 
L 84.384231 114.86209 
L 85.778503 115.136431 
L 94.144134 115.495178 
L 95.538406 115.487558 
L 98.326949 115.640072 
L 102.509765 115.63334 
L 103.904036 115.763548 
L 112.269667 115.796117 
L 113.663939 115.973702 
L 115.058211 115.839011 
L 119.241026 115.916679 
L 122.02957 115.779972 
L 127.606657 115.977935 
L 137.36656 115.775759 
L 138.760831 115.897699 
L 141.549375 115.878427 
L 142.943647 106.253166 
L 144.337919 105.931827 
L 145.73219 105.946161 
L 148.520734 106.544858 
L 155.492093 108.72512 
L 158.280637 109.592889 
L 161.06918 110.381896 
L 166.646267 111.852443 
L 169.434811 112.363102 
L 172.223355 112.912984 
L 177.800442 113.517543 
L 179.194714 113.807055 
L 180.588985 113.833103 
L 183.377529 114.230746 
L 195.925975 115.216623 
L 200.108791 115.208524 
L 202.897334 115.441293 
L 212.657237 115.670246 
L 215.44578 115.634946 
L 244.725488 115.890239 
L 246.11976 115.840737 
L 247.514032 115.912499 
L 248.908304 106.426928 
L 250.12 106.13849 
L 250.12 106.13849 
" style="fill:none;stroke:#009999;stroke-linecap:square;"/>
   </g>
   <g id="line2d_17">
    <path clip-path="url(#pb77762dcdb)" d="M 36.97899 112.580491 
L 250.12 112.580497 
L 250.12 112.580497 
" style="fill:none;stroke:#ef5675;stroke-linecap:square;"/>
   </g>
   <g id="line2d_18">
    <path clip-path="url(#pb77762dcdb)" d="M 141.549375 126.88726 
L 141.549375 3.00024 
" style="fill:none;stroke:#000000;stroke-linecap:square;"/>
   </g>
   <g id="patch_3">
    <path d="M 36.97899 126.88726 
L 36.97899 3.00024 
" style="fill:none;stroke:#000000;stroke-linecap:square;stroke-linejoin:miter;stroke-width:0.8;"/>
   </g>
   <g id="patch_4">
    <path d="M 36.97899 126.88726 
L 246.11976 126.88726 
" style="fill:none;stroke:#000000;stroke-linecap:square;stroke-linejoin:miter;stroke-width:0.8;"/>
   </g>
   <g id="patch_5">
    <path d="M 114.362947 12.298549 
Q 127.956161 15.220268 140.456305 17.907043 
" style="fill:none;stroke:#000000;stroke-linecap:round;"/>
    <path d="M 137.663982 15.67032 
L 140.456305 17.907043 
L 136.991533 18.798868 
" style="fill:none;stroke:#000000;stroke-linecap:round;"/>
   </g>
   <g id="text_16">
    <!-- Change point -->
    <g transform="translate(64.772047 8.82399)scale(0.08 -0.08)">
     <defs>
      <path d="M 58.796875 25.09375 
L 68.265625 22.703125 
Q 65.28125 11.03125 57.546875 4.90625 
Q 49.8125 -1.21875 38.625 -1.21875 
Q 27.046875 -1.21875 19.796875 3.484375 
Q 12.546875 8.203125 8.765625 17.140625 
Q 4.984375 26.078125 4.984375 36.328125 
Q 4.984375 47.515625 9.25 55.828125 
Q 13.53125 64.15625 21.40625 68.46875 
Q 29.296875 72.796875 38.765625 72.796875 
Q 49.515625 72.796875 56.828125 67.328125 
Q 64.15625 61.859375 67.046875 51.953125 
L 57.71875 49.75 
Q 55.21875 57.5625 50.484375 61.125 
Q 45.75 64.703125 38.578125 64.703125 
Q 30.328125 64.703125 24.78125 60.734375 
Q 19.234375 56.78125 16.984375 50.109375 
Q 14.75 43.453125 14.75 36.375 
Q 14.75 27.25 17.40625 20.4375 
Q 20.0625 13.625 25.671875 10.25 
Q 31.296875 6.890625 37.84375 6.890625 
Q 45.796875 6.890625 51.3125 11.46875 
Q 56.84375 16.0625 58.796875 25.09375 
z
" id="ArialMT-67"/>
      <path d="M 6.59375 0 
L 6.59375 71.578125 
L 15.375 71.578125 
L 15.375 45.90625 
Q 21.53125 53.03125 30.90625 53.03125 
Q 36.671875 53.03125 40.921875 50.75 
Q 45.171875 48.484375 47 44.484375 
Q 48.828125 40.484375 48.828125 32.859375 
L 48.828125 0 
L 40.046875 0 
L 40.046875 32.859375 
Q 40.046875 39.453125 37.1875 42.453125 
Q 34.328125 45.453125 29.109375 45.453125 
Q 25.203125 45.453125 21.75 43.421875 
Q 18.3125 41.40625 16.84375 37.9375 
Q 15.375 34.46875 15.375 28.375 
L 15.375 0 
z
" id="ArialMT-104"/>
      <path d="M 3.328125 25.921875 
Q 3.328125 40.328125 11.328125 47.265625 
Q 18.015625 53.03125 27.640625 53.03125 
Q 38.328125 53.03125 45.109375 46.015625 
Q 51.90625 39.015625 51.90625 26.65625 
Q 51.90625 16.65625 48.90625 10.90625 
Q 45.90625 5.171875 40.15625 2 
Q 34.421875 -1.171875 27.640625 -1.171875 
Q 16.75 -1.171875 10.03125 5.8125 
Q 3.328125 12.796875 3.328125 25.921875 
z
M 12.359375 25.921875 
Q 12.359375 15.96875 16.703125 11.015625 
Q 21.046875 6.0625 27.640625 6.0625 
Q 34.1875 6.0625 38.53125 11.03125 
Q 42.875 16.015625 42.875 26.21875 
Q 42.875 35.84375 38.5 40.796875 
Q 34.125 45.75 27.640625 45.75 
Q 21.046875 45.75 16.703125 40.8125 
Q 12.359375 35.890625 12.359375 25.921875 
z
" id="ArialMT-111"/>
     </defs>
     <use xlink:href="#ArialMT-67"/>
     <use x="72.216797" xlink:href="#ArialMT-104"/>
     <use x="127.832031" xlink:href="#ArialMT-97"/>
     <use x="183.447266" xlink:href="#ArialMT-110"/>
     <use x="239.0625" xlink:href="#ArialMT-103"/>
     <use x="294.677734" xlink:href="#ArialMT-101"/>
     <use x="350.292969" xlink:href="#ArialMT-32"/>
     <use x="378.076172" xlink:href="#ArialMT-112"/>
     <use x="433.691406" xlink:href="#ArialMT-111"/>
     <use x="489.306641" xlink:href="#ArialMT-105"/>
     <use x="511.523438" xlink:href="#ArialMT-110"/>
     <use x="567.138672" xlink:href="#ArialMT-116"/>
    </g>
   </g>
   <g id="legend_1">
    <g id="line2d_19">
     <path d="M 162.463452 36.312484 
L 178.463452 36.312484 
" style="fill:none;stroke:#7a5195;stroke-linecap:square;"/>
    </g>
    <g id="line2d_20"/>
    <g id="text_17">
     <!-- Optimal -->
     <g transform="translate(184.863452 39.112484)scale(0.08 -0.08)">
      <defs>
       <path d="M 4.828125 34.859375 
Q 4.828125 52.6875 14.390625 62.765625 
Q 23.96875 72.859375 39.109375 72.859375 
Q 49.03125 72.859375 56.984375 68.109375 
Q 64.9375 63.375 69.109375 54.90625 
Q 73.296875 46.4375 73.296875 35.6875 
Q 73.296875 24.8125 68.890625 16.21875 
Q 64.5 7.625 56.4375 3.203125 
Q 48.390625 -1.21875 39.0625 -1.21875 
Q 28.953125 -1.21875 20.984375 3.65625 
Q 13.03125 8.546875 8.921875 16.984375 
Q 4.828125 25.4375 4.828125 34.859375 
z
M 14.59375 34.71875 
Q 14.59375 21.78125 21.546875 14.328125 
Q 28.515625 6.890625 39.015625 6.890625 
Q 49.703125 6.890625 56.609375 14.40625 
Q 63.53125 21.921875 63.53125 35.75 
Q 63.53125 44.484375 60.578125 51 
Q 57.625 57.515625 51.921875 61.109375 
Q 46.234375 64.703125 39.15625 64.703125 
Q 29.109375 64.703125 21.84375 57.78125 
Q 14.59375 50.875 14.59375 34.71875 
z
" id="ArialMT-79"/>
       <path d="M 6.390625 0 
L 6.390625 71.578125 
L 15.1875 71.578125 
L 15.1875 0 
z
" id="ArialMT-108"/>
      </defs>
      <use xlink:href="#ArialMT-79"/>
      <use x="77.783203" xlink:href="#ArialMT-112"/>
      <use x="133.398438" xlink:href="#ArialMT-116"/>
      <use x="161.181641" xlink:href="#ArialMT-105"/>
      <use x="183.398438" xlink:href="#ArialMT-109"/>
      <use x="266.699219" xlink:href="#ArialMT-97"/>
      <use x="322.314453" xlink:href="#ArialMT-108"/>
     </g>
    </g>
    <g id="line2d_21">
     <path d="M 162.463452 47.628734 
L 178.463452 47.628734 
" style="fill:none;stroke:#ffa600;stroke-linecap:square;"/>
    </g>
    <g id="line2d_22"/>
    <g id="text_18">
     <!-- Network -->
     <g transform="translate(184.863452 50.428734)scale(0.08 -0.08)">
      <defs>
       <path d="M 7.625 0 
L 7.625 71.578125 
L 17.328125 71.578125 
L 54.9375 15.375 
L 54.9375 71.578125 
L 64.015625 71.578125 
L 64.015625 0 
L 54.296875 0 
L 16.703125 56.25 
L 16.703125 0 
z
" id="ArialMT-78"/>
       <path d="M 16.15625 0 
L 0.296875 51.859375 
L 9.375 51.859375 
L 17.625 21.921875 
L 20.703125 10.796875 
Q 20.90625 11.625 23.390625 21.484375 
L 31.640625 51.859375 
L 40.671875 51.859375 
L 48.4375 21.78125 
L 51.03125 11.859375 
L 54 21.875 
L 62.890625 51.859375 
L 71.4375 51.859375 
L 55.21875 0 
L 46.09375 0 
L 37.84375 31.0625 
L 35.84375 39.890625 
L 25.34375 0 
z
" id="ArialMT-119"/>
       <path d="M 6.640625 0 
L 6.640625 71.578125 
L 15.4375 71.578125 
L 15.4375 30.765625 
L 36.234375 51.859375 
L 47.609375 51.859375 
L 27.78125 32.625 
L 49.609375 0 
L 38.765625 0 
L 21.625 26.515625 
L 15.4375 20.5625 
L 15.4375 0 
z
" id="ArialMT-107"/>
      </defs>
      <use xlink:href="#ArialMT-78"/>
      <use x="72.216797" xlink:href="#ArialMT-101"/>
      <use x="127.832031" xlink:href="#ArialMT-116"/>
      <use x="155.615234" xlink:href="#ArialMT-119"/>
      <use x="227.832031" xlink:href="#ArialMT-111"/>
      <use x="283.447266" xlink:href="#ArialMT-114"/>
      <use x="316.748047" xlink:href="#ArialMT-107"/>
     </g>
    </g>
    <g id="line2d_23">
     <path d="M 162.463452 58.944984 
L 178.463452 58.944984 
" style="fill:none;stroke:#009999;stroke-linecap:square;"/>
    </g>
    <g id="line2d_24"/>
    <g id="text_19">
     <!-- Leaky -->
     <g transform="translate(184.863452 61.744984)scale(0.08 -0.08)">
      <defs>
       <path d="M 6.203125 -19.96875 
L 5.21875 -11.71875 
Q 8.109375 -12.5 10.25 -12.5 
Q 13.1875 -12.5 14.9375 -11.515625 
Q 16.703125 -10.546875 17.828125 -8.796875 
Q 18.65625 -7.46875 20.515625 -2.25 
Q 20.75 -1.515625 21.296875 -0.09375 
L 1.609375 51.859375 
L 11.078125 51.859375 
L 21.875 21.828125 
Q 23.96875 16.109375 25.640625 9.8125 
Q 27.15625 15.875 29.25 21.625 
L 40.328125 51.859375 
L 49.125 51.859375 
L 29.390625 -0.875 
Q 26.21875 -9.421875 24.46875 -12.640625 
Q 22.125 -17 19.09375 -19.015625 
Q 16.0625 -21.046875 11.859375 -21.046875 
Q 9.328125 -21.046875 6.203125 -19.96875 
z
" id="ArialMT-121"/>
      </defs>
      <use xlink:href="#ArialMT-76"/>
      <use x="55.615234" xlink:href="#ArialMT-101"/>
      <use x="111.230469" xlink:href="#ArialMT-97"/>
      <use x="166.845703" xlink:href="#ArialMT-107"/>
      <use x="216.845703" xlink:href="#ArialMT-121"/>
     </g>
    </g>
    <g id="line2d_25">
     <path d="M 162.463452 70.354984 
L 178.463452 70.354984 
" style="fill:none;stroke:#ef5675;stroke-linecap:square;"/>
    </g>
    <g id="line2d_26"/>
    <g id="text_20">
     <!-- Delta-rule -->
     <g transform="translate(184.863452 73.154984)scale(0.08 -0.08)">
      <defs>
       <path d="M 7.71875 0 
L 7.71875 71.578125 
L 32.375 71.578125 
Q 40.71875 71.578125 45.125 70.5625 
Q 51.265625 69.140625 55.609375 65.4375 
Q 61.28125 60.640625 64.078125 53.1875 
Q 66.890625 45.75 66.890625 36.1875 
Q 66.890625 28.03125 64.984375 21.734375 
Q 63.09375 15.4375 60.109375 11.296875 
Q 57.125 7.171875 53.578125 4.796875 
Q 50.046875 2.4375 45.046875 1.21875 
Q 40.046875 0 33.546875 0 
z
M 17.1875 8.453125 
L 32.46875 8.453125 
Q 39.546875 8.453125 43.578125 9.765625 
Q 47.609375 11.078125 50 13.484375 
Q 53.375 16.84375 55.25 22.53125 
Q 57.125 28.21875 57.125 36.328125 
Q 57.125 47.5625 53.4375 53.59375 
Q 49.75 59.625 44.484375 61.671875 
Q 40.671875 63.140625 32.234375 63.140625 
L 17.1875 63.140625 
z
" id="ArialMT-68"/>
       <path d="M 3.171875 21.484375 
L 3.171875 30.328125 
L 30.171875 30.328125 
L 30.171875 21.484375 
z
" id="ArialMT-45"/>
       <path d="M 40.578125 0 
L 40.578125 7.625 
Q 34.515625 -1.171875 24.125 -1.171875 
Q 19.53125 -1.171875 15.546875 0.578125 
Q 11.578125 2.34375 9.640625 5 
Q 7.71875 7.671875 6.9375 11.53125 
Q 6.390625 14.109375 6.390625 19.734375 
L 6.390625 51.859375 
L 15.1875 51.859375 
L 15.1875 23.09375 
Q 15.1875 16.21875 15.71875 13.8125 
Q 16.546875 10.359375 19.234375 8.375 
Q 21.921875 6.390625 25.875 6.390625 
Q 29.828125 6.390625 33.296875 8.421875 
Q 36.765625 10.453125 38.203125 13.9375 
Q 39.65625 17.4375 39.65625 24.078125 
L 39.65625 51.859375 
L 48.4375 51.859375 
L 48.4375 0 
z
" id="ArialMT-117"/>
      </defs>
      <use xlink:href="#ArialMT-68"/>
      <use x="72.216797" xlink:href="#ArialMT-101"/>
      <use x="127.832031" xlink:href="#ArialMT-108"/>
      <use x="150.048828" xlink:href="#ArialMT-116"/>
      <use x="177.832031" xlink:href="#ArialMT-97"/>
      <use x="233.447266" xlink:href="#ArialMT-45"/>
      <use x="266.748047" xlink:href="#ArialMT-114"/>
      <use x="300.048828" xlink:href="#ArialMT-117"/>
      <use x="355.664062" xlink:href="#ArialMT-108"/>
      <use x="377.880859" xlink:href="#ArialMT-101"/>
     </g>
    </g>
   </g>
  </g>
 </g>
 <defs>
  <clipPath id="pb77762dcdb">
   <rect height="123.88702" width="209.14077" x="36.97899" y="3.00024"/>
  </clipPath>
 </defs>
</svg>
