<?xml version="1.0" encoding="utf-8" standalone="no"?>
<!DOCTYPE svg PUBLIC "-//W3C//DTD SVG 1.1//EN"
  "http://www.w3.org/Graphics/SVG/1.1/DTD/svg11.dtd">
<!-- Created with matplotlib (https://matplotlib.org/) -->
<svg height="195.12pt" version="1.1" viewBox="0 0 237.6 195.12" width="237.6pt" xmlns="http://www.w3.org/2000/svg" xmlns:xlink="http://www.w3.org/1999/xlink">
 <metadata>
  <rdf:RDF xmlns:cc="http://creativecommons.org/ns#" xmlns:dc="http://purl.org/dc/elements/1.1/" xmlns:rdf="http://www.w3.org/1999/02/22-rdf-syntax-ns#">
   <cc:Work>
    <dc:type rdf:resource="http://purl.org/dc/dcmitype/StillImage"/>
    <dc:date>2021-11-11T09:58:41.524799</dc:date>
    <dc:format>image/svg+xml</dc:format>
    <dc:creator>
     <cc:Agent>
      <dc:title>Matplotlib v3.3.4, https://matplotlib.org/</dc:title>
     </cc:Agent>
    </dc:creator>
   </cc:Work>
  </rdf:RDF>
 </metadata>
 <defs>
  <style type="text/css">*{stroke-linecap:butt;stroke-linejoin:round;}</style>
 </defs>
 <g id="figure_1">
  <g id="patch_1">
   <path d="M 0 195.12 
L 237.6 195.12 
L 237.6 0 
L 0 0 
z
" style="fill:#ffffff;"/>
  </g>
  <g id="axes_1">
   <g id="patch_2">
    <path d="M 35.29149 166.39351 
L 234.59976 166.39351 
L 234.59976 3.00024 
L 35.29149 3.00024 
z
" style="fill:#ffffff;"/>
   </g>
   <g id="PolyCollection_1">
    <path clip-path="url(#pec6c750650)" d="M 52.140805 81.409775 
L 40.587538 81.409775 
L 40.239627 80.741413 
L 39.890308 80.07305 
L 39.541299 79.404688 
L 39.194369 78.736326 
L 38.851324 78.067964 
L 38.513999 77.399601 
L 38.184241 76.731239 
L 37.863901 76.062877 
L 37.55482 75.394515 
L 37.258814 74.726152 
L 36.977667 74.05779 
L 36.713108 73.389428 
L 36.466804 72.721066 
L 36.240339 72.052703 
L 36.035196 71.384341 
L 35.852743 70.715979 
L 35.694212 70.047617 
L 35.560676 69.379254 
L 35.453038 68.710892 
L 35.372001 68.04253 
L 35.318063 67.374168 
L 35.29149 66.705805 
L 35.292313 66.037443 
L 35.320312 65.369081 
L 35.375013 64.700719 
L 35.455691 64.032356 
L 35.561367 63.363994 
L 35.690826 62.695632 
L 35.842627 62.02727 
L 36.015124 61.358907 
L 36.206493 60.690545 
L 36.414759 60.022183 
L 36.637832 59.353821 
L 36.873538 58.685458 
L 37.119658 58.017096 
L 37.373966 57.348734 
L 37.634263 56.680372 
L 37.898413 56.012009 
L 38.164374 55.343647 
L 38.430226 54.675285 
L 38.694194 54.006923 
L 38.954672 53.33856 
L 39.210229 52.670198 
L 39.459624 52.001836 
L 39.701808 51.333474 
L 39.935923 50.665111 
L 40.1613 49.996749 
L 40.377446 49.328387 
L 40.584037 48.660025 
L 40.780903 47.991662 
L 40.968014 47.3233 
L 41.145467 46.654938 
L 41.313464 45.986576 
L 41.472305 45.318213 
L 41.622368 44.649851 
L 41.764096 43.981489 
L 41.897987 43.313127 
L 42.024579 42.644764 
L 42.144441 41.976402 
L 42.258165 41.30804 
L 42.366351 40.639678 
L 42.469604 39.971315 
L 42.568523 39.302953 
L 42.663692 38.634591 
L 42.755671 37.966229 
L 42.844991 37.297866 
L 42.932143 36.629504 
L 43.017571 35.961142 
L 43.101665 35.29278 
L 43.184757 34.624417 
L 43.267111 33.956055 
L 43.348927 33.287693 
L 43.430334 32.619331 
L 43.511389 31.950968 
L 43.592087 31.282606 
L 43.672356 30.614244 
L 43.752073 29.945882 
L 43.831066 29.27752 
L 43.909126 28.609157 
L 43.986021 27.940795 
L 44.061506 27.272433 
L 44.135336 26.604071 
L 44.20728 25.935708 
L 44.277132 25.267346 
L 44.344722 24.598984 
L 44.409924 23.930622 
L 44.472665 23.262259 
L 44.532926 22.593897 
L 44.590749 21.925535 
L 44.646232 21.257173 
L 44.699527 20.58881 
L 44.750836 19.920448 
L 44.8004 19.252086 
L 44.848494 18.583724 
L 44.895414 17.915361 
L 44.941462 17.246999 
L 44.986943 16.578637 
L 45.032146 15.910275 
L 45.077337 15.241912 
L 47.651006 15.241912 
L 47.651006 15.241912 
L 47.696197 15.910275 
L 47.7414 16.578637 
L 47.786881 17.246999 
L 47.83293 17.915361 
L 47.879849 18.583724 
L 47.927943 19.252086 
L 47.977508 19.920448 
L 48.028816 20.58881 
L 48.082111 21.257173 
L 48.137594 21.925535 
L 48.195417 22.593897 
L 48.255679 23.262259 
L 48.318419 23.930622 
L 48.383621 24.598984 
L 48.451211 25.267346 
L 48.521063 25.935708 
L 48.593007 26.604071 
L 48.666837 27.272433 
L 48.742322 27.940795 
L 48.819217 28.609157 
L 48.897278 29.27752 
L 48.97627 29.945882 
L 49.055987 30.614244 
L 49.136257 31.282606 
L 49.216954 31.950968 
L 49.29801 32.619331 
L 49.379416 33.287693 
L 49.461232 33.956055 
L 49.543587 34.624417 
L 49.626678 35.29278 
L 49.710772 35.961142 
L 49.7962 36.629504 
L 49.883352 37.297866 
L 49.972672 37.966229 
L 50.064651 38.634591 
L 50.15982 39.302953 
L 50.258739 39.971315 
L 50.361992 40.639678 
L 50.470179 41.30804 
L 50.583902 41.976402 
L 50.703764 42.644764 
L 50.830356 43.313127 
L 50.964247 43.981489 
L 51.105975 44.649851 
L 51.256038 45.318213 
L 51.414879 45.986576 
L 51.582877 46.654938 
L 51.760329 47.3233 
L 51.947441 47.991662 
L 52.144307 48.660025 
L 52.350897 49.328387 
L 52.567043 49.996749 
L 52.79242 50.665111 
L 53.026536 51.333474 
L 53.26872 52.001836 
L 53.518115 52.670198 
L 53.773671 53.33856 
L 54.034149 54.006923 
L 54.298118 54.675285 
L 54.563969 55.343647 
L 54.82993 56.012009 
L 55.09408 56.680372 
L 55.354377 57.348734 
L 55.608685 58.017096 
L 55.854806 58.685458 
L 56.090512 59.353821 
L 56.313584 60.022183 
L 56.521851 60.690545 
L 56.713219 61.358907 
L 56.885716 62.02727 
L 57.037517 62.695632 
L 57.166976 63.363994 
L 57.272653 64.032356 
L 57.35333 64.700719 
L 57.408032 65.369081 
L 57.436031 66.037443 
L 57.436853 66.705805 
L 57.410281 67.374168 
L 57.356342 68.04253 
L 57.275306 68.710892 
L 57.167667 69.379254 
L 57.034132 70.047617 
L 56.8756 70.715979 
L 56.693147 71.384341 
L 56.488005 72.052703 
L 56.261539 72.721066 
L 56.015235 73.389428 
L 55.750676 74.05779 
L 55.469529 74.726152 
L 55.173524 75.394515 
L 54.864442 76.062877 
L 54.544102 76.731239 
L 54.214344 77.399601 
L 53.877019 78.067964 
L 53.533974 78.736326 
L 53.187044 79.404688 
L 52.838035 80.07305 
L 52.488716 80.741413 
L 52.140805 81.409775 
z
" style="fill:#1f77b4;fill-opacity:0.3;"/>
   </g>
   <g id="PolyCollection_2">
    <path clip-path="url(#pec6c750650)" d="M 94.897715 83.837351 
L 86.412082 83.837351 
L 86.125178 83.469204 
L 85.831942 83.101058 
L 85.533175 82.732911 
L 85.229719 82.364764 
L 84.92245 81.996618 
L 84.612282 81.628471 
L 84.300168 81.260325 
L 83.987108 80.892178 
L 83.67415 80.524032 
L 83.3624 80.155885 
L 83.053029 79.787739 
L 82.747276 79.419592 
L 82.446455 79.051445 
L 82.15196 78.683299 
L 81.865262 78.315152 
L 81.587909 77.947006 
L 81.321518 77.578859 
L 81.067765 77.210713 
L 80.828369 76.842566 
L 80.605072 76.474419 
L 80.399613 76.106273 
L 80.213705 75.738126 
L 80.048998 75.36998 
L 79.907047 75.001833 
L 79.789281 74.633687 
L 79.696962 74.26554 
L 79.63116 73.897394 
L 79.592716 73.529247 
L 79.582217 73.1611 
L 79.599977 72.792954 
L 79.646019 72.424807 
L 79.720067 72.056661 
L 79.821544 71.688514 
L 79.949577 71.320368 
L 80.103008 70.952221 
L 80.280415 70.584074 
L 80.480133 70.215928 
L 80.700286 69.847781 
L 80.938821 69.479635 
L 81.193541 69.111488 
L 81.462144 68.743342 
L 81.742265 68.375195 
L 82.031506 68.007049 
L 82.327478 67.638902 
L 82.627836 67.270755 
L 82.930304 66.902609 
L 83.232708 66.534462 
L 83.532997 66.166316 
L 83.829268 65.798169 
L 84.119776 65.430023 
L 84.402954 65.061876 
L 84.677418 64.693729 
L 84.941978 64.325583 
L 85.19564 63.957436 
L 85.437607 63.58929 
L 85.66728 63.221143 
L 85.884255 62.852997 
L 86.088313 62.48485 
L 86.279421 62.116704 
L 86.457712 61.748557 
L 86.62348 61.38041 
L 86.777163 61.012264 
L 86.919327 60.644117 
L 87.050651 60.275971 
L 87.171899 59.907824 
L 87.28391 59.539678 
L 87.387564 59.171531 
L 87.483771 58.803385 
L 87.573441 58.435238 
L 87.657463 58.067091 
L 87.736689 57.698945 
L 87.811914 57.330798 
L 87.883859 56.962652 
L 87.953163 56.594505 
L 88.02037 56.226359 
L 88.085927 55.858212 
L 88.150185 55.490065 
L 88.213396 55.121919 
L 88.275727 54.753772 
L 88.337265 54.385626 
L 88.398031 54.017479 
L 88.457993 53.649333 
L 88.517084 53.281186 
L 88.575216 52.91304 
L 88.632293 52.544893 
L 88.688232 52.176746 
L 88.742967 51.8086 
L 88.796466 51.440453 
L 88.848734 51.072307 
L 88.89982 50.70416 
L 88.949814 50.336014 
L 88.99885 49.967867 
L 89.047099 49.59972 
L 89.09476 49.231574 
L 89.142054 48.863427 
L 89.189212 48.495281 
L 89.236462 48.127134 
L 89.284021 47.758988 
L 89.332084 47.390841 
L 91.977712 47.390841 
L 91.977712 47.390841 
L 92.025775 47.758988 
L 92.073335 48.127134 
L 92.120585 48.495281 
L 92.167742 48.863427 
L 92.215036 49.231574 
L 92.262698 49.59972 
L 92.310946 49.967867 
L 92.359983 50.336014 
L 92.409977 50.70416 
L 92.461062 51.072307 
L 92.513331 51.440453 
L 92.56683 51.8086 
L 92.621565 52.176746 
L 92.677503 52.544893 
L 92.734581 52.91304 
L 92.792712 53.281186 
L 92.851803 53.649333 
L 92.911766 54.017479 
L 92.972532 54.385626 
L 93.03407 54.753772 
L 93.096401 55.121919 
L 93.159612 55.490065 
L 93.223869 55.858212 
L 93.289427 56.226359 
L 93.356634 56.594505 
L 93.425937 56.962652 
L 93.497883 57.330798 
L 93.573108 57.698945 
L 93.652334 58.067091 
L 93.736356 58.435238 
L 93.826025 58.803385 
L 93.922232 59.171531 
L 94.025887 59.539678 
L 94.137897 59.907824 
L 94.259146 60.275971 
L 94.390469 60.644117 
L 94.532634 61.012264 
L 94.686317 61.38041 
L 94.852085 61.748557 
L 95.030376 62.116704 
L 95.221483 62.48485 
L 95.425542 62.852997 
L 95.642517 63.221143 
L 95.87219 63.58929 
L 96.114157 63.957436 
L 96.367819 64.325583 
L 96.632379 64.693729 
L 96.906843 65.061876 
L 97.19002 65.430023 
L 97.480529 65.798169 
L 97.776799 66.166316 
L 98.077089 66.534462 
L 98.379493 66.902609 
L 98.681961 67.270755 
L 98.982318 67.638902 
L 99.278291 68.007049 
L 99.567532 68.375195 
L 99.847652 68.743342 
L 100.116256 69.111488 
L 100.370976 69.479635 
L 100.609511 69.847781 
L 100.829664 70.215928 
L 101.029382 70.584074 
L 101.206788 70.952221 
L 101.36022 71.320368 
L 101.488253 71.688514 
L 101.58973 72.056661 
L 101.663778 72.424807 
L 101.70982 72.792954 
L 101.72758 73.1611 
L 101.717081 73.529247 
L 101.678636 73.897394 
L 101.612834 74.26554 
L 101.520516 74.633687 
L 101.402749 75.001833 
L 101.260799 75.36998 
L 101.096091 75.738126 
L 100.910183 76.106273 
L 100.704725 76.474419 
L 100.481428 76.842566 
L 100.242032 77.210713 
L 99.988279 77.578859 
L 99.721888 77.947006 
L 99.444535 78.315152 
L 99.157837 78.683299 
L 98.863341 79.051445 
L 98.562521 79.419592 
L 98.256768 79.787739 
L 97.947396 80.155885 
L 97.635647 80.524032 
L 97.322689 80.892178 
L 97.009629 81.260325 
L 96.697515 81.628471 
L 96.387346 81.996618 
L 96.080077 82.364764 
L 95.776621 82.732911 
L 95.477855 83.101058 
L 95.184618 83.469204 
L 94.897715 83.837351 
z
" style="fill:#1f77b4;fill-opacity:0.3;"/>
   </g>
   <g id="PolyCollection_3">
    <path clip-path="url(#pec6c750650)" d="M 137.050151 86.801957 
L 132.841099 86.801957 
L 132.729407 86.726993 
L 132.617545 86.652029 
L 132.505523 86.577066 
L 132.393235 86.502102 
L 132.280456 86.427138 
L 132.166827 86.352174 
L 132.051853 86.27721 
L 131.934902 86.202246 
L 131.815205 86.127283 
L 131.691866 86.052319 
L 131.563873 85.977355 
L 131.430112 85.902391 
L 131.289393 85.827427 
L 131.140475 85.752463 
L 130.982098 85.677499 
L 130.813024 85.602536 
L 130.632072 85.527572 
L 130.438165 85.452608 
L 130.230376 85.377644 
L 130.007976 85.30268 
L 129.770475 85.227716 
L 129.517669 85.152753 
L 129.249679 85.077789 
L 128.966984 85.002825 
L 128.670447 84.927861 
L 128.361333 84.852897 
L 128.041315 84.777933 
L 127.712473 84.70297 
L 127.377277 84.628006 
L 127.038559 84.553042 
L 126.699472 84.478078 
L 126.363444 84.403114 
L 126.034112 84.32815 
L 125.715251 84.253187 
L 125.410704 84.178223 
L 125.124288 84.103259 
L 124.859722 84.028295 
L 124.620532 83.953331 
L 124.409976 83.878367 
L 124.230964 83.803404 
L 124.085993 83.72844 
L 123.977086 83.653476 
L 123.905751 83.578512 
L 123.872943 83.503548 
L 123.879054 83.428584 
L 123.923903 83.353621 
L 124.006754 83.278657 
L 124.126341 83.203693 
L 124.280907 83.128729 
L 124.468253 83.053765 
L 124.6858 82.978801 
L 124.930655 82.903837 
L 125.199678 82.828874 
L 125.489562 82.75391 
L 125.796894 82.678946 
L 126.118234 82.603982 
L 126.450175 82.529018 
L 126.7894 82.454054 
L 127.132734 82.379091 
L 127.477184 82.304127 
L 127.819975 82.229163 
L 128.158574 82.154199 
L 128.490702 82.079235 
L 128.81435 82.004271 
L 129.127772 81.929308 
L 129.429491 81.854344 
L 129.71828 81.77938 
L 129.993162 81.704416 
L 130.253385 81.629452 
L 130.498415 81.554488 
L 130.727917 81.479525 
L 130.941742 81.404561 
L 131.139908 81.329597 
L 131.322593 81.254633 
L 131.490118 81.179669 
L 131.642935 81.104705 
L 131.781623 81.029742 
L 131.906868 80.954778 
L 132.019461 80.879814 
L 132.120284 80.80485 
L 132.210298 80.729886 
L 132.290536 80.654922 
L 132.362084 80.579958 
L 132.426071 80.504995 
L 132.483651 80.430031 
L 132.53599 80.355067 
L 132.584245 80.280103 
L 132.62955 80.205139 
L 132.672993 80.130175 
L 132.715604 80.055212 
L 132.758336 79.980248 
L 132.802048 79.905284 
L 132.847495 79.83032 
L 132.895314 79.755356 
L 132.946018 79.680392 
L 132.999988 79.605429 
L 133.057472 79.530465 
L 133.118584 79.455501 
L 133.183314 79.380537 
L 136.707936 79.380537 
L 136.707936 79.380537 
L 136.772666 79.455501 
L 136.833778 79.530465 
L 136.891262 79.605429 
L 136.945232 79.680392 
L 136.995936 79.755356 
L 137.043755 79.83032 
L 137.089202 79.905284 
L 137.132914 79.980248 
L 137.175646 80.055212 
L 137.218257 80.130175 
L 137.2617 80.205139 
L 137.307005 80.280103 
L 137.35526 80.355067 
L 137.407599 80.430031 
L 137.465179 80.504995 
L 137.529166 80.579958 
L 137.600714 80.654922 
L 137.680952 80.729886 
L 137.770966 80.80485 
L 137.871789 80.879814 
L 137.984382 80.954778 
L 138.109627 81.029742 
L 138.248315 81.104705 
L 138.401132 81.179669 
L 138.568657 81.254633 
L 138.751342 81.329597 
L 138.949508 81.404561 
L 139.163333 81.479525 
L 139.392835 81.554488 
L 139.637865 81.629452 
L 139.898088 81.704416 
L 140.17297 81.77938 
L 140.461759 81.854344 
L 140.763478 81.929308 
L 141.0769 82.004271 
L 141.400548 82.079235 
L 141.732676 82.154199 
L 142.071275 82.229163 
L 142.414066 82.304127 
L 142.758516 82.379091 
L 143.10185 82.454054 
L 143.441075 82.529018 
L 143.773016 82.603982 
L 144.094356 82.678946 
L 144.401688 82.75391 
L 144.691572 82.828874 
L 144.960595 82.903837 
L 145.20545 82.978801 
L 145.422997 83.053765 
L 145.610343 83.128729 
L 145.764909 83.203693 
L 145.884496 83.278657 
L 145.967347 83.353621 
L 146.012196 83.428584 
L 146.018307 83.503548 
L 145.985499 83.578512 
L 145.914164 83.653476 
L 145.805257 83.72844 
L 145.660286 83.803404 
L 145.481274 83.878367 
L 145.270718 83.953331 
L 145.031528 84.028295 
L 144.766962 84.103259 
L 144.480546 84.178223 
L 144.175999 84.253187 
L 143.857138 84.32815 
L 143.527806 84.403114 
L 143.191778 84.478078 
L 142.852691 84.553042 
L 142.513973 84.628006 
L 142.178777 84.70297 
L 141.849935 84.777933 
L 141.529917 84.852897 
L 141.220803 84.927861 
L 140.924266 85.002825 
L 140.641571 85.077789 
L 140.373581 85.152753 
L 140.120775 85.227716 
L 139.883274 85.30268 
L 139.660874 85.377644 
L 139.453085 85.452608 
L 139.259178 85.527572 
L 139.078226 85.602536 
L 138.909152 85.677499 
L 138.750775 85.752463 
L 138.601857 85.827427 
L 138.461138 85.902391 
L 138.327377 85.977355 
L 138.199384 86.052319 
L 138.076045 86.127283 
L 137.956348 86.202246 
L 137.839397 86.27721 
L 137.724423 86.352174 
L 137.610794 86.427138 
L 137.498015 86.502102 
L 137.385727 86.577066 
L 137.273705 86.652029 
L 137.161843 86.726993 
L 137.050151 86.801957 
z
" style="fill:#1f77b4;fill-opacity:0.3;"/>
   </g>
   <g id="PolyCollection_4">
    <path clip-path="url(#pec6c750650)" d="M 181.132233 114.014077 
L 177.34047 114.014077 
L 177.274804 113.721824 
L 177.211211 113.429571 
L 177.149715 113.137318 
L 177.090281 112.845066 
L 177.032815 112.552813 
L 176.977166 112.26056 
L 176.923127 111.968307 
L 176.870441 111.676054 
L 176.818802 111.383801 
L 176.767868 111.091548 
L 176.717262 110.799295 
L 176.666583 110.507042 
L 176.615412 110.21479 
L 176.563324 109.922537 
L 176.509897 109.630284 
L 176.454716 109.338031 
L 176.397385 109.045778 
L 176.337536 108.753525 
L 176.274831 108.461272 
L 176.208969 108.169019 
L 176.139693 107.876766 
L 176.066788 107.584514 
L 175.990087 107.292261 
L 175.909466 107.000008 
L 175.824844 106.707755 
L 175.736182 106.415502 
L 175.643474 106.123249 
L 175.546747 105.830996 
L 175.446048 105.538743 
L 175.341443 105.246491 
L 175.233006 104.954238 
L 175.120813 104.661985 
L 175.004935 104.369732 
L 174.88543 104.077479 
L 174.762342 103.785226 
L 174.635692 103.492973 
L 174.505476 103.20072 
L 174.371665 102.908467 
L 174.234204 102.616215 
L 174.093015 102.323962 
L 173.947998 102.031709 
L 173.799038 101.739456 
L 173.646011 101.447203 
L 173.488792 101.15495 
L 173.327262 100.862697 
L 173.161321 100.570444 
L 172.990894 100.278192 
L 172.815944 99.985939 
L 172.63648 99.693686 
L 172.45257 99.401433 
L 172.264347 99.10918 
L 172.072016 98.816927 
L 171.875868 98.524674 
L 171.676275 98.232421 
L 171.473703 97.940168 
L 171.268712 97.647916 
L 171.061952 97.355663 
L 170.85417 97.06341 
L 170.646203 96.771157 
L 170.438973 96.478904 
L 170.233483 96.186651 
L 170.030812 95.894398 
L 169.832103 95.602145 
L 169.638553 95.309892 
L 169.451406 95.01764 
L 169.27194 94.725387 
L 169.101452 94.433134 
L 168.941248 94.140881 
L 168.792627 93.848628 
L 168.656871 93.556375 
L 168.535225 93.264122 
L 168.428889 92.971869 
L 168.338998 92.679617 
L 168.266612 92.387364 
L 168.212702 92.095111 
L 168.178137 91.802858 
L 168.16367 91.510605 
L 168.169931 91.218352 
L 168.197412 90.926099 
L 168.246463 90.633846 
L 168.317284 90.341593 
L 168.409917 90.049341 
L 168.524245 89.757088 
L 168.659991 89.464835 
L 168.816716 89.172582 
L 168.993823 88.880329 
L 169.190562 88.588076 
L 169.406035 88.295823 
L 169.639205 88.00357 
L 169.888907 87.711318 
L 170.15386 87.419065 
L 170.432677 87.126812 
L 170.723886 86.834559 
L 171.025938 86.542306 
L 171.337229 86.250053 
L 171.656115 85.9578 
L 171.98093 85.665547 
L 172.309999 85.373294 
L 172.641662 85.081042 
L 185.831042 85.081042 
L 185.831042 85.081042 
L 186.162704 85.373294 
L 186.491773 85.665547 
L 186.816588 85.9578 
L 187.135474 86.250053 
L 187.446766 86.542306 
L 187.748817 86.834559 
L 188.040026 87.126812 
L 188.318843 87.419065 
L 188.583796 87.711318 
L 188.833498 88.00357 
L 189.066669 88.295823 
L 189.282141 88.588076 
L 189.47888 88.880329 
L 189.655987 89.172582 
L 189.812712 89.464835 
L 189.948458 89.757088 
L 190.062786 90.049341 
L 190.155419 90.341593 
L 190.22624 90.633846 
L 190.275292 90.926099 
L 190.302773 91.218352 
L 190.309033 91.510605 
L 190.294567 91.802858 
L 190.260001 92.095111 
L 190.206092 92.387364 
L 190.133706 92.679617 
L 190.043815 92.971869 
L 189.937478 93.264122 
L 189.815832 93.556375 
L 189.680076 93.848628 
L 189.531456 94.140881 
L 189.371252 94.433134 
L 189.200763 94.725387 
L 189.021297 95.01764 
L 188.834151 95.309892 
L 188.640601 95.602145 
L 188.441891 95.894398 
L 188.23922 96.186651 
L 188.033731 96.478904 
L 187.8265 96.771157 
L 187.618533 97.06341 
L 187.410751 97.355663 
L 187.203992 97.647916 
L 186.999 97.940168 
L 186.796428 98.232421 
L 186.596836 98.524674 
L 186.400687 98.816927 
L 186.208357 99.10918 
L 186.020133 99.401433 
L 185.836223 99.693686 
L 185.65676 99.985939 
L 185.481809 100.278192 
L 185.311382 100.570444 
L 185.145441 100.862697 
L 184.983912 101.15495 
L 184.826693 101.447203 
L 184.673666 101.739456 
L 184.524706 102.031709 
L 184.379688 102.323962 
L 184.238499 102.616215 
L 184.101038 102.908467 
L 183.967227 103.20072 
L 183.837011 103.492973 
L 183.710361 103.785226 
L 183.587273 104.077479 
L 183.467769 104.369732 
L 183.35189 104.661985 
L 183.239697 104.954238 
L 183.13126 105.246491 
L 183.026655 105.538743 
L 182.925956 105.830996 
L 182.829229 106.123249 
L 182.736522 106.415502 
L 182.64786 106.707755 
L 182.563238 107.000008 
L 182.482616 107.292261 
L 182.405915 107.584514 
L 182.33301 107.876766 
L 182.263734 108.169019 
L 182.197872 108.461272 
L 182.135167 108.753525 
L 182.075318 109.045778 
L 182.017988 109.338031 
L 181.962806 109.630284 
L 181.909379 109.922537 
L 181.857292 110.21479 
L 181.806121 110.507042 
L 181.755441 110.799295 
L 181.704835 111.091548 
L 181.653901 111.383801 
L 181.602263 111.676054 
L 181.549576 111.968307 
L 181.495537 112.26056 
L 181.439888 112.552813 
L 181.382422 112.845066 
L 181.322989 113.137318 
L 181.261493 113.429571 
L 181.1979 113.721824 
L 181.132233 114.014077 
z
" style="fill:#1f77b4;fill-opacity:0.3;"/>
   </g>
   <g id="PolyCollection_5">
    <path clip-path="url(#pec6c750650)" d="M 224.886221 148.151045 
L 222.167936 148.151045 
L 222.119185 147.537008 
L 222.070385 146.922971 
L 222.021242 146.308934 
L 221.971432 145.694897 
L 221.920609 145.08086 
L 221.868414 144.466823 
L 221.814489 143.852786 
L 221.758491 143.238749 
L 221.700099 142.624712 
L 221.639031 142.010675 
L 221.575048 141.396637 
L 221.507968 140.7826 
L 221.437667 140.168563 
L 221.364087 139.554526 
L 221.287235 138.940489 
L 221.207183 138.326452 
L 221.124063 137.712415 
L 221.038062 137.098378 
L 220.949415 136.484341 
L 220.858391 135.870304 
L 220.765283 135.256267 
L 220.670396 134.64223 
L 220.574031 134.028193 
L 220.476471 133.414156 
L 220.377967 132.800119 
L 220.278725 132.186082 
L 220.178894 131.572044 
L 220.078553 130.958007 
L 219.977704 130.34397 
L 219.876261 129.729933 
L 219.774053 129.115896 
L 219.670812 128.501859 
L 219.56618 127.887822 
L 219.459712 127.273785 
L 219.350877 126.659748 
L 219.239071 126.045711 
L 219.123626 125.431674 
L 219.003826 124.817637 
L 218.878919 124.2036 
L 218.748138 123.589563 
L 218.610719 122.975526 
L 218.465923 122.361488 
L 218.313062 121.747451 
L 218.151514 121.133414 
L 217.980754 120.519377 
L 217.800375 119.90534 
L 217.610109 119.291303 
L 217.409849 118.677266 
L 217.19967 118.063229 
L 216.979839 117.449192 
L 216.750836 116.835155 
L 216.513356 116.221118 
L 216.268316 115.607081 
L 216.016852 114.993044 
L 215.760316 114.379007 
L 215.500261 113.76497 
L 215.238426 113.150932 
L 214.976708 112.536895 
L 214.717142 111.922858 
L 214.461863 111.308821 
L 214.213071 110.694784 
L 213.972994 110.080747 
L 213.743845 109.46671 
L 213.527785 108.852673 
L 213.326881 108.238636 
L 213.14307 107.624599 
L 212.97812 107.010562 
L 212.833608 106.396525 
L 212.710889 105.782488 
L 212.611077 105.168451 
L 212.53504 104.554414 
L 212.483387 103.940376 
L 212.45647 103.326339 
L 212.454397 102.712302 
L 212.477038 102.098265 
L 212.524049 101.484228 
L 212.59489 100.870191 
L 212.688851 100.256154 
L 212.805077 99.642117 
L 212.942598 99.02808 
L 213.100352 98.414043 
L 213.277209 97.800006 
L 213.471997 97.185969 
L 213.683513 96.571932 
L 213.910548 95.957895 
L 214.151887 95.343858 
L 214.406326 94.72982 
L 214.67267 94.115783 
L 214.949734 93.501746 
L 215.236344 92.887709 
L 215.53133 92.273672 
L 215.833523 91.659635 
L 216.14175 91.045598 
L 216.454828 90.431561 
L 216.771562 89.817524 
L 217.090743 89.203487 
L 217.411147 88.58945 
L 217.731539 87.975413 
L 218.050679 87.361376 
L 229.003478 87.361376 
L 229.003478 87.361376 
L 229.322618 87.975413 
L 229.64301 88.58945 
L 229.963414 89.203487 
L 230.282594 89.817524 
L 230.599328 90.431561 
L 230.912407 91.045598 
L 231.220633 91.659635 
L 231.522827 92.273672 
L 231.817813 92.887709 
L 232.104422 93.501746 
L 232.381487 94.115783 
L 232.64783 94.72982 
L 232.902269 95.343858 
L 233.143609 95.957895 
L 233.370643 96.571932 
L 233.58216 97.185969 
L 233.776947 97.800006 
L 233.953805 98.414043 
L 234.111558 99.02808 
L 234.24908 99.642117 
L 234.365306 100.256154 
L 234.459266 100.870191 
L 234.530107 101.484228 
L 234.577119 102.098265 
L 234.59976 102.712302 
L 234.597687 103.326339 
L 234.57077 103.940376 
L 234.519116 104.554414 
L 234.443079 105.168451 
L 234.343268 105.782488 
L 234.220548 106.396525 
L 234.076036 107.010562 
L 233.911087 107.624599 
L 233.727275 108.238636 
L 233.526372 108.852673 
L 233.310312 109.46671 
L 233.081163 110.080747 
L 232.841085 110.694784 
L 232.592293 111.308821 
L 232.337014 111.922858 
L 232.077449 112.536895 
L 231.815731 113.150932 
L 231.553895 113.76497 
L 231.29384 114.379007 
L 231.037305 114.993044 
L 230.785841 115.607081 
L 230.5408 116.221118 
L 230.30332 116.835155 
L 230.074317 117.449192 
L 229.854487 118.063229 
L 229.644308 118.677266 
L 229.444048 119.291303 
L 229.253782 119.90534 
L 229.073403 120.519377 
L 228.902643 121.133414 
L 228.741095 121.747451 
L 228.588233 122.361488 
L 228.443438 122.975526 
L 228.306019 123.589563 
L 228.175238 124.2036 
L 228.050331 124.817637 
L 227.930531 125.431674 
L 227.815086 126.045711 
L 227.70328 126.659748 
L 227.594445 127.273785 
L 227.487976 127.887822 
L 227.383345 128.501859 
L 227.280104 129.115896 
L 227.177895 129.729933 
L 227.076453 130.34397 
L 226.975603 130.958007 
L 226.875262 131.572044 
L 226.775431 132.186082 
L 226.67619 132.800119 
L 226.577686 133.414156 
L 226.480126 134.028193 
L 226.38376 134.64223 
L 226.288874 135.256267 
L 226.195766 135.870304 
L 226.104742 136.484341 
L 226.016094 137.098378 
L 225.930094 137.712415 
L 225.846974 138.326452 
L 225.766922 138.940489 
L 225.69007 139.554526 
L 225.61649 140.168563 
L 225.546189 140.7826 
L 225.479109 141.396637 
L 225.415126 142.010675 
L 225.354057 142.624712 
L 225.295666 143.238749 
L 225.239667 143.852786 
L 225.185743 144.466823 
L 225.133548 145.08086 
L 225.082725 145.694897 
L 225.032915 146.308934 
L 224.983772 146.922971 
L 224.934971 147.537008 
L 224.886221 148.151045 
z
" style="fill:#1f77b4;fill-opacity:0.3;"/>
   </g>
   <g id="matplotlib.axis_1">
    <g id="xtick_1">
     <g id="line2d_1">
      <defs>
       <path d="M 0 0 
L 0 3.5 
" id="m7bab5c0dc6" style="stroke:#000000;stroke-width:0.8;"/>
      </defs>
      <g>
       <use style="stroke:#000000;stroke-width:0.8;" x="46.364172" xlink:href="#m7bab5c0dc6" y="166.39351"/>
      </g>
     </g>
     <g id="text_1">
      <!-- -.50 -->
      <g transform="translate(39.472297 179.11976)scale(0.08 -0.08)">
       <defs>
        <path d="M 3.171875 21.484375 
L 3.171875 30.328125 
L 30.171875 30.328125 
L 30.171875 21.484375 
z
" id="ArialMT-45"/>
        <path d="M 9.078125 0 
L 9.078125 10.015625 
L 19.09375 10.015625 
L 19.09375 0 
z
" id="ArialMT-46"/>
        <path d="M 4.15625 18.75 
L 13.375 19.53125 
Q 14.40625 12.796875 18.140625 9.390625 
Q 21.875 6 27.15625 6 
Q 33.5 6 37.890625 10.78125 
Q 42.28125 15.578125 42.28125 23.484375 
Q 42.28125 31 38.0625 35.34375 
Q 33.84375 39.703125 27 39.703125 
Q 22.75 39.703125 19.328125 37.765625 
Q 15.921875 35.84375 13.96875 32.765625 
L 5.71875 33.84375 
L 12.640625 70.609375 
L 48.25 70.609375 
L 48.25 62.203125 
L 19.671875 62.203125 
L 15.828125 42.96875 
Q 22.265625 47.46875 29.34375 47.46875 
Q 38.71875 47.46875 45.15625 40.96875 
Q 51.609375 34.46875 51.609375 24.265625 
Q 51.609375 14.546875 45.953125 7.46875 
Q 39.0625 -1.21875 27.15625 -1.21875 
Q 17.390625 -1.21875 11.203125 4.25 
Q 5.03125 9.71875 4.15625 18.75 
z
" id="ArialMT-53"/>
        <path d="M 4.15625 35.296875 
Q 4.15625 48 6.765625 55.734375 
Q 9.375 63.484375 14.515625 67.671875 
Q 19.671875 71.875 27.484375 71.875 
Q 33.25 71.875 37.59375 69.546875 
Q 41.9375 67.234375 44.765625 62.859375 
Q 47.609375 58.5 49.21875 52.21875 
Q 50.828125 45.953125 50.828125 35.296875 
Q 50.828125 22.703125 48.234375 14.96875 
Q 45.65625 7.234375 40.5 3 
Q 35.359375 -1.21875 27.484375 -1.21875 
Q 17.140625 -1.21875 11.234375 6.203125 
Q 4.15625 15.140625 4.15625 35.296875 
z
M 13.1875 35.296875 
Q 13.1875 17.671875 17.3125 11.828125 
Q 21.4375 6 27.484375 6 
Q 33.546875 6 37.671875 11.859375 
Q 41.796875 17.71875 41.796875 35.296875 
Q 41.796875 52.984375 37.671875 58.78125 
Q 33.546875 64.59375 27.390625 64.59375 
Q 21.34375 64.59375 17.71875 59.46875 
Q 13.1875 52.9375 13.1875 35.296875 
z
" id="ArialMT-48"/>
       </defs>
       <use xlink:href="#ArialMT-45"/>
       <use x="33.300781" xlink:href="#ArialMT-46"/>
       <use x="61.083984" xlink:href="#ArialMT-53"/>
       <use x="116.699219" xlink:href="#ArialMT-48"/>
      </g>
     </g>
    </g>
    <g id="xtick_2">
     <g id="line2d_2">
      <g>
       <use style="stroke:#000000;stroke-width:0.8;" x="90.654898" xlink:href="#m7bab5c0dc6" y="166.39351"/>
      </g>
     </g>
     <g id="text_2">
      <!-- -.25 -->
      <g transform="translate(83.763023 179.11976)scale(0.08 -0.08)">
       <defs>
        <path d="M 50.34375 8.453125 
L 50.34375 0 
L 3.03125 0 
Q 2.9375 3.171875 4.046875 6.109375 
Q 5.859375 10.9375 9.828125 15.625 
Q 13.8125 20.3125 21.34375 26.46875 
Q 33.015625 36.03125 37.109375 41.625 
Q 41.21875 47.21875 41.21875 52.203125 
Q 41.21875 57.421875 37.46875 61 
Q 33.734375 64.59375 27.734375 64.59375 
Q 21.390625 64.59375 17.578125 60.78125 
Q 13.765625 56.984375 13.71875 50.25 
L 4.6875 51.171875 
Q 5.609375 61.28125 11.65625 66.578125 
Q 17.71875 71.875 27.9375 71.875 
Q 38.234375 71.875 44.234375 66.15625 
Q 50.25 60.453125 50.25 52 
Q 50.25 47.703125 48.484375 43.546875 
Q 46.734375 39.40625 42.65625 34.8125 
Q 38.578125 30.21875 29.109375 22.21875 
Q 21.1875 15.578125 18.9375 13.203125 
Q 16.703125 10.84375 15.234375 8.453125 
z
" id="ArialMT-50"/>
       </defs>
       <use xlink:href="#ArialMT-45"/>
       <use x="33.300781" xlink:href="#ArialMT-46"/>
       <use x="61.083984" xlink:href="#ArialMT-50"/>
       <use x="116.699219" xlink:href="#ArialMT-53"/>
      </g>
     </g>
    </g>
    <g id="xtick_3">
     <g id="line2d_3">
      <g>
       <use style="stroke:#000000;stroke-width:0.8;" x="134.945625" xlink:href="#m7bab5c0dc6" y="166.39351"/>
      </g>
     </g>
     <g id="text_3">
      <!-- 0 -->
      <g transform="translate(132.72125 179.11976)scale(0.08 -0.08)">
       <use xlink:href="#ArialMT-48"/>
      </g>
     </g>
    </g>
    <g id="xtick_4">
     <g id="line2d_4">
      <g>
       <use style="stroke:#000000;stroke-width:0.8;" x="179.236352" xlink:href="#m7bab5c0dc6" y="166.39351"/>
      </g>
     </g>
     <g id="text_4">
      <!-- .25 -->
      <g transform="translate(173.676352 179.11976)scale(0.08 -0.08)">
       <use xlink:href="#ArialMT-46"/>
       <use x="27.783203" xlink:href="#ArialMT-50"/>
       <use x="83.398438" xlink:href="#ArialMT-53"/>
      </g>
     </g>
    </g>
    <g id="xtick_5">
     <g id="line2d_5">
      <g>
       <use style="stroke:#000000;stroke-width:0.8;" x="223.527078" xlink:href="#m7bab5c0dc6" y="166.39351"/>
      </g>
     </g>
     <g id="text_5">
      <!-- .50 -->
      <g transform="translate(217.967078 179.11976)scale(0.08 -0.08)">
       <use xlink:href="#ArialMT-46"/>
       <use x="27.783203" xlink:href="#ArialMT-53"/>
       <use x="83.398438" xlink:href="#ArialMT-48"/>
      </g>
     </g>
    </g>
    <g id="text_6">
     <!-- Induced change in precision -->
     <g transform="translate(85.136875 190.43601)scale(0.08 -0.08)">
      <defs>
       <path d="M 9.328125 0 
L 9.328125 71.578125 
L 18.796875 71.578125 
L 18.796875 0 
z
" id="ArialMT-73"/>
       <path d="M 6.59375 0 
L 6.59375 51.859375 
L 14.5 51.859375 
L 14.5 44.484375 
Q 20.21875 53.03125 31 53.03125 
Q 35.6875 53.03125 39.625 51.34375 
Q 43.5625 49.65625 45.515625 46.921875 
Q 47.46875 44.1875 48.25 40.4375 
Q 48.734375 37.984375 48.734375 31.890625 
L 48.734375 0 
L 39.9375 0 
L 39.9375 31.546875 
Q 39.9375 36.921875 38.90625 39.578125 
Q 37.890625 42.234375 35.28125 43.8125 
Q 32.671875 45.40625 29.15625 45.40625 
Q 23.53125 45.40625 19.453125 41.84375 
Q 15.375 38.28125 15.375 28.328125 
L 15.375 0 
z
" id="ArialMT-110"/>
       <path d="M 40.234375 0 
L 40.234375 6.546875 
Q 35.296875 -1.171875 25.734375 -1.171875 
Q 19.53125 -1.171875 14.328125 2.25 
Q 9.125 5.671875 6.265625 11.796875 
Q 3.421875 17.921875 3.421875 25.875 
Q 3.421875 33.640625 6 39.96875 
Q 8.59375 46.296875 13.765625 49.65625 
Q 18.953125 53.03125 25.34375 53.03125 
Q 30.03125 53.03125 33.6875 51.046875 
Q 37.359375 49.078125 39.65625 45.90625 
L 39.65625 71.578125 
L 48.390625 71.578125 
L 48.390625 0 
z
M 12.453125 25.875 
Q 12.453125 15.921875 16.640625 10.984375 
Q 20.84375 6.0625 26.5625 6.0625 
Q 32.328125 6.0625 36.34375 10.765625 
Q 40.375 15.484375 40.375 25.140625 
Q 40.375 35.796875 36.265625 40.765625 
Q 32.171875 45.75 26.171875 45.75 
Q 20.3125 45.75 16.375 40.96875 
Q 12.453125 36.1875 12.453125 25.875 
z
" id="ArialMT-100"/>
       <path d="M 40.578125 0 
L 40.578125 7.625 
Q 34.515625 -1.171875 24.125 -1.171875 
Q 19.53125 -1.171875 15.546875 0.578125 
Q 11.578125 2.34375 9.640625 5 
Q 7.71875 7.671875 6.9375 11.53125 
Q 6.390625 14.109375 6.390625 19.734375 
L 6.390625 51.859375 
L 15.1875 51.859375 
L 15.1875 23.09375 
Q 15.1875 16.21875 15.71875 13.8125 
Q 16.546875 10.359375 19.234375 8.375 
Q 21.921875 6.390625 25.875 6.390625 
Q 29.828125 6.390625 33.296875 8.421875 
Q 36.765625 10.453125 38.203125 13.9375 
Q 39.65625 17.4375 39.65625 24.078125 
L 39.65625 51.859375 
L 48.4375 51.859375 
L 48.4375 0 
z
" id="ArialMT-117"/>
       <path d="M 40.4375 19 
L 49.078125 17.875 
Q 47.65625 8.9375 41.8125 3.875 
Q 35.984375 -1.171875 27.484375 -1.171875 
Q 16.84375 -1.171875 10.375 5.78125 
Q 3.90625 12.75 3.90625 25.734375 
Q 3.90625 34.125 6.6875 40.421875 
Q 9.46875 46.734375 15.15625 49.875 
Q 20.84375 53.03125 27.546875 53.03125 
Q 35.984375 53.03125 41.359375 48.75 
Q 46.734375 44.484375 48.25 36.625 
L 39.703125 35.296875 
Q 38.484375 40.53125 35.375 43.15625 
Q 32.28125 45.796875 27.875 45.796875 
Q 21.234375 45.796875 17.078125 41.03125 
Q 12.9375 36.28125 12.9375 25.984375 
Q 12.9375 15.53125 16.9375 10.796875 
Q 20.953125 6.0625 27.390625 6.0625 
Q 32.5625 6.0625 36.03125 9.234375 
Q 39.5 12.40625 40.4375 19 
z
" id="ArialMT-99"/>
       <path d="M 42.09375 16.703125 
L 51.171875 15.578125 
Q 49.03125 7.625 43.21875 3.21875 
Q 37.40625 -1.171875 28.375 -1.171875 
Q 17 -1.171875 10.328125 5.828125 
Q 3.65625 12.84375 3.65625 25.484375 
Q 3.65625 38.578125 10.390625 45.796875 
Q 17.140625 53.03125 27.875 53.03125 
Q 38.28125 53.03125 44.875 45.953125 
Q 51.46875 38.875 51.46875 26.03125 
Q 51.46875 25.25 51.421875 23.6875 
L 12.75 23.6875 
Q 13.234375 15.140625 17.578125 10.59375 
Q 21.921875 6.0625 28.421875 6.0625 
Q 33.25 6.0625 36.671875 8.59375 
Q 40.09375 11.140625 42.09375 16.703125 
z
M 13.234375 30.90625 
L 42.1875 30.90625 
Q 41.609375 37.453125 38.875 40.71875 
Q 34.671875 45.796875 27.984375 45.796875 
Q 21.921875 45.796875 17.796875 41.75 
Q 13.671875 37.703125 13.234375 30.90625 
z
" id="ArialMT-101"/>
       <path id="ArialMT-32"/>
       <path d="M 6.59375 0 
L 6.59375 71.578125 
L 15.375 71.578125 
L 15.375 45.90625 
Q 21.53125 53.03125 30.90625 53.03125 
Q 36.671875 53.03125 40.921875 50.75 
Q 45.171875 48.484375 47 44.484375 
Q 48.828125 40.484375 48.828125 32.859375 
L 48.828125 0 
L 40.046875 0 
L 40.046875 32.859375 
Q 40.046875 39.453125 37.1875 42.453125 
Q 34.328125 45.453125 29.109375 45.453125 
Q 25.203125 45.453125 21.75 43.421875 
Q 18.3125 41.40625 16.84375 37.9375 
Q 15.375 34.46875 15.375 28.375 
L 15.375 0 
z
" id="ArialMT-104"/>
       <path d="M 40.4375 6.390625 
Q 35.546875 2.25 31.03125 0.53125 
Q 26.515625 -1.171875 21.34375 -1.171875 
Q 12.796875 -1.171875 8.203125 3 
Q 3.609375 7.171875 3.609375 13.671875 
Q 3.609375 17.484375 5.34375 20.625 
Q 7.078125 23.78125 9.890625 25.6875 
Q 12.703125 27.59375 16.21875 28.5625 
Q 18.796875 29.25 24.03125 29.890625 
Q 34.671875 31.15625 39.703125 32.90625 
Q 39.75 34.71875 39.75 35.203125 
Q 39.75 40.578125 37.25 42.78125 
Q 33.890625 45.75 27.25 45.75 
Q 21.046875 45.75 18.09375 43.578125 
Q 15.140625 41.40625 13.71875 35.890625 
L 5.125 37.0625 
Q 6.296875 42.578125 8.984375 45.96875 
Q 11.671875 49.359375 16.75 51.1875 
Q 21.828125 53.03125 28.515625 53.03125 
Q 35.15625 53.03125 39.296875 51.46875 
Q 43.453125 49.90625 45.40625 47.53125 
Q 47.359375 45.171875 48.140625 41.546875 
Q 48.578125 39.3125 48.578125 33.453125 
L 48.578125 21.734375 
Q 48.578125 9.46875 49.140625 6.21875 
Q 49.703125 2.984375 51.375 0 
L 42.1875 0 
Q 40.828125 2.734375 40.4375 6.390625 
z
M 39.703125 26.03125 
Q 34.90625 24.078125 25.34375 22.703125 
Q 19.921875 21.921875 17.671875 20.9375 
Q 15.4375 19.96875 14.203125 18.09375 
Q 12.984375 16.21875 12.984375 13.921875 
Q 12.984375 10.40625 15.640625 8.0625 
Q 18.3125 5.71875 23.4375 5.71875 
Q 28.515625 5.71875 32.46875 7.9375 
Q 36.421875 10.15625 38.28125 14.015625 
Q 39.703125 17 39.703125 22.796875 
z
" id="ArialMT-97"/>
       <path d="M 4.984375 -4.296875 
L 13.53125 -5.5625 
Q 14.0625 -9.515625 16.5 -11.328125 
Q 19.78125 -13.765625 25.4375 -13.765625 
Q 31.546875 -13.765625 34.859375 -11.328125 
Q 38.1875 -8.890625 39.359375 -4.5 
Q 40.046875 -1.8125 39.984375 6.78125 
Q 34.234375 0 25.640625 0 
Q 14.9375 0 9.078125 7.71875 
Q 3.21875 15.4375 3.21875 26.21875 
Q 3.21875 33.640625 5.90625 39.90625 
Q 8.59375 46.1875 13.6875 49.609375 
Q 18.796875 53.03125 25.6875 53.03125 
Q 34.859375 53.03125 40.828125 45.609375 
L 40.828125 51.859375 
L 48.921875 51.859375 
L 48.921875 7.03125 
Q 48.921875 -5.078125 46.453125 -10.125 
Q 44 -15.1875 38.640625 -18.109375 
Q 33.296875 -21.046875 25.484375 -21.046875 
Q 16.21875 -21.046875 10.5 -16.875 
Q 4.78125 -12.703125 4.984375 -4.296875 
z
M 12.25 26.859375 
Q 12.25 16.65625 16.296875 11.96875 
Q 20.359375 7.28125 26.46875 7.28125 
Q 32.515625 7.28125 36.609375 11.9375 
Q 40.71875 16.609375 40.71875 26.5625 
Q 40.71875 36.078125 36.5 40.90625 
Q 32.28125 45.75 26.3125 45.75 
Q 20.453125 45.75 16.34375 40.984375 
Q 12.25 36.234375 12.25 26.859375 
z
" id="ArialMT-103"/>
       <path d="M 6.640625 61.46875 
L 6.640625 71.578125 
L 15.4375 71.578125 
L 15.4375 61.46875 
z
M 6.640625 0 
L 6.640625 51.859375 
L 15.4375 51.859375 
L 15.4375 0 
z
" id="ArialMT-105"/>
       <path d="M 6.59375 -19.875 
L 6.59375 51.859375 
L 14.59375 51.859375 
L 14.59375 45.125 
Q 17.4375 49.078125 21 51.046875 
Q 24.5625 53.03125 29.640625 53.03125 
Q 36.28125 53.03125 41.359375 49.609375 
Q 46.4375 46.1875 49.015625 39.953125 
Q 51.609375 33.734375 51.609375 26.3125 
Q 51.609375 18.359375 48.75 11.984375 
Q 45.90625 5.609375 40.453125 2.21875 
Q 35.015625 -1.171875 29 -1.171875 
Q 24.609375 -1.171875 21.109375 0.6875 
Q 17.625 2.546875 15.375 5.375 
L 15.375 -19.875 
z
M 14.546875 25.640625 
Q 14.546875 15.625 18.59375 10.84375 
Q 22.65625 6.0625 28.421875 6.0625 
Q 34.28125 6.0625 38.453125 11.015625 
Q 42.625 15.96875 42.625 26.375 
Q 42.625 36.28125 38.546875 41.203125 
Q 34.46875 46.140625 28.8125 46.140625 
Q 23.1875 46.140625 18.859375 40.890625 
Q 14.546875 35.640625 14.546875 25.640625 
z
" id="ArialMT-112"/>
       <path d="M 6.5 0 
L 6.5 51.859375 
L 14.40625 51.859375 
L 14.40625 44 
Q 17.4375 49.515625 20 51.265625 
Q 22.5625 53.03125 25.640625 53.03125 
Q 30.078125 53.03125 34.671875 50.203125 
L 31.640625 42.046875 
Q 28.421875 43.953125 25.203125 43.953125 
Q 22.3125 43.953125 20.015625 42.21875 
Q 17.71875 40.484375 16.75 37.40625 
Q 15.28125 32.71875 15.28125 27.15625 
L 15.28125 0 
z
" id="ArialMT-114"/>
       <path d="M 3.078125 15.484375 
L 11.765625 16.84375 
Q 12.5 11.625 15.84375 8.84375 
Q 19.1875 6.0625 25.203125 6.0625 
Q 31.25 6.0625 34.171875 8.515625 
Q 37.109375 10.984375 37.109375 14.3125 
Q 37.109375 17.28125 34.515625 19 
Q 32.71875 20.171875 25.53125 21.96875 
Q 15.875 24.421875 12.140625 26.203125 
Q 8.40625 27.984375 6.46875 31.125 
Q 4.546875 34.28125 4.546875 38.09375 
Q 4.546875 41.546875 6.125 44.5 
Q 7.71875 47.46875 10.453125 49.421875 
Q 12.5 50.921875 16.03125 51.96875 
Q 19.578125 53.03125 23.640625 53.03125 
Q 29.734375 53.03125 34.34375 51.265625 
Q 38.96875 49.515625 41.15625 46.5 
Q 43.359375 43.5 44.1875 38.484375 
L 35.59375 37.3125 
Q 35.015625 41.3125 32.203125 43.546875 
Q 29.390625 45.796875 24.265625 45.796875 
Q 18.21875 45.796875 15.625 43.796875 
Q 13.03125 41.796875 13.03125 39.109375 
Q 13.03125 37.40625 14.109375 36.03125 
Q 15.1875 34.625 17.484375 33.6875 
Q 18.796875 33.203125 25.25 31.453125 
Q 34.578125 28.953125 38.25 27.359375 
Q 41.9375 25.78125 44.03125 22.75 
Q 46.140625 19.734375 46.140625 15.234375 
Q 46.140625 10.84375 43.578125 6.953125 
Q 41.015625 3.078125 36.171875 0.953125 
Q 31.34375 -1.171875 25.25 -1.171875 
Q 15.140625 -1.171875 9.84375 3.03125 
Q 4.546875 7.234375 3.078125 15.484375 
z
" id="ArialMT-115"/>
       <path d="M 3.328125 25.921875 
Q 3.328125 40.328125 11.328125 47.265625 
Q 18.015625 53.03125 27.640625 53.03125 
Q 38.328125 53.03125 45.109375 46.015625 
Q 51.90625 39.015625 51.90625 26.65625 
Q 51.90625 16.65625 48.90625 10.90625 
Q 45.90625 5.171875 40.15625 2 
Q 34.421875 -1.171875 27.640625 -1.171875 
Q 16.75 -1.171875 10.03125 5.8125 
Q 3.328125 12.796875 3.328125 25.921875 
z
M 12.359375 25.921875 
Q 12.359375 15.96875 16.703125 11.015625 
Q 21.046875 6.0625 27.640625 6.0625 
Q 34.1875 6.0625 38.53125 11.03125 
Q 42.875 16.015625 42.875 26.21875 
Q 42.875 35.84375 38.5 40.796875 
Q 34.125 45.75 27.640625 45.75 
Q 21.046875 45.75 16.703125 40.8125 
Q 12.359375 35.890625 12.359375 25.921875 
z
" id="ArialMT-111"/>
      </defs>
      <use xlink:href="#ArialMT-73"/>
      <use x="27.783203" xlink:href="#ArialMT-110"/>
      <use x="83.398438" xlink:href="#ArialMT-100"/>
      <use x="139.013672" xlink:href="#ArialMT-117"/>
      <use x="194.628906" xlink:href="#ArialMT-99"/>
      <use x="244.628906" xlink:href="#ArialMT-101"/>
      <use x="300.244141" xlink:href="#ArialMT-100"/>
      <use x="355.859375" xlink:href="#ArialMT-32"/>
      <use x="383.642578" xlink:href="#ArialMT-99"/>
      <use x="433.642578" xlink:href="#ArialMT-104"/>
      <use x="489.257812" xlink:href="#ArialMT-97"/>
      <use x="544.873047" xlink:href="#ArialMT-110"/>
      <use x="600.488281" xlink:href="#ArialMT-103"/>
      <use x="656.103516" xlink:href="#ArialMT-101"/>
      <use x="711.71875" xlink:href="#ArialMT-32"/>
      <use x="739.501953" xlink:href="#ArialMT-105"/>
      <use x="761.71875" xlink:href="#ArialMT-110"/>
      <use x="817.333984" xlink:href="#ArialMT-32"/>
      <use x="845.117188" xlink:href="#ArialMT-112"/>
      <use x="900.732422" xlink:href="#ArialMT-114"/>
      <use x="934.033203" xlink:href="#ArialMT-101"/>
      <use x="989.648438" xlink:href="#ArialMT-99"/>
      <use x="1039.648438" xlink:href="#ArialMT-105"/>
      <use x="1061.865234" xlink:href="#ArialMT-115"/>
      <use x="1111.865234" xlink:href="#ArialMT-105"/>
      <use x="1134.082031" xlink:href="#ArialMT-111"/>
      <use x="1189.697266" xlink:href="#ArialMT-110"/>
     </g>
    </g>
   </g>
   <g id="matplotlib.axis_2">
    <g id="ytick_1">
     <g id="line2d_6">
      <defs>
       <path d="M 0 0 
L -3.5 0 
" id="mc7104a6540" style="stroke:#000000;stroke-width:0.8;"/>
      </defs>
      <g>
       <use style="stroke:#000000;stroke-width:0.8;" x="35.29149" xlink:href="#mc7104a6540" y="152.777404"/>
      </g>
     </g>
     <g id="text_7">
      <!-- -.01 -->
      <g transform="translate(14.50774 155.640529)scale(0.08 -0.08)">
       <defs>
        <path d="M 37.25 0 
L 28.46875 0 
L 28.46875 56 
Q 25.296875 52.984375 20.140625 49.953125 
Q 14.984375 46.921875 10.890625 45.40625 
L 10.890625 53.90625 
Q 18.265625 57.375 23.78125 62.296875 
Q 29.296875 67.234375 31.59375 71.875 
L 37.25 71.875 
z
" id="ArialMT-49"/>
       </defs>
       <use xlink:href="#ArialMT-45"/>
       <use x="33.300781" xlink:href="#ArialMT-46"/>
       <use x="61.083984" xlink:href="#ArialMT-48"/>
       <use x="116.699219" xlink:href="#ArialMT-49"/>
      </g>
     </g>
    </g>
    <g id="ytick_2">
     <g id="line2d_7">
      <g>
       <use style="stroke:#000000;stroke-width:0.8;" x="35.29149" xlink:href="#mc7104a6540" y="130.083894"/>
      </g>
     </g>
     <g id="text_8">
      <!-- -.01 -->
      <g transform="translate(14.50774 132.947019)scale(0.08 -0.08)">
       <use xlink:href="#ArialMT-45"/>
       <use x="33.300781" xlink:href="#ArialMT-46"/>
       <use x="61.083984" xlink:href="#ArialMT-48"/>
       <use x="116.699219" xlink:href="#ArialMT-49"/>
      </g>
     </g>
    </g>
    <g id="ytick_3">
     <g id="line2d_8">
      <g>
       <use style="stroke:#000000;stroke-width:0.8;" x="35.29149" xlink:href="#mc7104a6540" y="107.390385"/>
      </g>
     </g>
     <g id="text_9">
      <!-- -.01 -->
      <g transform="translate(14.50774 110.25351)scale(0.08 -0.08)">
       <use xlink:href="#ArialMT-45"/>
       <use x="33.300781" xlink:href="#ArialMT-46"/>
       <use x="61.083984" xlink:href="#ArialMT-48"/>
       <use x="116.699219" xlink:href="#ArialMT-49"/>
      </g>
     </g>
    </g>
    <g id="ytick_4">
     <g id="line2d_9">
      <g>
       <use style="stroke:#000000;stroke-width:0.8;" x="35.29149" xlink:href="#mc7104a6540" y="84.696875"/>
      </g>
     </g>
     <g id="text_10">
      <!-- 0 -->
      <g transform="translate(23.84274 87.56)scale(0.08 -0.08)">
       <use xlink:href="#ArialMT-48"/>
      </g>
     </g>
    </g>
    <g id="ytick_5">
     <g id="line2d_10">
      <g>
       <use style="stroke:#000000;stroke-width:0.8;" x="35.29149" xlink:href="#mc7104a6540" y="62.003365"/>
      </g>
     </g>
     <g id="text_11">
      <!-- .01 -->
      <g transform="translate(17.17149 64.86649)scale(0.08 -0.08)">
       <use xlink:href="#ArialMT-46"/>
       <use x="27.783203" xlink:href="#ArialMT-48"/>
       <use x="83.398438" xlink:href="#ArialMT-49"/>
      </g>
     </g>
    </g>
    <g id="ytick_6">
     <g id="line2d_11">
      <g>
       <use style="stroke:#000000;stroke-width:0.8;" x="35.29149" xlink:href="#mc7104a6540" y="39.309856"/>
      </g>
     </g>
     <g id="text_12">
      <!-- .01 -->
      <g transform="translate(17.17149 42.172981)scale(0.08 -0.08)">
       <use xlink:href="#ArialMT-46"/>
       <use x="27.783203" xlink:href="#ArialMT-48"/>
       <use x="83.398438" xlink:href="#ArialMT-49"/>
      </g>
     </g>
    </g>
    <g id="ytick_7">
     <g id="line2d_12">
      <g>
       <use style="stroke:#000000;stroke-width:0.8;" x="35.29149" xlink:href="#mc7104a6540" y="16.616346"/>
      </g>
     </g>
     <g id="text_13">
      <!-- .02 -->
      <g transform="translate(17.17149 19.479471)scale(0.08 -0.08)">
       <use xlink:href="#ArialMT-46"/>
       <use x="27.783203" xlink:href="#ArialMT-48"/>
       <use x="83.398438" xlink:href="#ArialMT-50"/>
      </g>
     </g>
    </g>
    <g id="text_14">
     <!-- Effect on subsequent learning rate -->
     <g transform="translate(8.82399 145.551875)rotate(-90)scale(0.08 -0.08)">
      <defs>
       <path d="M 7.90625 0 
L 7.90625 71.578125 
L 59.671875 71.578125 
L 59.671875 63.140625 
L 17.390625 63.140625 
L 17.390625 41.21875 
L 56.984375 41.21875 
L 56.984375 32.8125 
L 17.390625 32.8125 
L 17.390625 8.453125 
L 61.328125 8.453125 
L 61.328125 0 
z
" id="ArialMT-69"/>
       <path d="M 8.6875 0 
L 8.6875 45.015625 
L 0.921875 45.015625 
L 0.921875 51.859375 
L 8.6875 51.859375 
L 8.6875 57.375 
Q 8.6875 62.59375 9.625 65.140625 
Q 10.890625 68.5625 14.078125 70.671875 
Q 17.28125 72.796875 23.046875 72.796875 
Q 26.765625 72.796875 31.25 71.921875 
L 29.9375 64.265625 
Q 27.203125 64.75 24.75 64.75 
Q 20.75 64.75 19.09375 63.03125 
Q 17.4375 61.328125 17.4375 56.640625 
L 17.4375 51.859375 
L 27.546875 51.859375 
L 27.546875 45.015625 
L 17.4375 45.015625 
L 17.4375 0 
z
" id="ArialMT-102"/>
       <path d="M 25.78125 7.859375 
L 27.046875 0.09375 
Q 23.34375 -0.6875 20.40625 -0.6875 
Q 15.625 -0.6875 12.984375 0.828125 
Q 10.359375 2.34375 9.28125 4.8125 
Q 8.203125 7.28125 8.203125 15.1875 
L 8.203125 45.015625 
L 1.765625 45.015625 
L 1.765625 51.859375 
L 8.203125 51.859375 
L 8.203125 64.703125 
L 16.9375 69.96875 
L 16.9375 51.859375 
L 25.78125 51.859375 
L 25.78125 45.015625 
L 16.9375 45.015625 
L 16.9375 14.703125 
Q 16.9375 10.9375 17.40625 9.859375 
Q 17.875 8.796875 18.921875 8.15625 
Q 19.96875 7.515625 21.921875 7.515625 
Q 23.390625 7.515625 25.78125 7.859375 
z
" id="ArialMT-116"/>
       <path d="M 14.703125 0 
L 6.546875 0 
L 6.546875 71.578125 
L 15.328125 71.578125 
L 15.328125 46.046875 
Q 20.90625 53.03125 29.546875 53.03125 
Q 34.328125 53.03125 38.59375 51.09375 
Q 42.875 49.171875 45.625 45.671875 
Q 48.390625 42.1875 49.953125 37.25 
Q 51.515625 32.328125 51.515625 26.703125 
Q 51.515625 13.375 44.921875 6.09375 
Q 38.328125 -1.171875 29.109375 -1.171875 
Q 19.921875 -1.171875 14.703125 6.5 
z
M 14.59375 26.3125 
Q 14.59375 17 17.140625 12.84375 
Q 21.296875 6.0625 28.375 6.0625 
Q 34.125 6.0625 38.328125 11.0625 
Q 42.53125 16.0625 42.53125 25.984375 
Q 42.53125 36.140625 38.5 40.96875 
Q 34.46875 45.796875 28.765625 45.796875 
Q 23 45.796875 18.796875 40.796875 
Q 14.59375 35.796875 14.59375 26.3125 
z
" id="ArialMT-98"/>
       <path d="M 39.65625 -19.875 
L 39.65625 5.515625 
Q 37.59375 2.640625 33.90625 0.734375 
Q 30.21875 -1.171875 26.078125 -1.171875 
Q 16.84375 -1.171875 10.171875 6.203125 
Q 3.515625 13.578125 3.515625 26.421875 
Q 3.515625 34.234375 6.21875 40.421875 
Q 8.9375 46.625 14.078125 49.828125 
Q 19.234375 53.03125 25.390625 53.03125 
Q 35.015625 53.03125 40.53125 44.921875 
L 40.53125 51.859375 
L 48.4375 51.859375 
L 48.4375 -19.875 
z
M 12.546875 26.078125 
Q 12.546875 16.0625 16.75 11.0625 
Q 20.953125 6.0625 26.8125 6.0625 
Q 32.421875 6.0625 36.46875 10.8125 
Q 40.53125 15.578125 40.53125 25.296875 
Q 40.53125 35.640625 36.25 40.859375 
Q 31.984375 46.09375 26.21875 46.09375 
Q 20.515625 46.09375 16.53125 41.234375 
Q 12.546875 36.375 12.546875 26.078125 
z
" id="ArialMT-113"/>
       <path d="M 6.390625 0 
L 6.390625 71.578125 
L 15.1875 71.578125 
L 15.1875 0 
z
" id="ArialMT-108"/>
      </defs>
      <use xlink:href="#ArialMT-69"/>
      <use x="66.699219" xlink:href="#ArialMT-102"/>
      <use x="92.732422" xlink:href="#ArialMT-102"/>
      <use x="120.515625" xlink:href="#ArialMT-101"/>
      <use x="176.130859" xlink:href="#ArialMT-99"/>
      <use x="226.130859" xlink:href="#ArialMT-116"/>
      <use x="253.914062" xlink:href="#ArialMT-32"/>
      <use x="281.697266" xlink:href="#ArialMT-111"/>
      <use x="337.3125" xlink:href="#ArialMT-110"/>
      <use x="392.927734" xlink:href="#ArialMT-32"/>
      <use x="420.710938" xlink:href="#ArialMT-115"/>
      <use x="470.710938" xlink:href="#ArialMT-117"/>
      <use x="526.326172" xlink:href="#ArialMT-98"/>
      <use x="581.941406" xlink:href="#ArialMT-115"/>
      <use x="631.941406" xlink:href="#ArialMT-101"/>
      <use x="687.556641" xlink:href="#ArialMT-113"/>
      <use x="743.171875" xlink:href="#ArialMT-117"/>
      <use x="798.787109" xlink:href="#ArialMT-101"/>
      <use x="854.402344" xlink:href="#ArialMT-110"/>
      <use x="910.017578" xlink:href="#ArialMT-116"/>
      <use x="937.800781" xlink:href="#ArialMT-32"/>
      <use x="965.583984" xlink:href="#ArialMT-108"/>
      <use x="987.800781" xlink:href="#ArialMT-101"/>
      <use x="1043.416016" xlink:href="#ArialMT-97"/>
      <use x="1099.03125" xlink:href="#ArialMT-114"/>
      <use x="1132.332031" xlink:href="#ArialMT-110"/>
      <use x="1187.947266" xlink:href="#ArialMT-105"/>
      <use x="1210.164062" xlink:href="#ArialMT-110"/>
      <use x="1265.779297" xlink:href="#ArialMT-103"/>
      <use x="1321.394531" xlink:href="#ArialMT-32"/>
      <use x="1349.177734" xlink:href="#ArialMT-114"/>
      <use x="1382.478516" xlink:href="#ArialMT-97"/>
      <use x="1438.09375" xlink:href="#ArialMT-116"/>
      <use x="1465.876953" xlink:href="#ArialMT-101"/>
     </g>
    </g>
   </g>
   <g id="line2d_13">
    <path clip-path="url(#pec6c750650)" d="M 46.364172 60.960269 
L 90.654898 72.410547 
L 134.945625 83.274217 
L 179.236352 96.209146 
L 223.527078 108.59834 
" style="fill:none;stroke:#000000;stroke-linecap:square;stroke-opacity:0.3;stroke-width:0.5;"/>
    <defs>
     <path d="M 0 0.5 
C 0.132602 0.5 0.25979 0.447317 0.353553 0.353553 
C 0.447317 0.25979 0.5 0.132602 0.5 0 
C 0.5 -0.132602 0.447317 -0.25979 0.353553 -0.353553 
C 0.25979 -0.447317 0.132602 -0.5 0 -0.5 
C -0.132602 -0.5 -0.25979 -0.447317 -0.353553 -0.353553 
C -0.447317 -0.25979 -0.5 -0.132602 -0.5 0 
C -0.5 0.132602 -0.447317 0.25979 -0.353553 0.353553 
C -0.25979 0.447317 -0.132602 0.5 0 0.5 
z
" id="m5a556071f1" style="stroke:#000000;stroke-opacity:0.3;"/>
    </defs>
    <g clip-path="url(#pec6c750650)">
     <use style="fill-opacity:0.3;stroke:#000000;stroke-opacity:0.3;" x="46.364172" xlink:href="#m5a556071f1" y="60.960269"/>
     <use style="fill-opacity:0.3;stroke:#000000;stroke-opacity:0.3;" x="90.654898" xlink:href="#m5a556071f1" y="72.410547"/>
     <use style="fill-opacity:0.3;stroke:#000000;stroke-opacity:0.3;" x="134.945625" xlink:href="#m5a556071f1" y="83.274217"/>
     <use style="fill-opacity:0.3;stroke:#000000;stroke-opacity:0.3;" x="179.236352" xlink:href="#m5a556071f1" y="96.209146"/>
     <use style="fill-opacity:0.3;stroke:#000000;stroke-opacity:0.3;" x="223.527078" xlink:href="#m5a556071f1" y="108.59834"/>
    </g>
   </g>
   <g id="line2d_14">
    <path clip-path="url(#pec6c750650)" d="M 46.364172 62.726377 
L 90.654898 70.206719 
L 134.945625 82.202481 
L 179.236352 91.28503 
L 223.527078 102.842156 
" style="fill:none;stroke:#000000;stroke-linecap:square;stroke-opacity:0.3;stroke-width:0.5;"/>
    <g clip-path="url(#pec6c750650)">
     <use style="fill-opacity:0.3;stroke:#000000;stroke-opacity:0.3;" x="46.364172" xlink:href="#m5a556071f1" y="62.726377"/>
     <use style="fill-opacity:0.3;stroke:#000000;stroke-opacity:0.3;" x="90.654898" xlink:href="#m5a556071f1" y="70.206719"/>
     <use style="fill-opacity:0.3;stroke:#000000;stroke-opacity:0.3;" x="134.945625" xlink:href="#m5a556071f1" y="82.202481"/>
     <use style="fill-opacity:0.3;stroke:#000000;stroke-opacity:0.3;" x="179.236352" xlink:href="#m5a556071f1" y="91.28503"/>
     <use style="fill-opacity:0.3;stroke:#000000;stroke-opacity:0.3;" x="223.527078" xlink:href="#m5a556071f1" y="102.842156"/>
    </g>
   </g>
   <g id="line2d_15">
    <path clip-path="url(#pec6c750650)" d="M 46.364172 74.734075 
L 90.654898 79.604168 
L 134.945625 83.485553 
L 179.236352 89.620127 
L 223.527078 93.764139 
" style="fill:none;stroke:#000000;stroke-linecap:square;stroke-opacity:0.3;stroke-width:0.5;"/>
    <g clip-path="url(#pec6c750650)">
     <use style="fill-opacity:0.3;stroke:#000000;stroke-opacity:0.3;" x="46.364172" xlink:href="#m5a556071f1" y="74.734075"/>
     <use style="fill-opacity:0.3;stroke:#000000;stroke-opacity:0.3;" x="90.654898" xlink:href="#m5a556071f1" y="79.604168"/>
     <use style="fill-opacity:0.3;stroke:#000000;stroke-opacity:0.3;" x="134.945625" xlink:href="#m5a556071f1" y="83.485553"/>
     <use style="fill-opacity:0.3;stroke:#000000;stroke-opacity:0.3;" x="179.236352" xlink:href="#m5a556071f1" y="89.620127"/>
     <use style="fill-opacity:0.3;stroke:#000000;stroke-opacity:0.3;" x="223.527078" xlink:href="#m5a556071f1" y="93.764139"/>
    </g>
   </g>
   <g id="line2d_16">
    <path clip-path="url(#pec6c750650)" d="M 46.364172 32.368333 
L 90.654898 55.528619 
L 134.945625 83.3757 
L 179.236352 110.328072 
L 223.527078 134.052665 
" style="fill:none;stroke:#000000;stroke-linecap:square;stroke-opacity:0.3;stroke-width:0.5;"/>
    <g clip-path="url(#pec6c750650)">
     <use style="fill-opacity:0.3;stroke:#000000;stroke-opacity:0.3;" x="46.364172" xlink:href="#m5a556071f1" y="32.368333"/>
     <use style="fill-opacity:0.3;stroke:#000000;stroke-opacity:0.3;" x="90.654898" xlink:href="#m5a556071f1" y="55.528619"/>
     <use style="fill-opacity:0.3;stroke:#000000;stroke-opacity:0.3;" x="134.945625" xlink:href="#m5a556071f1" y="83.3757"/>
     <use style="fill-opacity:0.3;stroke:#000000;stroke-opacity:0.3;" x="179.236352" xlink:href="#m5a556071f1" y="110.328072"/>
     <use style="fill-opacity:0.3;stroke:#000000;stroke-opacity:0.3;" x="223.527078" xlink:href="#m5a556071f1" y="134.052665"/>
    </g>
   </g>
   <g id="line2d_17">
    <path clip-path="url(#pec6c750650)" d="M 46.364172 65.622302 
L 90.654898 72.757205 
L 134.945625 82.227312 
L 179.236352 95.068553 
L 223.527078 104.454816 
" style="fill:none;stroke:#000000;stroke-linecap:square;stroke-opacity:0.3;stroke-width:0.5;"/>
    <g clip-path="url(#pec6c750650)">
     <use style="fill-opacity:0.3;stroke:#000000;stroke-opacity:0.3;" x="46.364172" xlink:href="#m5a556071f1" y="65.622302"/>
     <use style="fill-opacity:0.3;stroke:#000000;stroke-opacity:0.3;" x="90.654898" xlink:href="#m5a556071f1" y="72.757205"/>
     <use style="fill-opacity:0.3;stroke:#000000;stroke-opacity:0.3;" x="134.945625" xlink:href="#m5a556071f1" y="82.227312"/>
     <use style="fill-opacity:0.3;stroke:#000000;stroke-opacity:0.3;" x="179.236352" xlink:href="#m5a556071f1" y="95.068553"/>
     <use style="fill-opacity:0.3;stroke:#000000;stroke-opacity:0.3;" x="223.527078" xlink:href="#m5a556071f1" y="104.454816"/>
    </g>
   </g>
   <g id="line2d_18">
    <path clip-path="url(#pec6c750650)" d="M 46.364172 48.254728 
L 90.654898 63.965779 
L 134.945625 83.866031 
L 179.236352 98.93616 
L 223.527078 116.61422 
" style="fill:none;stroke:#000000;stroke-linecap:square;stroke-opacity:0.3;stroke-width:0.5;"/>
    <g clip-path="url(#pec6c750650)">
     <use style="fill-opacity:0.3;stroke:#000000;stroke-opacity:0.3;" x="46.364172" xlink:href="#m5a556071f1" y="48.254728"/>
     <use style="fill-opacity:0.3;stroke:#000000;stroke-opacity:0.3;" x="90.654898" xlink:href="#m5a556071f1" y="63.965779"/>
     <use style="fill-opacity:0.3;stroke:#000000;stroke-opacity:0.3;" x="134.945625" xlink:href="#m5a556071f1" y="83.866031"/>
     <use style="fill-opacity:0.3;stroke:#000000;stroke-opacity:0.3;" x="179.236352" xlink:href="#m5a556071f1" y="98.93616"/>
     <use style="fill-opacity:0.3;stroke:#000000;stroke-opacity:0.3;" x="223.527078" xlink:href="#m5a556071f1" y="116.61422"/>
    </g>
   </g>
   <g id="line2d_19">
    <path clip-path="url(#pec6c750650)" d="M 46.364172 76.993217 
L 90.654898 80.845638 
L 134.945625 84.478294 
L 179.236352 89.617251 
L 223.527078 92.230681 
" style="fill:none;stroke:#000000;stroke-linecap:square;stroke-opacity:0.3;stroke-width:0.5;"/>
    <g clip-path="url(#pec6c750650)">
     <use style="fill-opacity:0.3;stroke:#000000;stroke-opacity:0.3;" x="46.364172" xlink:href="#m5a556071f1" y="76.993217"/>
     <use style="fill-opacity:0.3;stroke:#000000;stroke-opacity:0.3;" x="90.654898" xlink:href="#m5a556071f1" y="80.845638"/>
     <use style="fill-opacity:0.3;stroke:#000000;stroke-opacity:0.3;" x="134.945625" xlink:href="#m5a556071f1" y="84.478294"/>
     <use style="fill-opacity:0.3;stroke:#000000;stroke-opacity:0.3;" x="179.236352" xlink:href="#m5a556071f1" y="89.617251"/>
     <use style="fill-opacity:0.3;stroke:#000000;stroke-opacity:0.3;" x="223.527078" xlink:href="#m5a556071f1" y="92.230681"/>
    </g>
   </g>
   <g id="line2d_20">
    <path clip-path="url(#pec6c750650)" d="M 46.364172 81.409775 
L 90.654898 83.837351 
L 134.945625 85.53994 
L 179.236352 85.081042 
L 223.527078 87.361376 
" style="fill:none;stroke:#000000;stroke-linecap:square;stroke-opacity:0.3;stroke-width:0.5;"/>
    <g clip-path="url(#pec6c750650)">
     <use style="fill-opacity:0.3;stroke:#000000;stroke-opacity:0.3;" x="46.364172" xlink:href="#m5a556071f1" y="81.409775"/>
     <use style="fill-opacity:0.3;stroke:#000000;stroke-opacity:0.3;" x="90.654898" xlink:href="#m5a556071f1" y="83.837351"/>
     <use style="fill-opacity:0.3;stroke:#000000;stroke-opacity:0.3;" x="134.945625" xlink:href="#m5a556071f1" y="85.53994"/>
     <use style="fill-opacity:0.3;stroke:#000000;stroke-opacity:0.3;" x="179.236352" xlink:href="#m5a556071f1" y="85.081042"/>
     <use style="fill-opacity:0.3;stroke:#000000;stroke-opacity:0.3;" x="223.527078" xlink:href="#m5a556071f1" y="87.361376"/>
    </g>
   </g>
   <g id="line2d_21">
    <path clip-path="url(#pec6c750650)" d="M 46.364172 64.47614 
L 90.654898 72.958432 
L 134.945625 83.384485 
L 179.236352 93.111912 
L 223.527078 104.443737 
" style="fill:none;stroke:#000000;stroke-linecap:square;stroke-opacity:0.3;stroke-width:0.5;"/>
    <g clip-path="url(#pec6c750650)">
     <use style="fill-opacity:0.3;stroke:#000000;stroke-opacity:0.3;" x="46.364172" xlink:href="#m5a556071f1" y="64.47614"/>
     <use style="fill-opacity:0.3;stroke:#000000;stroke-opacity:0.3;" x="90.654898" xlink:href="#m5a556071f1" y="72.958432"/>
     <use style="fill-opacity:0.3;stroke:#000000;stroke-opacity:0.3;" x="134.945625" xlink:href="#m5a556071f1" y="83.384485"/>
     <use style="fill-opacity:0.3;stroke:#000000;stroke-opacity:0.3;" x="179.236352" xlink:href="#m5a556071f1" y="93.111912"/>
     <use style="fill-opacity:0.3;stroke:#000000;stroke-opacity:0.3;" x="223.527078" xlink:href="#m5a556071f1" y="104.443737"/>
    </g>
   </g>
   <g id="line2d_22">
    <path clip-path="url(#pec6c750650)" d="M 46.364172 33.638832 
L 90.654898 57.771003 
L 134.945625 79.380537 
L 179.236352 102.762772 
L 223.527078 129.103459 
" style="fill:none;stroke:#000000;stroke-linecap:square;stroke-opacity:0.3;stroke-width:0.5;"/>
    <g clip-path="url(#pec6c750650)">
     <use style="fill-opacity:0.3;stroke:#000000;stroke-opacity:0.3;" x="46.364172" xlink:href="#m5a556071f1" y="33.638832"/>
     <use style="fill-opacity:0.3;stroke:#000000;stroke-opacity:0.3;" x="90.654898" xlink:href="#m5a556071f1" y="57.771003"/>
     <use style="fill-opacity:0.3;stroke:#000000;stroke-opacity:0.3;" x="134.945625" xlink:href="#m5a556071f1" y="79.380537"/>
     <use style="fill-opacity:0.3;stroke:#000000;stroke-opacity:0.3;" x="179.236352" xlink:href="#m5a556071f1" y="102.762772"/>
     <use style="fill-opacity:0.3;stroke:#000000;stroke-opacity:0.3;" x="223.527078" xlink:href="#m5a556071f1" y="129.103459"/>
    </g>
   </g>
   <g id="line2d_23">
    <path clip-path="url(#pec6c750650)" d="M 46.364172 67.432222 
L 90.654898 76.098629 
L 134.945625 86.801957 
L 179.236352 88.539485 
L 223.527078 100.961961 
" style="fill:none;stroke:#000000;stroke-linecap:square;stroke-opacity:0.3;stroke-width:0.5;"/>
    <g clip-path="url(#pec6c750650)">
     <use style="fill-opacity:0.3;stroke:#000000;stroke-opacity:0.3;" x="46.364172" xlink:href="#m5a556071f1" y="67.432222"/>
     <use style="fill-opacity:0.3;stroke:#000000;stroke-opacity:0.3;" x="90.654898" xlink:href="#m5a556071f1" y="76.098629"/>
     <use style="fill-opacity:0.3;stroke:#000000;stroke-opacity:0.3;" x="134.945625" xlink:href="#m5a556071f1" y="86.801957"/>
     <use style="fill-opacity:0.3;stroke:#000000;stroke-opacity:0.3;" x="179.236352" xlink:href="#m5a556071f1" y="88.539485"/>
     <use style="fill-opacity:0.3;stroke:#000000;stroke-opacity:0.3;" x="223.527078" xlink:href="#m5a556071f1" y="100.961961"/>
    </g>
   </g>
   <g id="line2d_24">
    <path clip-path="url(#pec6c750650)" d="M 46.364172 76.106145 
L 90.654898 79.256939 
L 134.945625 83.701358 
L 179.236352 85.130871 
L 223.527078 91.473152 
" style="fill:none;stroke:#000000;stroke-linecap:square;stroke-opacity:0.3;stroke-width:0.5;"/>
    <g clip-path="url(#pec6c750650)">
     <use style="fill-opacity:0.3;stroke:#000000;stroke-opacity:0.3;" x="46.364172" xlink:href="#m5a556071f1" y="76.106145"/>
     <use style="fill-opacity:0.3;stroke:#000000;stroke-opacity:0.3;" x="90.654898" xlink:href="#m5a556071f1" y="79.256939"/>
     <use style="fill-opacity:0.3;stroke:#000000;stroke-opacity:0.3;" x="134.945625" xlink:href="#m5a556071f1" y="83.701358"/>
     <use style="fill-opacity:0.3;stroke:#000000;stroke-opacity:0.3;" x="179.236352" xlink:href="#m5a556071f1" y="85.130871"/>
     <use style="fill-opacity:0.3;stroke:#000000;stroke-opacity:0.3;" x="223.527078" xlink:href="#m5a556071f1" y="91.473152"/>
    </g>
   </g>
   <g id="line2d_25">
    <path clip-path="url(#pec6c750650)" d="M 46.364172 59.814646 
L 90.654898 73.28153 
L 134.945625 85.934924 
L 179.236352 95.650202 
L 223.527078 108.468533 
" style="fill:none;stroke:#000000;stroke-linecap:square;stroke-opacity:0.3;stroke-width:0.5;"/>
    <g clip-path="url(#pec6c750650)">
     <use style="fill-opacity:0.3;stroke:#000000;stroke-opacity:0.3;" x="46.364172" xlink:href="#m5a556071f1" y="59.814646"/>
     <use style="fill-opacity:0.3;stroke:#000000;stroke-opacity:0.3;" x="90.654898" xlink:href="#m5a556071f1" y="73.28153"/>
     <use style="fill-opacity:0.3;stroke:#000000;stroke-opacity:0.3;" x="134.945625" xlink:href="#m5a556071f1" y="85.934924"/>
     <use style="fill-opacity:0.3;stroke:#000000;stroke-opacity:0.3;" x="179.236352" xlink:href="#m5a556071f1" y="95.650202"/>
     <use style="fill-opacity:0.3;stroke:#000000;stroke-opacity:0.3;" x="223.527078" xlink:href="#m5a556071f1" y="108.468533"/>
    </g>
   </g>
   <g id="line2d_26">
    <path clip-path="url(#pec6c750650)" d="M 46.364172 65.689944 
L 90.654898 73.63378 
L 134.945625 83.216229 
L 179.236352 91.207508 
L 223.527078 105.970469 
" style="fill:none;stroke:#000000;stroke-linecap:square;stroke-opacity:0.3;stroke-width:0.5;"/>
    <g clip-path="url(#pec6c750650)">
     <use style="fill-opacity:0.3;stroke:#000000;stroke-opacity:0.3;" x="46.364172" xlink:href="#m5a556071f1" y="65.689944"/>
     <use style="fill-opacity:0.3;stroke:#000000;stroke-opacity:0.3;" x="90.654898" xlink:href="#m5a556071f1" y="73.63378"/>
     <use style="fill-opacity:0.3;stroke:#000000;stroke-opacity:0.3;" x="134.945625" xlink:href="#m5a556071f1" y="83.216229"/>
     <use style="fill-opacity:0.3;stroke:#000000;stroke-opacity:0.3;" x="179.236352" xlink:href="#m5a556071f1" y="91.207508"/>
     <use style="fill-opacity:0.3;stroke:#000000;stroke-opacity:0.3;" x="223.527078" xlink:href="#m5a556071f1" y="105.970469"/>
    </g>
   </g>
   <g id="line2d_27">
    <path clip-path="url(#pec6c750650)" d="M 46.364172 60.385992 
L 90.654898 70.139658 
L 134.945625 80.148999 
L 179.236352 93.854326 
L 223.527078 107.088639 
" style="fill:none;stroke:#000000;stroke-linecap:square;stroke-opacity:0.3;stroke-width:0.5;"/>
    <g clip-path="url(#pec6c750650)">
     <use style="fill-opacity:0.3;stroke:#000000;stroke-opacity:0.3;" x="46.364172" xlink:href="#m5a556071f1" y="60.385992"/>
     <use style="fill-opacity:0.3;stroke:#000000;stroke-opacity:0.3;" x="90.654898" xlink:href="#m5a556071f1" y="70.139658"/>
     <use style="fill-opacity:0.3;stroke:#000000;stroke-opacity:0.3;" x="134.945625" xlink:href="#m5a556071f1" y="80.148999"/>
     <use style="fill-opacity:0.3;stroke:#000000;stroke-opacity:0.3;" x="179.236352" xlink:href="#m5a556071f1" y="93.854326"/>
     <use style="fill-opacity:0.3;stroke:#000000;stroke-opacity:0.3;" x="223.527078" xlink:href="#m5a556071f1" y="107.088639"/>
    </g>
   </g>
   <g id="line2d_28">
    <path clip-path="url(#pec6c750650)" d="M 46.364172 73.801122 
L 90.654898 76.796681 
L 134.945625 83.906678 
L 179.236352 87.562377 
L 223.527078 94.41681 
" style="fill:none;stroke:#000000;stroke-linecap:square;stroke-opacity:0.3;stroke-width:0.5;"/>
    <g clip-path="url(#pec6c750650)">
     <use style="fill-opacity:0.3;stroke:#000000;stroke-opacity:0.3;" x="46.364172" xlink:href="#m5a556071f1" y="73.801122"/>
     <use style="fill-opacity:0.3;stroke:#000000;stroke-opacity:0.3;" x="90.654898" xlink:href="#m5a556071f1" y="76.796681"/>
     <use style="fill-opacity:0.3;stroke:#000000;stroke-opacity:0.3;" x="134.945625" xlink:href="#m5a556071f1" y="83.906678"/>
     <use style="fill-opacity:0.3;stroke:#000000;stroke-opacity:0.3;" x="179.236352" xlink:href="#m5a556071f1" y="87.562377"/>
     <use style="fill-opacity:0.3;stroke:#000000;stroke-opacity:0.3;" x="223.527078" xlink:href="#m5a556071f1" y="94.41681"/>
    </g>
   </g>
   <g id="line2d_29">
    <path clip-path="url(#pec6c750650)" d="M 46.364172 68.555631 
L 90.654898 72.062858 
L 134.945625 83.497227 
L 179.236352 89.940128 
L 223.527078 101.074986 
" style="fill:none;stroke:#000000;stroke-linecap:square;stroke-opacity:0.3;stroke-width:0.5;"/>
    <g clip-path="url(#pec6c750650)">
     <use style="fill-opacity:0.3;stroke:#000000;stroke-opacity:0.3;" x="46.364172" xlink:href="#m5a556071f1" y="68.555631"/>
     <use style="fill-opacity:0.3;stroke:#000000;stroke-opacity:0.3;" x="90.654898" xlink:href="#m5a556071f1" y="72.062858"/>
     <use style="fill-opacity:0.3;stroke:#000000;stroke-opacity:0.3;" x="134.945625" xlink:href="#m5a556071f1" y="83.497227"/>
     <use style="fill-opacity:0.3;stroke:#000000;stroke-opacity:0.3;" x="179.236352" xlink:href="#m5a556071f1" y="89.940128"/>
     <use style="fill-opacity:0.3;stroke:#000000;stroke-opacity:0.3;" x="223.527078" xlink:href="#m5a556071f1" y="101.074986"/>
    </g>
   </g>
   <g id="line2d_30">
    <path clip-path="url(#pec6c750650)" d="M 46.364172 50.575712 
L 90.654898 66.816943 
L 134.945625 82.753876 
L 179.236352 101.193594 
L 223.527078 117.736518 
" style="fill:none;stroke:#000000;stroke-linecap:square;stroke-opacity:0.3;stroke-width:0.5;"/>
    <g clip-path="url(#pec6c750650)">
     <use style="fill-opacity:0.3;stroke:#000000;stroke-opacity:0.3;" x="46.364172" xlink:href="#m5a556071f1" y="50.575712"/>
     <use style="fill-opacity:0.3;stroke:#000000;stroke-opacity:0.3;" x="90.654898" xlink:href="#m5a556071f1" y="66.816943"/>
     <use style="fill-opacity:0.3;stroke:#000000;stroke-opacity:0.3;" x="134.945625" xlink:href="#m5a556071f1" y="82.753876"/>
     <use style="fill-opacity:0.3;stroke:#000000;stroke-opacity:0.3;" x="179.236352" xlink:href="#m5a556071f1" y="101.193594"/>
     <use style="fill-opacity:0.3;stroke:#000000;stroke-opacity:0.3;" x="223.527078" xlink:href="#m5a556071f1" y="117.736518"/>
    </g>
   </g>
   <g id="line2d_31">
    <path clip-path="url(#pec6c750650)" d="M 46.364172 15.241912 
L 90.654898 47.390841 
L 134.945625 84.408967 
L 179.236352 114.014077 
L 223.527078 148.151045 
" style="fill:none;stroke:#000000;stroke-linecap:square;stroke-opacity:0.3;stroke-width:0.5;"/>
    <g clip-path="url(#pec6c750650)">
     <use style="fill-opacity:0.3;stroke:#000000;stroke-opacity:0.3;" x="46.364172" xlink:href="#m5a556071f1" y="15.241912"/>
     <use style="fill-opacity:0.3;stroke:#000000;stroke-opacity:0.3;" x="90.654898" xlink:href="#m5a556071f1" y="47.390841"/>
     <use style="fill-opacity:0.3;stroke:#000000;stroke-opacity:0.3;" x="134.945625" xlink:href="#m5a556071f1" y="84.408967"/>
     <use style="fill-opacity:0.3;stroke:#000000;stroke-opacity:0.3;" x="179.236352" xlink:href="#m5a556071f1" y="114.014077"/>
     <use style="fill-opacity:0.3;stroke:#000000;stroke-opacity:0.3;" x="223.527078" xlink:href="#m5a556071f1" y="148.151045"/>
    </g>
   </g>
   <g id="line2d_32">
    <path clip-path="url(#pec6c750650)" d="M 46.364172 44.795468 
L 90.654898 66.135831 
L 134.945625 81.387936 
L 179.236352 105.081845 
L 223.527078 124.375536 
" style="fill:none;stroke:#000000;stroke-linecap:square;stroke-opacity:0.3;stroke-width:0.5;"/>
    <g clip-path="url(#pec6c750650)">
     <use style="fill-opacity:0.3;stroke:#000000;stroke-opacity:0.3;" x="46.364172" xlink:href="#m5a556071f1" y="44.795468"/>
     <use style="fill-opacity:0.3;stroke:#000000;stroke-opacity:0.3;" x="90.654898" xlink:href="#m5a556071f1" y="66.135831"/>
     <use style="fill-opacity:0.3;stroke:#000000;stroke-opacity:0.3;" x="134.945625" xlink:href="#m5a556071f1" y="81.387936"/>
     <use style="fill-opacity:0.3;stroke:#000000;stroke-opacity:0.3;" x="179.236352" xlink:href="#m5a556071f1" y="105.081845"/>
     <use style="fill-opacity:0.3;stroke:#000000;stroke-opacity:0.3;" x="223.527078" xlink:href="#m5a556071f1" y="124.375536"/>
    </g>
   </g>
   <g id="line2d_33">
    <path clip-path="url(#pec6c750650)" d="M 134.945625 166.39351 
L 134.945625 3.00024 
" style="fill:none;stroke:#000000;stroke-dasharray:1.85,0.8;stroke-dashoffset:0;stroke-opacity:0.5;stroke-width:0.5;"/>
   </g>
   <g id="line2d_34">
    <path clip-path="url(#pec6c750650)" d="M 35.29149 84.696875 
L 234.59976 84.696875 
" style="fill:none;stroke:#000000;stroke-dasharray:1.85,0.8;stroke-dashoffset:0;stroke-opacity:0.5;stroke-width:0.5;"/>
   </g>
   <g id="line2d_35">
    <path clip-path="url(#pec6c750650)" d="M 47.47144 11.769164 
L 47.47144 10.380065 
L 89.54763 10.380065 
L 89.54763 11.769164 
" style="fill:none;stroke:#000000;stroke-linecap:square;stroke-width:0.5;"/>
   </g>
   <g id="line2d_36">
    <path clip-path="url(#pec6c750650)" d="M 91.762167 11.769164 
L 91.762167 10.380065 
L 133.838357 10.380065 
L 133.838357 11.769164 
" style="fill:none;stroke:#000000;stroke-linecap:square;stroke-width:0.5;"/>
   </g>
   <g id="line2d_37">
    <path clip-path="url(#pec6c750650)" d="M 136.052893 11.769164 
L 136.052893 10.380065 
L 178.129084 10.380065 
L 178.129084 11.769164 
" style="fill:none;stroke:#000000;stroke-linecap:square;stroke-width:0.5;"/>
   </g>
   <g id="line2d_38">
    <path clip-path="url(#pec6c750650)" d="M 180.34362 11.769164 
L 180.34362 10.380065 
L 222.41981 10.380065 
L 222.41981 11.769164 
" style="fill:none;stroke:#000000;stroke-linecap:square;stroke-width:0.5;"/>
   </g>
   <g id="patch_3">
    <path d="M 35.29149 166.39351 
L 35.29149 3.00024 
" style="fill:none;stroke:#000000;stroke-linecap:square;stroke-linejoin:miter;stroke-width:0.8;"/>
   </g>
   <g id="patch_4">
    <path d="M 35.29149 166.39351 
L 234.59976 166.39351 
" style="fill:none;stroke:#000000;stroke-linecap:square;stroke-linejoin:miter;stroke-width:0.8;"/>
   </g>
   <g id="text_15">
    <!-- *** -->
    <g transform="translate(63.83891 8.790065)scale(0.08 -0.08)">
     <defs>
      <path d="M 3.125 58.453125 
L 5.375 65.375 
Q 13.140625 62.640625 16.65625 60.640625 
Q 15.71875 69.484375 15.671875 72.796875 
L 22.75 72.796875 
Q 22.609375 67.96875 21.625 60.6875 
Q 26.65625 63.234375 33.15625 65.375 
L 35.40625 58.453125 
Q 29.203125 56.390625 23.25 55.71875 
Q 26.21875 53.125 31.640625 46.484375 
L 25.78125 42.328125 
Q 22.953125 46.1875 19.09375 52.828125 
Q 15.484375 45.953125 12.75 42.328125 
L 6.984375 46.484375 
Q 12.640625 53.46875 15.09375 55.71875 
Q 8.796875 56.9375 3.125 58.453125 
z
" id="ArialMT-42"/>
     </defs>
     <use xlink:href="#ArialMT-42"/>
     <use x="38.916016" xlink:href="#ArialMT-42"/>
     <use x="77.832031" xlink:href="#ArialMT-42"/>
    </g>
   </g>
   <g id="text_16">
    <!-- *** -->
    <g transform="translate(108.129637 8.790065)scale(0.08 -0.08)">
     <use xlink:href="#ArialMT-42"/>
     <use x="38.916016" xlink:href="#ArialMT-42"/>
     <use x="77.832031" xlink:href="#ArialMT-42"/>
    </g>
   </g>
   <g id="text_17">
    <!-- *** -->
    <g transform="translate(152.420363 8.790065)scale(0.08 -0.08)">
     <use xlink:href="#ArialMT-42"/>
     <use x="38.916016" xlink:href="#ArialMT-42"/>
     <use x="77.832031" xlink:href="#ArialMT-42"/>
    </g>
   </g>
   <g id="text_18">
    <!-- *** -->
    <g transform="translate(196.71109 8.790065)scale(0.08 -0.08)">
     <use xlink:href="#ArialMT-42"/>
     <use x="38.916016" xlink:href="#ArialMT-42"/>
     <use x="77.832031" xlink:href="#ArialMT-42"/>
    </g>
   </g>
  </g>
 </g>
 <defs>
  <clipPath id="pec6c750650">
   <rect height="163.39327" width="199.30827" x="35.29149" y="3.00024"/>
  </clipPath>
 </defs>
</svg>
