<?xml version="1.0" encoding="utf-8" standalone="no"?>
<!DOCTYPE svg PUBLIC "-//W3C//DTD SVG 1.1//EN"
  "http://www.w3.org/Graphics/SVG/1.1/DTD/svg11.dtd">
<!-- Created with matplotlib (https://matplotlib.org/) -->
<svg height="55.44pt" version="1.1" viewBox="0 0 132.48 55.44" width="132.48pt" xmlns="http://www.w3.org/2000/svg" xmlns:xlink="http://www.w3.org/1999/xlink">
 <metadata>
  <rdf:RDF xmlns:cc="http://creativecommons.org/ns#" xmlns:dc="http://purl.org/dc/elements/1.1/" xmlns:rdf="http://www.w3.org/1999/02/22-rdf-syntax-ns#">
   <cc:Work>
    <dc:type rdf:resource="http://purl.org/dc/dcmitype/StillImage"/>
    <dc:date>2021-11-11T09:58:54.073126</dc:date>
    <dc:format>image/svg+xml</dc:format>
    <dc:creator>
     <cc:Agent>
      <dc:title>Matplotlib v3.3.4, https://matplotlib.org/</dc:title>
     </cc:Agent>
    </dc:creator>
   </cc:Work>
  </rdf:RDF>
 </metadata>
 <defs>
  <style type="text/css">*{stroke-linecap:butt;stroke-linejoin:round;}</style>
 </defs>
 <g id="figure_1">
  <g id="patch_1">
   <path d="M 0 55.44 
L 132.48 55.44 
L 132.48 0 
L 0 0 
z
" style="fill:#ffffff;"/>
  </g>
  <g id="axes_1">
   <g id="patch_2">
    <path d="M 23.78399 38.12351 
L 129.47976 38.12351 
L 129.47976 3.00024 
L 23.78399 3.00024 
z
" style="fill:#ffffff;"/>
   </g>
   <g id="PolyCollection_1">
    <path clip-path="url(#pd877745643)" d="M 30.609869 23.379002 
L 28.702085 23.379002 
L 28.683701 23.345497 
L 28.668373 23.311992 
L 28.656108 23.278487 
L 28.646856 23.244982 
L 28.640502 23.211476 
L 28.636866 23.177971 
L 28.635708 23.144466 
L 28.636724 23.110961 
L 28.639556 23.077456 
L 28.643791 23.043951 
L 28.64897 23.010446 
L 28.654595 22.976941 
L 28.660134 22.943436 
L 28.665034 22.90993 
L 28.668726 22.876425 
L 28.670639 22.84292 
L 28.670205 22.809415 
L 28.666872 22.77591 
L 28.660113 22.742405 
L 28.649434 22.7089 
L 28.634384 22.675395 
L 28.614562 22.64189 
L 28.589621 22.608384 
L 28.559281 22.574879 
L 28.523323 22.541374 
L 28.481602 22.507869 
L 28.434043 22.474364 
L 28.380642 22.440859 
L 28.321468 22.407354 
L 28.256657 22.373849 
L 28.186412 22.340344 
L 28.110996 22.306838 
L 28.030728 22.273333 
L 27.945976 22.239828 
L 27.857148 22.206323 
L 27.764685 22.172818 
L 27.669054 22.139313 
L 27.570734 22.105808 
L 27.470214 22.072303 
L 27.367977 22.038798 
L 27.264495 22.005292 
L 27.160217 21.971787 
L 27.055563 21.938282 
L 26.950918 21.904777 
L 26.846618 21.871272 
L 26.742952 21.837767 
L 26.640152 21.804262 
L 26.538394 21.770757 
L 26.437791 21.737251 
L 26.338394 21.703746 
L 26.240197 21.670241 
L 26.143136 21.636736 
L 26.047095 21.603231 
L 25.951911 21.569726 
L 25.857386 21.536221 
L 25.763295 21.502716 
L 25.669397 21.469211 
L 25.57545 21.435705 
L 25.481223 21.4022 
L 25.386512 21.368695 
L 25.291157 21.33519 
L 25.195051 21.301685 
L 25.098164 21.26818 
L 25.000546 21.234675 
L 24.902348 21.20117 
L 24.803827 21.167665 
L 24.705352 21.134159 
L 24.607414 21.100654 
L 24.510621 21.067149 
L 24.4157 21.033644 
L 24.323487 21.000139 
L 24.234922 20.966634 
L 24.151029 20.933129 
L 24.072903 20.899624 
L 24.001692 20.866119 
L 23.938566 20.832613 
L 23.884703 20.799108 
L 23.841254 20.765603 
L 23.809319 20.732098 
L 23.789924 20.698593 
L 23.78399 20.665088 
L 23.792311 20.631583 
L 23.815533 20.598078 
L 23.854137 20.564573 
L 23.908419 20.531067 
L 23.978486 20.497562 
L 24.064246 20.464057 
L 24.165407 20.430552 
L 24.28148 20.397047 
L 24.411787 20.363542 
L 24.555472 20.330037 
L 24.711519 20.296532 
L 24.878767 20.263027 
L 25.055936 20.229521 
L 25.241647 20.196016 
L 25.43445 20.162511 
L 25.632848 20.129006 
L 25.835325 20.095501 
L 26.04037 20.061996 
L 33.271584 20.061996 
L 33.271584 20.061996 
L 33.476629 20.095501 
L 33.679106 20.129006 
L 33.877505 20.162511 
L 34.070308 20.196016 
L 34.256019 20.229521 
L 34.433188 20.263027 
L 34.600436 20.296532 
L 34.756483 20.330037 
L 34.900168 20.363542 
L 35.030474 20.397047 
L 35.146547 20.430552 
L 35.247708 20.464057 
L 35.333468 20.497562 
L 35.403535 20.531067 
L 35.457818 20.564573 
L 35.496421 20.598078 
L 35.519644 20.631583 
L 35.527964 20.665088 
L 35.52203 20.698593 
L 35.502635 20.732098 
L 35.470701 20.765603 
L 35.427251 20.799108 
L 35.373388 20.832613 
L 35.310263 20.866119 
L 35.239051 20.899624 
L 35.160926 20.933129 
L 35.077033 20.966634 
L 34.988467 21.000139 
L 34.896255 21.033644 
L 34.801334 21.067149 
L 34.704541 21.100654 
L 34.606603 21.134159 
L 34.508128 21.167665 
L 34.409606 21.20117 
L 34.311408 21.234675 
L 34.213791 21.26818 
L 34.116903 21.301685 
L 34.020798 21.33519 
L 33.925442 21.368695 
L 33.830731 21.4022 
L 33.736504 21.435705 
L 33.642557 21.469211 
L 33.54866 21.502716 
L 33.454568 21.536221 
L 33.360044 21.569726 
L 33.26486 21.603231 
L 33.168818 21.636736 
L 33.071757 21.670241 
L 32.97356 21.703746 
L 32.874164 21.737251 
L 32.77356 21.770757 
L 32.671802 21.804262 
L 32.569003 21.837767 
L 32.465337 21.871272 
L 32.361037 21.904777 
L 32.256391 21.938282 
L 32.151738 21.971787 
L 32.04746 22.005292 
L 31.943977 22.038798 
L 31.84174 22.072303 
L 31.74122 22.105808 
L 31.642901 22.139313 
L 31.547269 22.172818 
L 31.454806 22.206323 
L 31.365978 22.239828 
L 31.281226 22.273333 
L 31.200958 22.306838 
L 31.125543 22.340344 
L 31.055298 22.373849 
L 30.990487 22.407354 
L 30.931312 22.440859 
L 30.877911 22.474364 
L 30.830352 22.507869 
L 30.788631 22.541374 
L 30.752674 22.574879 
L 30.722333 22.608384 
L 30.697393 22.64189 
L 30.67757 22.675395 
L 30.66252 22.7089 
L 30.651842 22.742405 
L 30.645082 22.77591 
L 30.641749 22.809415 
L 30.641315 22.84292 
L 30.643228 22.876425 
L 30.646921 22.90993 
L 30.65182 22.943436 
L 30.65736 22.976941 
L 30.662984 23.010446 
L 30.668163 23.043951 
L 30.672398 23.077456 
L 30.67523 23.110961 
L 30.676247 23.144466 
L 30.675088 23.177971 
L 30.671453 23.211476 
L 30.665098 23.244982 
L 30.655846 23.278487 
L 30.643582 23.311992 
L 30.628253 23.345497 
L 30.609869 23.379002 
z
" style="fill:#1f77b4;fill-opacity:0.3;"/>
   </g>
   <g id="PolyCollection_2">
    <path clip-path="url(#pd877745643)" d="M 53.714474 21.703702 
L 52.573378 21.703702 
L 52.562674 21.690346 
L 52.553101 21.67699 
L 52.544506 21.663635 
L 52.536697 21.650279 
L 52.529457 21.636923 
L 52.522538 21.623567 
L 52.515675 21.610212 
L 52.508585 21.596856 
L 52.500977 21.5835 
L 52.492556 21.570144 
L 52.483028 21.556789 
L 52.472108 21.543433 
L 52.459519 21.530077 
L 52.445003 21.516722 
L 52.428318 21.503366 
L 52.409245 21.49001 
L 52.387588 21.476654 
L 52.363175 21.463299 
L 52.33586 21.449943 
L 52.305522 21.436587 
L 52.272068 21.423231 
L 52.235428 21.409876 
L 52.195558 21.39652 
L 52.152441 21.383164 
L 52.106084 21.369809 
L 52.056518 21.356453 
L 52.003803 21.343097 
L 51.948022 21.329741 
L 51.889286 21.316386 
L 51.827731 21.30303 
L 51.76352 21.289674 
L 51.69684 21.276319 
L 51.627902 21.262963 
L 51.556938 21.249607 
L 51.484198 21.236251 
L 51.409945 21.222896 
L 51.334448 21.20954 
L 51.257978 21.196184 
L 51.180799 21.182828 
L 51.103157 21.169473 
L 51.025274 21.156117 
L 50.947336 21.142761 
L 50.869486 21.129406 
L 50.791813 21.11605 
L 50.714347 21.102694 
L 50.637052 21.089338 
L 50.559818 21.075983 
L 50.482469 21.062627 
L 50.404753 21.049271 
L 50.326355 21.035915 
L 50.2469 21.02256 
L 50.165964 21.009204 
L 50.083087 20.995848 
L 49.997794 20.982493 
L 49.909605 20.969137 
L 49.818063 20.955781 
L 49.722752 20.942425 
L 49.623319 20.92907 
L 49.5195 20.915714 
L 49.411134 20.902358 
L 49.298186 20.889002 
L 49.180765 20.875647 
L 49.059132 20.862291 
L 48.933714 20.848935 
L 48.805105 20.83558 
L 48.674067 20.822224 
L 48.541524 20.808868 
L 48.408554 20.795512 
L 48.27637 20.782157 
L 48.146306 20.768801 
L 48.019788 20.755445 
L 47.898308 20.74209 
L 47.783399 20.728734 
L 47.676597 20.715378 
L 47.579414 20.702022 
L 47.493304 20.688667 
L 47.419631 20.675311 
L 47.359641 20.661955 
L 47.314437 20.648599 
L 47.284953 20.635244 
L 47.271939 20.621888 
L 47.275942 20.608532 
L 47.297302 20.595177 
L 47.336144 20.581821 
L 47.392376 20.568465 
L 47.465702 20.555109 
L 47.55562 20.541754 
L 47.661445 20.528398 
L 47.782321 20.515042 
L 47.917238 20.501686 
L 48.065056 20.488331 
L 48.224528 20.474975 
L 48.394321 20.461619 
L 48.57304 20.448264 
L 48.759251 20.434908 
L 48.951503 20.421552 
L 49.148348 20.408196 
L 49.348362 20.394841 
L 49.550158 20.381485 
L 56.737694 20.381485 
L 56.737694 20.381485 
L 56.939491 20.394841 
L 57.139504 20.408196 
L 57.336349 20.421552 
L 57.528601 20.434908 
L 57.714812 20.448264 
L 57.893531 20.461619 
L 58.063324 20.474975 
L 58.222796 20.488331 
L 58.370615 20.501686 
L 58.505531 20.515042 
L 58.626407 20.528398 
L 58.732232 20.541754 
L 58.822151 20.555109 
L 58.895476 20.568465 
L 58.951708 20.581821 
L 58.99055 20.595177 
L 59.01191 20.608532 
L 59.015913 20.621888 
L 59.002899 20.635244 
L 58.973415 20.648599 
L 58.928211 20.661955 
L 58.868221 20.675311 
L 58.794548 20.688667 
L 58.708438 20.702022 
L 58.611255 20.715378 
L 58.504454 20.728734 
L 58.389544 20.74209 
L 58.268065 20.755445 
L 58.141546 20.768801 
L 58.011482 20.782157 
L 57.879299 20.795512 
L 57.746328 20.808868 
L 57.613785 20.822224 
L 57.482747 20.83558 
L 57.354138 20.848935 
L 57.22872 20.862291 
L 57.107087 20.875647 
L 56.989666 20.889002 
L 56.876719 20.902358 
L 56.768352 20.915714 
L 56.664533 20.92907 
L 56.565101 20.942425 
L 56.46979 20.955781 
L 56.378247 20.969137 
L 56.290058 20.982493 
L 56.204765 20.995848 
L 56.121889 21.009204 
L 56.040952 21.02256 
L 55.961497 21.035915 
L 55.883099 21.049271 
L 55.805383 21.062627 
L 55.728034 21.075983 
L 55.650801 21.089338 
L 55.573505 21.102694 
L 55.496039 21.11605 
L 55.418367 21.129406 
L 55.340516 21.142761 
L 55.262578 21.156117 
L 55.184695 21.169473 
L 55.107053 21.182828 
L 55.029874 21.196184 
L 54.953404 21.20954 
L 54.877908 21.222896 
L 54.803654 21.236251 
L 54.730914 21.249607 
L 54.65995 21.262963 
L 54.591012 21.276319 
L 54.524332 21.289674 
L 54.460121 21.30303 
L 54.398566 21.316386 
L 54.33983 21.329741 
L 54.284049 21.343097 
L 54.231334 21.356453 
L 54.181769 21.369809 
L 54.135411 21.383164 
L 54.092294 21.39652 
L 54.052424 21.409876 
L 54.015784 21.423231 
L 53.98233 21.436587 
L 53.951993 21.449943 
L 53.924678 21.463299 
L 53.900264 21.476654 
L 53.878607 21.49001 
L 53.859534 21.503366 
L 53.842849 21.516722 
L 53.828333 21.530077 
L 53.815744 21.543433 
L 53.804824 21.556789 
L 53.795296 21.570144 
L 53.786876 21.5835 
L 53.779268 21.596856 
L 53.772178 21.610212 
L 53.765314 21.623567 
L 53.758395 21.636923 
L 53.751155 21.650279 
L 53.743347 21.663635 
L 53.734751 21.67699 
L 53.725179 21.690346 
L 53.714474 21.703702 
z
" style="fill:#1f77b4;fill-opacity:0.3;"/>
   </g>
   <g id="PolyCollection_3">
    <path clip-path="url(#pd877745643)" d="M 79.451685 20.836593 
L 73.812065 20.836593 
L 73.54118 20.817177 
L 73.2644 20.797762 
L 72.984786 20.778346 
L 72.705747 20.75893 
L 72.430985 20.739514 
L 72.164417 20.720098 
L 71.910092 20.700682 
L 71.672081 20.681266 
L 71.454377 20.66185 
L 71.260776 20.642434 
L 71.094766 20.623019 
L 70.959419 20.603603 
L 70.857293 20.584187 
L 70.79035 20.564771 
L 70.759888 20.545355 
L 70.766502 20.525939 
L 70.810061 20.506523 
L 70.889715 20.487107 
L 71.003923 20.467691 
L 71.150505 20.448276 
L 71.326715 20.42886 
L 71.52933 20.409444 
L 71.754749 20.390028 
L 71.999108 20.370612 
L 72.258387 20.351196 
L 72.528523 20.33178 
L 72.805516 20.312364 
L 73.085523 20.292948 
L 73.364943 20.273533 
L 73.640484 20.254117 
L 73.909217 20.234701 
L 74.16861 20.215285 
L 74.416549 20.195869 
L 74.651347 20.176453 
L 74.87173 20.157037 
L 75.076823 20.137621 
L 75.266117 20.118205 
L 75.439438 20.09879 
L 75.596903 20.079374 
L 75.738882 20.059958 
L 75.865947 20.040542 
L 75.978838 20.021126 
L 76.078416 20.00171 
L 76.165627 19.982294 
L 76.241471 19.962878 
L 76.306969 19.943462 
L 76.363139 19.924046 
L 76.410974 19.904631 
L 76.451429 19.885215 
L 76.485403 19.865799 
L 76.513736 19.846383 
L 76.537195 19.826967 
L 76.556481 19.807551 
L 76.572219 19.788135 
L 76.584965 19.768719 
L 76.595204 19.749303 
L 76.603358 19.729888 
L 76.609788 19.710472 
L 76.614798 19.691056 
L 76.618642 19.67164 
L 76.621526 19.652224 
L 76.623615 19.632808 
L 76.625038 19.613392 
L 76.625888 19.593976 
L 76.626231 19.57456 
L 76.626104 19.555145 
L 76.625521 19.535729 
L 76.624472 19.516313 
L 76.622931 19.496897 
L 76.620852 19.477481 
L 76.618174 19.458065 
L 76.614823 19.438649 
L 76.610714 19.419233 
L 76.605754 19.399817 
L 76.599847 19.380402 
L 76.592897 19.360986 
L 76.584812 19.34157 
L 76.575508 19.322154 
L 76.56492 19.302738 
L 76.553002 19.283322 
L 76.539736 19.263906 
L 76.525137 19.24449 
L 76.509258 19.225074 
L 76.492194 19.205659 
L 76.474088 19.186243 
L 76.455126 19.166827 
L 76.435542 19.147411 
L 76.415614 19.127995 
L 76.395657 19.108579 
L 76.376019 19.089163 
L 76.357067 19.069747 
L 76.339183 19.050331 
L 76.322745 19.030916 
L 76.308117 19.0115 
L 76.295634 18.992084 
L 76.285594 18.972668 
L 76.27824 18.953252 
L 76.273752 18.933836 
L 76.272244 18.91442 
L 76.991506 18.91442 
L 76.991506 18.91442 
L 76.989998 18.933836 
L 76.98551 18.953252 
L 76.978156 18.972668 
L 76.968116 18.992084 
L 76.955633 19.0115 
L 76.941005 19.030916 
L 76.924567 19.050331 
L 76.906683 19.069747 
L 76.887731 19.089163 
L 76.868093 19.108579 
L 76.848136 19.127995 
L 76.828208 19.147411 
L 76.808624 19.166827 
L 76.789662 19.186243 
L 76.771556 19.205659 
L 76.754492 19.225074 
L 76.738613 19.24449 
L 76.724014 19.263906 
L 76.710748 19.283322 
L 76.69883 19.302738 
L 76.688242 19.322154 
L 76.678938 19.34157 
L 76.670853 19.360986 
L 76.663903 19.380402 
L 76.657996 19.399817 
L 76.653036 19.419233 
L 76.648927 19.438649 
L 76.645576 19.458065 
L 76.642898 19.477481 
L 76.640819 19.496897 
L 76.639278 19.516313 
L 76.638229 19.535729 
L 76.637646 19.555145 
L 76.637519 19.57456 
L 76.637862 19.593976 
L 76.638712 19.613392 
L 76.640135 19.632808 
L 76.642224 19.652224 
L 76.645108 19.67164 
L 76.648952 19.691056 
L 76.653962 19.710472 
L 76.660392 19.729888 
L 76.668546 19.749303 
L 76.678785 19.768719 
L 76.691531 19.788135 
L 76.707269 19.807551 
L 76.726555 19.826967 
L 76.750014 19.846383 
L 76.778347 19.865799 
L 76.812321 19.885215 
L 76.852776 19.904631 
L 76.900611 19.924046 
L 76.956781 19.943462 
L 77.022279 19.962878 
L 77.098123 19.982294 
L 77.185334 20.00171 
L 77.284912 20.021126 
L 77.397803 20.040542 
L 77.524868 20.059958 
L 77.666847 20.079374 
L 77.824312 20.09879 
L 77.997633 20.118205 
L 78.186927 20.137621 
L 78.39202 20.157037 
L 78.612403 20.176453 
L 78.847201 20.195869 
L 79.09514 20.215285 
L 79.354533 20.234701 
L 79.623266 20.254117 
L 79.898807 20.273533 
L 80.178227 20.292948 
L 80.458234 20.312364 
L 80.735227 20.33178 
L 81.005363 20.351196 
L 81.264642 20.370612 
L 81.509001 20.390028 
L 81.73442 20.409444 
L 81.937035 20.42886 
L 82.113245 20.448276 
L 82.259827 20.467691 
L 82.374035 20.487107 
L 82.453689 20.506523 
L 82.497248 20.525939 
L 82.503862 20.545355 
L 82.4734 20.564771 
L 82.406457 20.584187 
L 82.304331 20.603603 
L 82.168984 20.623019 
L 82.002974 20.642434 
L 81.809373 20.66185 
L 81.591669 20.681266 
L 81.353658 20.700682 
L 81.099333 20.720098 
L 80.832765 20.739514 
L 80.558003 20.75893 
L 80.278964 20.778346 
L 79.99935 20.797762 
L 79.72257 20.817177 
L 79.451685 20.836593 
z
" style="fill:#1f77b4;fill-opacity:0.3;"/>
   </g>
   <g id="PolyCollection_4">
    <path clip-path="url(#pd877745643)" d="M 104.319867 20.749696 
L 95.91978 20.749696 
L 95.695506 20.726025 
L 95.479906 20.702353 
L 95.275274 20.678681 
L 95.08385 20.655009 
L 94.907781 20.631338 
L 94.749077 20.607666 
L 94.609573 20.583994 
L 94.490894 20.560322 
L 94.394421 20.536651 
L 94.321262 20.512979 
L 94.272233 20.489307 
L 94.247837 20.465635 
L 94.248256 20.441964 
L 94.27335 20.418292 
L 94.322657 20.39462 
L 94.395403 20.370948 
L 94.490521 20.347277 
L 94.606674 20.323605 
L 94.742278 20.299933 
L 94.89554 20.276261 
L 95.064491 20.25259 
L 95.247026 20.228918 
L 95.44094 20.205246 
L 95.643977 20.181574 
L 95.853865 20.157903 
L 96.068355 20.134231 
L 96.285263 20.110559 
L 96.502498 20.086887 
L 96.718098 20.063216 
L 96.930254 20.039544 
L 97.13733 20.015872 
L 97.337882 19.9922 
L 97.530666 19.968529 
L 97.714648 19.944857 
L 97.889003 19.921185 
L 98.053112 19.897513 
L 98.206555 19.873842 
L 98.349097 19.85017 
L 98.480678 19.826498 
L 98.601393 19.802826 
L 98.711472 19.779154 
L 98.811266 19.755483 
L 98.901221 19.731811 
L 98.98186 19.708139 
L 99.053767 19.684467 
L 99.117565 19.660796 
L 99.173899 19.637124 
L 99.223427 19.613452 
L 99.266803 19.58978 
L 99.304669 19.566109 
L 99.337644 19.542437 
L 99.366323 19.518765 
L 99.391266 19.495093 
L 99.413 19.471422 
L 99.432015 19.44775 
L 99.448764 19.424078 
L 99.463661 19.400406 
L 99.477084 19.376735 
L 99.489373 19.353063 
L 99.500831 19.329391 
L 99.511725 19.305719 
L 99.522286 19.282048 
L 99.532706 19.258376 
L 99.543144 19.234704 
L 99.55372 19.211032 
L 99.564517 19.187361 
L 99.575583 19.163689 
L 99.586928 19.140017 
L 99.59853 19.116345 
L 99.610332 19.092674 
L 99.622251 19.069002 
L 99.634174 19.04533 
L 99.645969 19.021658 
L 99.657486 18.997987 
L 99.668567 18.974315 
L 99.679049 18.950643 
L 99.68877 18.926971 
L 99.697579 18.9033 
L 99.705342 18.879628 
L 99.711946 18.855956 
L 99.717307 18.832284 
L 99.721371 18.808613 
L 99.724123 18.784941 
L 99.725586 18.761269 
L 99.725821 18.737597 
L 99.724929 18.713925 
L 99.723048 18.690254 
L 99.72035 18.666582 
L 99.717036 18.64291 
L 99.713331 18.619238 
L 99.709477 18.595567 
L 99.705727 18.571895 
L 99.702336 18.548223 
L 99.699553 18.524551 
L 99.697617 18.50088 
L 99.696745 18.477208 
L 99.697131 18.453536 
L 99.698934 18.429864 
L 99.70228 18.406193 
L 100.537367 18.406193 
L 100.537367 18.406193 
L 100.540714 18.429864 
L 100.542517 18.453536 
L 100.542902 18.477208 
L 100.542031 18.50088 
L 100.540095 18.524551 
L 100.537312 18.548223 
L 100.533921 18.571895 
L 100.53017 18.595567 
L 100.526317 18.619238 
L 100.522611 18.64291 
L 100.519297 18.666582 
L 100.516599 18.690254 
L 100.514718 18.713925 
L 100.513827 18.737597 
L 100.514062 18.761269 
L 100.515524 18.784941 
L 100.518277 18.808613 
L 100.522341 18.832284 
L 100.527701 18.855956 
L 100.534305 18.879628 
L 100.542068 18.9033 
L 100.550878 18.926971 
L 100.560599 18.950643 
L 100.57108 18.974315 
L 100.582162 18.997987 
L 100.593679 19.021658 
L 100.605474 19.04533 
L 100.617397 19.069002 
L 100.629315 19.092674 
L 100.641118 19.116345 
L 100.65272 19.140017 
L 100.664065 19.163689 
L 100.675131 19.187361 
L 100.685928 19.211032 
L 100.696504 19.234704 
L 100.706942 19.258376 
L 100.717362 19.282048 
L 100.727923 19.305719 
L 100.738817 19.329391 
L 100.750275 19.353063 
L 100.762563 19.376735 
L 100.775986 19.400406 
L 100.790884 19.424078 
L 100.807632 19.44775 
L 100.826648 19.471422 
L 100.848382 19.495093 
L 100.873325 19.518765 
L 100.902004 19.542437 
L 100.934979 19.566109 
L 100.972845 19.58978 
L 101.016221 19.613452 
L 101.065749 19.637124 
L 101.122083 19.660796 
L 101.18588 19.684467 
L 101.257787 19.708139 
L 101.338427 19.731811 
L 101.428382 19.755483 
L 101.528176 19.779154 
L 101.638255 19.802826 
L 101.75897 19.826498 
L 101.890551 19.85017 
L 102.033093 19.873842 
L 102.186535 19.897513 
L 102.350645 19.921185 
L 102.525 19.944857 
L 102.708982 19.968529 
L 102.901766 19.9922 
L 103.102317 20.015872 
L 103.309393 20.039544 
L 103.521549 20.063216 
L 103.73715 20.086887 
L 103.954385 20.110559 
L 104.171293 20.134231 
L 104.385783 20.157903 
L 104.59567 20.181574 
L 104.798708 20.205246 
L 104.992622 20.228918 
L 105.175156 20.25259 
L 105.344108 20.276261 
L 105.49737 20.299933 
L 105.632974 20.323605 
L 105.749127 20.347277 
L 105.844245 20.370948 
L 105.916991 20.39462 
L 105.966297 20.418292 
L 105.991391 20.441964 
L 105.991811 20.465635 
L 105.967415 20.489307 
L 105.918385 20.512979 
L 105.845227 20.536651 
L 105.748754 20.560322 
L 105.630075 20.583994 
L 105.490571 20.607666 
L 105.331867 20.631338 
L 105.155797 20.655009 
L 104.964374 20.678681 
L 104.759741 20.702353 
L 104.544141 20.726025 
L 104.319867 20.749696 
z
" style="fill:#1f77b4;fill-opacity:0.3;"/>
   </g>
   <g id="PolyCollection_5">
    <path clip-path="url(#pd877745643)" d="M 127.969373 20.941125 
L 119.246173 20.941125 
L 119.056838 20.90409 
L 118.876311 20.867054 
L 118.705943 20.830018 
L 118.546966 20.792982 
L 118.400472 20.755947 
L 118.26739 20.718911 
L 118.148475 20.681875 
L 118.044297 20.64484 
L 117.955232 20.607804 
L 117.881464 20.570768 
L 117.822985 20.533733 
L 117.779609 20.496697 
L 117.750978 20.459661 
L 117.736583 20.422625 
L 117.735786 20.38559 
L 117.747835 20.348554 
L 117.771898 20.311518 
L 117.807083 20.274483 
L 117.852463 20.237447 
L 117.907104 20.200411 
L 117.970089 20.163375 
L 118.040533 20.12634 
L 118.117608 20.089304 
L 118.200552 20.052268 
L 118.288684 20.015233 
L 118.381408 19.978197 
L 118.478217 19.941161 
L 118.578693 19.904125 
L 118.682499 19.86709 
L 118.789375 19.830054 
L 118.899128 19.793018 
L 119.011615 19.755983 
L 119.126737 19.718947 
L 119.244417 19.681911 
L 119.364591 19.644876 
L 119.487193 19.60784 
L 119.612141 19.570804 
L 119.739326 19.533768 
L 119.868604 19.496733 
L 119.999788 19.459697 
L 120.132642 19.422661 
L 120.266881 19.385626 
L 120.402167 19.34859 
L 120.538115 19.311554 
L 120.674295 19.274518 
L 120.810235 19.237483 
L 120.945432 19.200447 
L 121.079359 19.163411 
L 121.21147 19.126376 
L 121.341215 19.08934 
L 121.468045 19.052304 
L 121.591423 19.015268 
L 121.710833 18.978233 
L 121.825787 18.941197 
L 121.935834 18.904161 
L 122.040564 18.867126 
L 122.139617 18.83009 
L 122.232686 18.793054 
L 122.319519 18.756019 
L 122.399925 18.718983 
L 122.473773 18.681947 
L 122.540994 18.644911 
L 122.601578 18.607876 
L 122.655576 18.57084 
L 122.703098 18.533804 
L 122.744306 18.496769 
L 122.779416 18.459733 
L 122.80869 18.422697 
L 122.832434 18.385661 
L 122.850991 18.348626 
L 122.864737 18.31159 
L 122.874077 18.274554 
L 122.879436 18.237519 
L 122.881256 18.200483 
L 122.879989 18.163447 
L 122.876093 18.126412 
L 122.870024 18.089376 
L 122.862235 18.05234 
L 122.853166 18.015304 
L 122.843246 17.978269 
L 122.832883 17.941233 
L 122.822465 17.904197 
L 122.812356 17.867162 
L 122.802891 17.830126 
L 122.794378 17.79309 
L 122.787093 17.756054 
L 122.781283 17.719019 
L 122.77716 17.681983 
L 122.774904 17.644947 
L 122.774664 17.607912 
L 122.776555 17.570876 
L 122.78066 17.53384 
L 122.787032 17.496804 
L 122.795692 17.459769 
L 122.806632 17.422733 
L 122.819817 17.385697 
L 122.835186 17.348662 
L 122.852649 17.311626 
L 122.872097 17.27459 
L 124.343448 17.27459 
L 124.343448 17.27459 
L 124.362897 17.311626 
L 124.38036 17.348662 
L 124.395728 17.385697 
L 124.408914 17.422733 
L 124.419854 17.459769 
L 124.428514 17.496804 
L 124.434885 17.53384 
L 124.43899 17.570876 
L 124.440881 17.607912 
L 124.440641 17.644947 
L 124.438386 17.681983 
L 124.434263 17.719019 
L 124.428452 17.756054 
L 124.421168 17.79309 
L 124.412655 17.830126 
L 124.40319 17.867162 
L 124.39308 17.904197 
L 124.382662 17.941233 
L 124.3723 17.978269 
L 124.362379 18.015304 
L 124.353311 18.05234 
L 124.345521 18.089376 
L 124.339452 18.126412 
L 124.335556 18.163447 
L 124.334289 18.200483 
L 124.336109 18.237519 
L 124.341468 18.274554 
L 124.350808 18.31159 
L 124.364555 18.348626 
L 124.383112 18.385661 
L 124.406855 18.422697 
L 124.436129 18.459733 
L 124.471239 18.496769 
L 124.512448 18.533804 
L 124.559969 18.57084 
L 124.613968 18.607876 
L 124.674552 18.644911 
L 124.741772 18.681947 
L 124.81562 18.718983 
L 124.896027 18.756019 
L 124.98286 18.793054 
L 125.075929 18.83009 
L 125.174982 18.867126 
L 125.279712 18.904161 
L 125.389758 18.941197 
L 125.504712 18.978233 
L 125.624123 19.015268 
L 125.747501 19.052304 
L 125.874331 19.08934 
L 126.004076 19.126376 
L 126.136187 19.163411 
L 126.270113 19.200447 
L 126.405311 19.237483 
L 126.541251 19.274518 
L 126.67743 19.311554 
L 126.813379 19.34859 
L 126.948665 19.385626 
L 127.082904 19.422661 
L 127.215758 19.459697 
L 127.346941 19.496733 
L 127.476219 19.533768 
L 127.603404 19.570804 
L 127.728352 19.60784 
L 127.850954 19.644876 
L 127.971129 19.681911 
L 128.088809 19.718947 
L 128.203931 19.755983 
L 128.316418 19.793018 
L 128.42617 19.830054 
L 128.533047 19.86709 
L 128.636853 19.904125 
L 128.737328 19.941161 
L 128.834137 19.978197 
L 128.926862 20.015233 
L 129.014994 20.052268 
L 129.097938 20.089304 
L 129.175013 20.12634 
L 129.245457 20.163375 
L 129.308441 20.200411 
L 129.363083 20.237447 
L 129.408463 20.274483 
L 129.443647 20.311518 
L 129.467711 20.348554 
L 129.47976 20.38559 
L 129.478962 20.422625 
L 129.464568 20.459661 
L 129.435937 20.496697 
L 129.39256 20.533733 
L 129.334082 20.570768 
L 129.260314 20.607804 
L 129.171249 20.64484 
L 129.067071 20.681875 
L 128.948156 20.718911 
L 128.815074 20.755947 
L 128.668579 20.792982 
L 128.509603 20.830018 
L 128.339235 20.867054 
L 128.158707 20.90409 
L 127.969373 20.941125 
z
" style="fill:#1f77b4;fill-opacity:0.3;"/>
   </g>
   <g id="matplotlib.axis_1">
    <g id="xtick_1">
     <g id="line2d_1">
      <defs>
       <path d="M 0 0 
L 0 3.5 
" id="med086400a9" style="stroke:#000000;stroke-width:0.8;"/>
      </defs>
      <g>
       <use style="stroke:#000000;stroke-width:0.8;" x="29.655977" xlink:href="#med086400a9" y="38.12351"/>
      </g>
     </g>
     <g id="text_1">
      <!-- -.50 -->
      <g transform="translate(22.764102 50.84976)scale(0.08 -0.08)">
       <defs>
        <path d="M 3.171875 21.484375 
L 3.171875 30.328125 
L 30.171875 30.328125 
L 30.171875 21.484375 
z
" id="ArialMT-45"/>
        <path d="M 9.078125 0 
L 9.078125 10.015625 
L 19.09375 10.015625 
L 19.09375 0 
z
" id="ArialMT-46"/>
        <path d="M 4.15625 18.75 
L 13.375 19.53125 
Q 14.40625 12.796875 18.140625 9.390625 
Q 21.875 6 27.15625 6 
Q 33.5 6 37.890625 10.78125 
Q 42.28125 15.578125 42.28125 23.484375 
Q 42.28125 31 38.0625 35.34375 
Q 33.84375 39.703125 27 39.703125 
Q 22.75 39.703125 19.328125 37.765625 
Q 15.921875 35.84375 13.96875 32.765625 
L 5.71875 33.84375 
L 12.640625 70.609375 
L 48.25 70.609375 
L 48.25 62.203125 
L 19.671875 62.203125 
L 15.828125 42.96875 
Q 22.265625 47.46875 29.34375 47.46875 
Q 38.71875 47.46875 45.15625 40.96875 
Q 51.609375 34.46875 51.609375 24.265625 
Q 51.609375 14.546875 45.953125 7.46875 
Q 39.0625 -1.21875 27.15625 -1.21875 
Q 17.390625 -1.21875 11.203125 4.25 
Q 5.03125 9.71875 4.15625 18.75 
z
" id="ArialMT-53"/>
        <path d="M 4.15625 35.296875 
Q 4.15625 48 6.765625 55.734375 
Q 9.375 63.484375 14.515625 67.671875 
Q 19.671875 71.875 27.484375 71.875 
Q 33.25 71.875 37.59375 69.546875 
Q 41.9375 67.234375 44.765625 62.859375 
Q 47.609375 58.5 49.21875 52.21875 
Q 50.828125 45.953125 50.828125 35.296875 
Q 50.828125 22.703125 48.234375 14.96875 
Q 45.65625 7.234375 40.5 3 
Q 35.359375 -1.21875 27.484375 -1.21875 
Q 17.140625 -1.21875 11.234375 6.203125 
Q 4.15625 15.140625 4.15625 35.296875 
z
M 13.1875 35.296875 
Q 13.1875 17.671875 17.3125 11.828125 
Q 21.4375 6 27.484375 6 
Q 33.546875 6 37.671875 11.859375 
Q 41.796875 17.71875 41.796875 35.296875 
Q 41.796875 52.984375 37.671875 58.78125 
Q 33.546875 64.59375 27.390625 64.59375 
Q 21.34375 64.59375 17.71875 59.46875 
Q 13.1875 52.9375 13.1875 35.296875 
z
" id="ArialMT-48"/>
       </defs>
       <use xlink:href="#ArialMT-45"/>
       <use x="33.300781" xlink:href="#ArialMT-46"/>
       <use x="61.083984" xlink:href="#ArialMT-53"/>
       <use x="116.699219" xlink:href="#ArialMT-48"/>
      </g>
     </g>
    </g>
    <g id="xtick_2">
     <g id="line2d_2">
      <g>
       <use style="stroke:#000000;stroke-width:0.8;" x="53.143926" xlink:href="#med086400a9" y="38.12351"/>
      </g>
     </g>
     <g id="text_2">
      <!-- -.25 -->
      <g transform="translate(46.252051 50.84976)scale(0.08 -0.08)">
       <defs>
        <path d="M 50.34375 8.453125 
L 50.34375 0 
L 3.03125 0 
Q 2.9375 3.171875 4.046875 6.109375 
Q 5.859375 10.9375 9.828125 15.625 
Q 13.8125 20.3125 21.34375 26.46875 
Q 33.015625 36.03125 37.109375 41.625 
Q 41.21875 47.21875 41.21875 52.203125 
Q 41.21875 57.421875 37.46875 61 
Q 33.734375 64.59375 27.734375 64.59375 
Q 21.390625 64.59375 17.578125 60.78125 
Q 13.765625 56.984375 13.71875 50.25 
L 4.6875 51.171875 
Q 5.609375 61.28125 11.65625 66.578125 
Q 17.71875 71.875 27.9375 71.875 
Q 38.234375 71.875 44.234375 66.15625 
Q 50.25 60.453125 50.25 52 
Q 50.25 47.703125 48.484375 43.546875 
Q 46.734375 39.40625 42.65625 34.8125 
Q 38.578125 30.21875 29.109375 22.21875 
Q 21.1875 15.578125 18.9375 13.203125 
Q 16.703125 10.84375 15.234375 8.453125 
z
" id="ArialMT-50"/>
       </defs>
       <use xlink:href="#ArialMT-45"/>
       <use x="33.300781" xlink:href="#ArialMT-46"/>
       <use x="61.083984" xlink:href="#ArialMT-50"/>
       <use x="116.699219" xlink:href="#ArialMT-53"/>
      </g>
     </g>
    </g>
    <g id="xtick_3">
     <g id="line2d_3">
      <g>
       <use style="stroke:#000000;stroke-width:0.8;" x="76.631875" xlink:href="#med086400a9" y="38.12351"/>
      </g>
     </g>
     <g id="text_3">
      <!-- 0 -->
      <g transform="translate(74.4075 50.84976)scale(0.08 -0.08)">
       <use xlink:href="#ArialMT-48"/>
      </g>
     </g>
    </g>
    <g id="xtick_4">
     <g id="line2d_4">
      <g>
       <use style="stroke:#000000;stroke-width:0.8;" x="100.119824" xlink:href="#med086400a9" y="38.12351"/>
      </g>
     </g>
     <g id="text_4">
      <!-- .25 -->
      <g transform="translate(94.559824 50.84976)scale(0.08 -0.08)">
       <use xlink:href="#ArialMT-46"/>
       <use x="27.783203" xlink:href="#ArialMT-50"/>
       <use x="83.398438" xlink:href="#ArialMT-53"/>
      </g>
     </g>
    </g>
    <g id="xtick_5">
     <g id="line2d_5">
      <g>
       <use style="stroke:#000000;stroke-width:0.8;" x="123.607773" xlink:href="#med086400a9" y="38.12351"/>
      </g>
     </g>
     <g id="text_5">
      <!-- .50 -->
      <g transform="translate(118.047773 50.84976)scale(0.08 -0.08)">
       <use xlink:href="#ArialMT-46"/>
       <use x="27.783203" xlink:href="#ArialMT-53"/>
       <use x="83.398438" xlink:href="#ArialMT-48"/>
      </g>
     </g>
    </g>
   </g>
   <g id="matplotlib.axis_2">
    <g id="ytick_1">
     <g id="line2d_6">
      <defs>
       <path d="M 0 0 
L -3.5 0 
" id="m69c39cc0a8" style="stroke:#000000;stroke-width:0.8;"/>
      </defs>
      <g>
       <use style="stroke:#000000;stroke-width:0.8;" x="23.78399" xlink:href="#m69c39cc0a8" y="30.318339"/>
      </g>
     </g>
     <g id="text_6">
      <!-- -.01 -->
      <g transform="translate(3.00024 33.181464)scale(0.08 -0.08)">
       <defs>
        <path d="M 37.25 0 
L 28.46875 0 
L 28.46875 56 
Q 25.296875 52.984375 20.140625 49.953125 
Q 14.984375 46.921875 10.890625 45.40625 
L 10.890625 53.90625 
Q 18.265625 57.375 23.78125 62.296875 
Q 29.296875 67.234375 31.59375 71.875 
L 37.25 71.875 
z
" id="ArialMT-49"/>
       </defs>
       <use xlink:href="#ArialMT-45"/>
       <use x="33.300781" xlink:href="#ArialMT-46"/>
       <use x="61.083984" xlink:href="#ArialMT-48"/>
       <use x="116.699219" xlink:href="#ArialMT-49"/>
      </g>
     </g>
    </g>
    <g id="ytick_2">
     <g id="line2d_7">
      <g>
       <use style="stroke:#000000;stroke-width:0.8;" x="23.78399" xlink:href="#m69c39cc0a8" y="20.561875"/>
      </g>
     </g>
     <g id="text_7">
      <!-- 0 -->
      <g transform="translate(12.33524 23.425)scale(0.08 -0.08)">
       <use xlink:href="#ArialMT-48"/>
      </g>
     </g>
    </g>
    <g id="ytick_3">
     <g id="line2d_8">
      <g>
       <use style="stroke:#000000;stroke-width:0.8;" x="23.78399" xlink:href="#m69c39cc0a8" y="10.805411"/>
      </g>
     </g>
     <g id="text_8">
      <!-- .01 -->
      <g transform="translate(5.66399 13.668536)scale(0.08 -0.08)">
       <use xlink:href="#ArialMT-46"/>
       <use x="27.783203" xlink:href="#ArialMT-48"/>
       <use x="83.398438" xlink:href="#ArialMT-49"/>
      </g>
     </g>
    </g>
   </g>
   <g id="line2d_9">
    <path clip-path="url(#pd877745643)" d="M 29.655977 21.22516 
L 53.143926 20.616468 
L 76.631875 20.716771 
L 100.119824 20.245111 
L 123.607773 19.843344 
" style="fill:none;stroke:#000000;stroke-linecap:square;stroke-opacity:0.3;stroke-width:0.5;"/>
    <defs>
     <path d="M 0 0.5 
C 0.132602 0.5 0.25979 0.447317 0.353553 0.353553 
C 0.447317 0.25979 0.5 0.132602 0.5 0 
C 0.5 -0.132602 0.447317 -0.25979 0.353553 -0.353553 
C 0.25979 -0.447317 0.132602 -0.5 0 -0.5 
C -0.132602 -0.5 -0.25979 -0.447317 -0.353553 -0.353553 
C -0.447317 -0.25979 -0.5 -0.132602 -0.5 0 
C -0.5 0.132602 -0.447317 0.25979 -0.353553 0.353553 
C -0.25979 0.447317 -0.132602 0.5 0 0.5 
z
" id="m62eb11ec74" style="stroke:#000000;stroke-opacity:0.3;"/>
    </defs>
    <g clip-path="url(#pd877745643)">
     <use style="fill-opacity:0.3;stroke:#000000;stroke-opacity:0.3;" x="29.655977" xlink:href="#m62eb11ec74" y="21.22516"/>
     <use style="fill-opacity:0.3;stroke:#000000;stroke-opacity:0.3;" x="53.143926" xlink:href="#m62eb11ec74" y="20.616468"/>
     <use style="fill-opacity:0.3;stroke:#000000;stroke-opacity:0.3;" x="76.631875" xlink:href="#m62eb11ec74" y="20.716771"/>
     <use style="fill-opacity:0.3;stroke:#000000;stroke-opacity:0.3;" x="100.119824" xlink:href="#m62eb11ec74" y="20.245111"/>
     <use style="fill-opacity:0.3;stroke:#000000;stroke-opacity:0.3;" x="123.607773" xlink:href="#m62eb11ec74" y="19.843344"/>
    </g>
   </g>
   <g id="line2d_10">
    <path clip-path="url(#pd877745643)" d="M 29.655977 20.061996 
L 53.143926 20.387412 
L 76.631875 20.836593 
L 100.119824 20.497556 
L 123.607773 20.941125 
" style="fill:none;stroke:#000000;stroke-linecap:square;stroke-opacity:0.3;stroke-width:0.5;"/>
    <g clip-path="url(#pd877745643)">
     <use style="fill-opacity:0.3;stroke:#000000;stroke-opacity:0.3;" x="29.655977" xlink:href="#m62eb11ec74" y="20.061996"/>
     <use style="fill-opacity:0.3;stroke:#000000;stroke-opacity:0.3;" x="53.143926" xlink:href="#m62eb11ec74" y="20.387412"/>
     <use style="fill-opacity:0.3;stroke:#000000;stroke-opacity:0.3;" x="76.631875" xlink:href="#m62eb11ec74" y="20.836593"/>
     <use style="fill-opacity:0.3;stroke:#000000;stroke-opacity:0.3;" x="100.119824" xlink:href="#m62eb11ec74" y="20.497556"/>
     <use style="fill-opacity:0.3;stroke:#000000;stroke-opacity:0.3;" x="123.607773" xlink:href="#m62eb11ec74" y="20.941125"/>
    </g>
   </g>
   <g id="line2d_11">
    <path clip-path="url(#pd877745643)" d="M 29.655977 20.463498 
L 53.143926 20.539376 
L 76.631875 20.561396 
L 100.119824 20.643373 
L 123.607773 20.656819 
" style="fill:none;stroke:#000000;stroke-linecap:square;stroke-opacity:0.3;stroke-width:0.5;"/>
    <g clip-path="url(#pd877745643)">
     <use style="fill-opacity:0.3;stroke:#000000;stroke-opacity:0.3;" x="29.655977" xlink:href="#m62eb11ec74" y="20.463498"/>
     <use style="fill-opacity:0.3;stroke:#000000;stroke-opacity:0.3;" x="53.143926" xlink:href="#m62eb11ec74" y="20.539376"/>
     <use style="fill-opacity:0.3;stroke:#000000;stroke-opacity:0.3;" x="76.631875" xlink:href="#m62eb11ec74" y="20.561396"/>
     <use style="fill-opacity:0.3;stroke:#000000;stroke-opacity:0.3;" x="100.119824" xlink:href="#m62eb11ec74" y="20.643373"/>
     <use style="fill-opacity:0.3;stroke:#000000;stroke-opacity:0.3;" x="123.607773" xlink:href="#m62eb11ec74" y="20.656819"/>
    </g>
   </g>
   <g id="line2d_12">
    <path clip-path="url(#pd877745643)" d="M 29.655977 23.379002 
L 53.143926 20.618978 
L 76.631875 18.91442 
L 100.119824 18.406193 
L 123.607773 17.27459 
" style="fill:none;stroke:#000000;stroke-linecap:square;stroke-opacity:0.3;stroke-width:0.5;"/>
    <g clip-path="url(#pd877745643)">
     <use style="fill-opacity:0.3;stroke:#000000;stroke-opacity:0.3;" x="29.655977" xlink:href="#m62eb11ec74" y="23.379002"/>
     <use style="fill-opacity:0.3;stroke:#000000;stroke-opacity:0.3;" x="53.143926" xlink:href="#m62eb11ec74" y="20.618978"/>
     <use style="fill-opacity:0.3;stroke:#000000;stroke-opacity:0.3;" x="76.631875" xlink:href="#m62eb11ec74" y="18.91442"/>
     <use style="fill-opacity:0.3;stroke:#000000;stroke-opacity:0.3;" x="100.119824" xlink:href="#m62eb11ec74" y="18.406193"/>
     <use style="fill-opacity:0.3;stroke:#000000;stroke-opacity:0.3;" x="123.607773" xlink:href="#m62eb11ec74" y="17.27459"/>
    </g>
   </g>
   <g id="line2d_13">
    <path clip-path="url(#pd877745643)" d="M 29.655977 20.376901 
L 53.143926 20.442848 
L 76.631875 20.459231 
L 100.119824 20.557608 
L 123.607773 20.769869 
" style="fill:none;stroke:#000000;stroke-linecap:square;stroke-opacity:0.3;stroke-width:0.5;"/>
    <g clip-path="url(#pd877745643)">
     <use style="fill-opacity:0.3;stroke:#000000;stroke-opacity:0.3;" x="29.655977" xlink:href="#m62eb11ec74" y="20.376901"/>
     <use style="fill-opacity:0.3;stroke:#000000;stroke-opacity:0.3;" x="53.143926" xlink:href="#m62eb11ec74" y="20.442848"/>
     <use style="fill-opacity:0.3;stroke:#000000;stroke-opacity:0.3;" x="76.631875" xlink:href="#m62eb11ec74" y="20.459231"/>
     <use style="fill-opacity:0.3;stroke:#000000;stroke-opacity:0.3;" x="100.119824" xlink:href="#m62eb11ec74" y="20.557608"/>
     <use style="fill-opacity:0.3;stroke:#000000;stroke-opacity:0.3;" x="123.607773" xlink:href="#m62eb11ec74" y="20.769869"/>
    </g>
   </g>
   <g id="line2d_14">
    <path clip-path="url(#pd877745643)" d="M 29.655977 20.665166 
L 53.143926 20.628909 
L 76.631875 20.586138 
L 100.119824 20.537955 
L 123.607773 20.45858 
" style="fill:none;stroke:#000000;stroke-linecap:square;stroke-opacity:0.3;stroke-width:0.5;"/>
    <g clip-path="url(#pd877745643)">
     <use style="fill-opacity:0.3;stroke:#000000;stroke-opacity:0.3;" x="29.655977" xlink:href="#m62eb11ec74" y="20.665166"/>
     <use style="fill-opacity:0.3;stroke:#000000;stroke-opacity:0.3;" x="53.143926" xlink:href="#m62eb11ec74" y="20.628909"/>
     <use style="fill-opacity:0.3;stroke:#000000;stroke-opacity:0.3;" x="76.631875" xlink:href="#m62eb11ec74" y="20.586138"/>
     <use style="fill-opacity:0.3;stroke:#000000;stroke-opacity:0.3;" x="100.119824" xlink:href="#m62eb11ec74" y="20.537955"/>
     <use style="fill-opacity:0.3;stroke:#000000;stroke-opacity:0.3;" x="123.607773" xlink:href="#m62eb11ec74" y="20.45858"/>
    </g>
   </g>
   <g id="line2d_15">
    <path clip-path="url(#pd877745643)" d="M 29.655977 20.599742 
L 53.143926 20.57698 
L 76.631875 20.596074 
L 100.119824 20.561054 
L 123.607773 20.491559 
" style="fill:none;stroke:#000000;stroke-linecap:square;stroke-opacity:0.3;stroke-width:0.5;"/>
    <g clip-path="url(#pd877745643)">
     <use style="fill-opacity:0.3;stroke:#000000;stroke-opacity:0.3;" x="29.655977" xlink:href="#m62eb11ec74" y="20.599742"/>
     <use style="fill-opacity:0.3;stroke:#000000;stroke-opacity:0.3;" x="53.143926" xlink:href="#m62eb11ec74" y="20.57698"/>
     <use style="fill-opacity:0.3;stroke:#000000;stroke-opacity:0.3;" x="76.631875" xlink:href="#m62eb11ec74" y="20.596074"/>
     <use style="fill-opacity:0.3;stroke:#000000;stroke-opacity:0.3;" x="100.119824" xlink:href="#m62eb11ec74" y="20.561054"/>
     <use style="fill-opacity:0.3;stroke:#000000;stroke-opacity:0.3;" x="123.607773" xlink:href="#m62eb11ec74" y="20.491559"/>
    </g>
   </g>
   <g id="line2d_16">
    <path clip-path="url(#pd877745643)" d="M 29.655977 20.555928 
L 53.143926 20.555976 
L 76.631875 20.612467 
L 100.119824 20.473069 
L 123.607773 20.531525 
" style="fill:none;stroke:#000000;stroke-linecap:square;stroke-opacity:0.3;stroke-width:0.5;"/>
    <g clip-path="url(#pd877745643)">
     <use style="fill-opacity:0.3;stroke:#000000;stroke-opacity:0.3;" x="29.655977" xlink:href="#m62eb11ec74" y="20.555928"/>
     <use style="fill-opacity:0.3;stroke:#000000;stroke-opacity:0.3;" x="53.143926" xlink:href="#m62eb11ec74" y="20.555976"/>
     <use style="fill-opacity:0.3;stroke:#000000;stroke-opacity:0.3;" x="76.631875" xlink:href="#m62eb11ec74" y="20.612467"/>
     <use style="fill-opacity:0.3;stroke:#000000;stroke-opacity:0.3;" x="100.119824" xlink:href="#m62eb11ec74" y="20.473069"/>
     <use style="fill-opacity:0.3;stroke:#000000;stroke-opacity:0.3;" x="123.607773" xlink:href="#m62eb11ec74" y="20.531525"/>
    </g>
   </g>
   <g id="line2d_17">
    <path clip-path="url(#pd877745643)" d="M 29.655977 21.689525 
L 53.143926 21.081518 
L 76.631875 20.536318 
L 100.119824 20.22928 
L 123.607773 19.598702 
" style="fill:none;stroke:#000000;stroke-linecap:square;stroke-opacity:0.3;stroke-width:0.5;"/>
    <g clip-path="url(#pd877745643)">
     <use style="fill-opacity:0.3;stroke:#000000;stroke-opacity:0.3;" x="29.655977" xlink:href="#m62eb11ec74" y="21.689525"/>
     <use style="fill-opacity:0.3;stroke:#000000;stroke-opacity:0.3;" x="53.143926" xlink:href="#m62eb11ec74" y="21.081518"/>
     <use style="fill-opacity:0.3;stroke:#000000;stroke-opacity:0.3;" x="76.631875" xlink:href="#m62eb11ec74" y="20.536318"/>
     <use style="fill-opacity:0.3;stroke:#000000;stroke-opacity:0.3;" x="100.119824" xlink:href="#m62eb11ec74" y="20.22928"/>
     <use style="fill-opacity:0.3;stroke:#000000;stroke-opacity:0.3;" x="123.607773" xlink:href="#m62eb11ec74" y="19.598702"/>
    </g>
   </g>
   <g id="line2d_18">
    <path clip-path="url(#pd877745643)" d="M 29.655977 21.922841 
L 53.143926 21.105836 
L 76.631875 20.503142 
L 100.119824 20.264505 
L 123.607773 19.377599 
" style="fill:none;stroke:#000000;stroke-linecap:square;stroke-opacity:0.3;stroke-width:0.5;"/>
    <g clip-path="url(#pd877745643)">
     <use style="fill-opacity:0.3;stroke:#000000;stroke-opacity:0.3;" x="29.655977" xlink:href="#m62eb11ec74" y="21.922841"/>
     <use style="fill-opacity:0.3;stroke:#000000;stroke-opacity:0.3;" x="53.143926" xlink:href="#m62eb11ec74" y="21.105836"/>
     <use style="fill-opacity:0.3;stroke:#000000;stroke-opacity:0.3;" x="76.631875" xlink:href="#m62eb11ec74" y="20.503142"/>
     <use style="fill-opacity:0.3;stroke:#000000;stroke-opacity:0.3;" x="100.119824" xlink:href="#m62eb11ec74" y="20.264505"/>
     <use style="fill-opacity:0.3;stroke:#000000;stroke-opacity:0.3;" x="123.607773" xlink:href="#m62eb11ec74" y="19.377599"/>
    </g>
   </g>
   <g id="line2d_19">
    <path clip-path="url(#pd877745643)" d="M 29.655977 21.295389 
L 53.143926 20.991295 
L 76.631875 20.33189 
L 100.119824 20.349653 
L 123.607773 19.771559 
" style="fill:none;stroke:#000000;stroke-linecap:square;stroke-opacity:0.3;stroke-width:0.5;"/>
    <g clip-path="url(#pd877745643)">
     <use style="fill-opacity:0.3;stroke:#000000;stroke-opacity:0.3;" x="29.655977" xlink:href="#m62eb11ec74" y="21.295389"/>
     <use style="fill-opacity:0.3;stroke:#000000;stroke-opacity:0.3;" x="53.143926" xlink:href="#m62eb11ec74" y="20.991295"/>
     <use style="fill-opacity:0.3;stroke:#000000;stroke-opacity:0.3;" x="76.631875" xlink:href="#m62eb11ec74" y="20.33189"/>
     <use style="fill-opacity:0.3;stroke:#000000;stroke-opacity:0.3;" x="100.119824" xlink:href="#m62eb11ec74" y="20.349653"/>
     <use style="fill-opacity:0.3;stroke:#000000;stroke-opacity:0.3;" x="123.607773" xlink:href="#m62eb11ec74" y="19.771559"/>
    </g>
   </g>
   <g id="line2d_20">
    <path clip-path="url(#pd877745643)" d="M 29.655977 20.780271 
L 53.143926 20.687849 
L 76.631875 20.501398 
L 100.119824 20.436311 
L 123.607773 20.344818 
" style="fill:none;stroke:#000000;stroke-linecap:square;stroke-opacity:0.3;stroke-width:0.5;"/>
    <g clip-path="url(#pd877745643)">
     <use style="fill-opacity:0.3;stroke:#000000;stroke-opacity:0.3;" x="29.655977" xlink:href="#m62eb11ec74" y="20.780271"/>
     <use style="fill-opacity:0.3;stroke:#000000;stroke-opacity:0.3;" x="53.143926" xlink:href="#m62eb11ec74" y="20.687849"/>
     <use style="fill-opacity:0.3;stroke:#000000;stroke-opacity:0.3;" x="76.631875" xlink:href="#m62eb11ec74" y="20.501398"/>
     <use style="fill-opacity:0.3;stroke:#000000;stroke-opacity:0.3;" x="100.119824" xlink:href="#m62eb11ec74" y="20.436311"/>
     <use style="fill-opacity:0.3;stroke:#000000;stroke-opacity:0.3;" x="123.607773" xlink:href="#m62eb11ec74" y="20.344818"/>
    </g>
   </g>
   <g id="line2d_21">
    <path clip-path="url(#pd877745643)" d="M 29.655977 23.108065 
L 53.143926 21.703702 
L 76.631875 20.631189 
L 100.119824 19.153946 
L 123.607773 17.88244 
" style="fill:none;stroke:#000000;stroke-linecap:square;stroke-opacity:0.3;stroke-width:0.5;"/>
    <g clip-path="url(#pd877745643)">
     <use style="fill-opacity:0.3;stroke:#000000;stroke-opacity:0.3;" x="29.655977" xlink:href="#m62eb11ec74" y="23.108065"/>
     <use style="fill-opacity:0.3;stroke:#000000;stroke-opacity:0.3;" x="53.143926" xlink:href="#m62eb11ec74" y="21.703702"/>
     <use style="fill-opacity:0.3;stroke:#000000;stroke-opacity:0.3;" x="76.631875" xlink:href="#m62eb11ec74" y="20.631189"/>
     <use style="fill-opacity:0.3;stroke:#000000;stroke-opacity:0.3;" x="100.119824" xlink:href="#m62eb11ec74" y="19.153946"/>
     <use style="fill-opacity:0.3;stroke:#000000;stroke-opacity:0.3;" x="123.607773" xlink:href="#m62eb11ec74" y="17.88244"/>
    </g>
   </g>
   <g id="line2d_22">
    <path clip-path="url(#pd877745643)" d="M 29.655977 20.490224 
L 53.143926 20.798587 
L 76.631875 20.261345 
L 100.119824 20.749696 
L 123.607773 20.819071 
" style="fill:none;stroke:#000000;stroke-linecap:square;stroke-opacity:0.3;stroke-width:0.5;"/>
    <g clip-path="url(#pd877745643)">
     <use style="fill-opacity:0.3;stroke:#000000;stroke-opacity:0.3;" x="29.655977" xlink:href="#m62eb11ec74" y="20.490224"/>
     <use style="fill-opacity:0.3;stroke:#000000;stroke-opacity:0.3;" x="53.143926" xlink:href="#m62eb11ec74" y="20.798587"/>
     <use style="fill-opacity:0.3;stroke:#000000;stroke-opacity:0.3;" x="76.631875" xlink:href="#m62eb11ec74" y="20.261345"/>
     <use style="fill-opacity:0.3;stroke:#000000;stroke-opacity:0.3;" x="100.119824" xlink:href="#m62eb11ec74" y="20.749696"/>
     <use style="fill-opacity:0.3;stroke:#000000;stroke-opacity:0.3;" x="123.607773" xlink:href="#m62eb11ec74" y="20.819071"/>
    </g>
   </g>
   <g id="line2d_23">
    <path clip-path="url(#pd877745643)" d="M 29.655977 20.355843 
L 53.143926 20.381485 
L 76.631875 20.67742 
L 100.119824 20.718629 
L 123.607773 20.76829 
" style="fill:none;stroke:#000000;stroke-linecap:square;stroke-opacity:0.3;stroke-width:0.5;"/>
    <g clip-path="url(#pd877745643)">
     <use style="fill-opacity:0.3;stroke:#000000;stroke-opacity:0.3;" x="29.655977" xlink:href="#m62eb11ec74" y="20.355843"/>
     <use style="fill-opacity:0.3;stroke:#000000;stroke-opacity:0.3;" x="53.143926" xlink:href="#m62eb11ec74" y="20.381485"/>
     <use style="fill-opacity:0.3;stroke:#000000;stroke-opacity:0.3;" x="76.631875" xlink:href="#m62eb11ec74" y="20.67742"/>
     <use style="fill-opacity:0.3;stroke:#000000;stroke-opacity:0.3;" x="100.119824" xlink:href="#m62eb11ec74" y="20.718629"/>
     <use style="fill-opacity:0.3;stroke:#000000;stroke-opacity:0.3;" x="123.607773" xlink:href="#m62eb11ec74" y="20.76829"/>
    </g>
   </g>
   <g id="line2d_24">
    <path clip-path="url(#pd877745643)" d="M 29.655977 20.648788 
L 53.143926 20.630922 
L 76.631875 20.530924 
L 100.119824 20.54769 
L 123.607773 20.464512 
" style="fill:none;stroke:#000000;stroke-linecap:square;stroke-opacity:0.3;stroke-width:0.5;"/>
    <g clip-path="url(#pd877745643)">
     <use style="fill-opacity:0.3;stroke:#000000;stroke-opacity:0.3;" x="29.655977" xlink:href="#m62eb11ec74" y="20.648788"/>
     <use style="fill-opacity:0.3;stroke:#000000;stroke-opacity:0.3;" x="53.143926" xlink:href="#m62eb11ec74" y="20.630922"/>
     <use style="fill-opacity:0.3;stroke:#000000;stroke-opacity:0.3;" x="76.631875" xlink:href="#m62eb11ec74" y="20.530924"/>
     <use style="fill-opacity:0.3;stroke:#000000;stroke-opacity:0.3;" x="100.119824" xlink:href="#m62eb11ec74" y="20.54769"/>
     <use style="fill-opacity:0.3;stroke:#000000;stroke-opacity:0.3;" x="123.607773" xlink:href="#m62eb11ec74" y="20.464512"/>
    </g>
   </g>
   <g id="line2d_25">
    <path clip-path="url(#pd877745643)" d="M 29.655977 22.012516 
L 53.143926 21.340002 
L 76.631875 20.454236 
L 100.119824 19.644578 
L 123.607773 19.066641 
" style="fill:none;stroke:#000000;stroke-linecap:square;stroke-opacity:0.3;stroke-width:0.5;"/>
    <g clip-path="url(#pd877745643)">
     <use style="fill-opacity:0.3;stroke:#000000;stroke-opacity:0.3;" x="29.655977" xlink:href="#m62eb11ec74" y="22.012516"/>
     <use style="fill-opacity:0.3;stroke:#000000;stroke-opacity:0.3;" x="53.143926" xlink:href="#m62eb11ec74" y="21.340002"/>
     <use style="fill-opacity:0.3;stroke:#000000;stroke-opacity:0.3;" x="76.631875" xlink:href="#m62eb11ec74" y="20.454236"/>
     <use style="fill-opacity:0.3;stroke:#000000;stroke-opacity:0.3;" x="100.119824" xlink:href="#m62eb11ec74" y="19.644578"/>
     <use style="fill-opacity:0.3;stroke:#000000;stroke-opacity:0.3;" x="123.607773" xlink:href="#m62eb11ec74" y="19.066641"/>
    </g>
   </g>
   <g id="line2d_26">
    <path clip-path="url(#pd877745643)" d="M 29.655977 21.399801 
L 53.143926 20.785898 
L 76.631875 20.429682 
L 100.119824 20.385686 
L 123.607773 19.719297 
" style="fill:none;stroke:#000000;stroke-linecap:square;stroke-opacity:0.3;stroke-width:0.5;"/>
    <g clip-path="url(#pd877745643)">
     <use style="fill-opacity:0.3;stroke:#000000;stroke-opacity:0.3;" x="29.655977" xlink:href="#m62eb11ec74" y="21.399801"/>
     <use style="fill-opacity:0.3;stroke:#000000;stroke-opacity:0.3;" x="53.143926" xlink:href="#m62eb11ec74" y="20.785898"/>
     <use style="fill-opacity:0.3;stroke:#000000;stroke-opacity:0.3;" x="76.631875" xlink:href="#m62eb11ec74" y="20.429682"/>
     <use style="fill-opacity:0.3;stroke:#000000;stroke-opacity:0.3;" x="100.119824" xlink:href="#m62eb11ec74" y="20.385686"/>
     <use style="fill-opacity:0.3;stroke:#000000;stroke-opacity:0.3;" x="123.607773" xlink:href="#m62eb11ec74" y="19.719297"/>
    </g>
   </g>
   <g id="line2d_27">
    <path clip-path="url(#pd877745643)" d="M 29.655977 20.64956 
L 53.143926 20.670549 
L 76.631875 20.56812 
L 100.119824 20.390794 
L 123.607773 20.394299 
" style="fill:none;stroke:#000000;stroke-linecap:square;stroke-opacity:0.3;stroke-width:0.5;"/>
    <g clip-path="url(#pd877745643)">
     <use style="fill-opacity:0.3;stroke:#000000;stroke-opacity:0.3;" x="29.655977" xlink:href="#m62eb11ec74" y="20.64956"/>
     <use style="fill-opacity:0.3;stroke:#000000;stroke-opacity:0.3;" x="53.143926" xlink:href="#m62eb11ec74" y="20.670549"/>
     <use style="fill-opacity:0.3;stroke:#000000;stroke-opacity:0.3;" x="76.631875" xlink:href="#m62eb11ec74" y="20.56812"/>
     <use style="fill-opacity:0.3;stroke:#000000;stroke-opacity:0.3;" x="100.119824" xlink:href="#m62eb11ec74" y="20.390794"/>
     <use style="fill-opacity:0.3;stroke:#000000;stroke-opacity:0.3;" x="123.607773" xlink:href="#m62eb11ec74" y="20.394299"/>
    </g>
   </g>
   <g id="line2d_28">
    <path clip-path="url(#pd877745643)" d="M 29.655977 21.469082 
L 53.143926 20.989871 
L 76.631875 20.459296 
L 100.119824 20.123676 
L 123.607773 19.681704 
" style="fill:none;stroke:#000000;stroke-linecap:square;stroke-opacity:0.3;stroke-width:0.5;"/>
    <g clip-path="url(#pd877745643)">
     <use style="fill-opacity:0.3;stroke:#000000;stroke-opacity:0.3;" x="29.655977" xlink:href="#m62eb11ec74" y="21.469082"/>
     <use style="fill-opacity:0.3;stroke:#000000;stroke-opacity:0.3;" x="53.143926" xlink:href="#m62eb11ec74" y="20.989871"/>
     <use style="fill-opacity:0.3;stroke:#000000;stroke-opacity:0.3;" x="76.631875" xlink:href="#m62eb11ec74" y="20.459296"/>
     <use style="fill-opacity:0.3;stroke:#000000;stroke-opacity:0.3;" x="100.119824" xlink:href="#m62eb11ec74" y="20.123676"/>
     <use style="fill-opacity:0.3;stroke:#000000;stroke-opacity:0.3;" x="123.607773" xlink:href="#m62eb11ec74" y="19.681704"/>
    </g>
   </g>
   <g id="line2d_29">
    <path clip-path="url(#pd877745643)" d="M 76.631875 38.12351 
L 76.631875 3.00024 
" style="fill:none;stroke:#000000;stroke-dasharray:1.85,0.8;stroke-dashoffset:0;stroke-opacity:0.5;stroke-width:0.5;"/>
   </g>
   <g id="line2d_30">
    <path clip-path="url(#pd877745643)" d="M 23.78399 20.561875 
L 129.47976 20.561875 
" style="fill:none;stroke:#000000;stroke-dasharray:1.85,0.8;stroke-dashoffset:0;stroke-opacity:0.5;stroke-width:0.5;"/>
   </g>
   <g id="line2d_31">
    <path clip-path="url(#pd877745643)" d="M 30.243176 17.110226 
L 30.243176 17.04448 
L 52.556727 17.04448 
L 52.556727 17.110226 
" style="fill:none;stroke:#000000;stroke-linecap:square;stroke-width:0.5;"/>
   </g>
   <g id="line2d_32">
    <path clip-path="url(#pd877745643)" d="M 53.731125 17.110226 
L 53.731125 17.04448 
L 76.044676 17.04448 
L 76.044676 17.110226 
" style="fill:none;stroke:#000000;stroke-linecap:square;stroke-width:0.5;"/>
   </g>
   <g id="line2d_33">
    <path clip-path="url(#pd877745643)" d="M 77.219074 17.110226 
L 77.219074 17.04448 
L 99.532625 17.04448 
L 99.532625 17.110226 
" style="fill:none;stroke:#000000;stroke-linecap:square;stroke-width:0.5;"/>
   </g>
   <g id="line2d_34">
    <path clip-path="url(#pd877745643)" d="M 100.707023 17.110226 
L 100.707023 17.04448 
L 123.020574 17.04448 
L 123.020574 17.110226 
" style="fill:none;stroke:#000000;stroke-linecap:square;stroke-width:0.5;"/>
   </g>
   <g id="patch_3">
    <path d="M 23.78399 38.12351 
L 23.78399 3.00024 
" style="fill:none;stroke:#000000;stroke-linecap:square;stroke-linejoin:miter;stroke-width:0.8;"/>
   </g>
   <g id="patch_4">
    <path d="M 23.78399 38.12351 
L 129.47976 38.12351 
" style="fill:none;stroke:#000000;stroke-linecap:square;stroke-linejoin:miter;stroke-width:0.8;"/>
   </g>
   <g id="text_9">
    <!-- ns -->
    <g transform="translate(37.175577 15.45448)scale(0.08 -0.08)">
     <defs>
      <path d="M 6.59375 0 
L 6.59375 51.859375 
L 14.5 51.859375 
L 14.5 44.484375 
Q 20.21875 53.03125 31 53.03125 
Q 35.6875 53.03125 39.625 51.34375 
Q 43.5625 49.65625 45.515625 46.921875 
Q 47.46875 44.1875 48.25 40.4375 
Q 48.734375 37.984375 48.734375 31.890625 
L 48.734375 0 
L 39.9375 0 
L 39.9375 31.546875 
Q 39.9375 36.921875 38.90625 39.578125 
Q 37.890625 42.234375 35.28125 43.8125 
Q 32.671875 45.40625 29.15625 45.40625 
Q 23.53125 45.40625 19.453125 41.84375 
Q 15.375 38.28125 15.375 28.328125 
L 15.375 0 
z
" id="ArialMT-110"/>
      <path d="M 3.078125 15.484375 
L 11.765625 16.84375 
Q 12.5 11.625 15.84375 8.84375 
Q 19.1875 6.0625 25.203125 6.0625 
Q 31.25 6.0625 34.171875 8.515625 
Q 37.109375 10.984375 37.109375 14.3125 
Q 37.109375 17.28125 34.515625 19 
Q 32.71875 20.171875 25.53125 21.96875 
Q 15.875 24.421875 12.140625 26.203125 
Q 8.40625 27.984375 6.46875 31.125 
Q 4.546875 34.28125 4.546875 38.09375 
Q 4.546875 41.546875 6.125 44.5 
Q 7.71875 47.46875 10.453125 49.421875 
Q 12.5 50.921875 16.03125 51.96875 
Q 19.578125 53.03125 23.640625 53.03125 
Q 29.734375 53.03125 34.34375 51.265625 
Q 38.96875 49.515625 41.15625 46.5 
Q 43.359375 43.5 44.1875 38.484375 
L 35.59375 37.3125 
Q 35.015625 41.3125 32.203125 43.546875 
Q 29.390625 45.796875 24.265625 45.796875 
Q 18.21875 45.796875 15.625 43.796875 
Q 13.03125 41.796875 13.03125 39.109375 
Q 13.03125 37.40625 14.109375 36.03125 
Q 15.1875 34.625 17.484375 33.6875 
Q 18.796875 33.203125 25.25 31.453125 
Q 34.578125 28.953125 38.25 27.359375 
Q 41.9375 25.78125 44.03125 22.75 
Q 46.140625 19.734375 46.140625 15.234375 
Q 46.140625 10.84375 43.578125 6.953125 
Q 41.015625 3.078125 36.171875 0.953125 
Q 31.34375 -1.171875 25.25 -1.171875 
Q 15.140625 -1.171875 9.84375 3.03125 
Q 4.546875 7.234375 3.078125 15.484375 
z
" id="ArialMT-115"/>
     </defs>
     <use xlink:href="#ArialMT-110"/>
     <use x="55.615234" xlink:href="#ArialMT-115"/>
    </g>
   </g>
   <g id="text_10">
    <!-- ns -->
    <g transform="translate(60.663526 15.45448)scale(0.08 -0.08)">
     <use xlink:href="#ArialMT-110"/>
     <use x="55.615234" xlink:href="#ArialMT-115"/>
    </g>
   </g>
   <g id="text_11">
    <!-- ns -->
    <g transform="translate(84.151474 15.45448)scale(0.08 -0.08)">
     <use xlink:href="#ArialMT-110"/>
     <use x="55.615234" xlink:href="#ArialMT-115"/>
    </g>
   </g>
   <g id="text_12">
    <!-- ns -->
    <g transform="translate(107.639423 15.45448)scale(0.08 -0.08)">
     <use xlink:href="#ArialMT-110"/>
     <use x="55.615234" xlink:href="#ArialMT-115"/>
    </g>
   </g>
  </g>
 </g>
 <defs>
  <clipPath id="pd877745643">
   <rect height="35.12327" width="105.69577" x="23.78399" y="3.00024"/>
  </clipPath>
 </defs>
</svg>
