<?xml version="1.0" encoding="utf-8" standalone="no"?>
<!DOCTYPE svg PUBLIC "-//W3C//DTD SVG 1.1//EN"
  "http://www.w3.org/Graphics/SVG/1.1/DTD/svg11.dtd">
<!-- Created with matplotlib (https://matplotlib.org/) -->
<svg height="55.44pt" version="1.1" viewBox="0 0 132.48 55.44" width="132.48pt" xmlns="http://www.w3.org/2000/svg" xmlns:xlink="http://www.w3.org/1999/xlink">
 <metadata>
  <rdf:RDF xmlns:cc="http://creativecommons.org/ns#" xmlns:dc="http://purl.org/dc/elements/1.1/" xmlns:rdf="http://www.w3.org/1999/02/22-rdf-syntax-ns#">
   <cc:Work>
    <dc:type rdf:resource="http://purl.org/dc/dcmitype/StillImage"/>
    <dc:date>2021-11-11T09:58:56.727022</dc:date>
    <dc:format>image/svg+xml</dc:format>
    <dc:creator>
     <cc:Agent>
      <dc:title>Matplotlib v3.3.4, https://matplotlib.org/</dc:title>
     </cc:Agent>
    </dc:creator>
   </cc:Work>
  </rdf:RDF>
 </metadata>
 <defs>
  <style type="text/css">*{stroke-linecap:butt;stroke-linejoin:round;}</style>
 </defs>
 <g id="figure_1">
  <g id="patch_1">
   <path d="M 0 55.44 
L 132.48 55.44 
L 132.48 0 
L 0 0 
z
" style="fill:#ffffff;"/>
  </g>
  <g id="axes_1">
   <g id="patch_2">
    <path d="M 23.78399 38.12351 
L 129.47976 38.12351 
L 129.47976 10.183627 
L 23.78399 10.183627 
z
" style="fill:#ffffff;"/>
   </g>
   <g id="PolyCollection_1">
    <path clip-path="url(#p0d674b4cbc)" d="M 30.914657 37.97555 
L 28.397298 37.97555 
L 28.332689 37.798377 
L 28.267213 37.621203 
L 28.201069 37.444029 
L 28.134476 37.266856 
L 28.067674 37.089682 
L 28.000924 36.912509 
L 27.934502 36.735335 
L 27.868702 36.558162 
L 27.803826 36.380988 
L 27.740191 36.203814 
L 27.678112 36.026641 
L 27.617907 35.849467 
L 27.559886 35.672294 
L 27.504347 35.49512 
L 27.45157 35.317947 
L 27.401807 35.140773 
L 27.355281 34.9636 
L 27.312175 34.786426 
L 27.272628 34.609252 
L 27.236729 34.432079 
L 27.204514 34.254905 
L 27.175959 34.077732 
L 27.15098 33.900558 
L 27.129429 33.723385 
L 27.111096 33.546211 
L 27.095708 33.369037 
L 27.082931 33.191864 
L 27.072377 33.01469 
L 27.063603 32.837517 
L 27.056121 32.660343 
L 27.049406 32.48317 
L 27.042898 32.305996 
L 27.036017 32.128823 
L 27.028169 31.951649 
L 27.018754 31.774475 
L 27.00718 31.597302 
L 26.992868 31.420128 
L 26.975262 31.242955 
L 26.95384 31.065781 
L 26.92812 30.888608 
L 26.897668 30.711434 
L 26.862102 30.53426 
L 26.821102 30.357087 
L 26.77441 30.179913 
L 26.721835 30.00274 
L 26.663257 29.825566 
L 26.598623 29.648393 
L 26.527955 29.471219 
L 26.451342 29.294046 
L 26.368941 29.116872 
L 26.28098 28.939698 
L 26.187746 28.762525 
L 26.089589 28.585351 
L 25.986916 28.408178 
L 25.880187 28.231004 
L 25.76991 28.053831 
L 25.656639 27.876657 
L 25.540967 27.699483 
L 25.423522 27.52231 
L 25.304965 27.345136 
L 25.18598 27.167963 
L 25.067277 26.990789 
L 24.949578 26.813616 
L 24.833621 26.636442 
L 24.720149 26.459268 
L 24.609909 26.282095 
L 24.503645 26.104921 
L 24.402094 25.927748 
L 24.305979 25.750574 
L 24.216008 25.573401 
L 24.132865 25.396227 
L 24.057205 25.219054 
L 23.989652 25.04188 
L 23.930789 24.864706 
L 23.881159 24.687533 
L 23.841253 24.510359 
L 23.811512 24.333186 
L 23.792317 24.156012 
L 23.78399 23.978839 
L 23.786785 23.801665 
L 23.80089 23.624491 
L 23.826419 23.447318 
L 23.863415 23.270144 
L 23.911845 23.092971 
L 23.971601 22.915797 
L 24.042498 22.738624 
L 24.124278 22.56145 
L 24.216607 22.384277 
L 24.319083 22.207103 
L 24.431233 22.029929 
L 24.55252 21.852756 
L 24.682349 21.675582 
L 24.820068 21.498409 
L 24.964978 21.321235 
L 25.116335 21.144062 
L 25.273363 20.966888 
L 25.435254 20.789714 
L 25.601182 20.612541 
L 25.770308 20.435367 
L 33.541646 20.435367 
L 33.541646 20.435367 
L 33.710772 20.612541 
L 33.8767 20.789714 
L 34.038592 20.966888 
L 34.195619 21.144062 
L 34.346977 21.321235 
L 34.491886 21.498409 
L 34.629605 21.675582 
L 34.759434 21.852756 
L 34.880721 22.029929 
L 34.992871 22.207103 
L 35.095347 22.384277 
L 35.187677 22.56145 
L 35.269456 22.738624 
L 35.340353 22.915797 
L 35.400109 23.092971 
L 35.448539 23.270144 
L 35.485535 23.447318 
L 35.511065 23.624491 
L 35.525169 23.801665 
L 35.527964 23.978839 
L 35.519637 24.156012 
L 35.500443 24.333186 
L 35.470701 24.510359 
L 35.430796 24.687533 
L 35.381165 24.864706 
L 35.322302 25.04188 
L 35.254749 25.219054 
L 35.179089 25.396227 
L 35.095946 25.573401 
L 35.005975 25.750574 
L 34.909861 25.927748 
L 34.808309 26.104921 
L 34.702045 26.282095 
L 34.591805 26.459268 
L 34.478334 26.636442 
L 34.362377 26.813616 
L 34.244678 26.990789 
L 34.125974 27.167963 
L 34.00699 27.345136 
L 33.888432 27.52231 
L 33.770987 27.699483 
L 33.655315 27.876657 
L 33.542044 28.053831 
L 33.431767 28.231004 
L 33.325038 28.408178 
L 33.222365 28.585351 
L 33.124209 28.762525 
L 33.030975 28.939698 
L 32.943013 29.116872 
L 32.860613 29.294046 
L 32.783999 29.471219 
L 32.713331 29.648393 
L 32.648698 29.825566 
L 32.590119 30.00274 
L 32.537545 30.179913 
L 32.490853 30.357087 
L 32.449853 30.53426 
L 32.414287 30.711434 
L 32.383834 30.888608 
L 32.358114 31.065781 
L 32.336693 31.242955 
L 32.319087 31.420128 
L 32.304774 31.597302 
L 32.2932 31.774475 
L 32.283786 31.951649 
L 32.275937 32.128823 
L 32.269057 32.305996 
L 32.262549 32.48317 
L 32.255833 32.660343 
L 32.248352 32.837517 
L 32.239578 33.01469 
L 32.229023 33.191864 
L 32.216247 33.369037 
L 32.200859 33.546211 
L 32.182525 33.723385 
L 32.160974 33.900558 
L 32.135995 34.077732 
L 32.10744 34.254905 
L 32.075225 34.432079 
L 32.039326 34.609252 
L 31.999779 34.786426 
L 31.956673 34.9636 
L 31.910147 35.140773 
L 31.860384 35.317947 
L 31.807607 35.49512 
L 31.752068 35.672294 
L 31.694048 35.849467 
L 31.633843 36.026641 
L 31.571764 36.203814 
L 31.508128 36.380988 
L 31.443253 36.558162 
L 31.377452 36.735335 
L 31.31103 36.912509 
L 31.24428 37.089682 
L 31.177479 37.266856 
L 31.110886 37.444029 
L 31.044741 37.621203 
L 30.979265 37.798377 
L 30.914657 37.97555 
z
" style="fill:#1f77b4;fill-opacity:0.3;"/>
   </g>
   <g id="PolyCollection_2">
    <path clip-path="url(#p0d674b4cbc)" d="M 54.338236 30.427926 
L 51.949617 30.427926 
L 51.884009 30.33955 
L 51.816867 30.251173 
L 51.748353 30.162797 
L 51.678657 30.074421 
L 51.608004 29.986045 
L 51.536652 29.897668 
L 51.464892 29.809292 
L 51.393045 29.720916 
L 51.321463 29.63254 
L 51.25052 29.544164 
L 51.180611 29.455787 
L 51.112145 29.367411 
L 51.045535 29.279035 
L 50.981193 29.190659 
L 50.919519 29.102282 
L 50.86089 29.013906 
L 50.805656 28.92553 
L 50.754122 28.837154 
L 50.706545 28.748778 
L 50.663119 28.660401 
L 50.623974 28.572025 
L 50.589162 28.483649 
L 50.558657 28.395273 
L 50.532348 28.306896 
L 50.510036 28.21852 
L 50.491439 28.130144 
L 50.476191 28.041768 
L 50.463843 27.953392 
L 50.453876 27.865015 
L 50.445704 27.776639 
L 50.438684 27.688263 
L 50.43213 27.599887 
L 50.425321 27.51151 
L 50.41752 27.423134 
L 50.407981 27.334758 
L 50.395967 27.246382 
L 50.380765 27.158006 
L 50.361693 27.069629 
L 50.33812 26.981253 
L 50.309474 26.892877 
L 50.275248 26.804501 
L 50.235018 26.716124 
L 50.188441 26.627748 
L 50.135267 26.539372 
L 50.075337 26.450996 
L 50.008589 26.36262 
L 49.93506 26.274243 
L 49.854876 26.185867 
L 49.768261 26.097491 
L 49.675524 26.009115 
L 49.577059 25.920738 
L 49.473336 25.832362 
L 49.364897 25.743986 
L 49.252348 25.65561 
L 49.136349 25.567234 
L 49.017611 25.478857 
L 48.896883 25.390481 
L 48.774948 25.302105 
L 48.652614 25.213729 
L 48.530704 25.125352 
L 48.410053 25.036976 
L 48.291499 24.9486 
L 48.175874 24.860224 
L 48.064001 24.771848 
L 47.956686 24.683471 
L 47.854712 24.595095 
L 47.758836 24.506719 
L 47.669779 24.418343 
L 47.588226 24.329966 
L 47.514818 24.24159 
L 47.450148 24.153214 
L 47.394759 24.064838 
L 47.349137 23.976462 
L 47.31371 23.888085 
L 47.288845 23.799709 
L 47.274843 23.711333 
L 47.271939 23.622957 
L 47.280298 23.53458 
L 47.300016 23.446204 
L 47.331118 23.357828 
L 47.373558 23.269452 
L 47.427219 23.181076 
L 47.491913 23.092699 
L 47.567384 23.004323 
L 47.653311 22.915947 
L 47.749307 22.827571 
L 47.854923 22.739194 
L 47.969656 22.650818 
L 48.092947 22.562442 
L 48.22419 22.474066 
L 48.362734 22.38569 
L 48.507892 22.297313 
L 48.658943 22.208937 
L 48.81514 22.120561 
L 48.975716 22.032185 
L 49.13989 21.943808 
L 49.306875 21.855432 
L 49.475882 21.767056 
L 49.646128 21.67868 
L 56.641725 21.67868 
L 56.641725 21.67868 
L 56.811971 21.767056 
L 56.980977 21.855432 
L 57.147962 21.943808 
L 57.312136 22.032185 
L 57.472712 22.120561 
L 57.628909 22.208937 
L 57.77996 22.297313 
L 57.925118 22.38569 
L 58.063662 22.474066 
L 58.194905 22.562442 
L 58.318196 22.650818 
L 58.432929 22.739194 
L 58.538546 22.827571 
L 58.634541 22.915947 
L 58.720468 23.004323 
L 58.795939 23.092699 
L 58.860634 23.181076 
L 58.914294 23.269452 
L 58.956734 23.357828 
L 58.987836 23.446204 
L 59.007554 23.53458 
L 59.015913 23.622957 
L 59.013009 23.711333 
L 58.999007 23.799709 
L 58.974142 23.888085 
L 58.938715 23.976462 
L 58.893093 24.064838 
L 58.837704 24.153214 
L 58.773034 24.24159 
L 58.699626 24.329966 
L 58.618073 24.418343 
L 58.529016 24.506719 
L 58.43314 24.595095 
L 58.331167 24.683471 
L 58.223851 24.771848 
L 58.111978 24.860224 
L 57.996353 24.9486 
L 57.877799 25.036976 
L 57.757148 25.125352 
L 57.635239 25.213729 
L 57.512904 25.302105 
L 57.390969 25.390481 
L 57.270241 25.478857 
L 57.151503 25.567234 
L 57.035505 25.65561 
L 56.922955 25.743986 
L 56.814516 25.832362 
L 56.710793 25.920738 
L 56.612328 26.009115 
L 56.519591 26.097491 
L 56.432976 26.185867 
L 56.352793 26.274243 
L 56.279263 26.36262 
L 56.212516 26.450996 
L 56.152586 26.539372 
L 56.099411 26.627748 
L 56.052834 26.716124 
L 56.012604 26.804501 
L 55.978379 26.892877 
L 55.949732 26.981253 
L 55.926159 27.069629 
L 55.907088 27.158006 
L 55.891885 27.246382 
L 55.879871 27.334758 
L 55.870332 27.423134 
L 55.862531 27.51151 
L 55.855722 27.599887 
L 55.849168 27.688263 
L 55.842148 27.776639 
L 55.833976 27.865015 
L 55.824009 27.953392 
L 55.811661 28.041768 
L 55.796413 28.130144 
L 55.777816 28.21852 
L 55.755505 28.306896 
L 55.729195 28.395273 
L 55.69869 28.483649 
L 55.663878 28.572025 
L 55.624733 28.660401 
L 55.581307 28.748778 
L 55.53373 28.837154 
L 55.482196 28.92553 
L 55.426962 29.013906 
L 55.368334 29.102282 
L 55.306659 29.190659 
L 55.242317 29.279035 
L 55.175707 29.367411 
L 55.107241 29.455787 
L 55.037332 29.544164 
L 54.966389 29.63254 
L 54.894807 29.720916 
L 54.82296 29.809292 
L 54.7512 29.897668 
L 54.679848 29.986045 
L 54.609195 30.074421 
L 54.539499 30.162797 
L 54.470985 30.251173 
L 54.403843 30.33955 
L 54.338236 30.427926 
z
" style="fill:#1f77b4;fill-opacity:0.3;"/>
   </g>
   <g id="PolyCollection_3">
    <path clip-path="url(#p0d674b4cbc)" d="M 77.105791 24.100783 
L 76.157959 24.100783 
L 76.158753 24.090008 
L 76.162374 24.079234 
L 76.168685 24.06846 
L 76.177483 24.057686 
L 76.188505 24.046911 
L 76.20143 24.036137 
L 76.215886 24.025363 
L 76.231458 24.014589 
L 76.247697 24.003814 
L 76.264126 23.99304 
L 76.280251 23.982266 
L 76.29557 23.971492 
L 76.309577 23.960717 
L 76.321777 23.949943 
L 76.331686 23.939169 
L 76.338843 23.928395 
L 76.342813 23.91762 
L 76.343194 23.906846 
L 76.339618 23.896072 
L 76.331761 23.885297 
L 76.319341 23.874523 
L 76.302122 23.863749 
L 76.27992 23.852975 
L 76.252599 23.8422 
L 76.22008 23.831426 
L 76.182334 23.820652 
L 76.139389 23.809878 
L 76.091326 23.799103 
L 76.03828 23.788329 
L 75.980433 23.777555 
L 75.918018 23.766781 
L 75.85131 23.756006 
L 75.780619 23.745232 
L 75.706286 23.734458 
L 75.628674 23.723684 
L 75.548157 23.712909 
L 75.465112 23.702135 
L 75.379906 23.691361 
L 75.292888 23.680587 
L 75.204373 23.669812 
L 75.114636 23.659038 
L 75.023901 23.648264 
L 74.932329 23.63749 
L 74.840015 23.626715 
L 74.746981 23.615941 
L 74.653176 23.605167 
L 74.558471 23.594392 
L 74.462664 23.583618 
L 74.365488 23.572844 
L 74.266616 23.56207 
L 74.165673 23.551295 
L 74.06225 23.540521 
L 73.95592 23.529747 
L 73.846259 23.518973 
L 73.732861 23.508198 
L 73.615363 23.497424 
L 73.493466 23.48665 
L 73.366956 23.475876 
L 73.235726 23.465101 
L 73.099792 23.454327 
L 72.959319 23.443553 
L 72.814626 23.432779 
L 72.666203 23.422004 
L 72.514718 23.41123 
L 72.361019 23.400456 
L 72.206132 23.389682 
L 72.051252 23.378907 
L 71.897735 23.368133 
L 71.747075 23.357359 
L 71.600886 23.346585 
L 71.46087 23.33581 
L 71.328789 23.325036 
L 71.206429 23.314262 
L 71.095563 23.303487 
L 70.997915 23.292713 
L 70.915116 23.281939 
L 70.848672 23.271165 
L 70.799925 23.26039 
L 70.770023 23.249616 
L 70.759888 23.238842 
L 70.770194 23.228068 
L 70.80135 23.217293 
L 70.853486 23.206519 
L 70.92645 23.195745 
L 71.019806 23.184971 
L 71.132847 23.174196 
L 71.264601 23.163422 
L 71.413859 23.152648 
L 71.579194 23.141874 
L 71.758993 23.131099 
L 71.95149 23.120325 
L 72.154799 23.109551 
L 72.366951 23.098777 
L 72.585933 23.088002 
L 72.809723 23.077228 
L 73.036326 23.066454 
L 73.263804 23.05568 
L 73.490311 23.044905 
L 73.714114 23.034131 
L 79.549636 23.034131 
L 79.549636 23.034131 
L 79.773439 23.044905 
L 79.999946 23.05568 
L 80.227424 23.066454 
L 80.454027 23.077228 
L 80.677817 23.088002 
L 80.896799 23.098777 
L 81.108951 23.109551 
L 81.31226 23.120325 
L 81.504757 23.131099 
L 81.684556 23.141874 
L 81.849891 23.152648 
L 81.999149 23.163422 
L 82.130903 23.174196 
L 82.243944 23.184971 
L 82.3373 23.195745 
L 82.410264 23.206519 
L 82.4624 23.217293 
L 82.493556 23.228068 
L 82.503862 23.238842 
L 82.493727 23.249616 
L 82.463825 23.26039 
L 82.415078 23.271165 
L 82.348634 23.281939 
L 82.265835 23.292713 
L 82.168187 23.303487 
L 82.057321 23.314262 
L 81.934961 23.325036 
L 81.80288 23.33581 
L 81.662864 23.346585 
L 81.516675 23.357359 
L 81.366015 23.368133 
L 81.212498 23.378907 
L 81.057618 23.389682 
L 80.902731 23.400456 
L 80.749032 23.41123 
L 80.597547 23.422004 
L 80.449124 23.432779 
L 80.304431 23.443553 
L 80.163958 23.454327 
L 80.028024 23.465101 
L 79.896794 23.475876 
L 79.770284 23.48665 
L 79.648387 23.497424 
L 79.530889 23.508198 
L 79.417491 23.518973 
L 79.30783 23.529747 
L 79.2015 23.540521 
L 79.098077 23.551295 
L 78.997134 23.56207 
L 78.898262 23.572844 
L 78.801086 23.583618 
L 78.705279 23.594392 
L 78.610574 23.605167 
L 78.516769 23.615941 
L 78.423735 23.626715 
L 78.331421 23.63749 
L 78.239849 23.648264 
L 78.149114 23.659038 
L 78.059377 23.669812 
L 77.970862 23.680587 
L 77.883844 23.691361 
L 77.798638 23.702135 
L 77.715593 23.712909 
L 77.635076 23.723684 
L 77.557464 23.734458 
L 77.483131 23.745232 
L 77.41244 23.756006 
L 77.345732 23.766781 
L 77.283317 23.777555 
L 77.22547 23.788329 
L 77.172424 23.799103 
L 77.124361 23.809878 
L 77.081416 23.820652 
L 77.04367 23.831426 
L 77.011151 23.8422 
L 76.98383 23.852975 
L 76.961628 23.863749 
L 76.944409 23.874523 
L 76.931989 23.885297 
L 76.924132 23.896072 
L 76.920556 23.906846 
L 76.920937 23.91762 
L 76.924907 23.928395 
L 76.932064 23.939169 
L 76.941973 23.949943 
L 76.954173 23.960717 
L 76.96818 23.971492 
L 76.983499 23.982266 
L 76.999624 23.99304 
L 77.016053 24.003814 
L 77.032292 24.014589 
L 77.047864 24.025363 
L 77.06232 24.036137 
L 77.075245 24.046911 
L 77.086267 24.057686 
L 77.095065 24.06846 
L 77.101376 24.079234 
L 77.104997 24.090008 
L 77.105791 24.100783 
z
" style="fill:#1f77b4;fill-opacity:0.3;"/>
   </g>
   <g id="PolyCollection_4">
    <path clip-path="url(#p0d674b4cbc)" d="M 103.860115 24.638089 
L 96.379533 24.638089 
L 96.195731 24.552811 
L 96.014622 24.467534 
L 95.837286 24.382256 
L 95.664796 24.296979 
L 95.498217 24.211702 
L 95.338582 24.126424 
L 95.186887 24.041147 
L 95.044078 23.955869 
L 94.911034 23.870592 
L 94.788564 23.785314 
L 94.677389 23.700037 
L 94.578139 23.61476 
L 94.491343 23.529482 
L 94.417424 23.444205 
L 94.356691 23.358927 
L 94.309343 23.27365 
L 94.27546 23.188373 
L 94.255007 23.103095 
L 94.247837 23.017818 
L 94.25369 22.93254 
L 94.272201 22.847263 
L 94.302906 22.761985 
L 94.345247 22.676708 
L 94.398581 22.591431 
L 94.462187 22.506153 
L 94.535281 22.420876 
L 94.617018 22.335598 
L 94.706508 22.250321 
L 94.802824 22.165043 
L 94.905013 22.079766 
L 95.012105 21.994489 
L 95.123125 21.909211 
L 95.2371 21.823934 
L 95.353069 21.738656 
L 95.470092 21.653379 
L 95.587258 21.568102 
L 95.703691 21.482824 
L 95.818559 21.397547 
L 95.931079 21.312269 
L 96.040523 21.226992 
L 96.146224 21.141714 
L 96.247577 21.056437 
L 96.344049 20.97116 
L 96.435179 20.885882 
L 96.520581 20.800605 
L 96.599949 20.715327 
L 96.673057 20.63005 
L 96.739759 20.544773 
L 96.799995 20.459495 
L 96.853787 20.374218 
L 96.901237 20.28894 
L 96.942533 20.203663 
L 96.977936 20.118385 
L 97.007785 20.033108 
L 97.03249 19.947831 
L 97.052525 19.862553 
L 97.068425 19.777276 
L 97.080774 19.691998 
L 97.090201 19.606721 
L 97.097368 19.521444 
L 97.10296 19.436166 
L 97.107677 19.350889 
L 97.112218 19.265611 
L 97.117274 19.180334 
L 97.123515 19.095056 
L 97.131579 19.009779 
L 97.142059 18.924502 
L 97.155499 18.839224 
L 97.172377 18.753947 
L 97.193106 18.668669 
L 97.218022 18.583392 
L 97.24738 18.498114 
L 97.281355 18.412837 
L 97.320034 18.32756 
L 97.363426 18.242282 
L 97.411454 18.157005 
L 97.46397 18.071727 
L 97.520753 17.98645 
L 97.581518 17.901173 
L 97.645926 17.815895 
L 97.713592 17.730618 
L 97.784098 17.64534 
L 97.856996 17.560063 
L 97.931826 17.474785 
L 98.008122 17.389508 
L 98.085423 17.304231 
L 98.16328 17.218953 
L 98.241267 17.133676 
L 98.318984 17.048398 
L 98.396066 16.963121 
L 98.472183 16.877844 
L 98.547047 16.792566 
L 98.620413 16.707289 
L 98.692076 16.622011 
L 98.761873 16.536734 
L 98.82968 16.451456 
L 98.895409 16.366179 
L 98.959005 16.280902 
L 99.020443 16.195624 
L 101.219205 16.195624 
L 101.219205 16.195624 
L 101.280643 16.280902 
L 101.344239 16.366179 
L 101.409968 16.451456 
L 101.477775 16.536734 
L 101.547572 16.622011 
L 101.619235 16.707289 
L 101.692601 16.792566 
L 101.767465 16.877844 
L 101.843582 16.963121 
L 101.920663 17.048398 
L 101.99838 17.133676 
L 102.076367 17.218953 
L 102.154225 17.304231 
L 102.231526 17.389508 
L 102.307822 17.474785 
L 102.382652 17.560063 
L 102.45555 17.64534 
L 102.526056 17.730618 
L 102.593722 17.815895 
L 102.65813 17.901173 
L 102.718895 17.98645 
L 102.775677 18.071727 
L 102.828193 18.157005 
L 102.876222 18.242282 
L 102.919614 18.32756 
L 102.958293 18.412837 
L 102.992267 18.498114 
L 103.021626 18.583392 
L 103.046542 18.668669 
L 103.067271 18.753947 
L 103.084149 18.839224 
L 103.097589 18.924502 
L 103.108069 19.009779 
L 103.116132 19.095056 
L 103.122373 19.180334 
L 103.12743 19.265611 
L 103.131971 19.350889 
L 103.136688 19.436166 
L 103.14228 19.521444 
L 103.149447 19.606721 
L 103.158874 19.691998 
L 103.171223 19.777276 
L 103.187123 19.862553 
L 103.207158 19.947831 
L 103.231863 20.033108 
L 103.261712 20.118385 
L 103.297115 20.203663 
L 103.33841 20.28894 
L 103.385861 20.374218 
L 103.439653 20.459495 
L 103.499889 20.544773 
L 103.566591 20.63005 
L 103.639699 20.715327 
L 103.719067 20.800605 
L 103.804469 20.885882 
L 103.895599 20.97116 
L 103.992071 21.056437 
L 104.093424 21.141714 
L 104.199124 21.226992 
L 104.308568 21.312269 
L 104.421089 21.397547 
L 104.535957 21.482824 
L 104.65239 21.568102 
L 104.769556 21.653379 
L 104.886579 21.738656 
L 105.002548 21.823934 
L 105.116522 21.909211 
L 105.227542 21.994489 
L 105.334635 22.079766 
L 105.436824 22.165043 
L 105.53314 22.250321 
L 105.62263 22.335598 
L 105.704367 22.420876 
L 105.77746 22.506153 
L 105.841067 22.591431 
L 105.8944 22.676708 
L 105.936741 22.761985 
L 105.967447 22.847263 
L 105.985958 22.93254 
L 105.991811 23.017818 
L 105.984641 23.103095 
L 105.964188 23.188373 
L 105.930305 23.27365 
L 105.882956 23.358927 
L 105.822224 23.444205 
L 105.748304 23.529482 
L 105.661508 23.61476 
L 105.562259 23.700037 
L 105.451084 23.785314 
L 105.328613 23.870592 
L 105.19557 23.955869 
L 105.052761 24.041147 
L 104.901066 24.126424 
L 104.741431 24.211702 
L 104.574851 24.296979 
L 104.402362 24.382256 
L 104.225026 24.467534 
L 104.043917 24.552811 
L 103.860115 24.638089 
z
" style="fill:#1f77b4;fill-opacity:0.3;"/>
   </g>
   <g id="PolyCollection_5">
    <path clip-path="url(#p0d674b4cbc)" d="M 127.2985 26.241216 
L 119.917046 26.241216 
L 119.752197 26.080318 
L 119.589366 25.91942 
L 119.429298 25.758522 
L 119.272742 25.597624 
L 119.120434 25.436725 
L 118.973098 25.275827 
L 118.831436 25.114929 
L 118.696121 24.954031 
L 118.567793 24.793133 
L 118.447055 24.632235 
L 118.334461 24.471337 
L 118.230518 24.310438 
L 118.135678 24.14954 
L 118.050335 23.988642 
L 117.974823 23.827744 
L 117.909411 23.666846 
L 117.854304 23.505948 
L 117.809637 23.34505 
L 117.775482 23.184151 
L 117.751842 23.023253 
L 117.738652 22.862355 
L 117.735786 22.701457 
L 117.743052 22.540559 
L 117.7602 22.379661 
L 117.786924 22.218762 
L 117.822864 22.057864 
L 117.86761 21.896966 
L 117.920708 21.736068 
L 117.981665 21.57517 
L 118.049952 21.414272 
L 118.125007 21.253374 
L 118.206247 21.092475 
L 118.293063 20.931577 
L 118.384832 20.770679 
L 118.48092 20.609781 
L 118.580684 20.448883 
L 118.683479 20.287985 
L 118.788661 20.127087 
L 118.895589 19.966188 
L 119.003631 19.80529 
L 119.112168 19.644392 
L 119.220594 19.483494 
L 119.328322 19.322596 
L 119.434785 19.161698 
L 119.539441 19.0008 
L 119.641774 18.839901 
L 119.741298 18.679003 
L 119.837558 18.518105 
L 119.930137 18.357207 
L 120.018654 18.196309 
L 120.102769 18.035411 
L 120.182188 17.874512 
L 120.256661 17.713614 
L 120.32599 17.552716 
L 120.390024 17.391818 
L 120.448671 17.23092 
L 120.501891 17.070022 
L 120.549702 16.909124 
L 120.592179 16.748225 
L 120.629453 16.587327 
L 120.661715 16.426429 
L 120.68921 16.265531 
L 120.712236 16.104633 
L 120.731143 15.943735 
L 120.746325 15.782837 
L 120.758223 15.621938 
L 120.76731 15.46104 
L 120.774093 15.300142 
L 120.779101 15.139244 
L 120.782881 14.978346 
L 120.785989 14.817448 
L 120.788983 14.65655 
L 120.792415 14.495651 
L 120.79682 14.334753 
L 120.802714 14.173855 
L 120.810584 14.012957 
L 120.82088 13.852059 
L 120.83401 13.691161 
L 120.850338 13.530262 
L 120.870173 13.369364 
L 120.893772 13.208466 
L 120.921335 13.047568 
L 120.953004 12.88667 
L 120.988862 12.725772 
L 121.028935 12.564874 
L 121.073193 12.403975 
L 121.121551 12.243077 
L 121.173877 12.082179 
L 121.22999 11.921281 
L 121.289669 11.760383 
L 121.352655 11.599485 
L 121.41866 11.438587 
L 121.487367 11.277688 
L 121.55844 11.11679 
L 121.631528 10.955892 
L 121.70627 10.794994 
L 121.7823 10.634096 
L 121.859253 10.473198 
L 121.936766 10.3123 
L 125.27878 10.3123 
L 125.27878 10.3123 
L 125.356293 10.473198 
L 125.433245 10.634096 
L 125.509276 10.794994 
L 125.584018 10.955892 
L 125.657106 11.11679 
L 125.728179 11.277688 
L 125.796886 11.438587 
L 125.86289 11.599485 
L 125.925877 11.760383 
L 125.985556 11.921281 
L 126.041669 12.082179 
L 126.093995 12.243077 
L 126.142353 12.403975 
L 126.18661 12.564874 
L 126.226683 12.725772 
L 126.262541 12.88667 
L 126.29421 13.047568 
L 126.321774 13.208466 
L 126.345373 13.369364 
L 126.365208 13.530262 
L 126.381535 13.691161 
L 126.394666 13.852059 
L 126.404961 14.012957 
L 126.412831 14.173855 
L 126.418726 14.334753 
L 126.423131 14.495651 
L 126.426562 14.65655 
L 126.429556 14.817448 
L 126.432665 14.978346 
L 126.436445 15.139244 
L 126.441453 15.300142 
L 126.448235 15.46104 
L 126.457323 15.621938 
L 126.46922 15.782837 
L 126.484403 15.943735 
L 126.50331 16.104633 
L 126.526336 16.265531 
L 126.55383 16.426429 
L 126.586092 16.587327 
L 126.623367 16.748225 
L 126.665843 16.909124 
L 126.713654 17.070022 
L 126.766874 17.23092 
L 126.825521 17.391818 
L 126.889556 17.552716 
L 126.958884 17.713614 
L 127.033357 17.874512 
L 127.112776 18.035411 
L 127.196892 18.196309 
L 127.285409 18.357207 
L 127.377987 18.518105 
L 127.474248 18.679003 
L 127.573771 18.839901 
L 127.676104 19.0008 
L 127.78076 19.161698 
L 127.887224 19.322596 
L 127.994951 19.483494 
L 128.103378 19.644392 
L 128.211914 19.80529 
L 128.319957 19.966188 
L 128.426885 20.127087 
L 128.532066 20.287985 
L 128.634861 20.448883 
L 128.734626 20.609781 
L 128.830714 20.770679 
L 128.922483 20.931577 
L 129.009299 21.092475 
L 129.090538 21.253374 
L 129.165594 21.414272 
L 129.23388 21.57517 
L 129.294837 21.736068 
L 129.347936 21.896966 
L 129.392682 22.057864 
L 129.428621 22.218762 
L 129.455345 22.379661 
L 129.472494 22.540559 
L 129.47976 22.701457 
L 129.476893 22.862355 
L 129.463704 23.023253 
L 129.440063 23.184151 
L 129.405908 23.34505 
L 129.361242 23.505948 
L 129.306134 23.666846 
L 129.240722 23.827744 
L 129.16521 23.988642 
L 129.079868 24.14954 
L 128.985028 24.310438 
L 128.881085 24.471337 
L 128.768491 24.632235 
L 128.647752 24.793133 
L 128.519425 24.954031 
L 128.38411 25.114929 
L 128.242447 25.275827 
L 128.095111 25.436725 
L 127.942804 25.597624 
L 127.786247 25.758522 
L 127.62618 25.91942 
L 127.463348 26.080318 
L 127.2985 26.241216 
z
" style="fill:#1f77b4;fill-opacity:0.3;"/>
   </g>
   <g id="matplotlib.axis_1">
    <g id="xtick_1">
     <g id="line2d_1">
      <defs>
       <path d="M 0 0 
L 0 3.5 
" id="m391680fba0" style="stroke:#000000;stroke-width:0.8;"/>
      </defs>
      <g>
       <use style="stroke:#000000;stroke-width:0.8;" x="29.655977" xlink:href="#m391680fba0" y="38.12351"/>
      </g>
     </g>
     <g id="text_1">
      <!-- -.50 -->
      <g transform="translate(22.764102 50.84976)scale(0.08 -0.08)">
       <defs>
        <path d="M 3.171875 21.484375 
L 3.171875 30.328125 
L 30.171875 30.328125 
L 30.171875 21.484375 
z
" id="ArialMT-45"/>
        <path d="M 9.078125 0 
L 9.078125 10.015625 
L 19.09375 10.015625 
L 19.09375 0 
z
" id="ArialMT-46"/>
        <path d="M 4.15625 18.75 
L 13.375 19.53125 
Q 14.40625 12.796875 18.140625 9.390625 
Q 21.875 6 27.15625 6 
Q 33.5 6 37.890625 10.78125 
Q 42.28125 15.578125 42.28125 23.484375 
Q 42.28125 31 38.0625 35.34375 
Q 33.84375 39.703125 27 39.703125 
Q 22.75 39.703125 19.328125 37.765625 
Q 15.921875 35.84375 13.96875 32.765625 
L 5.71875 33.84375 
L 12.640625 70.609375 
L 48.25 70.609375 
L 48.25 62.203125 
L 19.671875 62.203125 
L 15.828125 42.96875 
Q 22.265625 47.46875 29.34375 47.46875 
Q 38.71875 47.46875 45.15625 40.96875 
Q 51.609375 34.46875 51.609375 24.265625 
Q 51.609375 14.546875 45.953125 7.46875 
Q 39.0625 -1.21875 27.15625 -1.21875 
Q 17.390625 -1.21875 11.203125 4.25 
Q 5.03125 9.71875 4.15625 18.75 
z
" id="ArialMT-53"/>
        <path d="M 4.15625 35.296875 
Q 4.15625 48 6.765625 55.734375 
Q 9.375 63.484375 14.515625 67.671875 
Q 19.671875 71.875 27.484375 71.875 
Q 33.25 71.875 37.59375 69.546875 
Q 41.9375 67.234375 44.765625 62.859375 
Q 47.609375 58.5 49.21875 52.21875 
Q 50.828125 45.953125 50.828125 35.296875 
Q 50.828125 22.703125 48.234375 14.96875 
Q 45.65625 7.234375 40.5 3 
Q 35.359375 -1.21875 27.484375 -1.21875 
Q 17.140625 -1.21875 11.234375 6.203125 
Q 4.15625 15.140625 4.15625 35.296875 
z
M 13.1875 35.296875 
Q 13.1875 17.671875 17.3125 11.828125 
Q 21.4375 6 27.484375 6 
Q 33.546875 6 37.671875 11.859375 
Q 41.796875 17.71875 41.796875 35.296875 
Q 41.796875 52.984375 37.671875 58.78125 
Q 33.546875 64.59375 27.390625 64.59375 
Q 21.34375 64.59375 17.71875 59.46875 
Q 13.1875 52.9375 13.1875 35.296875 
z
" id="ArialMT-48"/>
       </defs>
       <use xlink:href="#ArialMT-45"/>
       <use x="33.300781" xlink:href="#ArialMT-46"/>
       <use x="61.083984" xlink:href="#ArialMT-53"/>
       <use x="116.699219" xlink:href="#ArialMT-48"/>
      </g>
     </g>
    </g>
    <g id="xtick_2">
     <g id="line2d_2">
      <g>
       <use style="stroke:#000000;stroke-width:0.8;" x="53.143926" xlink:href="#m391680fba0" y="38.12351"/>
      </g>
     </g>
     <g id="text_2">
      <!-- -.25 -->
      <g transform="translate(46.252051 50.84976)scale(0.08 -0.08)">
       <defs>
        <path d="M 50.34375 8.453125 
L 50.34375 0 
L 3.03125 0 
Q 2.9375 3.171875 4.046875 6.109375 
Q 5.859375 10.9375 9.828125 15.625 
Q 13.8125 20.3125 21.34375 26.46875 
Q 33.015625 36.03125 37.109375 41.625 
Q 41.21875 47.21875 41.21875 52.203125 
Q 41.21875 57.421875 37.46875 61 
Q 33.734375 64.59375 27.734375 64.59375 
Q 21.390625 64.59375 17.578125 60.78125 
Q 13.765625 56.984375 13.71875 50.25 
L 4.6875 51.171875 
Q 5.609375 61.28125 11.65625 66.578125 
Q 17.71875 71.875 27.9375 71.875 
Q 38.234375 71.875 44.234375 66.15625 
Q 50.25 60.453125 50.25 52 
Q 50.25 47.703125 48.484375 43.546875 
Q 46.734375 39.40625 42.65625 34.8125 
Q 38.578125 30.21875 29.109375 22.21875 
Q 21.1875 15.578125 18.9375 13.203125 
Q 16.703125 10.84375 15.234375 8.453125 
z
" id="ArialMT-50"/>
       </defs>
       <use xlink:href="#ArialMT-45"/>
       <use x="33.300781" xlink:href="#ArialMT-46"/>
       <use x="61.083984" xlink:href="#ArialMT-50"/>
       <use x="116.699219" xlink:href="#ArialMT-53"/>
      </g>
     </g>
    </g>
    <g id="xtick_3">
     <g id="line2d_3">
      <g>
       <use style="stroke:#000000;stroke-width:0.8;" x="76.631875" xlink:href="#m391680fba0" y="38.12351"/>
      </g>
     </g>
     <g id="text_3">
      <!-- 0 -->
      <g transform="translate(74.4075 50.84976)scale(0.08 -0.08)">
       <use xlink:href="#ArialMT-48"/>
      </g>
     </g>
    </g>
    <g id="xtick_4">
     <g id="line2d_4">
      <g>
       <use style="stroke:#000000;stroke-width:0.8;" x="100.119824" xlink:href="#m391680fba0" y="38.12351"/>
      </g>
     </g>
     <g id="text_4">
      <!-- .25 -->
      <g transform="translate(94.559824 50.84976)scale(0.08 -0.08)">
       <use xlink:href="#ArialMT-46"/>
       <use x="27.783203" xlink:href="#ArialMT-50"/>
       <use x="83.398438" xlink:href="#ArialMT-53"/>
      </g>
     </g>
    </g>
    <g id="xtick_5">
     <g id="line2d_5">
      <g>
       <use style="stroke:#000000;stroke-width:0.8;" x="123.607773" xlink:href="#m391680fba0" y="38.12351"/>
      </g>
     </g>
     <g id="text_5">
      <!-- .50 -->
      <g transform="translate(118.047773 50.84976)scale(0.08 -0.08)">
       <use xlink:href="#ArialMT-46"/>
       <use x="27.783203" xlink:href="#ArialMT-53"/>
       <use x="83.398438" xlink:href="#ArialMT-48"/>
      </g>
     </g>
    </g>
   </g>
   <g id="matplotlib.axis_2">
    <g id="ytick_1">
     <g id="line2d_6">
      <defs>
       <path d="M 0 0 
L -3.5 0 
" id="mc1cbc97d6d" style="stroke:#000000;stroke-width:0.8;"/>
      </defs>
      <g>
       <use style="stroke:#000000;stroke-width:0.8;" x="23.78399" xlink:href="#mc1cbc97d6d" y="34.437949"/>
      </g>
     </g>
     <g id="text_6">
      <!-- -.05 -->
      <g transform="translate(3.00024 37.301074)scale(0.08 -0.08)">
       <use xlink:href="#ArialMT-45"/>
       <use x="33.300781" xlink:href="#ArialMT-46"/>
       <use x="61.083984" xlink:href="#ArialMT-48"/>
       <use x="116.699219" xlink:href="#ArialMT-53"/>
      </g>
     </g>
    </g>
    <g id="ytick_2">
     <g id="line2d_7">
      <g>
       <use style="stroke:#000000;stroke-width:0.8;" x="23.78399" xlink:href="#mc1cbc97d6d" y="23.179564"/>
      </g>
     </g>
     <g id="text_7">
      <!-- 0 -->
      <g transform="translate(12.33524 26.042689)scale(0.08 -0.08)">
       <use xlink:href="#ArialMT-48"/>
      </g>
     </g>
    </g>
    <g id="ytick_3">
     <g id="line2d_8">
      <g>
       <use style="stroke:#000000;stroke-width:0.8;" x="23.78399" xlink:href="#mc1cbc97d6d" y="11.921178"/>
      </g>
     </g>
     <g id="text_8">
      <!-- .05 -->
      <g transform="translate(5.66399 14.784303)scale(0.08 -0.08)">
       <use xlink:href="#ArialMT-46"/>
       <use x="27.783203" xlink:href="#ArialMT-48"/>
       <use x="83.398438" xlink:href="#ArialMT-53"/>
      </g>
     </g>
    </g>
   </g>
   <g id="line2d_9">
    <path clip-path="url(#p0d674b4cbc)" d="M 29.655977 20.435367 
L 53.143926 21.67868 
L 76.631875 23.171467 
L 100.119824 24.638089 
L 123.607773 26.241216 
" style="fill:none;stroke:#000000;stroke-linecap:square;stroke-opacity:0.3;stroke-width:0.5;"/>
    <defs>
     <path d="M 0 0.5 
C 0.132602 0.5 0.25979 0.447317 0.353553 0.353553 
C 0.447317 0.25979 0.5 0.132602 0.5 0 
C 0.5 -0.132602 0.447317 -0.25979 0.353553 -0.353553 
C 0.25979 -0.447317 0.132602 -0.5 0 -0.5 
C -0.132602 -0.5 -0.25979 -0.447317 -0.353553 -0.353553 
C -0.447317 -0.25979 -0.5 -0.132602 -0.5 0 
C -0.5 0.132602 -0.447317 0.25979 -0.353553 0.353553 
C -0.25979 0.447317 -0.132602 0.5 0 0.5 
z
" id="m87e9b39847" style="stroke:#000000;stroke-opacity:0.3;"/>
    </defs>
    <g clip-path="url(#p0d674b4cbc)">
     <use style="fill-opacity:0.3;stroke:#000000;stroke-opacity:0.3;" x="29.655977" xlink:href="#m87e9b39847" y="20.435367"/>
     <use style="fill-opacity:0.3;stroke:#000000;stroke-opacity:0.3;" x="53.143926" xlink:href="#m87e9b39847" y="21.67868"/>
     <use style="fill-opacity:0.3;stroke:#000000;stroke-opacity:0.3;" x="76.631875" xlink:href="#m87e9b39847" y="23.171467"/>
     <use style="fill-opacity:0.3;stroke:#000000;stroke-opacity:0.3;" x="100.119824" xlink:href="#m87e9b39847" y="24.638089"/>
     <use style="fill-opacity:0.3;stroke:#000000;stroke-opacity:0.3;" x="123.607773" xlink:href="#m87e9b39847" y="26.241216"/>
    </g>
   </g>
   <g id="line2d_10">
    <path clip-path="url(#p0d674b4cbc)" d="M 29.655977 34.388902 
L 53.143926 28.195363 
L 76.631875 23.403819 
L 100.119824 18.429649 
L 123.607773 13.671962 
" style="fill:none;stroke:#000000;stroke-linecap:square;stroke-opacity:0.3;stroke-width:0.5;"/>
    <g clip-path="url(#p0d674b4cbc)">
     <use style="fill-opacity:0.3;stroke:#000000;stroke-opacity:0.3;" x="29.655977" xlink:href="#m87e9b39847" y="34.388902"/>
     <use style="fill-opacity:0.3;stroke:#000000;stroke-opacity:0.3;" x="53.143926" xlink:href="#m87e9b39847" y="28.195363"/>
     <use style="fill-opacity:0.3;stroke:#000000;stroke-opacity:0.3;" x="76.631875" xlink:href="#m87e9b39847" y="23.403819"/>
     <use style="fill-opacity:0.3;stroke:#000000;stroke-opacity:0.3;" x="100.119824" xlink:href="#m87e9b39847" y="18.429649"/>
     <use style="fill-opacity:0.3;stroke:#000000;stroke-opacity:0.3;" x="123.607773" xlink:href="#m87e9b39847" y="13.671962"/>
    </g>
   </g>
   <g id="line2d_11">
    <path clip-path="url(#p0d674b4cbc)" d="M 29.655977 21.476754 
L 53.143926 22.294065 
L 76.631875 23.659012 
L 100.119824 23.804481 
L 123.607773 25.149672 
" style="fill:none;stroke:#000000;stroke-linecap:square;stroke-opacity:0.3;stroke-width:0.5;"/>
    <g clip-path="url(#p0d674b4cbc)">
     <use style="fill-opacity:0.3;stroke:#000000;stroke-opacity:0.3;" x="29.655977" xlink:href="#m87e9b39847" y="21.476754"/>
     <use style="fill-opacity:0.3;stroke:#000000;stroke-opacity:0.3;" x="53.143926" xlink:href="#m87e9b39847" y="22.294065"/>
     <use style="fill-opacity:0.3;stroke:#000000;stroke-opacity:0.3;" x="76.631875" xlink:href="#m87e9b39847" y="23.659012"/>
     <use style="fill-opacity:0.3;stroke:#000000;stroke-opacity:0.3;" x="100.119824" xlink:href="#m87e9b39847" y="23.804481"/>
     <use style="fill-opacity:0.3;stroke:#000000;stroke-opacity:0.3;" x="123.607773" xlink:href="#m87e9b39847" y="25.149672"/>
    </g>
   </g>
   <g id="line2d_12">
    <path clip-path="url(#p0d674b4cbc)" d="M 29.655977 28.760004 
L 53.143926 25.993259 
L 76.631875 23.590102 
L 100.119824 20.817655 
L 123.607773 17.889152 
" style="fill:none;stroke:#000000;stroke-linecap:square;stroke-opacity:0.3;stroke-width:0.5;"/>
    <g clip-path="url(#p0d674b4cbc)">
     <use style="fill-opacity:0.3;stroke:#000000;stroke-opacity:0.3;" x="29.655977" xlink:href="#m87e9b39847" y="28.760004"/>
     <use style="fill-opacity:0.3;stroke:#000000;stroke-opacity:0.3;" x="53.143926" xlink:href="#m87e9b39847" y="25.993259"/>
     <use style="fill-opacity:0.3;stroke:#000000;stroke-opacity:0.3;" x="76.631875" xlink:href="#m87e9b39847" y="23.590102"/>
     <use style="fill-opacity:0.3;stroke:#000000;stroke-opacity:0.3;" x="100.119824" xlink:href="#m87e9b39847" y="20.817655"/>
     <use style="fill-opacity:0.3;stroke:#000000;stroke-opacity:0.3;" x="123.607773" xlink:href="#m87e9b39847" y="17.889152"/>
    </g>
   </g>
   <g id="line2d_13">
    <path clip-path="url(#p0d674b4cbc)" d="M 29.655977 23.152 
L 53.143926 23.151694 
L 76.631875 23.138324 
L 100.119824 23.24212 
L 123.607773 23.26939 
" style="fill:none;stroke:#000000;stroke-linecap:square;stroke-opacity:0.3;stroke-width:0.5;"/>
    <g clip-path="url(#p0d674b4cbc)">
     <use style="fill-opacity:0.3;stroke:#000000;stroke-opacity:0.3;" x="29.655977" xlink:href="#m87e9b39847" y="23.152"/>
     <use style="fill-opacity:0.3;stroke:#000000;stroke-opacity:0.3;" x="53.143926" xlink:href="#m87e9b39847" y="23.151694"/>
     <use style="fill-opacity:0.3;stroke:#000000;stroke-opacity:0.3;" x="76.631875" xlink:href="#m87e9b39847" y="23.138324"/>
     <use style="fill-opacity:0.3;stroke:#000000;stroke-opacity:0.3;" x="100.119824" xlink:href="#m87e9b39847" y="23.24212"/>
     <use style="fill-opacity:0.3;stroke:#000000;stroke-opacity:0.3;" x="123.607773" xlink:href="#m87e9b39847" y="23.26939"/>
    </g>
   </g>
   <g id="line2d_14">
    <path clip-path="url(#p0d674b4cbc)" d="M 29.655977 34.396901 
L 53.143926 28.476629 
L 76.631875 23.12491 
L 100.119824 18.365158 
L 123.607773 12.395034 
" style="fill:none;stroke:#000000;stroke-linecap:square;stroke-opacity:0.3;stroke-width:0.5;"/>
    <g clip-path="url(#p0d674b4cbc)">
     <use style="fill-opacity:0.3;stroke:#000000;stroke-opacity:0.3;" x="29.655977" xlink:href="#m87e9b39847" y="34.396901"/>
     <use style="fill-opacity:0.3;stroke:#000000;stroke-opacity:0.3;" x="53.143926" xlink:href="#m87e9b39847" y="28.476629"/>
     <use style="fill-opacity:0.3;stroke:#000000;stroke-opacity:0.3;" x="76.631875" xlink:href="#m87e9b39847" y="23.12491"/>
     <use style="fill-opacity:0.3;stroke:#000000;stroke-opacity:0.3;" x="100.119824" xlink:href="#m87e9b39847" y="18.365158"/>
     <use style="fill-opacity:0.3;stroke:#000000;stroke-opacity:0.3;" x="123.607773" xlink:href="#m87e9b39847" y="12.395034"/>
    </g>
   </g>
   <g id="line2d_15">
    <path clip-path="url(#p0d674b4cbc)" d="M 29.655977 23.082063 
L 53.143926 23.14626 
L 76.631875 23.19227 
L 100.119824 23.385135 
L 123.607773 23.286441 
" style="fill:none;stroke:#000000;stroke-linecap:square;stroke-opacity:0.3;stroke-width:0.5;"/>
    <g clip-path="url(#p0d674b4cbc)">
     <use style="fill-opacity:0.3;stroke:#000000;stroke-opacity:0.3;" x="29.655977" xlink:href="#m87e9b39847" y="23.082063"/>
     <use style="fill-opacity:0.3;stroke:#000000;stroke-opacity:0.3;" x="53.143926" xlink:href="#m87e9b39847" y="23.14626"/>
     <use style="fill-opacity:0.3;stroke:#000000;stroke-opacity:0.3;" x="76.631875" xlink:href="#m87e9b39847" y="23.19227"/>
     <use style="fill-opacity:0.3;stroke:#000000;stroke-opacity:0.3;" x="100.119824" xlink:href="#m87e9b39847" y="23.385135"/>
     <use style="fill-opacity:0.3;stroke:#000000;stroke-opacity:0.3;" x="123.607773" xlink:href="#m87e9b39847" y="23.286441"/>
    </g>
   </g>
   <g id="line2d_16">
    <path clip-path="url(#p0d674b4cbc)" d="M 29.655977 25.552266 
L 53.143926 24.435659 
L 76.631875 24.100783 
L 100.119824 22.307188 
L 123.607773 21.307685 
" style="fill:none;stroke:#000000;stroke-linecap:square;stroke-opacity:0.3;stroke-width:0.5;"/>
    <g clip-path="url(#p0d674b4cbc)">
     <use style="fill-opacity:0.3;stroke:#000000;stroke-opacity:0.3;" x="29.655977" xlink:href="#m87e9b39847" y="25.552266"/>
     <use style="fill-opacity:0.3;stroke:#000000;stroke-opacity:0.3;" x="53.143926" xlink:href="#m87e9b39847" y="24.435659"/>
     <use style="fill-opacity:0.3;stroke:#000000;stroke-opacity:0.3;" x="76.631875" xlink:href="#m87e9b39847" y="24.100783"/>
     <use style="fill-opacity:0.3;stroke:#000000;stroke-opacity:0.3;" x="100.119824" xlink:href="#m87e9b39847" y="22.307188"/>
     <use style="fill-opacity:0.3;stroke:#000000;stroke-opacity:0.3;" x="123.607773" xlink:href="#m87e9b39847" y="21.307685"/>
    </g>
   </g>
   <g id="line2d_17">
    <path clip-path="url(#p0d674b4cbc)" d="M 29.655977 37.97555 
L 53.143926 30.427926 
L 76.631875 23.290815 
L 100.119824 16.195624 
L 123.607773 10.3123 
" style="fill:none;stroke:#000000;stroke-linecap:square;stroke-opacity:0.3;stroke-width:0.5;"/>
    <g clip-path="url(#p0d674b4cbc)">
     <use style="fill-opacity:0.3;stroke:#000000;stroke-opacity:0.3;" x="29.655977" xlink:href="#m87e9b39847" y="37.97555"/>
     <use style="fill-opacity:0.3;stroke:#000000;stroke-opacity:0.3;" x="53.143926" xlink:href="#m87e9b39847" y="30.427926"/>
     <use style="fill-opacity:0.3;stroke:#000000;stroke-opacity:0.3;" x="76.631875" xlink:href="#m87e9b39847" y="23.290815"/>
     <use style="fill-opacity:0.3;stroke:#000000;stroke-opacity:0.3;" x="100.119824" xlink:href="#m87e9b39847" y="16.195624"/>
     <use style="fill-opacity:0.3;stroke:#000000;stroke-opacity:0.3;" x="123.607773" xlink:href="#m87e9b39847" y="10.3123"/>
    </g>
   </g>
   <g id="line2d_18">
    <path clip-path="url(#p0d674b4cbc)" d="M 29.655977 22.228773 
L 53.143926 22.859435 
L 76.631875 23.034131 
L 100.119824 23.528634 
L 123.607773 24.225322 
" style="fill:none;stroke:#000000;stroke-linecap:square;stroke-opacity:0.3;stroke-width:0.5;"/>
    <g clip-path="url(#p0d674b4cbc)">
     <use style="fill-opacity:0.3;stroke:#000000;stroke-opacity:0.3;" x="29.655977" xlink:href="#m87e9b39847" y="22.228773"/>
     <use style="fill-opacity:0.3;stroke:#000000;stroke-opacity:0.3;" x="53.143926" xlink:href="#m87e9b39847" y="22.859435"/>
     <use style="fill-opacity:0.3;stroke:#000000;stroke-opacity:0.3;" x="76.631875" xlink:href="#m87e9b39847" y="23.034131"/>
     <use style="fill-opacity:0.3;stroke:#000000;stroke-opacity:0.3;" x="100.119824" xlink:href="#m87e9b39847" y="23.528634"/>
     <use style="fill-opacity:0.3;stroke:#000000;stroke-opacity:0.3;" x="123.607773" xlink:href="#m87e9b39847" y="24.225322"/>
    </g>
   </g>
   <g id="line2d_19">
    <path clip-path="url(#p0d674b4cbc)" d="M 29.655977 33.246272 
L 53.143926 28.10523 
L 76.631875 23.382882 
L 100.119824 18.366035 
L 123.607773 13.676658 
" style="fill:none;stroke:#000000;stroke-linecap:square;stroke-opacity:0.3;stroke-width:0.5;"/>
    <g clip-path="url(#p0d674b4cbc)">
     <use style="fill-opacity:0.3;stroke:#000000;stroke-opacity:0.3;" x="29.655977" xlink:href="#m87e9b39847" y="33.246272"/>
     <use style="fill-opacity:0.3;stroke:#000000;stroke-opacity:0.3;" x="53.143926" xlink:href="#m87e9b39847" y="28.10523"/>
     <use style="fill-opacity:0.3;stroke:#000000;stroke-opacity:0.3;" x="76.631875" xlink:href="#m87e9b39847" y="23.382882"/>
     <use style="fill-opacity:0.3;stroke:#000000;stroke-opacity:0.3;" x="100.119824" xlink:href="#m87e9b39847" y="18.366035"/>
     <use style="fill-opacity:0.3;stroke:#000000;stroke-opacity:0.3;" x="123.607773" xlink:href="#m87e9b39847" y="13.676658"/>
    </g>
   </g>
   <g id="line2d_20">
    <path clip-path="url(#p0d674b4cbc)" d="M 29.655977 25.439518 
L 53.143926 24.209925 
L 76.631875 23.259507 
L 100.119824 22.032767 
L 123.607773 20.863655 
" style="fill:none;stroke:#000000;stroke-linecap:square;stroke-opacity:0.3;stroke-width:0.5;"/>
    <g clip-path="url(#p0d674b4cbc)">
     <use style="fill-opacity:0.3;stroke:#000000;stroke-opacity:0.3;" x="29.655977" xlink:href="#m87e9b39847" y="25.439518"/>
     <use style="fill-opacity:0.3;stroke:#000000;stroke-opacity:0.3;" x="53.143926" xlink:href="#m87e9b39847" y="24.209925"/>
     <use style="fill-opacity:0.3;stroke:#000000;stroke-opacity:0.3;" x="76.631875" xlink:href="#m87e9b39847" y="23.259507"/>
     <use style="fill-opacity:0.3;stroke:#000000;stroke-opacity:0.3;" x="100.119824" xlink:href="#m87e9b39847" y="22.032767"/>
     <use style="fill-opacity:0.3;stroke:#000000;stroke-opacity:0.3;" x="123.607773" xlink:href="#m87e9b39847" y="20.863655"/>
    </g>
   </g>
   <g id="line2d_21">
    <path clip-path="url(#p0d674b4cbc)" d="M 29.655977 32.713655 
L 53.143926 28.297603 
L 76.631875 23.457403 
L 100.119824 18.549264 
L 123.607773 14.108623 
" style="fill:none;stroke:#000000;stroke-linecap:square;stroke-opacity:0.3;stroke-width:0.5;"/>
    <g clip-path="url(#p0d674b4cbc)">
     <use style="fill-opacity:0.3;stroke:#000000;stroke-opacity:0.3;" x="29.655977" xlink:href="#m87e9b39847" y="32.713655"/>
     <use style="fill-opacity:0.3;stroke:#000000;stroke-opacity:0.3;" x="53.143926" xlink:href="#m87e9b39847" y="28.297603"/>
     <use style="fill-opacity:0.3;stroke:#000000;stroke-opacity:0.3;" x="76.631875" xlink:href="#m87e9b39847" y="23.457403"/>
     <use style="fill-opacity:0.3;stroke:#000000;stroke-opacity:0.3;" x="100.119824" xlink:href="#m87e9b39847" y="18.549264"/>
     <use style="fill-opacity:0.3;stroke:#000000;stroke-opacity:0.3;" x="123.607773" xlink:href="#m87e9b39847" y="14.108623"/>
    </g>
   </g>
   <g id="line2d_22">
    <path clip-path="url(#p0d674b4cbc)" d="M 29.655977 28.420307 
L 53.143926 25.486269 
L 76.631875 23.137705 
L 100.119824 19.762998 
L 123.607773 18.070413 
" style="fill:none;stroke:#000000;stroke-linecap:square;stroke-opacity:0.3;stroke-width:0.5;"/>
    <g clip-path="url(#p0d674b4cbc)">
     <use style="fill-opacity:0.3;stroke:#000000;stroke-opacity:0.3;" x="29.655977" xlink:href="#m87e9b39847" y="28.420307"/>
     <use style="fill-opacity:0.3;stroke:#000000;stroke-opacity:0.3;" x="53.143926" xlink:href="#m87e9b39847" y="25.486269"/>
     <use style="fill-opacity:0.3;stroke:#000000;stroke-opacity:0.3;" x="76.631875" xlink:href="#m87e9b39847" y="23.137705"/>
     <use style="fill-opacity:0.3;stroke:#000000;stroke-opacity:0.3;" x="100.119824" xlink:href="#m87e9b39847" y="19.762998"/>
     <use style="fill-opacity:0.3;stroke:#000000;stroke-opacity:0.3;" x="123.607773" xlink:href="#m87e9b39847" y="18.070413"/>
    </g>
   </g>
   <g id="line2d_23">
    <path clip-path="url(#p0d674b4cbc)" d="M 29.655977 22.81613 
L 53.143926 23.083004 
L 76.631875 23.27537 
L 100.119824 23.635557 
L 123.607773 23.735084 
" style="fill:none;stroke:#000000;stroke-linecap:square;stroke-opacity:0.3;stroke-width:0.5;"/>
    <g clip-path="url(#p0d674b4cbc)">
     <use style="fill-opacity:0.3;stroke:#000000;stroke-opacity:0.3;" x="29.655977" xlink:href="#m87e9b39847" y="22.81613"/>
     <use style="fill-opacity:0.3;stroke:#000000;stroke-opacity:0.3;" x="53.143926" xlink:href="#m87e9b39847" y="23.083004"/>
     <use style="fill-opacity:0.3;stroke:#000000;stroke-opacity:0.3;" x="76.631875" xlink:href="#m87e9b39847" y="23.27537"/>
     <use style="fill-opacity:0.3;stroke:#000000;stroke-opacity:0.3;" x="100.119824" xlink:href="#m87e9b39847" y="23.635557"/>
     <use style="fill-opacity:0.3;stroke:#000000;stroke-opacity:0.3;" x="123.607773" xlink:href="#m87e9b39847" y="23.735084"/>
    </g>
   </g>
   <g id="line2d_24">
    <path clip-path="url(#p0d674b4cbc)" d="M 29.655977 25.366807 
L 53.143926 24.42721 
L 76.631875 23.262056 
L 100.119824 22.198184 
L 123.607773 21.110994 
" style="fill:none;stroke:#000000;stroke-linecap:square;stroke-opacity:0.3;stroke-width:0.5;"/>
    <g clip-path="url(#p0d674b4cbc)">
     <use style="fill-opacity:0.3;stroke:#000000;stroke-opacity:0.3;" x="29.655977" xlink:href="#m87e9b39847" y="25.366807"/>
     <use style="fill-opacity:0.3;stroke:#000000;stroke-opacity:0.3;" x="53.143926" xlink:href="#m87e9b39847" y="24.42721"/>
     <use style="fill-opacity:0.3;stroke:#000000;stroke-opacity:0.3;" x="76.631875" xlink:href="#m87e9b39847" y="23.262056"/>
     <use style="fill-opacity:0.3;stroke:#000000;stroke-opacity:0.3;" x="100.119824" xlink:href="#m87e9b39847" y="22.198184"/>
     <use style="fill-opacity:0.3;stroke:#000000;stroke-opacity:0.3;" x="123.607773" xlink:href="#m87e9b39847" y="21.110994"/>
    </g>
   </g>
   <g id="line2d_25">
    <path clip-path="url(#p0d674b4cbc)" d="M 29.655977 20.571737 
L 53.143926 21.858115 
L 76.631875 23.257367 
L 100.119824 24.296209 
L 123.607773 25.912294 
" style="fill:none;stroke:#000000;stroke-linecap:square;stroke-opacity:0.3;stroke-width:0.5;"/>
    <g clip-path="url(#p0d674b4cbc)">
     <use style="fill-opacity:0.3;stroke:#000000;stroke-opacity:0.3;" x="29.655977" xlink:href="#m87e9b39847" y="20.571737"/>
     <use style="fill-opacity:0.3;stroke:#000000;stroke-opacity:0.3;" x="53.143926" xlink:href="#m87e9b39847" y="21.858115"/>
     <use style="fill-opacity:0.3;stroke:#000000;stroke-opacity:0.3;" x="76.631875" xlink:href="#m87e9b39847" y="23.257367"/>
     <use style="fill-opacity:0.3;stroke:#000000;stroke-opacity:0.3;" x="100.119824" xlink:href="#m87e9b39847" y="24.296209"/>
     <use style="fill-opacity:0.3;stroke:#000000;stroke-opacity:0.3;" x="123.607773" xlink:href="#m87e9b39847" y="25.912294"/>
    </g>
   </g>
   <g id="line2d_26">
    <path clip-path="url(#p0d674b4cbc)" d="M 29.655977 27.157346 
L 53.143926 25.273847 
L 76.631875 23.184613 
L 100.119824 21.136227 
L 123.607773 19.535791 
" style="fill:none;stroke:#000000;stroke-linecap:square;stroke-opacity:0.3;stroke-width:0.5;"/>
    <g clip-path="url(#p0d674b4cbc)">
     <use style="fill-opacity:0.3;stroke:#000000;stroke-opacity:0.3;" x="29.655977" xlink:href="#m87e9b39847" y="27.157346"/>
     <use style="fill-opacity:0.3;stroke:#000000;stroke-opacity:0.3;" x="53.143926" xlink:href="#m87e9b39847" y="25.273847"/>
     <use style="fill-opacity:0.3;stroke:#000000;stroke-opacity:0.3;" x="76.631875" xlink:href="#m87e9b39847" y="23.184613"/>
     <use style="fill-opacity:0.3;stroke:#000000;stroke-opacity:0.3;" x="100.119824" xlink:href="#m87e9b39847" y="21.136227"/>
     <use style="fill-opacity:0.3;stroke:#000000;stroke-opacity:0.3;" x="123.607773" xlink:href="#m87e9b39847" y="19.535791"/>
    </g>
   </g>
   <g id="line2d_27">
    <path clip-path="url(#p0d674b4cbc)" d="M 29.655977 24.01617 
L 53.143926 23.762241 
L 76.631875 23.289317 
L 100.119824 23.031043 
L 123.607773 23.102174 
" style="fill:none;stroke:#000000;stroke-linecap:square;stroke-opacity:0.3;stroke-width:0.5;"/>
    <g clip-path="url(#p0d674b4cbc)">
     <use style="fill-opacity:0.3;stroke:#000000;stroke-opacity:0.3;" x="29.655977" xlink:href="#m87e9b39847" y="24.01617"/>
     <use style="fill-opacity:0.3;stroke:#000000;stroke-opacity:0.3;" x="53.143926" xlink:href="#m87e9b39847" y="23.762241"/>
     <use style="fill-opacity:0.3;stroke:#000000;stroke-opacity:0.3;" x="76.631875" xlink:href="#m87e9b39847" y="23.289317"/>
     <use style="fill-opacity:0.3;stroke:#000000;stroke-opacity:0.3;" x="100.119824" xlink:href="#m87e9b39847" y="23.031043"/>
     <use style="fill-opacity:0.3;stroke:#000000;stroke-opacity:0.3;" x="123.607773" xlink:href="#m87e9b39847" y="23.102174"/>
    </g>
   </g>
   <g id="line2d_28">
    <path clip-path="url(#p0d674b4cbc)" d="M 29.655977 24.673679 
L 53.143926 23.914316 
L 76.631875 23.532195 
L 100.119824 22.651829 
L 123.607773 22.096838 
" style="fill:none;stroke:#000000;stroke-linecap:square;stroke-opacity:0.3;stroke-width:0.5;"/>
    <g clip-path="url(#p0d674b4cbc)">
     <use style="fill-opacity:0.3;stroke:#000000;stroke-opacity:0.3;" x="29.655977" xlink:href="#m87e9b39847" y="24.673679"/>
     <use style="fill-opacity:0.3;stroke:#000000;stroke-opacity:0.3;" x="53.143926" xlink:href="#m87e9b39847" y="23.914316"/>
     <use style="fill-opacity:0.3;stroke:#000000;stroke-opacity:0.3;" x="76.631875" xlink:href="#m87e9b39847" y="23.532195"/>
     <use style="fill-opacity:0.3;stroke:#000000;stroke-opacity:0.3;" x="100.119824" xlink:href="#m87e9b39847" y="22.651829"/>
     <use style="fill-opacity:0.3;stroke:#000000;stroke-opacity:0.3;" x="123.607773" xlink:href="#m87e9b39847" y="22.096838"/>
    </g>
   </g>
   <g id="line2d_29">
    <path clip-path="url(#p0d674b4cbc)" d="M 76.631875 38.12351 
L 76.631875 10.183627 
" style="fill:none;stroke:#000000;stroke-dasharray:1.85,0.8;stroke-dashoffset:0;stroke-opacity:0.5;stroke-width:0.5;"/>
   </g>
   <g id="line2d_30">
    <path clip-path="url(#p0d674b4cbc)" d="M 23.78399 23.179564 
L 129.47976 23.179564 
" style="fill:none;stroke:#000000;stroke-dasharray:1.85,0.8;stroke-dashoffset:0;stroke-opacity:0.5;stroke-width:0.5;"/>
   </g>
   <g id="line2d_31">
    <path clip-path="url(#p0d674b4cbc)" d="M 30.243176 10.573505 
L 30.243176 10.31616 
L 52.556727 10.31616 
L 52.556727 10.573505 
" style="fill:none;stroke:#000000;stroke-linecap:square;stroke-width:0.5;"/>
   </g>
   <g id="line2d_32">
    <path clip-path="url(#p0d674b4cbc)" d="M 53.731125 10.573505 
L 53.731125 10.31616 
L 76.044676 10.31616 
L 76.044676 10.573505 
" style="fill:none;stroke:#000000;stroke-linecap:square;stroke-width:0.5;"/>
   </g>
   <g id="line2d_33">
    <path clip-path="url(#p0d674b4cbc)" d="M 77.219074 10.573505 
L 77.219074 10.31616 
L 99.532625 10.31616 
L 99.532625 10.573505 
" style="fill:none;stroke:#000000;stroke-linecap:square;stroke-width:0.5;"/>
   </g>
   <g id="line2d_34">
    <path clip-path="url(#p0d674b4cbc)" d="M 100.707023 10.573505 
L 100.707023 10.31616 
L 123.020574 10.31616 
L 123.020574 10.573505 
" style="fill:none;stroke:#000000;stroke-linecap:square;stroke-width:0.5;"/>
   </g>
   <g id="patch_3">
    <path d="M 23.78399 38.12351 
L 23.78399 10.183627 
" style="fill:none;stroke:#000000;stroke-linecap:square;stroke-linejoin:miter;stroke-width:0.8;"/>
   </g>
   <g id="patch_4">
    <path d="M 23.78399 38.12351 
L 129.47976 38.12351 
" style="fill:none;stroke:#000000;stroke-linecap:square;stroke-linejoin:miter;stroke-width:0.8;"/>
   </g>
   <g id="text_9">
    <!-- ns -->
    <g transform="translate(37.175577 8.72616)scale(0.08 -0.08)">
     <defs>
      <path d="M 6.59375 0 
L 6.59375 51.859375 
L 14.5 51.859375 
L 14.5 44.484375 
Q 20.21875 53.03125 31 53.03125 
Q 35.6875 53.03125 39.625 51.34375 
Q 43.5625 49.65625 45.515625 46.921875 
Q 47.46875 44.1875 48.25 40.4375 
Q 48.734375 37.984375 48.734375 31.890625 
L 48.734375 0 
L 39.9375 0 
L 39.9375 31.546875 
Q 39.9375 36.921875 38.90625 39.578125 
Q 37.890625 42.234375 35.28125 43.8125 
Q 32.671875 45.40625 29.15625 45.40625 
Q 23.53125 45.40625 19.453125 41.84375 
Q 15.375 38.28125 15.375 28.328125 
L 15.375 0 
z
" id="ArialMT-110"/>
      <path d="M 3.078125 15.484375 
L 11.765625 16.84375 
Q 12.5 11.625 15.84375 8.84375 
Q 19.1875 6.0625 25.203125 6.0625 
Q 31.25 6.0625 34.171875 8.515625 
Q 37.109375 10.984375 37.109375 14.3125 
Q 37.109375 17.28125 34.515625 19 
Q 32.71875 20.171875 25.53125 21.96875 
Q 15.875 24.421875 12.140625 26.203125 
Q 8.40625 27.984375 6.46875 31.125 
Q 4.546875 34.28125 4.546875 38.09375 
Q 4.546875 41.546875 6.125 44.5 
Q 7.71875 47.46875 10.453125 49.421875 
Q 12.5 50.921875 16.03125 51.96875 
Q 19.578125 53.03125 23.640625 53.03125 
Q 29.734375 53.03125 34.34375 51.265625 
Q 38.96875 49.515625 41.15625 46.5 
Q 43.359375 43.5 44.1875 38.484375 
L 35.59375 37.3125 
Q 35.015625 41.3125 32.203125 43.546875 
Q 29.390625 45.796875 24.265625 45.796875 
Q 18.21875 45.796875 15.625 43.796875 
Q 13.03125 41.796875 13.03125 39.109375 
Q 13.03125 37.40625 14.109375 36.03125 
Q 15.1875 34.625 17.484375 33.6875 
Q 18.796875 33.203125 25.25 31.453125 
Q 34.578125 28.953125 38.25 27.359375 
Q 41.9375 25.78125 44.03125 22.75 
Q 46.140625 19.734375 46.140625 15.234375 
Q 46.140625 10.84375 43.578125 6.953125 
Q 41.015625 3.078125 36.171875 0.953125 
Q 31.34375 -1.171875 25.25 -1.171875 
Q 15.140625 -1.171875 9.84375 3.03125 
Q 4.546875 7.234375 3.078125 15.484375 
z
" id="ArialMT-115"/>
     </defs>
     <use xlink:href="#ArialMT-110"/>
     <use x="55.615234" xlink:href="#ArialMT-115"/>
    </g>
   </g>
   <g id="text_10">
    <!-- ns -->
    <g transform="translate(60.663526 8.72616)scale(0.08 -0.08)">
     <use xlink:href="#ArialMT-110"/>
     <use x="55.615234" xlink:href="#ArialMT-115"/>
    </g>
   </g>
   <g id="text_11">
    <!-- ns -->
    <g transform="translate(84.151474 8.72616)scale(0.08 -0.08)">
     <use xlink:href="#ArialMT-110"/>
     <use x="55.615234" xlink:href="#ArialMT-115"/>
    </g>
   </g>
   <g id="text_12">
    <!-- ns -->
    <g transform="translate(107.639423 8.72616)scale(0.08 -0.08)">
     <use xlink:href="#ArialMT-110"/>
     <use x="55.615234" xlink:href="#ArialMT-115"/>
    </g>
   </g>
  </g>
 </g>
 <defs>
  <clipPath id="p0d674b4cbc">
   <rect height="27.939883" width="105.69577" x="23.78399" y="10.183627"/>
  </clipPath>
 </defs>
</svg>
