<?xml version="1.0" encoding="utf-8" standalone="no"?>
<!DOCTYPE svg PUBLIC "-//W3C//DTD SVG 1.1//EN"
  "http://www.w3.org/Graphics/SVG/1.1/DTD/svg11.dtd">
<!-- Created with matplotlib (https://matplotlib.org/) -->
<svg height="55.44pt" version="1.1" viewBox="0 0 132.48 55.44" width="132.48pt" xmlns="http://www.w3.org/2000/svg" xmlns:xlink="http://www.w3.org/1999/xlink">
 <metadata>
  <rdf:RDF xmlns:cc="http://creativecommons.org/ns#" xmlns:dc="http://purl.org/dc/elements/1.1/" xmlns:rdf="http://www.w3.org/1999/02/22-rdf-syntax-ns#">
   <cc:Work>
    <dc:type rdf:resource="http://purl.org/dc/dcmitype/StillImage"/>
    <dc:date>2021-11-11T09:58:51.611192</dc:date>
    <dc:format>image/svg+xml</dc:format>
    <dc:creator>
     <cc:Agent>
      <dc:title>Matplotlib v3.3.4, https://matplotlib.org/</dc:title>
     </cc:Agent>
    </dc:creator>
   </cc:Work>
  </rdf:RDF>
 </metadata>
 <defs>
  <style type="text/css">*{stroke-linecap:butt;stroke-linejoin:round;}</style>
 </defs>
 <g id="figure_1">
  <g id="patch_1">
   <path d="M 0 55.44 
L 132.48 55.44 
L 132.48 0 
L 0 0 
z
" style="fill:#ffffff;"/>
  </g>
  <g id="axes_1">
   <g id="patch_2">
    <path d="M 23.78399 38.12351 
L 129.47976 38.12351 
L 129.47976 3.00024 
L 23.78399 3.00024 
z
" style="fill:#ffffff;"/>
   </g>
   <g id="PolyCollection_1">
    <path clip-path="url(#pba1764d0c2)" d="M 30.129632 28.246295 
L 29.182323 28.246295 
L 29.173655 28.104755 
L 29.167203 27.963214 
L 29.162664 27.821674 
L 29.159652 27.680134 
L 29.157716 27.538594 
L 29.156362 27.397053 
L 29.155069 27.255513 
L 29.153312 27.113973 
L 29.150582 26.972432 
L 29.146391 26.830892 
L 29.140284 26.689352 
L 29.131836 26.547812 
L 29.120647 26.406271 
L 29.106324 26.264731 
L 29.088464 26.123191 
L 29.066627 25.981651 
L 29.040312 25.84011 
L 29.008929 25.69857 
L 28.971775 25.55703 
L 28.928023 25.415489 
L 28.876709 25.273949 
L 28.816734 25.132409 
L 28.746886 24.990869 
L 28.665865 24.849328 
L 28.572324 24.707788 
L 28.464933 24.566248 
L 28.342437 24.424707 
L 28.203738 24.283167 
L 28.047973 24.141627 
L 27.874593 24.000087 
L 27.683444 23.858546 
L 27.474832 23.717006 
L 27.249582 23.575466 
L 27.009071 23.433926 
L 26.755251 23.292385 
L 26.490642 23.150845 
L 26.2183 23.009305 
L 25.94176 22.867764 
L 25.664965 22.726224 
L 25.392159 22.584684 
L 25.127771 22.443144 
L 24.876293 22.301603 
L 24.642136 22.160063 
L 24.429499 22.018523 
L 24.242236 21.876982 
L 24.08374 21.735442 
L 23.956838 21.593902 
L 23.863713 21.452362 
L 23.805846 21.310821 
L 23.78399 21.169281 
L 23.798161 21.027741 
L 23.847666 20.886201 
L 23.931149 20.74466 
L 24.046653 20.60312 
L 24.191708 20.46158 
L 24.363422 20.320039 
L 24.558579 20.178499 
L 24.773746 20.036959 
L 25.005366 19.895419 
L 25.249857 19.753878 
L 25.503689 19.612338 
L 25.763462 19.470798 
L 26.025963 19.329257 
L 26.288212 19.187717 
L 26.547494 19.046177 
L 26.801387 18.904637 
L 27.047765 18.763096 
L 27.284806 18.621556 
L 27.510982 18.480016 
L 27.725049 18.338476 
L 27.926033 18.196935 
L 28.11321 18.055395 
L 28.286083 17.913855 
L 28.444367 17.772314 
L 28.587964 17.630774 
L 28.716947 17.489234 
L 28.831537 17.347694 
L 28.932092 17.206153 
L 29.019087 17.064613 
L 29.093103 16.923073 
L 29.154816 16.781533 
L 29.204984 16.639992 
L 29.244438 16.498452 
L 29.274075 16.356912 
L 29.294848 16.215371 
L 29.307756 16.073831 
L 29.313839 15.932291 
L 29.31416 15.790751 
L 29.309797 15.64921 
L 29.301832 15.50767 
L 29.291328 15.36613 
L 29.279318 15.224589 
L 29.266785 15.083049 
L 29.254642 14.941509 
L 29.243715 14.799969 
L 29.234727 14.658428 
L 29.228281 14.516888 
L 29.224849 14.375348 
L 29.224766 14.233808 
L 30.087188 14.233808 
L 30.087188 14.233808 
L 30.087105 14.375348 
L 30.083674 14.516888 
L 30.077227 14.658428 
L 30.068239 14.799969 
L 30.057312 14.941509 
L 30.045169 15.083049 
L 30.032636 15.224589 
L 30.020626 15.36613 
L 30.010122 15.50767 
L 30.002157 15.64921 
L 29.997795 15.790751 
L 29.998115 15.932291 
L 30.004198 16.073831 
L 30.017107 16.215371 
L 30.03788 16.356912 
L 30.067517 16.498452 
L 30.106971 16.639992 
L 30.157138 16.781533 
L 30.218851 16.923073 
L 30.292867 17.064613 
L 30.379862 17.206153 
L 30.480417 17.347694 
L 30.595008 17.489234 
L 30.72399 17.630774 
L 30.867588 17.772314 
L 31.025872 17.913855 
L 31.198745 18.055395 
L 31.385921 18.196935 
L 31.586906 18.338476 
L 31.800973 18.480016 
L 32.027148 18.621556 
L 32.264189 18.763096 
L 32.510567 18.904637 
L 32.76446 19.046177 
L 33.023743 19.187717 
L 33.285991 19.329257 
L 33.548492 19.470798 
L 33.808266 19.612338 
L 34.062098 19.753878 
L 34.306588 19.895419 
L 34.538209 20.036959 
L 34.753375 20.178499 
L 34.948533 20.320039 
L 35.120246 20.46158 
L 35.265301 20.60312 
L 35.380806 20.74466 
L 35.464288 20.886201 
L 35.513793 21.027741 
L 35.527964 21.169281 
L 35.506108 21.310821 
L 35.448242 21.452362 
L 35.355117 21.593902 
L 35.228215 21.735442 
L 35.069719 21.876982 
L 34.882456 22.018523 
L 34.669818 22.160063 
L 34.435661 22.301603 
L 34.184183 22.443144 
L 33.919796 22.584684 
L 33.646989 22.726224 
L 33.370194 22.867764 
L 33.093655 23.009305 
L 32.821312 23.150845 
L 32.556703 23.292385 
L 32.302884 23.433926 
L 32.062373 23.575466 
L 31.837122 23.717006 
L 31.62851 23.858546 
L 31.437361 24.000087 
L 31.263981 24.141627 
L 31.108216 24.283167 
L 30.969517 24.424707 
L 30.847022 24.566248 
L 30.73963 24.707788 
L 30.64609 24.849328 
L 30.565068 24.990869 
L 30.49522 25.132409 
L 30.435246 25.273949 
L 30.383931 25.415489 
L 30.340179 25.55703 
L 30.303026 25.69857 
L 30.271642 25.84011 
L 30.245327 25.981651 
L 30.22349 26.123191 
L 30.20563 26.264731 
L 30.191307 26.406271 
L 30.180118 26.547812 
L 30.171671 26.689352 
L 30.165564 26.830892 
L 30.161372 26.972432 
L 30.158642 27.113973 
L 30.156886 27.255513 
L 30.155593 27.397053 
L 30.154238 27.538594 
L 30.152303 27.680134 
L 30.149291 27.821674 
L 30.144751 27.963214 
L 30.138299 28.104755 
L 30.129632 28.246295 
z
" style="fill:#1f77b4;fill-opacity:0.3;"/>
   </g>
   <g id="PolyCollection_2">
    <path clip-path="url(#pba1764d0c2)" d="M 53.595954 25.902289 
L 52.691898 25.902289 
L 52.693164 25.830378 
L 52.697783 25.758468 
L 52.705585 25.686557 
L 52.716308 25.614646 
L 52.729611 25.542735 
L 52.745077 25.470825 
L 52.762228 25.398914 
L 52.780535 25.327003 
L 52.799431 25.255092 
L 52.818325 25.183182 
L 52.836616 25.111271 
L 52.853706 25.03936 
L 52.869008 24.967449 
L 52.881961 24.895539 
L 52.892036 24.823628 
L 52.898748 24.751717 
L 52.901656 24.679806 
L 52.900376 24.607896 
L 52.894578 24.535985 
L 52.883994 24.464074 
L 52.868422 24.392163 
L 52.84772 24.320253 
L 52.821815 24.248342 
L 52.790695 24.176431 
L 52.75441 24.10452 
L 52.713069 24.032609 
L 52.666828 23.960699 
L 52.615886 23.888788 
L 52.560473 23.816877 
L 52.500834 23.744966 
L 52.437214 23.673056 
L 52.369842 23.601145 
L 52.298908 23.529234 
L 52.224548 23.457323 
L 52.146822 23.385413 
L 52.065698 23.313502 
L 51.981037 23.241591 
L 51.892587 23.16968 
L 51.799975 23.09777 
L 51.702716 23.025859 
L 51.600217 22.953948 
L 51.4918 22.882037 
L 51.376728 22.810127 
L 51.25424 22.738216 
L 51.12359 22.666305 
L 50.984095 22.594394 
L 50.835188 22.522484 
L 50.676464 22.450573 
L 50.507736 22.378662 
L 50.329078 22.306751 
L 50.140868 22.23484 
L 49.943822 22.16293 
L 49.739008 22.091019 
L 49.527863 22.019108 
L 49.31218 21.947197 
L 49.094091 21.875287 
L 48.876029 21.803376 
L 48.660682 21.731465 
L 48.450926 21.659554 
L 48.249754 21.587644 
L 48.060197 21.515733 
L 47.885236 21.443822 
L 47.72772 21.371911 
L 47.590276 21.300001 
L 47.475238 21.22809 
L 47.384573 21.156179 
L 47.319828 21.084268 
L 47.282086 21.012358 
L 47.271939 20.940447 
L 47.289479 20.868536 
L 47.334305 20.796625 
L 47.405542 20.724715 
L 47.501878 20.652804 
L 47.621615 20.580893 
L 47.762723 20.508982 
L 47.922907 20.437071 
L 48.099672 20.365161 
L 48.290398 20.29325 
L 48.492405 20.221339 
L 48.703018 20.149428 
L 48.919625 20.077518 
L 49.139733 20.005607 
L 49.361008 19.933696 
L 49.581311 19.861785 
L 49.798726 19.789875 
L 50.011579 19.717964 
L 50.218444 19.646053 
L 50.418149 19.574142 
L 50.60977 19.502232 
L 50.792622 19.430321 
L 50.96624 19.35841 
L 51.130367 19.286499 
L 51.284924 19.214589 
L 51.429992 19.142678 
L 51.565782 19.070767 
L 51.692613 18.998856 
L 51.810882 18.926946 
L 51.921042 18.855035 
L 52.02358 18.783124 
L 54.264272 18.783124 
L 54.264272 18.783124 
L 54.36681 18.855035 
L 54.47697 18.926946 
L 54.595239 18.998856 
L 54.72207 19.070767 
L 54.857861 19.142678 
L 55.002929 19.214589 
L 55.157486 19.286499 
L 55.321612 19.35841 
L 55.495231 19.430321 
L 55.678082 19.502232 
L 55.869703 19.574142 
L 56.069408 19.646053 
L 56.276273 19.717964 
L 56.489126 19.789875 
L 56.706542 19.861785 
L 56.926844 19.933696 
L 57.148119 20.005607 
L 57.368227 20.077518 
L 57.584834 20.149428 
L 57.795447 20.221339 
L 57.997454 20.29325 
L 58.18818 20.365161 
L 58.364946 20.437071 
L 58.525129 20.508982 
L 58.666237 20.580893 
L 58.785974 20.652804 
L 58.88231 20.724715 
L 58.953547 20.796625 
L 58.998373 20.868536 
L 59.015913 20.940447 
L 59.005766 21.012358 
L 58.968024 21.084268 
L 58.903279 21.156179 
L 58.812614 21.22809 
L 58.697576 21.300001 
L 58.560133 21.371911 
L 58.402616 21.443822 
L 58.227656 21.515733 
L 58.038098 21.587644 
L 57.836926 21.659554 
L 57.62717 21.731465 
L 57.411823 21.803376 
L 57.193762 21.875287 
L 56.975672 21.947197 
L 56.759989 22.019108 
L 56.548844 22.091019 
L 56.34403 22.16293 
L 56.146984 22.23484 
L 55.958774 22.306751 
L 55.780117 22.378662 
L 55.611388 22.450573 
L 55.452664 22.522484 
L 55.303757 22.594394 
L 55.164263 22.666305 
L 55.033612 22.738216 
L 54.911124 22.810127 
L 54.796052 22.882037 
L 54.687635 22.953948 
L 54.585136 23.025859 
L 54.487877 23.09777 
L 54.395266 23.16968 
L 54.306815 23.241591 
L 54.222155 23.313502 
L 54.14103 23.385413 
L 54.063304 23.457323 
L 53.988944 23.529234 
L 53.918011 23.601145 
L 53.850638 23.673056 
L 53.787019 23.744966 
L 53.727379 23.816877 
L 53.671966 23.888788 
L 53.621024 23.960699 
L 53.574783 24.032609 
L 53.533442 24.10452 
L 53.497158 24.176431 
L 53.466037 24.248342 
L 53.440132 24.320253 
L 53.419431 24.392163 
L 53.403858 24.464074 
L 53.393275 24.535985 
L 53.387476 24.607896 
L 53.386196 24.679806 
L 53.389104 24.751717 
L 53.395816 24.823628 
L 53.405892 24.895539 
L 53.418844 24.967449 
L 53.434146 25.03936 
L 53.451236 25.111271 
L 53.469527 25.183182 
L 53.488421 25.255092 
L 53.507317 25.327003 
L 53.525624 25.398914 
L 53.542775 25.470825 
L 53.558241 25.542735 
L 53.571544 25.614646 
L 53.582267 25.686557 
L 53.590069 25.758468 
L 53.594689 25.830378 
L 53.595954 25.902289 
z
" style="fill:#1f77b4;fill-opacity:0.3;"/>
   </g>
   <g id="PolyCollection_3">
    <path clip-path="url(#pba1764d0c2)" d="M 77.101731 23.02896 
L 76.162019 23.02896 
L 76.157129 22.998634 
L 76.153828 22.968307 
L 76.15188 22.93798 
L 76.150995 22.907654 
L 76.150834 22.877327 
L 76.151014 22.847 
L 76.151125 22.816674 
L 76.150737 22.786347 
L 76.149417 22.756021 
L 76.146737 22.725694 
L 76.142296 22.695367 
L 76.135724 22.665041 
L 76.126703 22.634714 
L 76.114973 22.604387 
L 76.100343 22.574061 
L 76.082697 22.543734 
L 76.062001 22.513407 
L 76.038301 22.483081 
L 76.011725 22.452754 
L 75.982474 22.422428 
L 75.950821 22.392101 
L 75.917094 22.361774 
L 75.881667 22.331448 
L 75.844943 22.301121 
L 75.807337 22.270794 
L 75.769263 22.240468 
L 75.73111 22.210141 
L 75.693225 22.179814 
L 75.655902 22.149488 
L 75.61936 22.119161 
L 75.583733 22.088835 
L 75.549061 22.058508 
L 75.51528 22.028181 
L 75.482221 21.997855 
L 75.449606 21.967528 
L 75.417057 21.937201 
L 75.384096 21.906875 
L 75.350157 21.876548 
L 75.3146 21.846221 
L 75.276719 21.815895 
L 75.235763 21.785568 
L 75.190951 21.755242 
L 75.141488 21.724915 
L 75.08658 21.694588 
L 75.025458 21.664262 
L 74.957385 21.633935 
L 74.881682 21.603608 
L 74.797733 21.573282 
L 74.705007 21.542955 
L 74.603068 21.512628 
L 74.491588 21.482302 
L 74.370363 21.451975 
L 74.239321 21.421648 
L 74.098536 21.391322 
L 73.948239 21.360995 
L 73.788829 21.330669 
L 73.620882 21.300342 
L 73.445158 21.270015 
L 73.262605 21.239689 
L 73.074367 21.209362 
L 72.881776 21.179035 
L 72.686352 21.148709 
L 72.489789 21.118382 
L 72.293943 21.088055 
L 72.100809 21.057729 
L 71.912496 21.027402 
L 71.73119 20.997076 
L 71.559127 20.966749 
L 71.398539 20.936422 
L 71.25162 20.906096 
L 71.120474 20.875769 
L 71.007068 20.845442 
L 70.913187 20.815116 
L 70.840389 20.784789 
L 70.789968 20.754462 
L 70.762912 20.724136 
L 70.759888 20.693809 
L 70.78121 20.663483 
L 70.826838 20.633156 
L 70.896371 20.602829 
L 70.989061 20.572503 
L 71.103823 20.542176 
L 71.239269 20.511849 
L 71.393735 20.481523 
L 71.565328 20.451196 
L 71.751963 20.420869 
L 71.95142 20.390543 
L 72.161387 20.360216 
L 72.379516 20.32989 
L 72.603469 20.299563 
L 72.830963 20.269236 
L 73.059815 20.23891 
L 73.287973 20.208583 
L 73.51355 20.178256 
L 73.734847 20.14793 
L 73.950366 20.117603 
L 74.158824 20.087276 
L 74.359151 20.05695 
L 74.550495 20.026623 
L 78.713255 20.026623 
L 78.713255 20.026623 
L 78.904599 20.05695 
L 79.104926 20.087276 
L 79.313384 20.117603 
L 79.528903 20.14793 
L 79.7502 20.178256 
L 79.975777 20.208583 
L 80.203935 20.23891 
L 80.432787 20.269236 
L 80.660281 20.299563 
L 80.884234 20.32989 
L 81.102363 20.360216 
L 81.31233 20.390543 
L 81.511787 20.420869 
L 81.698422 20.451196 
L 81.870015 20.481523 
L 82.024481 20.511849 
L 82.159927 20.542176 
L 82.274689 20.572503 
L 82.367379 20.602829 
L 82.436912 20.633156 
L 82.48254 20.663483 
L 82.503862 20.693809 
L 82.500838 20.724136 
L 82.473782 20.754462 
L 82.423361 20.784789 
L 82.350563 20.815116 
L 82.256682 20.845442 
L 82.143276 20.875769 
L 82.01213 20.906096 
L 81.865211 20.936422 
L 81.704623 20.966749 
L 81.53256 20.997076 
L 81.351254 21.027402 
L 81.162941 21.057729 
L 80.969807 21.088055 
L 80.773961 21.118382 
L 80.577398 21.148709 
L 80.381974 21.179035 
L 80.189383 21.209362 
L 80.001145 21.239689 
L 79.818592 21.270015 
L 79.642868 21.300342 
L 79.474921 21.330669 
L 79.315511 21.360995 
L 79.165214 21.391322 
L 79.024429 21.421648 
L 78.893387 21.451975 
L 78.772162 21.482302 
L 78.660682 21.512628 
L 78.558743 21.542955 
L 78.466017 21.573282 
L 78.382068 21.603608 
L 78.306365 21.633935 
L 78.238292 21.664262 
L 78.17717 21.694588 
L 78.122262 21.724915 
L 78.072799 21.755242 
L 78.027987 21.785568 
L 77.987031 21.815895 
L 77.94915 21.846221 
L 77.913593 21.876548 
L 77.879654 21.906875 
L 77.846693 21.937201 
L 77.814144 21.967528 
L 77.781529 21.997855 
L 77.74847 22.028181 
L 77.714689 22.058508 
L 77.680017 22.088835 
L 77.64439 22.119161 
L 77.607848 22.149488 
L 77.570525 22.179814 
L 77.53264 22.210141 
L 77.494487 22.240468 
L 77.456413 22.270794 
L 77.418807 22.301121 
L 77.382083 22.331448 
L 77.346656 22.361774 
L 77.312929 22.392101 
L 77.281276 22.422428 
L 77.252025 22.452754 
L 77.225449 22.483081 
L 77.201749 22.513407 
L 77.181053 22.543734 
L 77.163407 22.574061 
L 77.148777 22.604387 
L 77.137047 22.634714 
L 77.128026 22.665041 
L 77.121454 22.695367 
L 77.117013 22.725694 
L 77.114333 22.756021 
L 77.113013 22.786347 
L 77.112625 22.816674 
L 77.112736 22.847 
L 77.112916 22.877327 
L 77.112755 22.907654 
L 77.11187 22.93798 
L 77.109922 22.968307 
L 77.106621 22.998634 
L 77.101731 23.02896 
z
" style="fill:#1f77b4;fill-opacity:0.3;"/>
   </g>
   <g id="PolyCollection_4">
    <path clip-path="url(#pba1764d0c2)" d="M 100.812399 23.068151 
L 99.427249 23.068151 
L 99.409278 23.02781 
L 99.391638 22.98747 
L 99.373968 22.947129 
L 99.355848 22.906788 
L 99.336805 22.866447 
L 99.316322 22.826106 
L 99.293845 22.785765 
L 99.268791 22.745424 
L 99.240563 22.705083 
L 99.208559 22.664742 
L 99.172183 22.624401 
L 99.130858 22.58406 
L 99.084036 22.543719 
L 99.03121 22.503378 
L 98.971924 22.463037 
L 98.90578 22.422696 
L 98.83245 22.382355 
L 98.751679 22.342014 
L 98.663294 22.301674 
L 98.567204 22.261333 
L 98.463407 22.220992 
L 98.351991 22.180651 
L 98.23313 22.14031 
L 98.10709 22.099969 
L 97.974221 22.059628 
L 97.834955 22.019287 
L 97.689805 21.978946 
L 97.539354 21.938605 
L 97.384253 21.898264 
L 97.225213 21.857923 
L 97.062997 21.817582 
L 96.898408 21.777241 
L 96.732288 21.7369 
L 96.565499 21.696559 
L 96.398924 21.656218 
L 96.233447 21.615877 
L 96.069953 21.575537 
L 95.909312 21.535196 
L 95.752375 21.494855 
L 95.599961 21.454514 
L 95.452857 21.414173 
L 95.311802 21.373832 
L 95.17749 21.333491 
L 95.050558 21.29315 
L 94.931587 21.252809 
L 94.821094 21.212468 
L 94.719536 21.172127 
L 94.627301 21.131786 
L 94.544712 21.091445 
L 94.472024 21.051104 
L 94.409426 21.010763 
L 94.357036 20.970422 
L 94.314911 20.930081 
L 94.283036 20.889741 
L 94.261337 20.8494 
L 94.249671 20.809059 
L 94.247837 20.768718 
L 94.255571 20.728377 
L 94.272553 20.688036 
L 94.298409 20.647695 
L 94.33271 20.607354 
L 94.374984 20.567013 
L 94.424714 20.526672 
L 94.481348 20.486331 
L 94.544304 20.44599 
L 94.612977 20.405649 
L 94.686746 20.365308 
L 94.764988 20.324967 
L 94.847077 20.284626 
L 94.932404 20.244285 
L 95.020378 20.203945 
L 95.110437 20.163604 
L 95.202061 20.123263 
L 95.294772 20.082922 
L 95.388147 20.042581 
L 95.481822 20.00224 
L 95.575496 19.961899 
L 95.668935 19.921558 
L 95.761972 19.881217 
L 95.85451 19.840876 
L 95.946517 19.800535 
L 96.038028 19.760194 
L 96.129133 19.719853 
L 96.219978 19.679512 
L 96.310753 19.639171 
L 96.401682 19.59883 
L 96.49302 19.558489 
L 96.585034 19.518149 
L 96.677998 19.477808 
L 96.772177 19.437467 
L 96.867821 19.397126 
L 96.965148 19.356785 
L 97.064339 19.316444 
L 97.165525 19.276103 
L 97.268783 19.235762 
L 97.374124 19.195421 
L 97.481497 19.15508 
L 97.590778 19.114739 
L 97.701776 19.074398 
L 102.537872 19.074398 
L 102.537872 19.074398 
L 102.64887 19.114739 
L 102.758151 19.15508 
L 102.865524 19.195421 
L 102.970865 19.235762 
L 103.074122 19.276103 
L 103.175309 19.316444 
L 103.274499 19.356785 
L 103.371827 19.397126 
L 103.467471 19.437467 
L 103.56165 19.477808 
L 103.654614 19.518149 
L 103.746628 19.558489 
L 103.837966 19.59883 
L 103.928895 19.639171 
L 104.019669 19.679512 
L 104.110514 19.719853 
L 104.20162 19.760194 
L 104.29313 19.800535 
L 104.385138 19.840876 
L 104.477676 19.881217 
L 104.570713 19.921558 
L 104.664151 19.961899 
L 104.757826 20.00224 
L 104.851501 20.042581 
L 104.944876 20.082922 
L 105.037587 20.123263 
L 105.12921 20.163604 
L 105.21927 20.203945 
L 105.307244 20.244285 
L 105.39257 20.284626 
L 105.47466 20.324967 
L 105.552901 20.365308 
L 105.626671 20.405649 
L 105.695344 20.44599 
L 105.7583 20.486331 
L 105.814934 20.526672 
L 105.864664 20.567013 
L 105.906938 20.607354 
L 105.941239 20.647695 
L 105.967094 20.688036 
L 105.984077 20.728377 
L 105.991811 20.768718 
L 105.989977 20.809059 
L 105.978311 20.8494 
L 105.956611 20.889741 
L 105.924737 20.930081 
L 105.882611 20.970422 
L 105.830222 21.010763 
L 105.767623 21.051104 
L 105.694936 21.091445 
L 105.612347 21.131786 
L 105.520112 21.172127 
L 105.418553 21.212468 
L 105.308061 21.252809 
L 105.18909 21.29315 
L 105.062158 21.333491 
L 104.927845 21.373832 
L 104.786791 21.414173 
L 104.639686 21.454514 
L 104.487273 21.494855 
L 104.330336 21.535196 
L 104.169695 21.575537 
L 104.006201 21.615877 
L 103.840724 21.656218 
L 103.674149 21.696559 
L 103.50736 21.7369 
L 103.34124 21.777241 
L 103.176651 21.817582 
L 103.014434 21.857923 
L 102.855395 21.898264 
L 102.700294 21.938605 
L 102.549843 21.978946 
L 102.404693 22.019287 
L 102.265427 22.059628 
L 102.132558 22.099969 
L 102.006517 22.14031 
L 101.887657 22.180651 
L 101.77624 22.220992 
L 101.672444 22.261333 
L 101.576354 22.301674 
L 101.487968 22.342014 
L 101.407198 22.382355 
L 101.333868 22.422696 
L 101.267724 22.463037 
L 101.208438 22.503378 
L 101.155612 22.543719 
L 101.10879 22.58406 
L 101.067465 22.624401 
L 101.031089 22.664742 
L 100.999085 22.705083 
L 100.970857 22.745424 
L 100.945803 22.785765 
L 100.923325 22.826106 
L 100.902843 22.866447 
L 100.8838 22.906788 
L 100.86568 22.947129 
L 100.84801 22.98747 
L 100.83037 23.02781 
L 100.812399 23.068151 
z
" style="fill:#1f77b4;fill-opacity:0.3;"/>
   </g>
   <g id="PolyCollection_5">
    <path clip-path="url(#pba1764d0c2)" d="M 124.030944 27.459383 
L 123.184602 27.459383 
L 123.186516 27.32355 
L 123.19261 27.187716 
L 123.20264 27.051883 
L 123.216229 26.91605 
L 123.232879 26.780217 
L 123.251982 26.644384 
L 123.272844 26.50855 
L 123.294705 26.372717 
L 123.316757 26.236884 
L 123.33816 26.101051 
L 123.358064 25.965218 
L 123.375611 25.829384 
L 123.38995 25.693551 
L 123.400233 25.557718 
L 123.40562 25.421885 
L 123.40527 25.286052 
L 123.398339 25.150218 
L 123.383973 25.014385 
L 123.361304 24.878552 
L 123.329446 24.742719 
L 123.287494 24.606886 
L 123.234535 24.471052 
L 123.169651 24.335219 
L 123.091935 24.199386 
L 123.000516 24.063553 
L 122.894578 23.92772 
L 122.773395 23.791886 
L 122.636361 23.656053 
L 122.483031 23.52022 
L 122.313155 23.384387 
L 122.126721 23.248554 
L 121.923991 23.11272 
L 121.705542 22.976887 
L 121.472292 22.841054 
L 121.225533 22.705221 
L 120.966946 22.569388 
L 120.698611 22.433554 
L 120.423005 22.297721 
L 120.142987 22.161888 
L 119.861767 22.026055 
L 119.582861 21.890222 
L 119.310027 21.754388 
L 119.047193 21.618555 
L 118.798367 21.482722 
L 118.567532 21.346889 
L 118.358545 21.211056 
L 118.175018 21.075222 
L 118.020216 20.939389 
L 117.896948 20.803556 
L 117.807473 20.667723 
L 117.753433 20.53189 
L 117.735786 20.396056 
L 117.75478 20.260223 
L 117.809945 20.12439 
L 117.900109 19.988557 
L 118.02344 19.852723 
L 118.177514 19.71689 
L 118.359394 19.581057 
L 118.565736 19.445224 
L 118.792888 19.309391 
L 119.037008 19.173557 
L 119.294171 19.037724 
L 119.560478 18.901891 
L 119.832147 18.766058 
L 120.105597 18.630225 
L 120.377513 18.494391 
L 120.644897 18.358558 
L 120.905102 18.222725 
L 121.155848 18.086892 
L 121.395227 17.951059 
L 121.621696 17.815225 
L 121.834059 17.679392 
L 122.031441 17.543559 
L 122.213262 17.407726 
L 122.379206 17.271893 
L 122.529187 17.136059 
L 122.663321 17.000226 
L 122.781902 16.864393 
L 122.88537 16.72856 
L 122.974297 16.592727 
L 123.049368 16.456893 
L 123.111365 16.32106 
L 123.161156 16.185227 
L 123.199688 16.049394 
L 123.227975 15.913561 
L 123.247091 15.777727 
L 123.258161 15.641894 
L 123.262353 15.506061 
L 123.260858 15.370228 
L 123.254885 15.234395 
L 123.245635 15.098561 
L 123.234284 14.962728 
L 123.221962 14.826895 
L 123.209727 14.691062 
L 123.198542 14.555229 
L 123.189255 14.419395 
L 123.182579 14.283562 
L 123.179071 14.147729 
L 123.179128 14.011896 
L 124.036417 14.011896 
L 124.036417 14.011896 
L 124.036475 14.147729 
L 124.032967 14.283562 
L 124.02629 14.419395 
L 124.017004 14.555229 
L 124.005819 14.691062 
L 123.993583 14.826895 
L 123.981261 14.962728 
L 123.96991 15.098561 
L 123.96066 15.234395 
L 123.954687 15.370228 
L 123.953193 15.506061 
L 123.957384 15.641894 
L 123.968455 15.777727 
L 123.987571 15.913561 
L 124.015858 16.049394 
L 124.05439 16.185227 
L 124.104181 16.32106 
L 124.166178 16.456893 
L 124.241249 16.592727 
L 124.330176 16.72856 
L 124.433644 16.864393 
L 124.552224 17.000226 
L 124.686359 17.136059 
L 124.83634 17.271893 
L 125.002283 17.407726 
L 125.184105 17.543559 
L 125.381487 17.679392 
L 125.59385 17.815225 
L 125.820319 17.951059 
L 126.059698 18.086892 
L 126.310444 18.222725 
L 126.570648 18.358558 
L 126.838033 18.494391 
L 127.109949 18.630225 
L 127.383399 18.766058 
L 127.655068 18.901891 
L 127.921375 19.037724 
L 128.178538 19.173557 
L 128.422657 19.309391 
L 128.649809 19.445224 
L 128.856151 19.581057 
L 129.038032 19.71689 
L 129.192105 19.852723 
L 129.315437 19.988557 
L 129.4056 20.12439 
L 129.460765 20.260223 
L 129.47976 20.396056 
L 129.462113 20.53189 
L 129.408072 20.667723 
L 129.318598 20.803556 
L 129.195329 20.939389 
L 129.040527 21.075222 
L 128.857001 21.211056 
L 128.648013 21.346889 
L 128.417179 21.482722 
L 128.168352 21.618555 
L 127.905519 21.754388 
L 127.632685 21.890222 
L 127.353778 22.026055 
L 127.072558 22.161888 
L 126.792541 22.297721 
L 126.516935 22.433554 
L 126.2486 22.569388 
L 125.990012 22.705221 
L 125.743253 22.841054 
L 125.510004 22.976887 
L 125.291554 23.11272 
L 125.088825 23.248554 
L 124.90239 23.384387 
L 124.732514 23.52022 
L 124.579184 23.656053 
L 124.442151 23.791886 
L 124.320968 23.92772 
L 124.21503 24.063553 
L 124.123611 24.199386 
L 124.045895 24.335219 
L 123.98101 24.471052 
L 123.928051 24.606886 
L 123.8861 24.742719 
L 123.854242 24.878552 
L 123.831573 25.014385 
L 123.817207 25.150218 
L 123.810276 25.286052 
L 123.809926 25.421885 
L 123.815312 25.557718 
L 123.825596 25.693551 
L 123.839934 25.829384 
L 123.857482 25.965218 
L 123.877385 26.101051 
L 123.898789 26.236884 
L 123.92084 26.372717 
L 123.942701 26.50855 
L 123.963564 26.644384 
L 123.982667 26.780217 
L 123.999316 26.91605 
L 124.012906 27.051883 
L 124.022936 27.187716 
L 124.029029 27.32355 
L 124.030944 27.459383 
z
" style="fill:#1f77b4;fill-opacity:0.3;"/>
   </g>
   <g id="matplotlib.axis_1">
    <g id="xtick_1">
     <g id="line2d_1">
      <defs>
       <path d="M 0 0 
L 0 3.5 
" id="m6f63b9ad85" style="stroke:#000000;stroke-width:0.8;"/>
      </defs>
      <g>
       <use style="stroke:#000000;stroke-width:0.8;" x="29.655977" xlink:href="#m6f63b9ad85" y="38.12351"/>
      </g>
     </g>
     <g id="text_1">
      <!-- -.50 -->
      <g transform="translate(22.764102 50.84976)scale(0.08 -0.08)">
       <defs>
        <path d="M 3.171875 21.484375 
L 3.171875 30.328125 
L 30.171875 30.328125 
L 30.171875 21.484375 
z
" id="ArialMT-45"/>
        <path d="M 9.078125 0 
L 9.078125 10.015625 
L 19.09375 10.015625 
L 19.09375 0 
z
" id="ArialMT-46"/>
        <path d="M 4.15625 18.75 
L 13.375 19.53125 
Q 14.40625 12.796875 18.140625 9.390625 
Q 21.875 6 27.15625 6 
Q 33.5 6 37.890625 10.78125 
Q 42.28125 15.578125 42.28125 23.484375 
Q 42.28125 31 38.0625 35.34375 
Q 33.84375 39.703125 27 39.703125 
Q 22.75 39.703125 19.328125 37.765625 
Q 15.921875 35.84375 13.96875 32.765625 
L 5.71875 33.84375 
L 12.640625 70.609375 
L 48.25 70.609375 
L 48.25 62.203125 
L 19.671875 62.203125 
L 15.828125 42.96875 
Q 22.265625 47.46875 29.34375 47.46875 
Q 38.71875 47.46875 45.15625 40.96875 
Q 51.609375 34.46875 51.609375 24.265625 
Q 51.609375 14.546875 45.953125 7.46875 
Q 39.0625 -1.21875 27.15625 -1.21875 
Q 17.390625 -1.21875 11.203125 4.25 
Q 5.03125 9.71875 4.15625 18.75 
z
" id="ArialMT-53"/>
        <path d="M 4.15625 35.296875 
Q 4.15625 48 6.765625 55.734375 
Q 9.375 63.484375 14.515625 67.671875 
Q 19.671875 71.875 27.484375 71.875 
Q 33.25 71.875 37.59375 69.546875 
Q 41.9375 67.234375 44.765625 62.859375 
Q 47.609375 58.5 49.21875 52.21875 
Q 50.828125 45.953125 50.828125 35.296875 
Q 50.828125 22.703125 48.234375 14.96875 
Q 45.65625 7.234375 40.5 3 
Q 35.359375 -1.21875 27.484375 -1.21875 
Q 17.140625 -1.21875 11.234375 6.203125 
Q 4.15625 15.140625 4.15625 35.296875 
z
M 13.1875 35.296875 
Q 13.1875 17.671875 17.3125 11.828125 
Q 21.4375 6 27.484375 6 
Q 33.546875 6 37.671875 11.859375 
Q 41.796875 17.71875 41.796875 35.296875 
Q 41.796875 52.984375 37.671875 58.78125 
Q 33.546875 64.59375 27.390625 64.59375 
Q 21.34375 64.59375 17.71875 59.46875 
Q 13.1875 52.9375 13.1875 35.296875 
z
" id="ArialMT-48"/>
       </defs>
       <use xlink:href="#ArialMT-45"/>
       <use x="33.300781" xlink:href="#ArialMT-46"/>
       <use x="61.083984" xlink:href="#ArialMT-53"/>
       <use x="116.699219" xlink:href="#ArialMT-48"/>
      </g>
     </g>
    </g>
    <g id="xtick_2">
     <g id="line2d_2">
      <g>
       <use style="stroke:#000000;stroke-width:0.8;" x="53.143926" xlink:href="#m6f63b9ad85" y="38.12351"/>
      </g>
     </g>
     <g id="text_2">
      <!-- -.25 -->
      <g transform="translate(46.252051 50.84976)scale(0.08 -0.08)">
       <defs>
        <path d="M 50.34375 8.453125 
L 50.34375 0 
L 3.03125 0 
Q 2.9375 3.171875 4.046875 6.109375 
Q 5.859375 10.9375 9.828125 15.625 
Q 13.8125 20.3125 21.34375 26.46875 
Q 33.015625 36.03125 37.109375 41.625 
Q 41.21875 47.21875 41.21875 52.203125 
Q 41.21875 57.421875 37.46875 61 
Q 33.734375 64.59375 27.734375 64.59375 
Q 21.390625 64.59375 17.578125 60.78125 
Q 13.765625 56.984375 13.71875 50.25 
L 4.6875 51.171875 
Q 5.609375 61.28125 11.65625 66.578125 
Q 17.71875 71.875 27.9375 71.875 
Q 38.234375 71.875 44.234375 66.15625 
Q 50.25 60.453125 50.25 52 
Q 50.25 47.703125 48.484375 43.546875 
Q 46.734375 39.40625 42.65625 34.8125 
Q 38.578125 30.21875 29.109375 22.21875 
Q 21.1875 15.578125 18.9375 13.203125 
Q 16.703125 10.84375 15.234375 8.453125 
z
" id="ArialMT-50"/>
       </defs>
       <use xlink:href="#ArialMT-45"/>
       <use x="33.300781" xlink:href="#ArialMT-46"/>
       <use x="61.083984" xlink:href="#ArialMT-50"/>
       <use x="116.699219" xlink:href="#ArialMT-53"/>
      </g>
     </g>
    </g>
    <g id="xtick_3">
     <g id="line2d_3">
      <g>
       <use style="stroke:#000000;stroke-width:0.8;" x="76.631875" xlink:href="#m6f63b9ad85" y="38.12351"/>
      </g>
     </g>
     <g id="text_3">
      <!-- 0 -->
      <g transform="translate(74.4075 50.84976)scale(0.08 -0.08)">
       <use xlink:href="#ArialMT-48"/>
      </g>
     </g>
    </g>
    <g id="xtick_4">
     <g id="line2d_4">
      <g>
       <use style="stroke:#000000;stroke-width:0.8;" x="100.119824" xlink:href="#m6f63b9ad85" y="38.12351"/>
      </g>
     </g>
     <g id="text_4">
      <!-- .25 -->
      <g transform="translate(94.559824 50.84976)scale(0.08 -0.08)">
       <use xlink:href="#ArialMT-46"/>
       <use x="27.783203" xlink:href="#ArialMT-50"/>
       <use x="83.398438" xlink:href="#ArialMT-53"/>
      </g>
     </g>
    </g>
    <g id="xtick_5">
     <g id="line2d_5">
      <g>
       <use style="stroke:#000000;stroke-width:0.8;" x="123.607773" xlink:href="#m6f63b9ad85" y="38.12351"/>
      </g>
     </g>
     <g id="text_5">
      <!-- .50 -->
      <g transform="translate(118.047773 50.84976)scale(0.08 -0.08)">
       <use xlink:href="#ArialMT-46"/>
       <use x="27.783203" xlink:href="#ArialMT-53"/>
       <use x="83.398438" xlink:href="#ArialMT-48"/>
      </g>
     </g>
    </g>
   </g>
   <g id="matplotlib.axis_2">
    <g id="ytick_1">
     <g id="line2d_6">
      <defs>
       <path d="M 0 0 
L -3.5 0 
" id="m10dd980875" style="stroke:#000000;stroke-width:0.8;"/>
      </defs>
      <g>
       <use style="stroke:#000000;stroke-width:0.8;" x="23.78399" xlink:href="#m10dd980875" y="30.318339"/>
      </g>
     </g>
     <g id="text_6">
      <!-- -.01 -->
      <g transform="translate(3.00024 33.181464)scale(0.08 -0.08)">
       <defs>
        <path d="M 37.25 0 
L 28.46875 0 
L 28.46875 56 
Q 25.296875 52.984375 20.140625 49.953125 
Q 14.984375 46.921875 10.890625 45.40625 
L 10.890625 53.90625 
Q 18.265625 57.375 23.78125 62.296875 
Q 29.296875 67.234375 31.59375 71.875 
L 37.25 71.875 
z
" id="ArialMT-49"/>
       </defs>
       <use xlink:href="#ArialMT-45"/>
       <use x="33.300781" xlink:href="#ArialMT-46"/>
       <use x="61.083984" xlink:href="#ArialMT-48"/>
       <use x="116.699219" xlink:href="#ArialMT-49"/>
      </g>
     </g>
    </g>
    <g id="ytick_2">
     <g id="line2d_7">
      <g>
       <use style="stroke:#000000;stroke-width:0.8;" x="23.78399" xlink:href="#m10dd980875" y="20.561875"/>
      </g>
     </g>
     <g id="text_7">
      <!-- 0 -->
      <g transform="translate(12.33524 23.425)scale(0.08 -0.08)">
       <use xlink:href="#ArialMT-48"/>
      </g>
     </g>
    </g>
    <g id="ytick_3">
     <g id="line2d_8">
      <g>
       <use style="stroke:#000000;stroke-width:0.8;" x="23.78399" xlink:href="#m10dd980875" y="10.805411"/>
      </g>
     </g>
     <g id="text_8">
      <!-- .01 -->
      <g transform="translate(5.66399 13.668536)scale(0.08 -0.08)">
       <use xlink:href="#ArialMT-46"/>
       <use x="27.783203" xlink:href="#ArialMT-48"/>
       <use x="83.398438" xlink:href="#ArialMT-49"/>
      </g>
     </g>
    </g>
   </g>
   <g id="line2d_9">
    <path clip-path="url(#pba1764d0c2)" d="M 29.655977 20.139825 
L 53.143926 20.971178 
L 76.631875 21.30235 
L 100.119824 21.339716 
L 123.607773 20.908251 
" style="fill:none;stroke:#000000;stroke-linecap:square;stroke-opacity:0.3;stroke-width:0.5;"/>
    <defs>
     <path d="M 0 0.5 
C 0.132602 0.5 0.25979 0.447317 0.353553 0.353553 
C 0.447317 0.25979 0.5 0.132602 0.5 0 
C 0.5 -0.132602 0.447317 -0.25979 0.353553 -0.353553 
C 0.25979 -0.447317 0.132602 -0.5 0 -0.5 
C -0.132602 -0.5 -0.25979 -0.447317 -0.353553 -0.353553 
C -0.447317 -0.25979 -0.5 -0.132602 -0.5 0 
C -0.5 0.132602 -0.447317 0.25979 -0.353553 0.353553 
C -0.25979 0.447317 -0.132602 0.5 0 0.5 
z
" id="m3c7379dc73" style="stroke:#000000;stroke-opacity:0.3;"/>
    </defs>
    <g clip-path="url(#pba1764d0c2)">
     <use style="fill-opacity:0.3;stroke:#000000;stroke-opacity:0.3;" x="29.655977" xlink:href="#m3c7379dc73" y="20.139825"/>
     <use style="fill-opacity:0.3;stroke:#000000;stroke-opacity:0.3;" x="53.143926" xlink:href="#m3c7379dc73" y="20.971178"/>
     <use style="fill-opacity:0.3;stroke:#000000;stroke-opacity:0.3;" x="76.631875" xlink:href="#m3c7379dc73" y="21.30235"/>
     <use style="fill-opacity:0.3;stroke:#000000;stroke-opacity:0.3;" x="100.119824" xlink:href="#m3c7379dc73" y="21.339716"/>
     <use style="fill-opacity:0.3;stroke:#000000;stroke-opacity:0.3;" x="123.607773" xlink:href="#m3c7379dc73" y="20.908251"/>
    </g>
   </g>
   <g id="line2d_10">
    <path clip-path="url(#pba1764d0c2)" d="M 29.655977 21.400448 
L 53.143926 21.062508 
L 76.631875 20.490561 
L 100.119824 20.419258 
L 123.607773 19.768175 
" style="fill:none;stroke:#000000;stroke-linecap:square;stroke-opacity:0.3;stroke-width:0.5;"/>
    <g clip-path="url(#pba1764d0c2)">
     <use style="fill-opacity:0.3;stroke:#000000;stroke-opacity:0.3;" x="29.655977" xlink:href="#m3c7379dc73" y="21.400448"/>
     <use style="fill-opacity:0.3;stroke:#000000;stroke-opacity:0.3;" x="53.143926" xlink:href="#m3c7379dc73" y="21.062508"/>
     <use style="fill-opacity:0.3;stroke:#000000;stroke-opacity:0.3;" x="76.631875" xlink:href="#m3c7379dc73" y="20.490561"/>
     <use style="fill-opacity:0.3;stroke:#000000;stroke-opacity:0.3;" x="100.119824" xlink:href="#m3c7379dc73" y="20.419258"/>
     <use style="fill-opacity:0.3;stroke:#000000;stroke-opacity:0.3;" x="123.607773" xlink:href="#m3c7379dc73" y="19.768175"/>
    </g>
   </g>
   <g id="line2d_11">
    <path clip-path="url(#pba1764d0c2)" d="M 29.655977 21.331182 
L 53.143926 21.021921 
L 76.631875 20.896527 
L 100.119824 19.946834 
L 123.607773 19.95281 
" style="fill:none;stroke:#000000;stroke-linecap:square;stroke-opacity:0.3;stroke-width:0.5;"/>
    <g clip-path="url(#pba1764d0c2)">
     <use style="fill-opacity:0.3;stroke:#000000;stroke-opacity:0.3;" x="29.655977" xlink:href="#m3c7379dc73" y="21.331182"/>
     <use style="fill-opacity:0.3;stroke:#000000;stroke-opacity:0.3;" x="53.143926" xlink:href="#m3c7379dc73" y="21.021921"/>
     <use style="fill-opacity:0.3;stroke:#000000;stroke-opacity:0.3;" x="76.631875" xlink:href="#m3c7379dc73" y="20.896527"/>
     <use style="fill-opacity:0.3;stroke:#000000;stroke-opacity:0.3;" x="100.119824" xlink:href="#m3c7379dc73" y="19.946834"/>
     <use style="fill-opacity:0.3;stroke:#000000;stroke-opacity:0.3;" x="123.607773" xlink:href="#m3c7379dc73" y="19.95281"/>
    </g>
   </g>
   <g id="line2d_12">
    <path clip-path="url(#pba1764d0c2)" d="M 29.655977 20.620598 
L 53.143926 21.381285 
L 76.631875 20.58832 
L 100.119824 21.140868 
L 123.607773 21.462303 
" style="fill:none;stroke:#000000;stroke-linecap:square;stroke-opacity:0.3;stroke-width:0.5;"/>
    <g clip-path="url(#pba1764d0c2)">
     <use style="fill-opacity:0.3;stroke:#000000;stroke-opacity:0.3;" x="29.655977" xlink:href="#m3c7379dc73" y="20.620598"/>
     <use style="fill-opacity:0.3;stroke:#000000;stroke-opacity:0.3;" x="53.143926" xlink:href="#m3c7379dc73" y="21.381285"/>
     <use style="fill-opacity:0.3;stroke:#000000;stroke-opacity:0.3;" x="76.631875" xlink:href="#m3c7379dc73" y="20.58832"/>
     <use style="fill-opacity:0.3;stroke:#000000;stroke-opacity:0.3;" x="100.119824" xlink:href="#m3c7379dc73" y="21.140868"/>
     <use style="fill-opacity:0.3;stroke:#000000;stroke-opacity:0.3;" x="123.607773" xlink:href="#m3c7379dc73" y="21.462303"/>
    </g>
   </g>
   <g id="line2d_13">
    <path clip-path="url(#pba1764d0c2)" d="M 29.655977 22.121664 
L 53.143926 21.660514 
L 76.631875 20.026623 
L 100.119824 21.61027 
L 123.607773 20.292185 
" style="fill:none;stroke:#000000;stroke-linecap:square;stroke-opacity:0.3;stroke-width:0.5;"/>
    <g clip-path="url(#pba1764d0c2)">
     <use style="fill-opacity:0.3;stroke:#000000;stroke-opacity:0.3;" x="29.655977" xlink:href="#m3c7379dc73" y="22.121664"/>
     <use style="fill-opacity:0.3;stroke:#000000;stroke-opacity:0.3;" x="53.143926" xlink:href="#m3c7379dc73" y="21.660514"/>
     <use style="fill-opacity:0.3;stroke:#000000;stroke-opacity:0.3;" x="76.631875" xlink:href="#m3c7379dc73" y="20.026623"/>
     <use style="fill-opacity:0.3;stroke:#000000;stroke-opacity:0.3;" x="100.119824" xlink:href="#m3c7379dc73" y="21.61027"/>
     <use style="fill-opacity:0.3;stroke:#000000;stroke-opacity:0.3;" x="123.607773" xlink:href="#m3c7379dc73" y="20.292185"/>
    </g>
   </g>
   <g id="line2d_14">
    <path clip-path="url(#pba1764d0c2)" d="M 29.655977 25.194229 
L 53.143926 23.115111 
L 76.631875 22.06179 
L 100.119824 19.144445 
L 123.607773 18.008614 
" style="fill:none;stroke:#000000;stroke-linecap:square;stroke-opacity:0.3;stroke-width:0.5;"/>
    <g clip-path="url(#pba1764d0c2)">
     <use style="fill-opacity:0.3;stroke:#000000;stroke-opacity:0.3;" x="29.655977" xlink:href="#m3c7379dc73" y="25.194229"/>
     <use style="fill-opacity:0.3;stroke:#000000;stroke-opacity:0.3;" x="53.143926" xlink:href="#m3c7379dc73" y="23.115111"/>
     <use style="fill-opacity:0.3;stroke:#000000;stroke-opacity:0.3;" x="76.631875" xlink:href="#m3c7379dc73" y="22.06179"/>
     <use style="fill-opacity:0.3;stroke:#000000;stroke-opacity:0.3;" x="100.119824" xlink:href="#m3c7379dc73" y="19.144445"/>
     <use style="fill-opacity:0.3;stroke:#000000;stroke-opacity:0.3;" x="123.607773" xlink:href="#m3c7379dc73" y="18.008614"/>
    </g>
   </g>
   <g id="line2d_15">
    <path clip-path="url(#pba1764d0c2)" d="M 29.655977 20.059702 
L 53.143926 19.76827 
L 76.631875 21.061456 
L 100.119824 20.853089 
L 123.607773 21.168614 
" style="fill:none;stroke:#000000;stroke-linecap:square;stroke-opacity:0.3;stroke-width:0.5;"/>
    <g clip-path="url(#pba1764d0c2)">
     <use style="fill-opacity:0.3;stroke:#000000;stroke-opacity:0.3;" x="29.655977" xlink:href="#m3c7379dc73" y="20.059702"/>
     <use style="fill-opacity:0.3;stroke:#000000;stroke-opacity:0.3;" x="53.143926" xlink:href="#m3c7379dc73" y="19.76827"/>
     <use style="fill-opacity:0.3;stroke:#000000;stroke-opacity:0.3;" x="76.631875" xlink:href="#m3c7379dc73" y="21.061456"/>
     <use style="fill-opacity:0.3;stroke:#000000;stroke-opacity:0.3;" x="100.119824" xlink:href="#m3c7379dc73" y="20.853089"/>
     <use style="fill-opacity:0.3;stroke:#000000;stroke-opacity:0.3;" x="123.607773" xlink:href="#m3c7379dc73" y="21.168614"/>
    </g>
   </g>
   <g id="line2d_16">
    <path clip-path="url(#pba1764d0c2)" d="M 29.655977 20.775914 
L 53.143926 20.7091 
L 76.631875 20.734686 
L 100.119824 20.414774 
L 123.607773 20.520341 
" style="fill:none;stroke:#000000;stroke-linecap:square;stroke-opacity:0.3;stroke-width:0.5;"/>
    <g clip-path="url(#pba1764d0c2)">
     <use style="fill-opacity:0.3;stroke:#000000;stroke-opacity:0.3;" x="29.655977" xlink:href="#m3c7379dc73" y="20.775914"/>
     <use style="fill-opacity:0.3;stroke:#000000;stroke-opacity:0.3;" x="53.143926" xlink:href="#m3c7379dc73" y="20.7091"/>
     <use style="fill-opacity:0.3;stroke:#000000;stroke-opacity:0.3;" x="76.631875" xlink:href="#m3c7379dc73" y="20.734686"/>
     <use style="fill-opacity:0.3;stroke:#000000;stroke-opacity:0.3;" x="100.119824" xlink:href="#m3c7379dc73" y="20.414774"/>
     <use style="fill-opacity:0.3;stroke:#000000;stroke-opacity:0.3;" x="123.607773" xlink:href="#m3c7379dc73" y="20.520341"/>
    </g>
   </g>
   <g id="line2d_17">
    <path clip-path="url(#pba1764d0c2)" d="M 29.655977 22.349856 
L 53.143926 21.986003 
L 76.631875 20.490706 
L 100.119824 19.352977 
L 123.607773 19.044051 
" style="fill:none;stroke:#000000;stroke-linecap:square;stroke-opacity:0.3;stroke-width:0.5;"/>
    <g clip-path="url(#pba1764d0c2)">
     <use style="fill-opacity:0.3;stroke:#000000;stroke-opacity:0.3;" x="29.655977" xlink:href="#m3c7379dc73" y="22.349856"/>
     <use style="fill-opacity:0.3;stroke:#000000;stroke-opacity:0.3;" x="53.143926" xlink:href="#m3c7379dc73" y="21.986003"/>
     <use style="fill-opacity:0.3;stroke:#000000;stroke-opacity:0.3;" x="76.631875" xlink:href="#m3c7379dc73" y="20.490706"/>
     <use style="fill-opacity:0.3;stroke:#000000;stroke-opacity:0.3;" x="100.119824" xlink:href="#m3c7379dc73" y="19.352977"/>
     <use style="fill-opacity:0.3;stroke:#000000;stroke-opacity:0.3;" x="123.607773" xlink:href="#m3c7379dc73" y="19.044051"/>
    </g>
   </g>
   <g id="line2d_18">
    <path clip-path="url(#pba1764d0c2)" d="M 29.655977 21.744795 
L 53.143926 20.716516 
L 76.631875 20.854056 
L 100.119824 19.83447 
L 123.607773 19.533391 
" style="fill:none;stroke:#000000;stroke-linecap:square;stroke-opacity:0.3;stroke-width:0.5;"/>
    <g clip-path="url(#pba1764d0c2)">
     <use style="fill-opacity:0.3;stroke:#000000;stroke-opacity:0.3;" x="29.655977" xlink:href="#m3c7379dc73" y="21.744795"/>
     <use style="fill-opacity:0.3;stroke:#000000;stroke-opacity:0.3;" x="53.143926" xlink:href="#m3c7379dc73" y="20.716516"/>
     <use style="fill-opacity:0.3;stroke:#000000;stroke-opacity:0.3;" x="76.631875" xlink:href="#m3c7379dc73" y="20.854056"/>
     <use style="fill-opacity:0.3;stroke:#000000;stroke-opacity:0.3;" x="100.119824" xlink:href="#m3c7379dc73" y="19.83447"/>
     <use style="fill-opacity:0.3;stroke:#000000;stroke-opacity:0.3;" x="123.607773" xlink:href="#m3c7379dc73" y="19.533391"/>
    </g>
   </g>
   <g id="line2d_19">
    <path clip-path="url(#pba1764d0c2)" d="M 29.655977 20.106889 
L 53.143926 20.556332 
L 76.631875 21.398722 
L 100.119824 20.791848 
L 123.607773 20.995715 
" style="fill:none;stroke:#000000;stroke-linecap:square;stroke-opacity:0.3;stroke-width:0.5;"/>
    <g clip-path="url(#pba1764d0c2)">
     <use style="fill-opacity:0.3;stroke:#000000;stroke-opacity:0.3;" x="29.655977" xlink:href="#m3c7379dc73" y="20.106889"/>
     <use style="fill-opacity:0.3;stroke:#000000;stroke-opacity:0.3;" x="53.143926" xlink:href="#m3c7379dc73" y="20.556332"/>
     <use style="fill-opacity:0.3;stroke:#000000;stroke-opacity:0.3;" x="76.631875" xlink:href="#m3c7379dc73" y="21.398722"/>
     <use style="fill-opacity:0.3;stroke:#000000;stroke-opacity:0.3;" x="100.119824" xlink:href="#m3c7379dc73" y="20.791848"/>
     <use style="fill-opacity:0.3;stroke:#000000;stroke-opacity:0.3;" x="123.607773" xlink:href="#m3c7379dc73" y="20.995715"/>
    </g>
   </g>
   <g id="line2d_20">
    <path clip-path="url(#pba1764d0c2)" d="M 29.655977 22.747035 
L 53.143926 22.76747 
L 76.631875 20.53024 
L 100.119824 19.785238 
L 123.607773 18.798578 
" style="fill:none;stroke:#000000;stroke-linecap:square;stroke-opacity:0.3;stroke-width:0.5;"/>
    <g clip-path="url(#pba1764d0c2)">
     <use style="fill-opacity:0.3;stroke:#000000;stroke-opacity:0.3;" x="29.655977" xlink:href="#m3c7379dc73" y="22.747035"/>
     <use style="fill-opacity:0.3;stroke:#000000;stroke-opacity:0.3;" x="53.143926" xlink:href="#m3c7379dc73" y="22.76747"/>
     <use style="fill-opacity:0.3;stroke:#000000;stroke-opacity:0.3;" x="76.631875" xlink:href="#m3c7379dc73" y="20.53024"/>
     <use style="fill-opacity:0.3;stroke:#000000;stroke-opacity:0.3;" x="100.119824" xlink:href="#m3c7379dc73" y="19.785238"/>
     <use style="fill-opacity:0.3;stroke:#000000;stroke-opacity:0.3;" x="123.607773" xlink:href="#m3c7379dc73" y="18.798578"/>
    </g>
   </g>
   <g id="line2d_21">
    <path clip-path="url(#pba1764d0c2)" d="M 29.655977 14.233808 
L 53.143926 18.783124 
L 76.631875 21.974403 
L 100.119824 23.068151 
L 123.607773 27.459383 
" style="fill:none;stroke:#000000;stroke-linecap:square;stroke-opacity:0.3;stroke-width:0.5;"/>
    <g clip-path="url(#pba1764d0c2)">
     <use style="fill-opacity:0.3;stroke:#000000;stroke-opacity:0.3;" x="29.655977" xlink:href="#m3c7379dc73" y="14.233808"/>
     <use style="fill-opacity:0.3;stroke:#000000;stroke-opacity:0.3;" x="53.143926" xlink:href="#m3c7379dc73" y="18.783124"/>
     <use style="fill-opacity:0.3;stroke:#000000;stroke-opacity:0.3;" x="76.631875" xlink:href="#m3c7379dc73" y="21.974403"/>
     <use style="fill-opacity:0.3;stroke:#000000;stroke-opacity:0.3;" x="100.119824" xlink:href="#m3c7379dc73" y="23.068151"/>
     <use style="fill-opacity:0.3;stroke:#000000;stroke-opacity:0.3;" x="123.607773" xlink:href="#m3c7379dc73" y="27.459383"/>
    </g>
   </g>
   <g id="line2d_22">
    <path clip-path="url(#pba1764d0c2)" d="M 29.655977 28.246295 
L 53.143926 25.902289 
L 76.631875 20.58424 
L 100.119824 19.074398 
L 123.607773 14.011896 
" style="fill:none;stroke:#000000;stroke-linecap:square;stroke-opacity:0.3;stroke-width:0.5;"/>
    <g clip-path="url(#pba1764d0c2)">
     <use style="fill-opacity:0.3;stroke:#000000;stroke-opacity:0.3;" x="29.655977" xlink:href="#m3c7379dc73" y="28.246295"/>
     <use style="fill-opacity:0.3;stroke:#000000;stroke-opacity:0.3;" x="53.143926" xlink:href="#m3c7379dc73" y="25.902289"/>
     <use style="fill-opacity:0.3;stroke:#000000;stroke-opacity:0.3;" x="76.631875" xlink:href="#m3c7379dc73" y="20.58424"/>
     <use style="fill-opacity:0.3;stroke:#000000;stroke-opacity:0.3;" x="100.119824" xlink:href="#m3c7379dc73" y="19.074398"/>
     <use style="fill-opacity:0.3;stroke:#000000;stroke-opacity:0.3;" x="123.607773" xlink:href="#m3c7379dc73" y="14.011896"/>
    </g>
   </g>
   <g id="line2d_23">
    <path clip-path="url(#pba1764d0c2)" d="M 29.655977 19.323436 
L 53.143926 19.919593 
L 76.631875 20.734566 
L 100.119824 21.251606 
L 123.607773 22.093209 
" style="fill:none;stroke:#000000;stroke-linecap:square;stroke-opacity:0.3;stroke-width:0.5;"/>
    <g clip-path="url(#pba1764d0c2)">
     <use style="fill-opacity:0.3;stroke:#000000;stroke-opacity:0.3;" x="29.655977" xlink:href="#m3c7379dc73" y="19.323436"/>
     <use style="fill-opacity:0.3;stroke:#000000;stroke-opacity:0.3;" x="53.143926" xlink:href="#m3c7379dc73" y="19.919593"/>
     <use style="fill-opacity:0.3;stroke:#000000;stroke-opacity:0.3;" x="76.631875" xlink:href="#m3c7379dc73" y="20.734566"/>
     <use style="fill-opacity:0.3;stroke:#000000;stroke-opacity:0.3;" x="100.119824" xlink:href="#m3c7379dc73" y="21.251606"/>
     <use style="fill-opacity:0.3;stroke:#000000;stroke-opacity:0.3;" x="123.607773" xlink:href="#m3c7379dc73" y="22.093209"/>
    </g>
   </g>
   <g id="line2d_24">
    <path clip-path="url(#pba1764d0c2)" d="M 29.655977 18.685998 
L 53.143926 20.112975 
L 76.631875 20.810738 
L 100.119824 21.407545 
L 123.607773 22.467584 
" style="fill:none;stroke:#000000;stroke-linecap:square;stroke-opacity:0.3;stroke-width:0.5;"/>
    <g clip-path="url(#pba1764d0c2)">
     <use style="fill-opacity:0.3;stroke:#000000;stroke-opacity:0.3;" x="29.655977" xlink:href="#m3c7379dc73" y="18.685998"/>
     <use style="fill-opacity:0.3;stroke:#000000;stroke-opacity:0.3;" x="53.143926" xlink:href="#m3c7379dc73" y="20.112975"/>
     <use style="fill-opacity:0.3;stroke:#000000;stroke-opacity:0.3;" x="76.631875" xlink:href="#m3c7379dc73" y="20.810738"/>
     <use style="fill-opacity:0.3;stroke:#000000;stroke-opacity:0.3;" x="100.119824" xlink:href="#m3c7379dc73" y="21.407545"/>
     <use style="fill-opacity:0.3;stroke:#000000;stroke-opacity:0.3;" x="123.607773" xlink:href="#m3c7379dc73" y="22.467584"/>
    </g>
   </g>
   <g id="line2d_25">
    <path clip-path="url(#pba1764d0c2)" d="M 29.655977 21.371209 
L 53.143926 20.64038 
L 76.631875 20.386771 
L 100.119824 20.880126 
L 123.607773 20.033669 
" style="fill:none;stroke:#000000;stroke-linecap:square;stroke-opacity:0.3;stroke-width:0.5;"/>
    <g clip-path="url(#pba1764d0c2)">
     <use style="fill-opacity:0.3;stroke:#000000;stroke-opacity:0.3;" x="29.655977" xlink:href="#m3c7379dc73" y="21.371209"/>
     <use style="fill-opacity:0.3;stroke:#000000;stroke-opacity:0.3;" x="53.143926" xlink:href="#m3c7379dc73" y="20.64038"/>
     <use style="fill-opacity:0.3;stroke:#000000;stroke-opacity:0.3;" x="76.631875" xlink:href="#m3c7379dc73" y="20.386771"/>
     <use style="fill-opacity:0.3;stroke:#000000;stroke-opacity:0.3;" x="100.119824" xlink:href="#m3c7379dc73" y="20.880126"/>
     <use style="fill-opacity:0.3;stroke:#000000;stroke-opacity:0.3;" x="123.607773" xlink:href="#m3c7379dc73" y="20.033669"/>
    </g>
   </g>
   <g id="line2d_26">
    <path clip-path="url(#pba1764d0c2)" d="M 29.655977 21.286531 
L 53.143926 21.302822 
L 76.631875 23.02896 
L 100.119824 21.978382 
L 123.607773 21.038904 
" style="fill:none;stroke:#000000;stroke-linecap:square;stroke-opacity:0.3;stroke-width:0.5;"/>
    <g clip-path="url(#pba1764d0c2)">
     <use style="fill-opacity:0.3;stroke:#000000;stroke-opacity:0.3;" x="29.655977" xlink:href="#m3c7379dc73" y="21.286531"/>
     <use style="fill-opacity:0.3;stroke:#000000;stroke-opacity:0.3;" x="53.143926" xlink:href="#m3c7379dc73" y="21.302822"/>
     <use style="fill-opacity:0.3;stroke:#000000;stroke-opacity:0.3;" x="76.631875" xlink:href="#m3c7379dc73" y="23.02896"/>
     <use style="fill-opacity:0.3;stroke:#000000;stroke-opacity:0.3;" x="100.119824" xlink:href="#m3c7379dc73" y="21.978382"/>
     <use style="fill-opacity:0.3;stroke:#000000;stroke-opacity:0.3;" x="123.607773" xlink:href="#m3c7379dc73" y="21.038904"/>
    </g>
   </g>
   <g id="line2d_27">
    <path clip-path="url(#pba1764d0c2)" d="M 29.655977 21.559984 
L 53.143926 21.187041 
L 76.631875 20.694105 
L 100.119824 20.562626 
L 123.607773 20.497946 
" style="fill:none;stroke:#000000;stroke-linecap:square;stroke-opacity:0.3;stroke-width:0.5;"/>
    <g clip-path="url(#pba1764d0c2)">
     <use style="fill-opacity:0.3;stroke:#000000;stroke-opacity:0.3;" x="29.655977" xlink:href="#m3c7379dc73" y="21.559984"/>
     <use style="fill-opacity:0.3;stroke:#000000;stroke-opacity:0.3;" x="53.143926" xlink:href="#m3c7379dc73" y="21.187041"/>
     <use style="fill-opacity:0.3;stroke:#000000;stroke-opacity:0.3;" x="76.631875" xlink:href="#m3c7379dc73" y="20.694105"/>
     <use style="fill-opacity:0.3;stroke:#000000;stroke-opacity:0.3;" x="100.119824" xlink:href="#m3c7379dc73" y="20.562626"/>
     <use style="fill-opacity:0.3;stroke:#000000;stroke-opacity:0.3;" x="123.607773" xlink:href="#m3c7379dc73" y="20.497946"/>
    </g>
   </g>
   <g id="line2d_28">
    <path clip-path="url(#pba1764d0c2)" d="M 29.655977 21.596378 
L 53.143926 21.196308 
L 76.631875 20.823066 
L 100.119824 20.405386 
L 123.607773 19.983642 
" style="fill:none;stroke:#000000;stroke-linecap:square;stroke-opacity:0.3;stroke-width:0.5;"/>
    <g clip-path="url(#pba1764d0c2)">
     <use style="fill-opacity:0.3;stroke:#000000;stroke-opacity:0.3;" x="29.655977" xlink:href="#m3c7379dc73" y="21.596378"/>
     <use style="fill-opacity:0.3;stroke:#000000;stroke-opacity:0.3;" x="53.143926" xlink:href="#m3c7379dc73" y="21.196308"/>
     <use style="fill-opacity:0.3;stroke:#000000;stroke-opacity:0.3;" x="76.631875" xlink:href="#m3c7379dc73" y="20.823066"/>
     <use style="fill-opacity:0.3;stroke:#000000;stroke-opacity:0.3;" x="100.119824" xlink:href="#m3c7379dc73" y="20.405386"/>
     <use style="fill-opacity:0.3;stroke:#000000;stroke-opacity:0.3;" x="123.607773" xlink:href="#m3c7379dc73" y="19.983642"/>
    </g>
   </g>
   <g id="line2d_29">
    <path clip-path="url(#pba1764d0c2)" d="M 76.631875 38.12351 
L 76.631875 3.00024 
" style="fill:none;stroke:#000000;stroke-dasharray:1.85,0.8;stroke-dashoffset:0;stroke-opacity:0.5;stroke-width:0.5;"/>
   </g>
   <g id="line2d_30">
    <path clip-path="url(#pba1764d0c2)" d="M 23.78399 20.561875 
L 129.47976 20.561875 
" style="fill:none;stroke:#000000;stroke-dasharray:1.85,0.8;stroke-dashoffset:0;stroke-opacity:0.5;stroke-width:0.5;"/>
   </g>
   <g id="line2d_31">
    <path clip-path="url(#pba1764d0c2)" d="M 30.243176 13.684397 
L 30.243176 13.553397 
L 52.556727 13.553397 
L 52.556727 13.684397 
" style="fill:none;stroke:#000000;stroke-linecap:square;stroke-width:0.5;"/>
   </g>
   <g id="line2d_32">
    <path clip-path="url(#pba1764d0c2)" d="M 53.731125 13.684397 
L 53.731125 13.553397 
L 76.044676 13.553397 
L 76.044676 13.684397 
" style="fill:none;stroke:#000000;stroke-linecap:square;stroke-width:0.5;"/>
   </g>
   <g id="line2d_33">
    <path clip-path="url(#pba1764d0c2)" d="M 77.219074 13.684397 
L 77.219074 13.553397 
L 99.532625 13.553397 
L 99.532625 13.684397 
" style="fill:none;stroke:#000000;stroke-linecap:square;stroke-width:0.5;"/>
   </g>
   <g id="line2d_34">
    <path clip-path="url(#pba1764d0c2)" d="M 100.707023 13.684397 
L 100.707023 13.553397 
L 123.020574 13.553397 
L 123.020574 13.684397 
" style="fill:none;stroke:#000000;stroke-linecap:square;stroke-width:0.5;"/>
   </g>
   <g id="patch_3">
    <path d="M 23.78399 38.12351 
L 23.78399 3.00024 
" style="fill:none;stroke:#000000;stroke-linecap:square;stroke-linejoin:miter;stroke-width:0.8;"/>
   </g>
   <g id="patch_4">
    <path d="M 23.78399 38.12351 
L 129.47976 38.12351 
" style="fill:none;stroke:#000000;stroke-linecap:square;stroke-linejoin:miter;stroke-width:0.8;"/>
   </g>
   <g id="text_9">
    <!-- ns -->
    <g transform="translate(37.175577 11.963397)scale(0.08 -0.08)">
     <defs>
      <path d="M 6.59375 0 
L 6.59375 51.859375 
L 14.5 51.859375 
L 14.5 44.484375 
Q 20.21875 53.03125 31 53.03125 
Q 35.6875 53.03125 39.625 51.34375 
Q 43.5625 49.65625 45.515625 46.921875 
Q 47.46875 44.1875 48.25 40.4375 
Q 48.734375 37.984375 48.734375 31.890625 
L 48.734375 0 
L 39.9375 0 
L 39.9375 31.546875 
Q 39.9375 36.921875 38.90625 39.578125 
Q 37.890625 42.234375 35.28125 43.8125 
Q 32.671875 45.40625 29.15625 45.40625 
Q 23.53125 45.40625 19.453125 41.84375 
Q 15.375 38.28125 15.375 28.328125 
L 15.375 0 
z
" id="ArialMT-110"/>
      <path d="M 3.078125 15.484375 
L 11.765625 16.84375 
Q 12.5 11.625 15.84375 8.84375 
Q 19.1875 6.0625 25.203125 6.0625 
Q 31.25 6.0625 34.171875 8.515625 
Q 37.109375 10.984375 37.109375 14.3125 
Q 37.109375 17.28125 34.515625 19 
Q 32.71875 20.171875 25.53125 21.96875 
Q 15.875 24.421875 12.140625 26.203125 
Q 8.40625 27.984375 6.46875 31.125 
Q 4.546875 34.28125 4.546875 38.09375 
Q 4.546875 41.546875 6.125 44.5 
Q 7.71875 47.46875 10.453125 49.421875 
Q 12.5 50.921875 16.03125 51.96875 
Q 19.578125 53.03125 23.640625 53.03125 
Q 29.734375 53.03125 34.34375 51.265625 
Q 38.96875 49.515625 41.15625 46.5 
Q 43.359375 43.5 44.1875 38.484375 
L 35.59375 37.3125 
Q 35.015625 41.3125 32.203125 43.546875 
Q 29.390625 45.796875 24.265625 45.796875 
Q 18.21875 45.796875 15.625 43.796875 
Q 13.03125 41.796875 13.03125 39.109375 
Q 13.03125 37.40625 14.109375 36.03125 
Q 15.1875 34.625 17.484375 33.6875 
Q 18.796875 33.203125 25.25 31.453125 
Q 34.578125 28.953125 38.25 27.359375 
Q 41.9375 25.78125 44.03125 22.75 
Q 46.140625 19.734375 46.140625 15.234375 
Q 46.140625 10.84375 43.578125 6.953125 
Q 41.015625 3.078125 36.171875 0.953125 
Q 31.34375 -1.171875 25.25 -1.171875 
Q 15.140625 -1.171875 9.84375 3.03125 
Q 4.546875 7.234375 3.078125 15.484375 
z
" id="ArialMT-115"/>
     </defs>
     <use xlink:href="#ArialMT-110"/>
     <use x="55.615234" xlink:href="#ArialMT-115"/>
    </g>
   </g>
   <g id="text_10">
    <!-- ns -->
    <g transform="translate(60.663526 11.963397)scale(0.08 -0.08)">
     <use xlink:href="#ArialMT-110"/>
     <use x="55.615234" xlink:href="#ArialMT-115"/>
    </g>
   </g>
   <g id="text_11">
    <!-- ns -->
    <g transform="translate(84.151474 11.963397)scale(0.08 -0.08)">
     <use xlink:href="#ArialMT-110"/>
     <use x="55.615234" xlink:href="#ArialMT-115"/>
    </g>
   </g>
   <g id="text_12">
    <!-- ns -->
    <g transform="translate(107.639423 11.963397)scale(0.08 -0.08)">
     <use xlink:href="#ArialMT-110"/>
     <use x="55.615234" xlink:href="#ArialMT-115"/>
    </g>
   </g>
  </g>
 </g>
 <defs>
  <clipPath id="pba1764d0c2">
   <rect height="35.12327" width="105.69577" x="23.78399" y="3.00024"/>
  </clipPath>
 </defs>
</svg>
