<?xml version="1.0" encoding="utf-8" standalone="no"?>
<!DOCTYPE svg PUBLIC "-//W3C//DTD SVG 1.1//EN"
  "http://www.w3.org/Graphics/SVG/1.1/DTD/svg11.dtd">
<!-- Created with matplotlib (https://matplotlib.org/) -->
<svg height="100.8pt" version="1.1" viewBox="0 0 124.56 100.8" width="124.56pt" xmlns="http://www.w3.org/2000/svg" xmlns:xlink="http://www.w3.org/1999/xlink">
 <metadata>
  <rdf:RDF xmlns:cc="http://creativecommons.org/ns#" xmlns:dc="http://purl.org/dc/elements/1.1/" xmlns:rdf="http://www.w3.org/1999/02/22-rdf-syntax-ns#">
   <cc:Work>
    <dc:type rdf:resource="http://purl.org/dc/dcmitype/StillImage"/>
    <dc:date>2021-11-11T09:57:18.356599</dc:date>
    <dc:format>image/svg+xml</dc:format>
    <dc:creator>
     <cc:Agent>
      <dc:title>Matplotlib v3.3.4, https://matplotlib.org/</dc:title>
     </cc:Agent>
    </dc:creator>
   </cc:Work>
  </rdf:RDF>
 </metadata>
 <defs>
  <style type="text/css">*{stroke-linecap:butt;stroke-linejoin:round;}</style>
 </defs>
 <g id="figure_1">
  <g id="patch_1">
   <path d="M 0 100.8 
L 124.56 100.8 
L 124.56 0 
L 0 0 
z
" style="fill:#ffffff;"/>
  </g>
  <g id="axes_1">
   <g id="patch_2">
    <path d="M 32.43649 72.16726 
L 121.55976 72.16726 
L 121.55976 3.00024 
L 32.43649 3.00024 
z
" style="fill:#ffffff;"/>
   </g>
   <g id="matplotlib.axis_1">
    <g id="xtick_1">
     <g id="line2d_1">
      <defs>
       <path d="M 0 0 
L 0 3.5 
" id="m3b70ae6f68" style="stroke:#000000;stroke-width:0.8;"/>
      </defs>
      <g>
       <use style="stroke:#000000;stroke-width:0.8;" x="36.001421" xlink:href="#m3b70ae6f68" y="72.16726"/>
      </g>
     </g>
     <g id="text_1">
      <!-- 0 -->
      <g transform="translate(33.777046 84.89351)scale(0.08 -0.08)">
       <defs>
        <path d="M 4.15625 35.296875 
Q 4.15625 48 6.765625 55.734375 
Q 9.375 63.484375 14.515625 67.671875 
Q 19.671875 71.875 27.484375 71.875 
Q 33.25 71.875 37.59375 69.546875 
Q 41.9375 67.234375 44.765625 62.859375 
Q 47.609375 58.5 49.21875 52.21875 
Q 50.828125 45.953125 50.828125 35.296875 
Q 50.828125 22.703125 48.234375 14.96875 
Q 45.65625 7.234375 40.5 3 
Q 35.359375 -1.21875 27.484375 -1.21875 
Q 17.140625 -1.21875 11.234375 6.203125 
Q 4.15625 15.140625 4.15625 35.296875 
z
M 13.1875 35.296875 
Q 13.1875 17.671875 17.3125 11.828125 
Q 21.4375 6 27.484375 6 
Q 33.546875 6 37.671875 11.859375 
Q 41.796875 17.71875 41.796875 35.296875 
Q 41.796875 52.984375 37.671875 58.78125 
Q 33.546875 64.59375 27.390625 64.59375 
Q 21.34375 64.59375 17.71875 59.46875 
Q 13.1875 52.9375 13.1875 35.296875 
z
" id="ArialMT-48"/>
       </defs>
       <use xlink:href="#ArialMT-48"/>
      </g>
     </g>
    </g>
    <g id="xtick_2">
     <g id="line2d_2">
      <g>
       <use style="stroke:#000000;stroke-width:0.8;" x="71.650729" xlink:href="#m3b70ae6f68" y="72.16726"/>
      </g>
     </g>
     <g id="text_2">
      <!-- 5 -->
      <g transform="translate(69.426354 84.89351)scale(0.08 -0.08)">
       <defs>
        <path d="M 4.15625 18.75 
L 13.375 19.53125 
Q 14.40625 12.796875 18.140625 9.390625 
Q 21.875 6 27.15625 6 
Q 33.5 6 37.890625 10.78125 
Q 42.28125 15.578125 42.28125 23.484375 
Q 42.28125 31 38.0625 35.34375 
Q 33.84375 39.703125 27 39.703125 
Q 22.75 39.703125 19.328125 37.765625 
Q 15.921875 35.84375 13.96875 32.765625 
L 5.71875 33.84375 
L 12.640625 70.609375 
L 48.25 70.609375 
L 48.25 62.203125 
L 19.671875 62.203125 
L 15.828125 42.96875 
Q 22.265625 47.46875 29.34375 47.46875 
Q 38.71875 47.46875 45.15625 40.96875 
Q 51.609375 34.46875 51.609375 24.265625 
Q 51.609375 14.546875 45.953125 7.46875 
Q 39.0625 -1.21875 27.15625 -1.21875 
Q 17.390625 -1.21875 11.203125 4.25 
Q 5.03125 9.71875 4.15625 18.75 
z
" id="ArialMT-53"/>
       </defs>
       <use xlink:href="#ArialMT-53"/>
      </g>
     </g>
    </g>
    <g id="xtick_3">
     <g id="line2d_3">
      <g>
       <use style="stroke:#000000;stroke-width:0.8;" x="107.300037" xlink:href="#m3b70ae6f68" y="72.16726"/>
      </g>
     </g>
     <g id="text_3">
      <!-- 10 -->
      <g transform="translate(102.851287 84.89351)scale(0.08 -0.08)">
       <defs>
        <path d="M 37.25 0 
L 28.46875 0 
L 28.46875 56 
Q 25.296875 52.984375 20.140625 49.953125 
Q 14.984375 46.921875 10.890625 45.40625 
L 10.890625 53.90625 
Q 18.265625 57.375 23.78125 62.296875 
Q 29.296875 67.234375 31.59375 71.875 
L 37.25 71.875 
z
" id="ArialMT-49"/>
       </defs>
       <use xlink:href="#ArialMT-49"/>
       <use x="55.615234" xlink:href="#ArialMT-48"/>
      </g>
     </g>
    </g>
    <g id="text_4">
     <!-- Time step -->
     <g transform="translate(59.58875 96.20976)scale(0.08 -0.08)">
      <defs>
       <path d="M 25.921875 0 
L 25.921875 63.140625 
L 2.34375 63.140625 
L 2.34375 71.578125 
L 59.078125 71.578125 
L 59.078125 63.140625 
L 35.40625 63.140625 
L 35.40625 0 
z
" id="ArialMT-84"/>
       <path d="M 6.640625 61.46875 
L 6.640625 71.578125 
L 15.4375 71.578125 
L 15.4375 61.46875 
z
M 6.640625 0 
L 6.640625 51.859375 
L 15.4375 51.859375 
L 15.4375 0 
z
" id="ArialMT-105"/>
       <path d="M 6.59375 0 
L 6.59375 51.859375 
L 14.453125 51.859375 
L 14.453125 44.578125 
Q 16.890625 48.390625 20.9375 50.703125 
Q 25 53.03125 30.171875 53.03125 
Q 35.9375 53.03125 39.625 50.640625 
Q 43.3125 48.25 44.828125 43.953125 
Q 50.984375 53.03125 60.84375 53.03125 
Q 68.5625 53.03125 72.703125 48.75 
Q 76.859375 44.484375 76.859375 35.59375 
L 76.859375 0 
L 68.109375 0 
L 68.109375 32.671875 
Q 68.109375 37.9375 67.25 40.25 
Q 66.40625 42.578125 64.15625 43.984375 
Q 61.921875 45.40625 58.890625 45.40625 
Q 53.421875 45.40625 49.796875 41.765625 
Q 46.1875 38.140625 46.1875 30.125 
L 46.1875 0 
L 37.40625 0 
L 37.40625 33.6875 
Q 37.40625 39.546875 35.25 42.46875 
Q 33.109375 45.40625 28.21875 45.40625 
Q 24.515625 45.40625 21.359375 43.453125 
Q 18.21875 41.5 16.796875 37.734375 
Q 15.375 33.984375 15.375 26.90625 
L 15.375 0 
z
" id="ArialMT-109"/>
       <path d="M 42.09375 16.703125 
L 51.171875 15.578125 
Q 49.03125 7.625 43.21875 3.21875 
Q 37.40625 -1.171875 28.375 -1.171875 
Q 17 -1.171875 10.328125 5.828125 
Q 3.65625 12.84375 3.65625 25.484375 
Q 3.65625 38.578125 10.390625 45.796875 
Q 17.140625 53.03125 27.875 53.03125 
Q 38.28125 53.03125 44.875 45.953125 
Q 51.46875 38.875 51.46875 26.03125 
Q 51.46875 25.25 51.421875 23.6875 
L 12.75 23.6875 
Q 13.234375 15.140625 17.578125 10.59375 
Q 21.921875 6.0625 28.421875 6.0625 
Q 33.25 6.0625 36.671875 8.59375 
Q 40.09375 11.140625 42.09375 16.703125 
z
M 13.234375 30.90625 
L 42.1875 30.90625 
Q 41.609375 37.453125 38.875 40.71875 
Q 34.671875 45.796875 27.984375 45.796875 
Q 21.921875 45.796875 17.796875 41.75 
Q 13.671875 37.703125 13.234375 30.90625 
z
" id="ArialMT-101"/>
       <path id="ArialMT-32"/>
       <path d="M 3.078125 15.484375 
L 11.765625 16.84375 
Q 12.5 11.625 15.84375 8.84375 
Q 19.1875 6.0625 25.203125 6.0625 
Q 31.25 6.0625 34.171875 8.515625 
Q 37.109375 10.984375 37.109375 14.3125 
Q 37.109375 17.28125 34.515625 19 
Q 32.71875 20.171875 25.53125 21.96875 
Q 15.875 24.421875 12.140625 26.203125 
Q 8.40625 27.984375 6.46875 31.125 
Q 4.546875 34.28125 4.546875 38.09375 
Q 4.546875 41.546875 6.125 44.5 
Q 7.71875 47.46875 10.453125 49.421875 
Q 12.5 50.921875 16.03125 51.96875 
Q 19.578125 53.03125 23.640625 53.03125 
Q 29.734375 53.03125 34.34375 51.265625 
Q 38.96875 49.515625 41.15625 46.5 
Q 43.359375 43.5 44.1875 38.484375 
L 35.59375 37.3125 
Q 35.015625 41.3125 32.203125 43.546875 
Q 29.390625 45.796875 24.265625 45.796875 
Q 18.21875 45.796875 15.625 43.796875 
Q 13.03125 41.796875 13.03125 39.109375 
Q 13.03125 37.40625 14.109375 36.03125 
Q 15.1875 34.625 17.484375 33.6875 
Q 18.796875 33.203125 25.25 31.453125 
Q 34.578125 28.953125 38.25 27.359375 
Q 41.9375 25.78125 44.03125 22.75 
Q 46.140625 19.734375 46.140625 15.234375 
Q 46.140625 10.84375 43.578125 6.953125 
Q 41.015625 3.078125 36.171875 0.953125 
Q 31.34375 -1.171875 25.25 -1.171875 
Q 15.140625 -1.171875 9.84375 3.03125 
Q 4.546875 7.234375 3.078125 15.484375 
z
" id="ArialMT-115"/>
       <path d="M 25.78125 7.859375 
L 27.046875 0.09375 
Q 23.34375 -0.6875 20.40625 -0.6875 
Q 15.625 -0.6875 12.984375 0.828125 
Q 10.359375 2.34375 9.28125 4.8125 
Q 8.203125 7.28125 8.203125 15.1875 
L 8.203125 45.015625 
L 1.765625 45.015625 
L 1.765625 51.859375 
L 8.203125 51.859375 
L 8.203125 64.703125 
L 16.9375 69.96875 
L 16.9375 51.859375 
L 25.78125 51.859375 
L 25.78125 45.015625 
L 16.9375 45.015625 
L 16.9375 14.703125 
Q 16.9375 10.9375 17.40625 9.859375 
Q 17.875 8.796875 18.921875 8.15625 
Q 19.96875 7.515625 21.921875 7.515625 
Q 23.390625 7.515625 25.78125 7.859375 
z
" id="ArialMT-116"/>
       <path d="M 6.59375 -19.875 
L 6.59375 51.859375 
L 14.59375 51.859375 
L 14.59375 45.125 
Q 17.4375 49.078125 21 51.046875 
Q 24.5625 53.03125 29.640625 53.03125 
Q 36.28125 53.03125 41.359375 49.609375 
Q 46.4375 46.1875 49.015625 39.953125 
Q 51.609375 33.734375 51.609375 26.3125 
Q 51.609375 18.359375 48.75 11.984375 
Q 45.90625 5.609375 40.453125 2.21875 
Q 35.015625 -1.171875 29 -1.171875 
Q 24.609375 -1.171875 21.109375 0.6875 
Q 17.625 2.546875 15.375 5.375 
L 15.375 -19.875 
z
M 14.546875 25.640625 
Q 14.546875 15.625 18.59375 10.84375 
Q 22.65625 6.0625 28.421875 6.0625 
Q 34.28125 6.0625 38.453125 11.015625 
Q 42.625 15.96875 42.625 26.375 
Q 42.625 36.28125 38.546875 41.203125 
Q 34.46875 46.140625 28.8125 46.140625 
Q 23.1875 46.140625 18.859375 40.890625 
Q 14.546875 35.640625 14.546875 25.640625 
z
" id="ArialMT-112"/>
      </defs>
      <use xlink:href="#ArialMT-84"/>
      <use x="57.333984" xlink:href="#ArialMT-105"/>
      <use x="79.550781" xlink:href="#ArialMT-109"/>
      <use x="162.851562" xlink:href="#ArialMT-101"/>
      <use x="218.466797" xlink:href="#ArialMT-32"/>
      <use x="246.25" xlink:href="#ArialMT-115"/>
      <use x="296.25" xlink:href="#ArialMT-116"/>
      <use x="324.033203" xlink:href="#ArialMT-101"/>
      <use x="379.648438" xlink:href="#ArialMT-112"/>
     </g>
    </g>
   </g>
   <g id="matplotlib.axis_2">
    <g id="ytick_1">
     <g id="line2d_4">
      <defs>
       <path d="M 0 0 
L -3.5 0 
" id="m642335fcad" style="stroke:#000000;stroke-width:0.8;"/>
      </defs>
      <g>
       <use style="stroke:#000000;stroke-width:0.8;" x="32.43649" xlink:href="#m642335fcad" y="69.023305"/>
      </g>
     </g>
     <g id="text_5">
      <!-- 0.0 -->
      <g transform="translate(14.31649 71.88643)scale(0.08 -0.08)">
       <defs>
        <path d="M 9.078125 0 
L 9.078125 10.015625 
L 19.09375 10.015625 
L 19.09375 0 
z
" id="ArialMT-46"/>
       </defs>
       <use xlink:href="#ArialMT-48"/>
       <use x="55.615234" xlink:href="#ArialMT-46"/>
       <use x="83.398438" xlink:href="#ArialMT-48"/>
      </g>
     </g>
    </g>
    <g id="ytick_2">
     <g id="line2d_5">
      <g>
       <use style="stroke:#000000;stroke-width:0.8;" x="32.43649" xlink:href="#m642335fcad" y="37.58375"/>
      </g>
     </g>
     <g id="text_6">
      <!-- 0.5 -->
      <g transform="translate(14.31649 40.446875)scale(0.08 -0.08)">
       <use xlink:href="#ArialMT-48"/>
       <use x="55.615234" xlink:href="#ArialMT-46"/>
       <use x="83.398438" xlink:href="#ArialMT-53"/>
      </g>
     </g>
    </g>
    <g id="ytick_3">
     <g id="line2d_6">
      <g>
       <use style="stroke:#000000;stroke-width:0.8;" x="32.43649" xlink:href="#m642335fcad" y="6.144195"/>
      </g>
     </g>
     <g id="text_7">
      <!-- 1.0 -->
      <g transform="translate(14.31649 9.00732)scale(0.08 -0.08)">
       <use xlink:href="#ArialMT-49"/>
       <use x="55.615234" xlink:href="#ArialMT-46"/>
       <use x="83.398438" xlink:href="#ArialMT-48"/>
      </g>
     </g>
    </g>
    <g id="text_8">
     <!-- Predictions -->
     <g transform="translate(8.72649 57.37)rotate(-90)scale(0.08 -0.08)">
      <defs>
       <path d="M 7.71875 0 
L 7.71875 71.578125 
L 34.71875 71.578125 
Q 41.84375 71.578125 45.609375 70.90625 
Q 50.875 70.015625 54.4375 67.546875 
Q 58.015625 65.09375 60.1875 60.640625 
Q 62.359375 56.203125 62.359375 50.875 
Q 62.359375 41.75 56.546875 35.421875 
Q 50.734375 29.109375 35.546875 29.109375 
L 17.1875 29.109375 
L 17.1875 0 
z
M 17.1875 37.546875 
L 35.6875 37.546875 
Q 44.875 37.546875 48.734375 40.96875 
Q 52.59375 44.390625 52.59375 50.59375 
Q 52.59375 55.078125 50.3125 58.265625 
Q 48.046875 61.46875 44.34375 62.5 
Q 41.9375 63.140625 35.5 63.140625 
L 17.1875 63.140625 
z
" id="ArialMT-80"/>
       <path d="M 6.5 0 
L 6.5 51.859375 
L 14.40625 51.859375 
L 14.40625 44 
Q 17.4375 49.515625 20 51.265625 
Q 22.5625 53.03125 25.640625 53.03125 
Q 30.078125 53.03125 34.671875 50.203125 
L 31.640625 42.046875 
Q 28.421875 43.953125 25.203125 43.953125 
Q 22.3125 43.953125 20.015625 42.21875 
Q 17.71875 40.484375 16.75 37.40625 
Q 15.28125 32.71875 15.28125 27.15625 
L 15.28125 0 
z
" id="ArialMT-114"/>
       <path d="M 40.234375 0 
L 40.234375 6.546875 
Q 35.296875 -1.171875 25.734375 -1.171875 
Q 19.53125 -1.171875 14.328125 2.25 
Q 9.125 5.671875 6.265625 11.796875 
Q 3.421875 17.921875 3.421875 25.875 
Q 3.421875 33.640625 6 39.96875 
Q 8.59375 46.296875 13.765625 49.65625 
Q 18.953125 53.03125 25.34375 53.03125 
Q 30.03125 53.03125 33.6875 51.046875 
Q 37.359375 49.078125 39.65625 45.90625 
L 39.65625 71.578125 
L 48.390625 71.578125 
L 48.390625 0 
z
M 12.453125 25.875 
Q 12.453125 15.921875 16.640625 10.984375 
Q 20.84375 6.0625 26.5625 6.0625 
Q 32.328125 6.0625 36.34375 10.765625 
Q 40.375 15.484375 40.375 25.140625 
Q 40.375 35.796875 36.265625 40.765625 
Q 32.171875 45.75 26.171875 45.75 
Q 20.3125 45.75 16.375 40.96875 
Q 12.453125 36.1875 12.453125 25.875 
z
" id="ArialMT-100"/>
       <path d="M 40.4375 19 
L 49.078125 17.875 
Q 47.65625 8.9375 41.8125 3.875 
Q 35.984375 -1.171875 27.484375 -1.171875 
Q 16.84375 -1.171875 10.375 5.78125 
Q 3.90625 12.75 3.90625 25.734375 
Q 3.90625 34.125 6.6875 40.421875 
Q 9.46875 46.734375 15.15625 49.875 
Q 20.84375 53.03125 27.546875 53.03125 
Q 35.984375 53.03125 41.359375 48.75 
Q 46.734375 44.484375 48.25 36.625 
L 39.703125 35.296875 
Q 38.484375 40.53125 35.375 43.15625 
Q 32.28125 45.796875 27.875 45.796875 
Q 21.234375 45.796875 17.078125 41.03125 
Q 12.9375 36.28125 12.9375 25.984375 
Q 12.9375 15.53125 16.9375 10.796875 
Q 20.953125 6.0625 27.390625 6.0625 
Q 32.5625 6.0625 36.03125 9.234375 
Q 39.5 12.40625 40.4375 19 
z
" id="ArialMT-99"/>
       <path d="M 3.328125 25.921875 
Q 3.328125 40.328125 11.328125 47.265625 
Q 18.015625 53.03125 27.640625 53.03125 
Q 38.328125 53.03125 45.109375 46.015625 
Q 51.90625 39.015625 51.90625 26.65625 
Q 51.90625 16.65625 48.90625 10.90625 
Q 45.90625 5.171875 40.15625 2 
Q 34.421875 -1.171875 27.640625 -1.171875 
Q 16.75 -1.171875 10.03125 5.8125 
Q 3.328125 12.796875 3.328125 25.921875 
z
M 12.359375 25.921875 
Q 12.359375 15.96875 16.703125 11.015625 
Q 21.046875 6.0625 27.640625 6.0625 
Q 34.1875 6.0625 38.53125 11.03125 
Q 42.875 16.015625 42.875 26.21875 
Q 42.875 35.84375 38.5 40.796875 
Q 34.125 45.75 27.640625 45.75 
Q 21.046875 45.75 16.703125 40.8125 
Q 12.359375 35.890625 12.359375 25.921875 
z
" id="ArialMT-111"/>
       <path d="M 6.59375 0 
L 6.59375 51.859375 
L 14.5 51.859375 
L 14.5 44.484375 
Q 20.21875 53.03125 31 53.03125 
Q 35.6875 53.03125 39.625 51.34375 
Q 43.5625 49.65625 45.515625 46.921875 
Q 47.46875 44.1875 48.25 40.4375 
Q 48.734375 37.984375 48.734375 31.890625 
L 48.734375 0 
L 39.9375 0 
L 39.9375 31.546875 
Q 39.9375 36.921875 38.90625 39.578125 
Q 37.890625 42.234375 35.28125 43.8125 
Q 32.671875 45.40625 29.15625 45.40625 
Q 23.53125 45.40625 19.453125 41.84375 
Q 15.375 38.28125 15.375 28.328125 
L 15.375 0 
z
" id="ArialMT-110"/>
      </defs>
      <use xlink:href="#ArialMT-80"/>
      <use x="66.699219" xlink:href="#ArialMT-114"/>
      <use x="100" xlink:href="#ArialMT-101"/>
      <use x="155.615234" xlink:href="#ArialMT-100"/>
      <use x="211.230469" xlink:href="#ArialMT-105"/>
      <use x="233.447266" xlink:href="#ArialMT-99"/>
      <use x="283.447266" xlink:href="#ArialMT-116"/>
      <use x="311.230469" xlink:href="#ArialMT-105"/>
      <use x="333.447266" xlink:href="#ArialMT-111"/>
      <use x="389.0625" xlink:href="#ArialMT-110"/>
      <use x="444.677734" xlink:href="#ArialMT-115"/>
     </g>
    </g>
   </g>
   <g id="line2d_7">
    <defs>
     <path d="M 0 0.25 
C 0.066301 0.25 0.129895 0.223658 0.176777 0.176777 
C 0.223658 0.129895 0.25 0.066301 0.25 0 
C 0.25 -0.066301 0.223658 -0.129895 0.176777 -0.176777 
C 0.129895 -0.223658 0.066301 -0.25 0 -0.25 
C -0.066301 -0.25 -0.129895 -0.223658 -0.176777 -0.176777 
C -0.223658 -0.129895 -0.25 -0.066301 -0.25 0 
C -0.25 0.066301 -0.223658 0.129895 -0.176777 0.176777 
C -0.129895 0.223658 -0.066301 0.25 0 0.25 
z
" id="mb73e26c9af" style="stroke:#000000;"/>
    </defs>
    <g clip-path="url(#pf57e9ad699)">
     <use style="stroke:#000000;" x="36.001421" xlink:href="#mb73e26c9af" y="69.023305"/>
     <use style="stroke:#000000;" x="43.131282" xlink:href="#mb73e26c9af" y="69.023305"/>
     <use style="stroke:#000000;" x="50.261144" xlink:href="#mb73e26c9af" y="69.023305"/>
     <use style="stroke:#000000;" x="57.391006" xlink:href="#mb73e26c9af" y="69.023305"/>
     <use style="stroke:#000000;" x="64.520867" xlink:href="#mb73e26c9af" y="6.144195"/>
     <use style="stroke:#000000;" x="71.650729" xlink:href="#mb73e26c9af" y="6.144195"/>
     <use style="stroke:#000000;" x="78.78059" xlink:href="#mb73e26c9af" y="6.144195"/>
     <use style="stroke:#000000;" x="85.910452" xlink:href="#mb73e26c9af" y="6.144195"/>
     <use style="stroke:#000000;" x="93.040314" xlink:href="#mb73e26c9af" y="69.023305"/>
     <use style="stroke:#000000;" x="100.170175" xlink:href="#mb73e26c9af" y="6.144195"/>
     <use style="stroke:#000000;" x="107.300037" xlink:href="#mb73e26c9af" y="69.023305"/>
     <use style="stroke:#000000;" x="114.429898" xlink:href="#mb73e26c9af" y="6.144195"/>
    </g>
   </g>
   <g id="line2d_8">
    <path clip-path="url(#pf57e9ad699)" d="M 36.001421 37.58375 
L 43.131282 49.004176 
L 50.261144 54.220875 
L 57.391006 57.337035 
L 64.520867 37.58375 
L 71.650729 26.163324 
L 78.78059 20.946625 
L 85.910452 17.830467 
L 93.040314 46.29348 
L 100.170175 28.496754 
L 107.300037 38.831407 
L 114.429898 35.574062 
" style="fill:none;stroke:#7a5195;stroke-linecap:square;"/>
   </g>
   <g id="line2d_9">
    <path clip-path="url(#pf57e9ad699)" d="M 36.001421 47.074914 
L 43.131282 54.213056 
L 50.261144 53.840003 
L 57.391006 53.887684 
L 64.520867 43.590159 
L 71.650729 32.046423 
L 78.78059 32.820864 
L 85.910452 30.39311 
L 93.040314 48.412941 
L 100.170175 41.761799 
L 107.300037 35.58589 
L 114.429898 51.146834 
" style="fill:none;stroke:#ababab;stroke-linecap:square;"/>
    <defs>
     <path d="M 0 -0.75 
L -0.75 0.75 
L 0.75 0.75 
z
" id="m85d6524b00" style="stroke:#ababab;stroke-linejoin:miter;"/>
    </defs>
    <g clip-path="url(#pf57e9ad699)">
     <use style="fill:#ababab;stroke:#ababab;stroke-linejoin:miter;" x="36.001421" xlink:href="#m85d6524b00" y="47.074914"/>
     <use style="fill:#ababab;stroke:#ababab;stroke-linejoin:miter;" x="43.131282" xlink:href="#m85d6524b00" y="54.213056"/>
     <use style="fill:#ababab;stroke:#ababab;stroke-linejoin:miter;" x="50.261144" xlink:href="#m85d6524b00" y="53.840003"/>
     <use style="fill:#ababab;stroke:#ababab;stroke-linejoin:miter;" x="57.391006" xlink:href="#m85d6524b00" y="53.887684"/>
     <use style="fill:#ababab;stroke:#ababab;stroke-linejoin:miter;" x="64.520867" xlink:href="#m85d6524b00" y="43.590159"/>
     <use style="fill:#ababab;stroke:#ababab;stroke-linejoin:miter;" x="71.650729" xlink:href="#m85d6524b00" y="32.046423"/>
     <use style="fill:#ababab;stroke:#ababab;stroke-linejoin:miter;" x="78.78059" xlink:href="#m85d6524b00" y="32.820864"/>
     <use style="fill:#ababab;stroke:#ababab;stroke-linejoin:miter;" x="85.910452" xlink:href="#m85d6524b00" y="30.39311"/>
     <use style="fill:#ababab;stroke:#ababab;stroke-linejoin:miter;" x="93.040314" xlink:href="#m85d6524b00" y="48.412941"/>
     <use style="fill:#ababab;stroke:#ababab;stroke-linejoin:miter;" x="100.170175" xlink:href="#m85d6524b00" y="41.761799"/>
     <use style="fill:#ababab;stroke:#ababab;stroke-linejoin:miter;" x="107.300037" xlink:href="#m85d6524b00" y="35.58589"/>
     <use style="fill:#ababab;stroke:#ababab;stroke-linejoin:miter;" x="114.429898" xlink:href="#m85d6524b00" y="51.146834"/>
    </g>
   </g>
   <g id="line2d_10">
    <path clip-path="url(#pf57e9ad699)" d="M 36.001421 46.810958 
L 43.131282 50.872704 
L 50.261144 55.211766 
L 57.391006 57.638017 
L 64.520867 43.486293 
L 71.650729 38.028727 
L 78.78059 39.35457 
L 85.910452 27.088542 
L 93.040314 35.094928 
L 100.170175 43.671623 
L 107.300037 28.559101 
L 114.429898 48.061101 
" style="fill:none;stroke:#ababab;stroke-linecap:square;"/>
    <defs>
     <path d="M -0.75 0.75 
L 0.75 0.75 
L 0.75 -0.75 
L -0.75 -0.75 
z
" id="m7c5af90f73" style="stroke:#ababab;stroke-linejoin:miter;"/>
    </defs>
    <g clip-path="url(#pf57e9ad699)">
     <use style="fill:#ababab;stroke:#ababab;stroke-linejoin:miter;" x="36.001421" xlink:href="#m7c5af90f73" y="46.810958"/>
     <use style="fill:#ababab;stroke:#ababab;stroke-linejoin:miter;" x="43.131282" xlink:href="#m7c5af90f73" y="50.872704"/>
     <use style="fill:#ababab;stroke:#ababab;stroke-linejoin:miter;" x="50.261144" xlink:href="#m7c5af90f73" y="55.211766"/>
     <use style="fill:#ababab;stroke:#ababab;stroke-linejoin:miter;" x="57.391006" xlink:href="#m7c5af90f73" y="57.638017"/>
     <use style="fill:#ababab;stroke:#ababab;stroke-linejoin:miter;" x="64.520867" xlink:href="#m7c5af90f73" y="43.486293"/>
     <use style="fill:#ababab;stroke:#ababab;stroke-linejoin:miter;" x="71.650729" xlink:href="#m7c5af90f73" y="38.028727"/>
     <use style="fill:#ababab;stroke:#ababab;stroke-linejoin:miter;" x="78.78059" xlink:href="#m7c5af90f73" y="39.35457"/>
     <use style="fill:#ababab;stroke:#ababab;stroke-linejoin:miter;" x="85.910452" xlink:href="#m7c5af90f73" y="27.088542"/>
     <use style="fill:#ababab;stroke:#ababab;stroke-linejoin:miter;" x="93.040314" xlink:href="#m7c5af90f73" y="35.094928"/>
     <use style="fill:#ababab;stroke:#ababab;stroke-linejoin:miter;" x="100.170175" xlink:href="#m7c5af90f73" y="43.671623"/>
     <use style="fill:#ababab;stroke:#ababab;stroke-linejoin:miter;" x="107.300037" xlink:href="#m7c5af90f73" y="28.559101"/>
     <use style="fill:#ababab;stroke:#ababab;stroke-linejoin:miter;" x="114.429898" xlink:href="#m7c5af90f73" y="48.061101"/>
    </g>
   </g>
   <g id="line2d_11">
    <path clip-path="url(#pf57e9ad699)" d="M 36.001421 56.352173 
L 43.131282 59.231579 
L 50.261144 61.093223 
L 57.391006 62.170334 
L 64.520867 37.515898 
L 71.650729 34.83852 
L 78.78059 30.742099 
L 85.910452 26.757596 
L 93.040314 30.461768 
L 100.170175 32.953048 
L 107.300037 31.197516 
L 114.429898 35.782572 
" style="fill:none;stroke:#ababab;stroke-linecap:square;"/>
    <defs>
     <path d="M -0 1.06066 
L 0.636396 0 
L 0 -1.06066 
L -0.636396 -0 
z
" id="mbc7c6646f7" style="stroke:#ababab;stroke-linejoin:miter;"/>
    </defs>
    <g clip-path="url(#pf57e9ad699)">
     <use style="fill:#ababab;stroke:#ababab;stroke-linejoin:miter;" x="36.001421" xlink:href="#mbc7c6646f7" y="56.352173"/>
     <use style="fill:#ababab;stroke:#ababab;stroke-linejoin:miter;" x="43.131282" xlink:href="#mbc7c6646f7" y="59.231579"/>
     <use style="fill:#ababab;stroke:#ababab;stroke-linejoin:miter;" x="50.261144" xlink:href="#mbc7c6646f7" y="61.093223"/>
     <use style="fill:#ababab;stroke:#ababab;stroke-linejoin:miter;" x="57.391006" xlink:href="#mbc7c6646f7" y="62.170334"/>
     <use style="fill:#ababab;stroke:#ababab;stroke-linejoin:miter;" x="64.520867" xlink:href="#mbc7c6646f7" y="37.515898"/>
     <use style="fill:#ababab;stroke:#ababab;stroke-linejoin:miter;" x="71.650729" xlink:href="#mbc7c6646f7" y="34.83852"/>
     <use style="fill:#ababab;stroke:#ababab;stroke-linejoin:miter;" x="78.78059" xlink:href="#mbc7c6646f7" y="30.742099"/>
     <use style="fill:#ababab;stroke:#ababab;stroke-linejoin:miter;" x="85.910452" xlink:href="#mbc7c6646f7" y="26.757596"/>
     <use style="fill:#ababab;stroke:#ababab;stroke-linejoin:miter;" x="93.040314" xlink:href="#mbc7c6646f7" y="30.461768"/>
     <use style="fill:#ababab;stroke:#ababab;stroke-linejoin:miter;" x="100.170175" xlink:href="#mbc7c6646f7" y="32.953048"/>
     <use style="fill:#ababab;stroke:#ababab;stroke-linejoin:miter;" x="107.300037" xlink:href="#mbc7c6646f7" y="31.197516"/>
     <use style="fill:#ababab;stroke:#ababab;stroke-linejoin:miter;" x="114.429898" xlink:href="#mbc7c6646f7" y="35.782572"/>
    </g>
   </g>
   <g id="line2d_12">
    <path clip-path="url(#pf57e9ad699)" d="M 36.001421 47.540208 
L 43.131282 53.401225 
L 50.261144 56.480845 
L 57.391006 58.310144 
L 64.520867 36.997663 
L 71.650729 28.199105 
L 78.78059 23.291442 
L 85.910452 20.534563 
L 93.040314 49.70903 
L 100.170175 28.971361 
L 107.300037 40.91573 
L 114.429898 36.071568 
" style="fill:none;stroke:#ffa600;stroke-linecap:square;"/>
   </g>
   <g id="patch_3">
    <path d="M 32.43649 72.16726 
L 32.43649 3.00024 
" style="fill:none;stroke:#000000;stroke-linecap:square;stroke-linejoin:miter;stroke-width:0.8;"/>
   </g>
   <g id="patch_4">
    <path d="M 32.43649 72.16726 
L 121.55976 72.16726 
" style="fill:none;stroke:#000000;stroke-linecap:square;stroke-linejoin:miter;stroke-width:0.8;"/>
   </g>
  </g>
 </g>
 <defs>
  <clipPath id="pf57e9ad699">
   <rect height="69.16702" width="89.12327" x="32.43649" y="3.00024"/>
  </clipPath>
 </defs>
</svg>
