<?xml version="1.0" encoding="utf-8" standalone="no"?>
<!DOCTYPE svg PUBLIC "-//W3C//DTD SVG 1.1//EN"
  "http://www.w3.org/Graphics/SVG/1.1/DTD/svg11.dtd">
<!-- Created with matplotlib (https://matplotlib.org/) -->
<svg height="155.52pt" version="1.1" viewBox="0 0 249.12 155.52" width="249.12pt" xmlns="http://www.w3.org/2000/svg" xmlns:xlink="http://www.w3.org/1999/xlink">
 <metadata>
  <rdf:RDF xmlns:cc="http://creativecommons.org/ns#" xmlns:dc="http://purl.org/dc/elements/1.1/" xmlns:rdf="http://www.w3.org/1999/02/22-rdf-syntax-ns#">
   <cc:Work>
    <dc:type rdf:resource="http://purl.org/dc/dcmitype/StillImage"/>
    <dc:date>2021-11-11T09:57:11.582059</dc:date>
    <dc:format>image/svg+xml</dc:format>
    <dc:creator>
     <cc:Agent>
      <dc:title>Matplotlib v3.3.4, https://matplotlib.org/</dc:title>
     </cc:Agent>
    </dc:creator>
   </cc:Work>
  </rdf:RDF>
 </metadata>
 <defs>
  <style type="text/css">*{stroke-linecap:butt;stroke-linejoin:round;}</style>
 </defs>
 <g id="figure_1">
  <g id="patch_1">
   <path d="M 0 155.52 
L 249.12 155.52 
L 249.12 0 
L 0 0 
z
" style="fill:#ffffff;"/>
  </g>
  <g id="axes_1">
   <g id="patch_2">
    <path d="M 32.43649 126.88726 
L 246.11976 126.88726 
L 246.11976 3.00024 
L 32.43649 3.00024 
z
" style="fill:#ffffff;"/>
   </g>
   <g id="matplotlib.axis_1">
    <g id="xtick_1">
     <g id="line2d_1">
      <defs>
       <path d="M 0 0 
L 0 3.5 
" id="m2f5d232e7c" style="stroke:#000000;stroke-width:0.8;"/>
      </defs>
      <g>
       <use style="stroke:#000000;stroke-width:0.8;" x="32.997338" xlink:href="#m2f5d232e7c" y="126.88726"/>
      </g>
     </g>
     <g id="text_1">
      <!-- 0 -->
      <g transform="translate(30.772963 139.61351)scale(0.08 -0.08)">
       <defs>
        <path d="M 4.15625 35.296875 
Q 4.15625 48 6.765625 55.734375 
Q 9.375 63.484375 14.515625 67.671875 
Q 19.671875 71.875 27.484375 71.875 
Q 33.25 71.875 37.59375 69.546875 
Q 41.9375 67.234375 44.765625 62.859375 
Q 47.609375 58.5 49.21875 52.21875 
Q 50.828125 45.953125 50.828125 35.296875 
Q 50.828125 22.703125 48.234375 14.96875 
Q 45.65625 7.234375 40.5 3 
Q 35.359375 -1.21875 27.484375 -1.21875 
Q 17.140625 -1.21875 11.234375 6.203125 
Q 4.15625 15.140625 4.15625 35.296875 
z
M 13.1875 35.296875 
Q 13.1875 17.671875 17.3125 11.828125 
Q 21.4375 6 27.484375 6 
Q 33.546875 6 37.671875 11.859375 
Q 41.796875 17.71875 41.796875 35.296875 
Q 41.796875 52.984375 37.671875 58.78125 
Q 33.546875 64.59375 27.390625 64.59375 
Q 21.34375 64.59375 17.71875 59.46875 
Q 13.1875 52.9375 13.1875 35.296875 
z
" id="ArialMT-48"/>
       </defs>
       <use xlink:href="#ArialMT-48"/>
      </g>
     </g>
    </g>
    <g id="xtick_2">
     <g id="line2d_2">
      <g>
       <use style="stroke:#000000;stroke-width:0.8;" x="61.039762" xlink:href="#m2f5d232e7c" y="126.88726"/>
      </g>
     </g>
     <g id="text_2">
      <!-- 50 -->
      <g transform="translate(56.591012 139.61351)scale(0.08 -0.08)">
       <defs>
        <path d="M 4.15625 18.75 
L 13.375 19.53125 
Q 14.40625 12.796875 18.140625 9.390625 
Q 21.875 6 27.15625 6 
Q 33.5 6 37.890625 10.78125 
Q 42.28125 15.578125 42.28125 23.484375 
Q 42.28125 31 38.0625 35.34375 
Q 33.84375 39.703125 27 39.703125 
Q 22.75 39.703125 19.328125 37.765625 
Q 15.921875 35.84375 13.96875 32.765625 
L 5.71875 33.84375 
L 12.640625 70.609375 
L 48.25 70.609375 
L 48.25 62.203125 
L 19.671875 62.203125 
L 15.828125 42.96875 
Q 22.265625 47.46875 29.34375 47.46875 
Q 38.71875 47.46875 45.15625 40.96875 
Q 51.609375 34.46875 51.609375 24.265625 
Q 51.609375 14.546875 45.953125 7.46875 
Q 39.0625 -1.21875 27.15625 -1.21875 
Q 17.390625 -1.21875 11.203125 4.25 
Q 5.03125 9.71875 4.15625 18.75 
z
" id="ArialMT-53"/>
       </defs>
       <use xlink:href="#ArialMT-53"/>
       <use x="55.615234" xlink:href="#ArialMT-48"/>
      </g>
     </g>
    </g>
    <g id="xtick_3">
     <g id="line2d_3">
      <g>
       <use style="stroke:#000000;stroke-width:0.8;" x="89.082186" xlink:href="#m2f5d232e7c" y="126.88726"/>
      </g>
     </g>
     <g id="text_3">
      <!-- 100 -->
      <g transform="translate(82.409061 139.61351)scale(0.08 -0.08)">
       <defs>
        <path d="M 37.25 0 
L 28.46875 0 
L 28.46875 56 
Q 25.296875 52.984375 20.140625 49.953125 
Q 14.984375 46.921875 10.890625 45.40625 
L 10.890625 53.90625 
Q 18.265625 57.375 23.78125 62.296875 
Q 29.296875 67.234375 31.59375 71.875 
L 37.25 71.875 
z
" id="ArialMT-49"/>
       </defs>
       <use xlink:href="#ArialMT-49"/>
       <use x="55.615234" xlink:href="#ArialMT-48"/>
       <use x="111.230469" xlink:href="#ArialMT-48"/>
      </g>
     </g>
    </g>
    <g id="xtick_4">
     <g id="line2d_4">
      <g>
       <use style="stroke:#000000;stroke-width:0.8;" x="117.12461" xlink:href="#m2f5d232e7c" y="126.88726"/>
      </g>
     </g>
     <g id="text_4">
      <!-- 150 -->
      <g transform="translate(110.451485 139.61351)scale(0.08 -0.08)">
       <use xlink:href="#ArialMT-49"/>
       <use x="55.615234" xlink:href="#ArialMT-53"/>
       <use x="111.230469" xlink:href="#ArialMT-48"/>
      </g>
     </g>
    </g>
    <g id="xtick_5">
     <g id="line2d_5">
      <g>
       <use style="stroke:#000000;stroke-width:0.8;" x="145.167034" xlink:href="#m2f5d232e7c" y="126.88726"/>
      </g>
     </g>
     <g id="text_5">
      <!-- 200 -->
      <g transform="translate(138.493909 139.61351)scale(0.08 -0.08)">
       <defs>
        <path d="M 50.34375 8.453125 
L 50.34375 0 
L 3.03125 0 
Q 2.9375 3.171875 4.046875 6.109375 
Q 5.859375 10.9375 9.828125 15.625 
Q 13.8125 20.3125 21.34375 26.46875 
Q 33.015625 36.03125 37.109375 41.625 
Q 41.21875 47.21875 41.21875 52.203125 
Q 41.21875 57.421875 37.46875 61 
Q 33.734375 64.59375 27.734375 64.59375 
Q 21.390625 64.59375 17.578125 60.78125 
Q 13.765625 56.984375 13.71875 50.25 
L 4.6875 51.171875 
Q 5.609375 61.28125 11.65625 66.578125 
Q 17.71875 71.875 27.9375 71.875 
Q 38.234375 71.875 44.234375 66.15625 
Q 50.25 60.453125 50.25 52 
Q 50.25 47.703125 48.484375 43.546875 
Q 46.734375 39.40625 42.65625 34.8125 
Q 38.578125 30.21875 29.109375 22.21875 
Q 21.1875 15.578125 18.9375 13.203125 
Q 16.703125 10.84375 15.234375 8.453125 
z
" id="ArialMT-50"/>
       </defs>
       <use xlink:href="#ArialMT-50"/>
       <use x="55.615234" xlink:href="#ArialMT-48"/>
       <use x="111.230469" xlink:href="#ArialMT-48"/>
      </g>
     </g>
    </g>
    <g id="xtick_6">
     <g id="line2d_6">
      <g>
       <use style="stroke:#000000;stroke-width:0.8;" x="173.209458" xlink:href="#m2f5d232e7c" y="126.88726"/>
      </g>
     </g>
     <g id="text_6">
      <!-- 250 -->
      <g transform="translate(166.536333 139.61351)scale(0.08 -0.08)">
       <use xlink:href="#ArialMT-50"/>
       <use x="55.615234" xlink:href="#ArialMT-53"/>
       <use x="111.230469" xlink:href="#ArialMT-48"/>
      </g>
     </g>
    </g>
    <g id="xtick_7">
     <g id="line2d_7">
      <g>
       <use style="stroke:#000000;stroke-width:0.8;" x="201.251882" xlink:href="#m2f5d232e7c" y="126.88726"/>
      </g>
     </g>
     <g id="text_7">
      <!-- 300 -->
      <g transform="translate(194.578757 139.61351)scale(0.08 -0.08)">
       <defs>
        <path d="M 4.203125 18.890625 
L 12.984375 20.0625 
Q 14.5 12.59375 18.140625 9.296875 
Q 21.78125 6 27 6 
Q 33.203125 6 37.46875 10.296875 
Q 41.75 14.59375 41.75 20.953125 
Q 41.75 27 37.796875 30.921875 
Q 33.84375 34.859375 27.734375 34.859375 
Q 25.25 34.859375 21.53125 33.890625 
L 22.515625 41.609375 
Q 23.390625 41.5 23.921875 41.5 
Q 29.546875 41.5 34.03125 44.421875 
Q 38.53125 47.359375 38.53125 53.46875 
Q 38.53125 58.296875 35.25 61.46875 
Q 31.984375 64.65625 26.8125 64.65625 
Q 21.6875 64.65625 18.265625 61.421875 
Q 14.84375 58.203125 13.875 51.765625 
L 5.078125 53.328125 
Q 6.6875 62.15625 12.390625 67.015625 
Q 18.109375 71.875 26.609375 71.875 
Q 32.46875 71.875 37.390625 69.359375 
Q 42.328125 66.84375 44.9375 62.5 
Q 47.5625 58.15625 47.5625 53.265625 
Q 47.5625 48.640625 45.0625 44.828125 
Q 42.578125 41.015625 37.703125 38.765625 
Q 44.046875 37.3125 47.5625 32.6875 
Q 51.078125 28.078125 51.078125 21.140625 
Q 51.078125 11.765625 44.234375 5.25 
Q 37.40625 -1.265625 26.953125 -1.265625 
Q 17.53125 -1.265625 11.296875 4.34375 
Q 5.078125 9.96875 4.203125 18.890625 
z
" id="ArialMT-51"/>
       </defs>
       <use xlink:href="#ArialMT-51"/>
       <use x="55.615234" xlink:href="#ArialMT-48"/>
       <use x="111.230469" xlink:href="#ArialMT-48"/>
      </g>
     </g>
    </g>
    <g id="xtick_8">
     <g id="line2d_8">
      <g>
       <use style="stroke:#000000;stroke-width:0.8;" x="229.294306" xlink:href="#m2f5d232e7c" y="126.88726"/>
      </g>
     </g>
     <g id="text_8">
      <!-- 350 -->
      <g transform="translate(222.621181 139.61351)scale(0.08 -0.08)">
       <use xlink:href="#ArialMT-51"/>
       <use x="55.615234" xlink:href="#ArialMT-53"/>
       <use x="111.230469" xlink:href="#ArialMT-48"/>
      </g>
     </g>
    </g>
    <g id="text_9">
     <!-- Time step -->
     <g transform="translate(121.86875 150.92976)scale(0.08 -0.08)">
      <defs>
       <path d="M 25.921875 0 
L 25.921875 63.140625 
L 2.34375 63.140625 
L 2.34375 71.578125 
L 59.078125 71.578125 
L 59.078125 63.140625 
L 35.40625 63.140625 
L 35.40625 0 
z
" id="ArialMT-84"/>
       <path d="M 6.640625 61.46875 
L 6.640625 71.578125 
L 15.4375 71.578125 
L 15.4375 61.46875 
z
M 6.640625 0 
L 6.640625 51.859375 
L 15.4375 51.859375 
L 15.4375 0 
z
" id="ArialMT-105"/>
       <path d="M 6.59375 0 
L 6.59375 51.859375 
L 14.453125 51.859375 
L 14.453125 44.578125 
Q 16.890625 48.390625 20.9375 50.703125 
Q 25 53.03125 30.171875 53.03125 
Q 35.9375 53.03125 39.625 50.640625 
Q 43.3125 48.25 44.828125 43.953125 
Q 50.984375 53.03125 60.84375 53.03125 
Q 68.5625 53.03125 72.703125 48.75 
Q 76.859375 44.484375 76.859375 35.59375 
L 76.859375 0 
L 68.109375 0 
L 68.109375 32.671875 
Q 68.109375 37.9375 67.25 40.25 
Q 66.40625 42.578125 64.15625 43.984375 
Q 61.921875 45.40625 58.890625 45.40625 
Q 53.421875 45.40625 49.796875 41.765625 
Q 46.1875 38.140625 46.1875 30.125 
L 46.1875 0 
L 37.40625 0 
L 37.40625 33.6875 
Q 37.40625 39.546875 35.25 42.46875 
Q 33.109375 45.40625 28.21875 45.40625 
Q 24.515625 45.40625 21.359375 43.453125 
Q 18.21875 41.5 16.796875 37.734375 
Q 15.375 33.984375 15.375 26.90625 
L 15.375 0 
z
" id="ArialMT-109"/>
       <path d="M 42.09375 16.703125 
L 51.171875 15.578125 
Q 49.03125 7.625 43.21875 3.21875 
Q 37.40625 -1.171875 28.375 -1.171875 
Q 17 -1.171875 10.328125 5.828125 
Q 3.65625 12.84375 3.65625 25.484375 
Q 3.65625 38.578125 10.390625 45.796875 
Q 17.140625 53.03125 27.875 53.03125 
Q 38.28125 53.03125 44.875 45.953125 
Q 51.46875 38.875 51.46875 26.03125 
Q 51.46875 25.25 51.421875 23.6875 
L 12.75 23.6875 
Q 13.234375 15.140625 17.578125 10.59375 
Q 21.921875 6.0625 28.421875 6.0625 
Q 33.25 6.0625 36.671875 8.59375 
Q 40.09375 11.140625 42.09375 16.703125 
z
M 13.234375 30.90625 
L 42.1875 30.90625 
Q 41.609375 37.453125 38.875 40.71875 
Q 34.671875 45.796875 27.984375 45.796875 
Q 21.921875 45.796875 17.796875 41.75 
Q 13.671875 37.703125 13.234375 30.90625 
z
" id="ArialMT-101"/>
       <path id="ArialMT-32"/>
       <path d="M 3.078125 15.484375 
L 11.765625 16.84375 
Q 12.5 11.625 15.84375 8.84375 
Q 19.1875 6.0625 25.203125 6.0625 
Q 31.25 6.0625 34.171875 8.515625 
Q 37.109375 10.984375 37.109375 14.3125 
Q 37.109375 17.28125 34.515625 19 
Q 32.71875 20.171875 25.53125 21.96875 
Q 15.875 24.421875 12.140625 26.203125 
Q 8.40625 27.984375 6.46875 31.125 
Q 4.546875 34.28125 4.546875 38.09375 
Q 4.546875 41.546875 6.125 44.5 
Q 7.71875 47.46875 10.453125 49.421875 
Q 12.5 50.921875 16.03125 51.96875 
Q 19.578125 53.03125 23.640625 53.03125 
Q 29.734375 53.03125 34.34375 51.265625 
Q 38.96875 49.515625 41.15625 46.5 
Q 43.359375 43.5 44.1875 38.484375 
L 35.59375 37.3125 
Q 35.015625 41.3125 32.203125 43.546875 
Q 29.390625 45.796875 24.265625 45.796875 
Q 18.21875 45.796875 15.625 43.796875 
Q 13.03125 41.796875 13.03125 39.109375 
Q 13.03125 37.40625 14.109375 36.03125 
Q 15.1875 34.625 17.484375 33.6875 
Q 18.796875 33.203125 25.25 31.453125 
Q 34.578125 28.953125 38.25 27.359375 
Q 41.9375 25.78125 44.03125 22.75 
Q 46.140625 19.734375 46.140625 15.234375 
Q 46.140625 10.84375 43.578125 6.953125 
Q 41.015625 3.078125 36.171875 0.953125 
Q 31.34375 -1.171875 25.25 -1.171875 
Q 15.140625 -1.171875 9.84375 3.03125 
Q 4.546875 7.234375 3.078125 15.484375 
z
" id="ArialMT-115"/>
       <path d="M 25.78125 7.859375 
L 27.046875 0.09375 
Q 23.34375 -0.6875 20.40625 -0.6875 
Q 15.625 -0.6875 12.984375 0.828125 
Q 10.359375 2.34375 9.28125 4.8125 
Q 8.203125 7.28125 8.203125 15.1875 
L 8.203125 45.015625 
L 1.765625 45.015625 
L 1.765625 51.859375 
L 8.203125 51.859375 
L 8.203125 64.703125 
L 16.9375 69.96875 
L 16.9375 51.859375 
L 25.78125 51.859375 
L 25.78125 45.015625 
L 16.9375 45.015625 
L 16.9375 14.703125 
Q 16.9375 10.9375 17.40625 9.859375 
Q 17.875 8.796875 18.921875 8.15625 
Q 19.96875 7.515625 21.921875 7.515625 
Q 23.390625 7.515625 25.78125 7.859375 
z
" id="ArialMT-116"/>
       <path d="M 6.59375 -19.875 
L 6.59375 51.859375 
L 14.59375 51.859375 
L 14.59375 45.125 
Q 17.4375 49.078125 21 51.046875 
Q 24.5625 53.03125 29.640625 53.03125 
Q 36.28125 53.03125 41.359375 49.609375 
Q 46.4375 46.1875 49.015625 39.953125 
Q 51.609375 33.734375 51.609375 26.3125 
Q 51.609375 18.359375 48.75 11.984375 
Q 45.90625 5.609375 40.453125 2.21875 
Q 35.015625 -1.171875 29 -1.171875 
Q 24.609375 -1.171875 21.109375 0.6875 
Q 17.625 2.546875 15.375 5.375 
L 15.375 -19.875 
z
M 14.546875 25.640625 
Q 14.546875 15.625 18.59375 10.84375 
Q 22.65625 6.0625 28.421875 6.0625 
Q 34.28125 6.0625 38.453125 11.015625 
Q 42.625 15.96875 42.625 26.375 
Q 42.625 36.28125 38.546875 41.203125 
Q 34.46875 46.140625 28.8125 46.140625 
Q 23.1875 46.140625 18.859375 40.890625 
Q 14.546875 35.640625 14.546875 25.640625 
z
" id="ArialMT-112"/>
      </defs>
      <use xlink:href="#ArialMT-84"/>
      <use x="57.333984" xlink:href="#ArialMT-105"/>
      <use x="79.550781" xlink:href="#ArialMT-109"/>
      <use x="162.851562" xlink:href="#ArialMT-101"/>
      <use x="218.466797" xlink:href="#ArialMT-32"/>
      <use x="246.25" xlink:href="#ArialMT-115"/>
      <use x="296.25" xlink:href="#ArialMT-116"/>
      <use x="324.033203" xlink:href="#ArialMT-101"/>
      <use x="379.648438" xlink:href="#ArialMT-112"/>
     </g>
    </g>
   </g>
   <g id="matplotlib.axis_2">
    <g id="ytick_1">
     <g id="line2d_9">
      <defs>
       <path d="M 0 0 
L -3.5 0 
" id="ma8ad6e75e8" style="stroke:#000000;stroke-width:0.8;"/>
      </defs>
      <g>
       <use style="stroke:#000000;stroke-width:0.8;" x="32.43649" xlink:href="#ma8ad6e75e8" y="121.256032"/>
      </g>
     </g>
     <g id="text_10">
      <!-- 0.0 -->
      <g transform="translate(14.31649 124.119157)scale(0.08 -0.08)">
       <defs>
        <path d="M 9.078125 0 
L 9.078125 10.015625 
L 19.09375 10.015625 
L 19.09375 0 
z
" id="ArialMT-46"/>
       </defs>
       <use xlink:href="#ArialMT-48"/>
       <use x="55.615234" xlink:href="#ArialMT-46"/>
       <use x="83.398438" xlink:href="#ArialMT-48"/>
      </g>
     </g>
    </g>
    <g id="ytick_2">
     <g id="line2d_10">
      <g>
       <use style="stroke:#000000;stroke-width:0.8;" x="32.43649" xlink:href="#ma8ad6e75e8" y="98.731119"/>
      </g>
     </g>
     <g id="text_11">
      <!-- 0.2 -->
      <g transform="translate(14.31649 101.594244)scale(0.08 -0.08)">
       <use xlink:href="#ArialMT-48"/>
       <use x="55.615234" xlink:href="#ArialMT-46"/>
       <use x="83.398438" xlink:href="#ArialMT-50"/>
      </g>
     </g>
    </g>
    <g id="ytick_3">
     <g id="line2d_11">
      <g>
       <use style="stroke:#000000;stroke-width:0.8;" x="32.43649" xlink:href="#ma8ad6e75e8" y="76.206206"/>
      </g>
     </g>
     <g id="text_12">
      <!-- 0.4 -->
      <g transform="translate(14.31649 79.069331)scale(0.08 -0.08)">
       <defs>
        <path d="M 32.328125 0 
L 32.328125 17.140625 
L 1.265625 17.140625 
L 1.265625 25.203125 
L 33.9375 71.578125 
L 41.109375 71.578125 
L 41.109375 25.203125 
L 50.78125 25.203125 
L 50.78125 17.140625 
L 41.109375 17.140625 
L 41.109375 0 
z
M 32.328125 25.203125 
L 32.328125 57.46875 
L 9.90625 25.203125 
z
" id="ArialMT-52"/>
       </defs>
       <use xlink:href="#ArialMT-48"/>
       <use x="55.615234" xlink:href="#ArialMT-46"/>
       <use x="83.398438" xlink:href="#ArialMT-52"/>
      </g>
     </g>
    </g>
    <g id="ytick_4">
     <g id="line2d_12">
      <g>
       <use style="stroke:#000000;stroke-width:0.8;" x="32.43649" xlink:href="#ma8ad6e75e8" y="53.681294"/>
      </g>
     </g>
     <g id="text_13">
      <!-- 0.6 -->
      <g transform="translate(14.31649 56.544419)scale(0.08 -0.08)">
       <defs>
        <path d="M 49.75 54.046875 
L 41.015625 53.375 
Q 39.84375 58.546875 37.703125 60.890625 
Q 34.125 64.65625 28.90625 64.65625 
Q 24.703125 64.65625 21.53125 62.3125 
Q 17.390625 59.28125 14.984375 53.46875 
Q 12.59375 47.65625 12.5 36.921875 
Q 15.671875 41.75 20.265625 44.09375 
Q 24.859375 46.4375 29.890625 46.4375 
Q 38.671875 46.4375 44.84375 39.96875 
Q 51.03125 33.5 51.03125 23.25 
Q 51.03125 16.5 48.125 10.71875 
Q 45.21875 4.9375 40.140625 1.859375 
Q 35.0625 -1.21875 28.609375 -1.21875 
Q 17.625 -1.21875 10.6875 6.859375 
Q 3.765625 14.9375 3.765625 33.5 
Q 3.765625 54.25 11.421875 63.671875 
Q 18.109375 71.875 29.4375 71.875 
Q 37.890625 71.875 43.28125 67.140625 
Q 48.6875 62.40625 49.75 54.046875 
z
M 13.875 23.1875 
Q 13.875 18.65625 15.796875 14.5 
Q 17.71875 10.359375 21.1875 8.171875 
Q 24.65625 6 28.46875 6 
Q 34.03125 6 38.03125 10.484375 
Q 42.046875 14.984375 42.046875 22.703125 
Q 42.046875 30.125 38.078125 34.390625 
Q 34.125 38.671875 28.125 38.671875 
Q 22.171875 38.671875 18.015625 34.390625 
Q 13.875 30.125 13.875 23.1875 
z
" id="ArialMT-54"/>
       </defs>
       <use xlink:href="#ArialMT-48"/>
       <use x="55.615234" xlink:href="#ArialMT-46"/>
       <use x="83.398438" xlink:href="#ArialMT-54"/>
      </g>
     </g>
    </g>
    <g id="ytick_5">
     <g id="line2d_13">
      <g>
       <use style="stroke:#000000;stroke-width:0.8;" x="32.43649" xlink:href="#ma8ad6e75e8" y="31.156381"/>
      </g>
     </g>
     <g id="text_14">
      <!-- 0.8 -->
      <g transform="translate(14.31649 34.019506)scale(0.08 -0.08)">
       <defs>
        <path d="M 17.671875 38.8125 
Q 12.203125 40.828125 9.5625 44.53125 
Q 6.9375 48.25 6.9375 53.421875 
Q 6.9375 61.234375 12.546875 66.546875 
Q 18.171875 71.875 27.484375 71.875 
Q 36.859375 71.875 42.578125 66.421875 
Q 48.296875 60.984375 48.296875 53.171875 
Q 48.296875 48.1875 45.671875 44.5 
Q 43.0625 40.828125 37.75 38.8125 
Q 44.34375 36.671875 47.78125 31.875 
Q 51.21875 27.09375 51.21875 20.453125 
Q 51.21875 11.28125 44.71875 5.03125 
Q 38.234375 -1.21875 27.640625 -1.21875 
Q 17.046875 -1.21875 10.546875 5.046875 
Q 4.046875 11.328125 4.046875 20.703125 
Q 4.046875 27.6875 7.59375 32.390625 
Q 11.140625 37.109375 17.671875 38.8125 
z
M 15.921875 53.71875 
Q 15.921875 48.640625 19.1875 45.40625 
Q 22.46875 42.1875 27.6875 42.1875 
Q 32.765625 42.1875 36.015625 45.375 
Q 39.265625 48.578125 39.265625 53.21875 
Q 39.265625 58.0625 35.90625 61.359375 
Q 32.5625 64.65625 27.59375 64.65625 
Q 22.5625 64.65625 19.234375 61.421875 
Q 15.921875 58.203125 15.921875 53.71875 
z
M 13.09375 20.65625 
Q 13.09375 16.890625 14.875 13.375 
Q 16.65625 9.859375 20.171875 7.921875 
Q 23.6875 6 27.734375 6 
Q 34.03125 6 38.125 10.046875 
Q 42.234375 14.109375 42.234375 20.359375 
Q 42.234375 26.703125 38.015625 30.859375 
Q 33.796875 35.015625 27.4375 35.015625 
Q 21.234375 35.015625 17.15625 30.90625 
Q 13.09375 26.8125 13.09375 20.65625 
z
" id="ArialMT-56"/>
       </defs>
       <use xlink:href="#ArialMT-48"/>
       <use x="55.615234" xlink:href="#ArialMT-46"/>
       <use x="83.398438" xlink:href="#ArialMT-56"/>
      </g>
     </g>
    </g>
    <g id="ytick_6">
     <g id="line2d_14">
      <g>
       <use style="stroke:#000000;stroke-width:0.8;" x="32.43649" xlink:href="#ma8ad6e75e8" y="8.631468"/>
      </g>
     </g>
     <g id="text_15">
      <!-- 1.0 -->
      <g transform="translate(14.31649 11.494593)scale(0.08 -0.08)">
       <use xlink:href="#ArialMT-49"/>
       <use x="55.615234" xlink:href="#ArialMT-46"/>
       <use x="83.398438" xlink:href="#ArialMT-48"/>
      </g>
     </g>
    </g>
    <g id="text_16">
     <!-- Predictions -->
     <g transform="translate(8.72649 84.73)rotate(-90)scale(0.08 -0.08)">
      <defs>
       <path d="M 7.71875 0 
L 7.71875 71.578125 
L 34.71875 71.578125 
Q 41.84375 71.578125 45.609375 70.90625 
Q 50.875 70.015625 54.4375 67.546875 
Q 58.015625 65.09375 60.1875 60.640625 
Q 62.359375 56.203125 62.359375 50.875 
Q 62.359375 41.75 56.546875 35.421875 
Q 50.734375 29.109375 35.546875 29.109375 
L 17.1875 29.109375 
L 17.1875 0 
z
M 17.1875 37.546875 
L 35.6875 37.546875 
Q 44.875 37.546875 48.734375 40.96875 
Q 52.59375 44.390625 52.59375 50.59375 
Q 52.59375 55.078125 50.3125 58.265625 
Q 48.046875 61.46875 44.34375 62.5 
Q 41.9375 63.140625 35.5 63.140625 
L 17.1875 63.140625 
z
" id="ArialMT-80"/>
       <path d="M 6.5 0 
L 6.5 51.859375 
L 14.40625 51.859375 
L 14.40625 44 
Q 17.4375 49.515625 20 51.265625 
Q 22.5625 53.03125 25.640625 53.03125 
Q 30.078125 53.03125 34.671875 50.203125 
L 31.640625 42.046875 
Q 28.421875 43.953125 25.203125 43.953125 
Q 22.3125 43.953125 20.015625 42.21875 
Q 17.71875 40.484375 16.75 37.40625 
Q 15.28125 32.71875 15.28125 27.15625 
L 15.28125 0 
z
" id="ArialMT-114"/>
       <path d="M 40.234375 0 
L 40.234375 6.546875 
Q 35.296875 -1.171875 25.734375 -1.171875 
Q 19.53125 -1.171875 14.328125 2.25 
Q 9.125 5.671875 6.265625 11.796875 
Q 3.421875 17.921875 3.421875 25.875 
Q 3.421875 33.640625 6 39.96875 
Q 8.59375 46.296875 13.765625 49.65625 
Q 18.953125 53.03125 25.34375 53.03125 
Q 30.03125 53.03125 33.6875 51.046875 
Q 37.359375 49.078125 39.65625 45.90625 
L 39.65625 71.578125 
L 48.390625 71.578125 
L 48.390625 0 
z
M 12.453125 25.875 
Q 12.453125 15.921875 16.640625 10.984375 
Q 20.84375 6.0625 26.5625 6.0625 
Q 32.328125 6.0625 36.34375 10.765625 
Q 40.375 15.484375 40.375 25.140625 
Q 40.375 35.796875 36.265625 40.765625 
Q 32.171875 45.75 26.171875 45.75 
Q 20.3125 45.75 16.375 40.96875 
Q 12.453125 36.1875 12.453125 25.875 
z
" id="ArialMT-100"/>
       <path d="M 40.4375 19 
L 49.078125 17.875 
Q 47.65625 8.9375 41.8125 3.875 
Q 35.984375 -1.171875 27.484375 -1.171875 
Q 16.84375 -1.171875 10.375 5.78125 
Q 3.90625 12.75 3.90625 25.734375 
Q 3.90625 34.125 6.6875 40.421875 
Q 9.46875 46.734375 15.15625 49.875 
Q 20.84375 53.03125 27.546875 53.03125 
Q 35.984375 53.03125 41.359375 48.75 
Q 46.734375 44.484375 48.25 36.625 
L 39.703125 35.296875 
Q 38.484375 40.53125 35.375 43.15625 
Q 32.28125 45.796875 27.875 45.796875 
Q 21.234375 45.796875 17.078125 41.03125 
Q 12.9375 36.28125 12.9375 25.984375 
Q 12.9375 15.53125 16.9375 10.796875 
Q 20.953125 6.0625 27.390625 6.0625 
Q 32.5625 6.0625 36.03125 9.234375 
Q 39.5 12.40625 40.4375 19 
z
" id="ArialMT-99"/>
       <path d="M 3.328125 25.921875 
Q 3.328125 40.328125 11.328125 47.265625 
Q 18.015625 53.03125 27.640625 53.03125 
Q 38.328125 53.03125 45.109375 46.015625 
Q 51.90625 39.015625 51.90625 26.65625 
Q 51.90625 16.65625 48.90625 10.90625 
Q 45.90625 5.171875 40.15625 2 
Q 34.421875 -1.171875 27.640625 -1.171875 
Q 16.75 -1.171875 10.03125 5.8125 
Q 3.328125 12.796875 3.328125 25.921875 
z
M 12.359375 25.921875 
Q 12.359375 15.96875 16.703125 11.015625 
Q 21.046875 6.0625 27.640625 6.0625 
Q 34.1875 6.0625 38.53125 11.03125 
Q 42.875 16.015625 42.875 26.21875 
Q 42.875 35.84375 38.5 40.796875 
Q 34.125 45.75 27.640625 45.75 
Q 21.046875 45.75 16.703125 40.8125 
Q 12.359375 35.890625 12.359375 25.921875 
z
" id="ArialMT-111"/>
       <path d="M 6.59375 0 
L 6.59375 51.859375 
L 14.5 51.859375 
L 14.5 44.484375 
Q 20.21875 53.03125 31 53.03125 
Q 35.6875 53.03125 39.625 51.34375 
Q 43.5625 49.65625 45.515625 46.921875 
Q 47.46875 44.1875 48.25 40.4375 
Q 48.734375 37.984375 48.734375 31.890625 
L 48.734375 0 
L 39.9375 0 
L 39.9375 31.546875 
Q 39.9375 36.921875 38.90625 39.578125 
Q 37.890625 42.234375 35.28125 43.8125 
Q 32.671875 45.40625 29.15625 45.40625 
Q 23.53125 45.40625 19.453125 41.84375 
Q 15.375 38.28125 15.375 28.328125 
L 15.375 0 
z
" id="ArialMT-110"/>
      </defs>
      <use xlink:href="#ArialMT-80"/>
      <use x="66.699219" xlink:href="#ArialMT-114"/>
      <use x="100" xlink:href="#ArialMT-101"/>
      <use x="155.615234" xlink:href="#ArialMT-100"/>
      <use x="211.230469" xlink:href="#ArialMT-105"/>
      <use x="233.447266" xlink:href="#ArialMT-99"/>
      <use x="283.447266" xlink:href="#ArialMT-116"/>
      <use x="311.230469" xlink:href="#ArialMT-105"/>
      <use x="333.447266" xlink:href="#ArialMT-111"/>
      <use x="389.0625" xlink:href="#ArialMT-110"/>
      <use x="444.677734" xlink:href="#ArialMT-115"/>
     </g>
    </g>
   </g>
   <g id="line2d_15">
    <defs>
     <path d="M 0 0.25 
C 0.066301 0.25 0.129895 0.223658 0.176777 0.176777 
C 0.223658 0.129895 0.25 0.066301 0.25 0 
C 0.25 -0.066301 0.223658 -0.129895 0.176777 -0.176777 
C 0.129895 -0.223658 0.066301 -0.25 0 -0.25 
C -0.066301 -0.25 -0.129895 -0.223658 -0.176777 -0.176777 
C -0.223658 -0.129895 -0.25 -0.066301 -0.25 0 
C -0.25 0.066301 -0.223658 0.129895 -0.176777 0.176777 
C -0.129895 0.223658 -0.066301 0.25 0 0.25 
z
" id="mde9082738e" style="stroke:#000000;"/>
    </defs>
    <g clip-path="url(#p8ec084a6a6)">
     <use style="stroke:#000000;" x="32.997338" xlink:href="#mde9082738e" y="121.256032"/>
     <use style="stroke:#000000;" x="33.558187" xlink:href="#mde9082738e" y="121.256032"/>
     <use style="stroke:#000000;" x="34.119035" xlink:href="#mde9082738e" y="8.631468"/>
     <use style="stroke:#000000;" x="34.679884" xlink:href="#mde9082738e" y="121.256032"/>
     <use style="stroke:#000000;" x="35.240732" xlink:href="#mde9082738e" y="121.256032"/>
     <use style="stroke:#000000;" x="35.801581" xlink:href="#mde9082738e" y="121.256032"/>
     <use style="stroke:#000000;" x="36.362429" xlink:href="#mde9082738e" y="121.256032"/>
     <use style="stroke:#000000;" x="36.923278" xlink:href="#mde9082738e" y="121.256032"/>
     <use style="stroke:#000000;" x="37.484126" xlink:href="#mde9082738e" y="121.256032"/>
     <use style="stroke:#000000;" x="38.044975" xlink:href="#mde9082738e" y="121.256032"/>
     <use style="stroke:#000000;" x="38.605823" xlink:href="#mde9082738e" y="121.256032"/>
     <use style="stroke:#000000;" x="39.166672" xlink:href="#mde9082738e" y="121.256032"/>
     <use style="stroke:#000000;" x="39.72752" xlink:href="#mde9082738e" y="121.256032"/>
     <use style="stroke:#000000;" x="40.288369" xlink:href="#mde9082738e" y="121.256032"/>
     <use style="stroke:#000000;" x="40.849217" xlink:href="#mde9082738e" y="121.256032"/>
     <use style="stroke:#000000;" x="41.410066" xlink:href="#mde9082738e" y="121.256032"/>
     <use style="stroke:#000000;" x="41.970914" xlink:href="#mde9082738e" y="121.256032"/>
     <use style="stroke:#000000;" x="42.531763" xlink:href="#mde9082738e" y="121.256032"/>
     <use style="stroke:#000000;" x="43.092611" xlink:href="#mde9082738e" y="121.256032"/>
     <use style="stroke:#000000;" x="43.65346" xlink:href="#mde9082738e" y="121.256032"/>
     <use style="stroke:#000000;" x="44.214308" xlink:href="#mde9082738e" y="121.256032"/>
     <use style="stroke:#000000;" x="44.775157" xlink:href="#mde9082738e" y="121.256032"/>
     <use style="stroke:#000000;" x="45.336005" xlink:href="#mde9082738e" y="121.256032"/>
     <use style="stroke:#000000;" x="45.896853" xlink:href="#mde9082738e" y="8.631468"/>
     <use style="stroke:#000000;" x="46.457702" xlink:href="#mde9082738e" y="121.256032"/>
     <use style="stroke:#000000;" x="47.01855" xlink:href="#mde9082738e" y="121.256032"/>
     <use style="stroke:#000000;" x="47.579399" xlink:href="#mde9082738e" y="121.256032"/>
     <use style="stroke:#000000;" x="48.140247" xlink:href="#mde9082738e" y="121.256032"/>
     <use style="stroke:#000000;" x="48.701096" xlink:href="#mde9082738e" y="121.256032"/>
     <use style="stroke:#000000;" x="49.261944" xlink:href="#mde9082738e" y="121.256032"/>
     <use style="stroke:#000000;" x="49.822793" xlink:href="#mde9082738e" y="8.631468"/>
     <use style="stroke:#000000;" x="50.383641" xlink:href="#mde9082738e" y="121.256032"/>
     <use style="stroke:#000000;" x="50.94449" xlink:href="#mde9082738e" y="121.256032"/>
     <use style="stroke:#000000;" x="51.505338" xlink:href="#mde9082738e" y="121.256032"/>
     <use style="stroke:#000000;" x="52.066187" xlink:href="#mde9082738e" y="8.631468"/>
     <use style="stroke:#000000;" x="52.627035" xlink:href="#mde9082738e" y="121.256032"/>
     <use style="stroke:#000000;" x="53.187884" xlink:href="#mde9082738e" y="121.256032"/>
     <use style="stroke:#000000;" x="53.748732" xlink:href="#mde9082738e" y="121.256032"/>
     <use style="stroke:#000000;" x="54.309581" xlink:href="#mde9082738e" y="121.256032"/>
     <use style="stroke:#000000;" x="54.870429" xlink:href="#mde9082738e" y="121.256032"/>
     <use style="stroke:#000000;" x="55.431278" xlink:href="#mde9082738e" y="121.256032"/>
     <use style="stroke:#000000;" x="55.992126" xlink:href="#mde9082738e" y="121.256032"/>
     <use style="stroke:#000000;" x="56.552975" xlink:href="#mde9082738e" y="121.256032"/>
     <use style="stroke:#000000;" x="57.113823" xlink:href="#mde9082738e" y="121.256032"/>
     <use style="stroke:#000000;" x="57.674671" xlink:href="#mde9082738e" y="121.256032"/>
     <use style="stroke:#000000;" x="58.23552" xlink:href="#mde9082738e" y="8.631468"/>
     <use style="stroke:#000000;" x="58.796368" xlink:href="#mde9082738e" y="8.631468"/>
     <use style="stroke:#000000;" x="59.357217" xlink:href="#mde9082738e" y="121.256032"/>
     <use style="stroke:#000000;" x="59.918065" xlink:href="#mde9082738e" y="121.256032"/>
     <use style="stroke:#000000;" x="60.478914" xlink:href="#mde9082738e" y="121.256032"/>
     <use style="stroke:#000000;" x="61.039762" xlink:href="#mde9082738e" y="121.256032"/>
     <use style="stroke:#000000;" x="61.600611" xlink:href="#mde9082738e" y="121.256032"/>
     <use style="stroke:#000000;" x="62.161459" xlink:href="#mde9082738e" y="121.256032"/>
     <use style="stroke:#000000;" x="62.722308" xlink:href="#mde9082738e" y="121.256032"/>
     <use style="stroke:#000000;" x="63.283156" xlink:href="#mde9082738e" y="121.256032"/>
     <use style="stroke:#000000;" x="63.844005" xlink:href="#mde9082738e" y="121.256032"/>
     <use style="stroke:#000000;" x="64.404853" xlink:href="#mde9082738e" y="121.256032"/>
     <use style="stroke:#000000;" x="64.965702" xlink:href="#mde9082738e" y="8.631468"/>
     <use style="stroke:#000000;" x="65.52655" xlink:href="#mde9082738e" y="121.256032"/>
     <use style="stroke:#000000;" x="66.087399" xlink:href="#mde9082738e" y="121.256032"/>
     <use style="stroke:#000000;" x="66.648247" xlink:href="#mde9082738e" y="121.256032"/>
     <use style="stroke:#000000;" x="67.209096" xlink:href="#mde9082738e" y="121.256032"/>
     <use style="stroke:#000000;" x="67.769944" xlink:href="#mde9082738e" y="121.256032"/>
     <use style="stroke:#000000;" x="68.330793" xlink:href="#mde9082738e" y="121.256032"/>
     <use style="stroke:#000000;" x="68.891641" xlink:href="#mde9082738e" y="121.256032"/>
     <use style="stroke:#000000;" x="69.45249" xlink:href="#mde9082738e" y="121.256032"/>
     <use style="stroke:#000000;" x="70.013338" xlink:href="#mde9082738e" y="121.256032"/>
     <use style="stroke:#000000;" x="70.574186" xlink:href="#mde9082738e" y="121.256032"/>
     <use style="stroke:#000000;" x="71.135035" xlink:href="#mde9082738e" y="121.256032"/>
     <use style="stroke:#000000;" x="71.695883" xlink:href="#mde9082738e" y="121.256032"/>
     <use style="stroke:#000000;" x="72.256732" xlink:href="#mde9082738e" y="121.256032"/>
     <use style="stroke:#000000;" x="72.81758" xlink:href="#mde9082738e" y="121.256032"/>
     <use style="stroke:#000000;" x="73.378429" xlink:href="#mde9082738e" y="8.631468"/>
     <use style="stroke:#000000;" x="73.939277" xlink:href="#mde9082738e" y="121.256032"/>
     <use style="stroke:#000000;" x="74.500126" xlink:href="#mde9082738e" y="121.256032"/>
     <use style="stroke:#000000;" x="75.060974" xlink:href="#mde9082738e" y="121.256032"/>
     <use style="stroke:#000000;" x="75.621823" xlink:href="#mde9082738e" y="121.256032"/>
     <use style="stroke:#000000;" x="76.182671" xlink:href="#mde9082738e" y="121.256032"/>
     <use style="stroke:#000000;" x="76.74352" xlink:href="#mde9082738e" y="121.256032"/>
     <use style="stroke:#000000;" x="77.304368" xlink:href="#mde9082738e" y="121.256032"/>
     <use style="stroke:#000000;" x="77.865217" xlink:href="#mde9082738e" y="121.256032"/>
     <use style="stroke:#000000;" x="78.426065" xlink:href="#mde9082738e" y="121.256032"/>
     <use style="stroke:#000000;" x="78.986914" xlink:href="#mde9082738e" y="121.256032"/>
     <use style="stroke:#000000;" x="79.547762" xlink:href="#mde9082738e" y="121.256032"/>
     <use style="stroke:#000000;" x="80.108611" xlink:href="#mde9082738e" y="121.256032"/>
     <use style="stroke:#000000;" x="80.669459" xlink:href="#mde9082738e" y="8.631468"/>
     <use style="stroke:#000000;" x="81.230308" xlink:href="#mde9082738e" y="121.256032"/>
     <use style="stroke:#000000;" x="81.791156" xlink:href="#mde9082738e" y="121.256032"/>
     <use style="stroke:#000000;" x="82.352005" xlink:href="#mde9082738e" y="121.256032"/>
     <use style="stroke:#000000;" x="82.912853" xlink:href="#mde9082738e" y="121.256032"/>
     <use style="stroke:#000000;" x="83.473701" xlink:href="#mde9082738e" y="121.256032"/>
     <use style="stroke:#000000;" x="84.03455" xlink:href="#mde9082738e" y="8.631468"/>
     <use style="stroke:#000000;" x="84.595398" xlink:href="#mde9082738e" y="8.631468"/>
     <use style="stroke:#000000;" x="85.156247" xlink:href="#mde9082738e" y="121.256032"/>
     <use style="stroke:#000000;" x="85.717095" xlink:href="#mde9082738e" y="8.631468"/>
     <use style="stroke:#000000;" x="86.277944" xlink:href="#mde9082738e" y="8.631468"/>
     <use style="stroke:#000000;" x="86.838792" xlink:href="#mde9082738e" y="8.631468"/>
     <use style="stroke:#000000;" x="87.399641" xlink:href="#mde9082738e" y="8.631468"/>
     <use style="stroke:#000000;" x="87.960489" xlink:href="#mde9082738e" y="8.631468"/>
     <use style="stroke:#000000;" x="88.521338" xlink:href="#mde9082738e" y="8.631468"/>
     <use style="stroke:#000000;" x="89.082186" xlink:href="#mde9082738e" y="121.256032"/>
     <use style="stroke:#000000;" x="89.643035" xlink:href="#mde9082738e" y="8.631468"/>
     <use style="stroke:#000000;" x="90.203883" xlink:href="#mde9082738e" y="8.631468"/>
     <use style="stroke:#000000;" x="90.764732" xlink:href="#mde9082738e" y="8.631468"/>
     <use style="stroke:#000000;" x="91.32558" xlink:href="#mde9082738e" y="8.631468"/>
     <use style="stroke:#000000;" x="91.886429" xlink:href="#mde9082738e" y="121.256032"/>
     <use style="stroke:#000000;" x="92.447277" xlink:href="#mde9082738e" y="8.631468"/>
     <use style="stroke:#000000;" x="93.008126" xlink:href="#mde9082738e" y="8.631468"/>
     <use style="stroke:#000000;" x="93.568974" xlink:href="#mde9082738e" y="8.631468"/>
     <use style="stroke:#000000;" x="94.129823" xlink:href="#mde9082738e" y="121.256032"/>
     <use style="stroke:#000000;" x="94.690671" xlink:href="#mde9082738e" y="8.631468"/>
     <use style="stroke:#000000;" x="95.25152" xlink:href="#mde9082738e" y="8.631468"/>
     <use style="stroke:#000000;" x="95.812368" xlink:href="#mde9082738e" y="8.631468"/>
     <use style="stroke:#000000;" x="96.373216" xlink:href="#mde9082738e" y="8.631468"/>
     <use style="stroke:#000000;" x="96.934065" xlink:href="#mde9082738e" y="8.631468"/>
     <use style="stroke:#000000;" x="97.494913" xlink:href="#mde9082738e" y="8.631468"/>
     <use style="stroke:#000000;" x="98.055762" xlink:href="#mde9082738e" y="8.631468"/>
     <use style="stroke:#000000;" x="98.61661" xlink:href="#mde9082738e" y="8.631468"/>
     <use style="stroke:#000000;" x="99.177459" xlink:href="#mde9082738e" y="8.631468"/>
     <use style="stroke:#000000;" x="99.738307" xlink:href="#mde9082738e" y="8.631468"/>
     <use style="stroke:#000000;" x="100.299156" xlink:href="#mde9082738e" y="8.631468"/>
     <use style="stroke:#000000;" x="100.860004" xlink:href="#mde9082738e" y="8.631468"/>
     <use style="stroke:#000000;" x="101.420853" xlink:href="#mde9082738e" y="8.631468"/>
     <use style="stroke:#000000;" x="101.981701" xlink:href="#mde9082738e" y="8.631468"/>
     <use style="stroke:#000000;" x="102.54255" xlink:href="#mde9082738e" y="121.256032"/>
     <use style="stroke:#000000;" x="103.103398" xlink:href="#mde9082738e" y="121.256032"/>
     <use style="stroke:#000000;" x="103.664247" xlink:href="#mde9082738e" y="121.256032"/>
     <use style="stroke:#000000;" x="104.225095" xlink:href="#mde9082738e" y="121.256032"/>
     <use style="stroke:#000000;" x="104.785944" xlink:href="#mde9082738e" y="121.256032"/>
     <use style="stroke:#000000;" x="105.346792" xlink:href="#mde9082738e" y="121.256032"/>
     <use style="stroke:#000000;" x="105.907641" xlink:href="#mde9082738e" y="121.256032"/>
     <use style="stroke:#000000;" x="106.468489" xlink:href="#mde9082738e" y="121.256032"/>
     <use style="stroke:#000000;" x="107.029338" xlink:href="#mde9082738e" y="121.256032"/>
     <use style="stroke:#000000;" x="107.590186" xlink:href="#mde9082738e" y="121.256032"/>
     <use style="stroke:#000000;" x="108.151034" xlink:href="#mde9082738e" y="121.256032"/>
     <use style="stroke:#000000;" x="108.711883" xlink:href="#mde9082738e" y="8.631468"/>
     <use style="stroke:#000000;" x="109.272731" xlink:href="#mde9082738e" y="8.631468"/>
     <use style="stroke:#000000;" x="109.83358" xlink:href="#mde9082738e" y="121.256032"/>
     <use style="stroke:#000000;" x="110.394428" xlink:href="#mde9082738e" y="121.256032"/>
     <use style="stroke:#000000;" x="110.955277" xlink:href="#mde9082738e" y="121.256032"/>
     <use style="stroke:#000000;" x="111.516125" xlink:href="#mde9082738e" y="121.256032"/>
     <use style="stroke:#000000;" x="112.076974" xlink:href="#mde9082738e" y="121.256032"/>
     <use style="stroke:#000000;" x="112.637822" xlink:href="#mde9082738e" y="121.256032"/>
     <use style="stroke:#000000;" x="113.198671" xlink:href="#mde9082738e" y="121.256032"/>
     <use style="stroke:#000000;" x="113.759519" xlink:href="#mde9082738e" y="121.256032"/>
     <use style="stroke:#000000;" x="114.320368" xlink:href="#mde9082738e" y="121.256032"/>
     <use style="stroke:#000000;" x="114.881216" xlink:href="#mde9082738e" y="121.256032"/>
     <use style="stroke:#000000;" x="115.442065" xlink:href="#mde9082738e" y="8.631468"/>
     <use style="stroke:#000000;" x="116.002913" xlink:href="#mde9082738e" y="8.631468"/>
     <use style="stroke:#000000;" x="116.563762" xlink:href="#mde9082738e" y="8.631468"/>
     <use style="stroke:#000000;" x="117.12461" xlink:href="#mde9082738e" y="8.631468"/>
     <use style="stroke:#000000;" x="117.685459" xlink:href="#mde9082738e" y="8.631468"/>
     <use style="stroke:#000000;" x="118.246307" xlink:href="#mde9082738e" y="8.631468"/>
     <use style="stroke:#000000;" x="118.807156" xlink:href="#mde9082738e" y="8.631468"/>
     <use style="stroke:#000000;" x="119.368004" xlink:href="#mde9082738e" y="8.631468"/>
     <use style="stroke:#000000;" x="119.928853" xlink:href="#mde9082738e" y="8.631468"/>
     <use style="stroke:#000000;" x="120.489701" xlink:href="#mde9082738e" y="121.256032"/>
     <use style="stroke:#000000;" x="121.050549" xlink:href="#mde9082738e" y="8.631468"/>
     <use style="stroke:#000000;" x="121.611398" xlink:href="#mde9082738e" y="8.631468"/>
     <use style="stroke:#000000;" x="122.172246" xlink:href="#mde9082738e" y="8.631468"/>
     <use style="stroke:#000000;" x="122.733095" xlink:href="#mde9082738e" y="8.631468"/>
     <use style="stroke:#000000;" x="123.293943" xlink:href="#mde9082738e" y="8.631468"/>
     <use style="stroke:#000000;" x="123.854792" xlink:href="#mde9082738e" y="8.631468"/>
     <use style="stroke:#000000;" x="124.41564" xlink:href="#mde9082738e" y="8.631468"/>
     <use style="stroke:#000000;" x="124.976489" xlink:href="#mde9082738e" y="8.631468"/>
     <use style="stroke:#000000;" x="125.537337" xlink:href="#mde9082738e" y="8.631468"/>
     <use style="stroke:#000000;" x="126.098186" xlink:href="#mde9082738e" y="8.631468"/>
     <use style="stroke:#000000;" x="126.659034" xlink:href="#mde9082738e" y="8.631468"/>
     <use style="stroke:#000000;" x="127.219883" xlink:href="#mde9082738e" y="121.256032"/>
     <use style="stroke:#000000;" x="127.780731" xlink:href="#mde9082738e" y="8.631468"/>
     <use style="stroke:#000000;" x="128.34158" xlink:href="#mde9082738e" y="8.631468"/>
     <use style="stroke:#000000;" x="128.902428" xlink:href="#mde9082738e" y="8.631468"/>
     <use style="stroke:#000000;" x="129.463277" xlink:href="#mde9082738e" y="8.631468"/>
     <use style="stroke:#000000;" x="130.024125" xlink:href="#mde9082738e" y="8.631468"/>
     <use style="stroke:#000000;" x="130.584974" xlink:href="#mde9082738e" y="8.631468"/>
     <use style="stroke:#000000;" x="131.145822" xlink:href="#mde9082738e" y="8.631468"/>
     <use style="stroke:#000000;" x="131.706671" xlink:href="#mde9082738e" y="8.631468"/>
     <use style="stroke:#000000;" x="132.267519" xlink:href="#mde9082738e" y="8.631468"/>
     <use style="stroke:#000000;" x="132.828368" xlink:href="#mde9082738e" y="8.631468"/>
     <use style="stroke:#000000;" x="133.389216" xlink:href="#mde9082738e" y="8.631468"/>
     <use style="stroke:#000000;" x="133.950064" xlink:href="#mde9082738e" y="8.631468"/>
     <use style="stroke:#000000;" x="134.510913" xlink:href="#mde9082738e" y="8.631468"/>
     <use style="stroke:#000000;" x="135.071761" xlink:href="#mde9082738e" y="8.631468"/>
     <use style="stroke:#000000;" x="135.63261" xlink:href="#mde9082738e" y="8.631468"/>
     <use style="stroke:#000000;" x="136.193458" xlink:href="#mde9082738e" y="8.631468"/>
     <use style="stroke:#000000;" x="136.754307" xlink:href="#mde9082738e" y="8.631468"/>
     <use style="stroke:#000000;" x="137.315155" xlink:href="#mde9082738e" y="8.631468"/>
     <use style="stroke:#000000;" x="137.876004" xlink:href="#mde9082738e" y="8.631468"/>
     <use style="stroke:#000000;" x="138.436852" xlink:href="#mde9082738e" y="8.631468"/>
     <use style="stroke:#000000;" x="138.997701" xlink:href="#mde9082738e" y="121.256032"/>
     <use style="stroke:#000000;" x="139.558549" xlink:href="#mde9082738e" y="8.631468"/>
     <use style="stroke:#000000;" x="140.119398" xlink:href="#mde9082738e" y="8.631468"/>
     <use style="stroke:#000000;" x="140.680246" xlink:href="#mde9082738e" y="8.631468"/>
     <use style="stroke:#000000;" x="141.241095" xlink:href="#mde9082738e" y="8.631468"/>
     <use style="stroke:#000000;" x="141.801943" xlink:href="#mde9082738e" y="8.631468"/>
     <use style="stroke:#000000;" x="142.362792" xlink:href="#mde9082738e" y="8.631468"/>
     <use style="stroke:#000000;" x="142.92364" xlink:href="#mde9082738e" y="8.631468"/>
     <use style="stroke:#000000;" x="143.484489" xlink:href="#mde9082738e" y="8.631468"/>
     <use style="stroke:#000000;" x="144.045337" xlink:href="#mde9082738e" y="8.631468"/>
     <use style="stroke:#000000;" x="144.606186" xlink:href="#mde9082738e" y="8.631468"/>
     <use style="stroke:#000000;" x="145.167034" xlink:href="#mde9082738e" y="8.631468"/>
     <use style="stroke:#000000;" x="145.727882" xlink:href="#mde9082738e" y="8.631468"/>
     <use style="stroke:#000000;" x="146.288731" xlink:href="#mde9082738e" y="8.631468"/>
     <use style="stroke:#000000;" x="146.849579" xlink:href="#mde9082738e" y="8.631468"/>
     <use style="stroke:#000000;" x="147.410428" xlink:href="#mde9082738e" y="121.256032"/>
     <use style="stroke:#000000;" x="147.971276" xlink:href="#mde9082738e" y="121.256032"/>
     <use style="stroke:#000000;" x="148.532125" xlink:href="#mde9082738e" y="8.631468"/>
     <use style="stroke:#000000;" x="149.092973" xlink:href="#mde9082738e" y="8.631468"/>
     <use style="stroke:#000000;" x="149.653822" xlink:href="#mde9082738e" y="8.631468"/>
     <use style="stroke:#000000;" x="150.21467" xlink:href="#mde9082738e" y="121.256032"/>
     <use style="stroke:#000000;" x="150.775519" xlink:href="#mde9082738e" y="8.631468"/>
     <use style="stroke:#000000;" x="151.336367" xlink:href="#mde9082738e" y="8.631468"/>
     <use style="stroke:#000000;" x="151.897216" xlink:href="#mde9082738e" y="8.631468"/>
     <use style="stroke:#000000;" x="152.458064" xlink:href="#mde9082738e" y="8.631468"/>
     <use style="stroke:#000000;" x="153.018913" xlink:href="#mde9082738e" y="8.631468"/>
     <use style="stroke:#000000;" x="153.579761" xlink:href="#mde9082738e" y="8.631468"/>
     <use style="stroke:#000000;" x="154.14061" xlink:href="#mde9082738e" y="8.631468"/>
     <use style="stroke:#000000;" x="154.701458" xlink:href="#mde9082738e" y="8.631468"/>
     <use style="stroke:#000000;" x="155.262307" xlink:href="#mde9082738e" y="8.631468"/>
     <use style="stroke:#000000;" x="155.823155" xlink:href="#mde9082738e" y="8.631468"/>
     <use style="stroke:#000000;" x="156.384004" xlink:href="#mde9082738e" y="8.631468"/>
     <use style="stroke:#000000;" x="156.944852" xlink:href="#mde9082738e" y="8.631468"/>
     <use style="stroke:#000000;" x="157.505701" xlink:href="#mde9082738e" y="8.631468"/>
     <use style="stroke:#000000;" x="158.066549" xlink:href="#mde9082738e" y="8.631468"/>
     <use style="stroke:#000000;" x="158.627397" xlink:href="#mde9082738e" y="8.631468"/>
     <use style="stroke:#000000;" x="159.188246" xlink:href="#mde9082738e" y="8.631468"/>
     <use style="stroke:#000000;" x="159.749094" xlink:href="#mde9082738e" y="8.631468"/>
     <use style="stroke:#000000;" x="160.309943" xlink:href="#mde9082738e" y="8.631468"/>
     <use style="stroke:#000000;" x="160.870791" xlink:href="#mde9082738e" y="8.631468"/>
     <use style="stroke:#000000;" x="161.43164" xlink:href="#mde9082738e" y="8.631468"/>
     <use style="stroke:#000000;" x="161.992488" xlink:href="#mde9082738e" y="8.631468"/>
     <use style="stroke:#000000;" x="162.553337" xlink:href="#mde9082738e" y="8.631468"/>
     <use style="stroke:#000000;" x="163.114185" xlink:href="#mde9082738e" y="8.631468"/>
     <use style="stroke:#000000;" x="163.675034" xlink:href="#mde9082738e" y="8.631468"/>
     <use style="stroke:#000000;" x="164.235882" xlink:href="#mde9082738e" y="8.631468"/>
     <use style="stroke:#000000;" x="164.796731" xlink:href="#mde9082738e" y="8.631468"/>
     <use style="stroke:#000000;" x="165.357579" xlink:href="#mde9082738e" y="8.631468"/>
     <use style="stroke:#000000;" x="165.918428" xlink:href="#mde9082738e" y="8.631468"/>
     <use style="stroke:#000000;" x="166.479276" xlink:href="#mde9082738e" y="8.631468"/>
     <use style="stroke:#000000;" x="167.040125" xlink:href="#mde9082738e" y="8.631468"/>
     <use style="stroke:#000000;" x="167.600973" xlink:href="#mde9082738e" y="8.631468"/>
     <use style="stroke:#000000;" x="168.161822" xlink:href="#mde9082738e" y="8.631468"/>
     <use style="stroke:#000000;" x="168.72267" xlink:href="#mde9082738e" y="8.631468"/>
     <use style="stroke:#000000;" x="169.283519" xlink:href="#mde9082738e" y="8.631468"/>
     <use style="stroke:#000000;" x="169.844367" xlink:href="#mde9082738e" y="8.631468"/>
     <use style="stroke:#000000;" x="170.405216" xlink:href="#mde9082738e" y="8.631468"/>
     <use style="stroke:#000000;" x="170.966064" xlink:href="#mde9082738e" y="8.631468"/>
     <use style="stroke:#000000;" x="171.526912" xlink:href="#mde9082738e" y="8.631468"/>
     <use style="stroke:#000000;" x="172.087761" xlink:href="#mde9082738e" y="8.631468"/>
     <use style="stroke:#000000;" x="172.648609" xlink:href="#mde9082738e" y="8.631468"/>
     <use style="stroke:#000000;" x="173.209458" xlink:href="#mde9082738e" y="121.256032"/>
     <use style="stroke:#000000;" x="173.770306" xlink:href="#mde9082738e" y="121.256032"/>
     <use style="stroke:#000000;" x="174.331155" xlink:href="#mde9082738e" y="121.256032"/>
     <use style="stroke:#000000;" x="174.892003" xlink:href="#mde9082738e" y="121.256032"/>
     <use style="stroke:#000000;" x="175.452852" xlink:href="#mde9082738e" y="121.256032"/>
     <use style="stroke:#000000;" x="176.0137" xlink:href="#mde9082738e" y="121.256032"/>
     <use style="stroke:#000000;" x="176.574549" xlink:href="#mde9082738e" y="121.256032"/>
     <use style="stroke:#000000;" x="177.135397" xlink:href="#mde9082738e" y="121.256032"/>
     <use style="stroke:#000000;" x="177.696246" xlink:href="#mde9082738e" y="121.256032"/>
     <use style="stroke:#000000;" x="178.257094" xlink:href="#mde9082738e" y="121.256032"/>
     <use style="stroke:#000000;" x="178.817943" xlink:href="#mde9082738e" y="121.256032"/>
     <use style="stroke:#000000;" x="179.378791" xlink:href="#mde9082738e" y="121.256032"/>
     <use style="stroke:#000000;" x="179.93964" xlink:href="#mde9082738e" y="121.256032"/>
     <use style="stroke:#000000;" x="180.500488" xlink:href="#mde9082738e" y="121.256032"/>
     <use style="stroke:#000000;" x="181.061337" xlink:href="#mde9082738e" y="8.631468"/>
     <use style="stroke:#000000;" x="181.622185" xlink:href="#mde9082738e" y="121.256032"/>
     <use style="stroke:#000000;" x="182.183034" xlink:href="#mde9082738e" y="121.256032"/>
     <use style="stroke:#000000;" x="182.743882" xlink:href="#mde9082738e" y="121.256032"/>
     <use style="stroke:#000000;" x="183.30473" xlink:href="#mde9082738e" y="121.256032"/>
     <use style="stroke:#000000;" x="183.865579" xlink:href="#mde9082738e" y="8.631468"/>
     <use style="stroke:#000000;" x="184.426427" xlink:href="#mde9082738e" y="121.256032"/>
     <use style="stroke:#000000;" x="184.987276" xlink:href="#mde9082738e" y="121.256032"/>
     <use style="stroke:#000000;" x="185.548124" xlink:href="#mde9082738e" y="121.256032"/>
     <use style="stroke:#000000;" x="186.108973" xlink:href="#mde9082738e" y="121.256032"/>
     <use style="stroke:#000000;" x="186.669821" xlink:href="#mde9082738e" y="121.256032"/>
     <use style="stroke:#000000;" x="187.23067" xlink:href="#mde9082738e" y="121.256032"/>
     <use style="stroke:#000000;" x="187.791518" xlink:href="#mde9082738e" y="121.256032"/>
     <use style="stroke:#000000;" x="188.352367" xlink:href="#mde9082738e" y="121.256032"/>
     <use style="stroke:#000000;" x="188.913215" xlink:href="#mde9082738e" y="8.631468"/>
     <use style="stroke:#000000;" x="189.474064" xlink:href="#mde9082738e" y="8.631468"/>
     <use style="stroke:#000000;" x="190.034912" xlink:href="#mde9082738e" y="121.256032"/>
     <use style="stroke:#000000;" x="190.595761" xlink:href="#mde9082738e" y="8.631468"/>
     <use style="stroke:#000000;" x="191.156609" xlink:href="#mde9082738e" y="121.256032"/>
     <use style="stroke:#000000;" x="191.717458" xlink:href="#mde9082738e" y="121.256032"/>
     <use style="stroke:#000000;" x="192.278306" xlink:href="#mde9082738e" y="121.256032"/>
     <use style="stroke:#000000;" x="192.839155" xlink:href="#mde9082738e" y="8.631468"/>
     <use style="stroke:#000000;" x="193.400003" xlink:href="#mde9082738e" y="121.256032"/>
     <use style="stroke:#000000;" x="193.960852" xlink:href="#mde9082738e" y="121.256032"/>
     <use style="stroke:#000000;" x="194.5217" xlink:href="#mde9082738e" y="8.631468"/>
     <use style="stroke:#000000;" x="195.082549" xlink:href="#mde9082738e" y="8.631468"/>
     <use style="stroke:#000000;" x="195.643397" xlink:href="#mde9082738e" y="8.631468"/>
     <use style="stroke:#000000;" x="196.204245" xlink:href="#mde9082738e" y="121.256032"/>
     <use style="stroke:#000000;" x="196.765094" xlink:href="#mde9082738e" y="121.256032"/>
     <use style="stroke:#000000;" x="197.325942" xlink:href="#mde9082738e" y="8.631468"/>
     <use style="stroke:#000000;" x="197.886791" xlink:href="#mde9082738e" y="121.256032"/>
     <use style="stroke:#000000;" x="198.447639" xlink:href="#mde9082738e" y="8.631468"/>
     <use style="stroke:#000000;" x="199.008488" xlink:href="#mde9082738e" y="121.256032"/>
     <use style="stroke:#000000;" x="199.569336" xlink:href="#mde9082738e" y="121.256032"/>
     <use style="stroke:#000000;" x="200.130185" xlink:href="#mde9082738e" y="121.256032"/>
     <use style="stroke:#000000;" x="200.691033" xlink:href="#mde9082738e" y="121.256032"/>
     <use style="stroke:#000000;" x="201.251882" xlink:href="#mde9082738e" y="121.256032"/>
     <use style="stroke:#000000;" x="201.81273" xlink:href="#mde9082738e" y="121.256032"/>
     <use style="stroke:#000000;" x="202.373579" xlink:href="#mde9082738e" y="121.256032"/>
     <use style="stroke:#000000;" x="202.934427" xlink:href="#mde9082738e" y="121.256032"/>
     <use style="stroke:#000000;" x="203.495276" xlink:href="#mde9082738e" y="121.256032"/>
     <use style="stroke:#000000;" x="204.056124" xlink:href="#mde9082738e" y="121.256032"/>
     <use style="stroke:#000000;" x="204.616973" xlink:href="#mde9082738e" y="121.256032"/>
     <use style="stroke:#000000;" x="205.177821" xlink:href="#mde9082738e" y="8.631468"/>
     <use style="stroke:#000000;" x="205.73867" xlink:href="#mde9082738e" y="8.631468"/>
     <use style="stroke:#000000;" x="206.299518" xlink:href="#mde9082738e" y="121.256032"/>
     <use style="stroke:#000000;" x="206.860367" xlink:href="#mde9082738e" y="121.256032"/>
     <use style="stroke:#000000;" x="207.421215" xlink:href="#mde9082738e" y="121.256032"/>
     <use style="stroke:#000000;" x="207.982064" xlink:href="#mde9082738e" y="121.256032"/>
     <use style="stroke:#000000;" x="208.542912" xlink:href="#mde9082738e" y="121.256032"/>
     <use style="stroke:#000000;" x="209.10376" xlink:href="#mde9082738e" y="121.256032"/>
     <use style="stroke:#000000;" x="209.664609" xlink:href="#mde9082738e" y="121.256032"/>
     <use style="stroke:#000000;" x="210.225457" xlink:href="#mde9082738e" y="8.631468"/>
     <use style="stroke:#000000;" x="210.786306" xlink:href="#mde9082738e" y="121.256032"/>
     <use style="stroke:#000000;" x="211.347154" xlink:href="#mde9082738e" y="8.631468"/>
     <use style="stroke:#000000;" x="211.908003" xlink:href="#mde9082738e" y="8.631468"/>
     <use style="stroke:#000000;" x="212.468851" xlink:href="#mde9082738e" y="121.256032"/>
     <use style="stroke:#000000;" x="213.0297" xlink:href="#mde9082738e" y="121.256032"/>
     <use style="stroke:#000000;" x="213.590548" xlink:href="#mde9082738e" y="121.256032"/>
     <use style="stroke:#000000;" x="214.151397" xlink:href="#mde9082738e" y="121.256032"/>
     <use style="stroke:#000000;" x="214.712245" xlink:href="#mde9082738e" y="121.256032"/>
     <use style="stroke:#000000;" x="215.273094" xlink:href="#mde9082738e" y="121.256032"/>
     <use style="stroke:#000000;" x="215.833942" xlink:href="#mde9082738e" y="121.256032"/>
     <use style="stroke:#000000;" x="216.394791" xlink:href="#mde9082738e" y="121.256032"/>
     <use style="stroke:#000000;" x="216.955639" xlink:href="#mde9082738e" y="8.631468"/>
     <use style="stroke:#000000;" x="217.516488" xlink:href="#mde9082738e" y="8.631468"/>
     <use style="stroke:#000000;" x="218.077336" xlink:href="#mde9082738e" y="121.256032"/>
     <use style="stroke:#000000;" x="218.638185" xlink:href="#mde9082738e" y="8.631468"/>
     <use style="stroke:#000000;" x="219.199033" xlink:href="#mde9082738e" y="121.256032"/>
     <use style="stroke:#000000;" x="219.759882" xlink:href="#mde9082738e" y="121.256032"/>
     <use style="stroke:#000000;" x="220.32073" xlink:href="#mde9082738e" y="8.631468"/>
     <use style="stroke:#000000;" x="220.881579" xlink:href="#mde9082738e" y="121.256032"/>
     <use style="stroke:#000000;" x="221.442427" xlink:href="#mde9082738e" y="121.256032"/>
     <use style="stroke:#000000;" x="222.003275" xlink:href="#mde9082738e" y="121.256032"/>
     <use style="stroke:#000000;" x="222.564124" xlink:href="#mde9082738e" y="8.631468"/>
     <use style="stroke:#000000;" x="223.124972" xlink:href="#mde9082738e" y="121.256032"/>
     <use style="stroke:#000000;" x="223.685821" xlink:href="#mde9082738e" y="8.631468"/>
     <use style="stroke:#000000;" x="224.246669" xlink:href="#mde9082738e" y="121.256032"/>
     <use style="stroke:#000000;" x="224.807518" xlink:href="#mde9082738e" y="121.256032"/>
     <use style="stroke:#000000;" x="225.368366" xlink:href="#mde9082738e" y="121.256032"/>
     <use style="stroke:#000000;" x="225.929215" xlink:href="#mde9082738e" y="121.256032"/>
     <use style="stroke:#000000;" x="226.490063" xlink:href="#mde9082738e" y="121.256032"/>
     <use style="stroke:#000000;" x="227.050912" xlink:href="#mde9082738e" y="8.631468"/>
     <use style="stroke:#000000;" x="227.61176" xlink:href="#mde9082738e" y="8.631468"/>
     <use style="stroke:#000000;" x="228.172609" xlink:href="#mde9082738e" y="121.256032"/>
     <use style="stroke:#000000;" x="228.733457" xlink:href="#mde9082738e" y="121.256032"/>
     <use style="stroke:#000000;" x="229.294306" xlink:href="#mde9082738e" y="121.256032"/>
     <use style="stroke:#000000;" x="229.855154" xlink:href="#mde9082738e" y="121.256032"/>
     <use style="stroke:#000000;" x="230.416003" xlink:href="#mde9082738e" y="121.256032"/>
     <use style="stroke:#000000;" x="230.976851" xlink:href="#mde9082738e" y="121.256032"/>
     <use style="stroke:#000000;" x="231.5377" xlink:href="#mde9082738e" y="121.256032"/>
     <use style="stroke:#000000;" x="232.098548" xlink:href="#mde9082738e" y="8.631468"/>
     <use style="stroke:#000000;" x="232.659397" xlink:href="#mde9082738e" y="121.256032"/>
     <use style="stroke:#000000;" x="233.220245" xlink:href="#mde9082738e" y="8.631468"/>
     <use style="stroke:#000000;" x="233.781093" xlink:href="#mde9082738e" y="8.631468"/>
     <use style="stroke:#000000;" x="234.341942" xlink:href="#mde9082738e" y="121.256032"/>
     <use style="stroke:#000000;" x="234.90279" xlink:href="#mde9082738e" y="8.631468"/>
     <use style="stroke:#000000;" x="235.463639" xlink:href="#mde9082738e" y="121.256032"/>
     <use style="stroke:#000000;" x="236.024487" xlink:href="#mde9082738e" y="121.256032"/>
     <use style="stroke:#000000;" x="236.585336" xlink:href="#mde9082738e" y="8.631468"/>
     <use style="stroke:#000000;" x="237.146184" xlink:href="#mde9082738e" y="121.256032"/>
     <use style="stroke:#000000;" x="237.707033" xlink:href="#mde9082738e" y="121.256032"/>
     <use style="stroke:#000000;" x="238.267881" xlink:href="#mde9082738e" y="121.256032"/>
     <use style="stroke:#000000;" x="238.82873" xlink:href="#mde9082738e" y="121.256032"/>
     <use style="stroke:#000000;" x="239.389578" xlink:href="#mde9082738e" y="8.631468"/>
     <use style="stroke:#000000;" x="239.950427" xlink:href="#mde9082738e" y="121.256032"/>
     <use style="stroke:#000000;" x="240.511275" xlink:href="#mde9082738e" y="121.256032"/>
     <use style="stroke:#000000;" x="241.072124" xlink:href="#mde9082738e" y="8.631468"/>
     <use style="stroke:#000000;" x="241.632972" xlink:href="#mde9082738e" y="121.256032"/>
     <use style="stroke:#000000;" x="242.193821" xlink:href="#mde9082738e" y="8.631468"/>
     <use style="stroke:#000000;" x="242.754669" xlink:href="#mde9082738e" y="121.256032"/>
     <use style="stroke:#000000;" x="243.315518" xlink:href="#mde9082738e" y="121.256032"/>
     <use style="stroke:#000000;" x="243.876366" xlink:href="#mde9082738e" y="8.631468"/>
     <use style="stroke:#000000;" x="244.437215" xlink:href="#mde9082738e" y="121.256032"/>
     <use style="stroke:#000000;" x="244.998063" xlink:href="#mde9082738e" y="121.256032"/>
     <use style="stroke:#000000;" x="245.558912" xlink:href="#mde9082738e" y="121.256032"/>
    </g>
   </g>
   <g id="line2d_16">
    <path clip-path="url(#p8ec084a6a6)" d="M 32.997338 85.399201 
L 33.558187 94.742979 
L 34.119035 74.838443 
L 34.679884 82.931666 
L 35.240732 88.360691 
L 35.801581 92.368307 
L 36.362429 95.459311 
L 37.484126 99.923232 
L 38.605823 102.994763 
L 39.72752 105.239526 
L 40.849217 106.954004 
L 41.970914 108.308961 
L 43.65346 109.887325 
L 45.336005 111.101425 
L 45.896853 100.418222 
L 46.457702 105.30499 
L 47.01855 106.828396 
L 47.579399 107.678144 
L 48.701096 108.751668 
L 49.261944 109.154361 
L 49.822793 100.438839 
L 50.383641 104.672075 
L 50.94449 106.069914 
L 51.505338 106.886482 
L 52.066187 98.223467 
L 52.627035 102.33723 
L 53.187884 103.919215 
L 53.748732 104.896461 
L 54.870429 106.194174 
L 55.992126 107.126137 
L 57.674671 108.226587 
L 58.23552 100.53449 
L 58.796368 81.058015 
L 59.357217 96.216254 
L 59.918065 100.514098 
L 60.478914 102.479999 
L 61.039762 103.624735 
L 62.161459 105.016268 
L 63.283156 105.952427 
L 64.404853 106.706261 
L 64.965702 99.883106 
L 65.52655 103.25279 
L 66.087399 104.338465 
L 67.209096 105.445482 
L 68.891641 106.491954 
L 71.695883 107.838687 
L 72.81758 108.324211 
L 73.378429 101.196538 
L 73.939277 104.893176 
L 74.500126 105.95787 
L 75.060974 106.519794 
L 76.182671 107.211026 
L 78.426065 108.151882 
L 80.108611 108.75365 
L 80.669459 101.669805 
L 81.230308 105.49903 
L 81.791156 106.5724 
L 82.352005 107.118402 
L 83.473701 107.759324 
L 84.03455 101.005066 
L 84.595398 81.31301 
L 85.156247 96.778806 
L 86.838792 45.428622 
L 87.399641 38.598715 
L 87.960489 34.348735 
L 88.521338 31.299714 
L 89.082186 43.036591 
L 89.643035 38.684909 
L 90.203883 35.902386 
L 91.32558 31.877612 
L 91.886429 40.123098 
L 92.447277 36.817871 
L 93.568974 33.220477 
L 94.129823 40.211004 
L 94.690671 37.237034 
L 95.812368 34.067429 
L 96.934065 31.719744 
L 98.61661 28.889075 
L 100.299156 26.562649 
L 101.981701 24.565742 
L 102.54255 32.274884 
L 103.103398 46.257449 
L 104.225095 88.824371 
L 104.785944 99.677064 
L 105.346792 104.939533 
L 105.907641 107.826091 
L 106.468489 109.693803 
L 107.029338 111.053663 
L 108.151034 112.975414 
L 109.272731 73.262951 
L 109.83358 89.506309 
L 110.394428 94.994974 
L 110.955277 97.959184 
L 111.516125 99.934304 
L 112.637822 102.628176 
L 113.759519 104.533287 
L 114.881216 106.022351 
L 115.442065 97.677319 
L 116.002913 82.334586 
L 117.12461 41.079572 
L 117.685459 30.592774 
L 118.246307 25.25151 
L 118.807156 22.239042 
L 119.368004 20.287521 
L 119.928853 18.881252 
L 120.489701 36.82155 
L 121.050549 31.229873 
L 121.611398 28.769531 
L 122.172246 27.10913 
L 123.293943 24.79317 
L 124.41564 23.157171 
L 125.537337 21.908248 
L 126.659034 20.915094 
L 127.219883 30.053207 
L 127.780731 25.884776 
L 128.34158 24.445312 
L 128.902428 23.560653 
L 130.024125 22.340508 
L 131.706671 21.040351 
L 133.389216 20.047264 
L 135.63261 19.008375 
L 138.436852 18.007321 
L 138.997701 27.809465 
L 139.558549 22.540433 
L 140.119398 21.057711 
L 140.680246 20.32412 
L 141.801943 19.514478 
L 143.484489 18.790017 
L 145.727882 18.10972 
L 146.849579 17.829709 
L 147.410428 27.38173 
L 147.971276 57.529971 
L 148.532125 35.2643 
L 149.092973 28.000281 
L 149.653822 24.752758 
L 150.21467 39.002264 
L 150.775519 31.950521 
L 151.336367 28.363196 
L 151.897216 26.165062 
L 152.458064 24.705889 
L 153.018913 23.674317 
L 154.14061 22.303412 
L 155.262307 21.402555 
L 156.944852 20.443919 
L 159.188246 19.488009 
L 162.553337 18.336289 
L 167.600973 16.878398 
L 172.648609 15.592902 
L 173.209458 28.846186 
L 173.770306 63.908526 
L 174.331155 90.117449 
L 174.892003 99.356653 
L 175.452852 103.686237 
L 176.0137 106.46416 
L 176.574549 108.484321 
L 177.696246 111.264569 
L 178.817943 113.088823 
L 179.93964 114.37314 
L 180.500488 114.88108 
L 181.061337 95.147967 
L 181.622185 102.557626 
L 182.183034 104.967838 
L 182.743882 106.306633 
L 183.30473 107.226775 
L 183.865579 97.487503 
L 184.426427 101.769407 
L 184.987276 103.546836 
L 185.548124 104.712789 
L 186.669821 106.329363 
L 187.791518 107.49886 
L 188.352367 107.98707 
L 188.913215 99.553888 
L 189.474064 80.842821 
L 190.034912 94.948259 
L 190.595761 79.519928 
L 191.156609 89.89942 
L 191.717458 94.740411 
L 192.278306 97.453719 
L 192.839155 88.732085 
L 193.400003 93.191224 
L 193.960852 95.653754 
L 194.5217 87.957747 
L 195.643397 65.036556 
L 196.204245 77.015143 
L 196.765094 82.601614 
L 197.325942 74.643891 
L 197.886791 79.96795 
L 198.447639 72.942116 
L 199.008488 77.888108 
L 200.130185 84.490214 
L 201.251882 89.126659 
L 202.373579 92.752667 
L 204.056124 97.300551 
L 204.616973 98.70319 
L 205.73867 82.667317 
L 206.299518 89.008393 
L 206.860367 91.204007 
L 207.982064 93.773102 
L 209.664609 96.608104 
L 210.225457 91.487236 
L 210.786306 93.685626 
L 211.347154 88.704179 
L 211.908003 80.556649 
L 212.468851 87.429491 
L 213.0297 89.950814 
L 213.590548 91.466839 
L 214.712245 93.569874 
L 216.394791 96.110735 
L 216.955639 91.29238 
L 217.516488 84.249202 
L 218.077336 90.031104 
L 218.638185 84.034227 
L 219.199033 88.42041 
L 219.759882 90.38349 
L 220.32073 85.752627 
L 220.881579 88.625477 
L 221.442427 90.155146 
L 222.003275 91.27023 
L 222.564124 87.326605 
L 223.124972 89.498052 
L 223.685821 85.272752 
L 224.246669 87.954894 
L 224.807518 89.382684 
L 225.929215 91.366605 
L 226.490063 92.204797 
L 227.050912 88.402103 
L 227.61176 82.715032 
L 228.172609 87.491559 
L 228.733457 89.155393 
L 229.855154 91.146027 
L 231.5377 93.542783 
L 232.098548 89.417192 
L 232.659397 91.230157 
L 233.220245 87.406916 
L 233.781093 80.878239 
L 234.341942 86.69969 
L 234.90279 81.07958 
L 235.463639 85.567565 
L 236.024487 87.671893 
L 236.585336 83.437762 
L 237.146184 86.269054 
L 237.707033 87.824172 
L 238.82873 89.918639 
L 239.389578 86.397923 
L 239.950427 88.277491 
L 240.511275 89.30479 
L 241.072124 85.98024 
L 241.632972 87.920335 
L 242.193821 84.335823 
L 242.754669 86.711965 
L 243.315518 87.964278 
L 243.876366 84.592771 
L 244.437215 86.679021 
L 245.558912 88.763247 
L 245.558912 88.763247 
" style="fill:none;stroke:#7a5195;stroke-linecap:square;"/>
   </g>
   <g id="line2d_17">
    <path clip-path="url(#p8ec084a6a6)" d="M 32.997338 82.569596 
L 33.558187 91.056278 
L 34.119035 73.884818 
L 34.679884 81.479404 
L 35.240732 86.56139 
L 36.362429 93.425372 
L 37.484126 98.158941 
L 38.605823 101.71889 
L 39.72752 104.465191 
L 40.849217 106.586222 
L 41.970914 108.219891 
L 43.092611 109.483155 
L 44.214308 110.471464 
L 45.336005 111.255781 
L 45.896853 97.673653 
L 46.457702 103.316689 
L 47.01855 105.759408 
L 47.579399 107.201797 
L 48.140247 108.194484 
L 49.261944 109.526788 
L 49.822793 97.798189 
L 50.383641 102.536254 
L 50.94449 104.700553 
L 51.505338 106.027859 
L 52.066187 95.051291 
L 52.627035 99.657187 
L 53.187884 101.952098 
L 53.748732 103.424738 
L 54.870429 105.361302 
L 55.992126 106.684741 
L 57.113823 107.687317 
L 57.674671 108.106135 
L 58.23552 98.423902 
L 58.796368 82.678853 
L 59.357217 92.165573 
L 59.918065 96.150528 
L 60.478914 98.538189 
L 61.039762 100.222152 
L 62.161459 102.598622 
L 63.283156 104.310825 
L 64.404853 105.651521 
L 64.965702 96.680842 
L 65.52655 100.13217 
L 66.087399 101.923268 
L 66.648247 103.105648 
L 67.769944 104.727366 
L 68.891641 105.902829 
L 70.574186 107.250135 
L 72.256732 108.289446 
L 72.81758 108.58758 
L 73.378429 98.977447 
L 73.939277 102.781966 
L 74.500126 104.467154 
L 75.060974 105.501509 
L 76.182671 106.84929 
L 77.304368 107.784573 
L 78.986914 108.816828 
L 80.108611 109.355005 
L 80.669459 99.392102 
L 81.230308 103.420557 
L 81.791156 105.128856 
L 82.352005 106.155046 
L 83.473701 107.463879 
L 84.03455 97.766634 
L 84.595398 81.87821 
L 85.156247 91.766951 
L 87.399641 41.919556 
L 87.960489 34.823293 
L 88.521338 30.128466 
L 89.082186 43.832753 
L 89.643035 38.850511 
L 90.203883 35.395854 
L 91.32558 30.641591 
L 91.886429 40.065273 
L 92.447277 36.19352 
L 93.008126 33.923792 
L 93.568974 32.19312 
L 94.129823 40.078356 
L 94.690671 36.438697 
L 95.25152 34.501367 
L 96.373216 31.757846 
L 97.494913 29.586503 
L 98.61661 27.786353 
L 99.738307 26.2837 
L 101.420853 24.467042 
L 101.981701 23.955314 
L 102.54255 32.277959 
L 103.103398 45.029772 
L 104.225095 80.598185 
L 104.785944 93.550892 
L 105.346792 101.425249 
L 105.907641 105.923298 
L 106.468489 108.543469 
L 107.029338 110.162694 
L 107.590186 111.234731 
L 108.151034 111.991051 
L 108.711883 92.559626 
L 109.272731 56.554949 
L 109.83358 77.061338 
L 110.394428 88.018475 
L 110.955277 94.450074 
L 111.516125 98.590127 
L 112.076974 101.454358 
L 112.637822 103.548474 
L 113.198671 105.146632 
L 114.320368 107.427184 
L 114.881216 108.268178 
L 115.442065 96.34474 
L 117.12461 42.808626 
L 117.685459 34.429317 
L 118.246307 29.700771 
L 118.807156 26.766246 
L 119.368004 24.756746 
L 119.928853 23.278971 
L 120.489701 35.589805 
L 121.050549 30.608684 
L 121.611398 28.390034 
L 122.733095 25.675923 
L 123.854792 23.823995 
L 124.976489 22.459528 
L 126.098186 21.41492 
L 126.659034 20.977196 
L 127.219883 30.957119 
L 127.780731 26.0285 
L 128.34158 24.6612 
L 129.463277 22.99788 
L 130.584974 21.829156 
L 131.706671 20.949088 
L 133.389216 19.953156 
L 135.63261 18.960351 
L 138.436852 18.008106 
L 138.997701 27.435071 
L 139.558549 22.469343 
L 140.119398 21.238974 
L 140.680246 20.442187 
L 141.801943 19.372405 
L 142.92364 18.682885 
L 144.606186 17.980757 
L 146.849579 17.315706 
L 147.410428 27.08777 
L 147.971276 50.822086 
L 148.532125 30.330325 
L 149.092973 25.462115 
L 149.653822 23.25651 
L 150.21467 35.278351 
L 150.775519 28.829263 
L 151.336367 26.556467 
L 151.897216 25.095112 
L 153.018913 23.097084 
L 154.14061 21.77654 
L 155.262307 20.843104 
L 156.944852 19.844305 
L 159.188246 18.895269 
L 161.992488 18.013362 
L 165.357579 17.209789 
L 169.283519 16.498586 
L 172.648609 16.016556 
L 173.209458 26.266958 
L 174.331155 82.154807 
L 174.892003 96.557943 
L 175.452852 102.849851 
L 176.0137 106.037865 
L 176.574549 107.911319 
L 177.135397 109.141833 
L 177.696246 110.022053 
L 178.817943 111.228805 
L 179.93964 112.041727 
L 180.500488 112.358871 
L 181.061337 96.44869 
L 181.622185 103.669206 
L 182.183034 106.557672 
L 182.743882 108.169908 
L 183.30473 109.21951 
L 183.865579 96.462228 
L 184.426427 101.973606 
L 184.987276 104.51248 
L 185.548124 106.057025 
L 186.108973 107.135244 
L 187.23067 108.59862 
L 188.352367 109.574841 
L 188.913215 98.639715 
L 189.474064 78.74658 
L 190.034912 90.583831 
L 190.595761 75.977942 
L 191.156609 84.688686 
L 191.717458 89.58089 
L 192.278306 92.882026 
L 192.839155 83.860519 
L 193.400003 88.199946 
L 193.960852 91.122539 
L 195.643397 66.829004 
L 196.204245 74.820942 
L 196.765094 79.371327 
L 197.325942 73.12934 
L 197.886791 77.613307 
L 198.447639 71.888791 
L 199.008488 76.256066 
L 199.569336 79.378953 
L 200.691033 83.921899 
L 201.81273 87.376338 
L 203.495276 91.63184 
L 204.616973 94.121753 
L 205.73867 81.169349 
L 206.299518 84.976272 
L 206.860367 87.530081 
L 207.982064 91.039842 
L 209.10376 93.606829 
L 209.664609 94.714408 
L 210.225457 88.408118 
L 210.786306 90.812562 
L 211.908003 77.526324 
L 212.468851 82.721487 
L 213.0297 85.782107 
L 213.590548 87.944448 
L 214.712245 91.05063 
L 215.833942 93.40705 
L 216.394791 94.44095 
L 217.516488 81.713991 
L 218.077336 85.836284 
L 218.638185 79.396648 
L 219.199033 83.665146 
L 219.759882 86.341645 
L 220.32073 80.453142 
L 220.881579 83.896924 
L 221.442427 86.237101 
L 222.003275 88.026155 
L 222.564124 82.467194 
L 223.124972 85.264274 
L 223.685821 79.663776 
L 224.246669 83.099526 
L 224.807518 85.440301 
L 225.929215 88.709795 
L 226.490063 89.99129 
L 227.61176 78.801408 
L 228.172609 82.685186 
L 228.733457 85.214722 
L 229.855154 88.62844 
L 230.976851 91.106401 
L 231.5377 92.178515 
L 232.098548 86.506501 
L 232.659397 88.767016 
L 233.781093 76.761121 
L 234.341942 81.589633 
L 234.90279 75.629812 
L 235.463639 80.159977 
L 236.024487 83.033219 
L 236.585336 77.619838 
L 237.146184 81.073411 
L 237.707033 83.493002 
L 238.82873 86.954748 
L 239.389578 81.7173 
L 239.950427 84.235542 
L 240.511275 86.145241 
L 241.072124 80.91127 
L 241.632972 83.665062 
L 242.193821 78.408438 
L 242.754669 81.710863 
L 243.315518 84.033056 
L 243.876366 78.912748 
L 244.437215 81.926603 
L 245.558912 85.858034 
L 245.558912 85.858034 
" style="fill:none;stroke:#ffa600;stroke-linecap:square;"/>
   </g>
   <g id="line2d_18">
    <path clip-path="url(#p8ec084a6a6)" d="M 32.997338 83.714509 
L 33.558187 92.434467 
L 34.119035 73.649509 
L 34.679884 82.0446 
L 35.240732 87.899324 
L 35.801581 92.197684 
L 36.362429 95.473879 
L 37.484126 100.102888 
L 38.605823 103.176353 
L 39.72752 105.330832 
L 40.849217 106.899189 
L 41.970914 108.072511 
L 43.092611 108.968367 
L 44.775157 109.951818 
L 45.336005 110.208297 
L 45.896853 100.867843 
L 47.01855 103.062123 
L 48.140247 104.819074 
L 49.261944 106.233361 
L 49.822793 97.672114 
L 50.94449 100.37344 
L 51.505338 101.527298 
L 52.066187 93.531899 
L 53.187884 96.949446 
L 54.309581 99.738704 
L 55.431278 102.019008 
L 56.552975 103.885791 
L 57.674671 105.415761 
L 58.796368 89.772726 
L 59.918065 93.802023 
L 61.039762 97.111937 
L 62.161459 99.832292 
L 63.283156 102.069036 
L 64.404853 103.908773 
L 64.965702 95.896104 
L 66.087399 98.824528 
L 67.209096 101.234664 
L 68.330793 103.218588 
L 69.45249 104.851907 
L 70.574186 106.196738 
L 72.256732 107.782242 
L 72.81758 108.216115 
L 73.378429 99.824173 
L 74.500126 102.054506 
L 75.621823 103.891494 
L 76.74352 105.404569 
L 77.865217 106.650886 
L 79.547762 108.120817 
L 80.108611 108.523169 
L 80.669459 100.107164 
L 81.791156 102.286693 
L 82.912853 104.082133 
L 83.473701 104.857468 
L 84.595398 89.450152 
L 85.156247 91.576864 
L 86.277944 78.509811 
L 87.399641 67.745147 
L 88.521338 58.877139 
L 89.082186 63.82734 
L 90.203883 55.649688 
L 91.32558 48.912823 
L 91.886429 54.783168 
L 93.008126 48.199022 
L 93.568974 45.355646 
L 94.129823 51.554448 
L 95.25152 45.539178 
L 96.373216 40.583653 
L 97.494913 36.501188 
L 98.61661 33.137961 
L 99.738307 30.367246 
L 100.860004 28.084669 
L 101.981701 26.204232 
L 103.103398 41.403163 
L 104.225095 53.924434 
L 105.346792 64.239777 
L 106.468489 72.737827 
L 107.590186 79.738746 
L 108.151034 82.762124 
L 109.272731 71.248973 
L 110.394428 78.51218 
L 111.516125 84.495803 
L 112.637822 89.425274 
L 113.759519 93.486302 
L 114.881216 96.831887 
L 116.002913 82.840041 
L 117.12461 71.313189 
L 118.246307 61.817054 
L 119.368004 53.993879 
L 119.928853 50.615401 
L 120.489701 56.32834 
L 121.611398 49.472132 
L 122.733095 43.823798 
L 123.854792 39.170544 
L 124.976489 35.337069 
L 126.098186 32.178956 
L 126.659034 30.815113 
L 127.219883 38.356626 
L 128.34158 34.666546 
L 129.463277 31.626554 
L 130.584974 29.122128 
L 131.706671 27.058911 
L 132.828368 25.359179 
L 133.950064 23.958899 
L 135.63261 22.307124 
L 137.315155 21.072009 
L 138.436852 20.427009 
L 138.997701 28.927876 
L 140.119398 26.898888 
L 141.241095 25.22735 
L 142.362792 23.850297 
L 144.045337 22.225918 
L 145.727882 21.011291 
L 146.849579 20.376984 
L 147.971276 36.602453 
L 149.092973 33.22141 
L 149.653822 31.761283 
L 150.21467 39.215414 
L 151.336367 35.37403 
L 152.458064 32.209399 
L 153.579761 29.602292 
L 154.701458 27.454491 
L 155.823155 25.685066 
L 156.944852 24.22737 
L 158.066549 23.026484 
L 159.749094 21.609911 
L 161.43164 20.550675 
L 163.114185 19.758641 
L 165.357579 19.004274 
L 167.600973 18.492291 
L 170.405216 18.077021 
L 172.648609 17.862972 
L 173.770306 34.531347 
L 174.892003 48.263204 
L 176.0137 59.575876 
L 177.135397 68.895558 
L 178.257094 76.573367 
L 179.378791 82.898554 
L 180.500488 88.109412 
L 181.061337 81.580339 
L 182.183034 87.023432 
L 183.30473 91.507597 
L 183.865579 84.664697 
L 184.987276 89.56441 
L 186.108973 93.600923 
L 187.23067 96.926313 
L 188.352367 99.665858 
L 189.474064 85.174743 
L 190.034912 87.696093 
L 190.595761 81.205193 
L 191.717458 86.714371 
L 192.278306 89.093537 
L 192.839155 82.473581 
L 193.960852 87.759308 
L 195.082549 75.365808 
L 195.643397 70.013616 
L 196.765094 77.49445 
L 197.325942 71.945679 
L 197.886791 75.688745 
L 198.447639 70.306734 
L 199.569336 77.735929 
L 200.691033 83.8563 
L 201.81273 88.898428 
L 202.934427 93.052273 
L 204.056124 96.474318 
L 204.616973 97.952145 
L 205.73867 83.76294 
L 206.860367 88.821518 
L 207.982064 92.988909 
L 209.10376 96.42212 
L 209.664609 97.904765 
L 210.225457 90.471084 
L 210.786306 92.503315 
L 211.908003 79.274046 
L 213.0297 85.123446 
L 214.151397 89.942339 
L 215.273094 93.912272 
L 216.394791 97.182809 
L 217.516488 83.12914 
L 218.077336 85.839402 
L 218.638185 79.519968 
L 219.759882 85.326043 
L 220.32073 79.054016 
L 221.442427 84.942177 
L 222.003275 87.485007 
L 222.564124 81.013599 
L 223.124972 83.919234 
L 223.685821 77.777126 
L 224.807518 83.890241 
L 225.929215 88.926391 
L 226.490063 91.101275 
L 227.61176 78.11901 
L 228.733457 84.171896 
L 229.855154 89.158424 
L 230.976851 93.266461 
L 231.5377 95.040537 
L 232.098548 87.871368 
L 232.659397 90.143684 
L 233.781093 77.330118 
L 234.341942 80.575925 
L 234.90279 74.742578 
L 236.024487 81.390299 
L 236.585336 75.481744 
L 237.707033 81.999241 
L 238.82873 87.368538 
L 239.389578 80.907887 
L 240.511275 86.469443 
L 241.072124 80.091824 
L 241.632972 83.082583 
L 242.193821 77.017744 
L 243.315518 83.264641 
L 243.876366 77.182983 
L 244.998063 83.400773 
L 245.558912 86.085949 
L 245.558912 86.085949 
" style="fill:none;stroke:#009999;stroke-linecap:square;"/>
   </g>
   <g id="line2d_19">
    <path clip-path="url(#p8ec084a6a6)" d="M 32.997338 69.144216 
L 33.558187 73.031358 
L 34.119035 68.227616 
L 35.240732 75.843592 
L 36.362429 82.365758 
L 37.484126 87.951205 
L 38.605823 92.734465 
L 39.72752 96.830752 
L 40.849217 100.338727 
L 41.970914 103.342883 
L 43.092611 105.915582 
L 44.775157 109.098725 
L 45.336005 110.005567 
L 45.896853 102.443833 
L 47.01855 105.145654 
L 48.701096 108.488559 
L 49.261944 109.440914 
L 49.822793 101.921301 
L 50.94449 104.698168 
L 51.505338 105.933258 
L 52.066187 98.675289 
L 53.187884 101.918351 
L 54.309581 104.695641 
L 55.431278 107.074055 
L 57.113823 110.016816 
L 57.674671 110.855176 
L 58.796368 96.173736 
L 59.918065 99.776071 
L 61.039762 102.861038 
L 62.161459 105.50294 
L 63.844005 108.771707 
L 64.404853 109.702942 
L 64.965702 102.163783 
L 66.087399 104.905823 
L 67.209096 107.254051 
L 68.891641 110.159462 
L 70.574186 112.462001 
L 72.256732 114.286763 
L 72.81758 114.806617 
L 73.378429 106.886764 
L 75.060974 109.868388 
L 76.74352 112.231324 
L 78.426065 114.103952 
L 80.108611 115.588009 
L 80.669459 107.609869 
L 82.352005 110.441448 
L 83.473701 111.994646 
L 84.595398 97.149555 
L 85.156247 98.947714 
L 86.277944 85.97643 
L 87.399641 74.868094 
L 88.521338 65.355143 
L 89.082186 69.52492 
L 90.203883 60.77936 
L 91.32558 53.289846 
L 91.886429 58.359604 
L 93.008126 51.217613 
L 93.568974 48.041012 
L 94.129823 53.50229 
L 95.25152 47.057908 
L 96.373216 41.539073 
L 97.494913 36.812863 
L 98.61661 32.765433 
L 99.738307 29.299296 
L 100.860004 26.330972 
L 101.981701 23.788954 
L 103.103398 37.787241 
L 104.225095 49.775081 
L 105.346792 60.041224 
L 106.468489 68.832933 
L 107.590186 76.361973 
L 108.151034 79.710727 
L 109.272731 69.502274 
L 110.394428 76.935185 
L 111.516125 83.300576 
L 112.637822 88.751764 
L 113.759519 93.420048 
L 114.881216 97.417872 
L 116.002913 84.666308 
L 117.12461 73.746132 
L 118.246307 64.394322 
L 119.368004 56.385622 
L 119.928853 52.823524 
L 120.489701 57.928062 
L 121.611398 50.848051 
L 122.733095 44.784877 
L 123.854792 39.5925 
L 124.976489 35.145857 
L 126.098186 31.337844 
L 126.659034 29.64412 
L 127.219883 36.477666 
L 128.34158 32.478374 
L 129.463277 29.053462 
L 130.584974 26.120441 
L 131.706671 23.608664 
L 133.389216 20.500892 
L 135.071761 18.037979 
L 136.754307 16.086129 
L 138.436852 14.539291 
L 138.997701 22.499544 
L 140.680246 19.621919 
L 142.362792 17.341403 
L 144.045337 15.534096 
L 145.727882 14.101802 
L 146.849579 13.316145 
L 147.971276 28.818542 
L 149.092973 25.91926 
L 149.653822 24.629723 
L 150.21467 31.837307 
L 151.336367 28.504463 
L 152.458064 25.650293 
L 153.579761 23.206042 
L 155.262307 20.181825 
L 156.944852 17.785129 
L 158.627397 15.885741 
L 160.309943 14.380476 
L 161.992488 13.187559 
L 163.675034 12.242168 
L 165.918428 11.279504 
L 168.161822 10.573504 
L 170.966064 9.949488 
L 172.648609 9.676003 
L 173.770306 25.701204 
L 174.892003 39.424851 
L 176.0137 51.177503 
L 177.135397 61.242231 
L 178.257094 69.861454 
L 179.378791 77.242779 
L 180.500488 83.563992 
L 181.061337 77.974601 
L 182.183034 84.190709 
L 183.30473 89.514056 
L 183.865579 83.480835 
L 184.987276 88.906135 
L 186.108973 93.55225 
L 187.23067 97.531085 
L 188.352367 100.938478 
L 189.474064 87.681284 
L 190.034912 90.185703 
L 190.595761 84.10238 
L 191.717458 89.438415 
L 192.278306 91.811767 
L 192.839155 85.607154 
L 193.960852 90.727069 
L 195.082549 78.936442 
L 195.643397 73.692227 
L 196.765094 80.523372 
L 197.325942 75.160785 
L 197.886791 78.599136 
L 198.447639 73.380085 
L 199.569336 80.256063 
L 200.691033 86.144506 
L 201.81273 91.187245 
L 202.934427 95.505744 
L 204.056124 99.204017 
L 204.616973 100.848929 
L 205.73867 87.604595 
L 206.860367 92.437635 
L 207.982064 96.576553 
L 209.10376 100.121036 
L 209.664609 101.697545 
L 210.225457 94.755527 
L 210.786306 96.732262 
L 211.908003 84.079167 
L 213.0297 89.418531 
L 214.151397 93.991053 
L 215.273094 97.906868 
L 216.394791 101.26029 
L 217.516488 87.956874 
L 218.077336 90.440738 
L 218.638185 84.338394 
L 219.759882 89.640528 
L 220.32073 83.597872 
L 221.442427 89.006363 
L 222.003275 91.41194 
L 222.564124 85.23715 
L 223.124972 87.923883 
L 223.685821 82.009277 
L 224.807518 87.645923 
L 225.929215 92.473029 
L 226.490063 94.620021 
L 227.61176 82.270286 
L 228.733457 87.869444 
L 229.855154 92.664449 
L 230.976851 96.770792 
L 231.5377 98.597204 
L 232.098548 91.886449 
L 232.659397 94.077195 
L 233.781093 81.805421 
L 234.341942 84.748136 
L 234.90279 79.070415 
L 236.024487 85.129142 
L 236.585336 79.423 
L 237.707033 85.431087 
L 238.82873 90.576289 
L 239.389578 84.463832 
L 240.511275 89.747955 
L 241.072124 83.697287 
L 241.632972 86.498882 
L 242.193821 80.690568 
L 243.315518 86.516608 
L 243.876366 80.706972 
L 244.998063 86.530655 
L 245.558912 89.120902 
L 245.558912 89.120902 
" style="fill:none;stroke:#ef5675;stroke-linecap:square;"/>
   </g>
   <g id="patch_3">
    <path d="M 32.43649 126.88726 
L 32.43649 3.00024 
" style="fill:none;stroke:#000000;stroke-linecap:square;stroke-linejoin:miter;stroke-width:0.8;"/>
   </g>
   <g id="patch_4">
    <path d="M 32.43649 126.88726 
L 246.11976 126.88726 
" style="fill:none;stroke:#000000;stroke-linecap:square;stroke-linejoin:miter;stroke-width:0.8;"/>
   </g>
   <g id="legend_1">
    <g id="line2d_20">
     <path d="M 181.84226 25.617692 
L 197.84226 25.617692 
" style="fill:none;stroke:#7a5195;stroke-linecap:square;"/>
    </g>
    <g id="line2d_21"/>
    <g id="text_17">
     <!-- Optimal -->
     <g transform="translate(204.24226 28.417692)scale(0.08 -0.08)">
      <defs>
       <path d="M 4.828125 34.859375 
Q 4.828125 52.6875 14.390625 62.765625 
Q 23.96875 72.859375 39.109375 72.859375 
Q 49.03125 72.859375 56.984375 68.109375 
Q 64.9375 63.375 69.109375 54.90625 
Q 73.296875 46.4375 73.296875 35.6875 
Q 73.296875 24.8125 68.890625 16.21875 
Q 64.5 7.625 56.4375 3.203125 
Q 48.390625 -1.21875 39.0625 -1.21875 
Q 28.953125 -1.21875 20.984375 3.65625 
Q 13.03125 8.546875 8.921875 16.984375 
Q 4.828125 25.4375 4.828125 34.859375 
z
M 14.59375 34.71875 
Q 14.59375 21.78125 21.546875 14.328125 
Q 28.515625 6.890625 39.015625 6.890625 
Q 49.703125 6.890625 56.609375 14.40625 
Q 63.53125 21.921875 63.53125 35.75 
Q 63.53125 44.484375 60.578125 51 
Q 57.625 57.515625 51.921875 61.109375 
Q 46.234375 64.703125 39.15625 64.703125 
Q 29.109375 64.703125 21.84375 57.78125 
Q 14.59375 50.875 14.59375 34.71875 
z
" id="ArialMT-79"/>
       <path d="M 40.4375 6.390625 
Q 35.546875 2.25 31.03125 0.53125 
Q 26.515625 -1.171875 21.34375 -1.171875 
Q 12.796875 -1.171875 8.203125 3 
Q 3.609375 7.171875 3.609375 13.671875 
Q 3.609375 17.484375 5.34375 20.625 
Q 7.078125 23.78125 9.890625 25.6875 
Q 12.703125 27.59375 16.21875 28.5625 
Q 18.796875 29.25 24.03125 29.890625 
Q 34.671875 31.15625 39.703125 32.90625 
Q 39.75 34.71875 39.75 35.203125 
Q 39.75 40.578125 37.25 42.78125 
Q 33.890625 45.75 27.25 45.75 
Q 21.046875 45.75 18.09375 43.578125 
Q 15.140625 41.40625 13.71875 35.890625 
L 5.125 37.0625 
Q 6.296875 42.578125 8.984375 45.96875 
Q 11.671875 49.359375 16.75 51.1875 
Q 21.828125 53.03125 28.515625 53.03125 
Q 35.15625 53.03125 39.296875 51.46875 
Q 43.453125 49.90625 45.40625 47.53125 
Q 47.359375 45.171875 48.140625 41.546875 
Q 48.578125 39.3125 48.578125 33.453125 
L 48.578125 21.734375 
Q 48.578125 9.46875 49.140625 6.21875 
Q 49.703125 2.984375 51.375 0 
L 42.1875 0 
Q 40.828125 2.734375 40.4375 6.390625 
z
M 39.703125 26.03125 
Q 34.90625 24.078125 25.34375 22.703125 
Q 19.921875 21.921875 17.671875 20.9375 
Q 15.4375 19.96875 14.203125 18.09375 
Q 12.984375 16.21875 12.984375 13.921875 
Q 12.984375 10.40625 15.640625 8.0625 
Q 18.3125 5.71875 23.4375 5.71875 
Q 28.515625 5.71875 32.46875 7.9375 
Q 36.421875 10.15625 38.28125 14.015625 
Q 39.703125 17 39.703125 22.796875 
z
" id="ArialMT-97"/>
       <path d="M 6.390625 0 
L 6.390625 71.578125 
L 15.1875 71.578125 
L 15.1875 0 
z
" id="ArialMT-108"/>
      </defs>
      <use xlink:href="#ArialMT-79"/>
      <use x="77.783203" xlink:href="#ArialMT-112"/>
      <use x="133.398438" xlink:href="#ArialMT-116"/>
      <use x="161.181641" xlink:href="#ArialMT-105"/>
      <use x="183.398438" xlink:href="#ArialMT-109"/>
      <use x="266.699219" xlink:href="#ArialMT-97"/>
      <use x="322.314453" xlink:href="#ArialMT-108"/>
     </g>
    </g>
    <g id="line2d_22">
     <path d="M 181.84226 36.933942 
L 197.84226 36.933942 
" style="fill:none;stroke:#ffa600;stroke-linecap:square;"/>
    </g>
    <g id="line2d_23"/>
    <g id="text_18">
     <!-- Network -->
     <g transform="translate(204.24226 39.733942)scale(0.08 -0.08)">
      <defs>
       <path d="M 7.625 0 
L 7.625 71.578125 
L 17.328125 71.578125 
L 54.9375 15.375 
L 54.9375 71.578125 
L 64.015625 71.578125 
L 64.015625 0 
L 54.296875 0 
L 16.703125 56.25 
L 16.703125 0 
z
" id="ArialMT-78"/>
       <path d="M 16.15625 0 
L 0.296875 51.859375 
L 9.375 51.859375 
L 17.625 21.921875 
L 20.703125 10.796875 
Q 20.90625 11.625 23.390625 21.484375 
L 31.640625 51.859375 
L 40.671875 51.859375 
L 48.4375 21.78125 
L 51.03125 11.859375 
L 54 21.875 
L 62.890625 51.859375 
L 71.4375 51.859375 
L 55.21875 0 
L 46.09375 0 
L 37.84375 31.0625 
L 35.84375 39.890625 
L 25.34375 0 
z
" id="ArialMT-119"/>
       <path d="M 6.640625 0 
L 6.640625 71.578125 
L 15.4375 71.578125 
L 15.4375 30.765625 
L 36.234375 51.859375 
L 47.609375 51.859375 
L 27.78125 32.625 
L 49.609375 0 
L 38.765625 0 
L 21.625 26.515625 
L 15.4375 20.5625 
L 15.4375 0 
z
" id="ArialMT-107"/>
      </defs>
      <use xlink:href="#ArialMT-78"/>
      <use x="72.216797" xlink:href="#ArialMT-101"/>
      <use x="127.832031" xlink:href="#ArialMT-116"/>
      <use x="155.615234" xlink:href="#ArialMT-119"/>
      <use x="227.832031" xlink:href="#ArialMT-111"/>
      <use x="283.447266" xlink:href="#ArialMT-114"/>
      <use x="316.748047" xlink:href="#ArialMT-107"/>
     </g>
    </g>
    <g id="line2d_24">
     <path d="M 181.84226 48.250192 
L 197.84226 48.250192 
" style="fill:none;stroke:#009999;stroke-linecap:square;"/>
    </g>
    <g id="line2d_25"/>
    <g id="text_19">
     <!-- Leaky -->
     <g transform="translate(204.24226 51.050192)scale(0.08 -0.08)">
      <defs>
       <path d="M 7.328125 0 
L 7.328125 71.578125 
L 16.796875 71.578125 
L 16.796875 8.453125 
L 52.046875 8.453125 
L 52.046875 0 
z
" id="ArialMT-76"/>
       <path d="M 6.203125 -19.96875 
L 5.21875 -11.71875 
Q 8.109375 -12.5 10.25 -12.5 
Q 13.1875 -12.5 14.9375 -11.515625 
Q 16.703125 -10.546875 17.828125 -8.796875 
Q 18.65625 -7.46875 20.515625 -2.25 
Q 20.75 -1.515625 21.296875 -0.09375 
L 1.609375 51.859375 
L 11.078125 51.859375 
L 21.875 21.828125 
Q 23.96875 16.109375 25.640625 9.8125 
Q 27.15625 15.875 29.25 21.625 
L 40.328125 51.859375 
L 49.125 51.859375 
L 29.390625 -0.875 
Q 26.21875 -9.421875 24.46875 -12.640625 
Q 22.125 -17 19.09375 -19.015625 
Q 16.0625 -21.046875 11.859375 -21.046875 
Q 9.328125 -21.046875 6.203125 -19.96875 
z
" id="ArialMT-121"/>
      </defs>
      <use xlink:href="#ArialMT-76"/>
      <use x="55.615234" xlink:href="#ArialMT-101"/>
      <use x="111.230469" xlink:href="#ArialMT-97"/>
      <use x="166.845703" xlink:href="#ArialMT-107"/>
      <use x="216.845703" xlink:href="#ArialMT-121"/>
     </g>
    </g>
    <g id="line2d_26">
     <path d="M 181.84226 59.660192 
L 197.84226 59.660192 
" style="fill:none;stroke:#ef5675;stroke-linecap:square;"/>
    </g>
    <g id="line2d_27"/>
    <g id="text_20">
     <!-- Delta-rule -->
     <g transform="translate(204.24226 62.460192)scale(0.08 -0.08)">
      <defs>
       <path d="M 7.71875 0 
L 7.71875 71.578125 
L 32.375 71.578125 
Q 40.71875 71.578125 45.125 70.5625 
Q 51.265625 69.140625 55.609375 65.4375 
Q 61.28125 60.640625 64.078125 53.1875 
Q 66.890625 45.75 66.890625 36.1875 
Q 66.890625 28.03125 64.984375 21.734375 
Q 63.09375 15.4375 60.109375 11.296875 
Q 57.125 7.171875 53.578125 4.796875 
Q 50.046875 2.4375 45.046875 1.21875 
Q 40.046875 0 33.546875 0 
z
M 17.1875 8.453125 
L 32.46875 8.453125 
Q 39.546875 8.453125 43.578125 9.765625 
Q 47.609375 11.078125 50 13.484375 
Q 53.375 16.84375 55.25 22.53125 
Q 57.125 28.21875 57.125 36.328125 
Q 57.125 47.5625 53.4375 53.59375 
Q 49.75 59.625 44.484375 61.671875 
Q 40.671875 63.140625 32.234375 63.140625 
L 17.1875 63.140625 
z
" id="ArialMT-68"/>
       <path d="M 3.171875 21.484375 
L 3.171875 30.328125 
L 30.171875 30.328125 
L 30.171875 21.484375 
z
" id="ArialMT-45"/>
       <path d="M 40.578125 0 
L 40.578125 7.625 
Q 34.515625 -1.171875 24.125 -1.171875 
Q 19.53125 -1.171875 15.546875 0.578125 
Q 11.578125 2.34375 9.640625 5 
Q 7.71875 7.671875 6.9375 11.53125 
Q 6.390625 14.109375 6.390625 19.734375 
L 6.390625 51.859375 
L 15.1875 51.859375 
L 15.1875 23.09375 
Q 15.1875 16.21875 15.71875 13.8125 
Q 16.546875 10.359375 19.234375 8.375 
Q 21.921875 6.390625 25.875 6.390625 
Q 29.828125 6.390625 33.296875 8.421875 
Q 36.765625 10.453125 38.203125 13.9375 
Q 39.65625 17.4375 39.65625 24.078125 
L 39.65625 51.859375 
L 48.4375 51.859375 
L 48.4375 0 
z
" id="ArialMT-117"/>
      </defs>
      <use xlink:href="#ArialMT-68"/>
      <use x="72.216797" xlink:href="#ArialMT-101"/>
      <use x="127.832031" xlink:href="#ArialMT-108"/>
      <use x="150.048828" xlink:href="#ArialMT-116"/>
      <use x="177.832031" xlink:href="#ArialMT-97"/>
      <use x="233.447266" xlink:href="#ArialMT-45"/>
      <use x="266.748047" xlink:href="#ArialMT-114"/>
      <use x="300.048828" xlink:href="#ArialMT-117"/>
      <use x="355.664062" xlink:href="#ArialMT-108"/>
      <use x="377.880859" xlink:href="#ArialMT-101"/>
     </g>
    </g>
   </g>
  </g>
 </g>
 <defs>
  <clipPath id="p8ec084a6a6">
   <rect height="123.88702" width="213.68327" x="32.43649" y="3.00024"/>
  </clipPath>
 </defs>
</svg>
