<?xml version="1.0" encoding="utf-8" standalone="no"?>
<!DOCTYPE svg PUBLIC "-//W3C//DTD SVG 1.1//EN"
  "http://www.w3.org/Graphics/SVG/1.1/DTD/svg11.dtd">
<!-- Created with matplotlib (https://matplotlib.org/) -->
<svg height="123.84pt" version="1.1" viewBox="0 0 123.84 123.84" width="123.84pt" xmlns="http://www.w3.org/2000/svg" xmlns:xlink="http://www.w3.org/1999/xlink">
 <metadata>
  <rdf:RDF xmlns:cc="http://creativecommons.org/ns#" xmlns:dc="http://purl.org/dc/elements/1.1/" xmlns:rdf="http://www.w3.org/1999/02/22-rdf-syntax-ns#">
   <cc:Work>
    <dc:type rdf:resource="http://purl.org/dc/dcmitype/StillImage"/>
    <dc:date>2021-11-11T09:58:35.592511</dc:date>
    <dc:format>image/svg+xml</dc:format>
    <dc:creator>
     <cc:Agent>
      <dc:title>Matplotlib v3.3.4, https://matplotlib.org/</dc:title>
     </cc:Agent>
    </dc:creator>
   </cc:Work>
  </rdf:RDF>
 </metadata>
 <defs>
  <style type="text/css">*{stroke-linecap:butt;stroke-linejoin:round;}</style>
 </defs>
 <g id="figure_1">
  <g id="patch_1">
   <path d="M 0 123.84 
L 123.84 123.84 
L 123.84 0 
L 0 0 
z
" style="fill:#ffffff;"/>
  </g>
  <g id="axes_1">
   <g id="patch_2">
    <path d="M 5.224615 23.41311 
L 56.076185 23.41311 
L 56.076185 3.00024 
L 5.224615 3.00024 
z
" style="fill:#ffffff;"/>
   </g>
   <g id="matplotlib.axis_1">
    <g id="xtick_1">
     <g id="line2d_1">
      <defs>
       <path d="M 0 0 
L 0 3.5 
" id="m15ad1e5b7f" style="stroke:#000000;stroke-width:0.8;"/>
      </defs>
      <g>
       <use style="stroke:#000000;stroke-width:0.8;" x="5.224615" xlink:href="#m15ad1e5b7f" y="23.41311"/>
      </g>
     </g>
     <g id="text_1">
      <!-- 0 -->
      <g transform="translate(3.00024 36.13936)scale(0.08 -0.08)">
       <defs>
        <path d="M 4.15625 35.296875 
Q 4.15625 48 6.765625 55.734375 
Q 9.375 63.484375 14.515625 67.671875 
Q 19.671875 71.875 27.484375 71.875 
Q 33.25 71.875 37.59375 69.546875 
Q 41.9375 67.234375 44.765625 62.859375 
Q 47.609375 58.5 49.21875 52.21875 
Q 50.828125 45.953125 50.828125 35.296875 
Q 50.828125 22.703125 48.234375 14.96875 
Q 45.65625 7.234375 40.5 3 
Q 35.359375 -1.21875 27.484375 -1.21875 
Q 17.140625 -1.21875 11.234375 6.203125 
Q 4.15625 15.140625 4.15625 35.296875 
z
M 13.1875 35.296875 
Q 13.1875 17.671875 17.3125 11.828125 
Q 21.4375 6 27.484375 6 
Q 33.546875 6 37.671875 11.859375 
Q 41.796875 17.71875 41.796875 35.296875 
Q 41.796875 52.984375 37.671875 58.78125 
Q 33.546875 64.59375 27.390625 64.59375 
Q 21.34375 64.59375 17.71875 59.46875 
Q 13.1875 52.9375 13.1875 35.296875 
z
" id="ArialMT-48"/>
       </defs>
       <use xlink:href="#ArialMT-48"/>
      </g>
     </g>
    </g>
    <g id="xtick_2">
     <g id="line2d_2">
      <g>
       <use style="stroke:#000000;stroke-width:0.8;" x="56.076185" xlink:href="#m15ad1e5b7f" y="23.41311"/>
      </g>
     </g>
     <g id="text_2">
      <!-- 1 -->
      <g transform="translate(53.85181 36.13936)scale(0.08 -0.08)">
       <defs>
        <path d="M 37.25 0 
L 28.46875 0 
L 28.46875 56 
Q 25.296875 52.984375 20.140625 49.953125 
Q 14.984375 46.921875 10.890625 45.40625 
L 10.890625 53.90625 
Q 18.265625 57.375 23.78125 62.296875 
Q 29.296875 67.234375 31.59375 71.875 
L 37.25 71.875 
z
" id="ArialMT-49"/>
       </defs>
       <use xlink:href="#ArialMT-49"/>
      </g>
     </g>
    </g>
   </g>
   <g id="matplotlib.axis_2">
    <g id="ytick_1"/>
    <g id="ytick_2"/>
   </g>
   <g id="line2d_3">
    <path clip-path="url(#p7380e943a3)" d="M 56.076185 21.48809 
L 55.567669 21.426503 
L 55.059154 21.336278 
L 54.550638 21.225153 
L 54.042122 21.099789 
L 53.533606 20.965876 
L 53.025091 20.828226 
L 52.516575 20.690866 
L 52.008059 20.557114 
L 51.499544 20.429658 
L 50.991028 20.310624 
L 50.482512 20.201638 
L 49.973997 20.103886 
L 49.465481 20.018166 
L 48.956965 19.944941 
L 48.448449 19.884377 
L 47.939934 19.836387 
L 47.431418 19.800658 
L 46.922902 19.776681 
L 46.414387 19.763755 
L 45.905871 19.760983 
L 45.397355 19.767249 
L 44.88884 19.781148 
L 44.380324 19.800882 
L 43.871808 19.824056 
L 43.363293 19.847349 
L 42.854777 19.865957 
L 42.346261 19.872736 
L 41.837745 19.856953 
L 41.32923 19.802691 
L 40.820714 19.687119 
L 40.312198 19.479162 
L 39.803683 19.139388 
L 39.295167 18.622122 
L 38.786651 17.880655 
L 38.278135 16.875837 
L 37.76962 15.587297 
L 37.261104 14.025319 
L 36.752588 12.240329 
L 36.244073 10.326662 
L 35.735557 8.417949 
L 35.227041 6.673321 
L 34.718526 5.255998 
L 34.21001 4.308248 
L 33.701494 3.928098 
L 33.192979 4.153105 
L 32.684463 4.954956 
L 32.175947 6.245899 
L 31.667431 7.89513 
L 31.158916 9.751028 
L 30.6504 11.664114 
L 30.141884 13.506156 
L 29.633369 15.182378 
L 29.124853 16.635833 
L 28.616337 17.844906 
L 28.107822 18.816096 
L 27.599306 19.574713 
L 27.09079 20.155722 
L 26.582274 20.596301 
L 26.073759 20.930766 
L 25.565243 21.187838 
L 25.056727 21.389797 
L 24.548212 21.552858 
L 24.039696 21.688209 
L 23.53118 21.803223 
L 23.022664 21.902596 
L 22.514149 21.989272 
L 22.005633 22.065112 
L 21.497117 22.131364 
L 20.988602 22.18895 
L 20.480086 22.23864 
L 19.97157 22.28114 
L 19.463055 22.317142 
L 18.954539 22.347327 
L 18.446023 22.372374 
L 17.937508 22.392942 
L 17.428992 22.409663 
L 16.920476 22.423133 
L 16.41196 22.433896 
L 15.903445 22.442444 
L 15.394929 22.449209 
L 14.886413 22.454564 
L 14.377898 22.458822 
L 13.869382 22.462244 
L 13.360866 22.465036 
L 12.852351 22.467361 
L 12.343835 22.469342 
L 11.835319 22.471074 
L 11.326803 22.472621 
L 10.818288 22.474031 
L 10.309772 22.475335 
L 9.801256 22.476556 
L 9.292741 22.477708 
L 8.784225 22.478801 
L 8.275709 22.479843 
L 7.767194 22.480838 
L 7.258678 22.481791 
L 6.750162 22.482707 
L 6.241646 22.483587 
L 5.733131 22.484435 
L 5.224615 22.485252 
" style="fill:none;stroke:#2aa02b;stroke-linecap:square;"/>
   </g>
   <g id="line2d_4">
    <path clip-path="url(#p7380e943a3)" d="M 36.017449 23.41311 
L 36.017449 3.00024 
" style="fill:none;stroke:#2aa02b;stroke-dasharray:3.7,1.6;stroke-dashoffset:0;"/>
   </g>
   <g id="patch_3">
    <path d="M 5.224615 23.41311 
L 5.224615 3.00024 
" style="fill:none;stroke:#000000;stroke-linecap:square;stroke-linejoin:miter;stroke-width:0.8;"/>
   </g>
   <g id="patch_4">
    <path d="M 5.224615 23.41311 
L 56.076185 23.41311 
" style="fill:none;stroke:#000000;stroke-linecap:square;stroke-linejoin:miter;stroke-width:0.8;"/>
   </g>
  </g>
  <g id="axes_2">
   <g id="patch_5">
    <path d="M 67.763815 23.41311 
L 118.615385 23.41311 
L 118.615385 3.00024 
L 67.763815 3.00024 
z
" style="fill:#ffffff;"/>
   </g>
   <g id="matplotlib.axis_3">
    <g id="xtick_3">
     <g id="line2d_5">
      <g>
       <use style="stroke:#000000;stroke-width:0.8;" x="67.763815" xlink:href="#m15ad1e5b7f" y="23.41311"/>
      </g>
     </g>
     <g id="text_3">
      <!-- 0 -->
      <g transform="translate(65.53944 36.13936)scale(0.08 -0.08)">
       <use xlink:href="#ArialMT-48"/>
      </g>
     </g>
    </g>
    <g id="xtick_4">
     <g id="line2d_6">
      <g>
       <use style="stroke:#000000;stroke-width:0.8;" x="118.615385" xlink:href="#m15ad1e5b7f" y="23.41311"/>
      </g>
     </g>
     <g id="text_4">
      <!-- 1 -->
      <g transform="translate(116.39101 36.13936)scale(0.08 -0.08)">
       <use xlink:href="#ArialMT-49"/>
      </g>
     </g>
    </g>
   </g>
   <g id="matplotlib.axis_4">
    <g id="ytick_3"/>
    <g id="ytick_4"/>
   </g>
   <g id="line2d_7">
    <path clip-path="url(#p385eb59889)" d="M 118.615385 19.13063 
L 118.106869 19.007838 
L 117.598354 18.806016 
L 117.089838 18.553041 
L 116.581322 18.271711 
L 116.072807 17.980416 
L 115.564291 17.693728 
L 115.055775 17.422932 
L 114.547259 17.1765 
L 114.038744 16.960513 
L 113.530228 16.779031 
L 113.021712 16.634428 
L 112.513197 16.527684 
L 112.004681 16.458641 
L 111.496165 16.42623 
L 110.98765 16.428664 
L 110.479134 16.463607 
L 109.970618 16.528306 
L 109.462102 16.619699 
L 108.953587 16.734488 
L 108.445071 16.869167 
L 107.936555 17.020018 
L 107.42804 17.183039 
L 106.919524 17.353795 
L 106.411008 17.527155 
L 105.902493 17.696827 
L 105.393977 17.854621 
L 104.885461 17.989324 
L 104.376945 18.085193 
L 103.86843 18.120185 
L 103.359914 18.064394 
L 102.851398 17.879471 
L 102.342883 17.520079 
L 101.834367 16.938431 
L 101.325851 16.092435 
L 100.817336 14.956961 
L 100.30882 13.536395 
L 99.800304 11.875392 
L 99.291788 10.064167 
L 98.783273 8.235216 
L 98.274757 6.550147 
L 97.766241 5.177939 
L 97.257726 4.268622 
L 96.74921 3.928098 
L 96.240694 4.200031 
L 95.732179 5.059083 
L 95.223663 6.416888 
L 94.715147 8.138957 
L 94.206631 10.068102 
L 93.698116 12.048886 
L 93.1896 13.948036 
L 92.681084 15.667498 
L 92.172569 17.149074 
L 91.664053 18.371673 
L 91.155537 19.343568 
L 90.647022 20.092449 
L 90.138506 20.655747 
L 89.62999 21.072832 
L 89.121474 21.379776 
L 88.612959 21.606627 
L 88.104443 21.776633 
L 87.595927 21.906743 
L 87.087412 22.008738 
L 86.578896 22.090517 
L 86.07038 22.157271 
L 85.561865 22.212405 
L 85.053349 22.258209 
L 84.544833 22.296302 
L 84.036317 22.327905 
L 83.527802 22.354004 
L 83.019286 22.375435 
L 82.51077 22.39293 
L 82.002255 22.407134 
L 81.493739 22.418619 
L 80.985223 22.427883 
L 80.476708 22.435358 
L 79.968192 22.44141 
L 79.459676 22.446347 
L 78.95116 22.450418 
L 78.442645 22.453827 
L 77.934129 22.456731 
L 77.425613 22.459256 
L 76.917098 22.461494 
L 76.408582 22.463514 
L 75.900066 22.465367 
L 75.391551 22.46709 
L 74.883035 22.468707 
L 74.374519 22.470236 
L 73.866003 22.471691 
L 73.357488 22.47308 
L 72.848972 22.47441 
L 72.340456 22.475686 
L 71.831941 22.476912 
L 71.323425 22.478091 
L 70.814909 22.479226 
L 70.306394 22.480321 
L 69.797878 22.481376 
L 69.289362 22.482395 
L 68.780846 22.48338 
L 68.272331 22.484332 
L 67.763815 22.485252 
" style="fill:none;stroke:#2aa02b;stroke-linecap:square;"/>
   </g>
   <g id="line2d_8">
    <path clip-path="url(#p385eb59889)" d="M 101.639526 23.41311 
L 101.639526 3.00024 
" style="fill:none;stroke:#2aa02b;stroke-dasharray:3.7,1.6;stroke-dashoffset:0;"/>
   </g>
   <g id="patch_6">
    <path d="M 67.763815 23.41311 
L 67.763815 3.00024 
" style="fill:none;stroke:#000000;stroke-linecap:square;stroke-linejoin:miter;stroke-width:0.8;"/>
   </g>
   <g id="patch_7">
    <path d="M 67.763815 23.41311 
L 118.615385 23.41311 
" style="fill:none;stroke:#000000;stroke-linecap:square;stroke-linejoin:miter;stroke-width:0.8;"/>
   </g>
  </g>
  <g id="axes_3">
   <g id="patch_8">
    <path d="M 5.224615 64.96831 
L 56.076185 64.96831 
L 56.076185 44.55544 
L 5.224615 44.55544 
z
" style="fill:#ffffff;"/>
   </g>
   <g id="matplotlib.axis_5">
    <g id="xtick_5">
     <g id="line2d_9">
      <g>
       <use style="stroke:#000000;stroke-width:0.8;" x="5.224615" xlink:href="#m15ad1e5b7f" y="64.96831"/>
      </g>
     </g>
     <g id="text_5">
      <!-- 0 -->
      <g transform="translate(3.00024 77.69456)scale(0.08 -0.08)">
       <use xlink:href="#ArialMT-48"/>
      </g>
     </g>
    </g>
    <g id="xtick_6">
     <g id="line2d_10">
      <g>
       <use style="stroke:#000000;stroke-width:0.8;" x="56.076185" xlink:href="#m15ad1e5b7f" y="64.96831"/>
      </g>
     </g>
     <g id="text_6">
      <!-- 1 -->
      <g transform="translate(53.85181 77.69456)scale(0.08 -0.08)">
       <use xlink:href="#ArialMT-49"/>
      </g>
     </g>
    </g>
   </g>
   <g id="matplotlib.axis_6">
    <g id="ytick_5"/>
    <g id="ytick_6"/>
   </g>
   <g id="line2d_11">
    <path clip-path="url(#p720a527e17)" d="M 56.076185 63.7232 
L 55.567669 63.71398 
L 55.059154 63.701642 
L 54.550638 63.685703 
L 54.042122 63.665867 
L 53.533606 63.641994 
L 53.025091 63.614081 
L 52.516575 63.58224 
L 52.008059 63.54668 
L 51.499544 63.507685 
L 50.991028 63.465604 
L 50.482512 63.420834 
L 49.973997 63.373808 
L 49.465481 63.324978 
L 48.956965 63.274814 
L 48.448449 63.223785 
L 47.939934 63.172357 
L 47.431418 63.12098 
L 46.922902 63.070089 
L 46.414387 63.020089 
L 45.905871 62.971359 
L 45.397355 62.924241 
L 44.88884 62.879039 
L 44.380324 62.836019 
L 43.871808 62.7954 
L 43.363293 62.757356 
L 42.854777 62.722012 
L 42.346261 62.689436 
L 41.837745 62.659637 
L 41.32923 62.632555 
L 40.820714 62.608047 
L 40.312198 62.585866 
L 39.803683 62.565631 
L 39.295167 62.546782 
L 38.786651 62.528494 
L 38.278135 62.509549 
L 37.76962 62.488118 
L 37.261104 62.461401 
L 36.752588 62.425081 
L 36.244073 62.372515 
L 35.735557 62.293654 
L 35.227041 62.173759 
L 34.718526 61.992093 
L 34.21001 61.721019 
L 33.701494 61.326048 
L 33.192979 60.767563 
L 32.684463 60.004836 
L 32.175947 59.002627 
L 31.667431 57.740013 
L 31.158916 56.220246 
L 30.6504 54.479571 
L 30.141884 52.592453 
L 29.633369 50.670745 
L 29.124853 48.855267 
L 28.616337 47.299964 
L 28.107822 46.150789 
L 27.599306 45.523231 
L 27.09079 45.483298 
L 26.582274 46.036304 
L 26.073759 47.126186 
L 25.565243 48.645466 
L 25.056727 50.45345 
L 24.548212 52.398405 
L 24.039696 54.338836 
L 23.53118 56.15983 
L 23.022664 57.782086 
L 22.514149 59.163424 
L 22.005633 60.294202 
L 21.497117 61.189095 
L 20.988602 61.877786 
L 20.480086 62.396555 
L 19.97157 62.781909 
L 19.463055 63.066574 
L 18.954539 63.277572 
L 18.446023 63.435819 
L 17.937508 63.556675 
L 17.428992 63.650933 
L 16.920476 63.725912 
L 16.41196 63.78647 
L 15.903445 63.835819 
L 15.394929 63.876137 
L 14.886413 63.908988 
L 14.377898 63.93558 
L 13.869382 63.956917 
L 13.360866 63.973877 
L 12.852351 63.987239 
L 12.343835 63.997699 
L 11.835319 64.005865 
L 11.326803 64.012258 
L 10.818288 64.01731 
L 10.309772 64.021368 
L 9.801256 64.024699 
L 9.292741 64.027498 
L 8.784225 64.029902 
L 8.275709 64.032004 
L 7.767194 64.033862 
L 7.258678 64.035513 
L 6.750162 64.036981 
L 6.241646 64.038284 
L 5.733131 64.039437 
L 5.224615 64.040452 
" style="fill:none;stroke:#bdb421;stroke-linecap:square;"/>
   </g>
   <g id="line2d_12">
    <path clip-path="url(#p720a527e17)" d="M 29.380599 64.96831 
L 29.380599 44.55544 
" style="fill:none;stroke:#bdb421;stroke-dasharray:3.7,1.6;stroke-dashoffset:0;"/>
   </g>
   <g id="patch_9">
    <path d="M 5.224615 64.96831 
L 5.224615 44.55544 
" style="fill:none;stroke:#000000;stroke-linecap:square;stroke-linejoin:miter;stroke-width:0.8;"/>
   </g>
   <g id="patch_10">
    <path d="M 5.224615 64.96831 
L 56.076185 64.96831 
" style="fill:none;stroke:#000000;stroke-linecap:square;stroke-linejoin:miter;stroke-width:0.8;"/>
   </g>
  </g>
  <g id="axes_4">
   <g id="patch_11">
    <path d="M 67.763815 64.96831 
L 118.615385 64.96831 
L 118.615385 44.55544 
L 67.763815 44.55544 
z
" style="fill:#ffffff;"/>
   </g>
   <g id="matplotlib.axis_7">
    <g id="xtick_7">
     <g id="line2d_13">
      <g>
       <use style="stroke:#000000;stroke-width:0.8;" x="67.763815" xlink:href="#m15ad1e5b7f" y="64.96831"/>
      </g>
     </g>
     <g id="text_7">
      <!-- 0 -->
      <g transform="translate(65.53944 77.69456)scale(0.08 -0.08)">
       <use xlink:href="#ArialMT-48"/>
      </g>
     </g>
    </g>
    <g id="xtick_8">
     <g id="line2d_14">
      <g>
       <use style="stroke:#000000;stroke-width:0.8;" x="118.615385" xlink:href="#m15ad1e5b7f" y="64.96831"/>
      </g>
     </g>
     <g id="text_8">
      <!-- 1 -->
      <g transform="translate(116.39101 77.69456)scale(0.08 -0.08)">
       <use xlink:href="#ArialMT-49"/>
      </g>
     </g>
    </g>
   </g>
   <g id="matplotlib.axis_8">
    <g id="ytick_7"/>
    <g id="ytick_8"/>
   </g>
   <g id="line2d_15">
    <path clip-path="url(#p438566d03a)" d="M 118.615385 54.305514 
L 118.106869 54.458031 
L 117.598354 54.546691 
L 117.089838 54.568994 
L 116.581322 54.527448 
L 116.072806 54.428175 
L 115.564291 54.279763 
L 115.055775 54.092331 
L 114.547259 53.876764 
L 114.038744 53.644112 
L 113.530228 53.40512 
L 113.021712 53.16988 
L 112.513197 52.947566 
L 112.004681 52.746262 
L 111.496165 52.572855 
L 110.98765 52.432987 
L 110.479134 52.331044 
L 109.970618 52.270187 
L 109.462102 52.25242 
L 108.953587 52.278662 
L 108.445071 52.34885 
L 107.936555 52.462041 
L 107.42804 52.616528 
L 106.919524 52.809956 
L 106.411008 53.039426 
L 105.902493 53.301605 
L 105.393977 53.592818 
L 104.885461 53.909133 
L 104.376945 54.246428 
L 103.86843 54.600442 
L 103.359914 54.966802 
L 102.851398 55.341031 
L 102.342883 55.718513 
L 101.834367 56.094412 
L 101.325851 56.463501 
L 100.817336 56.819876 
L 100.30882 57.156455 
L 99.800304 57.464232 
L 99.291788 57.731227 
L 98.783273 57.941179 
L 98.274757 58.072195 
L 97.766241 58.095761 
L 97.257726 57.976779 
L 96.74921 57.675417 
L 96.240694 57.15149 
L 95.732179 56.371709 
L 95.223663 55.319314 
L 94.715147 54.004646 
L 94.206631 52.474195 
L 93.698116 50.815159 
L 93.1896 49.152806 
L 92.681084 47.639237 
L 92.172569 46.434233 
L 91.664053 45.681226 
L 91.155537 45.483298 
L 90.647022 45.884741 
L 90.138506 46.862707 
L 89.62999 48.33113 
L 89.121474 50.155983 
L 88.612959 52.178091 
L 88.104443 54.238154 
L 87.595927 56.198501 
L 87.087412 57.957648 
L 86.578896 59.456001 
L 86.07038 60.673446 
L 85.561865 61.621218 
L 85.053349 62.331173 
L 84.544833 62.845233 
L 84.036317 63.206913 
L 83.527802 63.455709 
L 83.019286 63.624268 
L 82.51077 63.737698 
L 82.002255 63.814217 
L 81.493739 63.866435 
L 80.985223 63.902756 
L 80.476708 63.928635 
L 79.968192 63.947558 
L 79.459676 63.961749 
L 78.95116 63.972646 
L 78.442645 63.981204 
L 77.934129 63.988075 
L 77.425613 63.993717 
L 76.917098 63.998461 
L 76.408582 64.002544 
L 75.900066 64.00614 
L 75.391551 64.009371 
L 74.883035 64.012324 
L 74.374519 64.01506 
L 73.866003 64.01762 
L 73.357488 64.020035 
L 72.848972 64.022324 
L 72.340456 64.024503 
L 71.831941 64.026583 
L 71.323425 64.028571 
L 70.814909 64.030477 
L 70.306394 64.032305 
L 69.797878 64.034061 
L 69.289362 64.03575 
L 68.780846 64.037375 
L 68.272331 64.038942 
L 67.763815 64.040452 
" style="fill:none;stroke:#bdb421;stroke-linecap:square;"/>
   </g>
   <g id="line2d_16">
    <path clip-path="url(#p438566d03a)" d="M 101.738795 64.96831 
L 101.738795 44.55544 
" style="fill:none;stroke:#bdb421;stroke-dasharray:3.7,1.6;stroke-dashoffset:0;"/>
   </g>
   <g id="patch_12">
    <path d="M 67.763815 64.96831 
L 67.763815 44.55544 
" style="fill:none;stroke:#000000;stroke-linecap:square;stroke-linejoin:miter;stroke-width:0.8;"/>
   </g>
   <g id="patch_13">
    <path d="M 67.763815 64.96831 
L 118.615385 64.96831 
" style="fill:none;stroke:#000000;stroke-linecap:square;stroke-linejoin:miter;stroke-width:0.8;"/>
   </g>
  </g>
  <g id="axes_5">
   <g id="patch_14">
    <path d="M 5.224615 106.52351 
L 56.076185 106.52351 
L 56.076185 86.11064 
L 5.224615 86.11064 
z
" style="fill:#ffffff;"/>
   </g>
   <g id="matplotlib.axis_9">
    <g id="xtick_9">
     <g id="line2d_17">
      <g>
       <use style="stroke:#000000;stroke-width:0.8;" x="5.224615" xlink:href="#m15ad1e5b7f" y="106.52351"/>
      </g>
     </g>
     <g id="text_9">
      <!-- 0 -->
      <g transform="translate(3.00024 119.24976)scale(0.08 -0.08)">
       <use xlink:href="#ArialMT-48"/>
      </g>
     </g>
    </g>
    <g id="xtick_10">
     <g id="line2d_18">
      <g>
       <use style="stroke:#000000;stroke-width:0.8;" x="56.076185" xlink:href="#m15ad1e5b7f" y="106.52351"/>
      </g>
     </g>
     <g id="text_10">
      <!-- 1 -->
      <g transform="translate(53.85181 119.24976)scale(0.08 -0.08)">
       <use xlink:href="#ArialMT-49"/>
      </g>
     </g>
    </g>
   </g>
   <g id="matplotlib.axis_10">
    <g id="ytick_9"/>
    <g id="ytick_10"/>
   </g>
   <g id="line2d_19">
    <path clip-path="url(#p5ff64c047f)" d="M 56.076185 105.595652 
L 55.567669 105.595194 
L 55.059154 105.594721 
L 54.550638 105.59423 
L 54.042122 105.59372 
L 53.533606 105.593186 
L 53.025091 105.592627 
L 52.516575 105.592039 
L 52.008059 105.591418 
L 51.499544 105.590761 
L 50.991028 105.590063 
L 50.482512 105.58932 
L 49.973997 105.588525 
L 49.465481 105.587675 
L 48.956965 105.586761 
L 48.448449 105.585777 
L 47.939934 105.584715 
L 47.431418 105.583566 
L 46.922902 105.582322 
L 46.414387 105.580972 
L 45.905871 105.579505 
L 45.397355 105.57791 
L 44.88884 105.576173 
L 44.380324 105.574282 
L 43.871808 105.572223 
L 43.363293 105.569979 
L 42.854777 105.567535 
L 42.346261 105.564875 
L 41.837745 105.561979 
L 41.32923 105.55883 
L 40.820714 105.555407 
L 40.312198 105.55169 
L 39.803683 105.547656 
L 39.295167 105.543282 
L 38.786651 105.538542 
L 38.278135 105.533411 
L 37.76962 105.527859 
L 37.261104 105.521854 
L 36.752588 105.515363 
L 36.244073 105.508347 
L 35.735557 105.500763 
L 35.227041 105.492559 
L 34.718526 105.483677 
L 34.21001 105.474047 
L 33.701494 105.46358 
L 33.192979 105.452167 
L 32.684463 105.439666 
L 32.175947 105.425892 
L 31.667431 105.410597 
L 31.158916 105.393445 
L 30.6504 105.373978 
L 30.141884 105.351561 
L 29.633369 105.325305 
L 29.124853 105.293951 
L 28.616337 105.255695 
L 28.107822 105.20792 
L 27.599306 105.146796 
L 27.09079 105.066685 
L 26.582274 104.959321 
L 26.073759 104.812722 
L 25.565243 104.609899 
L 25.056727 104.327553 
L 24.548212 103.935132 
L 24.039696 103.394889 
L 23.53118 102.663763 
L 23.022664 101.697995 
L 22.514149 100.461079 
L 22.005633 98.935017 
L 21.497117 97.133594 
L 20.988602 95.114982 
L 20.480086 92.989659 
L 19.97157 90.919178 
L 19.463055 89.102323 
L 18.954539 87.748014 
L 18.446023 87.038498 
L 17.937508 87.090722 
L 17.428992 87.926439 
L 16.920476 89.460977 
L 16.41196 91.516059 
L 15.903445 93.854697 
L 15.394929 96.228796 
L 14.886413 98.425696 
L 14.377898 100.300746 
L 13.869382 101.788657 
L 13.360866 102.894353 
L 12.852351 103.670563 
L 12.343835 104.191941 
L 11.835319 104.533714 
L 11.326803 104.758696 
L 10.818288 104.912476 
L 10.309772 105.024299 
L 9.801256 105.110792 
L 9.292741 105.18034 
L 8.784225 105.236807 
L 8.275709 105.282095 
L 7.767194 105.317558 
L 7.258678 105.344596 
L 6.750162 105.364781 
L 6.241646 105.379801 
L 5.733131 105.39135 
L 5.224615 105.401103 
" style="fill:none;stroke:#e378c1;stroke-linecap:square;"/>
   </g>
   <g id="line2d_20">
    <path clip-path="url(#p5ff64c047f)" d="M 18.741929 106.52351 
L 18.741929 86.11064 
" style="fill:none;stroke:#e378c1;stroke-dasharray:3.7,1.6;stroke-dashoffset:0;"/>
   </g>
   <g id="patch_15">
    <path d="M 5.224615 106.52351 
L 5.224615 86.11064 
" style="fill:none;stroke:#000000;stroke-linecap:square;stroke-linejoin:miter;stroke-width:0.8;"/>
   </g>
   <g id="patch_16">
    <path d="M 5.224615 106.52351 
L 56.076185 106.52351 
" style="fill:none;stroke:#000000;stroke-linecap:square;stroke-linejoin:miter;stroke-width:0.8;"/>
   </g>
  </g>
  <g id="axes_6">
   <g id="patch_17">
    <path d="M 67.763815 106.52351 
L 118.615385 106.52351 
L 118.615385 86.11064 
L 67.763815 86.11064 
z
" style="fill:#ffffff;"/>
   </g>
   <g id="matplotlib.axis_11">
    <g id="xtick_11">
     <g id="line2d_21">
      <g>
       <use style="stroke:#000000;stroke-width:0.8;" x="67.763815" xlink:href="#m15ad1e5b7f" y="106.52351"/>
      </g>
     </g>
     <g id="text_11">
      <!-- 0 -->
      <g transform="translate(65.53944 119.24976)scale(0.08 -0.08)">
       <use xlink:href="#ArialMT-48"/>
      </g>
     </g>
    </g>
    <g id="xtick_12">
     <g id="line2d_22">
      <g>
       <use style="stroke:#000000;stroke-width:0.8;" x="118.615385" xlink:href="#m15ad1e5b7f" y="106.52351"/>
      </g>
     </g>
     <g id="text_12">
      <!-- 1 -->
      <g transform="translate(116.39101 119.24976)scale(0.08 -0.08)">
       <use xlink:href="#ArialMT-49"/>
      </g>
     </g>
    </g>
   </g>
   <g id="matplotlib.axis_12">
    <g id="ytick_11"/>
    <g id="ytick_12"/>
   </g>
   <g id="line2d_23">
    <path clip-path="url(#pf51d74c130)" d="M 118.615385 87.038498 
L 118.106869 87.700879 
L 117.598354 88.344308 
L 117.089838 88.96855 
L 116.581322 89.573476 
L 116.072806 90.159037 
L 115.564291 90.725252 
L 115.055775 91.272186 
L 114.547259 91.799942 
L 114.038744 92.308654 
L 113.530228 92.798479 
L 113.021712 93.269596 
L 112.513197 93.722204 
L 112.004681 94.156521 
L 111.496165 94.57279 
L 110.98765 94.971282 
L 110.479134 95.352293 
L 109.970618 95.716154 
L 109.462102 96.063238 
L 108.953587 96.393955 
L 108.445071 96.708757 
L 107.936555 97.008144 
L 107.42804 97.292661 
L 106.919524 97.562899 
L 106.411008 97.81949 
L 105.902493 98.063111 
L 105.393977 98.294471 
L 104.885461 98.514313 
L 104.376945 98.723404 
L 103.86843 98.922528 
L 103.359914 99.112478 
L 102.851398 99.294049 
L 102.342883 99.468024 
L 101.834367 99.635171 
L 101.325851 99.79623 
L 100.817336 99.951901 
L 100.30882 100.10284 
L 99.800304 100.249645 
L 99.291788 100.392846 
L 98.783273 100.532896 
L 98.274757 100.670159 
L 97.766241 100.804896 
L 97.257726 100.937251 
L 96.74921 101.067228 
L 96.240694 101.194673 
L 95.732179 101.319238 
L 95.223663 101.440352 
L 94.715147 101.557174 
L 94.206631 101.668539 
L 93.698116 101.772897 
L 93.1896 101.868222 
L 92.681084 101.951912 
L 92.172569 102.02063 
L 91.664053 102.070081 
L 91.155537 102.094697 
L 90.647022 102.087193 
L 90.138506 102.038012 
L 89.62999 101.934712 
L 89.121474 101.761496 
L 88.612959 101.499182 
L 88.104443 101.126085 
L 87.595927 100.620357 
L 87.087412 99.964195 
L 86.578896 99.149995 
L 86.07038 98.187832 
L 85.561865 97.112775 
L 85.053349 95.989732 
L 84.544833 94.913148 
L 84.036317 93.999394 
L 83.527802 93.371245 
L 83.019286 93.136334 
L 82.51077 93.364043 
L 82.002255 94.067052 
L 81.493739 95.193563 
L 80.985223 96.633767 
L 80.476708 98.23995 
L 79.968192 99.855101 
L 79.459676 101.34209 
L 78.95116 102.605364 
L 78.442645 103.600074 
L 77.934129 104.328085 
L 77.425613 104.82458 
L 76.917098 105.141154 
L 76.408582 105.330935 
L 75.900066 105.438974 
L 75.391551 105.49839 
L 74.883035 105.530823 
L 74.374519 105.549045 
L 73.866003 105.559971 
L 73.357488 105.567115 
L 72.848972 105.572208 
L 72.340456 105.576113 
L 71.831941 105.579291 
L 71.323425 105.582003 
L 70.814909 105.584405 
L 70.306394 105.586592 
L 69.797878 105.588619 
L 69.289362 105.590522 
L 68.780846 105.59232 
L 68.272331 105.594027 
L 67.763815 105.595652 
" style="fill:none;stroke:#e378c1;stroke-linecap:square;"/>
   </g>
   <g id="line2d_24">
    <path clip-path="url(#pf51d74c130)" d="M 101.709833 106.52351 
L 101.709833 86.11064 
" style="fill:none;stroke:#e378c1;stroke-dasharray:3.7,1.6;stroke-dashoffset:0;"/>
   </g>
   <g id="patch_18">
    <path d="M 67.763815 106.52351 
L 67.763815 86.11064 
" style="fill:none;stroke:#000000;stroke-linecap:square;stroke-linejoin:miter;stroke-width:0.8;"/>
   </g>
   <g id="patch_19">
    <path d="M 67.763815 106.52351 
L 118.615385 106.52351 
" style="fill:none;stroke:#000000;stroke-linecap:square;stroke-linejoin:miter;stroke-width:0.8;"/>
   </g>
  </g>
 </g>
 <defs>
  <clipPath id="p7380e943a3">
   <rect height="20.41287" width="50.85157" x="5.224615" y="3.00024"/>
  </clipPath>
  <clipPath id="p385eb59889">
   <rect height="20.41287" width="50.85157" x="67.763815" y="3.00024"/>
  </clipPath>
  <clipPath id="p720a527e17">
   <rect height="20.41287" width="50.85157" x="5.224615" y="44.55544"/>
  </clipPath>
  <clipPath id="p438566d03a">
   <rect height="20.41287" width="50.85157" x="67.763815" y="44.55544"/>
  </clipPath>
  <clipPath id="p5ff64c047f">
   <rect height="20.41287" width="50.85157" x="5.224615" y="86.11064"/>
  </clipPath>
  <clipPath id="pf51d74c130">
   <rect height="20.41287" width="50.85157" x="67.763815" y="86.11064"/>
  </clipPath>
 </defs>
</svg>
