<?xml version="1.0" encoding="utf-8" standalone="no"?>
<!DOCTYPE svg PUBLIC "-//W3C//DTD SVG 1.1//EN"
  "http://www.w3.org/Graphics/SVG/1.1/DTD/svg11.dtd">
<!-- Created with matplotlib (https://matplotlib.org/) -->
<svg height="123.84pt" version="1.1" viewBox="0 0 123.84 123.84" width="123.84pt" xmlns="http://www.w3.org/2000/svg" xmlns:xlink="http://www.w3.org/1999/xlink">
 <metadata>
  <rdf:RDF xmlns:cc="http://creativecommons.org/ns#" xmlns:dc="http://purl.org/dc/elements/1.1/" xmlns:rdf="http://www.w3.org/1999/02/22-rdf-syntax-ns#">
   <cc:Work>
    <dc:type rdf:resource="http://purl.org/dc/dcmitype/StillImage"/>
    <dc:date>2021-11-11T09:58:24.365596</dc:date>
    <dc:format>image/svg+xml</dc:format>
    <dc:creator>
     <cc:Agent>
      <dc:title>Matplotlib v3.3.4, https://matplotlib.org/</dc:title>
     </cc:Agent>
    </dc:creator>
   </cc:Work>
  </rdf:RDF>
 </metadata>
 <defs>
  <style type="text/css">*{stroke-linecap:butt;stroke-linejoin:round;}</style>
 </defs>
 <g id="figure_1">
  <g id="patch_1">
   <path d="M 0 123.84 
L 123.84 123.84 
L 123.84 0 
L 0 0 
z
" style="fill:#ffffff;"/>
  </g>
  <g id="axes_1">
   <g id="patch_2">
    <path d="M 14.51274 109.52351 
L 120.83976 109.52351 
L 120.83976 3.00024 
L 14.51274 3.00024 
z
" style="fill:#ffffff;"/>
   </g>
   <g id="matplotlib.axis_1">
    <g id="xtick_1"/>
    <g id="xtick_2"/>
    <g id="text_1">
     <!-- Prediction -->
     <g transform="translate(49.89 119.24976)scale(0.08 -0.08)">
      <defs>
       <path d="M 7.71875 0 
L 7.71875 71.578125 
L 34.71875 71.578125 
Q 41.84375 71.578125 45.609375 70.90625 
Q 50.875 70.015625 54.4375 67.546875 
Q 58.015625 65.09375 60.1875 60.640625 
Q 62.359375 56.203125 62.359375 50.875 
Q 62.359375 41.75 56.546875 35.421875 
Q 50.734375 29.109375 35.546875 29.109375 
L 17.1875 29.109375 
L 17.1875 0 
z
M 17.1875 37.546875 
L 35.6875 37.546875 
Q 44.875 37.546875 48.734375 40.96875 
Q 52.59375 44.390625 52.59375 50.59375 
Q 52.59375 55.078125 50.3125 58.265625 
Q 48.046875 61.46875 44.34375 62.5 
Q 41.9375 63.140625 35.5 63.140625 
L 17.1875 63.140625 
z
" id="ArialMT-80"/>
       <path d="M 6.5 0 
L 6.5 51.859375 
L 14.40625 51.859375 
L 14.40625 44 
Q 17.4375 49.515625 20 51.265625 
Q 22.5625 53.03125 25.640625 53.03125 
Q 30.078125 53.03125 34.671875 50.203125 
L 31.640625 42.046875 
Q 28.421875 43.953125 25.203125 43.953125 
Q 22.3125 43.953125 20.015625 42.21875 
Q 17.71875 40.484375 16.75 37.40625 
Q 15.28125 32.71875 15.28125 27.15625 
L 15.28125 0 
z
" id="ArialMT-114"/>
       <path d="M 42.09375 16.703125 
L 51.171875 15.578125 
Q 49.03125 7.625 43.21875 3.21875 
Q 37.40625 -1.171875 28.375 -1.171875 
Q 17 -1.171875 10.328125 5.828125 
Q 3.65625 12.84375 3.65625 25.484375 
Q 3.65625 38.578125 10.390625 45.796875 
Q 17.140625 53.03125 27.875 53.03125 
Q 38.28125 53.03125 44.875 45.953125 
Q 51.46875 38.875 51.46875 26.03125 
Q 51.46875 25.25 51.421875 23.6875 
L 12.75 23.6875 
Q 13.234375 15.140625 17.578125 10.59375 
Q 21.921875 6.0625 28.421875 6.0625 
Q 33.25 6.0625 36.671875 8.59375 
Q 40.09375 11.140625 42.09375 16.703125 
z
M 13.234375 30.90625 
L 42.1875 30.90625 
Q 41.609375 37.453125 38.875 40.71875 
Q 34.671875 45.796875 27.984375 45.796875 
Q 21.921875 45.796875 17.796875 41.75 
Q 13.671875 37.703125 13.234375 30.90625 
z
" id="ArialMT-101"/>
       <path d="M 40.234375 0 
L 40.234375 6.546875 
Q 35.296875 -1.171875 25.734375 -1.171875 
Q 19.53125 -1.171875 14.328125 2.25 
Q 9.125 5.671875 6.265625 11.796875 
Q 3.421875 17.921875 3.421875 25.875 
Q 3.421875 33.640625 6 39.96875 
Q 8.59375 46.296875 13.765625 49.65625 
Q 18.953125 53.03125 25.34375 53.03125 
Q 30.03125 53.03125 33.6875 51.046875 
Q 37.359375 49.078125 39.65625 45.90625 
L 39.65625 71.578125 
L 48.390625 71.578125 
L 48.390625 0 
z
M 12.453125 25.875 
Q 12.453125 15.921875 16.640625 10.984375 
Q 20.84375 6.0625 26.5625 6.0625 
Q 32.328125 6.0625 36.34375 10.765625 
Q 40.375 15.484375 40.375 25.140625 
Q 40.375 35.796875 36.265625 40.765625 
Q 32.171875 45.75 26.171875 45.75 
Q 20.3125 45.75 16.375 40.96875 
Q 12.453125 36.1875 12.453125 25.875 
z
" id="ArialMT-100"/>
       <path d="M 6.640625 61.46875 
L 6.640625 71.578125 
L 15.4375 71.578125 
L 15.4375 61.46875 
z
M 6.640625 0 
L 6.640625 51.859375 
L 15.4375 51.859375 
L 15.4375 0 
z
" id="ArialMT-105"/>
       <path d="M 40.4375 19 
L 49.078125 17.875 
Q 47.65625 8.9375 41.8125 3.875 
Q 35.984375 -1.171875 27.484375 -1.171875 
Q 16.84375 -1.171875 10.375 5.78125 
Q 3.90625 12.75 3.90625 25.734375 
Q 3.90625 34.125 6.6875 40.421875 
Q 9.46875 46.734375 15.15625 49.875 
Q 20.84375 53.03125 27.546875 53.03125 
Q 35.984375 53.03125 41.359375 48.75 
Q 46.734375 44.484375 48.25 36.625 
L 39.703125 35.296875 
Q 38.484375 40.53125 35.375 43.15625 
Q 32.28125 45.796875 27.875 45.796875 
Q 21.234375 45.796875 17.078125 41.03125 
Q 12.9375 36.28125 12.9375 25.984375 
Q 12.9375 15.53125 16.9375 10.796875 
Q 20.953125 6.0625 27.390625 6.0625 
Q 32.5625 6.0625 36.03125 9.234375 
Q 39.5 12.40625 40.4375 19 
z
" id="ArialMT-99"/>
       <path d="M 25.78125 7.859375 
L 27.046875 0.09375 
Q 23.34375 -0.6875 20.40625 -0.6875 
Q 15.625 -0.6875 12.984375 0.828125 
Q 10.359375 2.34375 9.28125 4.8125 
Q 8.203125 7.28125 8.203125 15.1875 
L 8.203125 45.015625 
L 1.765625 45.015625 
L 1.765625 51.859375 
L 8.203125 51.859375 
L 8.203125 64.703125 
L 16.9375 69.96875 
L 16.9375 51.859375 
L 25.78125 51.859375 
L 25.78125 45.015625 
L 16.9375 45.015625 
L 16.9375 14.703125 
Q 16.9375 10.9375 17.40625 9.859375 
Q 17.875 8.796875 18.921875 8.15625 
Q 19.96875 7.515625 21.921875 7.515625 
Q 23.390625 7.515625 25.78125 7.859375 
z
" id="ArialMT-116"/>
       <path d="M 3.328125 25.921875 
Q 3.328125 40.328125 11.328125 47.265625 
Q 18.015625 53.03125 27.640625 53.03125 
Q 38.328125 53.03125 45.109375 46.015625 
Q 51.90625 39.015625 51.90625 26.65625 
Q 51.90625 16.65625 48.90625 10.90625 
Q 45.90625 5.171875 40.15625 2 
Q 34.421875 -1.171875 27.640625 -1.171875 
Q 16.75 -1.171875 10.03125 5.8125 
Q 3.328125 12.796875 3.328125 25.921875 
z
M 12.359375 25.921875 
Q 12.359375 15.96875 16.703125 11.015625 
Q 21.046875 6.0625 27.640625 6.0625 
Q 34.1875 6.0625 38.53125 11.03125 
Q 42.875 16.015625 42.875 26.21875 
Q 42.875 35.84375 38.5 40.796875 
Q 34.125 45.75 27.640625 45.75 
Q 21.046875 45.75 16.703125 40.8125 
Q 12.359375 35.890625 12.359375 25.921875 
z
" id="ArialMT-111"/>
       <path d="M 6.59375 0 
L 6.59375 51.859375 
L 14.5 51.859375 
L 14.5 44.484375 
Q 20.21875 53.03125 31 53.03125 
Q 35.6875 53.03125 39.625 51.34375 
Q 43.5625 49.65625 45.515625 46.921875 
Q 47.46875 44.1875 48.25 40.4375 
Q 48.734375 37.984375 48.734375 31.890625 
L 48.734375 0 
L 39.9375 0 
L 39.9375 31.546875 
Q 39.9375 36.921875 38.90625 39.578125 
Q 37.890625 42.234375 35.28125 43.8125 
Q 32.671875 45.40625 29.15625 45.40625 
Q 23.53125 45.40625 19.453125 41.84375 
Q 15.375 38.28125 15.375 28.328125 
L 15.375 0 
z
" id="ArialMT-110"/>
      </defs>
      <use xlink:href="#ArialMT-80"/>
      <use x="66.699219" xlink:href="#ArialMT-114"/>
      <use x="100" xlink:href="#ArialMT-101"/>
      <use x="155.615234" xlink:href="#ArialMT-100"/>
      <use x="211.230469" xlink:href="#ArialMT-105"/>
      <use x="233.447266" xlink:href="#ArialMT-99"/>
      <use x="283.447266" xlink:href="#ArialMT-116"/>
      <use x="311.230469" xlink:href="#ArialMT-105"/>
      <use x="333.447266" xlink:href="#ArialMT-111"/>
      <use x="389.0625" xlink:href="#ArialMT-110"/>
     </g>
    </g>
   </g>
   <g id="matplotlib.axis_2">
    <g id="ytick_1"/>
    <g id="ytick_2"/>
    <g id="ytick_3"/>
    <g id="ytick_4"/>
    <g id="text_2">
     <!-- Orthognalized precision -->
     <g transform="translate(8.82899 98.2825)rotate(-90)scale(0.08 -0.08)">
      <defs>
       <path d="M 4.828125 34.859375 
Q 4.828125 52.6875 14.390625 62.765625 
Q 23.96875 72.859375 39.109375 72.859375 
Q 49.03125 72.859375 56.984375 68.109375 
Q 64.9375 63.375 69.109375 54.90625 
Q 73.296875 46.4375 73.296875 35.6875 
Q 73.296875 24.8125 68.890625 16.21875 
Q 64.5 7.625 56.4375 3.203125 
Q 48.390625 -1.21875 39.0625 -1.21875 
Q 28.953125 -1.21875 20.984375 3.65625 
Q 13.03125 8.546875 8.921875 16.984375 
Q 4.828125 25.4375 4.828125 34.859375 
z
M 14.59375 34.71875 
Q 14.59375 21.78125 21.546875 14.328125 
Q 28.515625 6.890625 39.015625 6.890625 
Q 49.703125 6.890625 56.609375 14.40625 
Q 63.53125 21.921875 63.53125 35.75 
Q 63.53125 44.484375 60.578125 51 
Q 57.625 57.515625 51.921875 61.109375 
Q 46.234375 64.703125 39.15625 64.703125 
Q 29.109375 64.703125 21.84375 57.78125 
Q 14.59375 50.875 14.59375 34.71875 
z
" id="ArialMT-79"/>
       <path d="M 6.59375 0 
L 6.59375 71.578125 
L 15.375 71.578125 
L 15.375 45.90625 
Q 21.53125 53.03125 30.90625 53.03125 
Q 36.671875 53.03125 40.921875 50.75 
Q 45.171875 48.484375 47 44.484375 
Q 48.828125 40.484375 48.828125 32.859375 
L 48.828125 0 
L 40.046875 0 
L 40.046875 32.859375 
Q 40.046875 39.453125 37.1875 42.453125 
Q 34.328125 45.453125 29.109375 45.453125 
Q 25.203125 45.453125 21.75 43.421875 
Q 18.3125 41.40625 16.84375 37.9375 
Q 15.375 34.46875 15.375 28.375 
L 15.375 0 
z
" id="ArialMT-104"/>
       <path d="M 4.984375 -4.296875 
L 13.53125 -5.5625 
Q 14.0625 -9.515625 16.5 -11.328125 
Q 19.78125 -13.765625 25.4375 -13.765625 
Q 31.546875 -13.765625 34.859375 -11.328125 
Q 38.1875 -8.890625 39.359375 -4.5 
Q 40.046875 -1.8125 39.984375 6.78125 
Q 34.234375 0 25.640625 0 
Q 14.9375 0 9.078125 7.71875 
Q 3.21875 15.4375 3.21875 26.21875 
Q 3.21875 33.640625 5.90625 39.90625 
Q 8.59375 46.1875 13.6875 49.609375 
Q 18.796875 53.03125 25.6875 53.03125 
Q 34.859375 53.03125 40.828125 45.609375 
L 40.828125 51.859375 
L 48.921875 51.859375 
L 48.921875 7.03125 
Q 48.921875 -5.078125 46.453125 -10.125 
Q 44 -15.1875 38.640625 -18.109375 
Q 33.296875 -21.046875 25.484375 -21.046875 
Q 16.21875 -21.046875 10.5 -16.875 
Q 4.78125 -12.703125 4.984375 -4.296875 
z
M 12.25 26.859375 
Q 12.25 16.65625 16.296875 11.96875 
Q 20.359375 7.28125 26.46875 7.28125 
Q 32.515625 7.28125 36.609375 11.9375 
Q 40.71875 16.609375 40.71875 26.5625 
Q 40.71875 36.078125 36.5 40.90625 
Q 32.28125 45.75 26.3125 45.75 
Q 20.453125 45.75 16.34375 40.984375 
Q 12.25 36.234375 12.25 26.859375 
z
" id="ArialMT-103"/>
       <path d="M 40.4375 6.390625 
Q 35.546875 2.25 31.03125 0.53125 
Q 26.515625 -1.171875 21.34375 -1.171875 
Q 12.796875 -1.171875 8.203125 3 
Q 3.609375 7.171875 3.609375 13.671875 
Q 3.609375 17.484375 5.34375 20.625 
Q 7.078125 23.78125 9.890625 25.6875 
Q 12.703125 27.59375 16.21875 28.5625 
Q 18.796875 29.25 24.03125 29.890625 
Q 34.671875 31.15625 39.703125 32.90625 
Q 39.75 34.71875 39.75 35.203125 
Q 39.75 40.578125 37.25 42.78125 
Q 33.890625 45.75 27.25 45.75 
Q 21.046875 45.75 18.09375 43.578125 
Q 15.140625 41.40625 13.71875 35.890625 
L 5.125 37.0625 
Q 6.296875 42.578125 8.984375 45.96875 
Q 11.671875 49.359375 16.75 51.1875 
Q 21.828125 53.03125 28.515625 53.03125 
Q 35.15625 53.03125 39.296875 51.46875 
Q 43.453125 49.90625 45.40625 47.53125 
Q 47.359375 45.171875 48.140625 41.546875 
Q 48.578125 39.3125 48.578125 33.453125 
L 48.578125 21.734375 
Q 48.578125 9.46875 49.140625 6.21875 
Q 49.703125 2.984375 51.375 0 
L 42.1875 0 
Q 40.828125 2.734375 40.4375 6.390625 
z
M 39.703125 26.03125 
Q 34.90625 24.078125 25.34375 22.703125 
Q 19.921875 21.921875 17.671875 20.9375 
Q 15.4375 19.96875 14.203125 18.09375 
Q 12.984375 16.21875 12.984375 13.921875 
Q 12.984375 10.40625 15.640625 8.0625 
Q 18.3125 5.71875 23.4375 5.71875 
Q 28.515625 5.71875 32.46875 7.9375 
Q 36.421875 10.15625 38.28125 14.015625 
Q 39.703125 17 39.703125 22.796875 
z
" id="ArialMT-97"/>
       <path d="M 6.390625 0 
L 6.390625 71.578125 
L 15.1875 71.578125 
L 15.1875 0 
z
" id="ArialMT-108"/>
       <path d="M 1.953125 0 
L 1.953125 7.125 
L 34.96875 45.015625 
Q 29.34375 44.734375 25.046875 44.734375 
L 3.90625 44.734375 
L 3.90625 51.859375 
L 46.296875 51.859375 
L 46.296875 46.046875 
L 18.21875 13.140625 
L 12.796875 7.125 
Q 18.703125 7.5625 23.875 7.5625 
L 47.859375 7.5625 
L 47.859375 0 
z
" id="ArialMT-122"/>
       <path id="ArialMT-32"/>
       <path d="M 6.59375 -19.875 
L 6.59375 51.859375 
L 14.59375 51.859375 
L 14.59375 45.125 
Q 17.4375 49.078125 21 51.046875 
Q 24.5625 53.03125 29.640625 53.03125 
Q 36.28125 53.03125 41.359375 49.609375 
Q 46.4375 46.1875 49.015625 39.953125 
Q 51.609375 33.734375 51.609375 26.3125 
Q 51.609375 18.359375 48.75 11.984375 
Q 45.90625 5.609375 40.453125 2.21875 
Q 35.015625 -1.171875 29 -1.171875 
Q 24.609375 -1.171875 21.109375 0.6875 
Q 17.625 2.546875 15.375 5.375 
L 15.375 -19.875 
z
M 14.546875 25.640625 
Q 14.546875 15.625 18.59375 10.84375 
Q 22.65625 6.0625 28.421875 6.0625 
Q 34.28125 6.0625 38.453125 11.015625 
Q 42.625 15.96875 42.625 26.375 
Q 42.625 36.28125 38.546875 41.203125 
Q 34.46875 46.140625 28.8125 46.140625 
Q 23.1875 46.140625 18.859375 40.890625 
Q 14.546875 35.640625 14.546875 25.640625 
z
" id="ArialMT-112"/>
       <path d="M 3.078125 15.484375 
L 11.765625 16.84375 
Q 12.5 11.625 15.84375 8.84375 
Q 19.1875 6.0625 25.203125 6.0625 
Q 31.25 6.0625 34.171875 8.515625 
Q 37.109375 10.984375 37.109375 14.3125 
Q 37.109375 17.28125 34.515625 19 
Q 32.71875 20.171875 25.53125 21.96875 
Q 15.875 24.421875 12.140625 26.203125 
Q 8.40625 27.984375 6.46875 31.125 
Q 4.546875 34.28125 4.546875 38.09375 
Q 4.546875 41.546875 6.125 44.5 
Q 7.71875 47.46875 10.453125 49.421875 
Q 12.5 50.921875 16.03125 51.96875 
Q 19.578125 53.03125 23.640625 53.03125 
Q 29.734375 53.03125 34.34375 51.265625 
Q 38.96875 49.515625 41.15625 46.5 
Q 43.359375 43.5 44.1875 38.484375 
L 35.59375 37.3125 
Q 35.015625 41.3125 32.203125 43.546875 
Q 29.390625 45.796875 24.265625 45.796875 
Q 18.21875 45.796875 15.625 43.796875 
Q 13.03125 41.796875 13.03125 39.109375 
Q 13.03125 37.40625 14.109375 36.03125 
Q 15.1875 34.625 17.484375 33.6875 
Q 18.796875 33.203125 25.25 31.453125 
Q 34.578125 28.953125 38.25 27.359375 
Q 41.9375 25.78125 44.03125 22.75 
Q 46.140625 19.734375 46.140625 15.234375 
Q 46.140625 10.84375 43.578125 6.953125 
Q 41.015625 3.078125 36.171875 0.953125 
Q 31.34375 -1.171875 25.25 -1.171875 
Q 15.140625 -1.171875 9.84375 3.03125 
Q 4.546875 7.234375 3.078125 15.484375 
z
" id="ArialMT-115"/>
      </defs>
      <use xlink:href="#ArialMT-79"/>
      <use x="77.783203" xlink:href="#ArialMT-114"/>
      <use x="111.083984" xlink:href="#ArialMT-116"/>
      <use x="138.867188" xlink:href="#ArialMT-104"/>
      <use x="194.482422" xlink:href="#ArialMT-111"/>
      <use x="250.097656" xlink:href="#ArialMT-103"/>
      <use x="305.712891" xlink:href="#ArialMT-110"/>
      <use x="361.328125" xlink:href="#ArialMT-97"/>
      <use x="416.943359" xlink:href="#ArialMT-108"/>
      <use x="439.160156" xlink:href="#ArialMT-105"/>
      <use x="461.376953" xlink:href="#ArialMT-122"/>
      <use x="511.376953" xlink:href="#ArialMT-101"/>
      <use x="566.992188" xlink:href="#ArialMT-100"/>
      <use x="622.607422" xlink:href="#ArialMT-32"/>
      <use x="650.390625" xlink:href="#ArialMT-112"/>
      <use x="706.005859" xlink:href="#ArialMT-114"/>
      <use x="739.306641" xlink:href="#ArialMT-101"/>
      <use x="794.921875" xlink:href="#ArialMT-99"/>
      <use x="844.921875" xlink:href="#ArialMT-105"/>
      <use x="867.138672" xlink:href="#ArialMT-115"/>
      <use x="917.138672" xlink:href="#ArialMT-105"/>
      <use x="939.355469" xlink:href="#ArialMT-111"/>
      <use x="994.970703" xlink:href="#ArialMT-110"/>
     </g>
    </g>
   </g>
   <g id="line2d_1">
    <path clip-path="url(#pc9b0893cd6)" d="M 71.426116 99.547211 
L 78.140747 102.619306 
L 84.777209 103.654415 
L 91.08973 104.407508 
L 96.879986 104.637422 
L 101.896352 104.654675 
L 105.985376 104.605479 
L 109.120842 104.567137 
L 111.400062 104.562045 
L 112.987069 104.578283 
L 114.057217 104.602469 
L 114.762648 104.625312 
L 115.220553 104.643563 
L 115.514752 104.656687 
L 115.702527 104.665752 
L 115.821854 104.671807 
L 115.897482 104.675712 
L 115.945327 104.678275 
L 115.975562 104.679857 
L 115.994659 104.680872 
L 116.006714 104.681543 
" style="fill:none;stroke:#2aa02b;stroke-dasharray:1.85,0.8;stroke-dashoffset:0;stroke-width:0.5;"/>
    <defs>
     <path d="M 0 0.5 
C 0.132602 0.5 0.25979 0.447317 0.353553 0.353553 
C 0.447317 0.25979 0.5 0.132602 0.5 0 
C 0.5 -0.132602 0.447317 -0.25979 0.353553 -0.353553 
C 0.25979 -0.447317 0.132602 -0.5 0 -0.5 
C -0.132602 -0.5 -0.25979 -0.447317 -0.353553 -0.353553 
C -0.447317 -0.25979 -0.5 -0.132602 -0.5 0 
C -0.5 0.132602 -0.447317 0.25979 -0.353553 0.353553 
C -0.25979 0.447317 -0.132602 0.5 0 0.5 
z
" id="ma8c058629f" style="stroke:#2aa02b;"/>
    </defs>
    <g clip-path="url(#pc9b0893cd6)">
     <use style="fill:#2aa02b;stroke:#2aa02b;" x="71.426116" xlink:href="#ma8c058629f" y="99.547211"/>
     <use style="fill:#2aa02b;stroke:#2aa02b;" x="78.140747" xlink:href="#ma8c058629f" y="102.619306"/>
     <use style="fill:#2aa02b;stroke:#2aa02b;" x="84.777209" xlink:href="#ma8c058629f" y="103.654415"/>
     <use style="fill:#2aa02b;stroke:#2aa02b;" x="91.08973" xlink:href="#ma8c058629f" y="104.407508"/>
     <use style="fill:#2aa02b;stroke:#2aa02b;" x="96.879986" xlink:href="#ma8c058629f" y="104.637422"/>
     <use style="fill:#2aa02b;stroke:#2aa02b;" x="101.896352" xlink:href="#ma8c058629f" y="104.654675"/>
     <use style="fill:#2aa02b;stroke:#2aa02b;" x="105.985376" xlink:href="#ma8c058629f" y="104.605479"/>
     <use style="fill:#2aa02b;stroke:#2aa02b;" x="109.120842" xlink:href="#ma8c058629f" y="104.567137"/>
     <use style="fill:#2aa02b;stroke:#2aa02b;" x="111.400062" xlink:href="#ma8c058629f" y="104.562045"/>
     <use style="fill:#2aa02b;stroke:#2aa02b;" x="112.987069" xlink:href="#ma8c058629f" y="104.578283"/>
     <use style="fill:#2aa02b;stroke:#2aa02b;" x="114.057217" xlink:href="#ma8c058629f" y="104.602469"/>
     <use style="fill:#2aa02b;stroke:#2aa02b;" x="114.762648" xlink:href="#ma8c058629f" y="104.625312"/>
     <use style="fill:#2aa02b;stroke:#2aa02b;" x="115.220553" xlink:href="#ma8c058629f" y="104.643563"/>
     <use style="fill:#2aa02b;stroke:#2aa02b;" x="115.514752" xlink:href="#ma8c058629f" y="104.656687"/>
     <use style="fill:#2aa02b;stroke:#2aa02b;" x="115.702527" xlink:href="#ma8c058629f" y="104.665752"/>
     <use style="fill:#2aa02b;stroke:#2aa02b;" x="115.821854" xlink:href="#ma8c058629f" y="104.671807"/>
     <use style="fill:#2aa02b;stroke:#2aa02b;" x="115.897482" xlink:href="#ma8c058629f" y="104.675712"/>
     <use style="fill:#2aa02b;stroke:#2aa02b;" x="115.945327" xlink:href="#ma8c058629f" y="104.678275"/>
     <use style="fill:#2aa02b;stroke:#2aa02b;" x="115.975562" xlink:href="#ma8c058629f" y="104.679857"/>
     <use style="fill:#2aa02b;stroke:#2aa02b;" x="115.994659" xlink:href="#ma8c058629f" y="104.680872"/>
     <use style="fill:#2aa02b;stroke:#2aa02b;" x="116.006714" xlink:href="#ma8c058629f" y="104.681543"/>
    </g>
   </g>
   <g id="line2d_2">
    <path clip-path="url(#pc9b0893cd6)" d="M 53.001738 75.610187 
L 59.652404 97.879779 
L 66.74559 97.155894 
L 73.515044 101.328653 
L 80.263938 102.791096 
L 86.801157 104.015145 
L 92.983602 104.504627 
L 98.551336 104.658923 
L 103.287823 104.64198 
L 107.072538 104.589602 
L 109.923676 104.562527 
L 111.965771 104.565417 
L 113.371827 104.58568 
L 114.312352 104.610072 
L 114.928904 104.63159 
L 115.327652 104.648155 
L 115.58322 104.659955 
L 115.746083 104.667954 
L 115.84947 104.673201 
L 115.914963 104.676641 
L 115.956377 104.678843 
" style="fill:none;stroke:#bdb421;stroke-dasharray:1.85,0.8;stroke-dashoffset:0;stroke-width:0.5;"/>
    <defs>
     <path d="M 0 0.5 
C 0.132602 0.5 0.25979 0.447317 0.353553 0.353553 
C 0.447317 0.25979 0.5 0.132602 0.5 0 
C 0.5 -0.132602 0.447317 -0.25979 0.353553 -0.353553 
C 0.25979 -0.447317 0.132602 -0.5 0 -0.5 
C -0.132602 -0.5 -0.25979 -0.447317 -0.353553 -0.353553 
C -0.447317 -0.25979 -0.5 -0.132602 -0.5 0 
C -0.5 0.132602 -0.447317 0.25979 -0.353553 0.353553 
C -0.25979 0.447317 -0.132602 0.5 0 0.5 
z
" id="m279f20d681" style="stroke:#bdb421;"/>
    </defs>
    <g clip-path="url(#pc9b0893cd6)">
     <use style="fill:#bdb421;stroke:#bdb421;" x="53.001738" xlink:href="#m279f20d681" y="75.610187"/>
     <use style="fill:#bdb421;stroke:#bdb421;" x="59.652404" xlink:href="#m279f20d681" y="97.879779"/>
     <use style="fill:#bdb421;stroke:#bdb421;" x="66.74559" xlink:href="#m279f20d681" y="97.155894"/>
     <use style="fill:#bdb421;stroke:#bdb421;" x="73.515044" xlink:href="#m279f20d681" y="101.328653"/>
     <use style="fill:#bdb421;stroke:#bdb421;" x="80.263938" xlink:href="#m279f20d681" y="102.791096"/>
     <use style="fill:#bdb421;stroke:#bdb421;" x="86.801157" xlink:href="#m279f20d681" y="104.015145"/>
     <use style="fill:#bdb421;stroke:#bdb421;" x="92.983602" xlink:href="#m279f20d681" y="104.504627"/>
     <use style="fill:#bdb421;stroke:#bdb421;" x="98.551336" xlink:href="#m279f20d681" y="104.658923"/>
     <use style="fill:#bdb421;stroke:#bdb421;" x="103.287823" xlink:href="#m279f20d681" y="104.64198"/>
     <use style="fill:#bdb421;stroke:#bdb421;" x="107.072538" xlink:href="#m279f20d681" y="104.589602"/>
     <use style="fill:#bdb421;stroke:#bdb421;" x="109.923676" xlink:href="#m279f20d681" y="104.562527"/>
     <use style="fill:#bdb421;stroke:#bdb421;" x="111.965771" xlink:href="#m279f20d681" y="104.565417"/>
     <use style="fill:#bdb421;stroke:#bdb421;" x="113.371827" xlink:href="#m279f20d681" y="104.58568"/>
     <use style="fill:#bdb421;stroke:#bdb421;" x="114.312352" xlink:href="#m279f20d681" y="104.610072"/>
     <use style="fill:#bdb421;stroke:#bdb421;" x="114.928904" xlink:href="#m279f20d681" y="104.63159"/>
     <use style="fill:#bdb421;stroke:#bdb421;" x="115.327652" xlink:href="#m279f20d681" y="104.648155"/>
     <use style="fill:#bdb421;stroke:#bdb421;" x="115.58322" xlink:href="#m279f20d681" y="104.659955"/>
     <use style="fill:#bdb421;stroke:#bdb421;" x="115.746083" xlink:href="#m279f20d681" y="104.667954"/>
     <use style="fill:#bdb421;stroke:#bdb421;" x="115.84947" xlink:href="#m279f20d681" y="104.673201"/>
     <use style="fill:#bdb421;stroke:#bdb421;" x="115.914963" xlink:href="#m279f20d681" y="104.676641"/>
     <use style="fill:#bdb421;stroke:#bdb421;" x="115.956377" xlink:href="#m279f20d681" y="104.678843"/>
    </g>
   </g>
   <g id="line2d_3">
    <path clip-path="url(#pc9b0893cd6)" d="M 19.345786 7.842207 
L 28.070723 37.741039 
L 38.74277 63.267348 
L 46.847909 86.884117 
L 54.628216 88.636334 
L 61.705803 95.813878 
L 68.64463 98.858107 
L 75.435554 101.675794 
L 82.128869 103.257184 
L 88.592479 104.190633 
L 94.625702 104.578077 
L 99.978824 104.66374 
L 104.452936 104.626671 
L 107.967093 104.578696 
L 110.574246 104.560635 
L 112.418869 104.570096 
L 113.677363 104.592526 
L 114.513747 104.616574 
L 115.059635 104.63682 
L 115.411627 104.65194 
L 115.636817 104.66257 
" style="fill:none;stroke:#e378c1;stroke-dasharray:1.85,0.8;stroke-dashoffset:0;stroke-width:0.5;"/>
    <defs>
     <path d="M 0 0.5 
C 0.132602 0.5 0.25979 0.447317 0.353553 0.353553 
C 0.447317 0.25979 0.5 0.132602 0.5 0 
C 0.5 -0.132602 0.447317 -0.25979 0.353553 -0.353553 
C 0.25979 -0.447317 0.132602 -0.5 0 -0.5 
C -0.132602 -0.5 -0.25979 -0.447317 -0.353553 -0.353553 
C -0.447317 -0.25979 -0.5 -0.132602 -0.5 0 
C -0.5 0.132602 -0.447317 0.25979 -0.353553 0.353553 
C -0.25979 0.447317 -0.132602 0.5 0 0.5 
z
" id="m065e89f30c" style="stroke:#e378c1;"/>
    </defs>
    <g clip-path="url(#pc9b0893cd6)">
     <use style="fill:#e378c1;stroke:#e378c1;" x="19.345786" xlink:href="#m065e89f30c" y="7.842207"/>
     <use style="fill:#e378c1;stroke:#e378c1;" x="28.070723" xlink:href="#m065e89f30c" y="37.741039"/>
     <use style="fill:#e378c1;stroke:#e378c1;" x="38.74277" xlink:href="#m065e89f30c" y="63.267348"/>
     <use style="fill:#e378c1;stroke:#e378c1;" x="46.847909" xlink:href="#m065e89f30c" y="86.884117"/>
     <use style="fill:#e378c1;stroke:#e378c1;" x="54.628216" xlink:href="#m065e89f30c" y="88.636334"/>
     <use style="fill:#e378c1;stroke:#e378c1;" x="61.705803" xlink:href="#m065e89f30c" y="95.813878"/>
     <use style="fill:#e378c1;stroke:#e378c1;" x="68.64463" xlink:href="#m065e89f30c" y="98.858107"/>
     <use style="fill:#e378c1;stroke:#e378c1;" x="75.435554" xlink:href="#m065e89f30c" y="101.675794"/>
     <use style="fill:#e378c1;stroke:#e378c1;" x="82.128869" xlink:href="#m065e89f30c" y="103.257184"/>
     <use style="fill:#e378c1;stroke:#e378c1;" x="88.592479" xlink:href="#m065e89f30c" y="104.190633"/>
     <use style="fill:#e378c1;stroke:#e378c1;" x="94.625702" xlink:href="#m065e89f30c" y="104.578077"/>
     <use style="fill:#e378c1;stroke:#e378c1;" x="99.978824" xlink:href="#m065e89f30c" y="104.66374"/>
     <use style="fill:#e378c1;stroke:#e378c1;" x="104.452936" xlink:href="#m065e89f30c" y="104.626671"/>
     <use style="fill:#e378c1;stroke:#e378c1;" x="107.967093" xlink:href="#m065e89f30c" y="104.578696"/>
     <use style="fill:#e378c1;stroke:#e378c1;" x="110.574246" xlink:href="#m065e89f30c" y="104.560635"/>
     <use style="fill:#e378c1;stroke:#e378c1;" x="112.418869" xlink:href="#m065e89f30c" y="104.570096"/>
     <use style="fill:#e378c1;stroke:#e378c1;" x="113.677363" xlink:href="#m065e89f30c" y="104.592526"/>
     <use style="fill:#e378c1;stroke:#e378c1;" x="114.513747" xlink:href="#m065e89f30c" y="104.616574"/>
     <use style="fill:#e378c1;stroke:#e378c1;" x="115.059635" xlink:href="#m065e89f30c" y="104.63682"/>
     <use style="fill:#e378c1;stroke:#e378c1;" x="115.411627" xlink:href="#m065e89f30c" y="104.65194"/>
     <use style="fill:#e378c1;stroke:#e378c1;" x="115.636817" xlink:href="#m065e89f30c" y="104.66257"/>
    </g>
   </g>
   <g id="patch_3">
    <path d="M 14.51274 109.52351 
L 14.51274 3.00024 
" style="fill:none;stroke:#000000;stroke-linecap:square;stroke-linejoin:miter;stroke-width:0.8;"/>
   </g>
   <g id="patch_4">
    <path d="M 14.51274 109.52351 
L 120.83976 109.52351 
" style="fill:none;stroke:#000000;stroke-linecap:square;stroke-linejoin:miter;stroke-width:0.8;"/>
   </g>
  </g>
 </g>
 <defs>
  <clipPath id="pc9b0893cd6">
   <rect height="106.52327" width="106.32702" x="14.51274" y="3.00024"/>
  </clipPath>
 </defs>
</svg>
