<?xml version="1.0" encoding="utf-8" standalone="no"?>
<!DOCTYPE svg PUBLIC "-//W3C//DTD SVG 1.1//EN"
  "http://www.w3.org/Graphics/SVG/1.1/DTD/svg11.dtd">
<!-- Created with matplotlib (https://matplotlib.org/) -->
<svg height="155.52pt" version="1.1" viewBox="0 0 175.68 155.52" width="175.68pt" xmlns="http://www.w3.org/2000/svg" xmlns:xlink="http://www.w3.org/1999/xlink">
 <metadata>
  <rdf:RDF xmlns:cc="http://creativecommons.org/ns#" xmlns:dc="http://purl.org/dc/elements/1.1/" xmlns:rdf="http://www.w3.org/1999/02/22-rdf-syntax-ns#">
   <cc:Work>
    <dc:type rdf:resource="http://purl.org/dc/dcmitype/StillImage"/>
    <dc:date>2021-11-11T09:58:08.802356</dc:date>
    <dc:format>image/svg+xml</dc:format>
    <dc:creator>
     <cc:Agent>
      <dc:title>Matplotlib v3.3.4, https://matplotlib.org/</dc:title>
     </cc:Agent>
    </dc:creator>
   </cc:Work>
  </rdf:RDF>
 </metadata>
 <defs>
  <style type="text/css">*{stroke-linecap:butt;stroke-linejoin:round;}</style>
 </defs>
 <g id="figure_1">
  <g id="patch_1">
   <path d="M 0 155.52 
L 175.68 155.52 
L 175.68 0 
L 0 0 
z
" style="fill:#ffffff;"/>
  </g>
  <g id="axes_1">
   <g id="patch_2">
    <path d="M 21.12024 126.88726 
L 159.00851 126.88726 
L 159.00851 3.00024 
L 21.12024 3.00024 
z
" style="fill:#ffffff;"/>
   </g>
   <g id="matplotlib.axis_1">
    <g id="xtick_1">
     <g id="line2d_1">
      <defs>
       <path d="M 0 0 
L 0 3.5 
" id="m6ff253f57a" style="stroke:#000000;stroke-width:0.8;"/>
      </defs>
      <g>
       <use style="stroke:#000000;stroke-width:0.8;" x="21.806251" xlink:href="#m6ff253f57a" y="126.88726"/>
      </g>
     </g>
     <g id="text_1">
      <!-- 0 -->
      <g transform="translate(19.581876 139.61351)scale(0.08 -0.08)">
       <defs>
        <path d="M 4.15625 35.296875 
Q 4.15625 48 6.765625 55.734375 
Q 9.375 63.484375 14.515625 67.671875 
Q 19.671875 71.875 27.484375 71.875 
Q 33.25 71.875 37.59375 69.546875 
Q 41.9375 67.234375 44.765625 62.859375 
Q 47.609375 58.5 49.21875 52.21875 
Q 50.828125 45.953125 50.828125 35.296875 
Q 50.828125 22.703125 48.234375 14.96875 
Q 45.65625 7.234375 40.5 3 
Q 35.359375 -1.21875 27.484375 -1.21875 
Q 17.140625 -1.21875 11.234375 6.203125 
Q 4.15625 15.140625 4.15625 35.296875 
z
M 13.1875 35.296875 
Q 13.1875 17.671875 17.3125 11.828125 
Q 21.4375 6 27.484375 6 
Q 33.546875 6 37.671875 11.859375 
Q 41.796875 17.71875 41.796875 35.296875 
Q 41.796875 52.984375 37.671875 58.78125 
Q 33.546875 64.59375 27.390625 64.59375 
Q 21.34375 64.59375 17.71875 59.46875 
Q 13.1875 52.9375 13.1875 35.296875 
z
" id="ArialMT-48"/>
       </defs>
       <use xlink:href="#ArialMT-48"/>
      </g>
     </g>
    </g>
    <g id="xtick_2">
     <g id="line2d_2">
      <g>
       <use style="stroke:#000000;stroke-width:0.8;" x="56.106816" xlink:href="#m6ff253f57a" y="126.88726"/>
      </g>
     </g>
     <g id="text_2">
      <!-- 50 -->
      <g transform="translate(51.658066 139.61351)scale(0.08 -0.08)">
       <defs>
        <path d="M 4.15625 18.75 
L 13.375 19.53125 
Q 14.40625 12.796875 18.140625 9.390625 
Q 21.875 6 27.15625 6 
Q 33.5 6 37.890625 10.78125 
Q 42.28125 15.578125 42.28125 23.484375 
Q 42.28125 31 38.0625 35.34375 
Q 33.84375 39.703125 27 39.703125 
Q 22.75 39.703125 19.328125 37.765625 
Q 15.921875 35.84375 13.96875 32.765625 
L 5.71875 33.84375 
L 12.640625 70.609375 
L 48.25 70.609375 
L 48.25 62.203125 
L 19.671875 62.203125 
L 15.828125 42.96875 
Q 22.265625 47.46875 29.34375 47.46875 
Q 38.71875 47.46875 45.15625 40.96875 
Q 51.609375 34.46875 51.609375 24.265625 
Q 51.609375 14.546875 45.953125 7.46875 
Q 39.0625 -1.21875 27.15625 -1.21875 
Q 17.390625 -1.21875 11.203125 4.25 
Q 5.03125 9.71875 4.15625 18.75 
z
" id="ArialMT-53"/>
       </defs>
       <use xlink:href="#ArialMT-53"/>
       <use x="55.615234" xlink:href="#ArialMT-48"/>
      </g>
     </g>
    </g>
    <g id="xtick_3">
     <g id="line2d_3">
      <g>
       <use style="stroke:#000000;stroke-width:0.8;" x="90.407381" xlink:href="#m6ff253f57a" y="126.88726"/>
      </g>
     </g>
     <g id="text_3">
      <!-- 100 -->
      <g transform="translate(83.734256 139.61351)scale(0.08 -0.08)">
       <defs>
        <path d="M 37.25 0 
L 28.46875 0 
L 28.46875 56 
Q 25.296875 52.984375 20.140625 49.953125 
Q 14.984375 46.921875 10.890625 45.40625 
L 10.890625 53.90625 
Q 18.265625 57.375 23.78125 62.296875 
Q 29.296875 67.234375 31.59375 71.875 
L 37.25 71.875 
z
" id="ArialMT-49"/>
       </defs>
       <use xlink:href="#ArialMT-49"/>
       <use x="55.615234" xlink:href="#ArialMT-48"/>
       <use x="111.230469" xlink:href="#ArialMT-48"/>
      </g>
     </g>
    </g>
    <g id="xtick_4">
     <g id="line2d_4">
      <g>
       <use style="stroke:#000000;stroke-width:0.8;" x="124.707945" xlink:href="#m6ff253f57a" y="126.88726"/>
      </g>
     </g>
     <g id="text_4">
      <!-- 150 -->
      <g transform="translate(118.03482 139.61351)scale(0.08 -0.08)">
       <use xlink:href="#ArialMT-49"/>
       <use x="55.615234" xlink:href="#ArialMT-53"/>
       <use x="111.230469" xlink:href="#ArialMT-48"/>
      </g>
     </g>
    </g>
    <g id="xtick_5">
     <g id="line2d_5">
      <g>
       <use style="stroke:#000000;stroke-width:0.8;" x="159.00851" xlink:href="#m6ff253f57a" y="126.88726"/>
      </g>
     </g>
     <g id="text_5">
      <!-- 200 -->
      <g transform="translate(152.335385 139.61351)scale(0.08 -0.08)">
       <defs>
        <path d="M 50.34375 8.453125 
L 50.34375 0 
L 3.03125 0 
Q 2.9375 3.171875 4.046875 6.109375 
Q 5.859375 10.9375 9.828125 15.625 
Q 13.8125 20.3125 21.34375 26.46875 
Q 33.015625 36.03125 37.109375 41.625 
Q 41.21875 47.21875 41.21875 52.203125 
Q 41.21875 57.421875 37.46875 61 
Q 33.734375 64.59375 27.734375 64.59375 
Q 21.390625 64.59375 17.578125 60.78125 
Q 13.765625 56.984375 13.71875 50.25 
L 4.6875 51.171875 
Q 5.609375 61.28125 11.65625 66.578125 
Q 17.71875 71.875 27.9375 71.875 
Q 38.234375 71.875 44.234375 66.15625 
Q 50.25 60.453125 50.25 52 
Q 50.25 47.703125 48.484375 43.546875 
Q 46.734375 39.40625 42.65625 34.8125 
Q 38.578125 30.21875 29.109375 22.21875 
Q 21.1875 15.578125 18.9375 13.203125 
Q 16.703125 10.84375 15.234375 8.453125 
z
" id="ArialMT-50"/>
       </defs>
       <use xlink:href="#ArialMT-50"/>
       <use x="55.615234" xlink:href="#ArialMT-48"/>
       <use x="111.230469" xlink:href="#ArialMT-48"/>
      </g>
     </g>
    </g>
    <g id="text_6">
     <!-- Time step -->
     <g transform="translate(72.655 150.92976)scale(0.08 -0.08)">
      <defs>
       <path d="M 25.921875 0 
L 25.921875 63.140625 
L 2.34375 63.140625 
L 2.34375 71.578125 
L 59.078125 71.578125 
L 59.078125 63.140625 
L 35.40625 63.140625 
L 35.40625 0 
z
" id="ArialMT-84"/>
       <path d="M 6.640625 61.46875 
L 6.640625 71.578125 
L 15.4375 71.578125 
L 15.4375 61.46875 
z
M 6.640625 0 
L 6.640625 51.859375 
L 15.4375 51.859375 
L 15.4375 0 
z
" id="ArialMT-105"/>
       <path d="M 6.59375 0 
L 6.59375 51.859375 
L 14.453125 51.859375 
L 14.453125 44.578125 
Q 16.890625 48.390625 20.9375 50.703125 
Q 25 53.03125 30.171875 53.03125 
Q 35.9375 53.03125 39.625 50.640625 
Q 43.3125 48.25 44.828125 43.953125 
Q 50.984375 53.03125 60.84375 53.03125 
Q 68.5625 53.03125 72.703125 48.75 
Q 76.859375 44.484375 76.859375 35.59375 
L 76.859375 0 
L 68.109375 0 
L 68.109375 32.671875 
Q 68.109375 37.9375 67.25 40.25 
Q 66.40625 42.578125 64.15625 43.984375 
Q 61.921875 45.40625 58.890625 45.40625 
Q 53.421875 45.40625 49.796875 41.765625 
Q 46.1875 38.140625 46.1875 30.125 
L 46.1875 0 
L 37.40625 0 
L 37.40625 33.6875 
Q 37.40625 39.546875 35.25 42.46875 
Q 33.109375 45.40625 28.21875 45.40625 
Q 24.515625 45.40625 21.359375 43.453125 
Q 18.21875 41.5 16.796875 37.734375 
Q 15.375 33.984375 15.375 26.90625 
L 15.375 0 
z
" id="ArialMT-109"/>
       <path d="M 42.09375 16.703125 
L 51.171875 15.578125 
Q 49.03125 7.625 43.21875 3.21875 
Q 37.40625 -1.171875 28.375 -1.171875 
Q 17 -1.171875 10.328125 5.828125 
Q 3.65625 12.84375 3.65625 25.484375 
Q 3.65625 38.578125 10.390625 45.796875 
Q 17.140625 53.03125 27.875 53.03125 
Q 38.28125 53.03125 44.875 45.953125 
Q 51.46875 38.875 51.46875 26.03125 
Q 51.46875 25.25 51.421875 23.6875 
L 12.75 23.6875 
Q 13.234375 15.140625 17.578125 10.59375 
Q 21.921875 6.0625 28.421875 6.0625 
Q 33.25 6.0625 36.671875 8.59375 
Q 40.09375 11.140625 42.09375 16.703125 
z
M 13.234375 30.90625 
L 42.1875 30.90625 
Q 41.609375 37.453125 38.875 40.71875 
Q 34.671875 45.796875 27.984375 45.796875 
Q 21.921875 45.796875 17.796875 41.75 
Q 13.671875 37.703125 13.234375 30.90625 
z
" id="ArialMT-101"/>
       <path id="ArialMT-32"/>
       <path d="M 3.078125 15.484375 
L 11.765625 16.84375 
Q 12.5 11.625 15.84375 8.84375 
Q 19.1875 6.0625 25.203125 6.0625 
Q 31.25 6.0625 34.171875 8.515625 
Q 37.109375 10.984375 37.109375 14.3125 
Q 37.109375 17.28125 34.515625 19 
Q 32.71875 20.171875 25.53125 21.96875 
Q 15.875 24.421875 12.140625 26.203125 
Q 8.40625 27.984375 6.46875 31.125 
Q 4.546875 34.28125 4.546875 38.09375 
Q 4.546875 41.546875 6.125 44.5 
Q 7.71875 47.46875 10.453125 49.421875 
Q 12.5 50.921875 16.03125 51.96875 
Q 19.578125 53.03125 23.640625 53.03125 
Q 29.734375 53.03125 34.34375 51.265625 
Q 38.96875 49.515625 41.15625 46.5 
Q 43.359375 43.5 44.1875 38.484375 
L 35.59375 37.3125 
Q 35.015625 41.3125 32.203125 43.546875 
Q 29.390625 45.796875 24.265625 45.796875 
Q 18.21875 45.796875 15.625 43.796875 
Q 13.03125 41.796875 13.03125 39.109375 
Q 13.03125 37.40625 14.109375 36.03125 
Q 15.1875 34.625 17.484375 33.6875 
Q 18.796875 33.203125 25.25 31.453125 
Q 34.578125 28.953125 38.25 27.359375 
Q 41.9375 25.78125 44.03125 22.75 
Q 46.140625 19.734375 46.140625 15.234375 
Q 46.140625 10.84375 43.578125 6.953125 
Q 41.015625 3.078125 36.171875 0.953125 
Q 31.34375 -1.171875 25.25 -1.171875 
Q 15.140625 -1.171875 9.84375 3.03125 
Q 4.546875 7.234375 3.078125 15.484375 
z
" id="ArialMT-115"/>
       <path d="M 25.78125 7.859375 
L 27.046875 0.09375 
Q 23.34375 -0.6875 20.40625 -0.6875 
Q 15.625 -0.6875 12.984375 0.828125 
Q 10.359375 2.34375 9.28125 4.8125 
Q 8.203125 7.28125 8.203125 15.1875 
L 8.203125 45.015625 
L 1.765625 45.015625 
L 1.765625 51.859375 
L 8.203125 51.859375 
L 8.203125 64.703125 
L 16.9375 69.96875 
L 16.9375 51.859375 
L 25.78125 51.859375 
L 25.78125 45.015625 
L 16.9375 45.015625 
L 16.9375 14.703125 
Q 16.9375 10.9375 17.40625 9.859375 
Q 17.875 8.796875 18.921875 8.15625 
Q 19.96875 7.515625 21.921875 7.515625 
Q 23.390625 7.515625 25.78125 7.859375 
z
" id="ArialMT-116"/>
       <path d="M 6.59375 -19.875 
L 6.59375 51.859375 
L 14.59375 51.859375 
L 14.59375 45.125 
Q 17.4375 49.078125 21 51.046875 
Q 24.5625 53.03125 29.640625 53.03125 
Q 36.28125 53.03125 41.359375 49.609375 
Q 46.4375 46.1875 49.015625 39.953125 
Q 51.609375 33.734375 51.609375 26.3125 
Q 51.609375 18.359375 48.75 11.984375 
Q 45.90625 5.609375 40.453125 2.21875 
Q 35.015625 -1.171875 29 -1.171875 
Q 24.609375 -1.171875 21.109375 0.6875 
Q 17.625 2.546875 15.375 5.375 
L 15.375 -19.875 
z
M 14.546875 25.640625 
Q 14.546875 15.625 18.59375 10.84375 
Q 22.65625 6.0625 28.421875 6.0625 
Q 34.28125 6.0625 38.453125 11.015625 
Q 42.625 15.96875 42.625 26.375 
Q 42.625 36.28125 38.546875 41.203125 
Q 34.46875 46.140625 28.8125 46.140625 
Q 23.1875 46.140625 18.859375 40.890625 
Q 14.546875 35.640625 14.546875 25.640625 
z
" id="ArialMT-112"/>
      </defs>
      <use xlink:href="#ArialMT-84"/>
      <use x="57.333984" xlink:href="#ArialMT-105"/>
      <use x="79.550781" xlink:href="#ArialMT-109"/>
      <use x="162.851562" xlink:href="#ArialMT-101"/>
      <use x="218.466797" xlink:href="#ArialMT-32"/>
      <use x="246.25" xlink:href="#ArialMT-115"/>
      <use x="296.25" xlink:href="#ArialMT-116"/>
      <use x="324.033203" xlink:href="#ArialMT-101"/>
      <use x="379.648438" xlink:href="#ArialMT-112"/>
     </g>
    </g>
   </g>
   <g id="matplotlib.axis_2">
    <g id="ytick_1">
     <g id="line2d_6">
      <defs>
       <path d="M 0 0 
L -3.5 0 
" id="ma712523a65" style="stroke:#000000;stroke-width:0.8;"/>
      </defs>
      <g>
       <use style="stroke:#000000;stroke-width:0.8;" x="21.12024" xlink:href="#ma712523a65" y="124.231121"/>
      </g>
     </g>
     <g id="text_7">
      <!-- 1.4 -->
      <g style="fill:#0aaa02;" transform="translate(3.00024 127.094246)scale(0.08 -0.08)">
       <defs>
        <path d="M 9.078125 0 
L 9.078125 10.015625 
L 19.09375 10.015625 
L 19.09375 0 
z
" id="ArialMT-46"/>
        <path d="M 32.328125 0 
L 32.328125 17.140625 
L 1.265625 17.140625 
L 1.265625 25.203125 
L 33.9375 71.578125 
L 41.109375 71.578125 
L 41.109375 25.203125 
L 50.78125 25.203125 
L 50.78125 17.140625 
L 41.109375 17.140625 
L 41.109375 0 
z
M 32.328125 25.203125 
L 32.328125 57.46875 
L 9.90625 25.203125 
z
" id="ArialMT-52"/>
       </defs>
       <use xlink:href="#ArialMT-49"/>
       <use x="55.615234" xlink:href="#ArialMT-46"/>
       <use x="83.398438" xlink:href="#ArialMT-52"/>
      </g>
     </g>
    </g>
    <g id="ytick_2">
     <g id="line2d_7">
      <g>
       <use style="stroke:#000000;stroke-width:0.8;" x="21.12024" xlink:href="#ma712523a65" y="102.11123"/>
      </g>
     </g>
     <g id="text_8">
      <!-- 1.6 -->
      <g style="fill:#0aaa02;" transform="translate(3.00024 104.974355)scale(0.08 -0.08)">
       <defs>
        <path d="M 49.75 54.046875 
L 41.015625 53.375 
Q 39.84375 58.546875 37.703125 60.890625 
Q 34.125 64.65625 28.90625 64.65625 
Q 24.703125 64.65625 21.53125 62.3125 
Q 17.390625 59.28125 14.984375 53.46875 
Q 12.59375 47.65625 12.5 36.921875 
Q 15.671875 41.75 20.265625 44.09375 
Q 24.859375 46.4375 29.890625 46.4375 
Q 38.671875 46.4375 44.84375 39.96875 
Q 51.03125 33.5 51.03125 23.25 
Q 51.03125 16.5 48.125 10.71875 
Q 45.21875 4.9375 40.140625 1.859375 
Q 35.0625 -1.21875 28.609375 -1.21875 
Q 17.625 -1.21875 10.6875 6.859375 
Q 3.765625 14.9375 3.765625 33.5 
Q 3.765625 54.25 11.421875 63.671875 
Q 18.109375 71.875 29.4375 71.875 
Q 37.890625 71.875 43.28125 67.140625 
Q 48.6875 62.40625 49.75 54.046875 
z
M 13.875 23.1875 
Q 13.875 18.65625 15.796875 14.5 
Q 17.71875 10.359375 21.1875 8.171875 
Q 24.65625 6 28.46875 6 
Q 34.03125 6 38.03125 10.484375 
Q 42.046875 14.984375 42.046875 22.703125 
Q 42.046875 30.125 38.078125 34.390625 
Q 34.125 38.671875 28.125 38.671875 
Q 22.171875 38.671875 18.015625 34.390625 
Q 13.875 30.125 13.875 23.1875 
z
" id="ArialMT-54"/>
       </defs>
       <use xlink:href="#ArialMT-49"/>
       <use x="55.615234" xlink:href="#ArialMT-46"/>
       <use x="83.398438" xlink:href="#ArialMT-54"/>
      </g>
     </g>
    </g>
    <g id="ytick_3">
     <g id="line2d_8">
      <g>
       <use style="stroke:#000000;stroke-width:0.8;" x="21.12024" xlink:href="#ma712523a65" y="79.991339"/>
      </g>
     </g>
     <g id="text_9">
      <!-- 1.8 -->
      <g style="fill:#0aaa02;" transform="translate(3.00024 82.854464)scale(0.08 -0.08)">
       <defs>
        <path d="M 17.671875 38.8125 
Q 12.203125 40.828125 9.5625 44.53125 
Q 6.9375 48.25 6.9375 53.421875 
Q 6.9375 61.234375 12.546875 66.546875 
Q 18.171875 71.875 27.484375 71.875 
Q 36.859375 71.875 42.578125 66.421875 
Q 48.296875 60.984375 48.296875 53.171875 
Q 48.296875 48.1875 45.671875 44.5 
Q 43.0625 40.828125 37.75 38.8125 
Q 44.34375 36.671875 47.78125 31.875 
Q 51.21875 27.09375 51.21875 20.453125 
Q 51.21875 11.28125 44.71875 5.03125 
Q 38.234375 -1.21875 27.640625 -1.21875 
Q 17.046875 -1.21875 10.546875 5.046875 
Q 4.046875 11.328125 4.046875 20.703125 
Q 4.046875 27.6875 7.59375 32.390625 
Q 11.140625 37.109375 17.671875 38.8125 
z
M 15.921875 53.71875 
Q 15.921875 48.640625 19.1875 45.40625 
Q 22.46875 42.1875 27.6875 42.1875 
Q 32.765625 42.1875 36.015625 45.375 
Q 39.265625 48.578125 39.265625 53.21875 
Q 39.265625 58.0625 35.90625 61.359375 
Q 32.5625 64.65625 27.59375 64.65625 
Q 22.5625 64.65625 19.234375 61.421875 
Q 15.921875 58.203125 15.921875 53.71875 
z
M 13.09375 20.65625 
Q 13.09375 16.890625 14.875 13.375 
Q 16.65625 9.859375 20.171875 7.921875 
Q 23.6875 6 27.734375 6 
Q 34.03125 6 38.125 10.046875 
Q 42.234375 14.109375 42.234375 20.359375 
Q 42.234375 26.703125 38.015625 30.859375 
Q 33.796875 35.015625 27.4375 35.015625 
Q 21.234375 35.015625 17.15625 30.90625 
Q 13.09375 26.8125 13.09375 20.65625 
z
" id="ArialMT-56"/>
       </defs>
       <use xlink:href="#ArialMT-49"/>
       <use x="55.615234" xlink:href="#ArialMT-46"/>
       <use x="83.398438" xlink:href="#ArialMT-56"/>
      </g>
     </g>
    </g>
    <g id="ytick_4">
     <g id="line2d_9">
      <g>
       <use style="stroke:#000000;stroke-width:0.8;" x="21.12024" xlink:href="#ma712523a65" y="57.871449"/>
      </g>
     </g>
     <g id="text_10">
      <!-- 2.0 -->
      <g style="fill:#0aaa02;" transform="translate(3.00024 60.734574)scale(0.08 -0.08)">
       <use xlink:href="#ArialMT-50"/>
       <use x="55.615234" xlink:href="#ArialMT-46"/>
       <use x="83.398438" xlink:href="#ArialMT-48"/>
      </g>
     </g>
    </g>
    <g id="ytick_5">
     <g id="line2d_10">
      <g>
       <use style="stroke:#000000;stroke-width:0.8;" x="21.12024" xlink:href="#ma712523a65" y="35.751558"/>
      </g>
     </g>
     <g id="text_11">
      <!-- 2.2 -->
      <g style="fill:#0aaa02;" transform="translate(3.00024 38.614683)scale(0.08 -0.08)">
       <use xlink:href="#ArialMT-50"/>
       <use x="55.615234" xlink:href="#ArialMT-46"/>
       <use x="83.398438" xlink:href="#ArialMT-50"/>
      </g>
     </g>
    </g>
    <g id="ytick_6">
     <g id="line2d_11">
      <g>
       <use style="stroke:#000000;stroke-width:0.8;" x="21.12024" xlink:href="#ma712523a65" y="13.631667"/>
      </g>
     </g>
     <g id="text_12">
      <!-- 2.4 -->
      <g style="fill:#0aaa02;" transform="translate(3.00024 16.494792)scale(0.08 -0.08)">
       <use xlink:href="#ArialMT-50"/>
       <use x="55.615234" xlink:href="#ArialMT-46"/>
       <use x="83.398438" xlink:href="#ArialMT-52"/>
      </g>
     </g>
    </g>
   </g>
   <g id="line2d_12">
    <path clip-path="url(#pc67b26f29a)" d="M 21.806251 26.323171 
L 22.492263 30.913085 
L 23.178274 29.459812 
L 23.864285 36.940055 
L 24.550296 40.28654 
L 25.236308 41.95886 
L 25.922319 41.339163 
L 26.60833 43.029044 
L 27.294342 43.756669 
L 28.666364 41.608548 
L 29.352376 41.583998 
L 30.038387 41.820607 
L 30.724398 42.28565 
L 31.410409 43.021687 
L 32.096421 54.156299 
L 32.782432 55.231177 
L 33.468443 47.749906 
L 34.154455 45.238948 
L 34.840466 54.725526 
L 35.526477 43.93524 
L 36.212488 42.641262 
L 36.8985 40.755538 
L 37.584511 52.767841 
L 38.270522 37.789109 
L 38.956534 50.606456 
L 39.642545 38.878648 
L 40.328556 49.981459 
L 41.014568 39.424354 
L 41.700579 37.629946 
L 43.758613 31.358299 
L 44.444624 29.64218 
L 45.130635 45.203429 
L 45.816647 26.977675 
L 46.502658 32.111924 
L 47.188669 28.87922 
L 47.87468 28.430843 
L 48.560692 44.971593 
L 49.246703 26.637964 
L 49.932714 32.041387 
L 50.618726 28.476566 
L 51.304737 46.079169 
L 51.990748 27.701582 
L 52.67676 32.39067 
L 53.362771 28.648993 
L 54.048782 46.502892 
L 54.734793 49.867624 
L 55.420805 40.333556 
L 56.106816 51.23678 
L 56.792827 39.69068 
L 57.478839 50.932614 
L 58.16485 57.876986 
L 59.536872 80.208177 
L 60.222884 56.264471 
L 60.908895 52.930432 
L 61.594906 46.69201 
L 62.280918 37.990462 
L 62.966929 43.769775 
L 63.65294 44.237323 
L 64.338951 39.908093 
L 65.024963 34.5433 
L 65.710974 41.152207 
L 66.396985 31.069031 
L 67.082997 38.030095 
L 67.769008 37.801792 
L 68.455019 40.510228 
L 69.827042 39.401914 
L 70.513053 40.736157 
L 71.199064 44.619119 
L 71.885076 44.258919 
L 72.571087 40.60687 
L 73.257098 38.456718 
L 74.629121 36.653398 
L 75.315132 37.862889 
L 76.001143 40.603363 
L 76.687155 36.901477 
L 77.373166 36.129947 
L 78.059177 34.748029 
L 78.745189 33.032042 
L 79.4312 34.927839 
L 80.803223 31.29438 
L 81.489234 31.179201 
L 82.175245 36.855911 
L 82.861256 31.774269 
L 83.547268 32.211335 
L 84.233279 29.802161 
L 84.91929 28.271996 
L 85.605302 28.321385 
L 86.291313 30.048183 
L 86.977324 33.207871 
L 87.663335 37.314547 
L 88.349347 43.547194 
L 89.035358 40.905129 
L 89.721369 34.692496 
L 90.407381 39.152253 
L 91.779403 31.425118 
L 92.465415 28.615979 
L 93.151426 26.921931 
L 93.837437 26.386826 
L 94.523448 26.925702 
L 95.20946 28.360068 
L 96.581482 32.8521 
L 97.953505 37.381102 
L 98.639516 38.928301 
L 99.325527 39.76926 
L 100.011539 39.884598 
L 100.69755 39.362281 
L 101.383561 38.353774 
L 102.755584 35.524621 
L 104.813618 30.976502 
L 106.18564 28.375151 
L 107.557663 26.157521 
L 109.615697 23.301261 
L 111.673731 20.794127 
L 113.731765 18.571408 
L 115.789799 16.638589 
L 117.847832 15.001366 
L 119.905866 13.646133 
L 121.9639 12.541142 
L 124.707945 11.384072 
L 127.45199 10.493829 
L 130.882047 9.621359 
L 135.684126 8.631468 
L 136.370137 87.533277 
L 137.056149 120.966553 
L 137.74216 81.380066 
L 138.428171 58.218596 
L 139.114182 52.023735 
L 139.800194 96.697903 
L 140.486205 121.256032 
L 141.172216 78.708521 
L 141.858228 94.538971 
L 142.544239 79.769977 
L 143.916262 95.259067 
L 144.602273 99.820213 
L 145.288284 85.277175 
L 145.974295 79.345991 
L 146.660307 72.409199 
L 147.346318 67.130845 
L 148.032329 68.437862 
L 148.718341 67.985726 
L 149.404352 63.351658 
L 150.090363 64.479973 
L 150.776374 59.294569 
L 151.462386 61.249353 
L 152.148397 55.232548 
L 152.834408 51.819481 
L 153.52042 57.089292 
L 154.206431 47.295358 
L 154.892442 45.778351 
L 155.578454 53.084743 
L 156.264465 51.018049 
L 156.950476 44.327452 
L 157.636487 42.31107 
L 158.322499 49.307415 
L 158.322499 49.307415 
" style="fill:none;stroke:#0aaa02;stroke-linecap:square;"/>
   </g>
   <g id="patch_3">
    <path d="M 21.12024 126.88726 
L 21.12024 3.00024 
" style="fill:none;stroke:#000000;stroke-linecap:square;stroke-linejoin:miter;stroke-width:0.8;"/>
   </g>
   <g id="patch_4">
    <path d="M 159.00851 126.88726 
L 159.00851 3.00024 
" style="fill:none;stroke:#000000;stroke-linecap:square;stroke-linejoin:miter;stroke-width:0.8;"/>
   </g>
   <g id="patch_5">
    <path d="M 21.12024 126.88726 
L 159.00851 126.88726 
" style="fill:none;stroke:#000000;stroke-linecap:square;stroke-linejoin:miter;stroke-width:0.8;"/>
   </g>
  </g>
  <g id="axes_2">
   <g id="matplotlib.axis_3">
    <g id="ytick_7">
     <g id="line2d_13">
      <defs>
       <path d="M 0 0 
L 3.5 0 
" id="mdd12f743ae" style="stroke:#000000;stroke-width:0.8;"/>
      </defs>
      <g>
       <use style="stroke:#000000;stroke-width:0.8;" x="159.00851" xlink:href="#mdd12f743ae" y="121.680758"/>
      </g>
     </g>
     <g id="text_13">
      <!-- 0 -->
      <g style="fill:#ec138e;" transform="translate(166.00851 124.543883)scale(0.08 -0.08)">
       <use xlink:href="#ArialMT-48"/>
      </g>
     </g>
    </g>
    <g id="ytick_8">
     <g id="line2d_14">
      <g>
       <use style="stroke:#000000;stroke-width:0.8;" x="159.00851" xlink:href="#mdd12f743ae" y="99.857505"/>
      </g>
     </g>
     <g id="text_14">
      <!-- .1 -->
      <g style="fill:#ec138e;" transform="translate(166.00851 102.72063)scale(0.08 -0.08)">
       <use xlink:href="#ArialMT-46"/>
       <use x="27.783203" xlink:href="#ArialMT-49"/>
      </g>
     </g>
    </g>
    <g id="ytick_9">
     <g id="line2d_15">
      <g>
       <use style="stroke:#000000;stroke-width:0.8;" x="159.00851" xlink:href="#mdd12f743ae" y="78.034252"/>
      </g>
     </g>
     <g id="text_15">
      <!-- .2 -->
      <g style="fill:#ec138e;" transform="translate(166.00851 80.897377)scale(0.08 -0.08)">
       <use xlink:href="#ArialMT-46"/>
       <use x="27.783203" xlink:href="#ArialMT-50"/>
      </g>
     </g>
    </g>
    <g id="ytick_10">
     <g id="line2d_16">
      <g>
       <use style="stroke:#000000;stroke-width:0.8;" x="159.00851" xlink:href="#mdd12f743ae" y="56.211"/>
      </g>
     </g>
     <g id="text_16">
      <!-- .3 -->
      <g style="fill:#ec138e;" transform="translate(166.00851 59.074125)scale(0.08 -0.08)">
       <defs>
        <path d="M 4.203125 18.890625 
L 12.984375 20.0625 
Q 14.5 12.59375 18.140625 9.296875 
Q 21.78125 6 27 6 
Q 33.203125 6 37.46875 10.296875 
Q 41.75 14.59375 41.75 20.953125 
Q 41.75 27 37.796875 30.921875 
Q 33.84375 34.859375 27.734375 34.859375 
Q 25.25 34.859375 21.53125 33.890625 
L 22.515625 41.609375 
Q 23.390625 41.5 23.921875 41.5 
Q 29.546875 41.5 34.03125 44.421875 
Q 38.53125 47.359375 38.53125 53.46875 
Q 38.53125 58.296875 35.25 61.46875 
Q 31.984375 64.65625 26.8125 64.65625 
Q 21.6875 64.65625 18.265625 61.421875 
Q 14.84375 58.203125 13.875 51.765625 
L 5.078125 53.328125 
Q 6.6875 62.15625 12.390625 67.015625 
Q 18.109375 71.875 26.609375 71.875 
Q 32.46875 71.875 37.390625 69.359375 
Q 42.328125 66.84375 44.9375 62.5 
Q 47.5625 58.15625 47.5625 53.265625 
Q 47.5625 48.640625 45.0625 44.828125 
Q 42.578125 41.015625 37.703125 38.765625 
Q 44.046875 37.3125 47.5625 32.6875 
Q 51.078125 28.078125 51.078125 21.140625 
Q 51.078125 11.765625 44.234375 5.25 
Q 37.40625 -1.265625 26.953125 -1.265625 
Q 17.53125 -1.265625 11.296875 4.34375 
Q 5.078125 9.96875 4.203125 18.890625 
z
" id="ArialMT-51"/>
       </defs>
       <use xlink:href="#ArialMT-46"/>
       <use x="27.783203" xlink:href="#ArialMT-51"/>
      </g>
     </g>
    </g>
    <g id="ytick_11">
     <g id="line2d_17">
      <g>
       <use style="stroke:#000000;stroke-width:0.8;" x="159.00851" xlink:href="#mdd12f743ae" y="34.387747"/>
      </g>
     </g>
     <g id="text_17">
      <!-- .4 -->
      <g style="fill:#ec138e;" transform="translate(166.00851 37.250872)scale(0.08 -0.08)">
       <use xlink:href="#ArialMT-46"/>
       <use x="27.783203" xlink:href="#ArialMT-52"/>
      </g>
     </g>
    </g>
    <g id="ytick_12">
     <g id="line2d_18">
      <g>
       <use style="stroke:#000000;stroke-width:0.8;" x="159.00851" xlink:href="#mdd12f743ae" y="12.564494"/>
      </g>
     </g>
     <g id="text_18">
      <!-- .5 -->
      <g style="fill:#ec138e;" transform="translate(166.00851 15.427619)scale(0.08 -0.08)">
       <use xlink:href="#ArialMT-46"/>
       <use x="27.783203" xlink:href="#ArialMT-53"/>
      </g>
     </g>
    </g>
   </g>
   <g id="line2d_19">
    <path clip-path="url(#pc67b26f29a)" d="M 21.806251 69.67983 
L 22.492263 75.007701 
L 23.178274 85.696821 
L 23.864285 87.018254 
L 24.550296 93.444252 
L 25.236308 96.902677 
L 25.922319 101.302325 
L 26.60833 99.913381 
L 27.294342 104.0364 
L 27.980353 102.430172 
L 28.666364 105.121641 
L 29.352376 106.295916 
L 30.038387 106.862335 
L 30.724398 106.980287 
L 31.410409 106.748145 
L 32.096421 107.898462 
L 32.782432 104.608279 
L 33.468443 102.330613 
L 34.154455 106.621468 
L 34.840466 108.470335 
L 35.526477 106.454895 
L 36.212488 108.525121 
L 36.8985 110.151059 
L 37.584511 110.325247 
L 38.270522 109.6513 
L 38.956534 109.670515 
L 39.642545 107.135971 
L 40.328556 109.341424 
L 41.014568 105.989523 
L 41.700579 109.708165 
L 42.38659 111.609892 
L 43.072601 112.540502 
L 43.758613 113.061432 
L 44.444624 113.341534 
L 45.130635 111.852274 
L 45.816647 112.456444 
L 46.502658 110.777052 
L 47.188669 113.324571 
L 47.87468 113.338346 
L 48.560692 111.696965 
L 49.246703 111.924722 
L 49.932714 110.677102 
L 50.618726 113.593499 
L 51.304737 111.588477 
L 51.990748 110.973341 
L 52.67676 110.647632 
L 53.362771 113.714937 
L 54.048782 111.588184 
L 54.734793 104.899638 
L 55.420805 95.627618 
L 56.106816 107.865556 
L 56.792827 100.112681 
L 57.478839 108.702366 
L 59.536872 90.735333 
L 60.222884 69.307346 
L 60.908895 100.828341 
L 61.594906 94.907126 
L 62.280918 107.315125 
L 62.966929 110.059986 
L 63.65294 106.564981 
L 64.338951 101.761565 
L 65.024963 108.930569 
L 65.710974 111.228649 
L 66.396985 108.877332 
L 67.082997 111.1876 
L 68.455019 104.476628 
L 69.141031 96.766508 
L 69.827042 108.249899 
L 71.199064 102.194388 
L 71.885076 92.696428 
L 72.571087 106.90498 
L 73.257098 102.550226 
L 73.94311 109.487619 
L 75.315132 104.751359 
L 76.001143 97.707026 
L 76.687155 108.197113 
L 77.373166 104.366466 
L 78.059177 110.070527 
L 78.745189 108.187247 
L 79.4312 103.716293 
L 80.117211 110.039712 
L 81.489234 106.282222 
L 82.175245 100.336594 
L 82.861256 108.340326 
L 83.547268 111.12466 
L 85.605302 106.14441 
L 86.977324 101.883243 
L 87.663335 99.592994 
L 88.349347 91.188859 
L 89.035358 103.439332 
L 89.721369 107.246617 
L 90.407381 105.104279 
L 91.093392 108.345866 
L 91.779403 108.365124 
L 92.465415 107.951735 
L 93.151426 107.273021 
L 94.523448 105.362456 
L 97.953505 99.888203 
L 98.639516 99.239855 
L 99.325527 98.985174 
L 100.011539 99.213874 
L 100.69755 99.957633 
L 101.383561 101.185871 
L 102.069573 102.818996 
L 103.441595 106.845202 
L 104.813618 110.958944 
L 106.18564 114.190266 
L 106.871652 115.36958 
L 107.557663 116.29549 
L 108.929686 117.588015 
L 110.301708 118.418394 
L 111.673731 118.994784 
L 113.731765 119.594864 
L 116.47581 120.115601 
L 119.905866 120.52563 
L 124.707945 120.873478 
L 132.25407 121.171376 
L 135.684126 121.256032 
L 136.370137 87.102287 
L 137.056149 19.459094 
L 137.74216 8.631468 
L 138.428171 52.999728 
L 139.114182 70.730912 
L 139.800194 80.53446 
L 140.486205 46.386816 
L 141.172216 43.406596 
L 141.858228 76.381243 
L 142.544239 70.126387 
L 143.23025 88.671038 
L 143.916262 86.293694 
L 144.602273 85.458 
L 145.288284 81.300312 
L 145.974295 93.105107 
L 146.660307 99.912088 
L 148.032329 107.179909 
L 148.718341 105.96562 
L 149.404352 103.386018 
L 150.090363 108.050546 
L 150.776374 105.493536 
L 151.462386 109.380208 
L 152.148397 106.982862 
L 152.834408 109.483001 
L 153.52042 111.494527 
L 154.206431 110.113234 
L 154.892442 110.853552 
L 155.578454 112.260426 
L 156.264465 109.716652 
L 156.950476 107.952109 
L 157.636487 110.797218 
L 158.322499 112.498728 
L 158.322499 112.498728 
" style="fill:none;stroke:#ec138e;stroke-linecap:square;"/>
   </g>
   <g id="patch_6">
    <path d="M 21.12024 126.88726 
L 21.12024 3.00024 
" style="fill:none;stroke:#000000;stroke-linecap:square;stroke-linejoin:miter;stroke-width:0.8;"/>
   </g>
   <g id="patch_7">
    <path d="M 21.12024 126.88726 
L 159.00851 126.88726 
" style="fill:none;stroke:#000000;stroke-linecap:square;stroke-linejoin:miter;stroke-width:0.8;"/>
   </g>
  </g>
  <g id="axes_3">
   <g id="line2d_20">
    <defs>
     <path d="M 0 0.25 
C 0.066301 0.25 0.129895 0.223658 0.176777 0.176777 
C 0.223658 0.129895 0.25 0.066301 0.25 0 
C 0.25 -0.066301 0.223658 -0.129895 0.176777 -0.176777 
C 0.129895 -0.223658 0.066301 -0.25 0 -0.25 
C -0.066301 -0.25 -0.129895 -0.223658 -0.176777 -0.176777 
C -0.223658 -0.129895 -0.25 -0.066301 -0.25 0 
C -0.25 0.066301 -0.223658 0.129895 -0.176777 0.176777 
C -0.129895 0.223658 -0.066301 0.25 0 0.25 
z
" id="mc50240db66" style="stroke:#000000;"/>
    </defs>
    <g clip-path="url(#pc67b26f29a)">
     <use style="stroke:#000000;" x="21.806251" xlink:href="#mc50240db66" y="8.631468"/>
     <use style="stroke:#000000;" x="22.492263" xlink:href="#mc50240db66" y="121.256032"/>
     <use style="stroke:#000000;" x="23.178274" xlink:href="#mc50240db66" y="8.631468"/>
     <use style="stroke:#000000;" x="23.864285" xlink:href="#mc50240db66" y="121.256032"/>
     <use style="stroke:#000000;" x="24.550296" xlink:href="#mc50240db66" y="121.256032"/>
     <use style="stroke:#000000;" x="25.236308" xlink:href="#mc50240db66" y="121.256032"/>
     <use style="stroke:#000000;" x="25.922319" xlink:href="#mc50240db66" y="8.631468"/>
     <use style="stroke:#000000;" x="26.60833" xlink:href="#mc50240db66" y="121.256032"/>
     <use style="stroke:#000000;" x="27.294342" xlink:href="#mc50240db66" y="8.631468"/>
     <use style="stroke:#000000;" x="27.980353" xlink:href="#mc50240db66" y="121.256032"/>
     <use style="stroke:#000000;" x="28.666364" xlink:href="#mc50240db66" y="121.256032"/>
     <use style="stroke:#000000;" x="29.352376" xlink:href="#mc50240db66" y="121.256032"/>
     <use style="stroke:#000000;" x="30.038387" xlink:href="#mc50240db66" y="121.256032"/>
     <use style="stroke:#000000;" x="30.724398" xlink:href="#mc50240db66" y="121.256032"/>
     <use style="stroke:#000000;" x="31.410409" xlink:href="#mc50240db66" y="121.256032"/>
     <use style="stroke:#000000;" x="32.096421" xlink:href="#mc50240db66" y="8.631468"/>
     <use style="stroke:#000000;" x="32.782432" xlink:href="#mc50240db66" y="8.631468"/>
     <use style="stroke:#000000;" x="33.468443" xlink:href="#mc50240db66" y="121.256032"/>
     <use style="stroke:#000000;" x="34.154455" xlink:href="#mc50240db66" y="121.256032"/>
     <use style="stroke:#000000;" x="34.840466" xlink:href="#mc50240db66" y="8.631468"/>
     <use style="stroke:#000000;" x="35.526477" xlink:href="#mc50240db66" y="121.256032"/>
     <use style="stroke:#000000;" x="36.212488" xlink:href="#mc50240db66" y="121.256032"/>
     <use style="stroke:#000000;" x="36.8985" xlink:href="#mc50240db66" y="121.256032"/>
     <use style="stroke:#000000;" x="37.584511" xlink:href="#mc50240db66" y="8.631468"/>
     <use style="stroke:#000000;" x="38.270522" xlink:href="#mc50240db66" y="121.256032"/>
     <use style="stroke:#000000;" x="38.956534" xlink:href="#mc50240db66" y="8.631468"/>
     <use style="stroke:#000000;" x="39.642545" xlink:href="#mc50240db66" y="121.256032"/>
     <use style="stroke:#000000;" x="40.328556" xlink:href="#mc50240db66" y="8.631468"/>
     <use style="stroke:#000000;" x="41.014568" xlink:href="#mc50240db66" y="121.256032"/>
     <use style="stroke:#000000;" x="41.700579" xlink:href="#mc50240db66" y="121.256032"/>
     <use style="stroke:#000000;" x="42.38659" xlink:href="#mc50240db66" y="121.256032"/>
     <use style="stroke:#000000;" x="43.072601" xlink:href="#mc50240db66" y="121.256032"/>
     <use style="stroke:#000000;" x="43.758613" xlink:href="#mc50240db66" y="121.256032"/>
     <use style="stroke:#000000;" x="44.444624" xlink:href="#mc50240db66" y="121.256032"/>
     <use style="stroke:#000000;" x="45.130635" xlink:href="#mc50240db66" y="8.631468"/>
     <use style="stroke:#000000;" x="45.816647" xlink:href="#mc50240db66" y="121.256032"/>
     <use style="stroke:#000000;" x="46.502658" xlink:href="#mc50240db66" y="121.256032"/>
     <use style="stroke:#000000;" x="47.188669" xlink:href="#mc50240db66" y="121.256032"/>
     <use style="stroke:#000000;" x="47.87468" xlink:href="#mc50240db66" y="121.256032"/>
     <use style="stroke:#000000;" x="48.560692" xlink:href="#mc50240db66" y="8.631468"/>
     <use style="stroke:#000000;" x="49.246703" xlink:href="#mc50240db66" y="121.256032"/>
     <use style="stroke:#000000;" x="49.932714" xlink:href="#mc50240db66" y="121.256032"/>
     <use style="stroke:#000000;" x="50.618726" xlink:href="#mc50240db66" y="121.256032"/>
     <use style="stroke:#000000;" x="51.304737" xlink:href="#mc50240db66" y="8.631468"/>
     <use style="stroke:#000000;" x="51.990748" xlink:href="#mc50240db66" y="121.256032"/>
     <use style="stroke:#000000;" x="52.67676" xlink:href="#mc50240db66" y="121.256032"/>
     <use style="stroke:#000000;" x="53.362771" xlink:href="#mc50240db66" y="121.256032"/>
     <use style="stroke:#000000;" x="54.048782" xlink:href="#mc50240db66" y="8.631468"/>
     <use style="stroke:#000000;" x="54.734793" xlink:href="#mc50240db66" y="8.631468"/>
     <use style="stroke:#000000;" x="55.420805" xlink:href="#mc50240db66" y="121.256032"/>
     <use style="stroke:#000000;" x="56.106816" xlink:href="#mc50240db66" y="8.631468"/>
     <use style="stroke:#000000;" x="56.792827" xlink:href="#mc50240db66" y="121.256032"/>
     <use style="stroke:#000000;" x="57.478839" xlink:href="#mc50240db66" y="8.631468"/>
     <use style="stroke:#000000;" x="58.16485" xlink:href="#mc50240db66" y="8.631468"/>
     <use style="stroke:#000000;" x="58.850861" xlink:href="#mc50240db66" y="8.631468"/>
     <use style="stroke:#000000;" x="59.536872" xlink:href="#mc50240db66" y="8.631468"/>
     <use style="stroke:#000000;" x="60.222884" xlink:href="#mc50240db66" y="121.256032"/>
     <use style="stroke:#000000;" x="60.908895" xlink:href="#mc50240db66" y="8.631468"/>
     <use style="stroke:#000000;" x="61.594906" xlink:href="#mc50240db66" y="121.256032"/>
     <use style="stroke:#000000;" x="62.280918" xlink:href="#mc50240db66" y="121.256032"/>
     <use style="stroke:#000000;" x="62.966929" xlink:href="#mc50240db66" y="8.631468"/>
     <use style="stroke:#000000;" x="63.65294" xlink:href="#mc50240db66" y="8.631468"/>
     <use style="stroke:#000000;" x="64.338951" xlink:href="#mc50240db66" y="121.256032"/>
     <use style="stroke:#000000;" x="65.024963" xlink:href="#mc50240db66" y="121.256032"/>
     <use style="stroke:#000000;" x="65.710974" xlink:href="#mc50240db66" y="8.631468"/>
     <use style="stroke:#000000;" x="66.396985" xlink:href="#mc50240db66" y="121.256032"/>
     <use style="stroke:#000000;" x="67.082997" xlink:href="#mc50240db66" y="8.631468"/>
     <use style="stroke:#000000;" x="67.769008" xlink:href="#mc50240db66" y="8.631468"/>
     <use style="stroke:#000000;" x="68.455019" xlink:href="#mc50240db66" y="8.631468"/>
     <use style="stroke:#000000;" x="69.141031" xlink:href="#mc50240db66" y="121.256032"/>
     <use style="stroke:#000000;" x="69.827042" xlink:href="#mc50240db66" y="8.631468"/>
     <use style="stroke:#000000;" x="70.513053" xlink:href="#mc50240db66" y="8.631468"/>
     <use style="stroke:#000000;" x="71.199064" xlink:href="#mc50240db66" y="8.631468"/>
     <use style="stroke:#000000;" x="71.885076" xlink:href="#mc50240db66" y="121.256032"/>
     <use style="stroke:#000000;" x="72.571087" xlink:href="#mc50240db66" y="8.631468"/>
     <use style="stroke:#000000;" x="73.257098" xlink:href="#mc50240db66" y="121.256032"/>
     <use style="stroke:#000000;" x="73.94311" xlink:href="#mc50240db66" y="8.631468"/>
     <use style="stroke:#000000;" x="74.629121" xlink:href="#mc50240db66" y="8.631468"/>
     <use style="stroke:#000000;" x="75.315132" xlink:href="#mc50240db66" y="8.631468"/>
     <use style="stroke:#000000;" x="76.001143" xlink:href="#mc50240db66" y="121.256032"/>
     <use style="stroke:#000000;" x="76.687155" xlink:href="#mc50240db66" y="8.631468"/>
     <use style="stroke:#000000;" x="77.373166" xlink:href="#mc50240db66" y="121.256032"/>
     <use style="stroke:#000000;" x="78.059177" xlink:href="#mc50240db66" y="8.631468"/>
     <use style="stroke:#000000;" x="78.745189" xlink:href="#mc50240db66" y="8.631468"/>
     <use style="stroke:#000000;" x="79.4312" xlink:href="#mc50240db66" y="121.256032"/>
     <use style="stroke:#000000;" x="80.117211" xlink:href="#mc50240db66" y="8.631468"/>
     <use style="stroke:#000000;" x="80.803223" xlink:href="#mc50240db66" y="8.631468"/>
     <use style="stroke:#000000;" x="81.489234" xlink:href="#mc50240db66" y="8.631468"/>
     <use style="stroke:#000000;" x="82.175245" xlink:href="#mc50240db66" y="121.256032"/>
     <use style="stroke:#000000;" x="82.861256" xlink:href="#mc50240db66" y="121.256032"/>
     <use style="stroke:#000000;" x="83.547268" xlink:href="#mc50240db66" y="8.631468"/>
     <use style="stroke:#000000;" x="84.233279" xlink:href="#mc50240db66" y="8.631468"/>
     <use style="stroke:#000000;" x="84.91929" xlink:href="#mc50240db66" y="8.631468"/>
     <use style="stroke:#000000;" x="85.605302" xlink:href="#mc50240db66" y="8.631468"/>
     <use style="stroke:#000000;" x="86.291313" xlink:href="#mc50240db66" y="8.631468"/>
     <use style="stroke:#000000;" x="86.977324" xlink:href="#mc50240db66" y="8.631468"/>
     <use style="stroke:#000000;" x="87.663335" xlink:href="#mc50240db66" y="8.631468"/>
     <use style="stroke:#000000;" x="88.349347" xlink:href="#mc50240db66" y="121.256032"/>
     <use style="stroke:#000000;" x="89.035358" xlink:href="#mc50240db66" y="121.256032"/>
     <use style="stroke:#000000;" x="89.721369" xlink:href="#mc50240db66" y="8.631468"/>
     <use style="stroke:#000000;" x="90.407381" xlink:href="#mc50240db66" y="121.256032"/>
     <use style="stroke:#000000;" x="91.093392" xlink:href="#mc50240db66" y="8.631468"/>
     <use style="stroke:#000000;" x="91.779403" xlink:href="#mc50240db66" y="8.631468"/>
     <use style="stroke:#000000;" x="92.465415" xlink:href="#mc50240db66" y="8.631468"/>
     <use style="stroke:#000000;" x="93.151426" xlink:href="#mc50240db66" y="8.631468"/>
     <use style="stroke:#000000;" x="93.837437" xlink:href="#mc50240db66" y="8.631468"/>
     <use style="stroke:#000000;" x="94.523448" xlink:href="#mc50240db66" y="8.631468"/>
     <use style="stroke:#000000;" x="95.20946" xlink:href="#mc50240db66" y="8.631468"/>
     <use style="stroke:#000000;" x="95.895471" xlink:href="#mc50240db66" y="8.631468"/>
     <use style="stroke:#000000;" x="96.581482" xlink:href="#mc50240db66" y="8.631468"/>
     <use style="stroke:#000000;" x="97.267494" xlink:href="#mc50240db66" y="8.631468"/>
     <use style="stroke:#000000;" x="97.953505" xlink:href="#mc50240db66" y="8.631468"/>
     <use style="stroke:#000000;" x="98.639516" xlink:href="#mc50240db66" y="8.631468"/>
     <use style="stroke:#000000;" x="99.325527" xlink:href="#mc50240db66" y="8.631468"/>
     <use style="stroke:#000000;" x="100.011539" xlink:href="#mc50240db66" y="8.631468"/>
     <use style="stroke:#000000;" x="100.69755" xlink:href="#mc50240db66" y="8.631468"/>
     <use style="stroke:#000000;" x="101.383561" xlink:href="#mc50240db66" y="8.631468"/>
     <use style="stroke:#000000;" x="102.069573" xlink:href="#mc50240db66" y="8.631468"/>
     <use style="stroke:#000000;" x="102.755584" xlink:href="#mc50240db66" y="8.631468"/>
     <use style="stroke:#000000;" x="103.441595" xlink:href="#mc50240db66" y="8.631468"/>
     <use style="stroke:#000000;" x="104.127607" xlink:href="#mc50240db66" y="8.631468"/>
     <use style="stroke:#000000;" x="104.813618" xlink:href="#mc50240db66" y="8.631468"/>
     <use style="stroke:#000000;" x="105.499629" xlink:href="#mc50240db66" y="8.631468"/>
     <use style="stroke:#000000;" x="106.18564" xlink:href="#mc50240db66" y="8.631468"/>
     <use style="stroke:#000000;" x="106.871652" xlink:href="#mc50240db66" y="8.631468"/>
     <use style="stroke:#000000;" x="107.557663" xlink:href="#mc50240db66" y="8.631468"/>
     <use style="stroke:#000000;" x="108.243674" xlink:href="#mc50240db66" y="8.631468"/>
     <use style="stroke:#000000;" x="108.929686" xlink:href="#mc50240db66" y="8.631468"/>
     <use style="stroke:#000000;" x="109.615697" xlink:href="#mc50240db66" y="8.631468"/>
     <use style="stroke:#000000;" x="110.301708" xlink:href="#mc50240db66" y="8.631468"/>
     <use style="stroke:#000000;" x="110.987719" xlink:href="#mc50240db66" y="8.631468"/>
     <use style="stroke:#000000;" x="111.673731" xlink:href="#mc50240db66" y="8.631468"/>
     <use style="stroke:#000000;" x="112.359742" xlink:href="#mc50240db66" y="8.631468"/>
     <use style="stroke:#000000;" x="113.045753" xlink:href="#mc50240db66" y="8.631468"/>
     <use style="stroke:#000000;" x="113.731765" xlink:href="#mc50240db66" y="8.631468"/>
     <use style="stroke:#000000;" x="114.417776" xlink:href="#mc50240db66" y="8.631468"/>
     <use style="stroke:#000000;" x="115.103787" xlink:href="#mc50240db66" y="8.631468"/>
     <use style="stroke:#000000;" x="115.789799" xlink:href="#mc50240db66" y="8.631468"/>
     <use style="stroke:#000000;" x="116.47581" xlink:href="#mc50240db66" y="8.631468"/>
     <use style="stroke:#000000;" x="117.161821" xlink:href="#mc50240db66" y="8.631468"/>
     <use style="stroke:#000000;" x="117.847832" xlink:href="#mc50240db66" y="8.631468"/>
     <use style="stroke:#000000;" x="118.533844" xlink:href="#mc50240db66" y="8.631468"/>
     <use style="stroke:#000000;" x="119.219855" xlink:href="#mc50240db66" y="8.631468"/>
     <use style="stroke:#000000;" x="119.905866" xlink:href="#mc50240db66" y="8.631468"/>
     <use style="stroke:#000000;" x="120.591878" xlink:href="#mc50240db66" y="8.631468"/>
     <use style="stroke:#000000;" x="121.277889" xlink:href="#mc50240db66" y="8.631468"/>
     <use style="stroke:#000000;" x="121.9639" xlink:href="#mc50240db66" y="8.631468"/>
     <use style="stroke:#000000;" x="122.649911" xlink:href="#mc50240db66" y="8.631468"/>
     <use style="stroke:#000000;" x="123.335923" xlink:href="#mc50240db66" y="8.631468"/>
     <use style="stroke:#000000;" x="124.021934" xlink:href="#mc50240db66" y="8.631468"/>
     <use style="stroke:#000000;" x="124.707945" xlink:href="#mc50240db66" y="8.631468"/>
     <use style="stroke:#000000;" x="125.393957" xlink:href="#mc50240db66" y="8.631468"/>
     <use style="stroke:#000000;" x="126.079968" xlink:href="#mc50240db66" y="8.631468"/>
     <use style="stroke:#000000;" x="126.765979" xlink:href="#mc50240db66" y="8.631468"/>
     <use style="stroke:#000000;" x="127.45199" xlink:href="#mc50240db66" y="8.631468"/>
     <use style="stroke:#000000;" x="128.138002" xlink:href="#mc50240db66" y="8.631468"/>
     <use style="stroke:#000000;" x="128.824013" xlink:href="#mc50240db66" y="8.631468"/>
     <use style="stroke:#000000;" x="129.510024" xlink:href="#mc50240db66" y="8.631468"/>
     <use style="stroke:#000000;" x="130.196036" xlink:href="#mc50240db66" y="8.631468"/>
     <use style="stroke:#000000;" x="130.882047" xlink:href="#mc50240db66" y="8.631468"/>
     <use style="stroke:#000000;" x="131.568058" xlink:href="#mc50240db66" y="8.631468"/>
     <use style="stroke:#000000;" x="132.25407" xlink:href="#mc50240db66" y="8.631468"/>
     <use style="stroke:#000000;" x="132.940081" xlink:href="#mc50240db66" y="8.631468"/>
     <use style="stroke:#000000;" x="133.626092" xlink:href="#mc50240db66" y="8.631468"/>
     <use style="stroke:#000000;" x="134.312103" xlink:href="#mc50240db66" y="8.631468"/>
     <use style="stroke:#000000;" x="134.998115" xlink:href="#mc50240db66" y="8.631468"/>
     <use style="stroke:#000000;" x="135.684126" xlink:href="#mc50240db66" y="8.631468"/>
     <use style="stroke:#000000;" x="136.370137" xlink:href="#mc50240db66" y="121.256032"/>
     <use style="stroke:#000000;" x="137.056149" xlink:href="#mc50240db66" y="121.256032"/>
     <use style="stroke:#000000;" x="137.74216" xlink:href="#mc50240db66" y="121.256032"/>
     <use style="stroke:#000000;" x="138.428171" xlink:href="#mc50240db66" y="121.256032"/>
     <use style="stroke:#000000;" x="139.114182" xlink:href="#mc50240db66" y="121.256032"/>
     <use style="stroke:#000000;" x="139.800194" xlink:href="#mc50240db66" y="8.631468"/>
     <use style="stroke:#000000;" x="140.486205" xlink:href="#mc50240db66" y="8.631468"/>
     <use style="stroke:#000000;" x="141.172216" xlink:href="#mc50240db66" y="121.256032"/>
     <use style="stroke:#000000;" x="141.858228" xlink:href="#mc50240db66" y="8.631468"/>
     <use style="stroke:#000000;" x="142.544239" xlink:href="#mc50240db66" y="121.256032"/>
     <use style="stroke:#000000;" x="143.23025" xlink:href="#mc50240db66" y="8.631468"/>
     <use style="stroke:#000000;" x="143.916262" xlink:href="#mc50240db66" y="8.631468"/>
     <use style="stroke:#000000;" x="144.602273" xlink:href="#mc50240db66" y="8.631468"/>
     <use style="stroke:#000000;" x="145.288284" xlink:href="#mc50240db66" y="121.256032"/>
     <use style="stroke:#000000;" x="145.974295" xlink:href="#mc50240db66" y="121.256032"/>
     <use style="stroke:#000000;" x="146.660307" xlink:href="#mc50240db66" y="121.256032"/>
     <use style="stroke:#000000;" x="147.346318" xlink:href="#mc50240db66" y="121.256032"/>
     <use style="stroke:#000000;" x="148.032329" xlink:href="#mc50240db66" y="8.631468"/>
     <use style="stroke:#000000;" x="148.718341" xlink:href="#mc50240db66" y="8.631468"/>
     <use style="stroke:#000000;" x="149.404352" xlink:href="#mc50240db66" y="121.256032"/>
     <use style="stroke:#000000;" x="150.090363" xlink:href="#mc50240db66" y="8.631468"/>
     <use style="stroke:#000000;" x="150.776374" xlink:href="#mc50240db66" y="121.256032"/>
     <use style="stroke:#000000;" x="151.462386" xlink:href="#mc50240db66" y="8.631468"/>
     <use style="stroke:#000000;" x="152.148397" xlink:href="#mc50240db66" y="121.256032"/>
     <use style="stroke:#000000;" x="152.834408" xlink:href="#mc50240db66" y="121.256032"/>
     <use style="stroke:#000000;" x="153.52042" xlink:href="#mc50240db66" y="8.631468"/>
     <use style="stroke:#000000;" x="154.206431" xlink:href="#mc50240db66" y="121.256032"/>
     <use style="stroke:#000000;" x="154.892442" xlink:href="#mc50240db66" y="121.256032"/>
     <use style="stroke:#000000;" x="155.578454" xlink:href="#mc50240db66" y="8.631468"/>
     <use style="stroke:#000000;" x="156.264465" xlink:href="#mc50240db66" y="8.631468"/>
     <use style="stroke:#000000;" x="156.950476" xlink:href="#mc50240db66" y="121.256032"/>
     <use style="stroke:#000000;" x="157.636487" xlink:href="#mc50240db66" y="121.256032"/>
     <use style="stroke:#000000;" x="158.322499" xlink:href="#mc50240db66" y="8.631468"/>
    </g>
   </g>
   <g id="patch_8">
    <path d="M 21.12024 126.88726 
L 21.12024 3.00024 
" style="fill:none;stroke:#000000;stroke-linecap:square;stroke-linejoin:miter;stroke-width:0.8;"/>
   </g>
   <g id="patch_9">
    <path d="M 21.12024 126.88726 
L 159.00851 126.88726 
" style="fill:none;stroke:#000000;stroke-linecap:square;stroke-linejoin:miter;stroke-width:0.8;"/>
   </g>
  </g>
 </g>
 <defs>
  <clipPath id="pc67b26f29a">
   <rect height="123.88702" width="137.88827" x="21.12024" y="3.00024"/>
  </clipPath>
 </defs>
</svg>
