<?xml version="1.0" encoding="utf-8" standalone="no"?>
<!DOCTYPE svg PUBLIC "-//W3C//DTD SVG 1.1//EN"
  "http://www.w3.org/Graphics/SVG/1.1/DTD/svg11.dtd">
<!-- Created with matplotlib (https://matplotlib.org/) -->
<svg height="144.48pt" version="1.1" viewBox="0 0 144.48 144.48" width="144.48pt" xmlns="http://www.w3.org/2000/svg" xmlns:xlink="http://www.w3.org/1999/xlink">
 <metadata>
  <rdf:RDF xmlns:cc="http://creativecommons.org/ns#" xmlns:dc="http://purl.org/dc/elements/1.1/" xmlns:rdf="http://www.w3.org/1999/02/22-rdf-syntax-ns#">
   <cc:Work>
    <dc:type rdf:resource="http://purl.org/dc/dcmitype/StillImage"/>
    <dc:date>2021-11-11T09:58:03.223131</dc:date>
    <dc:format>image/svg+xml</dc:format>
    <dc:creator>
     <cc:Agent>
      <dc:title>Matplotlib v3.3.4, https://matplotlib.org/</dc:title>
     </cc:Agent>
    </dc:creator>
   </cc:Work>
  </rdf:RDF>
 </metadata>
 <defs>
  <style type="text/css">*{stroke-linecap:butt;stroke-linejoin:round;}</style>
 </defs>
 <g id="figure_1">
  <g id="patch_1">
   <path d="M 0 144.48 
L 144.48 144.48 
L 144.48 0 
L 0 0 
z
" style="fill:#ffffff;"/>
  </g>
  <g id="axes_1">
   <g id="patch_2">
    <path d="M 71.35149 118.49126 
L 127.507261 118.49126 
L 127.507261 23.18799 
L 71.35149 23.18799 
z
" style="fill:#ffffff;"/>
   </g>
   <g id="PathCollection_1">
    <defs>
     <path d="M 0 0.306186 
C 0.081202 0.306186 0.159088 0.273925 0.216506 0.216506 
C 0.273925 0.159088 0.306186 0.081202 0.306186 0 
C 0.306186 -0.081202 0.273925 -0.159088 0.216506 -0.216506 
C 0.159088 -0.273925 0.081202 -0.306186 0 -0.306186 
C -0.081202 -0.306186 -0.159088 -0.273925 -0.216506 -0.216506 
C -0.273925 -0.159088 -0.306186 -0.081202 -0.306186 0 
C -0.306186 0.081202 -0.273925 0.159088 -0.216506 0.216506 
C -0.159088 0.273925 -0.081202 0.306186 0 0.306186 
z
" id="m3fb9563d94" style="stroke:#000000;stroke-opacity:0.3;"/>
    </defs>
    <g clip-path="url(#pb31c2bf04f)">
     <use style="fill-opacity:0.3;stroke:#000000;stroke-opacity:0.3;" x="120.321982" xlink:href="#m3fb9563d94" y="27.519957"/>
     <use style="fill-opacity:0.3;stroke:#000000;stroke-opacity:0.3;" x="113.810442" xlink:href="#m3fb9563d94" y="27.519957"/>
     <use style="fill-opacity:0.3;stroke:#000000;stroke-opacity:0.3;" x="121.998297" xlink:href="#m3fb9563d94" y="27.519957"/>
     <use style="fill-opacity:0.3;stroke:#000000;stroke-opacity:0.3;" x="122.872752" xlink:href="#m3fb9563d94" y="27.519957"/>
     <use style="fill-opacity:0.3;stroke:#000000;stroke-opacity:0.3;" x="119.16474" xlink:href="#m3fb9563d94" y="27.519957"/>
     <use style="fill-opacity:0.3;stroke:#000000;stroke-opacity:0.3;" x="122.761404" xlink:href="#m3fb9563d94" y="27.519957"/>
     <use style="fill-opacity:0.3;stroke:#000000;stroke-opacity:0.3;" x="117.896264" xlink:href="#m3fb9563d94" y="27.519957"/>
     <use style="fill-opacity:0.3;stroke:#000000;stroke-opacity:0.3;" x="120.419715" xlink:href="#m3fb9563d94" y="27.519957"/>
     <use style="fill-opacity:0.3;stroke:#000000;stroke-opacity:0.3;" x="114.649873" xlink:href="#m3fb9563d94" y="27.519957"/>
     <use style="fill-opacity:0.3;stroke:#000000;stroke-opacity:0.3;" x="123.88129" xlink:href="#m3fb9563d94" y="27.519957"/>
     <use style="fill-opacity:0.3;stroke:#000000;stroke-opacity:0.3;" x="117.715601" xlink:href="#m3fb9563d94" y="27.519957"/>
     <use style="fill-opacity:0.3;stroke:#000000;stroke-opacity:0.3;" x="118.688911" xlink:href="#m3fb9563d94" y="27.519957"/>
     <use style="fill-opacity:0.3;stroke:#000000;stroke-opacity:0.3;" x="122.869082" xlink:href="#m3fb9563d94" y="27.519957"/>
     <use style="fill-opacity:0.3;stroke:#000000;stroke-opacity:0.3;" x="121.897906" xlink:href="#m3fb9563d94" y="27.519957"/>
     <use style="fill-opacity:0.3;stroke:#000000;stroke-opacity:0.3;" x="120.257866" xlink:href="#m3fb9563d94" y="27.519957"/>
     <use style="fill-opacity:0.3;stroke:#000000;stroke-opacity:0.3;" x="120.34653" xlink:href="#m3fb9563d94" y="27.519957"/>
     <use style="fill-opacity:0.3;stroke:#000000;stroke-opacity:0.3;" x="123.020015" xlink:href="#m3fb9563d94" y="27.519957"/>
     <use style="fill-opacity:0.3;stroke:#000000;stroke-opacity:0.3;" x="124.051094" xlink:href="#m3fb9563d94" y="27.519957"/>
     <use style="fill-opacity:0.3;stroke:#000000;stroke-opacity:0.3;" x="121.251466" xlink:href="#m3fb9563d94" y="27.519957"/>
     <use style="fill-opacity:0.3;stroke:#000000;stroke-opacity:0.3;" x="121.110485" xlink:href="#m3fb9563d94" y="27.519957"/>
    </g>
   </g>
   <g id="PathCollection_2">
    <defs>
     <path d="M 0 1.118034 
C 0.296506 1.118034 0.580908 1.000231 0.790569 0.790569 
C 1.000231 0.580908 1.118034 0.296506 1.118034 0 
C 1.118034 -0.296506 1.000231 -0.580908 0.790569 -0.790569 
C 0.580908 -1.000231 0.296506 -1.118034 0 -1.118034 
C -0.296506 -1.118034 -0.580908 -1.000231 -0.790569 -0.790569 
C -1.000231 -0.580908 -1.118034 -0.296506 -1.118034 0 
C -1.118034 0.296506 -1.000231 0.580908 -0.790569 0.790569 
C -0.580908 1.000231 -0.296506 1.118034 0 1.118034 
z
" id="mee559fc766" style="stroke:#000000;"/>
    </defs>
    <g clip-path="url(#pb31c2bf04f)">
     <use style="stroke:#000000;" x="120.7651" xlink:href="#mee559fc766" y="27.519957"/>
     <use style="stroke:#000000;" x="110.279168" xlink:href="#mee559fc766" y="56.399736"/>
     <use style="stroke:#000000;" x="120.673829" xlink:href="#mee559fc766" y="85.279514"/>
     <use style="stroke:#000000;" x="96.74833" xlink:href="#mee559fc766" y="114.159293"/>
    </g>
   </g>
   <g id="PathCollection_3">
    <g clip-path="url(#pb31c2bf04f)">
     <use style="fill-opacity:0.3;stroke:#000000;stroke-opacity:0.3;" x="112.524103" xlink:href="#m3fb9563d94" y="56.399736"/>
     <use style="fill-opacity:0.3;stroke:#000000;stroke-opacity:0.3;" x="114.043793" xlink:href="#m3fb9563d94" y="56.399736"/>
     <use style="fill-opacity:0.3;stroke:#000000;stroke-opacity:0.3;" x="112.056798" xlink:href="#m3fb9563d94" y="56.399736"/>
     <use style="fill-opacity:0.3;stroke:#000000;stroke-opacity:0.3;" x="109.662247" xlink:href="#m3fb9563d94" y="56.399736"/>
     <use style="fill-opacity:0.3;stroke:#000000;stroke-opacity:0.3;" x="103.819569" xlink:href="#m3fb9563d94" y="56.399736"/>
     <use style="fill-opacity:0.3;stroke:#000000;stroke-opacity:0.3;" x="105.12634" xlink:href="#m3fb9563d94" y="56.399736"/>
     <use style="fill-opacity:0.3;stroke:#000000;stroke-opacity:0.3;" x="112.30874" xlink:href="#m3fb9563d94" y="56.399736"/>
     <use style="fill-opacity:0.3;stroke:#000000;stroke-opacity:0.3;" x="98.702597" xlink:href="#m3fb9563d94" y="56.399736"/>
     <use style="fill-opacity:0.3;stroke:#000000;stroke-opacity:0.3;" x="96.399095" xlink:href="#m3fb9563d94" y="56.399736"/>
     <use style="fill-opacity:0.3;stroke:#000000;stroke-opacity:0.3;" x="114.69948" xlink:href="#m3fb9563d94" y="56.399736"/>
     <use style="fill-opacity:0.3;stroke:#000000;stroke-opacity:0.3;" x="116.099245" xlink:href="#m3fb9563d94" y="56.399736"/>
     <use style="fill-opacity:0.3;stroke:#000000;stroke-opacity:0.3;" x="115.021294" xlink:href="#m3fb9563d94" y="56.399736"/>
     <use style="fill-opacity:0.3;stroke:#000000;stroke-opacity:0.3;" x="110.896089" xlink:href="#m3fb9563d94" y="56.399736"/>
     <use style="fill-opacity:0.3;stroke:#000000;stroke-opacity:0.3;" x="109.383367" xlink:href="#m3fb9563d94" y="56.399736"/>
     <use style="fill-opacity:0.3;stroke:#000000;stroke-opacity:0.3;" x="104.554169" xlink:href="#m3fb9563d94" y="56.399736"/>
     <use style="fill-opacity:0.3;stroke:#000000;stroke-opacity:0.3;" x="115.460093" xlink:href="#m3fb9563d94" y="56.399736"/>
     <use style="fill-opacity:0.3;stroke:#000000;stroke-opacity:0.3;" x="104.239255" xlink:href="#m3fb9563d94" y="56.399736"/>
     <use style="fill-opacity:0.3;stroke:#000000;stroke-opacity:0.3;" x="112.699449" xlink:href="#m3fb9563d94" y="56.399736"/>
     <use style="fill-opacity:0.3;stroke:#000000;stroke-opacity:0.3;" x="106.385822" xlink:href="#m3fb9563d94" y="56.399736"/>
     <use style="fill-opacity:0.3;stroke:#000000;stroke-opacity:0.3;" x="109.648316" xlink:href="#m3fb9563d94" y="56.399736"/>
    </g>
   </g>
   <g id="PathCollection_4">
    <g clip-path="url(#pb31c2bf04f)">
     <use style="stroke:#000000;" x="120.7651" xlink:href="#mee559fc766" y="27.519957"/>
     <use style="stroke:#000000;" x="110.279168" xlink:href="#mee559fc766" y="56.399736"/>
     <use style="stroke:#000000;" x="120.673829" xlink:href="#mee559fc766" y="85.279514"/>
     <use style="stroke:#000000;" x="96.74833" xlink:href="#mee559fc766" y="114.159293"/>
    </g>
   </g>
   <g id="PathCollection_5">
    <g clip-path="url(#pb31c2bf04f)">
     <use style="fill-opacity:0.3;stroke:#000000;stroke-opacity:0.3;" x="122.930365" xlink:href="#m3fb9563d94" y="85.279514"/>
     <use style="fill-opacity:0.3;stroke:#000000;stroke-opacity:0.3;" x="120.340876" xlink:href="#m3fb9563d94" y="85.279514"/>
     <use style="fill-opacity:0.3;stroke:#000000;stroke-opacity:0.3;" x="118.682102" xlink:href="#m3fb9563d94" y="85.279514"/>
     <use style="fill-opacity:0.3;stroke:#000000;stroke-opacity:0.3;" x="122.97921" xlink:href="#m3fb9563d94" y="85.279514"/>
     <use style="fill-opacity:0.3;stroke:#000000;stroke-opacity:0.3;" x="117.30685" xlink:href="#m3fb9563d94" y="85.279514"/>
     <use style="fill-opacity:0.3;stroke:#000000;stroke-opacity:0.3;" x="120.83263" xlink:href="#m3fb9563d94" y="85.279514"/>
     <use style="fill-opacity:0.3;stroke:#000000;stroke-opacity:0.3;" x="122.763378" xlink:href="#m3fb9563d94" y="85.279514"/>
     <use style="fill-opacity:0.3;stroke:#000000;stroke-opacity:0.3;" x="121.379497" xlink:href="#m3fb9563d94" y="85.279514"/>
     <use style="fill-opacity:0.3;stroke:#000000;stroke-opacity:0.3;" x="113.257848" xlink:href="#m3fb9563d94" y="85.279514"/>
     <use style="fill-opacity:0.3;stroke:#000000;stroke-opacity:0.3;" x="122.496366" xlink:href="#m3fb9563d94" y="85.279514"/>
     <use style="fill-opacity:0.3;stroke:#000000;stroke-opacity:0.3;" x="122.303825" xlink:href="#m3fb9563d94" y="85.279514"/>
     <use style="fill-opacity:0.3;stroke:#000000;stroke-opacity:0.3;" x="120.336168" xlink:href="#m3fb9563d94" y="85.279514"/>
     <use style="fill-opacity:0.3;stroke:#000000;stroke-opacity:0.3;" x="119.424272" xlink:href="#m3fb9563d94" y="85.279514"/>
     <use style="fill-opacity:0.3;stroke:#000000;stroke-opacity:0.3;" x="120.515029" xlink:href="#m3fb9563d94" y="85.279514"/>
     <use style="fill-opacity:0.3;stroke:#000000;stroke-opacity:0.3;" x="122.266519" xlink:href="#m3fb9563d94" y="85.279514"/>
     <use style="fill-opacity:0.3;stroke:#000000;stroke-opacity:0.3;" x="124.954726" xlink:href="#m3fb9563d94" y="85.279514"/>
     <use style="fill-opacity:0.3;stroke:#000000;stroke-opacity:0.3;" x="121.317198" xlink:href="#m3fb9563d94" y="85.279514"/>
     <use style="fill-opacity:0.3;stroke:#000000;stroke-opacity:0.3;" x="113.155263" xlink:href="#m3fb9563d94" y="85.279514"/>
     <use style="fill-opacity:0.3;stroke:#000000;stroke-opacity:0.3;" x="116.476008" xlink:href="#m3fb9563d94" y="85.279514"/>
     <use style="fill-opacity:0.3;stroke:#000000;stroke-opacity:0.3;" x="120.163461" xlink:href="#m3fb9563d94" y="85.279514"/>
    </g>
   </g>
   <g id="PathCollection_6">
    <g clip-path="url(#pb31c2bf04f)">
     <use style="stroke:#000000;" x="120.7651" xlink:href="#mee559fc766" y="27.519957"/>
     <use style="stroke:#000000;" x="110.279168" xlink:href="#mee559fc766" y="56.399736"/>
     <use style="stroke:#000000;" x="120.673829" xlink:href="#mee559fc766" y="85.279514"/>
     <use style="stroke:#000000;" x="96.74833" xlink:href="#mee559fc766" y="114.159293"/>
    </g>
   </g>
   <g id="PathCollection_7">
    <g clip-path="url(#pb31c2bf04f)">
     <use style="fill-opacity:0.3;stroke:#000000;stroke-opacity:0.3;" x="106.942351" xlink:href="#m3fb9563d94" y="114.159293"/>
     <use style="fill-opacity:0.3;stroke:#000000;stroke-opacity:0.3;" x="101.913274" xlink:href="#m3fb9563d94" y="114.159293"/>
     <use style="fill-opacity:0.3;stroke:#000000;stroke-opacity:0.3;" x="101.32238" xlink:href="#m3fb9563d94" y="114.159293"/>
     <use style="fill-opacity:0.3;stroke:#000000;stroke-opacity:0.3;" x="100.479804" xlink:href="#m3fb9563d94" y="114.159293"/>
     <use style="fill-opacity:0.3;stroke:#000000;stroke-opacity:0.3;" x="76.697673" xlink:href="#m3fb9563d94" y="114.159293"/>
     <use style="fill-opacity:0.3;stroke:#000000;stroke-opacity:0.3;" x="84.367599" xlink:href="#m3fb9563d94" y="114.159293"/>
     <use style="fill-opacity:0.3;stroke:#000000;stroke-opacity:0.3;" x="96.730409" xlink:href="#m3fb9563d94" y="114.159293"/>
     <use style="fill-opacity:0.3;stroke:#000000;stroke-opacity:0.3;" x="96.766251" xlink:href="#m3fb9563d94" y="114.159293"/>
     <use style="fill-opacity:0.3;stroke:#000000;stroke-opacity:0.3;" x="73.904025" xlink:href="#m3fb9563d94" y="114.159293"/>
     <use style="fill-opacity:0.3;stroke:#000000;stroke-opacity:0.3;" x="90.153491" xlink:href="#m3fb9563d94" y="114.159293"/>
     <use style="fill-opacity:0.3;stroke:#000000;stroke-opacity:0.3;" x="97.574029" xlink:href="#m3fb9563d94" y="114.159293"/>
     <use style="fill-opacity:0.3;stroke:#000000;stroke-opacity:0.3;" x="100.411505" xlink:href="#m3fb9563d94" y="114.159293"/>
     <use style="fill-opacity:0.3;stroke:#000000;stroke-opacity:0.3;" x="85.04856" xlink:href="#m3fb9563d94" y="114.159293"/>
     <use style="fill-opacity:0.3;stroke:#000000;stroke-opacity:0.3;" x="90.536824" xlink:href="#m3fb9563d94" y="114.159293"/>
     <use style="fill-opacity:0.3;stroke:#000000;stroke-opacity:0.3;" x="80.854433" xlink:href="#m3fb9563d94" y="114.159293"/>
     <use style="fill-opacity:0.3;stroke:#000000;stroke-opacity:0.3;" x="98.136085" xlink:href="#m3fb9563d94" y="114.159293"/>
     <use style="fill-opacity:0.3;stroke:#000000;stroke-opacity:0.3;" x="100.584468" xlink:href="#m3fb9563d94" y="114.159293"/>
     <use style="fill-opacity:0.3;stroke:#000000;stroke-opacity:0.3;" x="79.64009" xlink:href="#m3fb9563d94" y="114.159293"/>
     <use style="fill-opacity:0.3;stroke:#000000;stroke-opacity:0.3;" x="96.530561" xlink:href="#m3fb9563d94" y="114.159293"/>
     <use style="fill-opacity:0.3;stroke:#000000;stroke-opacity:0.3;" x="102.523532" xlink:href="#m3fb9563d94" y="114.159293"/>
    </g>
   </g>
   <g id="PathCollection_8">
    <g clip-path="url(#pb31c2bf04f)">
     <use style="stroke:#000000;" x="120.7651" xlink:href="#mee559fc766" y="27.519957"/>
     <use style="stroke:#000000;" x="110.279168" xlink:href="#mee559fc766" y="56.399736"/>
     <use style="stroke:#000000;" x="120.673829" xlink:href="#mee559fc766" y="85.279514"/>
     <use style="stroke:#000000;" x="96.74833" xlink:href="#mee559fc766" y="114.159293"/>
    </g>
   </g>
   <g id="matplotlib.axis_1">
    <g id="xtick_1">
     <g id="line2d_1">
      <defs>
       <path d="M 0 0 
L 0 3.5 
" id="mf2e97623bc" style="stroke:#000000;stroke-width:0.8;"/>
      </defs>
      <g>
       <use style="stroke:#000000;stroke-width:0.8;" x="76.606256" xlink:href="#mf2e97623bc" y="118.49126"/>
      </g>
     </g>
     <g id="text_1">
      <!-- 0 -->
      <g transform="translate(74.381881 131.21751)scale(0.08 -0.08)">
       <defs>
        <path d="M 4.15625 35.296875 
Q 4.15625 48 6.765625 55.734375 
Q 9.375 63.484375 14.515625 67.671875 
Q 19.671875 71.875 27.484375 71.875 
Q 33.25 71.875 37.59375 69.546875 
Q 41.9375 67.234375 44.765625 62.859375 
Q 47.609375 58.5 49.21875 52.21875 
Q 50.828125 45.953125 50.828125 35.296875 
Q 50.828125 22.703125 48.234375 14.96875 
Q 45.65625 7.234375 40.5 3 
Q 35.359375 -1.21875 27.484375 -1.21875 
Q 17.140625 -1.21875 11.234375 6.203125 
Q 4.15625 15.140625 4.15625 35.296875 
z
M 13.1875 35.296875 
Q 13.1875 17.671875 17.3125 11.828125 
Q 21.4375 6 27.484375 6 
Q 33.546875 6 37.671875 11.859375 
Q 41.796875 17.71875 41.796875 35.296875 
Q 41.796875 52.984375 37.671875 58.78125 
Q 33.546875 64.59375 27.390625 64.59375 
Q 21.34375 64.59375 17.71875 59.46875 
Q 13.1875 52.9375 13.1875 35.296875 
z
" id="ArialMT-48"/>
       </defs>
       <use xlink:href="#ArialMT-48"/>
      </g>
     </g>
    </g>
    <g id="xtick_2">
     <g id="line2d_2">
      <g>
       <use style="stroke:#000000;stroke-width:0.8;" x="101.284789" xlink:href="#mf2e97623bc" y="118.49126"/>
      </g>
     </g>
     <g id="text_2">
      <!-- -.44 -->
      <g transform="translate(94.392914 131.21751)scale(0.08 -0.08)">
       <defs>
        <path d="M 3.171875 21.484375 
L 3.171875 30.328125 
L 30.171875 30.328125 
L 30.171875 21.484375 
z
" id="ArialMT-45"/>
        <path d="M 9.078125 0 
L 9.078125 10.015625 
L 19.09375 10.015625 
L 19.09375 0 
z
" id="ArialMT-46"/>
        <path d="M 32.328125 0 
L 32.328125 17.140625 
L 1.265625 17.140625 
L 1.265625 25.203125 
L 33.9375 71.578125 
L 41.109375 71.578125 
L 41.109375 25.203125 
L 50.78125 25.203125 
L 50.78125 17.140625 
L 41.109375 17.140625 
L 41.109375 0 
z
M 32.328125 25.203125 
L 32.328125 57.46875 
L 9.90625 25.203125 
z
" id="ArialMT-52"/>
       </defs>
       <use xlink:href="#ArialMT-45"/>
       <use x="33.300781" xlink:href="#ArialMT-46"/>
       <use x="61.083984" xlink:href="#ArialMT-52"/>
       <use x="116.699219" xlink:href="#ArialMT-52"/>
      </g>
     </g>
    </g>
    <g id="xtick_3">
     <g id="line2d_3">
      <g>
       <use style="stroke:#000000;stroke-width:0.8;" x="125.963323" xlink:href="#mf2e97623bc" y="118.49126"/>
      </g>
     </g>
     <g id="text_3">
      <!-- -.88 -->
      <g transform="translate(119.071448 131.21751)scale(0.08 -0.08)">
       <defs>
        <path d="M 17.671875 38.8125 
Q 12.203125 40.828125 9.5625 44.53125 
Q 6.9375 48.25 6.9375 53.421875 
Q 6.9375 61.234375 12.546875 66.546875 
Q 18.171875 71.875 27.484375 71.875 
Q 36.859375 71.875 42.578125 66.421875 
Q 48.296875 60.984375 48.296875 53.171875 
Q 48.296875 48.1875 45.671875 44.5 
Q 43.0625 40.828125 37.75 38.8125 
Q 44.34375 36.671875 47.78125 31.875 
Q 51.21875 27.09375 51.21875 20.453125 
Q 51.21875 11.28125 44.71875 5.03125 
Q 38.234375 -1.21875 27.640625 -1.21875 
Q 17.046875 -1.21875 10.546875 5.046875 
Q 4.046875 11.328125 4.046875 20.703125 
Q 4.046875 27.6875 7.59375 32.390625 
Q 11.140625 37.109375 17.671875 38.8125 
z
M 15.921875 53.71875 
Q 15.921875 48.640625 19.1875 45.40625 
Q 22.46875 42.1875 27.6875 42.1875 
Q 32.765625 42.1875 36.015625 45.375 
Q 39.265625 48.578125 39.265625 53.21875 
Q 39.265625 58.0625 35.90625 61.359375 
Q 32.5625 64.65625 27.59375 64.65625 
Q 22.5625 64.65625 19.234375 61.421875 
Q 15.921875 58.203125 15.921875 53.71875 
z
M 13.09375 20.65625 
Q 13.09375 16.890625 14.875 13.375 
Q 16.65625 9.859375 20.171875 7.921875 
Q 23.6875 6 27.734375 6 
Q 34.03125 6 38.125 10.046875 
Q 42.234375 14.109375 42.234375 20.359375 
Q 42.234375 26.703125 38.015625 30.859375 
Q 33.796875 35.015625 27.4375 35.015625 
Q 21.234375 35.015625 17.15625 30.90625 
Q 13.09375 26.8125 13.09375 20.65625 
z
" id="ArialMT-56"/>
       </defs>
       <use xlink:href="#ArialMT-45"/>
       <use x="33.300781" xlink:href="#ArialMT-46"/>
       <use x="61.083984" xlink:href="#ArialMT-56"/>
       <use x="116.699219" xlink:href="#ArialMT-56"/>
      </g>
      <!-- (optimal) -->
      <g transform="translate(110.405823 139.79601)scale(0.08 -0.08)">
       <defs>
        <path d="M 23.390625 -21.046875 
Q 16.109375 -11.859375 11.078125 0.4375 
Q 6.0625 12.75 6.0625 25.921875 
Q 6.0625 37.546875 9.8125 48.1875 
Q 14.203125 60.546875 23.390625 72.796875 
L 29.6875 72.796875 
Q 23.78125 62.640625 21.875 58.296875 
Q 18.890625 51.5625 17.1875 44.234375 
Q 15.09375 35.109375 15.09375 25.875 
Q 15.09375 2.390625 29.6875 -21.046875 
z
" id="ArialMT-40"/>
        <path d="M 3.328125 25.921875 
Q 3.328125 40.328125 11.328125 47.265625 
Q 18.015625 53.03125 27.640625 53.03125 
Q 38.328125 53.03125 45.109375 46.015625 
Q 51.90625 39.015625 51.90625 26.65625 
Q 51.90625 16.65625 48.90625 10.90625 
Q 45.90625 5.171875 40.15625 2 
Q 34.421875 -1.171875 27.640625 -1.171875 
Q 16.75 -1.171875 10.03125 5.8125 
Q 3.328125 12.796875 3.328125 25.921875 
z
M 12.359375 25.921875 
Q 12.359375 15.96875 16.703125 11.015625 
Q 21.046875 6.0625 27.640625 6.0625 
Q 34.1875 6.0625 38.53125 11.03125 
Q 42.875 16.015625 42.875 26.21875 
Q 42.875 35.84375 38.5 40.796875 
Q 34.125 45.75 27.640625 45.75 
Q 21.046875 45.75 16.703125 40.8125 
Q 12.359375 35.890625 12.359375 25.921875 
z
" id="ArialMT-111"/>
        <path d="M 6.59375 -19.875 
L 6.59375 51.859375 
L 14.59375 51.859375 
L 14.59375 45.125 
Q 17.4375 49.078125 21 51.046875 
Q 24.5625 53.03125 29.640625 53.03125 
Q 36.28125 53.03125 41.359375 49.609375 
Q 46.4375 46.1875 49.015625 39.953125 
Q 51.609375 33.734375 51.609375 26.3125 
Q 51.609375 18.359375 48.75 11.984375 
Q 45.90625 5.609375 40.453125 2.21875 
Q 35.015625 -1.171875 29 -1.171875 
Q 24.609375 -1.171875 21.109375 0.6875 
Q 17.625 2.546875 15.375 5.375 
L 15.375 -19.875 
z
M 14.546875 25.640625 
Q 14.546875 15.625 18.59375 10.84375 
Q 22.65625 6.0625 28.421875 6.0625 
Q 34.28125 6.0625 38.453125 11.015625 
Q 42.625 15.96875 42.625 26.375 
Q 42.625 36.28125 38.546875 41.203125 
Q 34.46875 46.140625 28.8125 46.140625 
Q 23.1875 46.140625 18.859375 40.890625 
Q 14.546875 35.640625 14.546875 25.640625 
z
" id="ArialMT-112"/>
        <path d="M 25.78125 7.859375 
L 27.046875 0.09375 
Q 23.34375 -0.6875 20.40625 -0.6875 
Q 15.625 -0.6875 12.984375 0.828125 
Q 10.359375 2.34375 9.28125 4.8125 
Q 8.203125 7.28125 8.203125 15.1875 
L 8.203125 45.015625 
L 1.765625 45.015625 
L 1.765625 51.859375 
L 8.203125 51.859375 
L 8.203125 64.703125 
L 16.9375 69.96875 
L 16.9375 51.859375 
L 25.78125 51.859375 
L 25.78125 45.015625 
L 16.9375 45.015625 
L 16.9375 14.703125 
Q 16.9375 10.9375 17.40625 9.859375 
Q 17.875 8.796875 18.921875 8.15625 
Q 19.96875 7.515625 21.921875 7.515625 
Q 23.390625 7.515625 25.78125 7.859375 
z
" id="ArialMT-116"/>
        <path d="M 6.640625 61.46875 
L 6.640625 71.578125 
L 15.4375 71.578125 
L 15.4375 61.46875 
z
M 6.640625 0 
L 6.640625 51.859375 
L 15.4375 51.859375 
L 15.4375 0 
z
" id="ArialMT-105"/>
        <path d="M 6.59375 0 
L 6.59375 51.859375 
L 14.453125 51.859375 
L 14.453125 44.578125 
Q 16.890625 48.390625 20.9375 50.703125 
Q 25 53.03125 30.171875 53.03125 
Q 35.9375 53.03125 39.625 50.640625 
Q 43.3125 48.25 44.828125 43.953125 
Q 50.984375 53.03125 60.84375 53.03125 
Q 68.5625 53.03125 72.703125 48.75 
Q 76.859375 44.484375 76.859375 35.59375 
L 76.859375 0 
L 68.109375 0 
L 68.109375 32.671875 
Q 68.109375 37.9375 67.25 40.25 
Q 66.40625 42.578125 64.15625 43.984375 
Q 61.921875 45.40625 58.890625 45.40625 
Q 53.421875 45.40625 49.796875 41.765625 
Q 46.1875 38.140625 46.1875 30.125 
L 46.1875 0 
L 37.40625 0 
L 37.40625 33.6875 
Q 37.40625 39.546875 35.25 42.46875 
Q 33.109375 45.40625 28.21875 45.40625 
Q 24.515625 45.40625 21.359375 43.453125 
Q 18.21875 41.5 16.796875 37.734375 
Q 15.375 33.984375 15.375 26.90625 
L 15.375 0 
z
" id="ArialMT-109"/>
        <path d="M 40.4375 6.390625 
Q 35.546875 2.25 31.03125 0.53125 
Q 26.515625 -1.171875 21.34375 -1.171875 
Q 12.796875 -1.171875 8.203125 3 
Q 3.609375 7.171875 3.609375 13.671875 
Q 3.609375 17.484375 5.34375 20.625 
Q 7.078125 23.78125 9.890625 25.6875 
Q 12.703125 27.59375 16.21875 28.5625 
Q 18.796875 29.25 24.03125 29.890625 
Q 34.671875 31.15625 39.703125 32.90625 
Q 39.75 34.71875 39.75 35.203125 
Q 39.75 40.578125 37.25 42.78125 
Q 33.890625 45.75 27.25 45.75 
Q 21.046875 45.75 18.09375 43.578125 
Q 15.140625 41.40625 13.71875 35.890625 
L 5.125 37.0625 
Q 6.296875 42.578125 8.984375 45.96875 
Q 11.671875 49.359375 16.75 51.1875 
Q 21.828125 53.03125 28.515625 53.03125 
Q 35.15625 53.03125 39.296875 51.46875 
Q 43.453125 49.90625 45.40625 47.53125 
Q 47.359375 45.171875 48.140625 41.546875 
Q 48.578125 39.3125 48.578125 33.453125 
L 48.578125 21.734375 
Q 48.578125 9.46875 49.140625 6.21875 
Q 49.703125 2.984375 51.375 0 
L 42.1875 0 
Q 40.828125 2.734375 40.4375 6.390625 
z
M 39.703125 26.03125 
Q 34.90625 24.078125 25.34375 22.703125 
Q 19.921875 21.921875 17.671875 20.9375 
Q 15.4375 19.96875 14.203125 18.09375 
Q 12.984375 16.21875 12.984375 13.921875 
Q 12.984375 10.40625 15.640625 8.0625 
Q 18.3125 5.71875 23.4375 5.71875 
Q 28.515625 5.71875 32.46875 7.9375 
Q 36.421875 10.15625 38.28125 14.015625 
Q 39.703125 17 39.703125 22.796875 
z
" id="ArialMT-97"/>
        <path d="M 6.390625 0 
L 6.390625 71.578125 
L 15.1875 71.578125 
L 15.1875 0 
z
" id="ArialMT-108"/>
        <path d="M 12.359375 -21.046875 
L 6.0625 -21.046875 
Q 20.65625 2.390625 20.65625 25.875 
Q 20.65625 35.0625 18.5625 44.09375 
Q 16.890625 51.421875 13.921875 58.15625 
Q 12.015625 62.546875 6.0625 72.796875 
L 12.359375 72.796875 
Q 21.53125 60.546875 25.921875 48.1875 
Q 29.6875 37.546875 29.6875 25.921875 
Q 29.6875 12.75 24.625 0.4375 
Q 19.578125 -11.859375 12.359375 -21.046875 
z
" id="ArialMT-41"/>
       </defs>
       <use xlink:href="#ArialMT-40"/>
       <use x="33.300781" xlink:href="#ArialMT-111"/>
       <use x="88.916016" xlink:href="#ArialMT-112"/>
       <use x="144.53125" xlink:href="#ArialMT-116"/>
       <use x="172.314453" xlink:href="#ArialMT-105"/>
       <use x="194.53125" xlink:href="#ArialMT-109"/>
       <use x="277.832031" xlink:href="#ArialMT-97"/>
       <use x="333.447266" xlink:href="#ArialMT-108"/>
       <use x="355.664062" xlink:href="#ArialMT-41"/>
      </g>
     </g>
    </g>
   </g>
   <g id="matplotlib.axis_2">
    <g id="ytick_1">
     <g id="line2d_4">
      <defs>
       <path d="M 0 0 
L -3.5 0 
" id="m62c711349a" style="stroke:#000000;stroke-width:0.8;"/>
      </defs>
      <g>
       <use style="stroke:#000000;stroke-width:0.8;" x="71.35149" xlink:href="#m62c711349a" y="27.519957"/>
      </g>
     </g>
     <g id="text_4">
      <!-- Gated recurrent -->
      <g transform="translate(8.32899 26.724957)scale(0.08 -0.08)">
       <defs>
        <path d="M 41.21875 28.078125 
L 41.21875 36.46875 
L 71.53125 36.53125 
L 71.53125 9.96875 
Q 64.546875 4.390625 57.125 1.578125 
Q 49.703125 -1.21875 41.890625 -1.21875 
Q 31.34375 -1.21875 22.71875 3.296875 
Q 14.109375 7.8125 9.71875 16.359375 
Q 5.328125 24.90625 5.328125 35.453125 
Q 5.328125 45.90625 9.6875 54.953125 
Q 14.0625 64.015625 22.265625 68.40625 
Q 30.46875 72.796875 41.15625 72.796875 
Q 48.921875 72.796875 55.1875 70.28125 
Q 61.46875 67.78125 65.03125 63.28125 
Q 68.609375 58.796875 70.453125 51.5625 
L 61.921875 49.21875 
Q 60.296875 54.6875 57.90625 57.8125 
Q 55.515625 60.9375 51.0625 62.8125 
Q 46.625 64.703125 41.21875 64.703125 
Q 34.71875 64.703125 29.984375 62.71875 
Q 25.25 60.75 22.34375 57.515625 
Q 19.4375 54.296875 17.828125 50.4375 
Q 15.09375 43.796875 15.09375 36.03125 
Q 15.09375 26.46875 18.390625 20.015625 
Q 21.6875 13.578125 27.984375 10.453125 
Q 34.28125 7.328125 41.359375 7.328125 
Q 47.515625 7.328125 53.375 9.6875 
Q 59.234375 12.0625 62.25 14.75 
L 62.25 28.078125 
z
" id="ArialMT-71"/>
        <path d="M 42.09375 16.703125 
L 51.171875 15.578125 
Q 49.03125 7.625 43.21875 3.21875 
Q 37.40625 -1.171875 28.375 -1.171875 
Q 17 -1.171875 10.328125 5.828125 
Q 3.65625 12.84375 3.65625 25.484375 
Q 3.65625 38.578125 10.390625 45.796875 
Q 17.140625 53.03125 27.875 53.03125 
Q 38.28125 53.03125 44.875 45.953125 
Q 51.46875 38.875 51.46875 26.03125 
Q 51.46875 25.25 51.421875 23.6875 
L 12.75 23.6875 
Q 13.234375 15.140625 17.578125 10.59375 
Q 21.921875 6.0625 28.421875 6.0625 
Q 33.25 6.0625 36.671875 8.59375 
Q 40.09375 11.140625 42.09375 16.703125 
z
M 13.234375 30.90625 
L 42.1875 30.90625 
Q 41.609375 37.453125 38.875 40.71875 
Q 34.671875 45.796875 27.984375 45.796875 
Q 21.921875 45.796875 17.796875 41.75 
Q 13.671875 37.703125 13.234375 30.90625 
z
" id="ArialMT-101"/>
        <path d="M 40.234375 0 
L 40.234375 6.546875 
Q 35.296875 -1.171875 25.734375 -1.171875 
Q 19.53125 -1.171875 14.328125 2.25 
Q 9.125 5.671875 6.265625 11.796875 
Q 3.421875 17.921875 3.421875 25.875 
Q 3.421875 33.640625 6 39.96875 
Q 8.59375 46.296875 13.765625 49.65625 
Q 18.953125 53.03125 25.34375 53.03125 
Q 30.03125 53.03125 33.6875 51.046875 
Q 37.359375 49.078125 39.65625 45.90625 
L 39.65625 71.578125 
L 48.390625 71.578125 
L 48.390625 0 
z
M 12.453125 25.875 
Q 12.453125 15.921875 16.640625 10.984375 
Q 20.84375 6.0625 26.5625 6.0625 
Q 32.328125 6.0625 36.34375 10.765625 
Q 40.375 15.484375 40.375 25.140625 
Q 40.375 35.796875 36.265625 40.765625 
Q 32.171875 45.75 26.171875 45.75 
Q 20.3125 45.75 16.375 40.96875 
Q 12.453125 36.1875 12.453125 25.875 
z
" id="ArialMT-100"/>
        <path id="ArialMT-32"/>
        <path d="M 6.5 0 
L 6.5 51.859375 
L 14.40625 51.859375 
L 14.40625 44 
Q 17.4375 49.515625 20 51.265625 
Q 22.5625 53.03125 25.640625 53.03125 
Q 30.078125 53.03125 34.671875 50.203125 
L 31.640625 42.046875 
Q 28.421875 43.953125 25.203125 43.953125 
Q 22.3125 43.953125 20.015625 42.21875 
Q 17.71875 40.484375 16.75 37.40625 
Q 15.28125 32.71875 15.28125 27.15625 
L 15.28125 0 
z
" id="ArialMT-114"/>
        <path d="M 40.4375 19 
L 49.078125 17.875 
Q 47.65625 8.9375 41.8125 3.875 
Q 35.984375 -1.171875 27.484375 -1.171875 
Q 16.84375 -1.171875 10.375 5.78125 
Q 3.90625 12.75 3.90625 25.734375 
Q 3.90625 34.125 6.6875 40.421875 
Q 9.46875 46.734375 15.15625 49.875 
Q 20.84375 53.03125 27.546875 53.03125 
Q 35.984375 53.03125 41.359375 48.75 
Q 46.734375 44.484375 48.25 36.625 
L 39.703125 35.296875 
Q 38.484375 40.53125 35.375 43.15625 
Q 32.28125 45.796875 27.875 45.796875 
Q 21.234375 45.796875 17.078125 41.03125 
Q 12.9375 36.28125 12.9375 25.984375 
Q 12.9375 15.53125 16.9375 10.796875 
Q 20.953125 6.0625 27.390625 6.0625 
Q 32.5625 6.0625 36.03125 9.234375 
Q 39.5 12.40625 40.4375 19 
z
" id="ArialMT-99"/>
        <path d="M 40.578125 0 
L 40.578125 7.625 
Q 34.515625 -1.171875 24.125 -1.171875 
Q 19.53125 -1.171875 15.546875 0.578125 
Q 11.578125 2.34375 9.640625 5 
Q 7.71875 7.671875 6.9375 11.53125 
Q 6.390625 14.109375 6.390625 19.734375 
L 6.390625 51.859375 
L 15.1875 51.859375 
L 15.1875 23.09375 
Q 15.1875 16.21875 15.71875 13.8125 
Q 16.546875 10.359375 19.234375 8.375 
Q 21.921875 6.390625 25.875 6.390625 
Q 29.828125 6.390625 33.296875 8.421875 
Q 36.765625 10.453125 38.203125 13.9375 
Q 39.65625 17.4375 39.65625 24.078125 
L 39.65625 51.859375 
L 48.4375 51.859375 
L 48.4375 0 
z
" id="ArialMT-117"/>
        <path d="M 6.59375 0 
L 6.59375 51.859375 
L 14.5 51.859375 
L 14.5 44.484375 
Q 20.21875 53.03125 31 53.03125 
Q 35.6875 53.03125 39.625 51.34375 
Q 43.5625 49.65625 45.515625 46.921875 
Q 47.46875 44.1875 48.25 40.4375 
Q 48.734375 37.984375 48.734375 31.890625 
L 48.734375 0 
L 39.9375 0 
L 39.9375 31.546875 
Q 39.9375 36.921875 38.90625 39.578125 
Q 37.890625 42.234375 35.28125 43.8125 
Q 32.671875 45.40625 29.15625 45.40625 
Q 23.53125 45.40625 19.453125 41.84375 
Q 15.375 38.28125 15.375 28.328125 
L 15.375 0 
z
" id="ArialMT-110"/>
       </defs>
       <use xlink:href="#ArialMT-71"/>
       <use x="77.783203" xlink:href="#ArialMT-97"/>
       <use x="133.398438" xlink:href="#ArialMT-116"/>
       <use x="161.181641" xlink:href="#ArialMT-101"/>
       <use x="216.796875" xlink:href="#ArialMT-100"/>
       <use x="272.412109" xlink:href="#ArialMT-32"/>
       <use x="300.195312" xlink:href="#ArialMT-114"/>
       <use x="333.496094" xlink:href="#ArialMT-101"/>
       <use x="389.111328" xlink:href="#ArialMT-99"/>
       <use x="439.111328" xlink:href="#ArialMT-117"/>
       <use x="494.726562" xlink:href="#ArialMT-114"/>
       <use x="528.027344" xlink:href="#ArialMT-114"/>
       <use x="561.328125" xlink:href="#ArialMT-101"/>
       <use x="616.943359" xlink:href="#ArialMT-110"/>
       <use x="672.558594" xlink:href="#ArialMT-116"/>
      </g>
      <!-- network -->
      <g transform="translate(36.34149 35.186457)scale(0.08 -0.08)">
       <defs>
        <path d="M 16.15625 0 
L 0.296875 51.859375 
L 9.375 51.859375 
L 17.625 21.921875 
L 20.703125 10.796875 
Q 20.90625 11.625 23.390625 21.484375 
L 31.640625 51.859375 
L 40.671875 51.859375 
L 48.4375 21.78125 
L 51.03125 11.859375 
L 54 21.875 
L 62.890625 51.859375 
L 71.4375 51.859375 
L 55.21875 0 
L 46.09375 0 
L 37.84375 31.0625 
L 35.84375 39.890625 
L 25.34375 0 
z
" id="ArialMT-119"/>
        <path d="M 6.640625 0 
L 6.640625 71.578125 
L 15.4375 71.578125 
L 15.4375 30.765625 
L 36.234375 51.859375 
L 47.609375 51.859375 
L 27.78125 32.625 
L 49.609375 0 
L 38.765625 0 
L 21.625 26.515625 
L 15.4375 20.5625 
L 15.4375 0 
z
" id="ArialMT-107"/>
       </defs>
       <use xlink:href="#ArialMT-110"/>
       <use x="55.615234" xlink:href="#ArialMT-101"/>
       <use x="111.230469" xlink:href="#ArialMT-116"/>
       <use x="139.013672" xlink:href="#ArialMT-119"/>
       <use x="211.230469" xlink:href="#ArialMT-111"/>
       <use x="266.845703" xlink:href="#ArialMT-114"/>
       <use x="300.146484" xlink:href="#ArialMT-107"/>
      </g>
     </g>
    </g>
    <g id="ytick_2">
     <g id="line2d_5">
      <g>
       <use style="stroke:#000000;stroke-width:0.8;" x="71.35149" xlink:href="#m62c711349a" y="56.399736"/>
      </g>
     </g>
     <g id="text_5">
      <!-- Without gating -->
      <g transform="translate(13.21399 59.262861)scale(0.08 -0.08)">
       <defs>
        <path d="M 20.21875 0 
L 1.21875 71.578125 
L 10.9375 71.578125 
L 21.828125 24.65625 
Q 23.578125 17.28125 24.859375 10.015625 
Q 27.59375 21.484375 28.078125 23.25 
L 41.703125 71.578125 
L 53.125 71.578125 
L 63.375 35.359375 
Q 67.234375 21.875 68.953125 10.015625 
Q 70.3125 16.796875 72.515625 25.59375 
L 83.734375 71.578125 
L 93.265625 71.578125 
L 73.640625 0 
L 64.5 0 
L 49.421875 54.546875 
Q 47.515625 61.375 47.171875 62.9375 
Q 46.046875 58.015625 45.0625 54.546875 
L 29.890625 0 
z
" id="ArialMT-87"/>
        <path d="M 6.59375 0 
L 6.59375 71.578125 
L 15.375 71.578125 
L 15.375 45.90625 
Q 21.53125 53.03125 30.90625 53.03125 
Q 36.671875 53.03125 40.921875 50.75 
Q 45.171875 48.484375 47 44.484375 
Q 48.828125 40.484375 48.828125 32.859375 
L 48.828125 0 
L 40.046875 0 
L 40.046875 32.859375 
Q 40.046875 39.453125 37.1875 42.453125 
Q 34.328125 45.453125 29.109375 45.453125 
Q 25.203125 45.453125 21.75 43.421875 
Q 18.3125 41.40625 16.84375 37.9375 
Q 15.375 34.46875 15.375 28.375 
L 15.375 0 
z
" id="ArialMT-104"/>
        <path d="M 4.984375 -4.296875 
L 13.53125 -5.5625 
Q 14.0625 -9.515625 16.5 -11.328125 
Q 19.78125 -13.765625 25.4375 -13.765625 
Q 31.546875 -13.765625 34.859375 -11.328125 
Q 38.1875 -8.890625 39.359375 -4.5 
Q 40.046875 -1.8125 39.984375 6.78125 
Q 34.234375 0 25.640625 0 
Q 14.9375 0 9.078125 7.71875 
Q 3.21875 15.4375 3.21875 26.21875 
Q 3.21875 33.640625 5.90625 39.90625 
Q 8.59375 46.1875 13.6875 49.609375 
Q 18.796875 53.03125 25.6875 53.03125 
Q 34.859375 53.03125 40.828125 45.609375 
L 40.828125 51.859375 
L 48.921875 51.859375 
L 48.921875 7.03125 
Q 48.921875 -5.078125 46.453125 -10.125 
Q 44 -15.1875 38.640625 -18.109375 
Q 33.296875 -21.046875 25.484375 -21.046875 
Q 16.21875 -21.046875 10.5 -16.875 
Q 4.78125 -12.703125 4.984375 -4.296875 
z
M 12.25 26.859375 
Q 12.25 16.65625 16.296875 11.96875 
Q 20.359375 7.28125 26.46875 7.28125 
Q 32.515625 7.28125 36.609375 11.9375 
Q 40.71875 16.609375 40.71875 26.5625 
Q 40.71875 36.078125 36.5 40.90625 
Q 32.28125 45.75 26.3125 45.75 
Q 20.453125 45.75 16.34375 40.984375 
Q 12.25 36.234375 12.25 26.859375 
z
" id="ArialMT-103"/>
       </defs>
       <use xlink:href="#ArialMT-87"/>
       <use x="94.384766" xlink:href="#ArialMT-105"/>
       <use x="116.601562" xlink:href="#ArialMT-116"/>
       <use x="144.384766" xlink:href="#ArialMT-104"/>
       <use x="200" xlink:href="#ArialMT-111"/>
       <use x="255.615234" xlink:href="#ArialMT-117"/>
       <use x="311.230469" xlink:href="#ArialMT-116"/>
       <use x="339.013672" xlink:href="#ArialMT-32"/>
       <use x="366.796875" xlink:href="#ArialMT-103"/>
       <use x="422.412109" xlink:href="#ArialMT-97"/>
       <use x="478.027344" xlink:href="#ArialMT-116"/>
       <use x="505.810547" xlink:href="#ArialMT-105"/>
       <use x="528.027344" xlink:href="#ArialMT-110"/>
       <use x="583.642578" xlink:href="#ArialMT-103"/>
      </g>
     </g>
    </g>
    <g id="ytick_3">
     <g id="line2d_6">
      <g>
       <use style="stroke:#000000;stroke-width:0.8;" x="71.35149" xlink:href="#m62c711349a" y="85.279514"/>
      </g>
     </g>
     <g id="text_6">
      <!-- Without lateral -->
      <g transform="translate(13.22149 84.484514)scale(0.08 -0.08)">
       <use xlink:href="#ArialMT-87"/>
       <use x="94.384766" xlink:href="#ArialMT-105"/>
       <use x="116.601562" xlink:href="#ArialMT-116"/>
       <use x="144.384766" xlink:href="#ArialMT-104"/>
       <use x="200" xlink:href="#ArialMT-111"/>
       <use x="255.615234" xlink:href="#ArialMT-117"/>
       <use x="311.230469" xlink:href="#ArialMT-116"/>
       <use x="339.013672" xlink:href="#ArialMT-32"/>
       <use x="366.796875" xlink:href="#ArialMT-108"/>
       <use x="389.013672" xlink:href="#ArialMT-97"/>
       <use x="444.628906" xlink:href="#ArialMT-116"/>
       <use x="472.412109" xlink:href="#ArialMT-101"/>
       <use x="528.027344" xlink:href="#ArialMT-114"/>
       <use x="561.328125" xlink:href="#ArialMT-97"/>
       <use x="616.943359" xlink:href="#ArialMT-108"/>
      </g>
      <!-- connections -->
      <g transform="translate(21.65899 92.946014)scale(0.08 -0.08)">
       <defs>
        <path d="M 3.078125 15.484375 
L 11.765625 16.84375 
Q 12.5 11.625 15.84375 8.84375 
Q 19.1875 6.0625 25.203125 6.0625 
Q 31.25 6.0625 34.171875 8.515625 
Q 37.109375 10.984375 37.109375 14.3125 
Q 37.109375 17.28125 34.515625 19 
Q 32.71875 20.171875 25.53125 21.96875 
Q 15.875 24.421875 12.140625 26.203125 
Q 8.40625 27.984375 6.46875 31.125 
Q 4.546875 34.28125 4.546875 38.09375 
Q 4.546875 41.546875 6.125 44.5 
Q 7.71875 47.46875 10.453125 49.421875 
Q 12.5 50.921875 16.03125 51.96875 
Q 19.578125 53.03125 23.640625 53.03125 
Q 29.734375 53.03125 34.34375 51.265625 
Q 38.96875 49.515625 41.15625 46.5 
Q 43.359375 43.5 44.1875 38.484375 
L 35.59375 37.3125 
Q 35.015625 41.3125 32.203125 43.546875 
Q 29.390625 45.796875 24.265625 45.796875 
Q 18.21875 45.796875 15.625 43.796875 
Q 13.03125 41.796875 13.03125 39.109375 
Q 13.03125 37.40625 14.109375 36.03125 
Q 15.1875 34.625 17.484375 33.6875 
Q 18.796875 33.203125 25.25 31.453125 
Q 34.578125 28.953125 38.25 27.359375 
Q 41.9375 25.78125 44.03125 22.75 
Q 46.140625 19.734375 46.140625 15.234375 
Q 46.140625 10.84375 43.578125 6.953125 
Q 41.015625 3.078125 36.171875 0.953125 
Q 31.34375 -1.171875 25.25 -1.171875 
Q 15.140625 -1.171875 9.84375 3.03125 
Q 4.546875 7.234375 3.078125 15.484375 
z
" id="ArialMT-115"/>
       </defs>
       <use xlink:href="#ArialMT-99"/>
       <use x="50" xlink:href="#ArialMT-111"/>
       <use x="105.615234" xlink:href="#ArialMT-110"/>
       <use x="161.230469" xlink:href="#ArialMT-110"/>
       <use x="216.845703" xlink:href="#ArialMT-101"/>
       <use x="272.460938" xlink:href="#ArialMT-99"/>
       <use x="322.460938" xlink:href="#ArialMT-116"/>
       <use x="350.244141" xlink:href="#ArialMT-105"/>
       <use x="372.460938" xlink:href="#ArialMT-111"/>
       <use x="428.076172" xlink:href="#ArialMT-110"/>
       <use x="483.691406" xlink:href="#ArialMT-115"/>
      </g>
     </g>
    </g>
    <g id="ytick_4">
     <g id="line2d_7">
      <g>
       <use style="stroke:#000000;stroke-width:0.8;" x="71.35149" xlink:href="#m62c711349a" y="114.159293"/>
      </g>
     </g>
     <g id="text_7">
      <!-- Without recurrent -->
      <g transform="translate(3.00024 113.364293)scale(0.08 -0.08)">
       <use xlink:href="#ArialMT-87"/>
       <use x="94.384766" xlink:href="#ArialMT-105"/>
       <use x="116.601562" xlink:href="#ArialMT-116"/>
       <use x="144.384766" xlink:href="#ArialMT-104"/>
       <use x="200" xlink:href="#ArialMT-111"/>
       <use x="255.615234" xlink:href="#ArialMT-117"/>
       <use x="311.230469" xlink:href="#ArialMT-116"/>
       <use x="339.013672" xlink:href="#ArialMT-32"/>
       <use x="366.796875" xlink:href="#ArialMT-114"/>
       <use x="400.097656" xlink:href="#ArialMT-101"/>
       <use x="455.712891" xlink:href="#ArialMT-99"/>
       <use x="505.712891" xlink:href="#ArialMT-117"/>
       <use x="561.328125" xlink:href="#ArialMT-114"/>
       <use x="594.628906" xlink:href="#ArialMT-114"/>
       <use x="627.929688" xlink:href="#ArialMT-101"/>
       <use x="683.544922" xlink:href="#ArialMT-110"/>
       <use x="739.160156" xlink:href="#ArialMT-116"/>
      </g>
      <!-- weight training -->
      <g transform="translate(12.76899 121.825793)scale(0.08 -0.08)">
       <use xlink:href="#ArialMT-119"/>
       <use x="72.216797" xlink:href="#ArialMT-101"/>
       <use x="127.832031" xlink:href="#ArialMT-105"/>
       <use x="150.048828" xlink:href="#ArialMT-103"/>
       <use x="205.664062" xlink:href="#ArialMT-104"/>
       <use x="261.279297" xlink:href="#ArialMT-116"/>
       <use x="289.0625" xlink:href="#ArialMT-32"/>
       <use x="316.845703" xlink:href="#ArialMT-116"/>
       <use x="344.628906" xlink:href="#ArialMT-114"/>
       <use x="377.929688" xlink:href="#ArialMT-97"/>
       <use x="433.544922" xlink:href="#ArialMT-105"/>
       <use x="455.761719" xlink:href="#ArialMT-110"/>
       <use x="511.376953" xlink:href="#ArialMT-105"/>
       <use x="533.59375" xlink:href="#ArialMT-110"/>
       <use x="589.208984" xlink:href="#ArialMT-103"/>
      </g>
     </g>
    </g>
   </g>
   <g id="patch_3">
    <path d="M 71.35149 118.49126 
L 71.35149 23.18799 
" style="fill:none;stroke:#000000;stroke-linecap:square;stroke-linejoin:miter;stroke-width:0.8;"/>
   </g>
   <g id="patch_4">
    <path d="M 71.35149 118.49126 
L 127.507261 118.49126 
" style="fill:none;stroke:#000000;stroke-linecap:square;stroke-linejoin:miter;stroke-width:0.8;"/>
   </g>
   <g id="text_8">
    <!-- Correlation with -->
    <g transform="translate(71.641875 8.72649)scale(0.08 -0.08)">
     <defs>
      <path d="M 58.796875 25.09375 
L 68.265625 22.703125 
Q 65.28125 11.03125 57.546875 4.90625 
Q 49.8125 -1.21875 38.625 -1.21875 
Q 27.046875 -1.21875 19.796875 3.484375 
Q 12.546875 8.203125 8.765625 17.140625 
Q 4.984375 26.078125 4.984375 36.328125 
Q 4.984375 47.515625 9.25 55.828125 
Q 13.53125 64.15625 21.40625 68.46875 
Q 29.296875 72.796875 38.765625 72.796875 
Q 49.515625 72.796875 56.828125 67.328125 
Q 64.15625 61.859375 67.046875 51.953125 
L 57.71875 49.75 
Q 55.21875 57.5625 50.484375 61.125 
Q 45.75 64.703125 38.578125 64.703125 
Q 30.328125 64.703125 24.78125 60.734375 
Q 19.234375 56.78125 16.984375 50.109375 
Q 14.75 43.453125 14.75 36.375 
Q 14.75 27.25 17.40625 20.4375 
Q 20.0625 13.625 25.671875 10.25 
Q 31.296875 6.890625 37.84375 6.890625 
Q 45.796875 6.890625 51.3125 11.46875 
Q 56.84375 16.0625 58.796875 25.09375 
z
" id="ArialMT-67"/>
     </defs>
     <use xlink:href="#ArialMT-67"/>
     <use x="72.216797" xlink:href="#ArialMT-111"/>
     <use x="127.832031" xlink:href="#ArialMT-114"/>
     <use x="161.132812" xlink:href="#ArialMT-114"/>
     <use x="194.433594" xlink:href="#ArialMT-101"/>
     <use x="250.048828" xlink:href="#ArialMT-108"/>
     <use x="272.265625" xlink:href="#ArialMT-97"/>
     <use x="327.880859" xlink:href="#ArialMT-116"/>
     <use x="355.664062" xlink:href="#ArialMT-105"/>
     <use x="377.880859" xlink:href="#ArialMT-111"/>
     <use x="433.496094" xlink:href="#ArialMT-110"/>
     <use x="489.111328" xlink:href="#ArialMT-32"/>
     <use x="516.894531" xlink:href="#ArialMT-119"/>
     <use x="589.111328" xlink:href="#ArialMT-105"/>
     <use x="611.328125" xlink:href="#ArialMT-116"/>
     <use x="639.111328" xlink:href="#ArialMT-104"/>
    </g>
    <!-- learning rate -->
    <g transform="translate(77.195 17.18799)scale(0.08 -0.08)">
     <use xlink:href="#ArialMT-108"/>
     <use x="22.216797" xlink:href="#ArialMT-101"/>
     <use x="77.832031" xlink:href="#ArialMT-97"/>
     <use x="133.447266" xlink:href="#ArialMT-114"/>
     <use x="166.748047" xlink:href="#ArialMT-110"/>
     <use x="222.363281" xlink:href="#ArialMT-105"/>
     <use x="244.580078" xlink:href="#ArialMT-110"/>
     <use x="300.195312" xlink:href="#ArialMT-103"/>
     <use x="355.810547" xlink:href="#ArialMT-32"/>
     <use x="383.59375" xlink:href="#ArialMT-114"/>
     <use x="416.894531" xlink:href="#ArialMT-97"/>
     <use x="472.509766" xlink:href="#ArialMT-116"/>
     <use x="500.292969" xlink:href="#ArialMT-101"/>
    </g>
   </g>
  </g>
 </g>
 <defs>
  <clipPath id="pb31c2bf04f">
   <rect height="95.30327" width="56.155771" x="71.35149" y="23.18799"/>
  </clipPath>
 </defs>
</svg>
